<?xml version="1.0" encoding="UTF-8"?>
<svg width="21px" height="24px" viewBox="0 0 21 24" version="1.1" xmlns="http://www.w3.org/2000/svg" xmlns:xlink="http://www.w3.org/1999/xlink">
    <!-- Generator: Sketch 48.1 (47250) - http://www.bohemiancoding.com/sketch -->
    <title>discord</title>
    <desc>Created with Sketch.</desc>
    <defs></defs>
    <g id="Novo-Copy" stroke="none" stroke-width="1" fill="none" fill-rule="evenodd" transform="translate(-300.000000, -58.000000)">
        <g id="Group-2" transform="translate(300.000000, 58.000000)" fill="#FFFFFF" fill-rule="nonzero">
            <g id="discord">
                <path d="M18.5399648,0 L2.46011719,0 C1.10405859,0 0,1.10236177 0,2.4683959 L0,18.6686416 C0,20.0346758 1.10397656,21.1370375 2.46003516,21.1370375 L16.0680352,21.1370375 L15.4319648,18.920273 L16.968,20.3461843 L18.4199531,21.6882184 L21,23.9648601 L21,2.4683959 C21,1.10236177 19.8960234,0 18.5399648,0 Z M13.9079883,15.6491468 C13.9079883,15.6491468 13.4760117,15.133843 13.1159766,14.6784983 C14.6880234,14.2351126 15.288,13.252587 15.288,13.252587 C14.7959766,13.5761365 14.3279883,13.8038498 13.9079883,13.9594812 C13.3080117,14.2111945 12.7319883,14.3788669 12.1680234,14.474785 C11.0159766,14.6904573 9.95998828,14.6305802 9.06002344,14.4628259 C8.37596484,14.3309488 7.78796484,14.1392765 7.29602344,13.9476041 C7.01998828,13.839727 6.72,13.7079317 6.41992969,13.5401775 C6.384,13.5161775 6.34798828,13.5042184 6.31197656,13.4802184 C6.28802344,13.4682594 6.27596484,13.4563003 6.26398828,13.4443413 C6.048,13.3245051 5.92798828,13.240628 5.92798828,13.240628 C5.92798828,13.240628 6.50401172,14.1992355 8.02798828,14.6544983 C7.66803516,15.1099249 7.224,15.6490648 7.224,15.6490648 C4.57192969,15.5651877 3.56401172,13.8277679 3.56401172,13.8277679 C3.56401172,9.9694198 5.292,6.84196587 5.292,6.84196587 C7.01998828,5.54784983 8.66397656,5.58380887 8.66397656,5.58380887 L8.78398828,5.72764505 C6.62402344,6.3505802 5.628,7.29731058 5.628,7.29731058 C5.628,7.29731058 5.89197656,7.15355631 6.33592969,6.949843 C7.61996484,6.38662116 8.64002344,6.23090785 9.06002344,6.19494881 C9.13196484,6.18290785 9.19201172,6.17094881 9.26403516,6.17094881 C10.0681871,6.06634453 10.8819935,6.05831462 11.6880586,6.14703072 C12.8279648,6.27882594 14.0520352,6.61433447 15.2999766,7.29731058 C15.2999766,7.29731058 14.3520234,6.39866212 12.3119883,5.77556314 L12.4799883,5.58389078 C12.4799883,5.58389078 14.1239766,5.54784983 15.8519648,6.84204778 C15.8519648,6.84204778 17.5800352,9.9694198 17.5800352,13.8277679 C17.5800352,13.8277679 16.5599766,15.5651877 13.9079883,15.6490648 L13.9079883,15.6491468 Z M8.32797656,10.0532969 C7.644,10.0532969 7.10407031,10.6523959 7.10407031,11.3832901 C7.10407031,12.1142662 7.65597656,12.7133652 8.32797656,12.7133652 C9.01203516,12.7133652 9.55196484,12.1142662 9.55196484,11.3832901 C9.56402344,10.6523959 9.01203516,10.0532969 8.32805859,10.0532969 L8.32797656,10.0532969 Z M12.7080352,10.0532969 C12.0239766,10.0532969 11.4839648,10.6523959 11.4839648,11.3832901 C11.4839648,12.1142662 12.0360352,12.7133652 12.7080352,12.7133652 C13.3920117,12.7133652 13.9319414,12.1142662 13.9319414,11.3832901 C13.9319414,10.6523959 13.3920117,10.0532969 12.7080352,10.0532969 Z" id="Shape"></path>
            </g>
        </g>
    </g>
</svg>