<svg width="178px" height="34px" viewBox="0 0 178 34" version="1.1" xmlns="http://www.w3.org/2000/svg" xmlns:xlink="http://www.w3.org/1999/xlink">
    <g id="Page-1" stroke="none" stroke-width="1" fill="none" fill-rule="evenodd">
        <g id="Landing-Page" transform="translate(-1076.000000, -40.000000)">
            <g id="Group-13" transform="translate(1076.000000, 40.000000)">
                <path d="M55.952,8 L60.236,8 L60.236,26.756 C60.236,28.9400109 59.8580038,30.6079942 59.102,31.76 C58.3459962,32.9120058 57.1400083,33.488 55.484,33.488 C54.8119966,33.488 54.1280035,33.4040008 53.432,33.236 L53.432,29.42 C54.4640052,29.5160005 55.1419984,29.2220034 55.466,28.538 C55.7900016,27.8539966 55.952,26.8400067 55.952,25.496 L55.952,8 Z M55.448,2.924 C55.448,2.2039964 55.6759977,1.61000234 56.132,1.142 C56.5880023,0.67399766 57.2359958,0.44 58.076,0.44 C58.9160042,0.44 59.5879975,0.66799772 60.092,1.124 C60.5960025,1.58000228 60.848,2.17999628 60.848,2.924 C60.848,3.66800372 60.5960025,4.25599784 60.092,4.688 C59.5879975,5.12000216 58.9160042,5.336 58.076,5.336 C57.2359958,5.336 56.5880023,5.11400222 56.132,4.67 C55.6759977,4.22599778 55.448,3.6440036 55.448,2.924 Z M67.796,8 L67.796,18.764 C67.796,20.1800071 67.9279987,21.1639972 68.192,21.716 C68.4560013,22.2680028 68.9359965,22.544 69.632,22.544 C70.3040034,22.544 70.8679977,22.2980025 71.324,21.806 C71.7800023,21.3139975 72.103999,20.7200035 72.296,20.024 L72.296,8 L76.58,8 L76.58,20.528 C76.58,21.5120049 76.6159996,22.4779953 76.688,23.426 C76.7600004,24.3740047 76.891999,25.2319962 77.084,26 L73.844,26 L73.088,23.552 L72.98,23.552 C72.5239977,24.3920042 71.9060039,25.0879972 71.126,25.64 C70.3459961,26.1920028 69.3800058,26.468 68.228,26.468 C67.4839963,26.468 66.8240029,26.366001 66.248,26.162 C65.6719971,25.957999 65.180002,25.6040025 64.772,25.1 C64.363998,24.5959975 64.0520011,23.9060044 63.836,23.03 C63.6199989,22.1539956 63.512,21.0440067 63.512,19.7 L63.512,8 L67.796,8 Z M88.028,26 L88.028,15.524 C88.028,14.0119924 87.9080012,12.9620029 87.668,12.374 C87.4279988,11.7859971 86.9600035,11.492 86.264,11.492 C85.6879971,11.492 85.2140019,11.6779981 84.842,12.05 C84.4699981,12.4220019 84.188001,12.8719974 83.996,13.4 L83.996,26 L79.712,26 L79.712,8 L83.024,8 L83.564,10.16 L83.672,10.16 C84.1280023,9.41599628 84.6979966,8.79800246 85.382,8.306 C86.0660034,7.81399754 86.9719944,7.568 88.1,7.568 C89.0360047,7.568 89.7979971,7.77199796 90.386,8.18 C90.9740029,8.58800204 91.4359983,9.30799484 91.772,10.34 C92.2280023,9.47599568 92.8279963,8.79800246 93.572,8.306 C94.3160037,7.81399754 95.191995,7.568 96.2,7.568 C96.992004,7.568 97.6699972,7.66999898 98.234,7.874 C98.7980028,8.07800102 99.2539983,8.43199748 99.602,8.936 C99.9500017,9.44000252 100.207999,10.1299956 100.376,11.006 C100.544001,11.8820044 100.628,12.9919933 100.628,14.336 L100.628,26 L96.344,26 L96.344,15.056 C96.344,13.8319939 96.2360011,12.9320029 96.02,12.356 C95.8039989,11.7799971 95.3240037,11.492 94.58,11.492 C93.979997,11.492 93.4940019,11.6659983 93.122,12.014 C92.7499981,12.3620017 92.4800008,12.835997 92.312,13.436 L92.312,26 L88.028,26 Z M103.58,8 L106.784,8 L107.216,10.052 L107.324,10.052 C107.876003,9.18799568 108.493997,8.55800198 109.178,8.162 C109.862003,7.76599802 110.707995,7.568 111.716,7.568 C113.540009,7.568 114.913995,8.2579931 115.838,9.638 C116.762005,11.0180069 117.224,13.3159839 117.224,16.532 C117.224,19.7480161 116.648006,22.2139914 115.496,23.93 C114.343994,25.6460086 112.676011,26.504 110.492,26.504 C109.915997,26.504 109.424002,26.4560005 109.016,26.36 C108.607998,26.2639995 108.224002,26.1080011 107.864,25.892 L107.864,33.2 L103.58,33.2 L103.58,8 Z M107.864,21.968 C108.104001,22.2080012 108.373998,22.3879994 108.674,22.508 C108.974001,22.6280006 109.363998,22.688 109.844,22.688 C110.804005,22.688 111.535997,22.2140047 112.04,21.266 C112.544003,20.3179953 112.796,18.7040114 112.796,16.424 C112.796,14.7199915 112.604002,13.4540041 112.22,12.626 C111.835998,11.7979959 111.200004,11.384 110.312,11.384 C109.111994,11.384 108.296002,12.0919929 107.864,13.508 L107.864,21.968 Z M125.72,21.212 C125.72,20.7079975 125.558002,20.2820017 125.234,19.934 C124.909998,19.5859983 124.496003,19.2620015 123.992,18.962 C123.487997,18.6619985 122.954003,18.3560016 122.39,18.044 C121.825997,17.7319984 121.292003,17.3480023 120.788,16.892 C120.283997,16.4359977 119.870002,15.8840032 119.546,15.236 C119.221998,14.5879968 119.06,13.7720049 119.06,12.788 C119.06,11.1079916 119.515995,9.81200456 120.428,8.9 C121.340005,7.98799544 122.683991,7.532 124.46,7.532 C125.516005,7.532 126.511995,7.64599886 127.448,7.874 C128.384005,8.10200114 129.127997,8.38399832 129.68,8.72 L128.672,12.032 C128.215998,11.839999 127.664003,11.6540009 127.016,11.474 C126.367997,11.2939991 125.732003,11.204 125.108,11.204 C123.931994,11.204 123.344,11.6959951 123.344,12.68 C123.344,13.1360023 123.505998,13.5139985 123.83,13.814 C124.154002,14.1140015 124.567997,14.4079986 125.072,14.696 C125.576003,14.9840014 126.109997,15.2839984 126.674,15.596 C127.238003,15.9080016 127.771997,16.2979977 128.276,16.766 C128.780003,17.2340023 129.193998,17.8039966 129.518,18.476 C129.842002,19.1480034 130.004,19.9759951 130.004,20.96 C130.004,22.6160083 129.500005,23.947995 128.492,24.956 C127.483995,25.964005 125.98401,26.468 123.992,26.468 C123.007995,26.468 122.042005,26.3480012 121.094,26.108 C120.145995,25.8679988 119.384003,25.5560019 118.808,25.172 L119.996,21.716 C120.500003,22.0040014 121.081997,22.2559989 121.742,22.472 C122.402003,22.6880011 123.091996,22.796 123.812,22.796 C124.364003,22.796 124.819998,22.6700013 125.18,22.418 C125.540002,22.1659987 125.72,21.7640028 125.72,21.212 Z M130.868,8 L132.848,8 L132.848,4.616 L137.132,3.284 L137.132,8 L140.624,8 L140.624,11.816 L137.132,11.816 L137.132,19.664 C137.132,20.6960052 137.233999,21.4279978 137.438,21.86 C137.642001,22.2920022 138.007997,22.508 138.536,22.508 C138.896002,22.508 139.219999,22.4720004 139.508,22.4 C139.796001,22.3279996 140.107998,22.2200007 140.444,22.076 L140.984,25.496 C140.455997,25.7600013 139.844003,25.9819991 139.148,26.162 C138.451997,26.3420009 137.720004,26.432 136.952,26.432 C135.583993,26.432 134.558003,26.036004 133.874,25.244 C133.189997,24.451996 132.848,23.1200094 132.848,21.248 L132.848,11.816 L130.868,11.816 L130.868,8 Z M142.784,9.08 C143.504004,8.64799784 144.403995,8.30000132 145.484,8.036 C146.564005,7.77199868 147.787993,7.64 149.156,7.64 C151.19601,7.64 152.617996,8.16799472 153.422,9.224 C154.226004,10.2800053 154.628,11.7799903 154.628,13.724 C154.628,14.8520056 154.598,15.9619945 154.538,17.054 C154.478,18.1460055 154.436,19.2139948 154.412,20.258 C154.388,21.3020052 154.406,22.3099951 154.466,23.282 C154.526,24.2540049 154.687999,25.1719957 154.952,26.036 L151.46,26.036 L150.776,23.84 L150.632,23.84 C150.247998,24.5360035 149.708003,25.1119977 149.012,25.568 C148.315997,26.0240023 147.440005,26.252 146.384,26.252 C144.967993,26.252 143.852004,25.7780047 143.036,24.83 C142.219996,23.8819953 141.812,22.6160079 141.812,21.032 C141.812,18.8719892 142.579992,17.3360046 144.116,16.424 C145.652008,15.5119954 147.727987,15.1279993 150.344,15.272 C150.464001,13.879993 150.374001,12.8720031 150.074,12.248 C149.773998,11.6239969 149.132005,11.312 148.148,11.312 C147.427996,11.312 146.684004,11.3959992 145.916,11.564 C145.147996,11.7320008 144.464003,11.9719984 143.864,12.284 L142.784,9.08 Z M147.932,22.58 C148.580003,22.58 149.107998,22.4180016 149.516,22.094 C149.924002,21.7699984 150.223999,21.4160019 150.416,21.032 L150.416,18.044 C149.863997,17.9719996 149.336003,17.9599998 148.832,18.008 C148.327997,18.0560002 147.884002,18.1639992 147.5,18.332 C147.115998,18.5000008 146.810001,18.7459984 146.582,19.07 C146.353999,19.3940016 146.24,19.8079975 146.24,20.312 C146.24,21.0560037 146.389998,21.6199981 146.69,22.004 C146.990001,22.3880019 147.403997,22.58 147.932,22.58 Z M166.112,12.248 C165.535997,12.0319989 165.008002,11.924 164.528,11.924 C163.879997,11.924 163.322002,12.1039982 162.854,12.464 C162.385998,12.8240018 162.068001,13.3279968 161.9,13.976 L161.9,26 L157.616,26 L157.616,8 L160.892,8 L161.396,10.16 L161.54,10.16 C161.852002,9.36799604 162.301997,8.75000222 162.89,8.306 C163.478003,7.86199778 164.155996,7.64 164.924,7.64 C165.500003,7.64 166.063997,7.7599988 166.616,8 L166.112,12.248 Z M167.66,8 L169.64,8 L169.64,4.616 L173.924,3.284 L173.924,8 L177.416,8 L177.416,11.816 L173.924,11.816 L173.924,19.664 C173.924,20.6960052 174.025999,21.4279978 174.23,21.86 C174.434001,22.2920022 174.799997,22.508 175.328,22.508 C175.688002,22.508 176.011999,22.4720004 176.3,22.4 C176.588001,22.3279996 176.899998,22.2200007 177.236,22.076 L177.776,25.496 C177.247997,25.7600013 176.636003,25.9819991 175.94,26.162 C175.243997,26.3420009 174.512004,26.432 173.744,26.432 C172.375993,26.432 171.350003,26.036004 170.666,25.244 C169.981997,24.451996 169.64,23.1200094 169.64,21.248 L169.64,11.816 L167.66,11.816 L167.66,8 Z" id="jumpstart" fill="#232323"></path>
                <path d="M7.532,22.4 C7.131998,22.7040015 6.67600256,22.9279993 6.164,23.072 C5.65199744,23.2160007 5.1160028,23.288 4.556,23.288 C3.78799616,23.288 3.14000264,23.1400015 2.612,22.844 C2.08399736,22.5479985 1.65600164,22.1240028 1.328,21.572 C0.99999836,21.0199972 0.76000076,20.3560039 0.608,19.58 C0.45599924,18.8039961 0.38,17.9440047 0.38,17 C0.38,14.9519898 0.74399636,13.3920054 1.472,12.32 C2.20000364,11.2479946 3.2439932,10.712 4.604,10.712 C5.22800312,10.712 5.76399776,10.7679994 6.212,10.88 C6.66000224,10.9920006 7.0439984,11.1359991 7.364,11.312 L6.884,12.824 C6.2439968,12.4559982 5.54800376,12.272 4.796,12.272 C3.93199568,12.272 3.2800022,12.6519962 2.84,13.412 C2.3999978,14.1720038 2.18,15.3679918 2.18,17 C2.18,17.6560033 2.22799952,18.2719971 2.324,18.848 C2.42000048,19.4240029 2.57999888,19.9239979 2.804,20.348 C3.02800112,20.7720021 3.31599824,21.1079988 3.668,21.356 C4.02000176,21.6040012 4.45999736,21.728 4.988,21.728 C5.40400208,21.728 5.7919982,21.6560007 6.152,21.512 C6.5120018,21.3679993 6.80399888,21.200001 7.028,21.008 L7.532,22.4 Z M11.012,11 L11.012,18.344 C11.012,19.5600061 11.1359988,20.4279974 11.384,20.948 C11.6320012,21.4680026 12.0839967,21.728 12.74,21.728 C13.0760017,21.728 13.3759987,21.6600007 13.64,21.524 C13.9040013,21.3879993 14.139999,21.2080011 14.348,20.984 C14.556001,20.7599989 14.7399992,20.5040014 14.9,20.216 C15.0600008,19.9279986 15.1879995,19.6320015 15.284,19.328 L15.284,11 L17.012,11 L17.012,19.592 C17.012,20.1680029 17.0319998,20.7639969 17.072,21.38 C17.1120002,21.9960031 17.1719996,22.5359977 17.252,23 L16.028,23 L15.596,21.32 L15.524,21.32 C15.2519986,21.8480026 14.8600026,22.307998 14.348,22.7 C13.8359974,23.092002 13.1960038,23.288 12.428,23.288 C11.9159974,23.288 11.4680019,23.2240006 11.084,23.096 C10.6999981,22.9679994 10.3720014,22.7360017 10.1,22.4 C9.82799864,22.0639983 9.62400068,21.6040029 9.488,21.02 C9.35199932,20.4359971 9.284,19.6880046 9.284,18.776 L9.284,11 L11.012,11 Z M19.868,11 L21.092,11 L21.404,12.272 L21.476,12.272 C21.7000011,11.8079977 21.9919982,11.4440013 22.352,11.18 C22.7120018,10.9159987 23.1479974,10.784 23.66,10.784 C24.0280018,10.784 24.4439977,10.8559993 24.908,11 L24.572,12.752 C24.1559979,12.6079993 23.7880016,12.536 23.468,12.536 C22.9559974,12.536 22.5400016,12.6839985 22.22,12.98 C21.8999984,13.2760015 21.6920005,13.6719975 21.596,14.168 L21.596,23 L19.868,23 L19.868,11 Z M26.252,21.032 C26.5720016,21.224001 26.9519978,21.3879993 27.392,21.524 C27.8320022,21.6600007 28.2839977,21.728 28.748,21.728 C29.2760026,21.728 29.7239982,21.5960013 30.092,21.332 C30.4600018,21.0679987 30.644,20.640003 30.644,20.048 C30.644,19.5519975 30.5320011,19.1440016 30.308,18.824 C30.0839989,18.5039984 29.8000017,18.2160013 29.456,17.96 C29.1119983,17.7039987 28.740002,17.4680011 28.34,17.252 C27.939998,17.0359989 27.5680017,16.7760015 27.224,16.472 C26.8799983,16.1679985 26.5960011,15.8080021 26.372,15.392 C26.1479989,14.9759979 26.036,14.4480032 26.036,13.808 C26.036,12.7839949 26.3119972,12.0120026 26.864,11.492 C27.4160028,10.9719974 28.195995,10.712 29.204,10.712 C29.8600033,10.712 30.4279976,10.7719994 30.908,10.892 C31.3880024,11.0120006 31.8039982,11.175999 32.156,11.384 L31.7,12.824 C31.3959985,12.6639992 31.044002,12.5320005 30.644,12.428 C30.243998,12.3239995 29.8360021,12.272 29.42,12.272 C28.8439971,12.272 28.4240013,12.3919988 28.16,12.632 C27.8959987,12.8720012 27.764,13.2479974 27.764,13.76 C27.764,14.160002 27.8759989,14.4999986 28.1,14.78 C28.3240011,15.0600014 28.6079983,15.3159988 28.952,15.548 C29.2960017,15.7800012 29.667998,16.0159988 30.068,16.256 C30.468002,16.4960012 30.8399983,16.7799984 31.184,17.108 C31.5280017,17.4360016 31.8119989,17.8279977 32.036,18.284 C32.2600011,18.7400023 32.372,19.3119966 32.372,20 C32.372,20.4480022 32.3000007,20.871998 32.156,21.272 C32.0119993,21.672002 31.7920015,22.0199985 31.496,22.316 C31.1999985,22.6120015 30.8320022,22.8479991 30.392,23.024 C29.9519978,23.2000009 29.436003,23.288 28.844,23.288 C28.1399965,23.288 27.5320026,23.2200007 27.02,23.084 C26.5079974,22.9479993 26.0760018,22.7680011 25.724,22.544 L26.252,21.032 Z M34.028,17 C34.028,14.8399892 34.3999963,13.2520051 35.144,12.236 C35.8880037,11.2199949 36.9479931,10.712 38.324,10.712 C39.7960074,10.712 40.8799965,11.2319948 41.576,12.272 C42.2720035,13.3120052 42.62,14.8879894 42.62,17 C42.62,19.1760109 42.2440038,20.767995 41.492,21.776 C40.7399962,22.784005 39.6840068,23.288 38.324,23.288 C36.8519926,23.288 35.7680035,22.7680052 35.072,21.728 C34.3759965,20.6879948 34.028,19.1120106 34.028,17 Z M35.828,17 C35.828,17.7040035 35.8719996,18.3439971 35.96,18.92 C36.0480004,19.4960029 36.191999,19.9919979 36.392,20.408 C36.592001,20.8240021 36.8519984,21.1479988 37.172,21.38 C37.4920016,21.6120012 37.8759978,21.728 38.324,21.728 C39.1560042,21.728 39.7799979,21.3560037 40.196,20.612 C40.6120021,19.8679963 40.82,18.6640083 40.82,17 C40.82,16.3119966 40.7760004,15.6760029 40.688,15.092 C40.5999996,14.5079971 40.456001,14.0080021 40.256,13.592 C40.055999,13.1759979 39.7960016,12.8520012 39.476,12.62 C39.1559984,12.3879988 38.7720022,12.272 38.324,12.272 C37.5079959,12.272 36.8880021,12.6479962 36.464,13.4 C36.0399979,14.1520038 35.828,15.3519918 35.828,17 Z" id="curso" fill="#999999"></path>
            </g>
        </g>
    </g>
</svg>
