<?xml version="1.0" encoding="UTF-8"?>
<svg width="256px" height="300px" viewBox="0 0 256 300" version="1.1" xmlns="http://www.w3.org/2000/svg" xmlns:xlink="http://www.w3.org/1999/xlink">
    <!-- Generator: Sketch 48.1 (47250) - http://www.bohemiancoding.com/sketch -->
    <title>noun_749597_cc</title>
    <desc>Created with Sketch.</desc>
    <defs>
        <linearGradient x1="3.061617e-15%" y1="50%" x2="97.2357302%" y2="50%" id="linearGradient-1">
            <stop stop-color="#4EFFDF" offset="0%"></stop>
            <stop stop-color="#49BEDE" offset="51.2695312%"></stop>
            <stop stop-color="#F47EC6" offset="100%"></stop>
        </linearGradient>
    </defs>
    <g id="Isca" stroke="none" stroke-width="1" fill="none" fill-rule="evenodd" transform="translate(-149.000000, -357.000000)" opacity="0.200000003">
        <g id="Group-8" transform="translate(1.000000, -2.000000)" fill="#EEEEEE" fill-rule="nonzero">
            <g id="Colorful-header">
                <g id="noun_749597_cc" transform="translate(148.000000, 359.000000)">
                    <g id="Group">
                        <path d="M6.50545455,193.237876 C5.56727273,193.237876 4.62909091,193.943353 4.62909091,195.119147 L4.62909091,223.57337 C4.62909091,224.514005 5.33272727,225.45464 6.50545455,225.45464 C7.44363636,225.45464 8.38181818,224.749164 8.38181818,223.57337 L8.38181818,195.119147 C8.14727273,194.178512 7.44363636,193.237876 6.50545455,193.237876 Z" id="Shape"></path>
                        <path d="M6.50545455,231.098453 C5.56727273,231.098453 4.62909091,231.80393 4.62909091,232.979724 L4.62909091,242.15092 C4.62909091,243.091555 5.33272727,244.032191 6.50545455,244.032191 C7.44363636,244.032191 8.38181818,243.326714 8.38181818,242.15092 L8.38181818,232.979724 C8.14727273,231.80393 7.44363636,231.098453 6.50545455,231.098453 Z" id="Shape"></path>
                        <path d="M249.025455,38.9736622 C248.087273,38.9736622 247.149091,39.6791388 247.149091,40.8549331 L247.149091,69.3091555 C247.149091,70.249791 247.852727,71.1904264 249.025455,71.1904264 C249.963636,71.1904264 250.901818,70.4849498 250.901818,69.3091555 L250.901818,40.8549331 C250.901818,39.9142977 249.963636,38.9736622 249.025455,38.9736622 Z" id="Shape"></path>
                        <path d="M249.025455,76.8342391 C248.087273,76.8342391 247.149091,77.5397157 247.149091,78.71551 L247.149091,87.8867057 C247.149091,88.8273411 247.852727,89.7679766 249.025455,89.7679766 C249.963636,89.7679766 250.901818,89.0625 250.901818,87.8867057 L250.901818,78.71551 C250.901818,77.5397157 249.963636,76.8342391 249.025455,76.8342391 Z" id="Shape"></path>
                        <path d="M185.463636,231.568771 C184.76,230.863294 183.587273,230.863294 182.883636,231.568771 C182.18,232.274247 182.18,233.450042 182.883636,234.155518 L186.870909,238.153219 C187.105455,238.388378 187.574545,238.623537 188.043636,238.623537 C188.512727,238.623537 188.981818,238.388378 189.216364,238.153219 C189.92,237.447742 189.92,236.271948 189.216364,235.566472 L185.463636,231.568771 Z" id="Shape"></path>
                        <path d="M198.129091,244.267349 C197.425455,243.561873 196.252727,243.561873 195.549091,244.267349 C194.845455,244.972826 194.845455,246.14862 195.549091,246.854097 L199.536364,250.851798 C199.770909,251.086957 200.24,251.322115 200.709091,251.322115 C201.178182,251.322115 201.647273,251.086957 201.881818,250.851798 C202.585455,250.146321 202.585455,248.970527 201.881818,248.26505 L198.129091,244.267349 Z" id="Shape"></path>
                        <path d="M186.870909,244.267349 L182.883636,248.26505 C182.18,248.970527 182.18,250.146321 182.883636,250.851798 C183.118182,251.086957 183.587273,251.322115 184.056364,251.322115 C184.525455,251.322115 184.994545,251.086957 185.229091,250.851798 L189.216364,246.854097 C189.92,246.14862 189.92,244.972826 189.216364,244.267349 C188.747273,243.561873 187.574545,243.561873 186.870909,244.267349 Z" id="Shape"></path>
                        <path d="M202.116364,231.568771 C201.412727,230.863294 200.24,230.863294 199.536364,231.568771 L195.549091,235.566472 C194.845455,236.271948 194.845455,237.447742 195.549091,238.153219 C195.783636,238.388378 196.252727,238.623537 196.721818,238.623537 C197.190909,238.623537 197.66,238.388378 197.894545,238.153219 L201.881818,234.155518 C202.82,233.450042 202.82,232.274247 202.116364,231.568771 Z" id="Shape"></path>
                        <path d="M19.64,276.954431 C18.9363636,276.248955 17.7636364,276.248955 17.06,276.954431 C16.3563636,277.659908 16.3563636,278.835702 17.06,279.541179 L21.0472727,283.53888 C21.2818182,283.774038 21.7509091,284.009197 22.22,284.009197 C22.6890909,284.009197 23.1581818,283.774038 23.3927273,283.53888 C24.0963636,282.833403 24.0963636,281.657609 23.3927273,280.952132 L19.64,276.954431 Z" id="Shape"></path>
                        <path d="M32.3054545,289.65301 C31.6018182,288.947533 30.4290909,288.947533 29.7254545,289.65301 C29.0218182,290.358487 29.0218182,291.534281 29.7254545,292.239758 L33.7127273,296.237458 C33.9472727,296.472617 34.4163636,296.707776 34.8854545,296.707776 C35.3545455,296.707776 35.8236364,296.472617 36.0581818,296.237458 C36.7618182,295.531982 36.7618182,294.356187 36.0581818,293.650711 L32.3054545,289.65301 Z" id="Shape"></path>
                        <path d="M21.0472727,289.65301 L17.06,293.650711 C16.3563636,294.356187 16.3563636,295.531982 17.06,296.237458 C17.2945455,296.472617 17.7636364,296.707776 18.2327273,296.707776 C18.7018182,296.707776 19.1709091,296.472617 19.4054545,296.237458 L23.3927273,292.239758 C24.0963636,291.534281 24.0963636,290.358487 23.3927273,289.65301 C22.9236364,288.947533 21.7509091,288.947533 21.0472727,289.65301 Z" id="Shape"></path>
                        <path d="M33.7127273,276.954431 L29.7254545,280.952132 C29.0218182,281.657609 29.0218182,282.833403 29.7254545,283.53888 C29.96,283.774038 30.4290909,284.009197 30.8981818,284.009197 C31.3672727,284.009197 31.8363636,283.774038 32.0709091,283.53888 L36.0581818,279.541179 C36.7618182,278.835702 36.7618182,277.659908 36.0581818,276.954431 C35.3545455,276.248955 34.1818182,276.248955 33.7127273,276.954431 Z" id="Shape"></path>
                        <path d="M20.1090909,27.4508779 C24.8,27.4508779 28.5527273,23.6883361 28.5527273,18.9851589 C28.5527273,14.2819816 24.8,10.5194398 20.1090909,10.5194398 C15.4181818,10.5194398 11.6654545,14.2819816 11.6654545,18.9851589 C11.6654545,23.6883361 15.4181818,27.4508779 20.1090909,27.4508779 Z M20.1090909,14.2819816 C22.6890909,14.2819816 25.0345455,16.3984114 25.0345455,19.2203177 C25.0345455,21.8070652 22.9236364,24.1586538 20.1090909,24.1586538 C17.5290909,24.1586538 15.1836364,22.0422241 15.1836364,19.2203177 C15.1836364,16.3984114 17.2945455,14.2819816 20.1090909,14.2819816 Z" id="Shape"></path>
                        <path d="M239.174545,202.173913 C234.483636,202.173913 230.730909,205.936455 230.730909,210.639632 C230.730909,215.342809 234.483636,219.105351 239.174545,219.105351 C243.865455,219.105351 247.618182,215.342809 247.618182,210.639632 C247.618182,205.936455 243.865455,202.173913 239.174545,202.173913 Z M239.174545,215.577968 C236.594545,215.577968 234.249091,213.461538 234.249091,210.639632 C234.249091,208.052885 236.36,205.701296 239.174545,205.701296 C241.754545,205.701296 244.1,207.817726 244.1,210.639632 C244.1,213.22638 241.989091,215.577968 239.174545,215.577968 Z" id="Shape"></path>
                        <path d="M46.6127273,228.511706 C40.28,228.511706 35.3545455,233.685201 35.3545455,239.799331 C35.3545455,246.14862 40.5145455,251.086957 46.6127273,251.086957 C52.9454545,251.086957 57.8709091,245.913462 57.8709091,239.799331 C57.8709091,233.685201 52.9454545,228.511706 46.6127273,228.511706 Z M46.6127273,247.794732 C42.3909091,247.794732 38.8727273,244.267349 38.8727273,240.03449 C38.8727273,235.80163 42.3909091,232.274247 46.6127273,232.274247 C50.8345455,232.274247 54.3527273,235.80163 54.3527273,240.03449 C54.3527273,244.267349 50.8345455,247.794732 46.6127273,247.794732 Z" id="Shape"></path>
                        <path d="M203.289091,9.81396321 L234.014545,9.81396321 C234.952727,9.81396321 235.890909,9.10848662 235.890909,7.93269231 C235.890909,6.75689799 235.187273,6.0514214 234.014545,6.0514214 L203.289091,6.0514214 C202.350909,6.0514214 201.412727,6.75689799 201.412727,7.93269231 C201.412727,9.10848662 202.350909,9.81396321 203.289091,9.81396321 Z" id="Shape"></path>
                        <path d="M244.1,9.81396321 L253.950909,9.81396321 C254.889091,9.81396321 255.827273,9.10848662 255.827273,7.93269231 C255.827273,6.75689799 255.123636,6.0514214 253.950909,6.0514214 L244.1,6.0514214 C243.161818,6.0514214 242.223636,6.75689799 242.223636,7.93269231 C242.223636,9.10848662 243.161818,9.81396321 244.1,9.81396321 Z" id="Shape"></path>
                        <path d="M253.950909,16.6335702 L232.607273,16.6335702 C231.669091,16.6335702 230.730909,17.3390468 230.730909,18.5148411 C230.730909,19.4554766 231.434545,20.396112 232.607273,20.396112 L253.950909,20.396112 C254.889091,20.396112 255.827273,19.6906355 255.827273,18.5148411 C255.827273,17.5742057 254.889091,16.6335702 253.950909,16.6335702 Z" id="Shape"></path>
                        <path d="M223.46,20.1609532 C224.398182,20.1609532 225.336364,19.4554766 225.336364,18.2796823 C225.336364,17.3390468 224.632727,16.3984114 223.46,16.3984114 L216.423636,16.3984114 C215.485455,16.3984114 214.547273,17.103888 214.547273,18.2796823 C214.547273,19.2203177 215.250909,20.1609532 216.423636,20.1609532 L223.46,20.1609532 Z" id="Shape"></path>
                        <path d="M243.630909,295.296823 L212.905455,295.296823 C211.967273,295.296823 211.029091,296.002299 211.029091,297.178094 C211.029091,298.118729 211.732727,299.059365 212.905455,299.059365 L243.630909,299.059365 C244.569091,299.059365 245.507273,298.353888 245.507273,297.178094 C245.507273,296.002299 244.569091,295.296823 243.630909,295.296823 Z" id="Shape"></path>
                        <path d="M203.054545,295.296823 L193.203636,295.296823 C192.265455,295.296823 191.327273,296.002299 191.327273,297.178094 C191.327273,298.118729 192.030909,299.059365 193.203636,299.059365 L203.054545,299.059365 C203.992727,299.059365 204.930909,298.353888 204.930909,297.178094 C204.696364,296.002299 203.992727,295.296823 203.054545,295.296823 Z" id="Shape"></path>
                        <path d="M192.969091,288.242057 L214.312727,288.242057 C215.250909,288.242057 216.189091,287.53658 216.189091,286.360786 C216.189091,285.420151 215.485455,284.479515 214.312727,284.479515 L192.969091,284.479515 C192.030909,284.479515 191.092727,285.184992 191.092727,286.360786 C191.327273,287.53658 192.030909,288.242057 192.969091,288.242057 Z" id="Shape"></path>
                        <path d="M221.818182,286.595945 C221.818182,287.53658 222.521818,288.477216 223.694545,288.477216 L230.730909,288.477216 C231.669091,288.477216 232.607273,287.771739 232.607273,286.595945 C232.607273,285.655309 231.903636,284.714674 230.730909,284.714674 L223.694545,284.714674 C222.521818,284.714674 221.818182,285.420151 221.818182,286.595945 Z" id="Shape"></path>
                        <path d="M246.68,123.630853 L210.794545,123.395694 C210.794545,123.395694 210.794545,123.395694 210.794545,123.395694 C209.856364,123.395694 208.918182,124.101171 208.918182,125.041806 C208.918182,125.982441 209.621818,126.923077 210.56,126.923077 L246.445455,127.158236 C246.445455,127.158236 246.445455,127.158236 246.445455,127.158236 C247.383636,127.158236 248.321818,126.452759 248.321818,125.512124 C248.321818,124.571488 247.618182,123.630853 246.68,123.630853 Z" id="Shape"></path>
                        <path d="M229.323636,151.14444 L208.214545,146.676421 C207.276364,146.441263 206.338182,147.146739 206.103636,148.087375 C205.869091,149.02801 206.572727,149.968645 207.510909,150.203804 L228.62,154.671823 C228.854545,154.671823 228.854545,154.671823 229.089091,154.671823 C229.792727,154.671823 230.730909,154.201505 230.730909,153.26087 C230.965455,152.320234 230.261818,151.379599 229.323636,151.14444 Z" id="Shape"></path>
                        <path d="M229.558182,98.2336957 C230.496364,97.9985368 230.965455,96.8227425 230.730909,96.1172659 C230.496364,95.1766304 229.323636,94.7063127 228.62,94.9414716 L207.98,101.761079 C207.041818,101.996237 206.572727,103.172032 206.807273,103.877508 C207.041818,104.582985 207.745455,105.053303 208.449091,105.053303 C208.683636,105.053303 208.918182,105.053303 208.918182,105.053303 L229.558182,98.2336957 Z" id="Shape"></path>
                        <path d="M124.247273,39.6791388 C125.185455,39.6791388 126.123636,38.9736622 126.123636,37.7978679 L126.123636,2.05372074 C126.123636,1.11308528 125.42,0.172449833 124.247273,0.172449833 C123.074545,0.172449833 122.370909,0.877926421 122.370909,2.05372074 L122.370909,38.0330268 C122.605455,38.9736622 123.309091,39.6791388 124.247273,39.6791388 Z" id="Shape"></path>
                        <path d="M78.7454545,50.9667642 C78.98,51.4370819 79.6836364,51.9073997 80.1527273,51.9073997 C80.3872727,51.9073997 80.8563636,51.9073997 81.0909091,51.6722408 C82.0290909,51.2019231 82.2636364,50.0261288 81.7945455,49.3206522 L63.5,18.0445234 C63.0309091,17.103888 61.8581818,16.8687291 61.1545455,17.3390468 C60.2163636,17.8093645 59.9818182,18.9851589 60.4509091,19.6906355 L78.7454545,50.9667642 Z" id="Shape"></path>
                        <path d="M49.1927273,83.6538462 C49.8963636,83.6538462 50.3654545,83.4186873 50.8345455,82.7132107 C51.3036364,81.7725753 51.0690909,80.8319398 50.1309091,80.3616221 L18.7018182,62.4895485 C17.7636364,62.0192308 16.8254545,62.2543896 16.3563636,63.1950251 C15.8872727,64.1356605 16.1218182,65.076296 17.06,65.5466137 L48.2545455,83.4186873 C48.4890909,83.6538462 48.9581818,83.6538462 49.1927273,83.6538462 Z" id="Shape"></path>
                        <path d="M39.8109091,125.041806 C39.8109091,124.101171 39.1072727,123.395694 37.9345455,123.395694 C37.9345455,123.395694 37.9345455,123.395694 37.9345455,123.395694 L2.04909091,123.630853 C1.11090909,123.630853 0.172727273,124.336329 0.407272727,125.512124 C0.407272727,126.452759 1.11090909,127.158236 2.28363636,127.158236 C2.28363636,127.158236 2.28363636,127.158236 2.28363636,127.158236 L38.1690909,126.923077 C38.8727273,126.923077 39.8109091,125.982441 39.8109091,125.041806 Z" id="Shape"></path>
                        <path d="M17.06,187.123746 C17.2945455,187.594064 17.9981818,188.064381 18.7018182,188.064381 C18.9363636,188.064381 19.4054545,188.064381 19.64,187.829222 L50.6,169.72199 C51.5381818,169.251672 51.7727273,168.075878 51.3036364,167.370401 C50.8345455,166.429766 49.6618182,166.194607 48.9581818,166.664925 L17.7636364,184.772157 C16.8254545,185.242475 16.5909091,186.418269 17.06,187.123746 Z" id="Shape"></path>
                        <path d="M230.730909,185.007316 L199.770909,166.900084 C198.832727,166.429766 197.894545,166.664925 197.425455,167.60556 C196.956364,168.546196 197.190909,169.486831 198.129091,169.957149 L229.089091,188.064381 C229.323636,188.29954 229.558182,188.29954 230.027273,188.29954 C230.730909,188.29954 231.2,188.064381 231.669091,187.358905 C231.903636,186.418269 231.669091,185.477634 230.730909,185.007316 Z" id="Shape"></path>
                        <path d="M232.372727,63.4301839 C231.903636,62.4895485 230.730909,62.2543896 230.027273,62.7247074 L198.598182,80.3616221 C197.66,80.8319398 197.425455,82.0077341 197.894545,82.7132107 C198.129091,83.1835284 198.832727,83.6538462 199.536364,83.6538462 C199.770909,83.6538462 200.24,83.6538462 200.474545,83.4186873 L231.903636,65.7817726 C232.607273,65.3114548 232.841818,64.3708194 232.372727,63.4301839 Z" id="Shape"></path>
                        <path d="M167.403636,51.6722408 C167.638182,51.9073997 168.107273,51.9073997 168.341818,51.9073997 C169.045455,51.9073997 169.514545,51.6722408 169.749091,50.9667642 L188.043636,19.9257943 C188.512727,18.9851589 188.278182,18.0445234 187.34,17.5742057 C186.401818,17.103888 185.463636,17.3390468 184.994545,18.2796823 L166.7,49.3206522 C166.465455,50.0261288 166.7,51.2019231 167.403636,51.6722408 Z" id="Shape"></path>
                        <path d="M102.2,40.6197742 C102.434545,41.3252508 103.138182,41.7955686 103.841818,41.7955686 C104.076364,41.7955686 104.310909,41.7955686 104.310909,41.7955686 C105.249091,41.5604097 105.718182,40.6197742 105.483636,39.6791388 L98.9163636,18.9851589 C98.6818182,18.0445234 97.7436364,17.5742057 96.8054545,17.8093645 C95.8672727,18.0445234 95.3981818,18.9851589 95.6327273,19.9257943 L102.2,40.6197742 Z" id="Shape"></path>
                        <path d="M63.2654545,62.9598662 C63.5,63.1950251 63.9690909,63.4301839 64.4381818,63.4301839 C64.9072727,63.4301839 65.3763636,63.1950251 65.8454545,62.9598662 C66.5490909,62.2543896 66.5490909,61.0785953 65.8454545,60.3731187 L49.8963636,45.7932692 C49.1927273,45.0877926 48.02,45.0877926 47.3163636,45.7932692 C46.6127273,46.4987458 46.6127273,47.6745401 47.3163636,48.3800167 L63.2654545,62.9598662 Z" id="Shape"></path>
                        <path d="M19.64,97.2930602 L40.7490909,101.996237 C40.9836364,101.996237 40.9836364,101.996237 41.2181818,101.996237 C41.9218182,101.996237 42.86,101.52592 42.86,100.585284 C43.0945455,99.6446488 42.3909091,98.7040134 41.4527273,98.4688545 L20.3436364,93.7656773 C19.4054545,93.5305184 18.4672727,94.235995 18.2327273,95.1766304 C17.9981818,96.1172659 18.4672727,97.0579013 19.64,97.2930602 Z" id="Shape"></path>
                        <path d="M18.9363636,150.203804 C17.9981818,150.438963 17.5290909,151.614758 17.7636364,152.320234 C17.9981818,153.025711 18.7018182,153.496028 19.4054545,153.496028 C19.64,153.496028 19.8745455,153.496028 19.8745455,153.496028 L40.5145455,146.91158 C41.4527273,146.676421 41.9218182,145.735786 41.6872727,144.795151 C41.4527273,143.854515 40.5145455,143.384197 39.5763636,143.619356 L18.9363636,150.203804 Z" id="Shape"></path>
                        <path d="M60.4509091,183.596363 L45.9090909,199.822324 C45.2054545,200.527801 45.2054545,201.703595 46.1436364,202.409072 C46.3781818,202.644231 46.8472727,202.87939 47.3163636,202.87939 C47.7854545,202.87939 48.2545455,202.644231 48.7236364,202.409072 L63.2654545,186.418269 C63.9690909,185.712793 63.9690909,184.536998 63.0309091,183.831522 C62.3272727,182.890886 61.1545455,182.890886 60.4509091,183.596363 Z" id="Shape"></path>
                        <path d="M185.932727,185.712793 C185.229091,185.007316 184.056364,185.007316 183.352727,185.947952 C182.649091,186.653428 182.649091,187.829222 183.587273,188.534699 L199.536364,203.114548 C199.770909,203.349707 200.24,203.584866 200.709091,203.584866 C201.178182,203.584866 201.647273,203.349707 202.116364,203.114548 C202.82,202.409072 202.82,201.233278 201.881818,200.527801 L185.932727,185.712793 Z" id="Shape"></path>
                        <path d="M185.229091,65.076296 C185.463636,65.3114548 185.932727,65.5466137 186.401818,65.5466137 C186.870909,65.5466137 187.34,65.3114548 187.809091,64.8411371 L202.116364,48.6151756 C202.82,47.909699 202.82,46.7339047 201.881818,46.0284281 C201.178182,45.3229515 200.005455,45.3229515 199.301818,46.263587 L184.994545,62.4895485 C184.525455,63.4301839 184.525455,64.3708194 185.229091,65.076296 Z" id="Shape"></path>
                        <path d="M147.232727,42.5010452 C147.467273,42.5010452 147.467273,42.5010452 147.701818,42.5010452 C148.405455,42.5010452 149.343636,42.0307274 149.343636,41.090092 L153.8,19.9257943 C154.034545,18.9851589 153.330909,18.0445234 152.392727,17.8093645 C151.454545,17.5742057 150.516364,18.2796823 150.281818,19.2203177 L145.825455,40.3846154 C145.825455,41.3252508 146.294545,42.2658863 147.232727,42.5010452 Z" id="Shape"></path>
                        <path d="M183.352727,161.49143 C183.821818,160.550794 184.525455,159.610159 184.994545,158.669523 L183.587273,157.493729 L184.994545,158.434365 C184.994545,158.434365 184.994545,158.434365 184.994545,158.199206 C191.561818,146.676421 194.610909,133.272366 193.907273,119.868311 C192.030909,84.3593227 164.12,55.9051003 128.938182,53.5535117 C109.236364,52.1425585 90.7072727,58.9621656 76.4,72.3662207 C62.3272727,85.5351171 54.1181818,104.347826 54.1181818,123.630853 C54.1181818,134.448161 56.4636364,145.030309 61.3890909,154.671823 C61.3890909,154.671823 61.3890909,154.906982 61.3890909,154.906982 C63.0309091,158.199206 64.9072727,161.256271 67.0181818,164.313336 C67.0181818,164.313336 67.0181818,164.313336 67.0181818,164.313336 C78.0418182,183.831522 85.7818182,205.466137 90.2381818,228.746865 L92.8181818,245.913462 C93.0527273,246.854097 93.2872727,248.029891 93.5218182,248.735368 C93.5218182,248.735368 93.5218182,248.735368 93.5218182,248.735368 C93.5218182,248.735368 93.5218182,248.735368 93.5218182,248.735368 C93.5218182,248.735368 93.5218182,248.735368 93.5218182,248.735368 C93.5218182,248.735368 93.5218182,248.735368 93.5218182,248.735368 C95.1636364,252.968227 99.1509091,256.260452 103.607273,256.965928 L99.1509091,282.598244 C98.9163636,284.479515 99.3854545,286.360786 100.558182,288.006898 C101.730909,289.417851 103.607273,290.358487 105.483636,290.358487 L143.48,290.358487 C145.356364,290.358487 147.232727,289.417851 148.405455,288.006898 C149.578182,286.595945 150.281818,284.479515 149.812727,282.598244 L145.356364,256.965928 C150.281818,256.025293 154.269091,252.49791 155.441818,247.324415 C155.441818,247.324415 155.441818,247.089256 155.441818,247.089256 C155.441818,246.618938 155.676364,246.14862 155.676364,245.678303 L157.083636,235.331313 C161.54,208.99352 170.687273,183.361204 183.352727,161.49143 Z M93.2872727,224.984323 C92.3490909,220.751463 91.4109091,216.518604 90.2381818,212.285744 L158.490909,212.285744 C157.318182,216.518604 156.38,220.751463 155.441818,224.984323 L93.2872727,224.984323 Z M78.98,75.1881271 C92.5836364,62.4895485 110.174545,56.1402592 128.938182,57.3160535 C162.478182,59.6676421 188.981818,86.7109114 190.623636,120.338629 C191.327273,133.037207 188.278182,145.500627 182.18,156.553094 C182.18,156.788253 181.945455,156.788253 181.945455,156.788253 C181.476364,157.728888 180.772727,158.669523 180.303636,159.610159 C171.625455,174.425167 164.589091,191.121446 159.663636,208.758361 L89.3,208.758361 C84.6090909,192.5324 78.2763636,177.011915 70.3018182,162.667224 C70.3018182,162.667224 70.3018182,162.667224 70.3018182,162.432065 C69.8327273,161.726589 69.5981818,161.256271 69.1290909,160.550794 C67.7218182,157.964047 66.3145455,155.612458 64.6727273,153.26087 C60.2163636,144.089674 57.8709091,134.213002 57.8709091,123.866012 C57.8709091,105.52362 65.6109091,87.8867057 78.98,75.1881271 Z M145.825455,286.125627 C145.356364,286.831104 144.418182,287.301421 143.48,287.301421 L105.483636,287.301421 C104.545455,287.301421 103.841818,286.831104 103.138182,286.125627 C102.669091,285.420151 102.434545,284.479515 102.434545,283.774038 L107.125455,257.671405 L141.838182,257.671405 L146.529091,283.774038 C146.529091,284.479515 146.294545,285.420151 145.825455,286.125627 Z M142.776364,253.908863 L105.718182,253.908863 C101.730909,253.908863 98.2127273,251.557274 96.8054545,247.794732 C96.5709091,245.678303 96.3363636,243.561873 96.1018182,241.445443 C95.8672727,240.269649 95.8672727,239.329013 95.6327273,238.153219 C95.1636364,234.860995 94.6945455,231.80393 93.9909091,228.511706 L154.972727,228.511706 C154.503636,230.628135 154.034545,232.744565 153.8,234.860995 C153.330909,238.388378 152.627273,242.15092 152.158182,246.14862 C151.22,250.851798 147.232727,253.908863 142.776364,253.908863 Z" id="Shape"></path>
                        <path d="M119.556364,265.431647 C118.618182,265.431647 117.68,266.137124 117.68,267.312918 L117.68,277.895067 C117.68,278.835702 118.383636,279.776338 119.556364,279.776338 C120.494545,279.776338 121.432727,279.070861 121.432727,277.895067 L121.432727,267.312918 C121.432727,266.372283 120.494545,265.431647 119.556364,265.431647 Z" id="Shape"></path>
                        <path d="M129.407273,265.431647 C128.469091,265.431647 127.530909,266.137124 127.530909,267.312918 L127.530909,277.895067 C127.530909,278.835702 128.234545,279.776338 129.407273,279.776338 C130.345455,279.776338 131.283636,279.070861 131.283636,277.895067 L131.283636,267.312918 C131.049091,266.372283 130.345455,265.431647 129.407273,265.431647 Z" id="Shape"></path>
                        <path d="M112.754545,175.83612 C113.458182,176.071279 114.396364,176.541597 115.334545,176.776756 C115.803636,176.776756 116.507273,177.011915 116.976364,177.011915 C120.025455,177.011915 122.605455,175.600962 124.247273,173.484532 C125.889091,175.600962 128.469091,177.011915 131.518182,177.011915 C131.987273,177.011915 132.690909,177.011915 133.394545,176.776756 C134.332727,176.541597 135.036364,176.306438 135.74,175.83612 C147.936364,170.897784 162.009091,157.023411 162.009091,135.153637 C162.009091,115.165134 154.034545,97.7633779 138.32,83.4186873 C137.616364,82.9483696 137.147273,82.242893 136.443636,81.7725753 C135.036364,80.8319398 133.394545,80.3616221 131.752727,80.3616221 C128.703636,80.3616221 126.123636,81.7725753 124.481818,83.889005 C122.84,81.7725753 120.26,80.3616221 117.210909,80.3616221 C115.569091,80.3616221 113.927273,80.8319398 112.52,81.7725753 C112.52,81.7725753 112.52,81.7725753 112.52,81.7725753 C112.52,81.7725753 112.52,81.7725753 112.52,81.7725753 C112.52,81.7725753 112.52,81.7725753 112.52,81.7725753 C111.816364,82.242893 111.347273,82.7132107 110.878182,83.1835284 C110.878182,83.1835284 110.878182,83.1835284 110.878182,83.1835284 C95.1636364,97.5282191 87.1890909,114.929975 87.1890909,134.918478 C86.4854545,157.023411 100.792727,170.897784 112.754545,175.83612 Z M131.518182,83.889005 C132.456364,83.889005 133.629091,84.1241639 134.332727,84.5944816 C134.801818,85.0647993 135.270909,85.5351171 135.974545,86.0054348 C137.850909,87.6515468 139.492727,89.2976589 140.9,90.9437709 C140.9,90.9437709 140.9,90.9437709 140.9,90.9437709 C140.9,90.9437709 143.245455,94.0008361 138.32,101.996237 C137.850909,102.936873 138.085455,103.877508 139.023636,104.347826 C139.258182,104.582985 139.727273,104.582985 139.961818,104.582985 C140.665455,104.582985 141.134545,104.347826 141.369091,103.642349 C143.48,100.114967 144.418182,97.5282191 144.652727,95.1766304 C147.701818,98.9391722 150.047273,102.936873 152.158182,106.934574 C151.689091,108.345527 150.281818,112.578386 145.356364,113.519022 C144.418182,113.754181 143.714545,114.694816 143.949091,115.635452 C144.183636,116.576087 144.887273,117.046405 145.590909,117.046405 C145.590909,117.046405 145.825455,117.046405 145.825455,117.046405 C150.047273,116.105769 152.627273,113.754181 154.034545,111.402592 C155.676364,115.400293 156.849091,119.633152 157.552727,124.101171 C155.676364,122.925376 152.861818,121.514423 149.578182,121.279264 C144.887273,121.044105 140.196364,122.925376 135.74,126.923077 C135.036364,127.628554 135.036364,128.804348 135.505455,129.509824 C136.209091,130.215301 137.381818,130.215301 138.085455,129.744983 C141.838182,126.452759 145.590909,124.806647 149.343636,125.041806 C153.8,125.276965 157.083636,128.098871 158.021818,129.274666 C158.490909,131.155936 158.490909,133.037207 158.490909,135.153637 C158.490909,155.377299 145.590909,168.075878 134.332727,172.779055 C133.629091,173.014214 132.925455,173.249373 132.456364,173.484532 C132.221818,173.484532 131.752727,173.484532 131.518182,173.484532 C128.938182,173.484532 126.592727,171.603261 126.123636,169.251672 C126.123636,168.781355 126.358182,168.311037 126.358182,167.840719 L126.358182,140.79745 C128.938182,142.208403 132.925455,143.619356 137.147273,143.149038 C139.961818,142.91388 142.541818,141.738085 144.887273,139.621656 C145.590909,142.443562 147.467273,146.206104 151.454545,146.91158 C151.689091,146.91158 151.689091,146.91158 151.689091,146.91158 C152.627273,146.91158 153.330909,146.441263 153.330909,145.500627 C153.565455,144.559992 152.861818,143.619356 151.923636,143.384197 C147.936364,142.678721 147.467273,135.623955 147.467273,135.623955 C147.467273,134.918478 146.998182,134.213002 146.294545,133.977843 C145.590909,133.742684 144.887273,133.977843 144.418182,134.683319 C142.307273,137.505226 139.492727,139.151338 136.678182,139.386497 C132.221818,139.856814 128.234545,137.505226 126.358182,136.329431 L126.358182,114.459657 C127.296364,113.754181 128.703636,113.048704 130.110909,113.048704 C131.049091,113.048704 131.987273,113.754181 132.690909,114.929975 C132.925455,115.400293 133.629091,115.635452 134.098182,115.635452 C134.567273,115.635452 134.801818,115.635452 135.036364,115.400293 C135.74,114.929975 135.974545,113.754181 135.505455,113.048704 C133.629091,110.461957 131.752727,109.75648 130.345455,109.75648 C128.938182,109.521321 127.530909,109.991639 126.358182,110.461957 L126.358182,89.2976589 C126.358182,88.8273411 126.358182,88.3570234 126.123636,87.8867057 C126.592727,85.7702759 128.938182,83.889005 131.518182,83.889005 Z M90.2381818,129.274666 C91.1763636,128.33403 94.46,125.512124 98.9163636,125.041806 C102.669091,124.806647 106.421818,126.452759 110.174545,129.744983 C110.878182,130.45046 112.050909,130.45046 112.754545,129.509824 C113.458182,128.804348 113.458182,127.628554 112.52,126.923077 C108.063636,122.925376 103.372727,121.044105 98.6818182,121.279264 C95.3981818,121.514423 92.8181818,122.690217 90.7072727,124.101171 C91.4109091,119.633152 92.5836364,115.400293 94.2254545,111.402592 C95.6327273,113.754181 97.9781818,116.340928 102.434545,117.046405 C102.434545,117.046405 102.669091,117.046405 102.669091,117.046405 C103.607273,117.046405 104.310909,116.576087 104.310909,115.635452 C104.545455,114.694816 103.841818,113.754181 102.903636,113.519022 C97.9781818,112.578386 96.3363636,108.345527 96.1018182,106.934574 C98.2127273,102.936873 100.558182,98.9391722 103.607273,95.1766304 C104.076364,97.2930602 105.014545,100.114967 106.890909,103.642349 C107.125455,104.112667 107.829091,104.582985 108.298182,104.582985 C108.532727,104.582985 109.001818,104.582985 109.236364,104.347826 C110.174545,103.877508 110.409091,102.701714 109.94,101.996237 C105.249091,94.0008361 107.36,90.9437709 107.36,90.9437709 C107.36,90.9437709 107.36,90.9437709 107.36,90.9437709 C109.001818,89.2976589 110.643636,87.6515468 112.285455,86.0054348 C112.754545,85.5351171 113.223636,85.0647993 113.692727,84.8296405 C114.630909,84.3593227 115.569091,84.1241639 116.507273,84.1241639 C119.087273,84.1241639 121.432727,86.0054348 121.901818,88.3570234 C121.901818,88.8273411 121.667273,89.2976589 121.667273,89.7679766 L121.667273,110.932274 C120.494545,110.461957 119.087273,109.991639 117.68,110.226798 C116.272727,110.461957 114.161818,110.932274 112.52,113.519022 C112.050909,114.224498 112.050909,115.400293 112.989091,115.87061 C113.223636,116.105769 113.692727,116.105769 113.927273,116.105769 C114.396364,116.105769 115.1,115.87061 115.334545,115.400293 C116.038182,114.224498 116.976364,113.754181 117.914545,113.519022 C119.321818,113.519022 120.729091,114.224498 121.667273,114.929975 L121.667273,136.799749 C119.790909,137.975543 115.803636,140.327132 111.347273,139.856814 C108.298182,139.621656 105.718182,137.975543 103.607273,135.153637 C103.138182,134.683319 102.434545,134.448161 101.730909,134.448161 C101.027273,134.683319 100.558182,135.388796 100.558182,136.094273 C100.558182,136.094273 100.089091,143.149038 96.1018182,143.854515 C95.1636364,144.089674 94.46,145.030309 94.6945455,145.970945 C94.9290909,146.91158 95.6327273,147.381898 96.3363636,147.381898 C96.3363636,147.381898 96.5709091,147.381898 96.5709091,147.381898 C100.558182,146.676421 102.434545,142.91388 103.138182,140.091973 C105.483636,141.973244 108.063636,143.149038 110.878182,143.619356 C115.1,144.089674 119.087273,142.678721 121.667273,141.267768 L121.667273,168.075878 C121.667273,168.546196 121.667273,169.016513 121.901818,169.486831 C121.198182,172.073579 119.087273,173.719691 116.507273,173.719691 C116.038182,173.719691 115.803636,173.719691 115.803636,173.719691 C115.1,173.484532 114.396364,173.249373 113.692727,173.014214 C102.669091,168.311037 89.5345455,155.847617 89.5345455,135.623955 C90.0036364,133.037207 90.2381818,131.155936 90.2381818,129.274666 Z" id="Shape"></path>
                        <path d="M107.125455,164.078177 C107.125455,164.078177 107.36,164.078177 107.36,164.078177 C108.298182,163.843018 109.001818,162.902383 108.767273,161.961747 C108.767273,161.961747 108.063636,157.728888 110.174545,154.671823 C111.347273,153.025711 113.458182,151.849916 116.038182,151.379599 C116.976364,151.14444 117.68,150.203804 117.445455,149.263169 C117.210909,148.322533 116.272727,147.617057 115.334545,147.852216 C111.581818,148.557692 108.767273,150.203804 107.125455,152.790552 C104.076364,157.023411 105.249091,162.432065 105.249091,162.667224 C105.483636,163.372701 106.187273,164.078177 107.125455,164.078177 Z" id="Shape"></path>
                        <path d="M133.16,147.852216 C132.221818,147.617057 131.283636,148.322533 131.049091,149.263169 C130.814545,150.203804 131.518182,151.14444 132.456364,151.379599 C135.270909,151.849916 137.147273,153.025711 138.32,154.671823 C140.430909,157.728888 139.727273,161.961747 139.727273,161.961747 C139.492727,162.902383 140.196364,163.843018 141.134545,164.078177 C141.134545,164.078177 141.369091,164.078177 141.369091,164.078177 C142.307273,164.078177 143.010909,163.60786 143.010909,162.667224 C143.010909,162.432065 143.949091,157.023411 141.134545,152.790552 C139.492727,149.968645 136.678182,148.557692 133.16,147.852216 Z" id="Shape"></path>
                    </g>
                </g>
            </g>
        </g>
    </g>
</svg>