<?xml version="1.0" encoding="UTF-8"?>
<svg width="308px" height="300px" viewBox="0 0 308 300" version="1.1" xmlns="http://www.w3.org/2000/svg" xmlns:xlink="http://www.w3.org/1999/xlink">
    <!-- Generator: Sketch 48.1 (47250) - http://www.bohemiancoding.com/sketch -->
    <title>noun_749626_cc</title>
    <desc>Created with Sketch.</desc>
    <defs>
        <linearGradient x1="3.061617e-15%" y1="50%" x2="97.2357302%" y2="50%" id="linearGradient-1">
            <stop stop-color="#4EFFDF" offset="0%"></stop>
            <stop stop-color="#49BEDE" offset="51.2695312%"></stop>
            <stop stop-color="#F47EC6" offset="100%"></stop>
        </linearGradient>
    </defs>
    <g id="Isca" stroke="none" stroke-width="1" fill="none" fill-rule="evenodd" transform="translate(-1515.000000, -89.000000)" opacity="0.200000003">
        <g id="Group-8" transform="translate(1.000000, -2.000000)" fill="#EEEEEE" fill-rule="nonzero">
            <g id="Colorful-header">
                <g id="noun_749626_cc" transform="translate(1514.000000, 91.000000)">
                    <g id="Group">
                        <path d="M13.7734375,68.7096774 C14.7421875,68.7096774 15.7109375,67.983871 15.7109375,66.7741935 L15.7109375,34.3548387 C15.7109375,33.3870968 14.984375,32.4193548 13.7734375,32.4193548 C12.8046875,32.4193548 11.8359375,33.1451613 11.8359375,34.3548387 L11.8359375,67.016129 C11.8359375,67.7419355 12.5625,68.7096774 13.7734375,68.7096774 Z" id="Shape"></path>
                        <path d="M13.7734375,90 C14.7421875,90 15.7109375,89.2741935 15.7109375,88.0645161 L15.7109375,77.4193548 C15.7109375,76.4516129 14.984375,75.483871 13.7734375,75.483871 C12.8046875,75.483871 11.8359375,76.2096774 11.8359375,77.4193548 L11.8359375,88.0645161 C11.8359375,89.0322581 12.5625,90 13.7734375,90 Z" id="Shape"></path>
                        <path d="M305.851562,192.822581 C304.882812,192.822581 303.914062,193.548387 303.914062,194.758065 L303.914062,227.419355 C303.914062,228.387097 304.640625,229.354839 305.851562,229.354839 C306.820312,229.354839 307.789062,228.629032 307.789062,227.419355 L307.789062,194.516129 C307.789062,193.548387 307.0625,192.822581 305.851562,192.822581 Z" id="Shape"></path>
                        <path d="M305.851562,235.887097 C304.882812,235.887097 303.914062,236.612903 303.914062,237.822581 L303.914062,248.467742 C303.914062,249.435484 304.640625,250.403226 305.851562,250.403226 C306.820312,250.403226 307.789062,249.677419 307.789062,248.467742 L307.789062,237.822581 C307.789062,236.854839 307.0625,235.887097 305.851562,235.887097 Z" id="Shape"></path>
                        <path d="M42.109375,16.9354839 C42.3515625,17.1774194 42.8359375,17.4193548 43.3203125,17.4193548 C43.8046875,17.4193548 44.2890625,17.1774194 44.53125,16.9354839 C45.2578125,16.2096774 45.2578125,15 44.53125,14.2741935 L40.171875,9.91935484 C39.4453125,9.19354839 38.234375,9.19354839 37.5078125,9.91935484 C36.78125,10.6451613 36.78125,11.8548387 37.5078125,12.5806452 L42.109375,16.9354839 Z" id="Shape"></path>
                        <path d="M55.9140625,30.7258065 C56.15625,30.9677419 56.640625,31.2096774 57.125,31.2096774 C57.609375,31.2096774 58.09375,30.9677419 58.3359375,30.7258065 C59.0625,30 59.0625,28.7903226 58.3359375,28.0645161 L53.9765625,23.7096774 C53.25,22.983871 52.0390625,22.983871 51.3125,23.7096774 C50.5859375,24.4354839 50.5859375,25.6451613 51.3125,26.3709677 L55.9140625,30.7258065 Z" id="Shape"></path>
                        <path d="M39.203125,31.2096774 C39.6875,31.2096774 40.171875,30.9677419 40.4140625,30.7258065 L44.7734375,26.3709677 C45.5,25.6451613 45.5,24.4354839 44.7734375,23.7096774 C44.046875,22.983871 42.8359375,22.983871 42.109375,23.7096774 L37.75,28.0645161 C37.0234375,28.7903226 37.0234375,30 37.75,30.7258065 C38.234375,30.9677419 38.71875,31.2096774 39.203125,31.2096774 Z" id="Shape"></path>
                        <path d="M52.765625,17.4193548 C53.25,17.4193548 53.734375,17.1774194 53.9765625,16.9354839 L58.3359375,12.5806452 C59.0625,11.8548387 59.0625,10.6451613 58.3359375,9.91935484 C57.609375,9.19354839 56.3984375,9.19354839 55.671875,9.91935484 L51.3125,14.2741935 C50.5859375,15 50.5859375,16.2096774 51.3125,16.9354839 C52.0390625,17.1774194 52.5234375,17.4193548 52.765625,17.4193548 Z" id="Shape"></path>
                        <path d="M189.84375,278.467742 C189.117187,277.741935 187.90625,277.741935 187.179688,278.467742 C186.453125,279.193548 186.453125,280.403226 187.179688,281.129032 L191.539062,285.483871 C191.78125,285.725806 192.265625,285.967742 192.75,285.967742 C193.234375,285.967742 193.71875,285.725806 193.960937,285.483871 C194.6875,284.758065 194.6875,283.548387 193.960937,282.822581 L189.84375,278.467742 Z" id="Shape"></path>
                        <path d="M203.648437,292.258065 C202.921875,291.532258 201.710938,291.532258 200.984375,292.258065 C200.257812,292.983871 200.257812,294.193548 200.984375,294.919355 L205.34375,299.274194 C205.585937,299.516129 206.070312,299.758065 206.554687,299.758065 C207.039062,299.758065 207.523438,299.516129 207.765625,299.274194 C208.492187,298.548387 208.492187,297.33871 207.765625,296.612903 L203.648437,292.258065 Z" id="Shape"></path>
                        <path d="M191.539062,292.258065 L187.179688,296.612903 C186.453125,297.33871 186.453125,298.548387 187.179688,299.274194 C187.421875,299.516129 187.90625,299.758065 188.390625,299.758065 C188.875,299.758065 189.359375,299.516129 189.601562,299.274194 L193.960937,294.919355 C194.6875,294.193548 194.6875,292.983871 193.960937,292.258065 C193.476562,291.532258 192.265625,291.532258 191.539062,292.258065 Z" id="Shape"></path>
                        <path d="M205.34375,278.467742 L200.984375,282.822581 C200.257812,283.548387 200.257812,284.758065 200.984375,285.483871 C201.226562,285.725806 201.710938,285.967742 202.195312,285.967742 C202.679688,285.967742 203.164062,285.725806 203.40625,285.483871 L207.765625,281.129032 C208.492187,280.403226 208.492187,279.193548 207.765625,278.467742 C207.039062,277.983871 206.070312,277.983871 205.34375,278.467742 Z" id="Shape"></path>
                        <path d="M285.507812,43.3064516 L281.148438,38.9516129 C280.421875,38.2258065 279.210938,38.2258065 278.484375,38.9516129 C277.757812,39.6774194 277.757812,40.8870968 278.484375,41.6129032 L282.84375,45.9677419 C283.085938,46.2096774 283.570312,46.4516129 284.054688,46.4516129 C284.539062,46.4516129 285.023438,46.2096774 285.265625,45.9677419 C286.234375,45.2419355 286.234375,44.0322581 285.507812,43.3064516 Z" id="Shape"></path>
                        <path d="M294.953125,52.7419355 C294.226563,52.016129 293.015625,52.016129 292.289063,52.7419355 C291.5625,53.4677419 291.5625,54.6774194 292.289063,55.4032258 L296.648438,59.7580645 C296.890625,60 297.375,60.2419355 297.859375,60.2419355 C298.34375,60.2419355 298.828125,60 299.070313,59.7580645 C299.796875,59.0322581 299.796875,57.8225806 299.070313,57.0967742 L294.953125,52.7419355 Z" id="Shape"></path>
                        <path d="M283.085938,52.7419355 L278.726562,57.0967742 C278,57.8225806 278,59.0322581 278.726562,59.7580645 C278.96875,60 279.453125,60.2419355 279.9375,60.2419355 C280.421875,60.2419355 280.90625,60 281.148438,59.7580645 L285.507812,55.4032258 C286.234375,54.6774194 286.234375,53.4677419 285.507812,52.7419355 C284.78125,52.016129 283.8125,52.016129 283.085938,52.7419355 Z" id="Shape"></path>
                        <path d="M296.648438,38.9516129 L292.289063,43.3064516 C291.5625,44.0322581 291.5625,45.2419355 292.289063,45.9677419 C292.53125,46.2096774 293.015625,46.4516129 293.5,46.4516129 C293.984375,46.4516129 294.46875,46.2096774 294.710938,45.9677419 L299.070313,41.6129032 C299.796875,40.8870968 299.796875,39.6774194 299.070313,38.9516129 C298.585938,38.2258065 297.375,38.2258065 296.648438,38.9516129 Z" id="Shape"></path>
                        <path d="M109.195312,19.3548387 C114.523438,19.3548387 118.640625,15 118.640625,9.91935484 C118.640625,4.59677419 114.28125,0.483870968 109.195312,0.483870968 C103.867187,0.483870968 99.75,4.83870968 99.75,9.91935484 C99.75,15 103.867187,19.3548387 109.195312,19.3548387 Z M109.195312,3.87096774 C112.34375,3.87096774 115.007812,6.53225806 115.007812,9.67741935 C115.007812,12.8225806 112.34375,15.483871 109.195312,15.483871 C106.046875,15.483871 103.382812,12.8225806 103.382812,9.67741935 C103.382812,6.53225806 106.046875,3.87096774 109.195312,3.87096774 Z" id="Shape"></path>
                        <path d="M250.875,271.693548 C245.546875,271.693548 241.429688,276.048387 241.429688,281.129032 C241.429688,286.451613 245.789062,290.564516 250.875,290.564516 C256.203125,290.564516 260.320312,286.209677 260.320312,281.129032 C260.5625,276.048387 256.203125,271.693548 250.875,271.693548 Z M250.875,286.935484 C247.726563,286.935484 245.0625,284.274194 245.0625,281.129032 C245.0625,277.983871 247.726562,275.322581 250.875,275.322581 C254.023438,275.322581 256.6875,277.983871 256.6875,281.129032 C256.929688,284.516129 254.265625,286.935484 250.875,286.935484 Z" id="Shape"></path>
                        <path d="M9.65625,223.548387 C4.328125,223.548387 0.2109375,227.903226 0.2109375,232.983871 C0.2109375,238.306452 4.5703125,242.419355 9.65625,242.419355 C14.984375,242.419355 19.1015625,238.064516 19.1015625,232.983871 C19.34375,227.66129 14.984375,223.548387 9.65625,223.548387 Z M9.65625,238.790323 C6.5078125,238.790323 3.84375,236.129032 3.84375,232.983871 C3.84375,229.83871 6.5078125,227.177419 9.65625,227.177419 C12.8046875,227.177419 15.46875,229.83871 15.46875,232.983871 C15.46875,236.129032 13.046875,238.790323 9.65625,238.790323 Z" id="Shape"></path>
                        <path d="M217.9375,8.46774194 L257.898438,8.46774194 C258.867188,8.46774194 259.835938,7.74193548 259.835938,6.53225806 C259.835938,5.56451613 259.109375,4.59677419 257.898438,4.59677419 L217.9375,4.59677419 C216.96875,4.59677419 216,5.32258065 216,6.53225806 C216,7.74193548 216.96875,8.46774194 217.9375,8.46774194 Z" id="Shape"></path>
                        <path d="M270.976562,8.46774194 L284.054688,8.46774194 C285.023438,8.46774194 285.992188,7.74193548 285.992188,6.53225806 C285.992188,5.56451613 285.265625,4.59677419 284.054688,4.59677419 L270.976562,4.59677419 C270.007812,4.59677419 269.039062,5.32258065 269.039062,6.53225806 C269.28125,7.74193548 270.007812,8.46774194 270.976562,8.46774194 Z" id="Shape"></path>
                        <path d="M285.75,20.3225806 C285.75,19.3548387 285.023437,18.3870968 283.8125,18.3870968 L255.960938,18.3870968 C254.992187,18.3870968 254.023438,19.1129032 254.023438,20.3225806 C254.023438,21.2903226 254.75,22.2580645 255.960938,22.2580645 L283.8125,22.2580645 C285.023437,22.2580645 285.75,21.2903226 285.75,20.3225806 Z" id="Shape"></path>
                        <path d="M244.09375,22.2580645 C245.0625,22.2580645 246.03125,21.5322581 246.03125,20.3225806 C246.03125,19.3548387 245.304688,18.3870968 244.09375,18.3870968 L235.132812,18.3870968 C234.164062,18.3870968 233.195312,19.1129032 233.195312,20.3225806 C233.195312,21.2903226 233.921875,22.2580645 235.132812,22.2580645 L244.09375,22.2580645 Z" id="Shape"></path>
                        <path d="M119.125,292.983871 L78.921875,292.983871 C77.953125,292.983871 76.984375,293.709677 76.984375,294.919355 C76.984375,295.887097 77.7109375,296.854839 78.921875,296.854839 L118.882812,296.854839 C119.851562,296.854839 120.820312,296.129032 120.820312,294.919355 C120.820312,293.951613 120.09375,292.983871 119.125,292.983871 Z" id="Shape"></path>
                        <path d="M65.84375,292.983871 L52.765625,292.983871 C51.796875,292.983871 50.828125,293.709677 50.828125,294.919355 C50.828125,295.887097 51.5546875,296.854839 52.765625,296.854839 L65.84375,296.854839 C66.8125,296.854839 67.78125,296.129032 67.78125,294.919355 C67.78125,293.951613 66.8125,292.983871 65.84375,292.983871 Z" id="Shape"></path>
                        <path d="M52.765625,283.064516 L80.6171875,283.064516 C81.5859375,283.064516 82.5546875,282.33871 82.5546875,281.129032 C82.5546875,280.16129 81.828125,279.193548 80.6171875,279.193548 L52.765625,279.193548 C51.796875,279.193548 50.828125,279.919355 50.828125,281.129032 C51.0703125,282.096774 51.796875,283.064516 52.765625,283.064516 Z" id="Shape"></path>
                        <path d="M101.929688,283.064516 C102.898438,283.064516 103.867187,282.33871 103.867187,281.129032 C103.867187,280.16129 103.140625,279.193548 101.929688,279.193548 L92.96875,279.193548 C92,279.193548 91.03125,279.919355 91.03125,281.129032 C91.03125,282.096774 91.7578125,283.064516 92.96875,283.064516 L101.929688,283.064516 Z" id="Shape"></path>
                        <path d="M230.046875,85.1612903 C232.226563,89.516129 235.617188,92.1774194 239.734375,93.1451613 C240.703125,93.3870968 241.671875,93.3870968 242.640625,93.3870968 C250.148438,93.3870968 257.171875,87.0967742 259.351563,78.1451613 C261.773438,67.983871 256.6875,58.0645161 248.210938,56.1290323 C239.734375,54.1935484 230.773438,60.9677419 228.59375,71.1290323 C227.382812,75.9677419 227.867188,81.0483871 230.046875,85.1612903 Z M232.226563,71.8548387 C233.921875,64.5967742 239.492188,59.2741935 245.304688,59.2741935 C246.03125,59.2741935 246.757813,59.2741935 247.484375,59.516129 C254.023438,60.9677419 257.898438,68.9516129 255.960938,77.1774194 C254.023438,85.4032258 247.242188,90.9677419 240.703125,89.516129 C237.554688,88.7903226 234.890625,86.6129032 233.4375,83.4677419 C231.5,80.0806452 231.257813,75.9677419 232.226563,71.8548387 Z" id="Shape"></path>
                        <path d="M288.171875,101.854839 C286.476562,101.129032 284.78125,101.612903 283.570312,102.822581 C274.609375,111.774194 269.523437,123.870968 269.523437,136.693548 L269.523437,194.516129 L214.304687,194.516129 L214.304687,186.290323 L243.851562,186.290323 C247.96875,186.290323 252.085937,184.596774 254.992187,181.693548 C257.898437,178.790323 259.59375,174.677419 259.59375,170.564516 L259.59375,114.919355 C259.59375,110.806452 257.898437,106.693548 254.992187,103.790323 C252.085937,100.887097 247.96875,99.1935484 243.851562,99.1935484 C239.734375,99.1935484 235.617187,100.887097 232.710937,103.790323 C232.710937,103.790323 232.46875,104.032258 232.46875,104.032258 L211.640625,134.516129 L195.171875,137.903226 L195.171875,105.725806 C195.171875,94.8387097 186.453125,86.1290323 175.554687,86.1290323 L143.101562,86.1290323 C132.203125,86.1290323 123.484375,94.8387097 123.484375,105.725806 L123.484375,137.903226 L106.773437,134.274194 L85.9453125,103.790323 C85.9453125,103.790323 85.703125,103.548387 85.703125,103.548387 C82.796875,100.645161 78.6796875,98.9516129 74.5625,98.9516129 C70.4453125,98.9516129 66.328125,100.645161 63.421875,103.548387 C60.515625,106.451613 58.8203125,110.564516 58.8203125,114.677419 L58.8203125,170.080645 C58.8203125,174.193548 60.515625,178.306452 63.421875,181.209677 C66.328125,184.112903 70.4453125,185.806452 74.5625,185.806452 L104.351562,185.806452 L104.351562,194.032258 L48.890625,194.032258 L48.890625,136.451613 C48.890625,123.629032 43.8046875,111.532258 34.84375,102.580645 C33.6328125,101.370968 31.9375,101.129032 30.2421875,101.612903 C28.546875,102.33871 27.578125,103.790323 27.578125,105.483871 L27.578125,213.387097 C27.578125,214.354839 28.3046875,215.322581 29.515625,215.322581 L34.84375,215.322581 L34.84375,264.677419 C34.84375,265.645161 35.5703125,266.612903 36.78125,266.612903 L42.8359375,266.612903 C43.8046875,266.612903 44.53125,265.887097 44.53125,264.919355 L49.859375,215.322581 L95.6328125,215.322581 L104.59375,252.580645 L104.59375,264.677419 C104.59375,265.645161 105.320312,266.612903 106.53125,266.612903 L212.851562,266.612903 C213.820312,266.612903 214.789062,265.887097 214.789062,264.677419 L214.789062,252.580645 L223.265625,215.322581 L268.796875,215.322581 L273.882812,264.677419 C273.882812,265.645161 274.851562,266.370968 275.578125,266.370968 L281.632812,266.370968 C282.601562,266.370968 283.570312,265.645161 283.570312,264.435484 L283.570312,215.322581 L288.898437,215.322581 C289.867187,215.322581 290.835937,214.596774 290.835937,213.387097 L290.835937,105.725806 C290.835937,104.032258 289.867187,102.33871 288.171875,101.854839 Z M41.140625,262.741935 L38.4765625,262.741935 L38.4765625,215.322581 L45.984375,215.322581 L41.140625,262.741935 Z M104.351562,236.854839 L99.265625,215.322581 L104.351562,215.322581 L104.351562,236.854839 Z M104.351562,211.693548 L48.1640625,211.693548 L36.78125,211.693548 L31.453125,211.693548 L31.453125,105.725806 C31.453125,105.483871 31.6953125,105.241935 31.6953125,105.241935 C31.9375,105.241935 32.1796875,105.241935 32.421875,105.483871 C40.8984375,113.951613 45.5,124.83871 45.5,136.693548 L45.5,195.967742 C45.5,196.935484 46.2265625,197.903226 47.4375,197.903226 L104.59375,197.903226 L104.59375,211.693548 L104.351562,211.693548 Z M213.09375,137.903226 C213.578125,137.903226 214.0625,137.419355 214.304688,137.177419 L235.617188,106.209677 C237.796875,104.032258 240.945313,102.822581 244.09375,102.822581 C247.242188,102.822581 250.390625,104.032258 252.8125,106.451613 C255.234375,108.870968 256.445312,111.774194 256.445312,115.16129 L256.445312,170.564516 C256.445312,173.709677 255.234375,176.854839 252.8125,179.274194 C250.390625,181.693548 247.484375,182.903226 244.09375,182.903226 L214.304688,182.903226 L214.304688,170.806452 L235.859375,170.806452 C236.828125,170.806452 237.796875,170.080645 237.796875,168.870968 L237.796875,139.112903 C237.796875,138.387097 237.3125,137.66129 236.585938,137.419355 C235.859375,137.177419 235.132813,137.177419 234.648438,137.66129 L223.265625,148.548387 L210.1875,148.548387 L187.90625,148.548387 C186.453125,147.822581 185.726563,146.854839 185.726563,146.370968 C185.726563,145.403226 187.179688,143.951613 188.390625,143.225806 L213.09375,137.903226 Z M214.304688,166.451613 L214.304688,160.645161 L223.992188,160.645161 C224.960938,160.645161 225.929688,159.919355 225.929688,158.709677 L225.929688,151.209677 L234.164062,143.225806 L234.164062,166.451613 L214.304688,166.451613 Z M127.117188,105.725806 C127.117188,97.016129 134.382812,89.7580645 143.101562,89.7580645 L175.554688,89.7580645 C184.273438,89.7580645 191.539062,97.016129 191.539062,105.725806 L191.539062,138.629032 L187.179688,139.596774 C186.9375,139.596774 186.695312,139.596774 186.695312,139.83871 C186.210938,140.080645 182.09375,142.741935 182.09375,146.370968 C182.09375,147.096774 182.335938,147.822581 182.820312,148.548387 L136.078125,148.548387 C136.5625,147.822581 136.5625,147.096774 136.804688,146.370968 C137.046875,142.741935 132.6875,140.080645 132.203125,139.83871 C131.960938,139.83871 131.960938,139.596774 131.71875,139.596774 L127.359375,138.629032 L127.359375,105.725806 L127.117188,105.725806 Z M104.351563,182.419355 L74.5625,182.419355 C71.4140625,182.419355 68.265625,181.209677 65.84375,178.790323 C63.421875,176.370968 62.2109375,173.467742 62.2109375,170.080645 L62.2109375,114.919355 C62.2109375,111.774194 63.421875,108.629032 65.84375,106.209677 C68.265625,103.790323 71.171875,102.580645 74.5625,102.580645 C77.7109375,102.580645 80.859375,103.790323 83.0390625,105.967742 L104.351563,136.935484 C104.59375,137.419355 105.078125,137.66129 105.5625,137.66129 L130.507813,142.983871 C131.476562,143.709677 133.171875,145.16129 133.171875,146.129032 C133.171875,146.854839 132.203125,147.580645 130.992188,148.306452 L108.46875,148.306452 L95.390625,148.306452 L84.0078125,137.419355 C83.5234375,136.935484 82.796875,136.693548 82.0703125,137.177419 C81.34375,137.419355 80.859375,138.145161 80.859375,138.870968 L80.859375,168.145161 C80.859375,169.112903 81.5859375,170.080645 82.796875,170.080645 C82.796875,170.080645 83.0390625,170.080645 83.0390625,170.080645 L104.59375,170.080645 L104.59375,182.419355 L104.351563,182.419355 Z M104.351562,166.451613 L84.4921875,166.451613 L84.4921875,143.467742 L92.7265625,151.451613 L92.7265625,158.951613 C92.7265625,159.919355 93.453125,160.887097 94.6640625,160.887097 L104.351562,160.887097 L104.351562,166.451613 Z M210.671875,262.741935 L107.984375,262.741935 L107.984375,160.645161 L210.671875,160.645161 L210.671875,262.741935 Z M212.609375,157.016129 L106.289063,157.016129 L96.6015625,157.016129 L96.6015625,152.419355 L108.953125,152.419355 L131.234375,152.419355 C131.234375,152.419355 131.234375,152.419355 131.234375,152.419355 L187.421875,152.419355 C187.421875,152.419355 187.421875,152.419355 187.421875,152.419355 L209.703125,152.419355 L222.054688,152.419355 L222.054688,157.016129 L212.609375,157.016129 Z M214.304688,236.854839 L214.304688,215.322581 L219.390625,215.322581 L214.304688,236.854839 Z M280.179688,262.741935 L277.515625,262.741935 L272.671875,215.322581 L280.179688,215.322581 L280.179688,262.741935 Z M287.203125,211.693548 L281.875,211.693548 L270.492188,211.693548 L214.304688,211.693548 L214.304688,197.66129 L271.460938,197.66129 C272.429688,197.66129 273.398438,196.935484 273.398438,195.725806 L273.398438,136.451613 C273.398438,124.596774 278,113.467742 286.476562,105.241935 C286.71875,105 286.960938,105 287.203125,105 C287.445312,105 287.445312,105.241935 287.445312,105.483871 L287.445312,211.693548 L287.203125,211.693548 Z" id="Shape"></path>
                        <path d="M59.0625,78.1451613 C61.2421875,87.0967742 68.265625,93.3870968 75.7734375,93.3870968 C76.7421875,93.3870968 77.7109375,93.3870968 78.6796875,93.1451613 C87.15625,91.2096774 92.2421875,81.2903226 89.8203125,71.1290323 C87.3984375,60.9677419 78.6796875,54.1935484 70.203125,56.1290323 C61.96875,58.0645161 56.8828125,67.983871 59.0625,78.1451613 Z M71.171875,59.7580645 C77.7109375,58.3064516 84.4921875,63.6290323 86.4296875,72.0967742 C88.3671875,80.5645161 84.4921875,88.3064516 77.953125,89.7580645 C71.4140625,91.2096774 64.6328125,85.8870968 62.6953125,77.4193548 C60.7578125,69.1935484 64.6328125,61.2096774 71.171875,59.7580645 Z" id="Shape"></path>
                        <path d="M130.265625,250.16129 C131.234375,250.16129 132.203125,249.435484 132.203125,248.225806 L132.203125,175.16129 C132.203125,174.193548 131.476562,173.225806 130.265625,173.225806 C129.296875,173.225806 128.328125,173.951613 128.328125,175.16129 L128.328125,248.467742 C128.328125,249.435484 129.054688,250.16129 130.265625,250.16129 Z" id="Shape"></path>
                        <path d="M149.640625,250.16129 C150.609375,250.16129 151.578125,249.435484 151.578125,248.225806 L151.578125,175.16129 C151.578125,174.193548 150.851562,173.225806 149.640625,173.225806 C148.671875,173.225806 147.703125,173.951613 147.703125,175.16129 L147.703125,248.467742 C147.703125,249.435484 148.671875,250.16129 149.640625,250.16129 Z" id="Shape"></path>
                        <path d="M169.015625,250.16129 C169.984375,250.16129 170.953125,249.435484 170.953125,248.225806 L170.953125,175.16129 C170.953125,174.193548 170.226562,173.225806 169.015625,173.225806 C168.046875,173.225806 167.078125,173.951613 167.078125,175.16129 L167.078125,248.467742 C167.320312,249.435484 168.046875,250.16129 169.015625,250.16129 Z" id="Shape"></path>
                        <path d="M188.632812,250.16129 C189.601562,250.16129 190.570312,249.435484 190.570312,248.225806 L190.570312,175.16129 C190.570312,174.193548 189.84375,173.225806 188.632812,173.225806 C187.664062,173.225806 186.695312,173.951613 186.695312,175.16129 L186.695312,248.467742 C186.695312,249.435484 187.421875,250.16129 188.632812,250.16129 Z" id="Shape"></path>
                        <path d="M159.328125,77.9032258 C169.742188,77.9032258 178.21875,69.4354839 178.21875,59.0322581 C178.21875,48.6290323 169.742188,40.1612903 159.328125,40.1612903 C148.914062,40.1612903 140.4375,48.6290323 140.4375,59.0322581 C140.4375,69.4354839 148.914062,77.9032258 159.328125,77.9032258 Z M159.328125,43.7903226 C167.804688,43.7903226 174.585938,50.5645161 174.585938,59.0322581 C174.585938,67.5 167.804688,74.2741935 159.328125,74.2741935 C150.851562,74.2741935 144.070312,67.5 144.070312,59.0322581 C144.070312,50.5645161 150.851562,43.7903226 159.328125,43.7903226 Z" id="Shape"></path>
                        <path d="M153.515625,96.7741935 L157.148438,96.7741935 L152.546875,130.16129 C152.546875,130.403226 152.546875,130.645161 152.546875,131.129032 C152.546875,131.612903 152.789062,131.854839 153.03125,132.33871 L157.875,137.177419 C158.117187,137.419355 158.601562,137.66129 159.085938,137.66129 C159.570312,137.66129 160.054688,137.419355 160.296875,137.177419 L165.140625,132.33871 C165.382812,132.096774 165.625,131.612903 165.625,131.129032 C165.625,130.887097 165.867188,130.645161 165.625,130.16129 L161.507812,96.7741935 L165.140625,96.7741935 C166.109375,96.7741935 167.078125,96.0483871 167.078125,94.8387097 C167.078125,93.8709677 166.351562,92.9032258 165.140625,92.9032258 L153.515625,92.9032258 C152.546875,92.9032258 151.578125,93.6290323 151.578125,94.8387097 C151.820312,96.0483871 152.546875,96.7741935 153.515625,96.7741935 Z M162.476562,129.919355 L159.328125,133.064516 L156.421875,129.919355 L159.328125,108.145161 L162.476562,129.919355 Z" id="Shape"></path>
                    </g>
                </g>
            </g>
        </g>
    </g>
</svg>