<?xml version="1.0" encoding="UTF-8"?>
<svg width="255px" height="44px" viewBox="0 0 255 44" version="1.1" xmlns="http://www.w3.org/2000/svg" xmlns:xlink="http://www.w3.org/1999/xlink">
    <!-- Generator: Sketch 48.1 (47250) - http://www.bohemiancoding.com/sketch -->
    <title>Group 10</title>
    <desc>Created with Sketch.</desc>
    <defs>
        <linearGradient x1="3.061617e-15%" y1="50%" x2="97.2357302%" y2="50%" id="linearGradient-1">
            <stop stop-color="#4EFFDF" offset="0%"></stop>
            <stop stop-color="#49BEDE" offset="51.2695312%"></stop>
            <stop stop-color="#F47EC6" offset="100%"></stop>
        </linearGradient>
    </defs>
    <g id="Isca" stroke="none" stroke-width="1" fill="none" fill-rule="evenodd" transform="translate(-833.000000, -78.000000)">
        <g id="Group-8" transform="translate(1.000000, -2.000000)" fill="#FFFFFF">
            <g id="Colorful-header">
                <g id="Group-10" transform="translate(832.000000, 80.000000)">
                    <path d="M60,29.624 L62.72,26.392 C64.192,27.672 66.112,28.568 67.84,28.568 C69.792,28.568 70.752,27.8 70.752,26.552 C70.752,25.24 69.568,24.824 67.744,24.056 L65.056,22.904 C62.88,22.04 60.832,20.248 60.832,17.208 C60.832,13.752 63.936,11 68.256,11 C70.656,11 73.184,11.96 74.976,13.752 L72.608,16.728 C71.232,15.672 69.92,15.064 68.256,15.064 C66.656,15.064 65.6,15.768 65.6,16.952 C65.6,18.232 66.976,18.68 68.8,19.416 L71.456,20.504 C73.984,21.528 75.584,23.224 75.584,26.168 C75.584,29.624 72.704,32.632 67.744,32.632 C65.024,32.632 62.144,31.608 60,29.624 Z M82.528,32.248 L82.528,15.352 L76.768,15.352 L76.768,11.384 L92.96,11.384 L92.96,15.352 L87.232,15.352 L87.232,32.248 L82.528,32.248 Z M99.296,23.608 L103.776,23.608 L103.264,21.688 C102.688,19.608 102.144,17.144 101.568,14.968 L101.44,14.968 C100.96,17.176 100.384,19.608 99.808,21.688 L99.296,23.608 Z M106.016,32.248 L104.736,27.288 L98.336,27.288 L97.056,32.248 L92.256,32.248 L98.816,11.384 L104.448,11.384 L111.008,32.248 L106.016,32.248 Z M117.92,15.128 L117.92,20.984 L120.32,20.984 C122.784,20.984 124.128,19.928 124.128,17.88 C124.128,15.832 122.784,15.128 120.32,15.128 L117.92,15.128 Z M129.76,32.248 L124.48,32.248 L120.48,24.728 L117.92,24.728 L117.92,32.248 L113.184,32.248 L113.184,11.384 L120.704,11.384 C125.12,11.384 128.768,12.92 128.768,17.88 C128.768,20.952 127.264,22.904 125.056,23.896 L129.76,32.248 Z M136.32,32.248 L136.32,15.352 L130.56,15.352 L130.56,11.384 L146.752,11.384 L146.752,15.352 L141.024,15.352 L141.024,32.248 L136.32,32.248 Z M149.888,22.584 L149.888,11.384 L154.592,11.384 L154.592,23.064 C154.592,27.16 155.872,28.568 158.208,28.568 C160.544,28.568 161.92,27.16 161.92,23.064 L161.92,11.384 L166.464,11.384 L166.464,22.584 C166.464,29.592 163.616,32.632 158.208,32.632 C152.8,32.632 149.888,29.592 149.888,22.584 Z M171.2,32.248 L171.2,11.384 L178.816,11.384 C183.36,11.384 186.976,13.048 186.976,18.104 C186.976,23 183.232,25.176 178.816,25.176 L175.936,25.176 L175.936,32.248 L171.2,32.248 Z M175.936,21.432 L178.528,21.432 C181.12,21.432 182.368,20.28 182.368,18.104 C182.368,15.928 181.024,15.128 178.528,15.128 L175.936,15.128 L175.936,21.432 Z" id="STARTUP"></path>
                    <path d="M195,26.138 C195,22.286 197.412,20 200.436,20 C201.876,20 203.046,20.702 203.784,21.494 L202.632,22.79 C202.02,22.196 201.354,21.818 200.454,21.818 C198.528,21.818 197.142,23.438 197.142,26.084 C197.142,28.766 198.42,30.386 200.382,30.386 C201.426,30.386 202.2,29.954 202.866,29.216 L204.018,30.494 C203.064,31.592 201.84,32.204 200.346,32.204 C197.358,32.204 195,30.044 195,26.138 Z M207.924,27.164 L210.93,27.164 L210.516,25.724 C210.156,24.482 209.796,23.132 209.454,21.836 L209.382,21.836 C209.058,23.15 208.716,24.482 208.338,25.724 L207.924,27.164 Z M212.316,31.988 L211.398,28.802 L207.456,28.802 L206.538,31.988 L204.396,31.988 L208.248,20.216 L210.696,20.216 L214.53,31.988 L212.316,31.988 Z M215.934,31.988 L215.934,20.216 L218.076,20.216 L221.73,26.84 L222.954,29.342 L223.026,29.342 C222.918,28.136 222.756,26.642 222.756,25.328 L222.756,20.216 L224.736,20.216 L224.736,31.988 L222.594,31.988 L218.94,25.364 L217.716,22.862 L217.644,22.862 C217.752,24.104 217.914,25.526 217.914,26.84 L217.914,31.988 L215.934,31.988 Z M229.776,31.988 L226.122,20.216 L228.336,20.216 L229.992,26.138 C230.37,27.47 230.622,28.622 231.018,29.972 L231.09,29.972 C231.486,28.622 231.756,27.47 232.134,26.138 L233.772,20.216 L235.896,20.216 L232.26,31.988 L229.776,31.988 Z M238.974,27.164 L241.98,27.164 L241.566,25.724 C241.206,24.482 240.846,23.132 240.504,21.836 L240.432,21.836 C240.108,23.15 239.766,24.482 239.388,25.724 L238.974,27.164 Z M243.366,31.988 L242.448,28.802 L238.506,28.802 L237.588,31.988 L235.446,31.988 L239.298,20.216 L241.746,20.216 L245.58,31.988 L243.366,31.988 Z M246.174,30.476 L247.38,29.054 C248.226,29.846 249.36,30.386 250.458,30.386 C251.772,30.386 252.51,29.792 252.51,28.874 C252.51,27.902 251.754,27.596 250.674,27.146 L249.072,26.444 C247.902,25.958 246.696,25.04 246.696,23.312 C246.696,21.44 248.352,20 250.638,20 C252.024,20 253.356,20.576 254.274,21.494 L253.194,22.826 C252.456,22.196 251.646,21.818 250.638,21.818 C249.522,21.818 248.802,22.34 248.802,23.204 C248.802,24.122 249.702,24.464 250.674,24.86 L252.258,25.526 C253.662,26.12 254.634,27.002 254.634,28.712 C254.634,30.62 253.05,32.204 250.404,32.204 C248.82,32.204 247.29,31.574 246.174,30.476 Z" id="CANVAS" opacity="0.600000024"></path>
                    <g id="noun_1293550_cc">
                        <path d="M1.66769084,0.222606083 C0.866959692,0.222686158 0.217858854,0.871786996 0.217778779,1.67251815 L0.217778779,42.3500555 C0.217858981,43.1507865 0.866959781,43.7998872 1.66769084,43.7999673 L35.5650478,43.7999673 C37.7471288,43.7999673 39.8415637,42.9323038 41.3845199,41.3893471 C42.9274693,39.8463872 43.7951401,37.7526669 43.7951401,35.570585 L43.7951401,1.67251815 C43.79506,0.871787085 43.1459594,0.222686285 42.3452283,0.222606083 L1.66769084,0.222606083 Z M3.1176029,3.12243021 L14.8719422,3.12243021 L14.8719422,14.9433203 L3.1176029,14.9433203 L3.1176029,3.12243021 Z M16.3218545,3.12243021 L27.8213283,3.12243021 L27.8213283,14.9433203 L16.3218545,14.9433203 L16.3218545,3.12243021 Z M29.2712406,3.12243021 L40.895316,3.12243021 L40.895316,14.9433203 L29.2712406,14.9433203 L29.2712406,3.12243021 Z M3.1176029,16.3932326 L10.5292852,16.3932326 L10.5292852,40.9001432 L3.1176029,40.9001432 L3.1176029,16.3932326 Z M11.9791975,16.3932326 L32.0344282,16.3932326 L32.0344282,40.9001432 L11.9791975,40.9001432 L11.9791975,16.3932326 Z M33.4843405,16.3932326 L40.895316,16.3932326 L40.895316,35.570585 C40.895316,36.9846991 40.3341817,38.3391452 39.3342537,39.3390809 C38.3343327,40.3390015 36.9791615,40.9001432 35.5650478,40.9001432 L33.4843405,40.9001432 L33.4843405,16.3932326 Z" id="Shape"></path>
                    </g>
                </g>
            </g>
        </g>
    </g>
</svg>