<?xml version="1.0" encoding="UTF-8"?>
<svg width="131px" height="138px" viewBox="0 0 131 138" version="1.1" xmlns="http://www.w3.org/2000/svg" xmlns:xlink="http://www.w3.org/1999/xlink">
    <!-- Generator: Sketch 48.1 (47250) - http://www.bohemiancoding.com/sketch -->
    <title>noun_924314_cc</title>
    <desc>Created with Sketch.</desc>
    <defs></defs>
    <g id="Vídeos" stroke="none" stroke-width="1" fill="none" fill-rule="evenodd" transform="translate(-710.000000, -1060.000000)">
        <g id="noun_924314_cc" transform="translate(710.000000, 1059.000000)" fill="#FFFFFF" fill-rule="nonzero">
            <g id="Group" transform="translate(0.000000, 0.970596)">
                <path d="M55.5036337,0.721821739 C53.7766761,0.901898542 52.301162,2.04286236 51.6954942,3.66652391 L47.078125,15.9202674 L4.56976744,15.9202674 C2.04605664,15.9205192 0.000248857815,17.9617489 -4.88498131e-14,20.4798087 L-4.88498131e-14,90.3926739 C0.000223593364,92.9107516 2.04603878,94.9520091 4.56976744,94.9522609 L42.8891715,94.9522609 L33.6544331,131.808478 C33.1743487,133.413873 33.6152236,135.152653 34.8026901,136.337124 C35.9901567,137.521595 37.7329639,137.96099 39.3418248,137.481524 C40.9506858,137.002059 42.1664805,135.680957 42.5083576,134.040717 L52.3143169,94.9522609 L60.9302326,94.9522609 L60.9302326,122.309478 C60.9069254,123.95381 61.7727848,125.483286 63.1962562,126.312238 C64.6197275,127.141191 66.3802725,127.141191 67.8037438,126.312238 C69.2272152,125.483286 70.0930746,123.95381 70.0697674,122.309478 L70.0697674,94.9522609 L78.6856831,94.9522609 L88.4916424,134.040717 C88.8335195,135.680957 90.0493142,137.002059 91.6581752,137.481524 C93.2670361,137.96099 95.0098433,137.521595 96.1973099,136.337124 C97.3847764,135.152653 97.8256513,133.413873 97.3455669,131.808478 L88.1108285,94.9522609 L126.430233,94.9522609 C128.953961,94.9520091 130.999776,92.9107516 131,90.3926739 L131,20.4798087 C131.012566,18.1361165 129.242438,16.1645819 126.90625,15.9202674 C126.747685,15.9120169 126.588797,15.9120169 126.430233,15.9202674 L83.921875,15.9202674 L79.3045058,3.66652391 C78.6303094,1.89063722 76.9236268,0.71755419 75.0203488,0.721821739 L65.5,0.721821739 L55.9796512,0.721821739 C55.8210864,0.713571279 55.6621985,0.713571279 55.5036337,0.721821739 Z M59.1213663,9.84088913 L65.5,9.84088913 L71.8786337,9.84088913 L74.1635174,15.9202674 L56.8364826,15.9202674 L59.1213663,9.84088913 Z M9.13953488,25.0393348 L121.860465,25.0393348 L121.860465,85.833087 L9.13953488,85.833087 L9.13953488,25.0393348 Z" id="Shape"></path>
            </g>
        </g>
    </g>
</svg>