<?xml version="1.0" encoding="UTF-8"?>
<svg width="135px" height="131px" viewBox="0 0 135 131" version="1.1" xmlns="http://www.w3.org/2000/svg" xmlns:xlink="http://www.w3.org/1999/xlink">
    <!-- Generator: Sketch 48.1 (47250) - http://www.bohemiancoding.com/sketch -->
    <title>Fill 1</title>
    <desc>Created with Sketch.</desc>
    <defs></defs>
    <g id="Desktop-HD" stroke="none" stroke-width="1" fill="none" fill-rule="evenodd" transform="translate(-1305.000000, -1062.000000)">
        <g id="Conteúdo" transform="translate(-17.000000, 611.000000)" fill="#EEEEEE">
            <path d="M1340.975,555.002 C1340.975,554.938 1341,554.616 1340.967,554.301 C1340.938,554.024 1340.844,553.754 1340.779,553.481 C1340.642,553.744 1340.459,553.994 1340.378,554.274 C1340.201,554.884 1340.061,555.506 1339.94,556.13 C1339.917,556.248 1340.017,556.457 1340.122,556.521 C1340.433,556.709 1340.688,556.582 1340.785,556.197 C1340.862,555.89 1340.887,555.57 1340.975,555.002 L1340.975,555.002 Z M1440.513,522.657 C1440.513,523.274 1440.499,523.59 1440.522,523.904 C1440.529,523.997 1440.645,524.161 1440.703,524.157 C1441.341,524.118 1440.594,524.295 1440.888,523.733 C1441.396,522.758 1441.942,521.771 1441.758,520.599 C1441.736,520.457 1441.613,520.33 1441.537,520.195 C1441.331,520.341 1440.995,520.45 1440.943,520.639 C1440.733,521.395 1440.61,522.175 1440.513,522.657 L1440.513,522.657 Z M1335.561,538.401 C1335.687,539.113 1335.73,539.683 1335.798,539.686 C1336.367,539.711 1336.286,539.168 1336.408,538.827 C1336.944,537.33 1337.434,535.815 1337.362,534.199 C1337.351,533.941 1337.085,533.694 1336.937,533.443 C1336.729,533.667 1336.387,533.863 1336.334,534.119 C1336.017,535.666 1335.767,537.227 1335.561,538.401 L1335.561,538.401 Z M1352.472,569.075 C1352.472,568.011 1352.495,567.376 1352.458,566.745 C1352.446,566.536 1352.275,566.337 1352.177,566.134 C1352.096,566.262 1351.973,566.38 1351.94,566.519 C1351.614,567.886 1350.708,569.142 1351.087,570.637 C1351.14,570.849 1351.503,571.005 1351.752,571.129 C1351.833,571.17 1352.105,571.048 1352.123,570.965 C1352.285,570.199 1352.41,569.426 1352.472,569.075 L1352.472,569.075 Z M1327.769,523.957 C1327.769,525.67 1327.755,526.292 1327.779,526.912 C1327.785,527.049 1327.924,527.181 1328.001,527.315 C1328.215,527.161 1328.539,527.052 1328.623,526.845 C1328.972,525.986 1329.31,525.112 1329.523,524.213 C1329.622,523.795 1329.442,523.305 1329.362,522.852 C1329.287,522.434 1328.537,521.884 1328.329,522.082 C1328.135,522.266 1327.877,522.491 1327.849,522.722 C1327.756,523.492 1327.754,524.273 1327.769,523.957 L1327.769,523.957 Z M1387.491,540.479 C1387.491,541.291 1387.455,541.609 1387.503,541.913 C1387.539,542.138 1387.685,542.346 1387.783,542.561 C1387.867,542.435 1387.997,542.319 1388.029,542.18 C1388.513,540.057 1388.996,537.934 1389.431,535.8 C1389.46,535.657 1389.115,535.414 1388.91,535.263 C1388.866,535.231 1388.585,535.38 1388.563,535.479 C1388.159,537.301 1387.777,539.128 1387.491,540.479 L1387.491,540.479 Z M1481.293,502.108 C1481.171,502.77 1480.988,503.709 1480.827,504.652 C1480.73,505.216 1481.114,505.823 1481.424,505.635 C1481.675,505.483 1482.022,505.25 1482.053,505.016 C1482.199,503.915 1482.316,502.801 1482.319,501.692 C1482.323,500.433 1482.592,499.146 1482.079,497.917 C1481.233,498.936 1481.658,500.215 1481.38,501.351 C1481.343,501.504 1481.342,501.667 1481.293,502.108 L1481.293,502.108 Z M1355.262,559.169 C1355.289,559.171 1355.316,559.174 1355.344,559.176 C1355.274,560.111 1355.184,561.045 1355.153,561.982 C1355.147,562.179 1355.358,562.384 1355.469,562.585 C1355.576,562.474 1355.732,562.382 1355.784,562.25 C1356.583,560.212 1357.162,558.117 1357.307,555.924 C1357.341,555.413 1357.01,555.096 1356.492,555.027 C1355.824,554.938 1355.703,555.505 1355.634,555.91 C1355.452,556.987 1355.378,558.081 1355.262,559.169 L1355.262,559.169 Z M1372.585,559.109 C1372.584,559.128 1372.627,558.656 1372.621,558.185 C1372.617,557.875 1372.543,557.566 1372.501,557.257 C1372.367,557.464 1372.161,557.654 1372.108,557.88 C1371.465,560.635 1370.835,563.394 1370.231,566.157 C1370.17,566.439 1370.279,566.768 1370.35,567.065 C1370.385,567.208 1370.568,567.452 1370.595,567.441 C1370.871,567.324 1371.188,567.216 1371.374,567.002 C1371.566,566.782 1371.691,566.455 1371.73,566.159 C1372.012,563.974 1372.265,561.784 1372.585,559.109 L1372.585,559.109 Z M1477.72,495.721 C1477.72,496.146 1477.678,496.472 1477.733,496.78 C1477.775,497.015 1477.939,497.228 1478.049,497.451 C1478.156,497.339 1478.303,497.245 1478.366,497.111 C1479.553,494.615 1479.898,491.939 1480.024,489.219 C1480.031,489.08 1479.941,488.913 1479.846,488.801 C1479.77,488.712 1479.612,488.637 1479.501,488.649 C1479.358,488.665 1479.146,488.74 1479.1,488.848 C1478.142,491.074 1478.168,493.494 1477.72,495.721 L1477.72,495.721 Z M1409.423,528.415 C1409.444,528.416 1409.465,528.416 1409.486,528.417 C1409.486,529.518 1409.479,530.619 1409.496,531.721 C1409.498,531.843 1409.637,531.963 1409.712,532.085 C1409.843,531.995 1410.053,531.932 1410.091,531.813 C1410.385,530.912 1410.697,530.012 1410.904,529.089 C1411.284,527.402 1411.602,525.701 1411.928,524.002 C1411.989,523.685 1411.207,523.23 1410.867,523.359 C1410.255,523.593 1409.699,523.943 1409.632,524.634 C1409.513,525.89 1409.487,527.154 1409.423,528.415 L1409.423,528.415 Z M1412.248,542.114 C1412.248,540.091 1412.256,538.814 1412.239,537.537 C1412.237,537.396 1412.127,537.219 1412.012,537.131 C1411.957,537.089 1411.68,537.194 1411.66,537.272 C1410.96,540.043 1410.275,542.818 1409.6,545.596 C1409.564,545.742 1409.63,545.91 1409.639,546.068 C1409.658,546.388 1410.496,546.746 1410.834,546.544 C1411.376,546.222 1412.003,545.923 1412.064,545.193 C1412.169,543.922 1412.218,542.645 1412.248,542.114 L1412.248,542.114 Z M1430.602,520.736 L1430.669,520.736 C1430.669,522.15 1430.664,523.565 1430.678,524.979 C1430.679,525.106 1430.797,525.231 1430.861,525.357 C1430.993,525.271 1431.215,525.208 1431.244,525.096 C1432.023,522.051 1432.784,519.002 1433.538,515.951 C1433.573,515.807 1433.574,515.576 1433.488,515.495 C1433.281,515.298 1433.005,515.021 1432.77,515.033 C1431.364,515.103 1430.632,515.767 1430.608,516.957 C1430.583,518.216 1430.602,519.477 1430.602,520.736 L1430.602,520.736 Z M1437.89,530.736 C1437.89,529.79 1437.899,528.682 1437.883,527.575 C1437.879,527.278 1437.801,526.981 1437.757,526.685 C1437.583,526.929 1437.322,527.15 1437.25,527.421 C1436.407,530.625 1435.58,533.833 1434.794,537.051 C1434.743,537.261 1435.019,537.739 1435.212,537.781 C1435.635,537.874 1436.19,537.91 1436.527,537.703 C1436.879,537.486 1437.197,536.979 1437.254,536.561 C1437.514,534.683 1437.675,532.792 1437.89,530.736 L1437.89,530.736 Z M1374.935,563.128 C1374.992,563.618 1374.99,563.78 1375.034,563.929 C1375.078,564.08 1375.167,564.218 1375.237,564.361 C1375.491,564.238 1375.932,564.156 1375.97,563.984 C1376.349,562.288 1376.734,560.586 1376.976,558.866 C1377.531,554.924 1378.544,551.044 1378.605,547.036 C1378.607,546.893 1378.493,546.748 1378.433,546.604 C1378.24,546.734 1377.91,546.835 1377.875,546.999 C1377.217,550.117 1376.551,553.233 1375.977,556.367 C1375.547,558.715 1375.245,561.087 1374.935,563.128 L1374.935,563.128 Z M1448.6,546.795 C1448.6,547.708 1448.593,548.975 1448.611,550.242 C1448.612,550.38 1448.733,550.591 1448.847,550.631 C1448.947,550.666 1449.217,550.53 1449.238,550.433 C1450.564,544.234 1451.877,538.032 1453.174,531.828 C1453.235,531.535 1453.178,531.206 1453.125,530.903 C1453.053,530.479 1452.812,530.431 1452.415,530.536 C1450.8,530.962 1450.121,532.095 1449.96,533.651 C1449.52,537.91 1449.079,542.169 1448.6,546.795 L1448.6,546.795 Z M1427.662,531.29 C1427.776,528.689 1427.871,526.47 1427.974,524.251 C1427.988,523.935 1428.043,523.62 1428.066,523.304 C1428.096,522.884 1427.947,522.677 1427.669,522.773 C1427.537,522.818 1427.375,522.965 1427.345,523.094 C1425.952,528.943 1424.57,534.794 1423.198,540.648 C1423.113,541.011 1423.761,541.442 1424.208,541.354 C1426.727,540.86 1427.292,540.309 1427.409,538.044 C1427.531,535.667 1427.589,533.287 1427.662,531.29 L1427.662,531.29 Z M1405.662,540.755 C1405.733,540.76 1405.804,540.765 1405.876,540.77 C1406.064,538.088 1406.263,535.406 1406.427,532.722 C1406.444,532.444 1406.285,531.924 1406.159,531.908 C1405.598,531.838 1405.318,532.324 1405.182,532.753 C1403.41,538.341 1402.501,544.133 1401.191,549.83 C1401.118,550.148 1401.886,550.665 1402.232,550.558 C1404.441,549.879 1405.086,549.122 1405.253,546.918 C1405.408,544.865 1405.527,542.81 1405.662,540.755 L1405.662,540.755 Z M1415.114,535.388 C1415.114,538.238 1415.11,540.776 1415.125,543.315 C1415.126,543.432 1415.271,543.62 1415.381,543.647 C1415.515,543.679 1415.779,543.618 1415.82,543.525 C1416.198,542.66 1416.638,541.806 1416.876,540.9 C1418.338,535.347 1419.259,529.694 1419.86,523.988 C1419.993,522.728 1420.072,521.46 1420.1,520.194 C1420.103,520.007 1419.677,519.634 1419.467,519.647 C1417.515,519.764 1416.312,520.75 1416.174,522.359 C1415.795,526.801 1415.449,531.246 1415.114,535.388 L1415.114,535.388 Z M1358.74,570.258 C1358.804,571.264 1358.787,572.231 1358.962,573.161 C1359.036,573.551 1359.515,573.865 1359.809,574.214 C1360.136,573.884 1360.537,573.6 1360.767,573.214 C1361.003,572.815 1361.095,572.322 1361.214,571.861 C1363.017,564.914 1364.01,557.817 1365.063,550.732 C1365.13,550.281 1365.033,549.796 1364.958,549.336 C1364.897,548.965 1364.607,548.828 1364.225,548.964 C1362.806,549.47 1361.767,550.286 1361.407,551.884 C1360.041,557.958 1359.313,564.119 1358.74,570.258 L1358.74,570.258 Z M1472.5,503.163 C1472.5,502.37 1472.537,501.573 1472.478,500.784 C1472.461,500.541 1472.223,500.173 1472.018,500.12 C1471.771,500.055 1471.37,500.179 1471.178,500.367 C1470.487,501.045 1470.068,501.866 1469.909,502.856 C1469.456,505.677 1469.031,508.506 1468.43,511.297 C1467.162,517.193 1465.784,523.066 1464.478,528.954 C1464.438,529.136 1464.681,529.391 1464.826,529.586 C1464.842,529.607 1465.134,529.492 1465.222,529.38 C1466.892,527.249 1468.442,525.08 1468.907,522.289 C1469.166,520.731 1469.79,519.239 1470.168,517.698 C1471.34,512.916 1472.488,508.127 1472.5,503.163 L1472.5,503.163 Z M1416.417,457.253 C1416.125,457.507 1415.961,457.585 1415.91,457.711 C1415.853,457.846 1415.841,458.061 1415.912,458.179 C1416.824,459.68 1417.782,461.155 1418.673,462.669 C1419.645,464.32 1420.64,465.967 1421.483,467.686 C1422.703,470.173 1422.08,471.641 1419.579,472.544 C1419.128,472.706 1418.678,472.876 1418.218,473.009 C1411.007,475.108 1403.859,477.393 1396.735,479.781 C1389.148,482.323 1381.752,485.332 1374.3,488.201 C1370.427,489.692 1366.744,491.668 1362.903,493.249 C1356.079,496.06 1349.652,499.622 1343.321,503.365 C1338.767,506.059 1334.559,509.248 1330.757,512.944 C1329.675,513.996 1329.549,514.654 1330.353,515.9 C1331.39,517.506 1332.504,519.07 1333.677,520.58 C1338.188,526.39 1342.734,532.172 1347.269,537.963 C1349.733,541.109 1352.199,544.253 1354.669,547.394 C1355.419,548.348 1356.108,548.502 1357.13,547.847 C1359.014,546.64 1360.832,545.33 1362.734,544.152 C1375.926,535.982 1389.363,528.238 1403.359,521.528 C1412.873,516.967 1422.522,512.675 1432.834,510.153 C1434.849,509.66 1436.889,509.268 1438.927,508.877 C1440.523,508.57 1441.776,509.25 1442.63,510.535 C1443.241,511.455 1443.674,512.499 1444.132,513.511 C1445.12,515.695 1446.014,517.923 1447.065,520.075 C1447.616,521.203 1447.893,522.522 1448.99,523.337 C1450.457,523.029 1450.6,521.548 1451.308,520.607 C1453.713,517.417 1456.001,514.137 1458.28,510.855 C1461.746,505.866 1465.173,500.851 1468.604,495.838 C1472.217,490.56 1475.82,485.274 1479.411,479.981 C1479.855,479.325 1480.204,478.605 1480.581,477.906 C1480.766,477.565 1480.661,477.27 1480.287,477.117 C1479.406,476.754 1478.535,476.353 1477.626,476.073 C1466.019,472.5 1454.404,468.958 1442.798,465.381 C1435.622,463.17 1428.462,460.911 1421.291,458.685 C1419.634,458.17 1417.96,457.705 1416.417,457.253 L1416.417,457.253 Z M1413.2,451 C1413.782,451.898 1414.798,452.023 1415.683,452.299 C1424.526,455.055 1433.38,457.776 1442.233,460.499 C1454.294,464.208 1466.356,467.915 1478.421,471.611 C1480.406,472.219 1482.421,472.731 1484.4,473.356 C1485.721,473.774 1486.586,474.742 1486.807,476.101 C1487.01,477.355 1487.077,478.641 1487.086,479.914 C1487.119,484.55 1487.069,489.188 1487.118,493.825 C1487.143,496.221 1487.254,498.619 1487.426,501.01 C1487.655,504.203 1486.76,506.955 1484.706,509.436 C1482.875,511.648 1481.183,513.984 1479.546,516.346 C1478.644,517.648 1477.898,519.077 1477.228,520.517 C1476.278,522.556 1475.225,524.449 1473.593,526.088 C1472.03,527.658 1470.772,529.548 1469.481,531.368 C1467.446,534.236 1465.499,537.167 1463.506,540.065 C1460.064,545.069 1456.625,550.076 1453.162,555.065 C1452.527,555.979 1451.856,556.893 1451.067,557.67 C1449.628,559.087 1447.165,558.792 1446.046,557.073 C1445.441,556.143 1444.983,555.107 1444.532,554.087 C1443.108,550.874 1441.735,547.638 1440.31,544.425 C1439.422,542.423 1438.782,542.057 1436.542,542.48 C1434.82,542.806 1433.098,543.214 1431.438,543.772 C1420.366,547.489 1409.619,551.938 1399.188,557.25 C1386.489,563.716 1374.264,570.956 1362.239,578.565 C1361.024,579.334 1359.804,580.103 1358.535,580.772 C1356.274,581.965 1354.164,581.494 1352.343,579.856 C1351.401,579.008 1350.633,577.96 1349.836,576.962 C1343.549,569.092 1337.284,561.206 1330.991,553.343 C1329.393,551.346 1327.72,549.41 1326.076,547.45 C1324.599,545.69 1323.622,543.773 1323.643,541.372 C1323.661,539.284 1323.382,537.21 1322,535.48 L1322,519.16 C1323.145,518.586 1323.526,517.508 1323.569,516.38 C1323.654,514.113 1324.835,512.447 1326.366,510.996 C1328.452,509.02 1330.545,507.039 1332.778,505.235 C1340.547,498.96 1349.47,494.627 1358.37,490.277 C1360.95,489.016 1363.651,488.004 1366.253,486.785 C1373.492,483.392 1380.979,480.603 1388.483,477.898 C1396.589,474.976 1404.718,472.079 1413.053,469.834 C1413.823,469.627 1414.572,469.338 1415.325,469.071 C1416.247,468.744 1416.584,468.031 1416.096,467.229 C1414.767,465.048 1413.389,462.898 1412.026,460.737 C1410.918,458.981 1409.781,457.243 1408.702,455.47 C1408.068,454.43 1408.158,453.333 1408.686,452.264 C1408.898,451.836 1409.135,451.42 1409.36,451 L1413.2,451 Z" id="Fill-1" transform="translate(1404.730477, 516.219223) scale(-1, 1) translate(-1404.730477, -516.219223) "></path>
        </g>
    </g>
</svg>