<?xml version="1.0" encoding="UTF-8"?>
<svg width="129px" height="90px" viewBox="0 0 129 90" version="1.1" xmlns="http://www.w3.org/2000/svg" xmlns:xlink="http://www.w3.org/1999/xlink">
    <!-- Generator: Sketch 48.1 (47250) - http://www.bohemiancoding.com/sketch -->
    <title>Fill 10</title>
    <desc>Created with Sketch.</desc>
    <defs></defs>
    <g id="Desktop-HD" stroke="none" stroke-width="1" fill="none" fill-rule="evenodd" transform="translate(-36.000000, -4652.000000)">
        <g id="Pilotos" transform="translate(36.000000, 4381.000000)" fill="#EEEEEE">
            <path d="M47.7122681,296.858124 C47.8452681,297.100124 47.9302681,297.485124 48.1312681,297.560124 C48.3502681,297.643124 48.7152681,297.496124 48.9472681,297.342124 C49.1882681,297.183124 49.4072681,296.924124 49.5222681,296.660124 C49.6212681,296.433124 49.6702681,296.026124 49.5422681,295.897124 C49.3612681,295.715124 48.9932681,295.644124 48.7112681,295.657124 C47.9802681,295.689124 47.6772681,296.144124 47.7122681,296.858124 M52.2422681,326.904124 C52.5812681,326.339124 53.1292681,325.441124 53.6502681,324.528124 C53.6882681,324.462124 53.5642681,324.248124 53.4622681,324.182124 C53.3902681,324.136124 53.1752681,324.184124 53.1212681,324.259124 C52.5872681,324.998124 52.0662681,325.747124 51.5642681,326.505124 C51.4982681,326.606124 51.5572681,326.787124 51.5532681,326.929124 C51.5432681,327.238124 51.6532681,327.311124 52.2422681,326.904124 M5.39326813,295.285124 C5.77326813,295.128124 6.21826813,295.005124 6.58926813,294.766124 C6.83326813,294.610124 6.96726813,294.285124 7.15026813,294.036124 C6.90026813,293.895124 6.65426813,293.646124 6.40026813,293.638124 C5.95326813,293.624124 5.47026813,293.683124 5.06526813,293.858124 C4.86626813,293.944124 4.68026813,294.383124 4.72526813,294.617124 C4.76926813,294.848124 5.11226813,295.021124 5.39326813,295.285124 M82.7442681,290.215124 C82.5492681,290.027124 82.3532681,289.798124 82.1152681,289.626124 C82.0032681,289.545124 81.7372681,289.496124 81.6682681,289.563124 C80.8352681,290.362124 80.6402681,291.405124 80.6262681,292.499124 C80.6252681,292.563124 80.8672681,292.708124 80.9642681,292.684124 C81.9122681,292.451124 82.8342681,291.173124 82.7442681,290.215124 M114.659268,314.514124 C114.659268,315.175124 114.606268,315.505124 114.675268,315.808124 C114.735268,316.069124 114.907268,316.476124 115.078268,316.502124 C115.337268,316.541124 115.709268,316.375124 115.905268,316.172124 C116.233268,315.836124 116.481268,315.413124 116.728268,315.005124 C117.217268,314.196124 117.005268,313.660124 116.022268,313.140124 C115.500268,312.865124 114.945268,313.009124 114.855268,313.454124 C114.760268,313.918124 114.682268,314.385124 114.659268,314.514124 M50.2802681,338.085124 C50.5352681,337.920124 50.8902681,337.814124 51.0282681,337.581124 C51.5932681,336.622124 52.0882681,335.623124 52.6162681,334.642124 C52.8022681,334.296124 52.7652681,333.998124 52.4322681,333.811124 C52.3582681,333.769124 52.1262681,333.902124 52.0392681,334.011124 C51.1552681,335.119124 50.1222681,336.129124 49.6902681,337.534124 C49.6602681,337.632124 49.7912681,337.815124 49.8922681,337.910124 C49.9902681,338.001124 50.1482681,338.028124 50.2802681,338.085124 M68.1302681,295.653124 C66.7802681,295.634124 65.8752681,295.938124 66.0922681,297.178124 C66.4892681,299.453124 65.5662681,301.504124 64.9572681,303.609124 C64.9202681,303.734124 65.0232681,304.026124 65.0512681,304.024124 C65.2792681,304.013124 65.6342681,304.027124 65.7122681,303.894124 C67.0602681,301.590124 68.3752681,299.268124 69.6872681,296.944124 C69.7572681,296.821124 69.8012681,296.614124 69.7452681,296.502124 C69.6182681,296.248124 69.4662681,295.900124 69.2442681,295.822124 C68.8122681,295.670124 68.3242681,295.677124 68.1302681,295.653124 M77.3432681,325.321124 C77.2212681,325.305124 77.0842681,325.246124 76.9822681,325.283124 C76.8412681,325.334124 76.6912681,325.432124 76.6062681,325.553124 C74.7012681,328.261124 72.7992681,330.973124 70.9102681,333.692124 C70.7352681,333.944124 70.6212681,334.246124 70.5212681,334.539124 C70.4762681,334.670124 70.4792681,334.921124 70.5552681,334.970124 C70.8012681,335.126124 71.0942681,335.317124 71.3622681,335.308124 C72.3752681,335.273124 73.2312681,334.825124 73.6662681,333.905124 C74.9452681,331.197124 76.1622681,328.459124 77.3912681,325.727124 C77.4392681,325.621124 77.3622681,325.458124 77.3432681,325.321124 M110.896268,320.213124 C110.866268,319.872124 110.833268,319.075124 110.701268,318.295124 C110.665268,318.086124 110.343268,317.898124 110.115268,317.764124 C110.036268,317.717124 109.804268,317.827124 109.710268,317.927124 C109.385268,318.274124 109.065268,318.629124 108.790268,319.014124 C106.758268,321.859124 104.732268,324.706124 102.731268,327.571124 C102.586268,327.777124 102.526268,328.217124 102.649268,328.389124 C102.781268,328.572124 103.278268,328.723124 103.442268,328.618124 C105.712268,327.164124 107.962268,325.680124 110.191268,324.164124 C110.892268,323.686124 111.166268,322.942124 111.080268,322.086124 C111.033268,321.611124 110.987268,321.136124 110.896268,320.213124 M74.2402681,348.873124 C74.3102681,349.646124 74.2782681,349.985124 74.3862681,350.272124 C74.4712681,350.499124 74.7082681,350.690124 74.9192681,350.836124 C74.9892681,350.883124 75.2572681,350.781124 75.3232681,350.676124 C76.3432681,349.071124 77.3892681,347.479124 78.3422681,345.835124 C80.4102681,342.262124 82.4312681,338.663124 84.4572681,335.067124 C84.5102681,334.973124 84.4022681,334.786124 84.3642681,334.643124 C84.1422681,333.817124 83.2832681,334.878124 76.2562681,344.655124 C75.8852681,345.171124 75.5342681,345.705124 75.1332681,346.197124 C74.3802681,347.122124 74.1612681,348.175124 74.2402681,348.873124 M104.034268,314.502124 C103.939268,314.794124 103.675268,315.383124 103.557268,316.002124 C103.265268,317.528124 102.189268,318.878124 102.525268,320.544124 C104.302268,319.951124 104.844268,318.201124 105.856268,316.914124 C107.325268,315.044124 108.664268,313.070124 110.035268,311.125124 C110.568268,310.367124 110.410268,309.651124 109.593268,309.115124 C108.800268,308.592124 107.975268,308.116124 107.147268,307.649124 C106.495268,307.281124 105.848268,307.516124 105.663268,308.206124 C105.130268,310.194124 104.629268,312.190124 104.034268,314.502124 M4.28326813,309.572124 C4.32626813,310.329124 4.32126813,311.289124 4.45926813,312.228124 C4.52026813,312.642124 4.78026813,313.193124 5.11326813,313.362124 C5.62926813,313.624124 5.89226813,313.087124 6.04626813,312.654124 C7.58826813,308.311124 9.14126813,303.973124 10.6382681,299.616124 C10.8892681,298.884124 10.9032681,298.069124 10.9942681,297.289124 C11.0092681,297.159124 10.8892681,296.960124 10.7722681,296.883124 C10.6552681,296.807124 10.4202681,296.774124 10.3122681,296.842124 C8.97426813,297.684124 7.64226813,298.536124 6.32426813,299.409124 C5.32126813,300.074124 4.89926813,301.048124 4.82426813,302.236124 C4.67426813,304.617124 4.47726813,306.995124 4.28326813,309.572124 M84.5502681,342.717124 C84.8322681,342.603124 85.1632681,342.549124 85.3892681,342.367124 C87.2382681,340.867124 89.0472681,339.317124 90.9122681,337.837124 C91.8212681,337.117124 92.3932681,336.229124 92.7932681,335.158124 C94.6782681,330.104124 96.5952681,325.062124 98.5002681,320.016124 C98.5562681,319.868124 98.6212681,319.721124 98.6652681,319.570124 C98.7912681,319.129124 98.9562681,318.642124 98.4852681,318.348124 C98.3902681,318.289124 97.9172681,318.639124 97.7692681,318.890124 C93.3402681,326.412124 88.9292681,333.944124 84.5262681,341.479124 C84.3742681,341.740124 84.3282681,342.063124 84.2362681,342.359124 C84.1362681,342.680124 84.2422681,342.800124 84.5502681,342.717124 M58.5452681,337.028124 C58.5732681,337.024124 59.0442681,336.909124 59.5182681,336.895124 C61.6622681,336.837124 62.9142681,335.813124 63.8232681,333.803124 C67.5072681,325.661124 71.3602681,317.593124 75.1512681,309.499124 C75.2182681,309.354124 75.2852681,309.209124 75.3392681,309.059124 C75.4872681,308.655124 75.9442681,308.210124 75.3342681,307.875124 C75.2162681,307.810124 74.7552681,308.157124 74.5992681,308.406124 C69.0682681,317.187124 63.5532681,325.978124 58.0432681,334.772124 C57.7902681,335.176124 57.5972681,335.619124 57.3872681,336.049124 C57.2122681,336.408124 57.6922681,337.083124 58.5452681,337.028124 M73.5402681,321.423124 C73.5162681,321.634124 73.4722681,321.795124 73.4872681,321.951124 C73.5022681,322.100124 73.5782681,322.368124 73.6272681,322.368124 C73.8702681,322.368124 74.2402681,322.382124 74.3372681,322.238124 C77.1922681,318.018124 80.0532681,313.801124 82.8412681,309.538124 C85.3702681,305.671124 87.8262681,301.755124 90.2882681,297.846124 C90.9142681,296.852124 90.7822681,296.176124 89.8612681,295.335124 C89.2772681,294.799124 88.6412681,294.319124 88.0032681,293.846124 C87.5052681,293.478124 86.6902681,293.683124 86.3792681,294.260124 C85.8542681,295.241124 85.3382681,296.228124 84.8642681,297.234124 C81.4702681,304.440124 78.0872681,311.651124 74.7032681,318.862124 C74.2972681,319.726124 73.9132681,320.600124 73.5402681,321.423124 M61.8182681,301.749124 C62.0292681,300.866124 62.1082681,300.705124 62.0902681,300.556124 C62.0742681,300.417124 61.9842681,300.239124 61.8712681,300.170124 C61.7672681,300.106124 61.5332681,300.104124 61.4512681,300.178124 C58.6902681,302.674124 56.8322681,305.855124 54.9192681,308.973124 C49.4082681,317.955124 43.9652681,326.977124 38.4942681,335.984124 C38.0802681,336.666124 37.6512681,337.339124 37.2462681,338.027124 C36.9702681,338.496124 37.1232681,339.205124 37.5262681,339.221124 C37.9722681,339.240124 38.5662681,339.240124 38.8472681,338.979124 C39.4202681,338.448124 39.8632681,337.759124 40.2972681,337.095124 C43.0102681,332.954124 45.7512681,328.830124 48.3952681,324.645124 C51.7222681,319.382124 55.0292681,314.104124 58.2182681,308.756124 C59.6842681,306.297124 60.8482681,303.658124 61.8182681,301.749124 M5.17426813,331.584124 L5.15726813,331.584124 C5.15726813,332.540124 5.11826813,333.499124 5.17426813,334.452124 C5.19926813,334.877124 5.29026813,335.467124 5.57426813,335.668124 C6.05226813,336.006124 6.44526813,335.515124 6.70326813,335.123124 C12.2002681,326.724124 17.7122681,318.335124 23.1572681,309.903124 C24.2552681,308.204124 25.5092681,306.517124 25.8102681,304.444124 C25.9082681,303.768124 25.3032681,304.159124 21.7872681,308.608124 C19.5142681,311.484124 17.2442681,314.362124 14.9282681,317.203124 C12.3092681,320.415124 9.67326813,323.620124 6.46326813,326.278124 C5.52426813,327.055124 5.11826813,327.998124 5.16826813,329.194124 C5.20226813,329.989124 5.17426813,330.787124 5.17426813,331.584124 M100.754268,304.023124 C100.590268,303.759124 100.485268,303.414124 100.253268,303.246124 C98.6992681,302.125124 97.1252681,301.031124 95.5412681,299.953124 C94.9862681,299.575124 94.2982681,299.806124 93.9852681,300.455124 C92.3892681,303.762124 90.8462681,307.096124 89.2052681,310.380124 C86.6332681,315.524124 83.9332681,320.604124 81.4102681,325.772124 C79.6612681,329.356124 78.1112681,333.038124 76.5052681,336.690124 C76.4372681,336.845124 76.7022681,337.147124 76.8122681,337.380124 C76.9442681,337.294124 77.1072681,337.232124 77.2062681,337.116124 C77.6182681,336.629124 78.0342681,336.142124 78.4092681,335.627124 C85.4592681,325.933124 92.5042681,316.236124 99.5452681,306.536124 C99.9202681,306.020124 100.283268,305.490124 100.586268,304.930124 C100.724268,304.672124 100.703268,304.329124 100.754268,304.023124 M24.6652681,341.398124 C25.5572681,341.398124 26.0372681,341.383124 26.5162681,341.400124 C27.9192681,341.449124 28.9662681,340.844124 29.7532681,339.707124 C30.1152681,339.180124 30.5212681,338.684124 30.9182681,338.182124 C38.5682681,328.506124 45.3102681,318.219124 51.5142681,307.569124 C52.8082681,305.348124 53.8322681,303.005124 54.5862681,300.558124 C54.8092681,299.832124 54.7222681,299.001124 54.7182681,298.218124 C54.7162681,297.848124 54.3762681,297.662124 54.0192681,297.865124 C51.7332681,299.171124 50.2242681,301.287124 48.7252681,303.328124 C44.7512681,308.738124 40.8772681,314.223124 37.0362681,319.729124 C32.6462681,326.022124 28.3312681,332.368124 23.9902681,338.696124 C23.6302681,339.220124 23.3112681,339.774124 22.9872681,340.323124 C22.7802681,340.673124 23.1912681,341.286124 23.6442681,341.321124 C24.1212681,341.358124 24.5992681,341.393124 24.6652681,341.398124 M17.6402681,293.941124 C15.8902681,293.796124 15.3242681,294.176124 15.0842681,295.949124 C14.7162681,298.662124 13.9402681,301.257124 13.0302681,303.817124 C11.5312681,308.030124 9.96726813,312.219124 8.44426813,316.424124 C8.12226813,317.314124 7.85226813,318.223124 7.58626813,319.131124 C7.56526813,319.202124 7.80926813,319.447124 7.86526813,319.426124 C8.15926813,319.324124 8.51726813,319.231124 8.69926813,319.008124 C12.1532681,314.814124 15.5932681,310.608124 19.0182681,306.391124 C21.1342681,303.786124 23.1822681,301.124124 25.3432681,298.557124 C26.1552681,297.593124 27.1582681,296.771124 28.1572681,295.992124 C28.9922681,295.340124 30.5292681,295.835124 31.0412681,296.811124 C31.4952681,297.679124 31.8042681,298.615124 31.5642681,299.578124 C31.1782681,301.121124 30.8552681,302.718124 30.1842681,304.142124 C28.8932681,306.883124 27.5262681,309.612124 25.9262681,312.181124 C22.4622681,317.742124 18.8392681,323.204124 15.2662681,328.695124 C13.0872681,332.044124 10.8632681,335.363124 8.69226813,338.717124 C8.17726813,339.512124 7.78626813,340.389124 7.36326813,341.241124 C7.31326813,341.342124 7.40126813,341.531124 7.46126813,341.664124 C7.61526813,342.004124 7.93426813,342.113124 8.23326813,341.832124 C9.39226813,340.740124 10.6392681,339.711124 11.6282681,338.476124 C13.9242681,335.609124 16.2082681,332.717124 18.2812681,329.689124 C21.5302681,324.943124 24.6312681,320.093124 27.7412681,315.254124 C31.8012681,308.935124 35.6152681,302.457124 40.0622681,296.391124 C40.2452681,296.141124 40.4252681,295.829124 40.4412681,295.536124 C40.4552681,295.282124 40.2692681,294.815124 40.1092681,294.786124 C39.0162681,294.587124 37.9082681,294.379124 36.8022681,294.363124 C33.9262681,294.321124 31.0472681,294.444124 28.1722681,294.379124 C24.6602681,294.298124 21.1512681,294.092124 17.6402681,293.941124 M17.6012681,337.660124 C18.6052681,337.395124 19.1352681,336.563124 19.7242681,335.829124 C25.2052681,328.990124 30.6882681,322.147124 35.6242681,314.897124 C37.5052681,312.133124 39.3152681,309.309124 40.9492681,306.396124 C42.1112681,304.325124 42.9332681,302.062124 43.8872681,299.877124 C44.0112681,299.593124 44.0372681,299.260124 44.0662681,298.946124 C44.0792681,298.807124 44.0082681,298.551124 43.9342681,298.534124 C43.6792681,298.477124 43.2752681,298.384124 43.1582681,298.513124 C40.4652681,301.476124 38.4912681,304.950124 36.3482681,308.296124 C30.4192681,317.553124 24.7482681,326.977124 18.3052681,335.900124 C17.9482681,336.394124 17.7992681,337.041124 17.5532681,337.616124 C15.7212681,338.666124 14.6662681,340.418124 13.5332681,342.095124 C13.4962681,342.150124 13.6252681,342.379124 13.7292681,342.451124 C13.8362681,342.526124 14.0652681,342.581124 14.1402681,342.520124 C15.7442681,341.224124 17.0432681,339.704124 17.6012681,337.660124 M0.348268129,339.544124 C0.941268129,335.412124 0.857268129,331.586124 0.319268129,327.763124 C0.252268129,327.290124 0.219268129,326.805124 0.228268129,326.328124 C0.287268129,323.294124 0.592268129,320.243124 0.369268129,317.230124 C0.144268129,314.191124 0.0832681294,311.177124 0.140268129,308.134124 C0.228268129,303.499124 0.0862681294,298.859124 0.0442681294,294.220124 C0.0332681294,293.102124 -0.0477318706,291.978124 0.0412681294,290.868124 C0.201268129,288.884124 1.56826813,287.668124 3.52026813,287.657124 C3.99926813,287.655124 4.48126813,287.675124 4.95826813,287.719124 C15.4862681,288.686124 26.0442681,288.723124 36.6022681,288.704124 C41.8962681,288.695124 47.1232681,289.500124 52.3752681,289.982124 C57.6462681,290.466124 62.9202681,290.328124 68.1962681,290.228124 C69.2292681,290.209124 70.0212681,289.459124 70.1042681,288.433124 C70.2062681,287.166124 70.2252681,285.886124 70.1982681,284.614124 C70.1292681,281.416124 70.0012681,278.218124 69.9262681,275.020124 C69.8952681,273.685124 70.3272681,272.521124 71.3242681,271.573124 C72.0542681,270.878124 73.3412681,270.757124 73.8792681,271.534124 C76.1722681,274.843124 79.2582681,277.449124 81.7802681,280.548124 C83.3052681,282.420124 85.0532681,284.034124 86.8952681,285.587124 C95.3542681,292.721124 104.370268,299.057124 113.867268,304.729124 C117.436268,306.862124 120.929268,309.121124 124.449268,311.336124 C125.261268,311.845124 126.036268,312.415124 126.833268,312.948124 C128.700268,314.199124 128.488268,316.461124 126.995268,317.890124 C126.426268,318.435124 125.719268,318.842124 125.060268,319.290124 C116.331268,325.225124 107.540268,331.071124 98.8852681,337.114124 C90.5982681,342.901124 83.0512681,349.571124 76.1692681,356.986124 C75.0862681,358.152124 73.9502681,359.283124 72.7432681,360.319124 C71.7602681,361.164124 70.2482681,360.542124 70.2702681,359.297124 C70.3582681,354.350124 69.3532681,349.414124 70.1382681,344.457124 C70.2612681,343.679124 70.1792681,342.867124 70.1592681,342.071124 C70.1432681,341.456124 69.4832681,340.902124 68.8612681,340.938124 C68.7022681,340.947124 68.5412681,340.937124 68.3842681,340.960124 C61.4212681,341.953124 54.4622681,342.962124 47.4972681,343.937124 C45.6002681,344.203124 43.6922681,344.518124 41.7862681,344.548124 C38.7192681,344.597124 35.7232681,345.052124 32.7872681,345.840124 C30.7542681,346.386124 28.7072681,346.562124 26.6272681,346.683124 C23.9162681,346.842124 21.1982681,346.995124 18.5072681,347.343124 C13.4402681,347.999124 8.38126813,348.739124 3.33726813,349.557124 C1.36526813,349.878124 0.384268129,348.967124 0.357268129,346.921124 C0.322268129,344.362124 0.348268129,341.803124 0.348268129,339.544124" id="Fill-10"></path>
        </g>
    </g>
</svg>