<?xml version="1.0" encoding="UTF-8"?>
<svg width="129px" height="90px" viewBox="0 0 129 90" version="1.1" xmlns="http://www.w3.org/2000/svg" xmlns:xlink="http://www.w3.org/1999/xlink">
    <!-- Generator: Sketch 48.1 (47250) - http://www.bohemiancoding.com/sketch -->
    <title>Fill 10 Copy</title>
    <desc>Created with Sketch.</desc>
    <defs></defs>
    <g id="Desktop-HD" stroke="none" stroke-width="1" fill="none" fill-rule="evenodd" transform="translate(-1276.000000, -4652.000000)">
        <g id="Pilotos" transform="translate(36.000000, 4381.000000)" fill="#EEEEEE">
            <path d="M1287.71227,296.858124 C1287.84527,297.100124 1287.93027,297.485124 1288.13127,297.560124 C1288.35027,297.643124 1288.71527,297.496124 1288.94727,297.342124 C1289.18827,297.183124 1289.40727,296.924124 1289.52227,296.660124 C1289.62127,296.433124 1289.67027,296.026124 1289.54227,295.897124 C1289.36127,295.715124 1288.99327,295.644124 1288.71127,295.657124 C1287.98027,295.689124 1287.67727,296.144124 1287.71227,296.858124 M1292.24227,326.904124 C1292.58127,326.339124 1293.12927,325.441124 1293.65027,324.528124 C1293.68827,324.462124 1293.56427,324.248124 1293.46227,324.182124 C1293.39027,324.136124 1293.17527,324.184124 1293.12127,324.259124 C1292.58727,324.998124 1292.06627,325.747124 1291.56427,326.505124 C1291.49827,326.606124 1291.55727,326.787124 1291.55327,326.929124 C1291.54327,327.238124 1291.65327,327.311124 1292.24227,326.904124 M1245.39327,295.285124 C1245.77327,295.128124 1246.21827,295.005124 1246.58927,294.766124 C1246.83327,294.610124 1246.96727,294.285124 1247.15027,294.036124 C1246.90027,293.895124 1246.65427,293.646124 1246.40027,293.638124 C1245.95327,293.624124 1245.47027,293.683124 1245.06527,293.858124 C1244.86627,293.944124 1244.68027,294.383124 1244.72527,294.617124 C1244.76927,294.848124 1245.11227,295.021124 1245.39327,295.285124 M1322.74427,290.215124 C1322.54927,290.027124 1322.35327,289.798124 1322.11527,289.626124 C1322.00327,289.545124 1321.73727,289.496124 1321.66827,289.563124 C1320.83527,290.362124 1320.64027,291.405124 1320.62627,292.499124 C1320.62527,292.563124 1320.86727,292.708124 1320.96427,292.684124 C1321.91227,292.451124 1322.83427,291.173124 1322.74427,290.215124 M1354.65927,314.514124 C1354.65927,315.175124 1354.60627,315.505124 1354.67527,315.808124 C1354.73527,316.069124 1354.90727,316.476124 1355.07827,316.502124 C1355.33727,316.541124 1355.70927,316.375124 1355.90527,316.172124 C1356.23327,315.836124 1356.48127,315.413124 1356.72827,315.005124 C1357.21727,314.196124 1357.00527,313.660124 1356.02227,313.140124 C1355.50027,312.865124 1354.94527,313.009124 1354.85527,313.454124 C1354.76027,313.918124 1354.68227,314.385124 1354.65927,314.514124 M1290.28027,338.085124 C1290.53527,337.920124 1290.89027,337.814124 1291.02827,337.581124 C1291.59327,336.622124 1292.08827,335.623124 1292.61627,334.642124 C1292.80227,334.296124 1292.76527,333.998124 1292.43227,333.811124 C1292.35827,333.769124 1292.12627,333.902124 1292.03927,334.011124 C1291.15527,335.119124 1290.12227,336.129124 1289.69027,337.534124 C1289.66027,337.632124 1289.79127,337.815124 1289.89227,337.910124 C1289.99027,338.001124 1290.14827,338.028124 1290.28027,338.085124 M1308.13027,295.653124 C1306.78027,295.634124 1305.87527,295.938124 1306.09227,297.178124 C1306.48927,299.453124 1305.56627,301.504124 1304.95727,303.609124 C1304.92027,303.734124 1305.02327,304.026124 1305.05127,304.024124 C1305.27927,304.013124 1305.63427,304.027124 1305.71227,303.894124 C1307.06027,301.590124 1308.37527,299.268124 1309.68727,296.944124 C1309.75727,296.821124 1309.80127,296.614124 1309.74527,296.502124 C1309.61827,296.248124 1309.46627,295.900124 1309.24427,295.822124 C1308.81227,295.670124 1308.32427,295.677124 1308.13027,295.653124 M1317.34327,325.321124 C1317.22127,325.305124 1317.08427,325.246124 1316.98227,325.283124 C1316.84127,325.334124 1316.69127,325.432124 1316.60627,325.553124 C1314.70127,328.261124 1312.79927,330.973124 1310.91027,333.692124 C1310.73527,333.944124 1310.62127,334.246124 1310.52127,334.539124 C1310.47627,334.670124 1310.47927,334.921124 1310.55527,334.970124 C1310.80127,335.126124 1311.09427,335.317124 1311.36227,335.308124 C1312.37527,335.273124 1313.23127,334.825124 1313.66627,333.905124 C1314.94527,331.197124 1316.16227,328.459124 1317.39127,325.727124 C1317.43927,325.621124 1317.36227,325.458124 1317.34327,325.321124 M1350.89627,320.213124 C1350.86627,319.872124 1350.83327,319.075124 1350.70127,318.295124 C1350.66527,318.086124 1350.34327,317.898124 1350.11527,317.764124 C1350.03627,317.717124 1349.80427,317.827124 1349.71027,317.927124 C1349.38527,318.274124 1349.06527,318.629124 1348.79027,319.014124 C1346.75827,321.859124 1344.73227,324.706124 1342.73127,327.571124 C1342.58627,327.777124 1342.52627,328.217124 1342.64927,328.389124 C1342.78127,328.572124 1343.27827,328.723124 1343.44227,328.618124 C1345.71227,327.164124 1347.96227,325.680124 1350.19127,324.164124 C1350.89227,323.686124 1351.16627,322.942124 1351.08027,322.086124 C1351.03327,321.611124 1350.98727,321.136124 1350.89627,320.213124 M1314.24027,348.873124 C1314.31027,349.646124 1314.27827,349.985124 1314.38627,350.272124 C1314.47127,350.499124 1314.70827,350.690124 1314.91927,350.836124 C1314.98927,350.883124 1315.25727,350.781124 1315.32327,350.676124 C1316.34327,349.071124 1317.38927,347.479124 1318.34227,345.835124 C1320.41027,342.262124 1322.43127,338.663124 1324.45727,335.067124 C1324.51027,334.973124 1324.40227,334.786124 1324.36427,334.643124 C1324.14227,333.817124 1323.28327,334.878124 1316.25627,344.655124 C1315.88527,345.171124 1315.53427,345.705124 1315.13327,346.197124 C1314.38027,347.122124 1314.16127,348.175124 1314.24027,348.873124 M1344.03427,314.502124 C1343.93927,314.794124 1343.67527,315.383124 1343.55727,316.002124 C1343.26527,317.528124 1342.18927,318.878124 1342.52527,320.544124 C1344.30227,319.951124 1344.84427,318.201124 1345.85627,316.914124 C1347.32527,315.044124 1348.66427,313.070124 1350.03527,311.125124 C1350.56827,310.367124 1350.41027,309.651124 1349.59327,309.115124 C1348.80027,308.592124 1347.97527,308.116124 1347.14727,307.649124 C1346.49527,307.281124 1345.84827,307.516124 1345.66327,308.206124 C1345.13027,310.194124 1344.62927,312.190124 1344.03427,314.502124 M1244.28327,309.572124 C1244.32627,310.329124 1244.32127,311.289124 1244.45927,312.228124 C1244.52027,312.642124 1244.78027,313.193124 1245.11327,313.362124 C1245.62927,313.624124 1245.89227,313.087124 1246.04627,312.654124 C1247.58827,308.311124 1249.14127,303.973124 1250.63827,299.616124 C1250.88927,298.884124 1250.90327,298.069124 1250.99427,297.289124 C1251.00927,297.159124 1250.88927,296.960124 1250.77227,296.883124 C1250.65527,296.807124 1250.42027,296.774124 1250.31227,296.842124 C1248.97427,297.684124 1247.64227,298.536124 1246.32427,299.409124 C1245.32127,300.074124 1244.89927,301.048124 1244.82427,302.236124 C1244.67427,304.617124 1244.47727,306.995124 1244.28327,309.572124 M1324.55027,342.717124 C1324.83227,342.603124 1325.16327,342.549124 1325.38927,342.367124 C1327.23827,340.867124 1329.04727,339.317124 1330.91227,337.837124 C1331.82127,337.117124 1332.39327,336.229124 1332.79327,335.158124 C1334.67827,330.104124 1336.59527,325.062124 1338.50027,320.016124 C1338.55627,319.868124 1338.62127,319.721124 1338.66527,319.570124 C1338.79127,319.129124 1338.95627,318.642124 1338.48527,318.348124 C1338.39027,318.289124 1337.91727,318.639124 1337.76927,318.890124 C1333.34027,326.412124 1328.92927,333.944124 1324.52627,341.479124 C1324.37427,341.740124 1324.32827,342.063124 1324.23627,342.359124 C1324.13627,342.680124 1324.24227,342.800124 1324.55027,342.717124 M1298.54527,337.028124 C1298.57327,337.024124 1299.04427,336.909124 1299.51827,336.895124 C1301.66227,336.837124 1302.91427,335.813124 1303.82327,333.803124 C1307.50727,325.661124 1311.36027,317.593124 1315.15127,309.499124 C1315.21827,309.354124 1315.28527,309.209124 1315.33927,309.059124 C1315.48727,308.655124 1315.94427,308.210124 1315.33427,307.875124 C1315.21627,307.810124 1314.75527,308.157124 1314.59927,308.406124 C1309.06827,317.187124 1303.55327,325.978124 1298.04327,334.772124 C1297.79027,335.176124 1297.59727,335.619124 1297.38727,336.049124 C1297.21227,336.408124 1297.69227,337.083124 1298.54527,337.028124 M1313.54027,321.423124 C1313.51627,321.634124 1313.47227,321.795124 1313.48727,321.951124 C1313.50227,322.100124 1313.57827,322.368124 1313.62727,322.368124 C1313.87027,322.368124 1314.24027,322.382124 1314.33727,322.238124 C1317.19227,318.018124 1320.05327,313.801124 1322.84127,309.538124 C1325.37027,305.671124 1327.82627,301.755124 1330.28827,297.846124 C1330.91427,296.852124 1330.78227,296.176124 1329.86127,295.335124 C1329.27727,294.799124 1328.64127,294.319124 1328.00327,293.846124 C1327.50527,293.478124 1326.69027,293.683124 1326.37927,294.260124 C1325.85427,295.241124 1325.33827,296.228124 1324.86427,297.234124 C1321.47027,304.440124 1318.08727,311.651124 1314.70327,318.862124 C1314.29727,319.726124 1313.91327,320.600124 1313.54027,321.423124 M1301.81827,301.749124 C1302.02927,300.866124 1302.10827,300.705124 1302.09027,300.556124 C1302.07427,300.417124 1301.98427,300.239124 1301.87127,300.170124 C1301.76727,300.106124 1301.53327,300.104124 1301.45127,300.178124 C1298.69027,302.674124 1296.83227,305.855124 1294.91927,308.973124 C1289.40827,317.955124 1283.96527,326.977124 1278.49427,335.984124 C1278.08027,336.666124 1277.65127,337.339124 1277.24627,338.027124 C1276.97027,338.496124 1277.12327,339.205124 1277.52627,339.221124 C1277.97227,339.240124 1278.56627,339.240124 1278.84727,338.979124 C1279.42027,338.448124 1279.86327,337.759124 1280.29727,337.095124 C1283.01027,332.954124 1285.75127,328.830124 1288.39527,324.645124 C1291.72227,319.382124 1295.02927,314.104124 1298.21827,308.756124 C1299.68427,306.297124 1300.84827,303.658124 1301.81827,301.749124 M1245.17427,331.584124 L1245.15727,331.584124 C1245.15727,332.540124 1245.11827,333.499124 1245.17427,334.452124 C1245.19927,334.877124 1245.29027,335.467124 1245.57427,335.668124 C1246.05227,336.006124 1246.44527,335.515124 1246.70327,335.123124 C1252.20027,326.724124 1257.71227,318.335124 1263.15727,309.903124 C1264.25527,308.204124 1265.50927,306.517124 1265.81027,304.444124 C1265.90827,303.768124 1265.30327,304.159124 1261.78727,308.608124 C1259.51427,311.484124 1257.24427,314.362124 1254.92827,317.203124 C1252.30927,320.415124 1249.67327,323.620124 1246.46327,326.278124 C1245.52427,327.055124 1245.11827,327.998124 1245.16827,329.194124 C1245.20227,329.989124 1245.17427,330.787124 1245.17427,331.584124 M1340.75427,304.023124 C1340.59027,303.759124 1340.48527,303.414124 1340.25327,303.246124 C1338.69927,302.125124 1337.12527,301.031124 1335.54127,299.953124 C1334.98627,299.575124 1334.29827,299.806124 1333.98527,300.455124 C1332.38927,303.762124 1330.84627,307.096124 1329.20527,310.380124 C1326.63327,315.524124 1323.93327,320.604124 1321.41027,325.772124 C1319.66127,329.356124 1318.11127,333.038124 1316.50527,336.690124 C1316.43727,336.845124 1316.70227,337.147124 1316.81227,337.380124 C1316.94427,337.294124 1317.10727,337.232124 1317.20627,337.116124 C1317.61827,336.629124 1318.03427,336.142124 1318.40927,335.627124 C1325.45927,325.933124 1332.50427,316.236124 1339.54527,306.536124 C1339.92027,306.020124 1340.28327,305.490124 1340.58627,304.930124 C1340.72427,304.672124 1340.70327,304.329124 1340.75427,304.023124 M1264.66527,341.398124 C1265.55727,341.398124 1266.03727,341.383124 1266.51627,341.400124 C1267.91927,341.449124 1268.96627,340.844124 1269.75327,339.707124 C1270.11527,339.180124 1270.52127,338.684124 1270.91827,338.182124 C1278.56827,328.506124 1285.31027,318.219124 1291.51427,307.569124 C1292.80827,305.348124 1293.83227,303.005124 1294.58627,300.558124 C1294.80927,299.832124 1294.72227,299.001124 1294.71827,298.218124 C1294.71627,297.848124 1294.37627,297.662124 1294.01927,297.865124 C1291.73327,299.171124 1290.22427,301.287124 1288.72527,303.328124 C1284.75127,308.738124 1280.87727,314.223124 1277.03627,319.729124 C1272.64627,326.022124 1268.33127,332.368124 1263.99027,338.696124 C1263.63027,339.220124 1263.31127,339.774124 1262.98727,340.323124 C1262.78027,340.673124 1263.19127,341.286124 1263.64427,341.321124 C1264.12127,341.358124 1264.59927,341.393124 1264.66527,341.398124 M1257.64027,293.941124 C1255.89027,293.796124 1255.32427,294.176124 1255.08427,295.949124 C1254.71627,298.662124 1253.94027,301.257124 1253.03027,303.817124 C1251.53127,308.030124 1249.96727,312.219124 1248.44427,316.424124 C1248.12227,317.314124 1247.85227,318.223124 1247.58627,319.131124 C1247.56527,319.202124 1247.80927,319.447124 1247.86527,319.426124 C1248.15927,319.324124 1248.51727,319.231124 1248.69927,319.008124 C1252.15327,314.814124 1255.59327,310.608124 1259.01827,306.391124 C1261.13427,303.786124 1263.18227,301.124124 1265.34327,298.557124 C1266.15527,297.593124 1267.15827,296.771124 1268.15727,295.992124 C1268.99227,295.340124 1270.52927,295.835124 1271.04127,296.811124 C1271.49527,297.679124 1271.80427,298.615124 1271.56427,299.578124 C1271.17827,301.121124 1270.85527,302.718124 1270.18427,304.142124 C1268.89327,306.883124 1267.52627,309.612124 1265.92627,312.181124 C1262.46227,317.742124 1258.83927,323.204124 1255.26627,328.695124 C1253.08727,332.044124 1250.86327,335.363124 1248.69227,338.717124 C1248.17727,339.512124 1247.78627,340.389124 1247.36327,341.241124 C1247.31327,341.342124 1247.40127,341.531124 1247.46127,341.664124 C1247.61527,342.004124 1247.93427,342.113124 1248.23327,341.832124 C1249.39227,340.740124 1250.63927,339.711124 1251.62827,338.476124 C1253.92427,335.609124 1256.20827,332.717124 1258.28127,329.689124 C1261.53027,324.943124 1264.63127,320.093124 1267.74127,315.254124 C1271.80127,308.935124 1275.61527,302.457124 1280.06227,296.391124 C1280.24527,296.141124 1280.42527,295.829124 1280.44127,295.536124 C1280.45527,295.282124 1280.26927,294.815124 1280.10927,294.786124 C1279.01627,294.587124 1277.90827,294.379124 1276.80227,294.363124 C1273.92627,294.321124 1271.04727,294.444124 1268.17227,294.379124 C1264.66027,294.298124 1261.15127,294.092124 1257.64027,293.941124 M1257.60127,337.660124 C1258.60527,337.395124 1259.13527,336.563124 1259.72427,335.829124 C1265.20527,328.990124 1270.68827,322.147124 1275.62427,314.897124 C1277.50527,312.133124 1279.31527,309.309124 1280.94927,306.396124 C1282.11127,304.325124 1282.93327,302.062124 1283.88727,299.877124 C1284.01127,299.593124 1284.03727,299.260124 1284.06627,298.946124 C1284.07927,298.807124 1284.00827,298.551124 1283.93427,298.534124 C1283.67927,298.477124 1283.27527,298.384124 1283.15827,298.513124 C1280.46527,301.476124 1278.49127,304.950124 1276.34827,308.296124 C1270.41927,317.553124 1264.74827,326.977124 1258.30527,335.900124 C1257.94827,336.394124 1257.79927,337.041124 1257.55327,337.616124 C1255.72127,338.666124 1254.66627,340.418124 1253.53327,342.095124 C1253.49627,342.150124 1253.62527,342.379124 1253.72927,342.451124 C1253.83627,342.526124 1254.06527,342.581124 1254.14027,342.520124 C1255.74427,341.224124 1257.04327,339.704124 1257.60127,337.660124 M1240.34827,339.544124 C1240.94127,335.412124 1240.85727,331.586124 1240.31927,327.763124 C1240.25227,327.290124 1240.21927,326.805124 1240.22827,326.328124 C1240.28727,323.294124 1240.59227,320.243124 1240.36927,317.230124 C1240.14427,314.191124 1240.08327,311.177124 1240.14027,308.134124 C1240.22827,303.499124 1240.08627,298.859124 1240.04427,294.220124 C1240.03327,293.102124 1239.95227,291.978124 1240.04127,290.868124 C1240.20127,288.884124 1241.56827,287.668124 1243.52027,287.657124 C1243.99927,287.655124 1244.48127,287.675124 1244.95827,287.719124 C1255.48627,288.686124 1266.04427,288.723124 1276.60227,288.704124 C1281.89627,288.695124 1287.12327,289.500124 1292.37527,289.982124 C1297.64627,290.466124 1302.92027,290.328124 1308.19627,290.228124 C1309.22927,290.209124 1310.02127,289.459124 1310.10427,288.433124 C1310.20627,287.166124 1310.22527,285.886124 1310.19827,284.614124 C1310.12927,281.416124 1310.00127,278.218124 1309.92627,275.020124 C1309.89527,273.685124 1310.32727,272.521124 1311.32427,271.573124 C1312.05427,270.878124 1313.34127,270.757124 1313.87927,271.534124 C1316.17227,274.843124 1319.25827,277.449124 1321.78027,280.548124 C1323.30527,282.420124 1325.05327,284.034124 1326.89527,285.587124 C1335.35427,292.721124 1344.37027,299.057124 1353.86727,304.729124 C1357.43627,306.862124 1360.92927,309.121124 1364.44927,311.336124 C1365.26127,311.845124 1366.03627,312.415124 1366.83327,312.948124 C1368.70027,314.199124 1368.48827,316.461124 1366.99527,317.890124 C1366.42627,318.435124 1365.71927,318.842124 1365.06027,319.290124 C1356.33127,325.225124 1347.54027,331.071124 1338.88527,337.114124 C1330.59827,342.901124 1323.05127,349.571124 1316.16927,356.986124 C1315.08627,358.152124 1313.95027,359.283124 1312.74327,360.319124 C1311.76027,361.164124 1310.24827,360.542124 1310.27027,359.297124 C1310.35827,354.350124 1309.35327,349.414124 1310.13827,344.457124 C1310.26127,343.679124 1310.17927,342.867124 1310.15927,342.071124 C1310.14327,341.456124 1309.48327,340.902124 1308.86127,340.938124 C1308.70227,340.947124 1308.54127,340.937124 1308.38427,340.960124 C1301.42127,341.953124 1294.46227,342.962124 1287.49727,343.937124 C1285.60027,344.203124 1283.69227,344.518124 1281.78627,344.548124 C1278.71927,344.597124 1275.72327,345.052124 1272.78727,345.840124 C1270.75427,346.386124 1268.70727,346.562124 1266.62727,346.683124 C1263.91627,346.842124 1261.19827,346.995124 1258.50727,347.343124 C1253.44027,347.999124 1248.38127,348.739124 1243.33727,349.557124 C1241.36527,349.878124 1240.38427,348.967124 1240.35727,346.921124 C1240.32227,344.362124 1240.34827,341.803124 1240.34827,339.544124" id="Fill-10-Copy" transform="translate(1304.087169, 315.853676) scale(-1, 1) translate(-1304.087169, -315.853676) "></path>
        </g>
    </g>
</svg>