<?xml version="1.0" encoding="UTF-8"?>
<svg width="177px" height="125px" viewBox="0 0 177 125" version="1.1" xmlns="http://www.w3.org/2000/svg" xmlns:xlink="http://www.w3.org/1999/xlink">
    <!-- Generator: Sketch 48.1 (47250) - http://www.bohemiancoding.com/sketch -->
    <title>Fill 8</title>
    <desc>Created with Sketch.</desc>
    <defs></defs>
    <g id="Desktop-HD" stroke="none" stroke-width="1" fill="none" fill-rule="evenodd" transform="translate(-953.000000, -4040.000000)">
        <g id="Estágios" transform="translate(185.000000, 2969.000000)" fill="#EEEEEE">
            <path d="M871.898174,1199.56244 C872.450174,1199.36444 873.046174,1199.15744 873.639174,1198.93844 C876.184174,1197.99944 878.706174,1196.99044 881.278174,1196.12944 C886.283174,1194.45744 891.394174,1193.16844 896.558174,1192.08344 C899.528174,1191.45944 902.494174,1190.81144 905.454174,1190.14544 C909.503174,1189.23344 909.558174,1189.12144 909.635174,1185.13944 C909.722174,1180.64244 909.225174,1176.18344 908.481174,1171.77844 C907.285174,1164.68644 905.544174,1157.70944 903.437174,1150.82444 C898.982174,1136.25744 892.972174,1122.34044 886.045174,1108.80044 C885.318174,1107.37744 884.544174,1105.97644 883.877174,1104.52644 C883.001174,1102.62044 883.325174,1101.27244 884.985174,1099.85644 C886.079174,1098.92244 887.258174,1098.09244 888.377174,1097.18844 C891.733174,1094.47644 895.083174,1091.75644 898.421174,1089.02444 C899.000174,1088.55144 898.929174,1087.81644 898.280174,1087.50744 C894.673174,1085.79544 891.111174,1083.97744 887.431174,1082.43844 C878.287174,1078.61544 869.304174,1074.44144 860.335174,1070.23044 C852.380174,1066.49544 844.418174,1062.77644 836.448174,1059.07044 C835.145174,1058.46344 833.801174,1057.94644 832.464174,1057.41644 C831.904174,1057.19444 831.158174,1057.63144 831.000174,1058.28544 C830.774174,1059.21144 830.574174,1060.14644 830.421174,1061.08744 C829.453174,1067.07744 828.720174,1073.11544 827.489174,1079.04944 C825.864174,1086.88144 824.726174,1094.78144 823.518174,1102.67544 C822.045174,1112.30944 820.544174,1121.93844 819.062174,1131.57044 C818.990174,1132.04244 818.982174,1132.52444 818.947174,1133.00144 C818.892174,1133.76844 819.419174,1134.32244 820.047174,1134.12244 C821.113174,1133.78244 822.159174,1133.38144 823.225174,1133.04744 C830.237174,1130.85144 837.254174,1128.67444 844.262174,1126.46544 C845.267174,1126.14844 846.189174,1126.17644 846.922174,1126.93444 C849.586174,1129.69044 852.471174,1132.31444 854.167174,1135.81444 C857.301174,1142.28644 860.301174,1148.82844 862.107174,1155.83244 C863.264174,1160.31644 864.449174,1164.79644 865.489174,1169.30844 C867.641174,1178.64744 869.957174,1187.95944 870.785174,1197.54844 C870.826174,1198.01544 870.942174,1198.49844 871.136174,1198.91944 C871.252174,1199.16844 871.590174,1199.31444 871.898174,1199.56244 M913.616174,1182.28544 C913.616174,1184.84144 913.731174,1187.40544 913.588174,1189.95444 C913.389174,1193.51344 912.604174,1196.91944 910.154174,1199.71544 C909.416174,1200.55744 908.738174,1201.45444 907.977174,1202.27344 C906.111174,1204.28244 904.573174,1206.50344 903.411174,1208.99044 C903.140174,1209.56844 902.800174,1210.11344 902.503174,1210.67944 C901.303174,1212.96744 899.413174,1214.11044 896.872174,1214.66444 C889.536174,1216.26244 882.229174,1218.00944 874.936174,1219.79944 C870.729174,1220.83344 866.737174,1222.52144 862.891174,1224.49144 C858.107174,1226.94244 857.903174,1226.39944 857.160174,1221.17844 C856.056174,1213.42444 855.029174,1205.65844 853.769174,1197.92944 C851.731174,1185.41644 848.103174,1173.33444 843.401174,1161.57244 C842.808174,1160.08944 842.168174,1158.61844 841.424174,1157.20744 C840.301174,1155.07244 838.877174,1153.13744 837.059174,1151.53144 C836.325174,1150.88044 835.480174,1150.49244 834.424174,1150.77944 C831.650174,1151.53444 828.828174,1152.12944 826.093174,1153.00444 C820.614174,1154.75644 815.185174,1156.66444 809.725174,1158.47944 C808.365174,1158.93144 806.972174,1159.29044 805.586174,1159.66144 C805.130174,1159.78444 804.223174,1159.11344 804.179174,1158.62444 C804.094174,1157.67444 803.943174,1156.71044 804.022174,1155.76944 C804.438174,1150.83344 804.883174,1145.89844 805.383174,1140.96844 C805.835174,1136.51644 806.404174,1132.07544 806.860174,1127.62344 C807.627174,1120.14844 808.286174,1112.66244 809.102174,1105.19244 C809.692174,1099.79044 810.503174,1094.41244 811.142174,1089.01544 C811.724174,1084.09544 812.275174,1079.16844 812.696174,1074.23344 C812.852174,1072.40844 813.307174,1070.84244 814.467174,1069.39844 C818.474174,1064.41244 822.414174,1059.37144 826.382174,1054.35244 C826.779174,1053.85044 827.194174,1053.36344 827.601174,1052.87044 C829.208174,1050.92144 830.226174,1050.42244 832.517174,1051.72044 C832.794174,1051.87644 833.107174,1051.96644 833.396174,1052.10244 C851.188174,1060.46644 869.416174,1067.87444 887.050174,1076.58744 C892.492174,1079.27744 898.120174,1081.58944 903.665174,1084.06944 C906.227174,1085.21444 906.949174,1086.55744 904.353174,1089.13444 C903.563174,1089.91944 902.632174,1090.56444 901.759174,1091.26544 C897.768174,1094.46844 893.767174,1097.66044 889.787174,1100.87644 C888.360174,1102.03044 888.261174,1102.52944 889.012174,1104.14544 C891.772174,1110.08944 894.630174,1115.98944 897.285174,1121.98044 C901.301174,1131.04644 904.945174,1140.26644 907.799174,1149.77344 C910.983174,1160.37744 913.185174,1171.16444 913.616174,1182.28544" id="Fill-8" transform="translate(858.829950, 1138.448560) rotate(-60.000000) translate(-858.829950, -1138.448560) "></path>
        </g>
    </g>
</svg>