<?xml version="1.0" encoding="UTF-8"?>
<svg width="177px" height="125px" viewBox="0 0 177 125" version="1.1" xmlns="http://www.w3.org/2000/svg" xmlns:xlink="http://www.w3.org/1999/xlink">
    <!-- Generator: Sketch 48.1 (47250) - http://www.bohemiancoding.com/sketch -->
    <title>Fill 8 Copy</title>
    <desc>Created with Sketch.</desc>
    <defs></defs>
    <g id="Desktop-HD" stroke="none" stroke-width="1" fill="none" fill-rule="evenodd" transform="translate(-310.000000, -4040.000000)">
        <g id="Estágios" transform="translate(185.000000, 2969.000000)" fill="#EEEEEE">
            <path d="M224.215873,1199.32229 C224.767873,1199.12429 225.363873,1198.91729 225.956873,1198.69829 C228.501873,1197.75929 231.023873,1196.75029 233.595873,1195.88929 C238.600873,1194.21729 243.711873,1192.92829 248.875873,1191.84329 C251.845873,1191.21929 254.811873,1190.57129 257.771873,1189.90529 C261.820873,1188.99329 261.875873,1188.88129 261.952873,1184.89929 C262.039873,1180.40229 261.542873,1175.94329 260.798873,1171.53829 C259.602873,1164.44629 257.861873,1157.46929 255.754873,1150.58429 C251.299873,1136.01729 245.289873,1122.10029 238.362873,1108.56029 C237.635873,1107.13729 236.861873,1105.73629 236.194873,1104.28629 C235.318873,1102.38029 235.642873,1101.03229 237.302873,1099.61629 C238.396873,1098.68229 239.575873,1097.85229 240.694873,1096.94829 C244.050873,1094.23629 247.400873,1091.51629 250.738873,1088.78429 C251.317873,1088.31129 251.246873,1087.57629 250.597873,1087.26729 C246.990873,1085.55529 243.428873,1083.73729 239.748873,1082.19829 C230.604873,1078.37529 221.621873,1074.20129 212.652873,1069.99029 C204.697873,1066.25529 196.735873,1062.53629 188.765873,1058.83029 C187.462873,1058.22329 186.118873,1057.70629 184.781873,1057.17629 C184.221873,1056.95429 183.475873,1057.39129 183.317873,1058.04529 C183.091873,1058.97129 182.891873,1059.90629 182.738873,1060.84729 C181.770873,1066.83729 181.037873,1072.87529 179.806873,1078.80929 C178.181873,1086.64129 177.043873,1094.54129 175.835873,1102.43529 C174.362873,1112.06929 172.861873,1121.69829 171.379873,1131.33029 C171.307873,1131.80229 171.299873,1132.28429 171.264873,1132.76129 C171.209873,1133.52829 171.736873,1134.08229 172.364873,1133.88229 C173.430873,1133.54229 174.476873,1133.14129 175.542873,1132.80729 C182.554873,1130.61129 189.571873,1128.43429 196.579873,1126.22529 C197.584873,1125.90829 198.506873,1125.93629 199.239873,1126.69429 C201.903873,1129.45029 204.788873,1132.07429 206.484873,1135.57429 C209.618873,1142.04629 212.618873,1148.58829 214.424873,1155.59229 C215.581873,1160.07629 216.766873,1164.55629 217.806873,1169.06829 C219.958873,1178.40729 222.274873,1187.71929 223.102873,1197.30829 C223.143873,1197.77529 223.259873,1198.25829 223.453873,1198.67929 C223.569873,1198.92829 223.907873,1199.07429 224.215873,1199.32229 M265.933873,1182.04529 C265.933873,1184.60129 266.048873,1187.16529 265.905873,1189.71429 C265.706873,1193.27329 264.921873,1196.67929 262.471873,1199.47529 C261.733873,1200.31729 261.055873,1201.21429 260.294873,1202.03329 C258.428873,1204.04229 256.890873,1206.26329 255.728873,1208.75029 C255.457873,1209.32829 255.117873,1209.87329 254.820873,1210.43929 C253.620873,1212.72729 251.730873,1213.87029 249.189873,1214.42429 C241.853873,1216.02229 234.546873,1217.76929 227.253873,1219.55929 C223.046873,1220.59329 219.054873,1222.28129 215.208873,1224.25129 C210.424873,1226.70229 210.220873,1226.15929 209.477873,1220.93829 C208.373873,1213.18429 207.346873,1205.41829 206.086873,1197.68929 C204.048873,1185.17629 200.420873,1173.09429 195.718873,1161.33229 C195.125873,1159.84929 194.485873,1158.37829 193.741873,1156.96729 C192.618873,1154.83229 191.194873,1152.89729 189.376873,1151.29129 C188.642873,1150.64029 187.797873,1150.25229 186.741873,1150.53929 C183.967873,1151.29429 181.145873,1151.88929 178.410873,1152.76429 C172.931873,1154.51629 167.502873,1156.42429 162.042873,1158.23929 C160.682873,1158.69129 159.289873,1159.05029 157.903873,1159.42129 C157.447873,1159.54429 156.540873,1158.87329 156.496873,1158.38429 C156.411873,1157.43429 156.260873,1156.47029 156.339873,1155.52929 C156.755873,1150.59329 157.200873,1145.65829 157.700873,1140.72829 C158.152873,1136.27629 158.721873,1131.83529 159.177873,1127.38329 C159.944873,1119.90829 160.603873,1112.42229 161.419873,1104.95229 C162.009873,1099.55029 162.820873,1094.17229 163.459873,1088.77529 C164.041873,1083.85529 164.592873,1078.92829 165.013873,1073.99329 C165.169873,1072.16829 165.624873,1070.60229 166.784873,1069.15829 C170.791873,1064.17229 174.731873,1059.13129 178.699873,1054.11229 C179.096873,1053.61029 179.511873,1053.12329 179.918873,1052.63029 C181.525873,1050.68129 182.543873,1050.18229 184.834873,1051.48029 C185.111873,1051.63629 185.424873,1051.72629 185.713873,1051.86229 C203.505873,1060.22629 221.733873,1067.63429 239.367873,1076.34729 C244.809873,1079.03729 250.437873,1081.34929 255.982873,1083.82929 C258.544873,1084.97429 259.266873,1086.31729 256.670873,1088.89429 C255.880873,1089.67929 254.949873,1090.32429 254.076873,1091.02529 C250.085873,1094.22829 246.084873,1097.42029 242.104873,1100.63629 C240.677873,1101.79029 240.578873,1102.28929 241.329873,1103.90529 C244.089873,1109.84929 246.947873,1115.74929 249.602873,1121.74029 C253.618873,1130.80629 257.262873,1140.02629 260.116873,1149.53329 C263.300873,1160.13729 265.502873,1170.92429 265.933873,1182.04529" id="Fill-8-Copy" transform="translate(211.147649, 1138.208409) scale(-1, 1) rotate(-60.000000) translate(-211.147649, -1138.208409) "></path>
        </g>
    </g>
</svg>