<?xml version="1.0" encoding="UTF-8"?>
<svg width="139px" height="102px" viewBox="0 0 139 102" version="1.1" xmlns="http://www.w3.org/2000/svg" xmlns:xlink="http://www.w3.org/1999/xlink">
    <!-- Generator: Sketch 48.1 (47250) - http://www.bohemiancoding.com/sketch -->
    <title>Fill 12</title>
    <desc>Created with Sketch.</desc>
    <defs></defs>
    <g id="Desktop-HD" stroke="none" stroke-width="1" fill="none" fill-rule="evenodd" transform="translate(0.000000, -622.000000)">
        <g id="Conteúdo" transform="translate(-17.000000, 611.000000)" fill="#EEEEEE">
            <path d="M48.1986327,96.535442 C48.5476327,96.589442 48.9336327,96.768442 49.1196327,96.645442 C49.3156327,96.514442 49.4026327,96.096442 49.3976327,95.805442 C49.3526327,92.849442 48.0886327,90.655442 45.3526327,89.379442 C44.7826327,89.112442 44.2736327,88.713442 43.6986327,88.461442 C43.5036327,88.375442 43.1766327,88.519442 42.9416327,88.629442 C42.8436327,88.675442 42.7786327,88.904442 42.7836327,89.048442 C42.8866327,91.911442 43.7566327,94.317442 46.6166327,95.577442 C47.1906327,95.829442 47.6996327,96.228442 48.1986327,96.535442 M151.060633,57.346442 C151.026633,56.835442 151.161633,55.970442 150.886633,55.263442 C149.616633,51.990442 148.233633,48.761442 146.875633,45.522442 C146.841633,45.441442 146.581633,45.360442 146.514633,45.406442 C146.271633,45.573442 145.987633,45.758442 145.868633,46.007442 C145.737633,46.277442 145.671633,46.658442 145.753633,46.939442 C146.969633,51.074442 148.209633,55.203442 149.481633,59.321442 C149.541633,59.515442 150.000633,59.737442 150.218633,59.690442 C150.443633,59.641442 150.686633,59.307442 150.769633,59.050442 C150.913633,58.597442 150.938633,58.108442 151.060633,57.346442 M147.750633,87.479442 C147.750633,86.848442 147.888633,86.327442 147.727633,85.927442 C146.441633,82.718442 145.099633,79.531442 143.764633,76.343442 C143.709633,76.211442 143.550633,76.122442 143.439633,76.013442 C143.170633,75.746442 142.823633,75.727442 142.651633,76.083442 C142.386633,76.630442 141.949633,77.323442 142.093633,77.802442 C143.089633,81.108442 144.215633,84.376442 145.309633,87.653442 C145.354633,87.790442 145.506633,87.891442 145.607633,88.010442 C145.959633,88.420442 146.450633,88.508442 146.873633,88.294442 C147.248633,88.104442 147.516633,87.706442 147.750633,87.479442 M29.1056327,82.534442 C29.0876327,80.967442 28.7006327,79.429442 28.0796327,77.955442 C27.9026327,77.535442 27.5906327,77.097442 27.2196327,76.848442 C26.0376327,76.059442 24.8026327,75.349442 23.5756327,74.629442 C23.4596327,74.560442 23.1806327,74.564442 23.1206327,74.643442 C22.9426327,74.873442 22.6966327,75.178442 22.7296327,75.419442 C22.8586327,76.356442 23.1556327,77.273442 23.2606327,78.213442 C23.4716327,80.114442 24.4136327,81.464442 26.0956327,82.336442 C26.6596327,82.629442 27.1866327,82.996442 27.7616327,83.264442 C28.0296327,83.389442 28.4306327,83.480442 28.6606327,83.365442 C28.8776327,83.257442 28.9466327,82.856442 29.1056327,82.534442 M39.3776327,89.330442 C39.0706327,88.060442 38.7516327,86.681442 38.3966327,85.309442 C38.3206327,85.014442 38.1746327,84.692442 37.9626327,84.483442 C36.5006327,83.041442 34.9186327,81.754442 33.0246327,80.908442 C32.9216327,80.862442 32.7236327,80.915442 32.6296327,80.993442 C32.5166327,81.086442 32.3836327,81.272442 32.4066327,81.390442 C32.6476327,82.627442 32.9556327,83.851442 33.1706327,85.092442 C33.4296327,86.590442 34.1636327,87.726442 35.4846327,88.488442 C36.4406327,89.038442 37.3706327,89.637442 38.3476327,90.143442 C38.5186327,90.232442 38.8866327,90.000442 39.1316327,89.860442 C39.2376327,89.800442 39.2606327,89.595442 39.3776327,89.330442 M143.917633,65.125442 C143.936633,65.235442 143.942633,66.059442 144.228633,66.771442 C145.477633,69.881442 146.800633,72.961442 148.134633,76.035442 C148.213633,76.218442 148.628633,76.256442 148.886633,76.361442 C148.946633,76.213442 149.054633,76.065442 149.057633,75.916442 C149.083633,74.644442 149.362633,73.302442 149.052633,72.115442 C147.964633,67.950442 146.679633,63.837442 145.432633,59.715442 C145.370633,59.505442 144.969633,59.398442 144.725633,59.243442 C144.661633,59.389442 144.555633,59.531442 144.537633,59.682442 C144.348633,61.268442 144.173633,62.855442 143.917633,65.125442 M66.8956327,73.529442 C66.7366327,73.529442 66.5776327,73.522442 66.4186327,73.530442 C65.2666327,73.588442 64.6746327,74.275442 64.9016327,75.414442 C65.2456327,77.132442 65.6206327,78.845442 66.0526327,80.542442 C66.4466327,82.088442 67.0796327,82.562442 68.7676327,82.685442 C69.3986327,82.731442 70.0516327,82.745442 70.6676327,82.633442 C71.1346327,82.548442 71.5366327,82.181442 71.4206327,81.613442 C70.9756327,79.431442 70.5556327,77.242442 70.0156327,75.083442 C69.7596327,74.058442 68.9146327,73.571442 67.8516327,73.530442 C67.5336327,73.517442 67.2156327,73.528442 66.8956327,73.529442 M76.3616327,73.703442 C73.8596327,73.607442 73.1776327,74.359442 73.5946327,76.250442 C73.9716327,77.952442 74.3756327,79.653442 74.8886327,81.317442 C75.0596327,81.868442 75.5166327,82.566442 76.0046327,82.739442 C77.4996327,83.267442 79.0846327,83.521442 80.6756327,83.162442 C80.9056327,83.109442 81.2226327,82.707442 81.2196327,82.470442 C81.1906327,79.903442 80.3506327,77.497442 79.6316327,75.075442 C79.5166327,74.692442 79.0266327,74.275442 78.6246327,74.153442 C77.7226327,73.878442 76.7686327,73.777442 76.3616327,73.703442 M19.4406327,77.271442 C19.4406327,74.998442 18.8446327,73.339442 18.2676327,71.696442 C18.0766327,71.148442 17.5646327,70.625442 17.0656327,70.288442 C14.3016327,68.417442 11.5016327,66.598442 8.69263268,64.796442 C8.49863268,64.671442 8.02363268,64.708442 7.87663268,64.860442 C7.71963268,65.023442 7.70463268,65.442442 7.78663268,65.697442 C8.27663268,67.208442 8.79463268,68.711442 9.34263268,70.202442 C9.73363268,71.264442 10.3786327,72.162442 11.2816327,72.867442 C13.5436327,74.630442 15.8706327,76.287442 18.4816327,77.504442 C18.8576327,77.679442 19.4386327,77.229442 19.4406327,77.271442 M63.5456327,84.270442 C63.5226327,83.986442 63.5296327,83.822442 63.4936327,83.669442 C62.7506327,80.568442 62.0126327,77.466442 61.2366327,74.373442 C61.1696327,74.105442 60.8826327,73.811442 60.6226327,73.687442 C59.5776327,73.192442 58.3986327,73.032442 57.4046327,73.560442 C56.4776327,74.054442 57.1716327,74.997442 57.3336327,75.701442 C58.2306327,79.586442 59.1676327,83.461442 60.1196327,87.331442 C60.4976327,88.871442 60.9446327,90.394442 61.3806327,91.920442 C61.4126327,92.030442 61.6006327,92.128442 61.7356327,92.171442 C62.1136327,92.290442 62.3386327,92.120442 62.4056327,91.707442 C62.7416327,89.662442 63.0836327,87.619442 63.4116327,85.573442 C63.4866327,85.102442 63.5106327,84.623442 63.5456327,84.270442 M122.621633,76.175442 C122.526633,76.175442 122.047633,76.176442 121.568633,76.175442 C119.967633,76.170442 119.438633,76.740442 119.798633,78.138442 C120.116633,79.376442 120.426633,80.619442 120.831633,81.829442 C122.180633,85.853442 121.232633,85.443442 126.006633,86.069442 C128.695633,86.422442 129.243633,85.864442 128.682633,83.306442 C128.306633,81.592442 127.877633,79.887442 127.396633,78.197442 C127.120633,77.225442 126.507633,76.513442 125.394633,76.421442 C124.597633,76.355442 123.802633,76.280442 122.621633,76.175442 M133.595633,77.319442 C132.691633,77.319442 132.377633,77.309442 132.063633,77.321442 C131.459633,77.344442 130.874633,77.989442 131.006633,78.623442 C131.489633,80.932442 131.993633,83.239442 132.571633,85.526442 C132.671633,85.918442 133.114633,86.391442 133.499633,86.515442 C135.607633,87.193442 137.772633,87.608442 140.002633,87.352442 C140.191633,87.331442 140.516633,86.856442 140.471633,86.662442 C140.085633,84.980442 139.702633,83.291442 139.177633,81.649442 C138.014633,78.013442 137.644633,77.746442 133.951633,77.345442 C133.637633,77.310442 133.321633,77.301442 133.595633,77.319442 M60.1256327,103.368442 C60.0806327,103.058442 60.0586327,102.744442 59.9876327,102.440442 C58.6126327,96.590442 57.2316327,90.741442 55.8476327,84.892442 C55.8126327,84.744442 55.7476327,84.591442 55.6556327,84.472442 C55.5846327,84.380442 55.4336327,84.270442 55.3446327,84.290442 C55.2046327,84.320442 55.0676327,84.434442 54.9636327,84.546442 C54.8576327,84.659442 54.7536327,84.801442 54.7166327,84.947442 C54.0656327,87.525442 54.1706327,90.311442 52.5186327,92.622442 C52.2876327,92.945442 52.3596327,93.548442 52.4176327,94.005442 C52.9166327,97.917442 54.0556327,101.434442 58.1486327,103.092442 C58.5836327,103.267442 58.9606327,103.578442 59.3846327,103.787442 C59.5046327,103.847442 59.7186327,103.810442 59.8436327,103.739442 C59.9676327,103.668442 60.0336327,103.496442 60.1256327,103.368442 M87.1326327,74.330442 C87.1286327,74.264442 87.1236327,74.198442 87.1196327,74.133442 C86.0236327,74.250442 84.9236327,74.334442 83.8386327,74.512442 C83.6236327,74.547442 83.2896327,74.963442 83.3136327,75.167442 C83.4436327,76.262442 83.6366327,77.352442 83.8686327,78.432442 C85.1746327,84.513442 84.8326327,83.502442 90.7436327,83.889442 C91.0596327,83.910442 91.3796327,83.889442 91.6976327,83.877442 C92.8376327,83.837442 93.5406327,83.139442 93.3516327,82.076442 C93.0196327,80.199442 92.6356327,78.328442 92.1876327,76.475442 C91.7886327,74.816442 91.2706327,74.437442 89.5186327,74.338442 C88.7256327,74.292442 87.9276327,74.330442 87.1326327,74.330442 M101.925633,84.540442 C105.977633,84.755442 106.005633,84.629442 104.974633,80.744442 C104.772633,79.979442 104.693633,79.180442 104.461633,78.427442 C103.505633,75.339442 104.067633,75.056442 100.011633,74.643442 C99.0686327,74.549442 98.1126327,74.557442 97.1636327,74.567442 C95.9446327,74.579442 95.3386327,75.212442 95.5466327,76.341442 C95.8886327,78.207442 96.2666327,80.069442 96.7196327,81.911442 C97.2376327,84.024442 97.7696327,84.410442 100.025633,84.535442 C100.656633,84.569442 101.292633,84.540442 101.925633,84.540442 M111.284633,75.423442 C110.036633,75.423442 109.246633,75.407442 108.457633,75.428442 C107.780633,75.445442 107.214633,76.043442 107.348633,76.625442 C107.847633,78.779442 108.394633,80.923442 108.879633,83.081442 C109.118633,84.143442 109.739633,84.753442 110.793633,84.867442 C112.677633,85.072442 114.564633,85.272442 116.455633,85.389442 C117.719633,85.469442 118.311633,84.791442 118.013633,83.700442 C117.430633,81.566442 116.823633,79.438442 116.183633,77.321442 C115.886633,76.338442 115.195633,75.713442 114.139633,75.616442 C113.038633,75.515442 111.931633,75.466442 111.284633,75.423442 M141.088633,46.517442 C141.073633,46.516442 141.057633,46.514442 141.043633,46.513442 C141.356633,43.495442 141.665633,40.477442 141.984633,37.461442 C142.185633,35.565442 141.907633,35.172442 140.126633,34.864442 C135.226633,34.020442 130.277633,33.739442 125.322633,33.810442 C118.754633,33.905442 112.238633,33.221442 105.714633,32.682442 C102.677633,32.432442 99.6686327,32.382442 96.6276327,32.541442 C93.1226327,32.723442 89.5946327,32.846442 86.0936327,32.667442 C77.7666327,32.244442 69.4946327,32.559442 61.2576327,33.855442 C60.1546327,34.029442 59.0306327,34.064442 57.9156327,34.158442 C57.5976327,34.185442 57.2776327,34.200442 56.9586327,34.205442 C55.0546327,34.235442 54.1886327,33.537442 54.2116327,31.726442 C54.2386327,29.494442 54.4626327,27.264442 54.5506327,25.031442 C54.6196327,23.284442 54.6266327,21.534442 54.6036327,19.786442 C54.6016327,19.660442 54.0326327,19.367442 53.8956327,19.445442 C52.9336327,19.995442 51.9696327,20.561442 51.0926327,21.234442 C37.5186327,31.630442 23.9576327,42.042442 10.3986327,52.455442 C9.89363268,52.843442 9.39563268,53.253442 8.96963268,53.720442 C8.66363268,54.056442 8.38663268,54.503442 8.87963268,54.941442 C9.23563268,55.259442 9.58363268,55.591442 9.96963268,55.867442 C20.6096327,63.510442 31.2536327,71.146442 41.8996327,78.781442 C43.8466327,80.178442 45.7996327,81.567442 47.7616327,82.942442 C48.3806327,83.376442 48.9666327,84.004442 49.8516327,83.545442 C50.3696327,80.724442 50.8856327,77.904442 51.4066327,75.085442 C51.6376327,73.829442 51.8766327,72.575442 52.1236327,71.322442 C52.2156327,70.853442 52.3116327,70.383442 52.4576327,69.930442 C53.0096327,68.220442 54.1746327,67.248442 55.9586327,67.181442 C57.8736327,67.107442 59.7946327,67.103442 61.7096327,67.170442 C72.8856327,67.558442 84.0626327,67.943442 95.2366327,68.398442 C102.260633,68.683442 109.297633,68.879442 116.293633,69.507442 C122.174633,70.034442 128.117633,69.887442 133.941633,71.072442 C134.871633,71.261442 135.848633,71.245442 136.805633,71.268442 C137.604633,71.289442 138.335633,70.669442 138.491633,69.847442 C138.699633,68.749442 138.904633,67.646442 139.021633,66.536442 C139.724633,59.865442 140.401633,53.190442 141.088633,46.517442 M59.3586327,19.714442 C59.2866327,21.791442 59.1806327,23.867442 59.1546327,25.944442 C59.1346327,27.655442 59.6946327,28.112442 61.5406327,28.024442 C62.1786327,27.994442 62.8196327,27.961442 63.4526327,27.874442 C75.3806327,26.235442 87.3606327,26.361442 99.3506327,26.779442 C101.427633,26.851442 103.507633,26.852442 105.585633,26.889442 C116.458633,27.087442 127.303633,27.758442 138.137633,28.681442 C140.367633,28.870442 142.605633,28.950442 144.840633,29.089442 C146.069633,29.165442 146.927633,29.740442 147.380633,30.927442 C147.949633,32.420442 148.564633,33.895442 149.166633,35.376442 C150.971633,39.815442 152.677633,44.300442 154.622633,48.678442 C155.913633,51.582442 156.201633,54.442442 155.614633,57.548442 C155.023633,60.681442 154.702633,63.867442 154.354633,67.041442 C153.867633,71.488442 153.480633,75.946442 153.022633,80.396442 C152.711633,83.417442 152.379633,86.436442 151.997633,89.448442 C151.878633,90.393442 151.624633,91.333442 151.331633,92.242442 C150.537633,94.700442 149.288633,95.406442 146.572633,94.936442 C136.336633,93.165442 126.011633,92.187442 115.659633,91.430442 C112.471633,91.196442 109.278633,90.973442 106.106633,90.591442 C99.7436327,89.824442 93.3486327,89.870442 86.9616327,89.674442 C82.4896327,89.537442 78.0226327,89.244442 73.5536327,89.024442 C72.2766327,88.962442 70.9986327,88.883442 69.7196327,88.862442 C67.9966327,88.834442 67.3076327,89.319442 67.0836327,90.940442 C66.6006327,94.422442 66.2196327,97.917442 65.7766327,101.404442 C65.4546327,103.940442 65.1096327,106.473442 64.7576327,109.006442 C64.5966327,110.149442 64.0546327,111.111442 63.2796327,111.959442 C62.6216327,112.678442 61.4566327,112.977442 60.6596327,112.517442 C59.8316327,112.040442 59.0506327,111.478442 58.2476327,110.956442 C54.4966327,108.515442 50.7456327,106.074442 46.9936327,103.635442 C39.0866327,98.494442 31.1906327,93.336442 23.2656327,88.222442 C19.9086327,86.057442 16.4866327,83.993442 13.0986327,81.875442 C11.8806327,81.112442 10.6636327,80.345442 9.46463268,79.551442 C6.98663268,77.909442 5.25763268,75.696442 4.21263268,72.894442 C2.53263268,68.389442 1.41063268,63.730442 0.214632684,59.090442 C-0.405367316,56.685442 0.338632684,54.674442 2.17763268,53.056442 C2.89763268,52.425442 3.65363268,51.832442 4.41363268,51.249442 C18.1166327,40.742442 31.8176327,30.235442 45.5306327,19.742442 C48.9586327,17.119442 52.4146327,14.532442 55.8786327,11.956442 C56.6416327,11.388442 57.5226327,10.724442 58.5026327,11.119442 C59.7286327,11.613442 59.8106327,12.813442 59.7586327,13.973442 C59.6706327,15.889442 59.5726327,17.804442 59.4796327,19.720442 C59.4386327,19.718442 59.3986327,19.716442 59.3586327,19.714442" id="Fill-12" transform="translate(77.952658, 61.868539) scale(-1, 1) translate(-77.952658, -61.868539) "></path>
        </g>
    </g>
</svg>