<?xml version="1.0" encoding="UTF-8"?>
<svg width="200px" height="197px" viewBox="0 0 200 197" version="1.1" xmlns="http://www.w3.org/2000/svg" xmlns:xlink="http://www.w3.org/1999/xlink">
    <!-- Generator: Sketch 48.1 (47250) - http://www.bohemiancoding.com/sketch -->
    <title>Group 15</title>
    <desc>Created with Sketch.</desc>
    <defs></defs>
    <g id="Desktop-HD" stroke="none" stroke-width="1" fill="none" fill-rule="evenodd" transform="translate(-619.000000, -1845.000000)">
        <g id="Ciclos" transform="translate(-143.000000, 1507.000000)" fill="#FE5B5B">
            <g id="Group-8" transform="translate(358.000000, 206.000000)">
                <g id="Group-15" transform="translate(505.000000, 228.500000) scale(1, -1) rotate(-195.000000) translate(-505.000000, -228.500000) translate(405.000000, 126.000000)">
                    <path d="M0.0721134547,108.283208 C-0.199157807,103.332983 0.271445376,98.3782315 1.88408559,93.5064617 C2.66342844,91.1512952 2.96017822,88.6120606 3.30039135,86.1301587 C4.29555222,78.9047311 5.5350071,71.812074 9.30732625,65.3515852 C10.9754197,62.4909858 11.8102158,59.1475848 13.1440911,56.0757597 C13.5712309,55.0905427 14.2486597,54.1083432 15.0639722,53.4339297 C15.9257456,52.7187799 17.1037523,52.6780435 18.2023259,53.1834764 C19.3053958,53.6949443 19.8689206,54.6318812 20.0592601,55.7664649 C20.1476856,56.2915116 20.0472703,56.9070837 19.855432,57.4125166 C18.3701844,61.3277357 17.2236512,65.439093 15.2288332,69.0751925 C12.468161,74.1083991 11.1477744,79.4584442 10.4478645,85.0182062 C9.92180812,89.19444 9.37626812,93.3404986 7.92549143,97.3115417 C6.94531792,99.9895818 6.83890764,102.797375 6.80443671,105.591589 C6.68303907,115.962771 7.41741984,126.220796 9.46769103,136.453172 C10.7611004,142.915169 13.1380961,148.535282 16.6556301,154.048272 C21.543009,161.708221 27.0898319,168.518741 34.823311,173.363353 C35.5307145,173.805419 36.2246294,174.282185 36.8735822,174.807232 C50.5540467,185.846792 66.9037605,190.160322 83.6071761,193.517302 C85.7593613,193.948806 88.0374404,193.856772 90.2540714,193.817544 C92.7524647,193.776808 95.250858,193.553512 97.7432564,193.355865 C110.227729,192.364613 112.066679,191.931601 123.49754,187.201654 C125.033745,186.564959 126.56995,185.869423 127.984757,184.998872 C132.244165,182.372129 136.454115,179.662405 140.650577,176.936085 C141.04924,176.675071 141.477879,176.061007 141.461393,175.629503 C141.416431,174.425517 140.367315,174.683514 139.629937,174.678988 C136.849782,174.665409 134.069626,174.749899 131.290969,174.716707 C129.906136,174.701619 128.500322,174.630708 127.148462,174.363658 C126.37961,174.212782 125.651224,173.683209 124.984287,173.20946 C123.933672,172.467153 123.532011,170.775839 123.968143,169.443608 C124.353319,168.271305 125.221087,167.663277 126.337645,167.33286 C126.601423,167.254405 126.875692,167.132195 127.140968,167.144265 C135.22665,167.500332 143.229902,166.457782 151.254136,165.751685 C152.336223,165.655124 153.457278,165.863332 154.54536,166.030804 C155.70838,166.211855 157.232595,167.762855 157.253577,168.918561 C157.282053,170.582718 157.325516,172.293646 156.992797,173.904996 C156.033606,178.559506 154.918546,183.182331 153.806483,187.802138 C152.760366,192.148862 151.655797,196.480497 150.539238,200.809115 C150.332413,201.610264 149.9922,202.384255 149.650488,203.14165 C149.021019,204.528196 146.958758,205.336889 145.362603,204.864648 C144.195088,204.517635 142.730823,202.903267 142.873203,201.804893 C143.270368,198.764752 143.719988,195.724611 144.311989,192.716153 C144.851534,189.988324 145.632376,187.308776 146.206392,184.585473 C146.245359,184.399896 145.320639,183.702851 145.061357,183.805447 C141.687702,185.137677 138.589814,186.985902 135.790175,189.300332 C132.302616,192.185072 128.365436,194.221891 124.098533,195.599384 C119.611317,197.050806 115.419352,199.309413 110.702829,200.161859 C101.310249,201.859208 91.8667116,201.359811 82.4231744,201.169707 C75.1812808,199.233975 67.8914277,197.462697 60.7169773,195.300651 C56.4740549,194.019718 52.3795075,192.203177 48.2879575,190.462073 C46.2526737,189.597557 44.2488633,188.538411 42.4503798,187.25446 C36.5588476,183.043525 30.7572395,178.704346 24.9406441,174.386289 C20.3799897,171.000643 17.1517118,166.411011 14.0688113,161.754993 C5.42260188,148.702753 4.319532,146.343061 2.04894657,130.952251 C0.9503729,123.506545 -0.275593356,116.008033 0.0721134547,108.283208" id="Fill-77"></path>
                    <path d="M199.958695,111.604487 C200.135667,115.542363 199.790721,119.933683 198.004504,124.184902 C197.152638,126.212592 196.746202,128.463237 196.362263,130.655131 C195.62588,134.83404 193.941646,138.660439 192.231916,142.479305 C190.354213,146.674786 187.128223,149.743437 183.60078,152.522848 C182.583941,153.322776 180.637249,153.211299 179.717894,152.378228 C178.758046,151.512016 178.276622,149.558143 178.92002,148.530739 C179.647405,147.364742 180.367291,146.103839 181.384131,145.225575 C185.847425,141.37206 187.660639,136.117541 189.191897,130.718402 C189.952276,128.033897 190.18024,125.15506 191.230074,122.604629 C193.548708,116.959938 193.506715,111.155563 193.052286,105.278877 C192.467379,97.7345452 191.146088,90.3273004 188.804958,83.1143884 C188.205052,81.2614474 187.875105,79.318119 187.255703,77.4742167 C186.549314,75.368191 185.94191,73.1491811 184.790092,71.2932272 C181.553604,66.0823954 178.048658,61.0417932 174.668192,55.9213488 C172.348059,52.4067866 169.61999,49.2582933 166.497483,46.4397139 C164.636278,44.7600153 162.751076,43.0893555 161.030848,41.26805 C150.013589,29.6020537 136.002803,22.8983239 121.423608,17.1873487 C115.935975,15.0376358 110.02241,14.6775928 104.230325,14.1548525 C92.2907123,13.0777364 81.0379908,15.5061437 70.5591471,21.4897874 C67.6691039,23.1378504 64.5585955,24.3957413 61.5875651,25.9097297 C61.1871284,26.1146078 60.9066727,26.7352677 60.7611957,27.2203466 C60.5512289,27.9223551 60.9396675,28.2748659 61.6700521,28.3260854 C62.7768771,28.4044211 63.8837022,28.5128859 64.9830284,28.6590122 C68.8404187,29.1727137 72.7023084,29.662312 76.5477006,30.2648944 C77.6215308,30.432111 78.6713649,30.8795285 79.6732066,31.3314653 C81.1579719,32.0018383 81.9873408,33.9993992 81.5419112,35.5706329 C81.081484,37.199112 79.4467424,38.4298866 77.7685076,38.2521248 C75.2819006,37.988495 72.8147906,37.5395711 70.3251841,37.3060704 C64.239146,36.7366299 58.1441094,36.2485382 52.0550718,35.7182656 C50.6707906,35.5992556 49.276011,35.5299586 47.9127265,35.2904321 C46.0800162,34.9680505 44.4842684,32.8936604 44.5472584,31.0181225 C44.5757539,30.1850522 44.6732385,29.3459562 44.8277141,28.5279505 C46.1894989,21.3978936 47.5092903,14.2603045 48.9835572,7.15284443 C49.3749954,5.2652549 50.1773685,3.44394944 50.9407479,1.65729247 C51.5316545,0.271352824 53.6883136,-0.356839383 55.3050581,0.205068754 C56.5318642,0.63139584 57.7001795,2.1333326 57.5352056,3.41231386 C57.2862449,5.33304543 56.6623436,7.21611559 56.5213658,9.13986007 C56.2649064,12.6694868 53.7663013,15.9324708 55.2915602,19.6594432 C58.8759937,18.9499024 61.8785191,16.8634607 65.1570009,15.4383532 C65.915881,15.1069328 66.6357672,14.654996 67.3196591,14.1774494 C71.2625359,11.4206347 75.7873207,10.1250824 80.2836101,8.60506814 C93.791975,4.04201252 107.207355,6.06217019 120.637732,8.72859755 C122.525933,9.10370512 124.340647,9.92924308 126.135863,10.6749389 C135.674355,14.635412 144.638438,19.6955982 153.313067,25.2709923 C155.403737,26.6147512 157.291938,28.321566 159.108151,30.0359131 C162.752575,33.4841912 166.187033,37.1584377 169.886948,40.544951 C174.87366,45.1095131 178.845032,50.4604453 182.468459,56.1156816 C184.874079,59.8727832 187.327691,63.5997557 189.665822,67.3990381 C190.681161,69.0531269 191.838978,70.7629546 192.279908,72.603844 C194.300089,81.0083627 197.667057,89.0407868 198.802378,97.7059225 C199.384286,102.149968 199.993189,106.554846 199.958695,111.604487" id="Fill-79"></path>
                </g>
            </g>
        </g>
    </g>
</svg>