<?xml version="1.0" encoding="UTF-8"?>
<svg width="130px" height="130px" viewBox="0 0 130 130" version="1.1" xmlns="http://www.w3.org/2000/svg" xmlns:xlink="http://www.w3.org/1999/xlink">
    <!-- Generator: Sketch 48.1 (47250) - http://www.bohemiancoding.com/sketch -->
    <title>noun_750020_cc</title>
    <desc>Created with Sketch.</desc>
    <defs></defs>
    <g id="Desktop-HD" stroke="none" stroke-width="1" fill="none" fill-rule="evenodd" transform="translate(-880.000000, -5093.000000)">
        <g id="Você-terá..." transform="translate(185.000000, 4887.000000)" fill-rule="nonzero">
            <g id="Group-25" transform="translate(110.000000, 206.000000)">
                <g id="Group-24-Copy" transform="translate(450.000000, 0.000000)">
                    <g id="noun_750020_cc" transform="translate(135.000000, 0.000000)">
                        <g id="Group">
                            <path d="M123.09375,28.3359375 C123.09375,27.9296875 122.789063,27.5234375 122.28125,27.5234375 C121.875,27.5234375 121.46875,27.828125 121.46875,28.3359375 L121.46875,39.203125 C121.46875,39.609375 121.773438,40.015625 122.28125,40.015625 C122.6875,40.015625 123.09375,39.7109375 123.09375,39.203125 L123.09375,28.3359375 Z" id="Shape" fill="#DDDDDD"></path>
                            <path d="M122.382812,42.046875 C121.976562,42.046875 121.570312,42.3515625 121.570312,42.859375 L121.570312,46.4140625 C121.570312,46.8203125 121.875,47.2265625 122.382812,47.2265625 C122.789062,47.2265625 123.195312,46.921875 123.195312,46.4140625 L123.195312,42.859375 C123.09375,42.3515625 122.789062,42.046875 122.382812,42.046875 Z" id="Shape" fill="#DDDDDD"></path>
                            <path d="M4.3671875,90.6953125 C3.9609375,90.6953125 3.5546875,91 3.5546875,91.5078125 L3.5546875,102.375 C3.5546875,102.78125 3.859375,103.1875 4.3671875,103.1875 C4.875,103.1875 5.1796875,102.882812 5.1796875,102.375 L5.1796875,91.5078125 C5.078125,91.1015625 4.7734375,90.6953125 4.3671875,90.6953125 Z" id="Shape" fill="#DDDDDD"></path>
                            <path d="M4.3671875,105.21875 C3.9609375,105.21875 3.5546875,105.523438 3.5546875,106.03125 L3.5546875,109.585938 C3.5546875,109.992188 3.859375,110.398438 4.3671875,110.398438 C4.875,110.398438 5.1796875,110.09375 5.1796875,109.585938 L5.1796875,106.03125 C5.078125,105.523438 4.7734375,105.21875 4.3671875,105.21875 Z" id="Shape" fill="#DDDDDD"></path>
                            <path d="M84.296875,6.5 C84.3984375,6.6015625 84.6015625,6.703125 84.8046875,6.703125 C85.0078125,6.703125 85.2109375,6.6015625 85.3125,6.5 C85.6171875,6.1953125 85.6171875,5.6875 85.3125,5.3828125 L83.6875,3.7578125 C83.3828125,3.453125 82.875,3.453125 82.5703125,3.7578125 C82.265625,4.0625 82.265625,4.5703125 82.5703125,4.875 L84.296875,6.5 Z" id="Shape" fill="#DDDDDD"></path>
                            <path d="M89.578125,11.8828125 C89.6796875,11.984375 89.8828125,12.0859375 90.0859375,12.0859375 C90.2890625,12.0859375 90.4921875,11.984375 90.59375,11.8828125 C90.8984375,11.578125 90.8984375,11.0703125 90.59375,10.765625 L89.0703125,9.140625 C88.765625,8.8359375 88.2578125,8.8359375 87.953125,9.140625 C87.6484375,9.4453125 87.6484375,9.953125 87.953125,10.2578125 L89.578125,11.8828125 Z" id="Shape" fill="#DDDDDD"></path>
                            <path d="M83.1796875,12.0859375 C83.3828125,12.0859375 83.5859375,11.984375 83.6875,11.8828125 L85.3125,10.2578125 C85.6171875,9.953125 85.6171875,9.4453125 85.3125,9.140625 C85.0078125,8.8359375 84.5,8.8359375 84.1953125,9.140625 L82.5703125,10.765625 C82.265625,11.0703125 82.265625,11.578125 82.5703125,11.8828125 C82.7734375,11.984375 82.9765625,12.0859375 83.1796875,12.0859375 Z" id="Shape" fill="#DDDDDD"></path>
                            <path d="M88.4609375,6.703125 C88.6640625,6.703125 88.8671875,6.6015625 88.96875,6.5 L90.59375,4.875 C90.8984375,4.5703125 90.8984375,4.0625 90.59375,3.7578125 C90.2890625,3.453125 89.78125,3.453125 89.4765625,3.7578125 L87.8515625,5.3828125 C87.546875,5.6875 87.546875,6.1953125 87.8515625,6.5 C88.15625,6.703125 88.359375,6.703125 88.4609375,6.703125 Z" id="Shape" fill="#DDDDDD"></path>
                            <path d="M118.320312,87.953125 L119.945312,89.578125 C120.046875,89.6796875 120.25,89.78125 120.453125,89.78125 C120.65625,89.78125 120.859375,89.6796875 120.960937,89.578125 C121.265625,89.2734375 121.265625,88.765625 120.960937,88.4609375 L119.335937,86.8359375 C119.03125,86.53125 118.523438,86.53125 118.21875,86.8359375 C118.015625,87.2421875 118.015625,87.6484375 118.320312,87.953125 Z" id="Shape" fill="#DDDDDD"></path>
                            <path d="M124.71875,92.21875 C124.414062,91.9140625 123.90625,91.9140625 123.601563,92.21875 C123.296875,92.5234375 123.296875,93.03125 123.601563,93.3359375 L125.226562,94.9609375 C125.328125,95.0625 125.53125,95.1640625 125.734375,95.1640625 C125.9375,95.1640625 126.140625,95.0625 126.242188,94.9609375 C126.546875,94.65625 126.546875,94.1484375 126.242188,93.84375 L124.71875,92.21875 Z" id="Shape" fill="#DDDDDD"></path>
                            <path d="M119.945312,92.21875 L118.320312,93.84375 C118.015625,94.1484375 118.015625,94.65625 118.320312,94.9609375 C118.421875,95.0625 118.625,95.1640625 118.828125,95.1640625 C119.03125,95.1640625 119.234375,95.0625 119.335938,94.9609375 L120.960937,93.3359375 C121.265625,93.03125 121.265625,92.5234375 120.960937,92.21875 C120.757812,91.9140625 120.25,91.9140625 119.945312,92.21875 Z" id="Shape" fill="#DDDDDD"></path>
                            <path d="M126.34375,86.9375 C126.039063,86.6328125 125.53125,86.6328125 125.226563,86.9375 L123.601563,88.5625 C123.296875,88.8671875 123.296875,89.375 123.601563,89.6796875 C123.703125,89.78125 123.90625,89.8828125 124.109375,89.8828125 C124.3125,89.8828125 124.515625,89.78125 124.617188,89.6796875 L126.242188,88.0546875 C126.648438,87.6484375 126.648438,87.2421875 126.34375,86.9375 Z" id="Shape" fill="#DDDDDD"></path>
                            <path d="M37.171875,119.4375 C36.8671875,119.132812 36.359375,119.132812 36.0546875,119.4375 C35.75,119.742188 35.75,120.25 36.0546875,120.554687 L37.6796875,122.179687 C37.78125,122.28125 37.984375,122.382812 38.1875,122.382812 C38.390625,122.382812 38.59375,122.28125 38.6953125,122.179687 C39,121.875 39,121.367187 38.6953125,121.0625 L37.171875,119.4375 Z" id="Shape" fill="#DDDDDD"></path>
                            <path d="M42.5546875,124.820313 C42.25,124.515625 41.7421875,124.515625 41.4375,124.820313 C41.1328125,125.125 41.1328125,125.632813 41.4375,125.9375 L43.0625,127.5625 C43.1640625,127.664062 43.3671875,127.765625 43.5703125,127.765625 C43.7734375,127.765625 43.9765625,127.664062 44.078125,127.5625 C44.3828125,127.257812 44.3828125,126.75 44.078125,126.445312 L42.5546875,124.820313 Z" id="Shape" fill="#DDDDDD"></path>
                            <path d="M37.78125,124.820313 L36.15625,126.445312 C35.8515625,126.75 35.8515625,127.257812 36.15625,127.5625 C36.2578125,127.664062 36.4609375,127.765625 36.6640625,127.765625 C36.8671875,127.765625 37.0703125,127.664062 37.171875,127.5625 L38.796875,125.9375 C39.1015625,125.632812 39.1015625,125.125 38.796875,124.820313 C38.59375,124.515625 38.0859375,124.515625 37.78125,124.820313 Z" id="Shape" fill="#DDDDDD"></path>
                            <path d="M43.1640625,119.4375 L41.5390625,121.0625 C41.234375,121.367187 41.234375,121.875 41.5390625,122.179687 C41.640625,122.28125 41.84375,122.382812 42.046875,122.382812 C42.25,122.382812 42.453125,122.28125 42.5546875,122.179687 L44.1796875,120.554687 C44.484375,120.25 44.484375,119.742188 44.1796875,119.4375 C43.9765625,119.132812 43.46875,119.132812 43.1640625,119.4375 Z" id="Shape" fill="#DDDDDD"></path>
                            <path d="M8.125,39.203125 C8.125,37.0703125 6.3984375,35.34375 4.265625,35.34375 C2.1328125,35.34375 0.40625,37.0703125 0.40625,39.203125 C0.40625,41.3359375 2.1328125,43.0625 4.265625,43.0625 C6.3984375,43.0625 8.125,41.3359375 8.125,39.203125 Z M2.03125,39.203125 C2.03125,37.984375 3.046875,36.96875 4.3671875,36.96875 C5.5859375,36.96875 6.703125,37.984375 6.703125,39.203125 C6.703125,40.421875 5.6875,41.4375 4.3671875,41.4375 C3.046875,41.5390625 2.03125,40.5234375 2.03125,39.203125 Z" id="Shape" fill="#DDDDDD"></path>
                            <path d="M86.6328125,119.742188 C84.5,119.742188 82.7734375,121.46875 82.7734375,123.601562 C82.7734375,125.734375 84.5,127.460938 86.6328125,127.460938 C88.765625,127.460938 90.4921875,125.734375 90.4921875,123.601562 C90.4921875,121.46875 88.765625,119.742188 86.6328125,119.742188 Z M86.6328125,125.835938 C85.4140625,125.835938 84.296875,124.820312 84.296875,123.601562 C84.296875,122.382812 85.3125,121.367188 86.6328125,121.367188 C87.8515625,121.367188 88.96875,122.382812 88.96875,123.601562 C88.96875,124.820312 87.953125,125.835938 86.6328125,125.835938 Z" id="Shape" fill="#DDDDDD"></path>
                            <path d="M123.804688,8.125 C125.9375,8.125 127.664063,6.3984375 127.664063,4.265625 C127.664063,2.1328125 125.9375,0.40625 123.804688,0.40625 C121.671875,0.40625 119.945313,2.1328125 119.945313,4.265625 C119.945313,6.3984375 121.671875,8.125 123.804688,8.125 Z M123.804688,2.03125 C125.023438,2.03125 126.140625,3.046875 126.140625,4.265625 C126.140625,5.484375 125.125,6.5 123.804688,6.5 C122.585938,6.5 121.46875,5.484375 121.46875,4.265625 C121.46875,3.046875 122.585938,2.03125 123.804688,2.03125 Z" id="Shape" fill="#DDDDDD"></path>
                            <path d="M10.4609375,7.8203125 C10.4609375,8.2265625 10.765625,8.6328125 11.2734375,8.6328125 L26.5078125,8.6328125 C26.9140625,8.6328125 27.3203125,8.328125 27.3203125,7.8203125 C27.3203125,7.3125 26.8125,7.0078125 26.40625,7.0078125 L11.171875,7.0078125 C10.765625,7.0078125 10.4609375,7.4140625 10.4609375,7.8203125 Z" id="Shape" fill="#DDDDDD"></path>
                            <path d="M1.3203125,8.6328125 L6.1953125,8.6328125 C6.6015625,8.6328125 7.0078125,8.328125 7.0078125,7.8203125 C7.0078125,7.3125 6.6015625,7.0078125 6.1953125,7.0078125 L1.3203125,7.0078125 C0.9140625,7.0078125 0.5078125,7.3125 0.5078125,7.8203125 C0.5078125,8.328125 0.8125,8.6328125 1.3203125,8.6328125 Z" id="Shape" fill="#DDDDDD"></path>
                            <path d="M1.3203125,3.3515625 L11.8828125,3.3515625 C12.2890625,3.3515625 12.6953125,3.046875 12.6953125,2.5390625 C12.6953125,2.03125 12.390625,1.7265625 11.8828125,1.7265625 L1.3203125,1.7265625 C0.9140625,1.7265625 0.5078125,2.03125 0.5078125,2.5390625 C0.5078125,3.046875 0.8125,3.3515625 1.3203125,3.3515625 Z" id="Shape" fill="#DDDDDD"></path>
                            <path d="M16.453125,3.3515625 L19.90625,3.3515625 C20.3125,3.3515625 20.71875,3.046875 20.71875,2.5390625 C20.71875,2.03125 20.3125,1.828125 19.8046875,1.828125 L16.3515625,1.828125 C15.9453125,1.828125 15.5390625,2.1328125 15.5390625,2.640625 C15.5390625,3.1484375 16.046875,3.3515625 16.453125,3.3515625 Z" id="Shape" fill="#DDDDDD"></path>
                            <path d="M119.539062,123.5 C119.539062,123.09375 119.234375,122.6875 118.726563,122.6875 L103.492188,122.6875 C103.085938,122.6875 102.679688,122.992188 102.679688,123.5 C102.679688,123.90625 102.984375,124.3125 103.492188,124.3125 L118.726563,124.3125 C119.234375,124.3125 119.539062,123.90625 119.539062,123.5 Z" id="Shape" fill="#DDDDDD"></path>
                            <path d="M128.679688,122.789062 L123.804688,122.789062 C123.398438,122.789062 122.992188,123.09375 122.992188,123.601562 C122.992188,124.007812 123.296875,124.414062 123.804688,124.414062 L128.679688,124.414062 C129.085938,124.414062 129.492188,124.109375 129.492188,123.601562 C129.492188,123.09375 129.1875,122.789062 128.679688,122.789062 Z" id="Shape" fill="#DDDDDD"></path>
                            <path d="M128.679688,127.96875 L118.117188,127.96875 C117.710937,127.96875 117.304688,128.273438 117.304688,128.78125 C117.304688,129.1875 117.609375,129.59375 118.117188,129.59375 L128.679688,129.59375 C129.085938,129.59375 129.492188,129.289062 129.492188,128.78125 C129.492188,128.273438 129.1875,127.96875 128.679688,127.96875 Z" id="Shape" fill="#DDDDDD"></path>
                            <path d="M113.546875,127.96875 L110.09375,127.96875 C109.6875,127.96875 109.28125,128.273438 109.28125,128.78125 C109.28125,129.1875 109.585938,129.59375 110.09375,129.59375 L113.546875,129.59375 C113.953125,129.59375 114.359375,129.289062 114.359375,128.78125 C114.359375,128.273438 113.953125,127.96875 113.546875,127.96875 Z" id="Shape" fill="#DDDDDD"></path>
                            <path d="M58.09375,24.2734375 C58.09375,24.6796875 58.5,24.984375 58.90625,24.984375 L73.0234375,24.984375 C73.4296875,24.984375 73.734375,24.6796875 73.8359375,24.2734375 L74.2421875,18.6875 C74.34375,16.5546875 73.9375,14.828125 73.0234375,13.609375 C72.6171875,13.1015625 71.90625,12.6953125 71.1953125,12.59375 C70.484375,12.4921875 69.7734375,12.6953125 69.265625,13.203125 C68.5546875,13.8125 67.234375,14.21875 65.9140625,14.21875 C64.6953125,14.21875 63.2734375,13.8125 62.5625,13.203125 C62.0546875,12.796875 61.34375,12.59375 60.6328125,12.59375 C59.921875,12.6953125 59.3125,13 58.8046875,13.609375 C57.890625,14.828125 57.484375,16.5546875 57.5859375,18.6875 L58.09375,24.2734375 Z M60.125,14.5234375 C60.328125,14.3203125 60.53125,14.1171875 60.8359375,14.1171875 C61.140625,14.1171875 61.4453125,14.1171875 61.6484375,14.3203125 C62.765625,15.234375 64.59375,15.640625 65.9140625,15.640625 C67.234375,15.640625 69.0625,15.234375 70.1796875,14.3203125 C70.3828125,14.1171875 70.6875,14.1171875 70.9921875,14.1171875 C71.296875,14.1171875 71.6015625,14.3203125 71.703125,14.5234375 C72.4140625,15.4375 72.71875,16.7578125 72.6171875,18.5859375 L72.3125,23.4609375 L59.515625,23.4609375 L59.2109375,18.5859375 C59.109375,16.7578125 59.4140625,15.4375 60.125,14.5234375 Z" id="Shape" fill="#FE5B5B"></path>
                            <path d="M65.9140625,12.1875 C68.65625,12.1875 70.7890625,9.8515625 70.7890625,7.0078125 C70.7890625,4.1640625 68.5546875,1.828125 65.9140625,1.828125 C63.171875,1.828125 61.0390625,4.1640625 61.0390625,7.0078125 C61.0390625,9.8515625 63.171875,12.1875 65.9140625,12.1875 Z M65.9140625,3.3515625 C67.7421875,3.3515625 69.265625,4.9765625 69.265625,7.0078125 C69.265625,9.0390625 67.7421875,10.6640625 65.9140625,10.6640625 C64.0859375,10.6640625 62.5625,9.0390625 62.5625,7.0078125 C62.5625,4.9765625 64.0859375,3.3515625 65.9140625,3.3515625 Z" id="Shape" fill="#FE5B5B"></path>
                            <path d="M26.609375,30.7734375 C25.8984375,30.875 25.2890625,31.1796875 24.8828125,31.6875 C24.4765625,32.1953125 24.2734375,33.0078125 24.2734375,33.6171875 C24.4765625,35.140625 25.390625,36.6640625 27.015625,38.0859375 L31.28125,41.84375 C31.3828125,41.9453125 31.5859375,42.046875 31.7890625,42.046875 C31.9921875,42.046875 32.1953125,41.9453125 32.296875,41.84375 L42.3515625,31.890625 C42.65625,31.5859375 42.65625,31.1796875 42.3515625,30.875 L38.59375,26.609375 C37.171875,24.984375 35.6484375,24.0703125 34.125,23.8671875 C33.4140625,23.765625 32.703125,23.96875 32.1953125,24.375 C31.6875,24.78125 31.28125,25.4921875 31.28125,26.1015625 C31.1796875,27.015625 30.46875,28.234375 29.65625,29.1484375 C28.7421875,29.9609375 27.5234375,30.671875 26.609375,30.7734375 Z M32.8046875,26.203125 C32.8046875,25.8984375 33.0078125,25.6953125 33.2109375,25.4921875 C33.4140625,25.2890625 33.6171875,25.2890625 33.921875,25.2890625 C33.921875,25.2890625 34.0234375,25.2890625 34.0234375,25.2890625 C35.140625,25.390625 36.359375,26.203125 37.4765625,27.5234375 L40.7265625,31.1796875 L31.6875,40.1171875 L27.9296875,36.8671875 C26.609375,35.6484375 25.796875,34.53125 25.6953125,33.4140625 C25.6953125,33.109375 25.6953125,32.8046875 25.8984375,32.6015625 C26.1015625,32.3984375 26.3046875,32.1953125 26.609375,32.1953125 C28.03125,32.09375 29.65625,31.078125 30.5703125,30.0625 C31.6875,29.25 32.703125,27.625 32.8046875,26.203125 Z" id="Shape" fill="#FE5B5B"></path>
                            <path d="M20.921875,20.4140625 C18.9921875,22.34375 19.09375,25.4921875 21.125,27.5234375 C22.140625,28.5390625 23.5625,29.046875 24.8828125,29.046875 C26.1015625,29.046875 27.3203125,28.640625 28.234375,27.7265625 C29.1484375,26.8125 29.65625,25.59375 29.65625,24.171875 C29.65625,22.8515625 29.046875,21.53125 28.03125,20.6171875 C26.1015625,18.5859375 22.8515625,18.484375 20.921875,20.4140625 Z M28.1328125,24.2734375 C28.1328125,25.1875 27.828125,26 27.21875,26.7109375 C25.8984375,28.03125 23.6640625,27.9296875 22.2421875,26.5078125 C20.8203125,25.0859375 20.71875,22.8515625 22.0390625,21.53125 C22.6484375,20.921875 23.4609375,20.6171875 24.375,20.6171875 C25.2890625,20.6171875 26.3046875,21.0234375 27.015625,21.734375 C27.7265625,22.4453125 28.1328125,23.2578125 28.1328125,24.2734375 Z" id="Shape" fill="#FE5B5B"></path>
                            <path d="M25.59375,72.3125 L25.59375,58.1953125 C25.59375,57.7890625 25.2890625,57.484375 24.8828125,57.3828125 L19.1953125,56.9765625 C17.0625,56.875 15.3359375,57.28125 14.1171875,58.1953125 C13.609375,58.6015625 13.203125,59.3125 13.1015625,60.0234375 C13,60.734375 13.203125,61.4453125 13.7109375,61.953125 C14.3203125,62.6640625 14.7265625,63.984375 14.7265625,65.3046875 C14.7265625,66.5234375 14.3203125,67.9453125 13.7109375,68.5546875 C13.3046875,69.0625 13.1015625,69.7734375 13.1015625,70.484375 C13.203125,71.1953125 13.5078125,71.8046875 14.1171875,72.3125 C15.1328125,73.125 16.5546875,73.53125 18.3828125,73.53125 C18.6875,73.53125 18.890625,73.53125 19.1953125,73.53125 L24.8828125,73.125 C25.1875,73.0234375 25.59375,72.71875 25.59375,72.3125 Z M23.96875,71.6015625 L18.9921875,71.90625 C17.1640625,72.0078125 15.84375,71.703125 14.9296875,70.9921875 C14.7265625,70.7890625 14.5234375,70.5859375 14.5234375,70.28125 C14.5234375,69.9765625 14.5234375,69.671875 14.7265625,69.46875 C15.640625,68.3515625 16.046875,66.5234375 16.046875,65.203125 C16.046875,63.8828125 15.640625,62.0546875 14.7265625,60.9375 C14.5234375,60.734375 14.5234375,60.4296875 14.5234375,60.125 C14.5234375,59.8203125 14.7265625,59.515625 14.9296875,59.4140625 C15.7421875,58.8046875 16.859375,58.5 18.28125,58.5 C18.484375,58.5 18.7890625,58.5 18.9921875,58.5 L23.96875,58.8046875 L23.96875,71.6015625 Z" id="Shape" fill="#FE5B5B"></path>
                            <path d="M7.515625,60.4296875 C4.671875,60.4296875 2.3359375,62.6640625 2.3359375,65.3046875 C2.3359375,67.9453125 4.671875,70.1796875 7.515625,70.1796875 C10.359375,70.1796875 12.6953125,67.9453125 12.6953125,65.3046875 C12.6953125,62.5625 10.359375,60.4296875 7.515625,60.4296875 Z M7.515625,68.65625 C5.484375,68.65625 3.859375,67.1328125 3.859375,65.3046875 C3.859375,63.4765625 5.484375,61.953125 7.515625,61.953125 C9.546875,61.953125 11.171875,63.4765625 11.171875,65.3046875 C11.171875,67.1328125 9.546875,68.65625 7.515625,68.65625 Z" id="Shape" fill="#FE5B5B"></path>
                            <path d="M38.6953125,104 L42.453125,99.734375 C42.7578125,99.4296875 42.65625,99.0234375 42.453125,98.71875 L32.3984375,88.765625 C32.09375,88.4609375 31.6875,88.4609375 31.3828125,88.765625 L27.015625,92.421875 C25.390625,93.84375 24.4765625,95.3671875 24.2734375,96.890625 C24.171875,97.6015625 24.375,98.3125 24.8828125,98.8203125 C25.2890625,99.328125 26,99.734375 26.609375,99.734375 C27.5234375,99.8359375 28.7421875,100.546875 29.65625,101.359375 C30.5703125,102.273438 31.1796875,103.492188 31.28125,104.40625 C31.3828125,105.117188 31.6875,105.726563 32.1953125,106.132813 C32.703125,106.539063 33.2109375,106.742188 33.8203125,106.742188 C33.921875,106.742188 34.0234375,106.742188 34.125,106.742188 C35.75,106.539062 37.2734375,105.625 38.6953125,104 Z M34.0234375,105.320312 C33.71875,105.320312 33.4140625,105.320312 33.2109375,105.117188 C33.0078125,104.914062 32.8046875,104.710938 32.8046875,104.40625 C32.703125,102.984375 31.6875,101.359375 30.671875,100.445312 C29.7578125,99.53125 28.1328125,98.515625 26.7109375,98.3125 C26.40625,98.3125 26.203125,98.109375 26,97.90625 C25.796875,97.703125 25.6953125,97.3984375 25.796875,97.09375 C25.8984375,95.9765625 26.7109375,94.7578125 28.03125,93.640625 C28.03125,93.640625 28.03125,93.640625 28.03125,93.640625 L31.7890625,90.390625 L40.828125,99.328125 L37.578125,102.984375 C36.359375,104.40625 35.140625,105.117188 34.0234375,105.320312 Z" id="Shape" fill="#FE5B5B"></path>
                            <path d="M24.78125,101.460937 C23.4609375,101.460937 22.140625,102.070312 21.2265625,102.984375 C19.1953125,105.015625 19.09375,108.164062 21.0234375,110.09375 C21.9375,111.007812 23.15625,111.414062 24.375,111.414062 C25.6953125,111.414062 27.1171875,110.90625 28.1328125,109.890625 C29.1484375,108.875 29.65625,107.65625 29.65625,106.335938 C29.65625,105.015625 29.25,103.695312 28.234375,102.78125 C27.3203125,101.867187 26.1015625,101.359375 24.78125,101.460937 Z M27.015625,108.875 C25.59375,110.296875 23.359375,110.398438 22.0390625,109.078125 C20.71875,107.757812 20.8203125,105.523438 22.2421875,104.101562 C22.953125,103.390625 23.8671875,102.984375 24.78125,102.984375 C24.78125,102.984375 24.8828125,102.984375 24.8828125,102.984375 C25.796875,102.984375 26.609375,103.289062 27.21875,103.898438 C27.828125,104.507812 28.1328125,105.421875 28.1328125,106.335938 C28.1328125,107.25 27.7265625,108.164062 27.015625,108.875 Z" id="Shape" fill="#FE5B5B"></path>
                            <path d="M73.734375,106.234375 C73.734375,105.828125 73.328125,105.523437 72.921875,105.523437 L58.8046875,105.523437 C58.3984375,105.523437 58.09375,105.828125 57.9921875,106.234375 L57.5859375,111.820312 C57.484375,113.953125 57.890625,115.679687 58.8046875,116.898437 C59.2109375,117.40625 59.921875,117.8125 60.6328125,117.914062 C60.734375,117.914062 60.8359375,117.914062 60.9375,117.914062 C61.546875,117.914062 62.15625,117.710937 62.5625,117.304688 C63.2734375,116.695312 64.59375,116.289062 65.9140625,116.289062 C67.1328125,116.289062 68.5546875,116.695312 69.265625,117.304688 C69.7734375,117.710938 70.484375,117.914062 71.1953125,117.914062 C71.90625,117.8125 72.515625,117.507812 73.0234375,116.898437 C73.9375,115.679687 74.34375,113.953125 74.2421875,111.820312 L73.734375,106.234375 Z M71.703125,116.085937 C71.5,116.289062 71.296875,116.492188 70.9921875,116.492188 C70.6875,116.492188 70.3828125,116.492188 70.1796875,116.289062 C69.0625,115.375 67.234375,114.96875 65.9140625,114.96875 C64.59375,114.96875 62.765625,115.375 61.6484375,116.289062 C61.4453125,116.492188 61.140625,116.59375 60.8359375,116.492188 C60.53125,116.492188 60.2265625,116.289062 60.125,116.085937 C59.4140625,115.171875 59.109375,113.851562 59.2109375,112.023437 L59.515625,107.148438 L72.2109375,107.148438 L72.515625,112.023437 C72.71875,113.75 72.4140625,115.171875 71.703125,116.085937 Z" id="Shape" fill="#FE5B5B"></path>
                            <path d="M65.9140625,118.320312 C63.171875,118.320312 61.0390625,120.65625 61.0390625,123.5 C61.0390625,126.34375 63.2734375,128.679688 65.9140625,128.679688 C68.5546875,128.679688 70.7890625,126.34375 70.7890625,123.5 C70.7890625,120.65625 68.65625,118.320312 65.9140625,118.320312 Z M65.9140625,127.15625 C64.0859375,127.15625 62.5625,125.53125 62.5625,123.5 C62.5625,121.46875 64.0859375,119.84375 65.9140625,119.84375 C67.7421875,119.84375 69.265625,121.46875 69.265625,123.5 C69.265625,125.53125 67.7421875,127.15625 65.9140625,127.15625 Z" id="Shape" fill="#FE5B5B"></path>
                            <path d="M105.21875,99.8359375 C105.929688,99.734375 106.539062,99.4296875 106.945312,98.921875 C107.351562,98.4140625 107.554688,97.6015625 107.554688,96.9921875 C107.351562,95.46875 106.4375,93.9453125 104.8125,92.5234375 L100.546875,88.765625 C100.242188,88.4609375 99.734375,88.4609375 99.53125,88.765625 L89.4765625,98.71875 C89.171875,99.0234375 89.171875,99.4296875 89.4765625,99.734375 L93.234375,104 C94.65625,105.625 96.1796875,106.539062 97.703125,106.742188 C97.8046875,106.742188 97.90625,106.742188 98.0078125,106.742188 C98.6171875,106.742188 99.2265625,106.539062 99.6328125,106.132813 C100.140625,105.726563 100.546875,105.015625 100.546875,104.40625 C100.648438,103.492188 101.359375,102.273438 102.171875,101.359375 C103.085938,100.546875 104.304688,99.8359375 105.21875,99.8359375 Z M99.0234375,104.304688 C99.0234375,104.609375 98.8203125,104.8125 98.6171875,105.015625 C98.4140625,105.21875 98.109375,105.320312 97.8046875,105.21875 C96.6875,105.117188 95.46875,104.304688 94.3515625,102.984375 L91.1015625,99.328125 L100.140625,90.390625 L103.898438,93.640625 C105.21875,94.859375 106.03125,95.9765625 106.132812,97.09375 C106.132812,97.3984375 106.132812,97.703125 105.929688,97.90625 C105.726562,98.109375 105.523437,98.3125 105.21875,98.3125 C103.796875,98.4140625 102.171875,99.4296875 101.257812,100.445313 C100.140625,101.359375 99.125,102.882812 99.0234375,104.304688 Z" id="Shape" fill="#FE5B5B"></path>
                            <path d="M107.351563,111.515625 C107.453125,111.515625 107.453125,111.515625 107.554688,111.515625 C108.875,111.515625 109.992188,111.007812 110.90625,110.09375 C111.820313,109.179687 112.328125,107.960937 112.328125,106.539062 C112.328125,105.21875 111.71875,103.898437 110.703125,102.984375 C109.6875,101.96875 108.46875,101.460937 107.148438,101.460937 C105.828125,101.460937 104.507813,101.867187 103.59375,102.78125 C102.679688,103.695312 102.171875,104.914062 102.171875,106.335937 C102.171875,107.65625 102.78125,108.976562 103.695313,109.890625 C104.710938,110.90625 106.03125,111.414062 107.351563,111.515625 Z M104.609375,103.898437 C105.21875,103.289062 106.03125,102.984375 106.945312,102.984375 C106.945312,102.984375 107.046875,102.984375 107.046875,102.984375 C107.960938,102.984375 108.875,103.390625 109.585938,104.101562 C110.296875,104.8125 110.703125,105.726562 110.703125,106.640625 C110.703125,107.554687 110.398438,108.367187 109.789062,109.078125 C109.179687,109.6875 108.265625,109.992187 107.351562,109.992187 C106.4375,109.992187 105.523437,109.585937 104.8125,108.875 C104.101562,108.164062 103.695312,107.25 103.695312,106.335938 C103.695312,105.421875 104,104.507812 104.609375,103.898437 Z" id="Shape" fill="#FE5B5B"></path>
                            <path d="M82.671875,89.171875 C82.671875,89.578125 82.9765625,89.984375 83.484375,89.984375 L89.8828125,89.984375 C90.2890625,89.984375 90.6953125,89.6796875 90.6953125,89.171875 L90.6953125,82.875 C90.6953125,82.46875 90.390625,82.0625 89.8828125,82.0625 C89.4765625,82.0625 89.0703125,82.3671875 89.0703125,82.875 L89.0703125,87.34375 L79.5234375,77.796875 C82.3671875,74.6484375 84.1953125,70.5859375 84.3984375,66.1171875 L97.90625,66.1171875 L94.7578125,69.265625 C94.453125,69.5703125 94.453125,70.078125 94.7578125,70.3828125 C94.859375,70.484375 95.0625,70.5859375 95.265625,70.5859375 C95.46875,70.5859375 95.671875,70.484375 95.7734375,70.3828125 L100.242188,65.9140625 C100.34375,65.8125 100.445312,65.609375 100.445312,65.40625 C100.445312,65.203125 100.34375,65 100.242188,64.8984375 L95.7734375,60.4296875 C95.46875,60.125 94.9609375,60.125 94.65625,60.4296875 C94.3515625,60.734375 94.3515625,61.2421875 94.65625,61.546875 L97.8046875,64.6953125 L84.3984375,64.6953125 C84.1953125,60.2265625 82.3671875,56.0625 79.5234375,53.015625 L89.0703125,43.46875 L89.0703125,47.734375 C89.0703125,48.140625 89.375,48.546875 89.8828125,48.546875 C90.2890625,48.546875 90.6953125,48.2421875 90.6953125,47.734375 L90.6953125,41.4375 C90.6953125,41.03125 90.390625,40.625 89.8828125,40.625 L83.484375,40.625 C83.078125,40.625 82.671875,40.9296875 82.671875,41.4375 C82.671875,41.84375 82.9765625,42.25 83.484375,42.25 L87.953125,42.25 L78.40625,51.796875 C75.2578125,48.953125 71.1953125,47.125 66.625,46.921875 L66.625,33.4140625 L69.7734375,36.5625 C69.875,36.6640625 70.078125,36.765625 70.28125,36.765625 C70.484375,36.765625 70.6875,36.6640625 70.7890625,36.5625 C71.09375,36.2578125 71.09375,35.75 70.7890625,35.4453125 L66.3203125,30.9765625 C66.015625,30.671875 65.5078125,30.671875 65.203125,30.9765625 L60.734375,35.4453125 C60.4296875,35.75 60.4296875,36.2578125 60.734375,36.5625 C61.0390625,36.8671875 61.546875,36.8671875 61.8515625,36.5625 L65,33.4140625 L65,46.921875 C60.53125,47.125 56.3671875,48.953125 53.21875,51.796875 L43.671875,42.25 L48.140625,42.25 C48.546875,42.25 48.953125,41.9453125 48.953125,41.4375 C48.953125,41.03125 48.6484375,40.625 48.140625,40.625 L41.7421875,40.625 C41.3359375,40.625 40.9296875,40.9296875 40.9296875,41.4375 L40.9296875,47.734375 C40.9296875,48.140625 41.234375,48.546875 41.7421875,48.546875 C42.1484375,48.546875 42.5546875,48.2421875 42.5546875,47.734375 L42.5546875,43.265625 L52.1015625,52.8125 C49.2578125,55.9609375 47.4296875,60.0234375 47.2265625,64.4921875 L33.921875,64.4921875 L37.0703125,61.34375 C37.375,61.0390625 37.375,60.53125 37.0703125,60.2265625 C36.765625,59.921875 36.2578125,59.921875 35.953125,60.2265625 L31.484375,64.6953125 C31.1796875,65 31.1796875,65.5078125 31.484375,65.8125 L35.953125,70.28125 C36.0546875,70.3828125 36.2578125,70.484375 36.4609375,70.484375 C36.6640625,70.484375 36.8671875,70.3828125 36.96875,70.28125 C37.2734375,69.9765625 37.2734375,69.46875 36.96875,69.1640625 L33.921875,66.015625 L47.4296875,66.015625 C47.6328125,70.484375 49.4609375,74.6484375 52.3046875,77.6953125 L42.7578125,87.2421875 L42.7578125,82.7734375 C42.7578125,82.3671875 42.453125,81.9609375 41.9453125,81.9609375 C41.5390625,81.9609375 41.1328125,82.265625 41.1328125,82.7734375 L41.1328125,89.0703125 C41.1328125,89.4765625 41.4375,89.8828125 41.9453125,89.8828125 L48.34375,89.8828125 C48.75,89.8828125 49.15625,89.578125 49.15625,89.0703125 C49.15625,88.5625 48.75,88.359375 48.34375,88.359375 L43.875,88.359375 L53.421875,78.8125 C56.5703125,81.65625 60.6328125,83.484375 65.203125,83.6875 L65.203125,97.1953125 L61.953125,93.9453125 C61.6484375,93.640625 61.140625,93.640625 60.8359375,93.9453125 C60.53125,94.25 60.53125,94.7578125 60.8359375,95.0625 L65.3046875,99.53125 C65.40625,99.6328125 65.609375,99.734375 65.8125,99.734375 C66.015625,99.734375 66.21875,99.6328125 66.3203125,99.53125 L70.7890625,95.0625 C71.09375,94.7578125 71.09375,94.25 70.7890625,93.9453125 C70.484375,93.640625 69.9765625,93.640625 69.671875,93.9453125 L66.5234375,97.09375 L66.5234375,83.6875 C70.9921875,83.484375 75.15625,81.65625 78.3046875,78.8125 L87.8515625,88.359375 L83.3828125,88.359375 C83.078125,88.359375 82.671875,88.6640625 82.671875,89.171875 Z M65.9140625,48.34375 C75.2578125,48.34375 82.875,55.9609375 82.875,65.3046875 C82.875,74.6484375 75.2578125,82.265625 65.9140625,82.265625 C56.5703125,82.265625 48.953125,74.6484375 48.953125,65.3046875 C48.953125,55.9609375 56.5703125,48.34375 65.9140625,48.34375 Z" id="Shape" fill="#FE5B5B"></path>
                            <path d="M106.335938,58.1953125 L106.335938,72.3125 C106.335938,72.71875 106.640625,73.0234375 107.046875,73.125 L112.734375,73.53125 C113.039062,73.53125 113.34375,73.53125 113.546875,73.53125 C115.375,73.53125 116.796875,73.125 117.8125,72.3125 C118.320312,71.90625 118.726562,71.1953125 118.828125,70.484375 C118.929687,69.7734375 118.726562,69.0625 118.21875,68.5546875 C117.609375,67.84375 117.203125,66.5234375 117.203125,65.203125 C117.203125,63.984375 117.609375,62.5625 118.21875,61.953125 C118.625,61.4453125 118.828125,60.734375 118.828125,60.0234375 C118.726562,59.3125 118.421875,58.703125 117.8125,58.1953125 C116.59375,57.28125 114.867187,56.875 112.734375,56.9765625 L107.046875,57.3828125 C106.640625,57.484375 106.335938,57.7890625 106.335938,58.1953125 Z M107.859375,58.90625 L112.835938,58.6015625 C114.664062,58.5 115.984375,58.8046875 116.898438,59.515625 C117.101562,59.71875 117.304688,59.921875 117.304688,60.2265625 C117.304688,60.53125 117.304688,60.8359375 117.101562,61.0390625 C116.1875,62.15625 115.78125,63.984375 115.78125,65.3046875 C115.78125,66.625 116.1875,68.453125 117.101562,69.5703125 C117.304688,69.7734375 117.304688,70.078125 117.304688,70.3828125 C117.304688,70.6875 117.101562,70.9921875 116.898438,71.09375 C115.984375,71.8046875 114.664062,72.109375 112.835938,72.0078125 L107.859375,71.703125 L107.859375,58.90625 Z" id="Shape" fill="#FE5B5B"></path>
                            <path d="M124.3125,70.1796875 C127.15625,70.1796875 129.492188,67.9453125 129.492188,65.3046875 C129.492188,62.6640625 127.15625,60.4296875 124.3125,60.4296875 C121.46875,60.4296875 119.132813,62.6640625 119.132813,65.3046875 C119.132812,67.9453125 121.46875,70.1796875 124.3125,70.1796875 Z M124.3125,61.953125 C126.34375,61.953125 127.96875,63.4765625 127.96875,65.3046875 C127.96875,67.1328125 126.34375,68.65625 124.3125,68.65625 C122.28125,68.65625 120.65625,67.1328125 120.65625,65.3046875 C120.65625,63.375 122.28125,61.953125 124.3125,61.953125 Z" id="Shape" fill="#FE5B5B"></path>
                            <path d="M89.4765625,31.7890625 L99.53125,41.7421875 C99.6328125,41.84375 99.8359375,41.9453125 100.039062,41.9453125 C100.242188,41.9453125 100.445312,41.84375 100.546875,41.7421875 L104.8125,37.984375 C106.4375,36.5625 107.351562,35.0390625 107.554688,33.515625 C107.65625,32.8046875 107.453125,32.09375 106.945312,31.5859375 C106.539062,31.078125 105.828125,30.671875 105.21875,30.671875 C104.304688,30.5703125 103.085938,29.859375 102.171875,29.046875 C101.257812,28.1328125 100.648438,26.9140625 100.546875,26 C100.445313,25.2890625 100.140625,24.6796875 99.6328125,24.2734375 C99.0234375,23.8671875 98.3125,23.6640625 97.703125,23.765625 C96.1796875,23.96875 94.65625,24.8828125 93.234375,26.5078125 L89.375,30.7734375 C89.171875,31.078125 89.171875,31.484375 89.4765625,31.7890625 Z M94.3515625,27.5234375 C95.5703125,26.203125 96.6875,25.390625 97.8046875,25.2890625 C98.109375,25.2890625 98.4140625,25.2890625 98.6171875,25.4921875 C98.8203125,25.6953125 99.0234375,25.8984375 99.0234375,26.203125 C99.125,27.625 100.140625,29.25 101.15625,30.1640625 C102.070313,31.078125 103.695313,32.09375 105.117188,32.296875 C105.421875,32.296875 105.625,32.5 105.828125,32.703125 C106.03125,32.90625 106.132813,33.2109375 106.03125,33.515625 C105.929688,34.6328125 105.117188,35.8515625 103.796875,36.96875 L100.039063,40.21875 L91,31.28125 L94.3515625,27.5234375 Z" id="Shape" fill="#FE5B5B"></path>
                            <path d="M106.945312,29.046875 C108.265625,29.046875 109.6875,28.5390625 110.703125,27.5234375 C111.71875,26.5078125 112.226562,25.2890625 112.328125,23.96875 C112.328125,22.6484375 111.921875,21.328125 110.90625,20.4140625 C108.976562,18.484375 105.828125,18.5859375 103.796875,20.6171875 C101.765625,22.6484375 101.664062,25.796875 103.59375,27.7265625 C104.507812,28.640625 105.726562,29.046875 106.945312,29.046875 Z M104.8125,21.734375 C105.523438,21.0234375 106.539062,20.6171875 107.453125,20.6171875 C108.265625,20.6171875 109.078125,20.921875 109.789062,21.53125 C110.398437,22.140625 110.703125,23.0546875 110.703125,23.96875 C110.703125,24.8828125 110.296875,25.796875 109.585938,26.5078125 C108.164062,27.9296875 105.929688,28.03125 104.609375,26.7109375 C103.289062,25.2890625 103.390625,23.15625 104.8125,21.734375 Z" id="Shape" fill="#FE5B5B"></path>
                        </g>
                    </g>
                </g>
            </g>
        </g>
    </g>
</svg>