<?xml version="1.0" encoding="UTF-8"?>
<svg width="280px" height="292px" viewBox="0 0 280 292" version="1.1" xmlns="http://www.w3.org/2000/svg" xmlns:xlink="http://www.w3.org/1999/xlink">
    <!-- Generator: Sketch 48.1 (47250) - http://www.bohemiancoding.com/sketch -->
    <title>noun_749601_cc</title>
    <desc>Created with Sketch.</desc>
    <defs></defs>
    <g id="Desktop-HD" stroke="none" stroke-width="1" fill="none" fill-rule="evenodd" transform="translate(-935.000000, -645.000000)" opacity="0.5">
        <g id="Conteúdo" transform="translate(-17.000000, 611.000000)" fill-rule="nonzero">
            <g id="noun_749601_cc" transform="translate(952.000000, 34.000000)">
                <g id="Group">
                    <path d="M67.4754098,86.740625 C68.3934426,86.740625 69.3114754,86.0515625 69.3114754,84.903125 L69.3114754,59.178125 C69.3114754,58.259375 68.6229508,57.340625 67.4754098,57.340625 C66.3278689,57.340625 65.6393443,58.0296875 65.6393443,59.178125 L65.6393443,84.903125 C65.8688525,85.821875 66.557377,86.740625 67.4754098,86.740625 Z" id="Shape" fill="#EEEEEE"></path>
                    <path d="M67.4754098,103.507812 C68.3934426,103.507812 69.3114754,102.81875 69.3114754,101.670312 L69.3114754,93.4015625 C69.3114754,92.4828125 68.6229508,91.5640625 67.4754098,91.5640625 C66.3278689,91.5640625 65.6393443,92.253125 65.6393443,93.4015625 L65.6393443,101.670312 C65.8688525,102.81875 66.557377,103.507812 67.4754098,103.507812 Z" id="Shape" fill="#EEEEEE"></path>
                    <path d="M269.672131,154.039063 C270.590164,154.039063 271.508197,153.35 271.508197,152.201563 L271.508197,126.476563 C271.508197,125.557813 270.819672,124.639063 269.672131,124.639063 C268.754098,124.639063 267.836066,125.328125 267.836066,126.476563 L267.836066,152.201563 C268.065574,153.120313 268.754098,154.039063 269.672131,154.039063 Z" id="Shape" fill="#EEEEEE"></path>
                    <path d="M269.672131,170.80625 C270.590164,170.80625 271.508197,170.117187 271.508197,168.96875 L271.508197,160.7 C271.508197,159.78125 270.819672,158.8625 269.672131,158.8625 C268.754098,158.8625 267.836066,159.551562 267.836066,160.7 L267.836066,168.96875 C268.065574,170.117187 268.754098,170.80625 269.672131,170.80625 Z" id="Shape" fill="#EEEEEE"></path>
                    <path d="M22.4918033,29.778125 C22.7213115,30.0078125 23.1803279,30.2375 23.6393443,30.2375 C24.0983607,30.2375 24.557377,30.0078125 24.7868852,29.778125 C25.4754098,29.0890625 25.4754098,27.940625 24.7868852,27.2515625 L20.6557377,23.346875 C19.9672131,22.6578125 18.8196721,22.6578125 18.1311475,23.346875 C17.442623,24.0359375 17.442623,25.184375 18.1311475,25.8734375 L22.4918033,29.778125 Z" id="Shape" fill="#EEEEEE"></path>
                    <path d="M35.5737705,43.1 C35.8032787,43.3296875 36.2622951,43.559375 36.7213115,43.559375 C37.1803279,43.559375 37.6393443,43.3296875 37.8688525,43.1 C38.557377,42.4109375 38.557377,41.2625 37.8688525,40.5734375 L33.7377049,36.4390625 C33.0491803,35.75 31.9016393,35.75 31.2131148,36.4390625 C30.5245902,37.128125 30.5245902,38.2765625 31.2131148,38.965625 L35.5737705,43.1 Z" id="Shape" fill="#EEEEEE"></path>
                    <path d="M19.5081967,43.559375 C19.9672131,43.559375 20.4262295,43.3296875 20.6557377,43.1 L24.7868852,38.965625 C25.4754098,38.2765625 25.4754098,37.128125 24.7868852,36.4390625 C24.0983607,35.75 22.9508197,35.75 22.2622951,36.4390625 L18.3606557,40.5734375 C17.6721311,41.2625 17.6721311,42.4109375 18.3606557,43.1 C18.5901639,43.3296875 19.0491803,43.559375 19.5081967,43.559375 Z" id="Shape" fill="#EEEEEE"></path>
                    <path d="M32.5901639,30.2375 C33.0491803,30.2375 33.5081967,30.0078125 33.7377049,29.778125 L37.8688525,25.64375 C38.557377,24.9546875 38.557377,23.80625 37.8688525,23.1171875 C37.1803279,22.428125 36.0327869,22.428125 35.3442623,23.1171875 L31.2131148,27.2515625 C30.5245902,27.940625 30.5245902,29.0890625 31.2131148,29.778125 C31.9016393,30.2375 32.3606557,30.2375 32.5901639,30.2375 Z" id="Shape" fill="#EEEEEE"></path>
                    <path d="M195.770492,59.8671875 C196,60.096875 196.459016,60.3265625 196.918033,60.3265625 C197.377049,60.3265625 197.836066,60.096875 198.065574,59.8671875 C198.754098,59.178125 198.754098,58.0296875 198.065574,57.340625 L193.934426,53.20625 C193.245902,52.5171875 192.098361,52.5171875 191.409836,53.20625 C190.721311,53.8953125 190.721311,55.04375 191.409836,55.7328125 L195.770492,59.8671875 Z" id="Shape" fill="#EEEEEE"></path>
                    <path d="M208.852459,72.959375 C209.081967,73.1890625 209.540984,73.41875 210,73.41875 C210.459016,73.41875 210.918033,73.1890625 211.147541,72.959375 C211.836066,72.2703125 211.836066,71.121875 211.147541,70.4328125 L207.016393,66.2984375 C206.327869,65.609375 205.180328,65.609375 204.491803,66.2984375 C203.803279,66.9875 203.803279,68.1359375 204.491803,68.825 L208.852459,72.959375 Z" id="Shape" fill="#EEEEEE"></path>
                    <path d="M192.786885,73.41875 C193.245902,73.41875 193.704918,73.1890625 193.934426,72.959375 L198.065574,68.825 C198.754098,68.1359375 198.754098,66.9875 198.065574,66.2984375 C197.377049,65.609375 196.229508,65.609375 195.540984,66.2984375 L191.409836,70.4328125 C190.721311,71.121875 190.721311,72.2703125 191.409836,72.959375 C191.868852,73.41875 192.327869,73.41875 192.786885,73.41875 Z" id="Shape" fill="#EEEEEE"></path>
                    <path d="M206.098361,60.3265625 C206.557377,60.3265625 207.016393,60.096875 207.245902,59.8671875 L211.377049,55.7328125 C212.065574,55.04375 212.065574,53.8953125 211.377049,53.20625 C210.688525,52.5171875 209.540984,52.5171875 208.852459,53.20625 L204.721311,57.340625 C204.032787,58.0296875 204.032787,59.178125 204.721311,59.8671875 C205.180328,60.096875 205.639344,60.3265625 206.098361,60.3265625 Z" id="Shape" fill="#EEEEEE"></path>
                    <path d="M94.7868852,271.639062 C94.0983607,270.95 92.9508197,270.95 92.2622951,271.639062 C91.5737705,272.328125 91.5737705,273.476562 92.2622951,274.165625 L96.3934426,278.3 C96.6229508,278.529687 97.0819672,278.759375 97.5409836,278.759375 C98,278.759375 98.4590164,278.529687 98.6885246,278.3 C99.3770492,277.610937 99.3770492,276.4625 98.6885246,275.773437 L94.7868852,271.639062 Z" id="Shape" fill="#EEEEEE"></path>
                    <path d="M108.098361,284.73125 C107.409836,284.042187 106.262295,284.042187 105.57377,284.73125 C104.885246,285.420312 104.885246,286.56875 105.57377,287.257812 L109.704918,291.392187 C109.934426,291.621875 110.393443,291.851562 110.852459,291.851562 C111.311475,291.851562 111.770492,291.621875 112,291.392187 C112.688525,290.703125 112.688525,289.554687 112,288.865625 L108.098361,284.73125 Z" id="Shape" fill="#EEEEEE"></path>
                    <path d="M96.3934426,284.73125 L92.2622951,288.865625 C91.5737705,289.554687 91.5737705,290.703125 92.2622951,291.392187 C92.4918033,291.621875 92.9508197,291.851562 93.4098361,291.851562 C93.8688525,291.851562 94.3278689,291.621875 94.557377,291.392187 L98.6885246,287.257812 C99.3770492,286.56875 99.3770492,285.420312 98.6885246,284.73125 C98.2295082,284.042187 97.0819672,284.042187 96.3934426,284.73125 Z" id="Shape" fill="#EEEEEE"></path>
                    <path d="M109.704918,271.639062 L105.57377,275.773437 C104.885246,276.4625 104.885246,277.610937 105.57377,278.3 C105.803279,278.529687 106.262295,278.759375 106.721311,278.759375 C107.180328,278.759375 107.639344,278.529687 107.868852,278.3 L112,274.165625 C112.688525,273.476562 112.688525,272.328125 112,271.639062 C111.311475,270.95 110.393443,270.95 109.704918,271.639062 Z" id="Shape" fill="#EEEEEE"></path>
                    <path d="M189.57377,209.164062 L185.442623,205.029687 C184.754098,204.340625 183.606557,204.340625 182.918033,205.029687 C182.229508,205.71875 182.229508,206.867187 182.918033,207.55625 L187.04918,211.690625 C187.278689,211.920312 187.737705,212.15 188.196721,212.15 C188.655738,212.15 189.114754,211.920312 189.344262,211.690625 C190.262295,210.771875 190.262295,209.853125 189.57377,209.164062 Z" id="Shape" fill="#EEEEEE"></path>
                    <path d="M198.52459,218.121875 C197.836066,217.432812 196.688525,217.432812 196,218.121875 C195.311475,218.810937 195.311475,219.959375 196,220.648437 L200.131148,224.782812 C200.360656,225.0125 200.819672,225.242187 201.278689,225.242187 C201.737705,225.242187 202.196721,225.0125 202.42623,224.782812 C203.114754,224.09375 203.114754,222.945312 202.42623,222.25625 L198.52459,218.121875 Z" id="Shape" fill="#EEEEEE"></path>
                    <path d="M187.04918,218.121875 L182.918033,222.25625 C182.229508,222.945312 182.229508,224.09375 182.918033,224.782812 C183.147541,225.0125 183.606557,225.242187 184.065574,225.242187 C184.52459,225.242187 184.983607,225.0125 185.213115,224.782812 L189.344262,220.648437 C190.032787,219.959375 190.032787,218.810937 189.344262,218.121875 C188.885246,217.432812 187.737705,217.432812 187.04918,218.121875 Z" id="Shape" fill="#EEEEEE"></path>
                    <path d="M202.655738,205.029687 C201.967213,204.340625 200.819672,204.340625 200.131148,205.029687 L196,209.164062 C195.311475,209.853125 195.311475,211.001562 196,211.690625 C196.229508,211.920312 196.688525,212.15 197.147541,212.15 C197.606557,212.15 198.065574,211.920312 198.295082,211.690625 L202.42623,207.55625 C203.344262,206.867187 203.344262,205.71875 202.655738,205.029687 Z" id="Shape" fill="#EEEEEE"></path>
                    <path d="M239.147541,87.659375 C239.147541,92.253125 242.819672,95.928125 247.409836,95.928125 C252,95.928125 255.672131,92.253125 255.672131,87.659375 C255.672131,83.065625 252,79.390625 247.409836,79.390625 C242.819672,79.6203125 239.147541,83.2953125 239.147541,87.659375 Z M252,87.659375 C252,90.1859375 249.934426,92.4828125 247.180328,92.4828125 C244.655738,92.4828125 242.360656,90.415625 242.360656,87.659375 C242.360656,85.1328125 244.42623,82.8359375 247.180328,82.8359375 C249.934426,83.065625 252,85.1328125 252,87.659375 Z" id="Shape" fill="#EEEEEE"></path>
                    <path d="M14,147.607812 C18.5901639,147.607812 22.2622951,143.932812 22.2622951,139.339063 C22.2622951,134.745313 18.5901639,131.070312 14,131.070312 C9.40983607,131.070312 5.73770492,134.745313 5.73770492,139.339063 C5.96721311,143.932812 9.63934426,147.607812 14,147.607812 Z M14,134.745313 C16.5245902,134.745313 18.8196721,136.8125 18.8196721,139.56875 C18.8196721,142.095313 16.7540984,144.392188 14,144.392188 C11.4754098,144.392188 9.18032787,142.325 9.18032787,139.56875 C9.40983607,136.8125 11.4754098,134.745313 14,134.745313 Z" id="Shape" fill="#EEEEEE"></path>
                    <path d="M271.278689,265.207813 C266.688525,265.207813 263.016393,268.882813 263.016393,273.476562 C263.016393,278.070312 266.688525,281.745313 271.278689,281.745313 C275.868852,281.745313 279.540984,278.070312 279.540984,273.476562 C279.311475,268.882813 275.639344,265.207813 271.278689,265.207813 Z M271.278689,278.070312 C268.754098,278.070312 266.459016,276.003125 266.459016,273.246875 C266.459016,270.720313 268.52459,268.423438 271.278689,268.423438 C273.803279,268.423438 276.098361,270.490625 276.098361,273.246875 C275.868852,276.003125 273.803279,278.070312 271.278689,278.070312 Z" id="Shape" fill="#EEEEEE"></path>
                    <path d="M82.1639344,217.432812 C82.1639344,212.839062 78.4918033,209.164062 73.9016393,209.164062 C69.3114754,209.164062 65.6393443,212.839062 65.6393443,217.432812 C65.6393443,222.026562 69.3114754,225.701562 73.9016393,225.701562 C78.4918033,225.701562 82.1639344,222.026562 82.1639344,217.432812 Z M69.3114754,217.432812 C69.3114754,214.90625 71.3770492,212.609375 74.1311475,212.609375 C76.6557377,212.609375 78.9508197,214.676563 78.9508197,217.432812 C78.9508197,219.959375 76.8852459,222.25625 74.1311475,222.25625 C71.3770492,222.25625 69.3114754,220.189062 69.3114754,217.432812 Z" id="Shape" fill="#EEEEEE"></path>
                    <path d="M211.377049,16.915625 L239.377049,16.915625 C240.295082,16.915625 241.213115,16.2265625 241.213115,15.078125 C241.213115,13.9296875 240.52459,13.240625 239.377049,13.240625 L211.377049,13.240625 C210.459016,13.240625 209.540984,13.9296875 209.540984,15.078125 C209.540984,16.2265625 210.459016,16.915625 211.377049,16.915625 Z" id="Shape" fill="#EEEEEE"></path>
                    <path d="M248.557377,16.915625 L257.508197,16.915625 C258.42623,16.915625 259.344262,16.2265625 259.344262,15.078125 C259.344262,13.9296875 258.655738,13.240625 257.508197,13.240625 L248.557377,13.240625 C247.639344,13.240625 246.721311,13.9296875 246.721311,15.078125 C246.721311,16.2265625 247.639344,16.915625 248.557377,16.915625 Z" id="Shape" fill="#EEEEEE"></path>
                    <path d="M259.344262,24.725 C259.344262,23.80625 258.655738,22.8875 257.508197,22.8875 L238,22.8875 C237.081967,22.8875 236.163934,23.5765625 236.163934,24.725 C236.163934,25.8734375 236.852459,26.5625 238,26.5625 L257.508197,26.5625 C258.42623,26.5625 259.344262,25.64375 259.344262,24.725 Z" id="Shape" fill="#EEEEEE"></path>
                    <path d="M223.311475,23.1171875 C222.393443,23.1171875 221.47541,23.80625 221.47541,24.9546875 C221.47541,26.103125 222.163934,26.7921875 223.311475,26.7921875 L229.508197,26.7921875 C230.42623,26.7921875 231.344262,26.103125 231.344262,24.9546875 C231.344262,23.80625 230.655738,23.1171875 229.508197,23.1171875 L223.311475,23.1171875 Z" id="Shape" fill="#EEEEEE"></path>
                    <path d="M237.540984,173.5625 C237.770492,174.021875 238.459016,174.48125 238.918033,174.48125 C239.147541,174.48125 239.606557,174.48125 239.836066,174.251562 C240.754098,173.792187 240.983607,172.64375 240.295082,171.954687 C238.688525,169.198437 236.852459,166.671875 234.786885,164.375 C234.098361,163.685937 233.180328,163.45625 232.262295,164.145312 C231.57377,164.834375 231.344262,165.753125 232.032787,166.671875 C234.098361,168.509375 235.934426,171.035937 237.540984,173.5625 Z" id="Shape" fill="#EDA9A9"></path>
                    <path d="M200.131148,142.325 C201.508197,143.24375 203.114754,143.932813 204.721311,144.621875 C210.229508,147.148438 215.508197,150.364063 220.098361,154.039062 C220.327869,154.26875 220.786885,154.498437 221.245902,154.498437 C221.704918,154.498437 222.163934,154.26875 222.622951,153.809375 C223.311475,153.120313 223.081967,151.971875 222.393443,151.282813 C217.57377,147.607813 212.065574,144.1625 206.327869,141.40625 C204.95082,140.717188 203.344262,140.028125 201.967213,139.109375 C201.04918,138.65 200.131148,138.879688 199.672131,139.798438 C198.983607,140.717188 199.213115,141.865625 200.131148,142.325 Z" id="Shape" fill="#EDA9A9"></path>
                    <path d="M185.901639,131.070313 C186.131148,131.529688 186.590164,131.529688 187.04918,131.529688 C187.508197,131.529688 187.967213,131.3 188.196721,131.070313 C188.885246,130.38125 188.885246,129.232813 188.196721,128.54375 C186.131148,126.476563 184.065574,124.179688 182.229508,121.653125 C181.540984,120.964063 180.622951,120.734375 179.704918,121.423438 C179.016393,122.1125 178.786885,123.03125 179.47541,123.95 C181.770492,126.70625 183.836066,129.003125 185.901639,131.070313 Z" id="Shape" fill="#EDA9A9"></path>
                    <path d="M90.4262295,121.882812 C88.5901639,124.409375 86.5245902,126.70625 84.4590164,128.773437 C83.7704918,129.4625 83.7704918,130.610937 84.4590164,131.3 C84.6885246,131.529687 85.147541,131.759375 85.6065574,131.759375 C86.0655738,131.759375 86.5245902,131.529687 86.7540984,131.3 C88.8196721,129.232812 90.8852459,126.70625 92.9508197,124.179687 C93.6393443,123.490625 93.4098361,122.342187 92.7213115,121.653125 C92.0327869,120.964062 90.8852459,121.19375 90.4262295,121.882812 Z" id="Shape" fill="#EDA9A9"></path>
                    <path d="M70.9180328,139.339063 C69.5409836,140.257813 68.1639344,140.946875 66.557377,141.635938 C60.8196721,144.392188 55.3114754,147.607813 50.4918033,151.5125 C49.8032787,152.201563 49.5737705,153.120313 50.2622951,154.039063 C50.4918033,154.498438 51.1803279,154.728125 51.6393443,154.728125 C52.0983607,154.728125 52.3278689,154.498438 52.7868852,154.26875 C57.3770492,150.59375 62.6557377,147.607813 68.1639344,144.851563 C69.7704918,144.1625 71.147541,143.24375 72.7540984,142.554688 C73.6721311,142.095313 73.9016393,140.946875 73.442623,140.257813 C72.7540984,139.109375 71.8360656,138.879688 70.9180328,139.339063 Z" id="Shape" fill="#EDA9A9"></path>
                    <path d="M37.8688525,163.915625 C35.8032787,166.442188 33.9672131,168.96875 32.3606557,171.495313 C31.9016393,172.414063 32.1311475,173.332813 32.8196721,173.792188 C33.0491803,174.021875 33.5081967,174.021875 33.7377049,174.021875 C34.1967213,174.021875 34.8852459,173.792188 35.1147541,173.103125 C36.7213115,170.576563 38.557377,168.05 40.3934426,165.753125 C41.0819672,165.064063 40.852459,163.915625 40.1639344,163.226562 C39.4754098,163.226563 38.3278689,163.226563 37.8688525,163.915625 Z" id="Shape" fill="#EDA9A9"></path>
                    <path d="M158.590164,99.3734375 C158.590164,100.292188 159.278689,101.210938 160.196721,101.210938 C160.196721,101.210938 160.196721,101.210938 160.196721,101.210938 C161.114754,101.210938 162.032787,100.521875 162.032787,99.603125 C162.262295,74.3375 148.721311,44.7078125 148.262295,43.559375 C147.803279,42.640625 146.885246,42.4109375 145.967213,42.640625 C145.04918,43.1 144.819672,44.01875 145.04918,44.9375 C145.278689,45.1671875 158.819672,75.0265625 158.590164,99.3734375 Z" id="Shape" fill="#EDA9A9"></path>
                    <path d="M112.459016,101.210937 C112.459016,101.210937 112.459016,101.210937 112.459016,101.210937 C113.377049,101.210937 114.295082,100.521875 114.295082,99.3734375 C114.065574,75.0265625 127.606557,45.1671875 127.836066,44.7078125 C128.295082,43.7890625 127.836066,42.8703125 126.918033,42.4109375 C126,41.9515625 125.081967,42.4109375 124.622951,43.3296875 C124.163934,44.478125 110.622951,74.1078125 110.852459,99.3734375 C110.852459,100.292187 111.540984,101.210937 112.459016,101.210937 Z" id="Shape" fill="#EDA9A9"></path>
                    <path d="M231.57377,230.525 C231.57377,230.525 231.57377,230.525 231.57377,230.525 C229.967213,226.160938 231.803279,221.567187 235.704918,219.729688 C237.540984,219.040625 239.606557,219.040625 241.442623,219.729688 C243.278689,220.648438 244.885246,222.026563 245.57377,224.09375 C245.57377,224.09375 245.57377,224.09375 245.57377,224.323438 C245.344262,225.93125 245.344262,227.76875 245.57377,229.376563 C245.803279,230.295313 246.491803,230.754687 247.180328,230.754687 C247.180328,230.754687 247.409836,230.754687 247.409836,230.754687 C248.327869,230.525 249.016393,229.60625 248.786885,228.6875 C247.639344,223.175 251.081967,217.892187 256.360656,216.74375 C258.655738,216.284375 261.180328,216.74375 263.245902,218.121875 C265.540984,219.5 266.918033,222.026562 267.606557,224.553125 C267.836066,225.471875 268.754098,226.160937 269.672131,225.93125 C270.590164,225.701562 271.278689,224.782812 271.04918,223.864062 C270.360656,220.189062 268.295082,217.203125 265.311475,215.135937 C262.327869,213.298437 259.114754,212.609375 255.672131,213.298437 C251.770492,214.217187 248.786885,216.74375 246.95082,219.959375 C245.803279,218.351562 244.196721,217.203125 242.590164,216.514062 C239.836066,215.365625 236.852459,215.365625 234.327869,216.514062 C229.737705,218.58125 227.213115,223.404687 227.672131,228.228125 C225.836066,227.539062 223.770492,227.079687 221.934426,227.079687 C212.983607,227.079687 205.409836,234.429687 204.95082,243.617187 C204.491803,243.3875 204.032787,243.157812 203.344262,243.157812 C199.901639,242.46875 196.459016,243.3875 193.704918,245.454687 C190.032787,248.210937 187.967213,252.575 187.967213,257.16875 C181.540984,249.81875 170.295082,234.889062 166.852459,216.054687 C170.52459,215.135937 173.278689,211.690625 173.278689,207.55625 L173.278689,195.842187 L257.737705,195.842187 C258.196721,195.842187 258.655738,195.6125 259.114754,195.382812 C259.344262,194.923437 259.57377,194.464062 259.57377,194.004687 C259.57377,192.626563 256.590164,161.159375 226.52459,140.028125 C222.622951,137.271875 218.262295,134.745312 213.672131,132.448437 C189.114754,120.964062 176.491803,91.79375 172.131148,79.85 C168.459016,59.8671875 161.344262,40.1140625 150.557377,21.509375 C147.57377,16.45625 144.360656,11.1734375 140.918033,5.890625 L137.47541,0.8375 C137.245902,0.378125 136.557377,0.1484375 136.098361,0.1484375 C135.639344,0.1484375 134.95082,0.378125 134.721311,0.8375 L131.04918,5.890625 C127.606557,10.94375 124.163934,16.2265625 121.409836,21.509375 C114.983607,32.7640625 109.704918,44.7078125 105.803279,56.6515625 C103.278689,64.23125 101.442623,72.040625 100.065574,79.85 C100.065574,79.85 100.065574,79.85 100.065574,79.85 C95.704918,91.79375 83.0819672,120.964063 58.295082,132.678125 C53.704918,134.975 49.3442623,137.271875 45.442623,140.257813 C45.442623,140.257813 45.442623,140.257813 45.442623,140.257813 C45.442623,140.257813 45.442623,140.257813 45.442623,140.257813 C45.442623,140.257813 45.442623,140.257813 45.442623,140.257813 C15.3770492,161.159375 12.3934426,192.85625 12.3934426,194.234375 C12.3934426,194.69375 12.6229508,195.153125 12.852459,195.6125 C13.0819672,196.071875 13.5409836,196.071875 14.2295082,196.071875 L98.6885246,196.071875 L98.6885246,207.785937 C98.6885246,211.920312 101.442623,215.365625 105.344262,216.284375 C101.901639,235.11875 90.6557377,250.048438 84.2295082,257.398438 C84.4590164,253.034375 82.3934426,248.440625 78.4918033,245.684375 C75.7377049,243.617188 72.295082,242.928125 68.852459,243.3875 C68.3934426,243.3875 67.9344262,243.617188 67.2459016,243.846875 C66.557377,234.659375 59.2131148,227.309375 50.2622951,227.309375 C48.1967213,227.309375 46.3606557,227.76875 44.5245902,228.457813 C44.9836066,223.634375 42.4590164,218.58125 37.8688525,216.74375 C35.1147541,215.595313 32.1311475,215.595313 29.6065574,216.74375 C27.7704918,217.432813 26.3934426,218.810938 25.2459016,220.189063 C23.4098361,216.74375 20.4262295,214.217188 16.5245902,213.528125 C13.3114754,212.839063 9.86885246,213.528125 6.8852459,215.365625 C3.44262295,217.203125 1.37704918,220.41875 0.68852459,224.09375 C0.459016393,225.0125 1.14754098,225.93125 2.06557377,226.160938 C2.98360656,226.390625 3.90163934,225.701563 4.13114754,224.782813 C4.59016393,222.026563 6.19672131,219.5 8.49180328,218.121875 C10.557377,216.74375 13.0819672,216.284375 15.3770492,216.74375 C20.6557377,217.892188 23.8688525,223.175 22.9508197,228.6875 C22.7213115,229.60625 23.4098361,230.525 24.3278689,230.754688 C24.3278689,230.754688 24.557377,230.754688 24.557377,230.754688 C25.4754098,230.754688 26.1639344,230.295313 26.1639344,229.376563 C26.3934426,227.539063 26.3934426,225.93125 26.1639344,224.323438 C26.1639344,224.323438 26.1639344,224.323438 26.1639344,224.09375 C26.852459,222.026563 28.4590164,220.41875 30.295082,219.729688 C32.1311475,219.040625 34.1967213,219.040625 36.0327869,219.729688 C39.9344262,221.3375 41.7704918,226.160938 40.1639344,230.295313 C40.1639344,230.295313 40.1639344,230.295313 40.1639344,230.525 C38.557377,231.673438 37.1803279,233.28125 36.0327869,234.889063 C35.5737705,235.578125 35.8032787,236.726563 36.4918033,237.185938 C37.1803279,237.645313 38.3278689,237.415625 38.7868852,236.726563 C41.3114754,232.821875 45.442623,230.754688 49.8032787,230.754688 C57.3770492,230.754688 63.3442623,237.185938 63.3442623,245.225 C63.3442623,245.454688 63.3442623,245.454688 63.3442623,245.684375 C61.9672131,246.603125 60.5901639,247.98125 59.6721311,249.359375 C59.2131148,250.048438 59.442623,251.196875 60.1311475,251.65625 C60.8196721,252.115625 61.9672131,251.885938 62.4262295,251.196875 C63.8032787,248.9 66.0983607,247.521875 68.6229508,247.0625 C71.147541,246.603125 73.6721311,247.0625 75.7377049,248.670313 C80.0983607,251.885938 81.2459016,258.0875 78.2622951,262.910938 C77.8032787,263.6 78.0327869,264.51875 78.4918033,265.207813 C78.7213115,265.4375 79.1803279,265.667188 79.6393443,265.667188 C80.0983607,265.667188 80.557377,265.4375 80.7868852,265.207813 C81.704918,264.289063 102.819672,245.225 107.868852,216.74375 L113.606557,216.74375 C113.836066,223.634375 115.901639,248.440625 134.032787,265.207813 C134.262295,265.4375 134.721311,265.667188 135.180328,265.667188 C135.639344,265.667188 136.098361,265.4375 136.327869,265.207813 C154.688525,248.670313 156.52459,223.634375 156.754098,216.74375 L162.491803,216.74375 C167.540984,245.225 188.655738,264.289063 189.57377,265.207813 C189.803279,265.4375 190.262295,265.667188 190.721311,265.667188 C191.180328,265.667188 191.639344,265.4375 191.868852,265.207813 C192.557377,264.748438 192.557377,263.6 192.098361,262.910938 C189.114754,258.317188 190.262295,251.885938 194.622951,248.670313 C196.688525,247.292188 199.213115,246.603125 201.737705,247.0625 C204.262295,247.521875 206.557377,249.129688 207.934426,251.196875 C208.393443,251.885938 209.540984,252.115625 210.229508,251.65625 C210.918033,251.196875 211.147541,250.048438 210.688525,249.359375 C209.770492,247.751563 208.393443,246.603125 207.016393,245.684375 C207.016393,245.454688 207.016393,245.454688 207.016393,245.225 C207.016393,237.415625 213.213115,230.754688 220.557377,230.754688 C224.918033,230.754688 229.04918,233.051563 231.57377,236.726563 C232.032787,237.415625 233.180328,237.645313 233.868852,237.185938 C234.557377,236.726563 234.786885,235.578125 234.327869,234.889063 C234.786885,233.28125 233.409836,231.673438 231.57377,230.525 Z M169.836066,207.785938 C169.836066,210.771875 167.540984,213.06875 164.786885,213.298438 L155.836066,213.298438 C155.836066,213.298438 155.836066,213.298438 155.836066,213.298438 C155.836066,213.298438 155.836066,213.298438 155.836066,213.298438 C155.836066,213.298438 155.836066,213.298438 155.836066,213.298438 C153.081967,213.298438 150.786885,210.771875 150.786885,207.785938 L150.786885,194.234375 C150.786885,194.234375 150.786885,194.234375 150.786885,194.234375 C150.786885,194.234375 150.786885,194.234375 150.786885,194.234375 L150.786885,155.1875 C150.786885,150.823438 151.47541,146.229688 152.622951,141.865625 C152.852459,141.176563 153.081967,140.4875 153.311475,139.798438 C154.918033,134.975 157.442623,130.151563 160.42623,125.557813 C164.098361,131.070313 166.622951,136.582813 168,142.095313 C168,142.095313 168.229508,142.554688 168.229508,142.554688 C169.377049,146.689063 170.065574,151.053125 170.065574,155.417188 L170.065574,194.464063 L170.065574,207.785938 L169.836066,207.785938 Z M212.065574,135.664063 C216.42623,137.73125 220.557377,140.257813 224.459016,142.784375 C249.016393,160.010938 254.754098,185.276563 255.901639,192.396875 L173.278689,192.396875 L173.278689,155.1875 C173.278689,154.039063 173.278689,152.890625 173.278689,151.742188 C173.278689,151.282813 173.278689,150.823438 173.04918,150.364063 C173.04918,149.675 173.04918,148.985938 172.819672,148.526563 C172.819672,147.8375 172.590164,147.378125 172.590164,146.689063 C172.590164,146.229688 172.360656,145.540625 172.360656,145.08125 C172.360656,144.621875 172.131148,144.1625 172.131148,143.703125 C171.901639,143.014063 171.901639,142.554688 171.672131,141.865625 L171.672131,141.635938 C173.737705,131.3 174.655738,120.504688 174.655738,109.709375 C174.655738,104.196875 174.42623,98.684375 173.737705,93.171875 C180.852459,107.642188 193.016393,126.70625 212.065574,135.664063 Z M109.016393,57.8 C112.918033,46.0859375 117.967213,34.371875 124.393443,23.346875 C127.377049,18.0640625 130.590164,13.0109375 134.032787,7.9578125 L136.098361,4.971875 L138.163934,7.9578125 C141.606557,13.0109375 144.819672,18.29375 147.803279,23.346875 C158.360656,41.721875 165.47541,61.2453125 168.918033,80.76875 C168.918033,80.76875 168.918033,80.76875 168.918033,80.9984375 C170.52459,90.415625 171.442623,100.0625 171.442623,109.939063 C171.442623,118.4375 170.754098,126.70625 169.377049,134.975 C167.770492,130.840625 165.704918,126.935938 162.95082,122.801563 L162.032787,121.19375 C161.803279,120.734375 161.114754,120.504688 160.655738,120.504688 C159.967213,120.504688 159.508197,120.734375 159.278689,121.19375 L157.901639,123.03125 C154.459016,128.084375 151.934426,133.367188 150.098361,138.65 C149.868852,139.56875 149.639344,140.257813 149.409836,140.946875 C148.032787,145.770313 147.344262,150.59375 147.344262,155.1875 L147.344262,192.396875 L124.622951,192.396875 L124.622951,155.1875 C124.622951,150.59375 123.934426,145.770313 122.557377,140.946875 C120.95082,134.745313 117.967213,128.54375 114.065574,122.801563 L112.918033,121.19375 C112.688525,120.734375 112,120.504688 111.540984,120.504688 C111.081967,120.504688 110.393443,120.734375 110.163934,121.19375 L109.245902,123.03125 C106.491803,126.935938 104.42623,130.840625 102.819672,134.975 C101.442623,126.70625 100.754098,118.207813 100.754098,109.939063 C100.754098,92.4828125 103.508197,74.796875 109.016393,57.8 Z M16.0655738,192.626563 C17.2131148,185.50625 22.7213115,160.240625 47.5081967,143.014063 C47.5081967,143.014063 47.5081967,143.014063 47.5081967,143.014063 C47.5081967,143.014063 47.5081967,143.014063 47.5081967,143.014063 C51.1803279,140.257812 55.3114754,137.960938 59.9016393,135.89375 C79.1803279,126.70625 91.3442623,107.642188 98.2295082,93.4015625 C97.7704918,98.9140625 97.3114754,104.426563 97.3114754,110.16875 C97.3114754,120.734375 98.4590164,131.529688 100.52459,142.095313 C100.52459,142.095313 100.52459,142.095313 100.52459,142.095313 C99.147541,146.229688 98.6885246,150.823438 98.6885246,155.1875 L98.6885246,192.396875 L16.0655738,192.396875 L16.0655738,192.626563 Z M102.131148,207.785938 L102.131148,155.1875 C102.131148,150.823438 102.590164,146.459375 103.967213,142.095313 C103.967213,141.865625 103.967213,141.865625 104.196721,141.635938 C104.42623,140.946875 104.655738,140.257812 104.885246,139.56875 C106.491803,134.745313 109.016393,129.921875 112,125.328125 C115.672131,130.610938 118.196721,136.123437 119.803279,141.865625 C120.95082,146.229688 121.639344,150.823438 121.639344,155.1875 L121.639344,207.55625 C121.639344,210.542188 119.344262,212.839063 116.590164,213.06875 C116.590164,213.06875 116.590164,213.06875 116.590164,213.06875 C116.590164,213.06875 116.590164,213.06875 116.590164,213.06875 C116.590164,213.06875 116.590164,213.06875 116.590164,213.06875 L107.639344,213.06875 C104.42623,213.06875 102.131148,210.771875 102.131148,207.785938 Z M135.868852,261.303125 C119.803279,245.684375 117.967213,222.485938 117.737705,216.514063 C121.639344,215.595313 124.622951,212.15 124.622951,207.785938 L124.622951,196.071875 L147.344262,196.071875 L147.344262,207.785938 C147.344262,212.15 150.327869,215.595313 154.229508,216.514063 C154,222.485938 152.163934,245.684375 135.868852,261.303125 Z" id="Shape" fill="#FE5B5B"></path>
                    <path d="M265.540984,241.779687 C265.770492,240.860937 265.311475,239.942187 264.393443,239.7125 C248.327869,235.348437 242.590164,247.98125 242.360656,248.210938 C241.901639,249.129688 242.360656,250.048437 243.278689,250.507812 C243.508197,250.507812 243.737705,250.7375 243.967213,250.7375 C244.655738,250.7375 245.344262,250.278125 245.57377,249.81875 C245.803279,249.359375 250.393443,239.7125 263.47541,243.3875 C264.393443,243.3875 265.311475,242.698437 265.540984,241.779687 Z" id="Shape" fill="#EEEEEE"></path>
                    <path d="M217.344262,257.857813 C212.295082,258.317188 209.081967,262.910938 209.081967,263.140625 C208.622951,263.829688 208.622951,264.978125 209.540984,265.4375 C209.770492,265.667188 210.229508,265.667188 210.459016,265.667188 C210.918033,265.667188 211.606557,265.4375 211.836066,264.978125 C211.836066,264.978125 214.360656,261.532813 217.803279,261.073438 C219.639344,260.84375 221.245902,261.532813 223.081967,262.910937 C223.770492,263.6 224.918033,263.370313 225.606557,262.68125 C226.295082,261.992188 226.065574,260.84375 225.377049,260.154688 C222.852459,258.546875 220.098361,257.628125 217.344262,257.857813 Z" id="Shape" fill="#EEEEEE"></path>
                    <path d="M249.934426,258.0875 C241.672131,257.16875 236.852459,264.978125 236.622951,265.4375 C236.163934,266.35625 236.393443,267.275 237.311475,267.734375 C237.540984,267.964062 238,267.964062 238.229508,267.964062 C238.918033,267.964062 239.377049,267.734375 239.606557,267.045312 C239.606557,267.045312 243.278689,260.84375 249.47541,261.303125 C250.393443,261.303125 251.311475,260.614062 251.311475,259.695312 C251.540984,259.00625 250.852459,258.317187 249.934426,258.0875 Z" id="Shape" fill="#EEEEEE"></path>
                    <path d="M26.6229508,249.589063 C26.852459,250.278125 27.5409836,250.507813 28.2295082,250.507813 C28.4590164,250.507813 28.6885246,250.507813 28.9180328,250.278125 C29.8360656,249.81875 30.0655738,248.9 29.8360656,247.98125 C29.8360656,247.751563 23.8688525,235.11875 7.80327869,239.482813 C6.8852459,239.7125 6.42622951,240.63125 6.6557377,241.55 C6.8852459,242.46875 7.80327869,242.928125 8.72131148,242.698438 C21.8032787,239.482813 26.3934426,249.129688 26.6229508,249.589063 Z" id="Shape" fill="#EEEEEE"></path>
                    <path d="M54.852459,257.857812 C52.0983607,257.628125 49.3442623,258.546875 47.0491803,260.614062 C46.3606557,261.303125 46.1311475,262.221875 46.8196721,263.140625 C47.5081967,263.829687 48.4262295,264.059375 49.3442623,263.370312 C51.1803279,261.7625 52.7868852,261.303125 54.6229508,261.532812 C58.0655738,261.992187 60.5901639,265.207812 60.5901639,265.4375 C60.8196721,265.896875 61.5081967,266.126562 61.9672131,266.126562 C62.4262295,266.126562 62.6557377,266.126562 62.8852459,265.896875 C63.5737705,265.4375 63.8032787,264.289062 63.3442623,263.370312 C62.8852459,262.910937 59.6721311,258.546875 54.852459,257.857812 Z" id="Shape" fill="#EEEEEE"></path>
                    <path d="M22.2622951,258.0875 C21.3442623,258.0875 20.6557377,259.00625 20.6557377,259.925 C20.6557377,260.84375 21.5737705,261.532812 22.4918033,261.532812 C28.6885246,260.84375 32.3606557,267.045313 32.3606557,267.275 C32.5901639,267.734375 33.2786885,268.19375 33.7377049,268.19375 C33.9672131,268.19375 34.4262295,268.19375 34.6557377,267.964063 C35.5737705,267.504688 35.8032787,266.35625 35.3442623,265.667188 C35.3442623,265.207812 30.5245902,257.398437 22.2622951,258.0875 Z" id="Shape" fill="#EEEEEE"></path>
                </g>
            </g>
        </g>
    </g>
</svg>