<?xml version="1.0" encoding="UTF-8"?>
<svg width="130px" height="113px" viewBox="0 0 130 113" version="1.1" xmlns="http://www.w3.org/2000/svg" xmlns:xlink="http://www.w3.org/1999/xlink">
    <!-- Generator: Sketch 48.1 (47250) - http://www.bohemiancoding.com/sketch -->
    <title>noun_750018_cc</title>
    <desc>Created with Sketch.</desc>
    <defs></defs>
    <g id="Desktop-HD" stroke="none" stroke-width="1" fill="none" fill-rule="evenodd" transform="translate(-1125.000000, -3217.000000)" opacity="0.5">
        <g id="Estágios" transform="translate(185.000000, 2969.000000)" fill-rule="nonzero">
            <g id="noun_750018_cc" transform="translate(940.000000, 248.000000)">
                <g id="Group">
                    <path d="M68.25,33.5945946 L105.625,33.5945946 C105.828125,33.5945946 106.03125,33.4927928 106.234375,33.390991 C106.234375,33.390991 106.234375,33.390991 106.234375,33.390991 C106.234375,33.390991 106.234375,33.390991 106.234375,33.390991 C106.234375,33.2891892 106.335938,33.2891892 106.335938,33.1873874 C106.335938,33.1873874 106.335938,33.0855856 106.335938,33.0855856 C106.335938,33.0855856 106.335938,32.9837838 106.335938,32.9837838 L106.335938,5.5990991 C106.335938,5.5990991 106.335938,5.5990991 106.335938,5.5990991 C106.335938,5.5990991 106.335938,5.4972973 106.335938,5.4972973 C106.335938,5.4972973 106.335938,5.3954955 106.335938,5.3954955 C106.335938,5.29369369 106.335938,5.29369369 106.234375,5.29369369 C106.234375,5.29369369 106.234375,5.29369369 106.234375,5.19189189 C106.132813,4.98828829 105.929688,4.88648649 105.726562,4.88648649 C105.726562,4.88648649 105.726562,4.88648649 105.726562,4.88648649 C105.726562,4.88648649 105.625,4.88648649 105.625,4.88648649 C105.625,4.88648649 105.625,4.88648649 105.625,4.88648649 L57.6875,4.88648649 C57.6875,4.88648649 57.6875,4.88648649 57.6875,4.88648649 C57.5859375,4.88648649 57.484375,4.88648649 57.3828125,4.98828829 C57.1796875,5.09009009 57.078125,5.19189189 56.9765625,5.3954955 C56.9765625,5.3954955 56.9765625,5.3954955 56.9765625,5.3954955 C56.9765625,5.4972973 56.875,5.5990991 56.875,5.7009009 L56.875,19.5459459 C54.640625,18.0189189 52.3046875,16.6954955 49.6640625,15.7792793 C33.3125,9.77297297 15.234375,18.3243243 9.34375,34.7144144 C4.1640625,49.1702703 10.0546875,65.254955 23.359375,72.7882883 C23.765625,73.3990991 22.75,76.9621622 21.328125,80.3216216 C21.2265625,80.5252252 21.2265625,80.7288288 21.328125,80.9324324 C21.4296875,81.136036 21.53125,81.2378378 21.734375,81.3396396 C21.8359375,81.3396396 22.0390625,81.4414414 22.2421875,81.4414414 C23.2578125,81.4414414 24.8828125,80.5252252 28.1328125,78.6927928 C29.7578125,77.7765766 32.1953125,76.3513514 32.703125,76.3513514 C47.9375,79.5072072 63.375,70.7522523 68.65625,56.0927928 C70.7890625,50.0864865 71.09375,43.672973 69.5703125,37.5648649 C69.1640625,36.2414414 68.7578125,34.918018 68.25,33.5945946 Z M91.40625,18.9351351 L104.914063,7.22792793 L104.914063,31.0495495 L91.40625,18.9351351 Z M82.265625,24.8396396 C81.9609375,25.145045 81.453125,25.145045 81.046875,24.8396396 L59.71875,6.41351351 L103.59375,6.41351351 L82.265625,24.8396396 Z M58.3984375,7.22792793 L71.90625,18.9351351 L58.3984375,31.1513514 L58.3984375,20.8693694 L58.3984375,7.22792793 Z M73.125,19.9531532 L80.1328125,25.9594595 C81.046875,26.7738739 82.3671875,26.7738739 83.28125,25.9594595 L90.2890625,19.9531532 L103.59375,32.0675676 L67.03125,32.0675676 L59.6171875,32.0675676 L73.125,19.9531532 Z M67.234375,55.5837838 C62.2578125,69.5306306 47.53125,77.8783784 33.0078125,74.8243243 C32.09375,74.6207207 30.671875,75.4351351 27.3203125,77.3693694 C26.1015625,78.081982 24.375,79.1 23.2578125,79.609009 C24.6796875,76.1477477 25.6953125,72.3810811 24.171875,71.5666667 C11.4765625,64.3387387 5.7890625,49.0684685 10.765625,35.2234234 C15.1328125,23.0072072 26.7109375,15.3720721 39,15.3720721 C42.3515625,15.3720721 45.8046875,15.9828829 49.15625,17.1027027 C52,18.1207207 54.5390625,19.5459459 56.875,21.2765766 L56.875,32.881982 C56.875,32.881982 56.875,32.9837838 56.875,32.9837838 C56.875,33.0855856 56.875,33.0855856 56.875,33.1873874 C56.875,33.2891892 56.9765625,33.2891892 56.9765625,33.2891892 C56.9765625,33.2891892 56.9765625,33.390991 57.078125,33.390991 C57.078125,33.390991 57.078125,33.390991 57.078125,33.390991 C57.1796875,33.4927928 57.1796875,33.4927928 57.28125,33.4927928 C57.28125,33.4927928 57.28125,33.4927928 57.28125,33.4927928 C57.3828125,33.4927928 57.484375,33.5945946 57.5859375,33.5945946 L66.5234375,33.5945946 C67.1328125,35.0198198 67.640625,36.445045 67.9453125,37.8702703 C69.5703125,43.7747748 69.265625,49.8828829 67.234375,55.5837838 Z" id="Shape" fill="#FE5B5B"></path>
                    <path d="M95.46875,68.0036036 L110.601562,75.9441441 C111.210937,76.2495495 111.820312,76.3513514 112.429687,76.3513514 L115.476562,76.3513514 C115.882812,76.3513514 116.289062,76.0459459 116.289062,75.5369369 L116.289062,47.236036 C116.289062,46.8288288 115.984375,46.4216216 115.476562,46.4216216 L112.53125,46.4216216 C111.921875,46.4216216 111.210937,46.6252252 110.703125,46.8288288 L95.46875,54.7693694 L83.1796875,54.7693694 C83.1796875,54.7693694 83.1796875,54.7693694 83.1796875,54.7693694 C79.5234375,54.7693694 76.578125,57.7216216 76.578125,61.3864865 C76.578125,65.0513514 79.5234375,68.0036036 83.1796875,68.0036036 L85.8203125,68.0036036 L85.8203125,78.6927928 C85.8203125,80.627027 87.34375,82.1540541 89.2734375,82.1540541 L89.578125,82.1540541 C91.5078125,82.1540541 93.03125,80.627027 93.03125,78.6927928 L93.03125,68.0036036 L95.46875,68.0036036 Z M78.1015625,61.3864865 C78.1015625,58.536036 80.4375,56.2963964 83.1796875,56.2963964 C83.1796875,56.2963964 83.1796875,56.2963964 83.1796875,56.2963964 L95.671875,56.2963964 C95.671875,56.2963964 95.671875,56.2963964 95.671875,56.2963964 C95.7734375,56.2963964 95.875,56.2963964 95.9765625,56.1945946 L111.3125,48.2540541 C111.617187,48.0504505 112.023437,47.9486486 112.429687,47.9486486 L114.5625,47.9486486 L114.5625,74.8243243 L112.328125,74.8243243 C111.921875,74.8243243 111.515625,74.7225225 111.210937,74.5189189 L95.9765625,66.4765766 C95.875,66.3747748 95.7734375,66.3747748 95.671875,66.3747748 L92.3203125,66.3747748 C92.3203125,66.3747748 92.3203125,66.3747748 92.21875,66.3747748 L86.53125,66.3747748 C86.53125,66.3747748 86.53125,66.3747748 86.53125,66.3747748 L83.1796875,66.3747748 C80.3359375,66.4765766 78.1015625,64.1351351 78.1015625,61.3864865 Z M91.5078125,78.6927928 C91.5078125,79.7108108 90.6953125,80.627027 89.578125,80.627027 L89.2734375,80.627027 C88.2578125,80.627027 87.34375,79.8126126 87.34375,78.6927928 L87.34375,68.0036036 L91.40625,68.0036036 L91.40625,78.6927928 L91.5078125,78.6927928 Z" id="Shape" fill="#FE5B5B"></path>
                    <path d="M120.859375,50.4936937 L126.140625,50.4936937 C126.546875,50.4936937 126.953125,50.1882883 126.953125,49.6792793 C126.953125,49.1702703 126.648438,48.8648649 126.140625,48.8648649 L120.859375,48.8648649 C120.453125,48.8648649 120.046875,49.1702703 120.046875,49.6792793 C120.046875,50.1882883 120.351562,50.4936937 120.859375,50.4936937 Z" id="Shape" fill="#DDDDDD"></path>
                    <path d="M120.859375,56.3981982 L128.171875,56.3981982 C128.578125,56.3981982 128.984375,56.0927928 128.984375,55.5837838 C128.984375,55.0747748 128.679688,54.7693694 128.171875,54.7693694 L120.859375,54.7693694 C120.453125,54.7693694 120.046875,55.0747748 120.046875,55.5837838 C120.046875,56.0927928 120.351562,56.3981982 120.859375,56.3981982 Z" id="Shape" fill="#DDDDDD"></path>
                    <path d="M128.679688,60.7756757 L120.859375,60.7756757 C120.453125,60.7756757 120.046875,61.0810811 120.046875,61.5900901 C120.046875,61.9972973 120.351562,62.4045045 120.859375,62.4045045 L128.78125,62.4045045 C129.1875,62.4045045 129.59375,62.0990991 129.59375,61.5900901 C129.492187,61.0810811 129.1875,60.7756757 128.679688,60.7756757 Z" id="Shape" fill="#DDDDDD"></path>
                    <path d="M128.171875,66.5783784 L120.859375,66.5783784 C120.453125,66.5783784 120.046875,66.8837838 120.046875,67.3927928 C120.046875,67.8 120.351562,68.2072072 120.859375,68.2072072 L128.171875,68.2072072 C128.578125,68.2072072 128.984375,67.9018018 128.984375,67.3927928 C128.882812,66.9855856 128.578125,66.5783784 128.171875,66.5783784 Z" id="Shape" fill="#DDDDDD"></path>
                    <path d="M126.140625,72.4828829 L120.859375,72.4828829 C120.453125,72.4828829 120.046875,72.7882883 120.046875,73.2972973 C120.046875,73.7045045 120.351562,74.1117117 120.859375,74.1117117 L126.140625,74.1117117 C126.546875,74.1117117 126.953125,73.8063063 126.953125,73.2972973 C126.851562,72.7882883 126.546875,72.4828829 126.140625,72.4828829 Z" id="Shape" fill="#DDDDDD"></path>
                    <path d="M65.609375,77.7765766 C63.578125,77.7765766 61.8515625,79.4054054 61.8515625,81.5432432 C61.8515625,81.8486486 61.953125,82.2558559 62.0546875,82.5612613 L50.578125,86.6333333 C49.8671875,85.8189189 48.953125,85.4117117 47.8359375,85.4117117 C45.8046875,85.4117117 44.078125,87.0405405 44.078125,89.1783784 C44.078125,91.2144144 45.703125,92.945045 47.8359375,92.945045 C48.6484375,92.945045 49.4609375,92.6396396 50.0703125,92.1306306 L55.65625,95.6936937 C55.453125,96.1009009 55.453125,96.5081081 55.453125,97.0171171 C55.453125,99.0531532 57.078125,100.783784 59.2109375,100.783784 C61.2421875,100.783784 62.96875,99.154955 62.96875,97.0171171 C62.96875,94.9810811 61.34375,93.2504505 59.2109375,93.2504505 C58.1953125,93.2504505 57.28125,93.6576577 56.5703125,94.3702703 L51.0859375,90.909009 C51.390625,90.4 51.59375,89.7891892 51.59375,89.1783784 C51.59375,88.7711712 51.4921875,88.4657658 51.390625,88.0585586 L62.8671875,83.9864865 C63.578125,84.8009009 64.59375,85.3099099 65.7109375,85.3099099 C67.7421875,85.3099099 69.46875,83.6810811 69.46875,81.5432432 C69.3671875,79.5072072 67.640625,77.7765766 65.609375,77.7765766 Z M59.2109375,94.7774775 C60.4296875,94.7774775 61.34375,95.7954955 61.34375,96.9153153 C61.34375,98.1369369 60.328125,99.0531532 59.2109375,99.0531532 C57.9921875,99.0531532 57.078125,98.0351351 57.078125,96.9153153 C56.9765625,95.7954955 57.9921875,94.7774775 59.2109375,94.7774775 Z M45.703125,89.0765766 C45.703125,87.854955 46.71875,86.9387387 47.8359375,86.9387387 C49.0546875,86.9387387 49.96875,87.9567568 49.96875,89.0765766 C49.96875,90.1963964 48.953125,91.2144144 47.8359375,91.2144144 C46.6171875,91.3162162 45.703125,90.2981982 45.703125,89.0765766 Z M65.609375,83.6810811 C64.390625,83.6810811 63.4765625,82.6630631 63.4765625,81.5432432 C63.4765625,80.3216216 64.4921875,79.4054054 65.609375,79.4054054 C66.828125,79.4054054 67.7421875,80.4234234 67.7421875,81.5432432 C67.84375,82.7648649 66.828125,83.6810811 65.609375,83.6810811 Z" id="Shape" fill="#FE5B5B"></path>
                    <path d="M1.3203125,36.6486486 C0.9140625,36.6486486 0.5078125,36.9540541 0.5078125,37.4630631 L0.5078125,49.0684685 C0.5078125,49.4756757 0.8125,49.8828829 1.3203125,49.8828829 C1.7265625,49.8828829 2.1328125,49.5774775 2.1328125,49.0684685 L2.1328125,37.3612613 C2.03125,36.9540541 1.7265625,36.6486486 1.3203125,36.6486486 Z" id="Shape" fill="#DDDDDD"></path>
                    <path d="M1.3203125,52.0207207 C0.9140625,52.0207207 0.5078125,52.3261261 0.5078125,52.8351351 L0.5078125,56.6018018 C0.5078125,57.009009 0.8125,57.4162162 1.3203125,57.4162162 C1.7265625,57.3144144 2.03125,57.009009 2.03125,56.6018018 L2.03125,52.8351351 C2.03125,52.4279279 1.7265625,52.0207207 1.3203125,52.0207207 Z" id="Shape" fill="#DDDDDD"></path>
                    <path d="M78.9140625,91.3162162 C78.5078125,91.3162162 78.1015625,91.6216216 78.1015625,92.1306306 L78.1015625,103.736036 C78.1015625,104.143243 78.40625,104.55045 78.9140625,104.55045 C79.3203125,104.55045 79.7265625,104.245045 79.7265625,103.736036 L79.7265625,92.1306306 C79.7265625,91.6216216 79.3203125,91.3162162 78.9140625,91.3162162 Z" id="Shape" fill="#DDDDDD"></path>
                    <path d="M78.9140625,106.79009 C78.5078125,106.79009 78.1015625,107.095495 78.1015625,107.604505 L78.1015625,111.371171 C78.1015625,111.778378 78.40625,112.185586 78.9140625,112.185586 C79.3203125,112.185586 79.7265625,111.88018 79.7265625,111.371171 L79.7265625,107.604505 C79.7265625,107.095495 79.3203125,106.79009 78.9140625,106.79009 Z" id="Shape" fill="#DDDDDD"></path>
                    <path d="M116.59375,17.5099099 C116.695312,17.6117117 116.898437,17.7135135 117.101562,17.7135135 C117.304687,17.7135135 117.507812,17.6117117 117.609375,17.5099099 C117.914062,17.2045045 117.914062,16.6954955 117.609375,16.3900901 L115.882812,14.6594595 C115.578125,14.3540541 115.070312,14.3540541 114.765625,14.6594595 C114.460938,14.9648649 114.460938,15.4738739 114.765625,15.7792793 L116.59375,17.5099099 Z" id="Shape" fill="#DDDDDD"></path>
                    <path d="M122.382812,23.2108108 C122.484375,23.3126126 122.6875,23.4144144 122.890625,23.4144144 C123.09375,23.4144144 123.296875,23.3126126 123.398438,23.2108108 C123.703125,22.9054054 123.703125,22.3963964 123.398438,22.090991 L121.671875,20.3603604 C121.367188,20.054955 120.859375,20.054955 120.554688,20.3603604 C120.25,20.6657658 120.25,21.1747748 120.554688,21.4801802 L122.382812,23.2108108 Z" id="Shape" fill="#DDDDDD"></path>
                    <path d="M115.375,23.4144144 C115.578125,23.4144144 115.78125,23.3126126 115.882812,23.2108108 L117.609375,21.4801802 C117.914062,21.1747748 117.914062,20.6657658 117.609375,20.3603604 C117.304687,20.054955 116.796875,20.054955 116.492187,20.3603604 L114.765625,22.090991 C114.460938,22.3963964 114.460938,22.9054054 114.765625,23.2108108 C115.070312,23.4144144 115.273438,23.4144144 115.375,23.4144144 Z" id="Shape" fill="#DDDDDD"></path>
                    <path d="M121.164062,17.7135135 C121.367188,17.7135135 121.570312,17.6117117 121.671875,17.5099099 L123.398438,15.7792793 C123.703125,15.4738739 123.703125,14.9648649 123.398438,14.6594595 C123.09375,14.3540541 122.585938,14.3540541 122.28125,14.6594595 L120.554688,16.3900901 C120.25,16.6954955 120.25,17.2045045 120.554688,17.5099099 C120.757812,17.6117117 120.960937,17.7135135 121.164062,17.7135135 Z" id="Shape" fill="#DDDDDD"></path>
                    <path d="M27.1171875,99.3585586 C26.8125,99.0531532 26.3046875,99.0531532 26,99.3585586 C25.6953125,99.663964 25.6953125,100.172973 26,100.478378 L27.7265625,102.209009 C27.828125,102.310811 28.03125,102.412613 28.234375,102.412613 C28.4375,102.412613 28.640625,102.310811 28.7421875,102.209009 C29.046875,101.903604 29.046875,101.394595 28.7421875,101.089189 L27.1171875,99.3585586 Z" id="Shape" fill="#DDDDDD"></path>
                    <path d="M32.8046875,105.059459 C32.5,104.754054 31.9921875,104.754054 31.6875,105.059459 C31.3828125,105.364865 31.3828125,105.873874 31.6875,106.179279 L33.515625,107.90991 C33.6171875,108.011712 33.8203125,108.113514 34.0234375,108.113514 C34.2265625,108.113514 34.4296875,108.011712 34.53125,107.90991 C34.8359375,107.604505 34.8359375,107.095495 34.53125,106.79009 L32.8046875,105.059459 Z" id="Shape" fill="#DDDDDD"></path>
                    <path d="M27.7265625,105.059459 L26,106.79009 C25.6953125,107.095495 25.6953125,107.604505 26,107.90991 C26.1015625,108.011712 26.3046875,108.113514 26.5078125,108.113514 C26.7109375,108.113514 26.9140625,108.011712 27.015625,107.90991 L28.7421875,106.179279 C29.046875,105.873874 29.046875,105.364865 28.7421875,105.059459 C28.5390625,104.754054 28.03125,104.754054 27.7265625,105.059459 Z" id="Shape" fill="#DDDDDD"></path>
                    <path d="M33.515625,99.3585586 L31.7890625,101.089189 C31.484375,101.394595 31.484375,101.903604 31.7890625,102.209009 C31.890625,102.310811 32.09375,102.412613 32.296875,102.412613 C32.5,102.412613 32.703125,102.310811 32.8046875,102.209009 L34.53125,100.478378 C34.8359375,100.172973 34.8359375,99.663964 34.53125,99.3585586 C34.2265625,99.0531532 33.8203125,99.0531532 33.515625,99.3585586 Z" id="Shape" fill="#DDDDDD"></path>
                    <path d="M102.679687,83.6810811 L100.953125,81.9504505 C100.648437,81.645045 100.140625,81.645045 99.8359375,81.9504505 C99.53125,82.2558559 99.53125,82.7648649 99.8359375,83.0702703 L101.5625,84.8009009 C101.664062,84.9027027 101.867187,85.0045045 102.070312,85.0045045 C102.273437,85.0045045 102.476562,84.9027027 102.578125,84.8009009 C102.984375,84.3936937 102.984375,83.9864865 102.679687,83.6810811 Z" id="Shape" fill="#DDDDDD"></path>
                    <path d="M106.640625,87.5495495 C106.335938,87.2441441 105.828125,87.2441441 105.523438,87.5495495 C105.21875,87.854955 105.21875,88.363964 105.523438,88.6693694 L107.25,90.4 C107.351562,90.5018018 107.554688,90.6036036 107.757812,90.6036036 C107.960938,90.6036036 108.164063,90.5018018 108.265625,90.4 C108.570312,90.0945946 108.570312,89.5855856 108.265625,89.2801802 L106.640625,87.5495495 Z" id="Shape" fill="#DDDDDD"></path>
                    <path d="M101.5625,87.5495495 L99.8359375,89.2801802 C99.53125,89.5855856 99.53125,90.0945946 99.8359375,90.4 C99.9375,90.5018018 100.140625,90.6036036 100.34375,90.6036036 C100.546875,90.6036036 100.75,90.5018018 100.851562,90.4 L102.578125,88.6693694 C102.882812,88.363964 102.882812,87.854955 102.578125,87.5495495 C102.375,87.3459459 101.867187,87.3459459 101.5625,87.5495495 Z" id="Shape" fill="#DDDDDD"></path>
                    <path d="M108.367188,81.8486486 C108.0625,81.5432432 107.554688,81.5432432 107.25,81.8486486 L105.523438,83.5792793 C105.21875,83.8846847 105.21875,84.3936937 105.523438,84.6990991 C105.625,84.8009009 105.828125,84.9027027 106.03125,84.9027027 C106.234375,84.9027027 106.4375,84.8009009 106.539063,84.6990991 L108.265625,82.9684685 C108.671875,82.6630631 108.671875,82.1540541 108.367188,81.8486486 Z" id="Shape" fill="#DDDDDD"></path>
                    <path d="M47.0234375,7.94054054 C49.2578125,7.94054054 50.984375,6.10810811 50.984375,3.97027027 C50.984375,1.73063063 49.15625,0 47.0234375,0 C44.7890625,0 43.0625,1.83243243 43.0625,3.97027027 C43.0625,6.20990991 44.890625,7.94054054 47.0234375,7.94054054 Z M47.0234375,1.42522523 C48.34375,1.42522523 49.4609375,2.54504505 49.4609375,3.86846847 C49.4609375,5.19189189 48.34375,6.31171171 47.0234375,6.31171171 C45.703125,6.31171171 44.5859375,5.19189189 44.5859375,3.86846847 C44.5859375,2.54504505 45.703125,1.42522523 47.0234375,1.42522523 Z" id="Shape" fill="#DDDDDD"></path>
                    <path d="M6.1953125,88.0585586 C3.9609375,88.0585586 2.234375,89.890991 2.234375,92.0288288 C2.234375,94.2684685 4.0625,95.9990991 6.1953125,95.9990991 C8.4296875,95.9990991 10.15625,94.1666667 10.15625,92.0288288 C10.2578125,89.890991 8.4296875,88.0585586 6.1953125,88.0585586 Z M6.1953125,94.5738739 C4.875,94.5738739 3.7578125,93.4540541 3.7578125,92.1306306 C3.7578125,90.8072072 4.875,89.5855856 6.1953125,89.5855856 C7.515625,89.5855856 8.6328125,90.7054054 8.6328125,92.0288288 C8.6328125,93.3522523 7.6171875,94.5738739 6.1953125,94.5738739 Z" id="Shape" fill="#DDDDDD"></path>
                    <path d="M13.40625,8.34774775 C13.40625,8.75495495 13.7109375,9.16216216 14.21875,9.16216216 L30.3671875,9.16216216 C30.7734375,9.16216216 31.1796875,8.85675676 31.1796875,8.34774775 C31.1796875,7.83873874 30.875,7.53333333 30.3671875,7.53333333 L14.1171875,7.53333333 C13.7109375,7.53333333 13.40625,7.94054054 13.40625,8.34774775 Z" id="Shape" fill="#DDDDDD"></path>
                    <path d="M3.5546875,9.06036036 L8.734375,9.06036036 C9.140625,9.06036036 9.546875,8.75495495 9.546875,8.24594595 C9.546875,7.73693694 9.2421875,7.43153153 8.734375,7.43153153 L3.5546875,7.43153153 C3.1484375,7.43153153 2.7421875,7.73693694 2.7421875,8.24594595 C2.7421875,8.75495495 3.1484375,9.06036036 3.5546875,9.06036036 Z" id="Shape" fill="#DDDDDD"></path>
                    <path d="M3.5546875,3.56306306 L14.828125,3.56306306 C15.234375,3.56306306 15.640625,3.25765766 15.640625,2.74864865 C15.640625,2.34144144 15.3359375,1.93423423 14.828125,1.93423423 L3.5546875,1.93423423 C3.1484375,1.93423423 2.7421875,2.23963964 2.7421875,2.74864865 C2.84375,3.25765766 3.1484375,3.56306306 3.5546875,3.56306306 Z" id="Shape" fill="#DDDDDD"></path>
                    <path d="M19.703125,3.56306306 L23.359375,3.56306306 C23.765625,3.56306306 24.171875,3.25765766 24.171875,2.74864865 C24.171875,2.34144144 23.8671875,1.93423423 23.359375,1.93423423 L19.703125,1.93423423 C19.296875,1.93423423 18.890625,2.23963964 18.890625,2.74864865 C18.890625,3.25765766 19.296875,3.56306306 19.703125,3.56306306 Z" id="Shape" fill="#DDDDDD"></path>
                    <path d="M112.226562,101.190991 C112.226562,100.783784 111.921875,100.376577 111.414062,100.376577 L95.3671875,100.376577 C94.9609375,100.376577 94.5546875,100.681982 94.5546875,101.190991 C94.5546875,101.598198 94.859375,102.005405 95.3671875,102.005405 L111.515625,102.005405 C111.921875,102.005405 112.226562,101.7 112.226562,101.190991 Z" id="Shape" fill="#DDDDDD"></path>
                    <path d="M121.976562,100.478378 L116.796875,100.478378 C116.390625,100.478378 115.984375,100.783784 115.984375,101.292793 C115.984375,101.7 116.289062,102.107207 116.796875,102.107207 L121.976562,102.107207 C122.382812,102.107207 122.789062,101.801802 122.789062,101.292793 C122.789062,100.783784 122.382812,100.478378 121.976562,100.478378 Z" id="Shape" fill="#DDDDDD"></path>
                    <path d="M121.976562,106.077477 L110.703125,106.077477 C110.296875,106.077477 109.890625,106.382883 109.890625,106.891892 C109.890625,107.299099 110.195312,107.706306 110.703125,107.706306 L121.976562,107.706306 C122.382812,107.706306 122.789062,107.400901 122.789062,106.891892 C122.789062,106.382883 122.382812,106.077477 121.976562,106.077477 Z" id="Shape" fill="#DDDDDD"></path>
                    <path d="M105.929687,106.077477 L102.273437,106.077477 C101.867187,106.077477 101.460937,106.382883 101.460937,106.891892 C101.460937,107.299099 101.765625,107.706306 102.273437,107.706306 L105.929687,107.706306 C106.335937,107.706306 106.742187,107.400901 106.742187,106.891892 C106.640625,106.382883 106.335937,106.077477 105.929687,106.077477 Z" id="Shape" fill="#DDDDDD"></path>
                    <path d="M59.4140625,46.218018 L19.5,46.218018 C19.09375,46.218018 18.6875,46.5234234 18.6875,47.0324324 C18.6875,47.4396396 18.9921875,47.8468468 19.5,47.8468468 L59.3125,47.8468468 C59.71875,47.8468468 60.125,47.5414414 60.125,47.0324324 C60.125,46.5234234 59.8203125,46.218018 59.4140625,46.218018 Z" id="Shape" fill="#EDA9A9"></path>
                    <path d="M53.7265625,55.1765766 L25.1875,55.1765766 C24.78125,55.1765766 24.375,55.481982 24.375,55.990991 C24.375,56.3981982 24.6796875,56.8054054 25.1875,56.8054054 L53.828125,56.8054054 C54.234375,56.8054054 54.640625,56.5 54.640625,55.990991 C54.5390625,55.481982 54.1328125,55.1765766 53.7265625,55.1765766 Z" id="Shape" fill="#EDA9A9"></path>
                    <path d="M59.4140625,37.2594595 L19.5,37.2594595 C19.09375,37.2594595 18.6875,37.5648649 18.6875,38.0738739 C18.6875,38.5828829 18.9921875,38.8882883 19.5,38.8882883 L59.3125,38.8882883 C59.71875,38.8882883 60.125,38.5828829 60.125,38.0738739 C60.125,37.5648649 59.8203125,37.2594595 59.4140625,37.2594595 Z" id="Shape" fill="#EDA9A9"></path>
                </g>
            </g>
        </g>
    </g>
</svg>