<?xml version="1.0" encoding="UTF-8"?>
<svg width="129px" height="114px" viewBox="0 0 129 114" version="1.1" xmlns="http://www.w3.org/2000/svg" xmlns:xlink="http://www.w3.org/1999/xlink">
    <!-- Generator: Sketch 48.1 (47250) - http://www.bohemiancoding.com/sketch -->
    <title>noun_750029_cc</title>
    <desc>Created with Sketch.</desc>
    <defs></defs>
    <g id="Desktop-HD" stroke="none" stroke-width="1" fill="none" fill-rule="evenodd" transform="translate(-1126.000000, -3464.000000)" opacity="0.5">
        <g id="Estágios" transform="translate(185.000000, 2969.000000)" fill-rule="nonzero">
            <g id="noun_750029_cc" transform="translate(941.000000, 495.000000)">
                <g id="Group">
                    <path d="M108.875,17 L16.9609375,17 C14.828125,17 13,18.7303571 13,20.9696429 L13,81.0232143 C13,83.1607143 14.7265625,84.9928571 16.9609375,84.9928571 L47.9375,84.9928571 L46.6171875,93.7464286 L43.46875,93.7464286 C41.9453125,93.7464286 40.625,94.9678571 40.625,96.5964286 L40.625,99.2428571 C40.625,99.65 40.9296875,100.057143 41.4375,100.057143 L84.3984375,100.057143 C84.8046875,100.057143 85.2109375,99.7517857 85.2109375,99.2428571 L85.2109375,96.5964286 C85.2109375,95.0696429 83.9921875,93.7464286 82.3671875,93.7464286 L79.21875,93.7464286 L77.8984375,84.9928571 L108.875,84.9928571 C111.007812,84.9928571 112.835938,83.2625 112.835938,81.0232143 L112.835938,20.9696429 C112.734375,18.7303571 111.007812,17 108.875,17 Z M83.6875,96.4946429 L83.6875,98.3267857 L42.1484375,98.3267857 L42.1484375,96.4946429 C42.1484375,95.7821429 42.7578125,95.1714286 43.46875,95.1714286 L47.2265625,95.1714286 L78.609375,95.1714286 L82.3671875,95.1714286 C83.078125,95.2732143 83.6875,95.7821429 83.6875,96.4946429 Z M77.6953125,93.7464286 L48.140625,93.7464286 L49.4609375,84.9928571 L76.2734375,84.9928571 L77.6953125,93.7464286 Z M111.210937,80.9214286 C111.210937,82.2446429 110.09375,83.3642857 108.773437,83.3642857 L76.984375,83.3642857 L48.8515625,83.3642857 L16.9609375,83.3642857 C15.640625,83.3642857 14.5234375,82.2446429 14.5234375,80.9214286 L14.5234375,20.8678571 C14.5234375,19.5446429 15.640625,18.425 16.9609375,18.425 L108.875,18.425 C110.195312,18.425 111.3125,19.5446429 111.3125,20.8678571 L111.3125,80.9214286 L111.210937,80.9214286 Z" id="Shape" fill="#FE5B5B"></path>
                    <path d="M106.140625,23 L19.8125,23 C19.40625,23 19,23.3053571 19,23.8142857 L19,78.2696429 C19,78.6767857 19.3046875,79.0839286 19.8125,79.0839286 L106.140625,79.0839286 C106.546875,79.0839286 106.953125,78.7785714 106.953125,78.2696429 L106.953125,23.8142857 C106.851562,23.4071429 106.546875,23 106.140625,23 Z M105.328125,77.5571429 L20.5234375,77.5571429 L20.5234375,24.6285714 L105.328125,24.6285714 L105.328125,77.5571429 Z" id="Shape" fill="#FE5B5B"></path>
                    <path d="M58.8125,30.5267857 L63.890625,30.5267857 C64.296875,30.5267857 64.703125,30.2214286 64.703125,29.7125 C64.703125,29.2035714 64.296875,29 63.890625,29 L58.8125,29 C58.40625,29 58,29.3053571 58,29.8142857 C58,30.3232143 58.40625,30.5267857 58.8125,30.5267857 Z" id="Shape" fill="#EDA9A9"></path>
                    <path d="M79.8125,30.5267857 L84.890625,30.5267857 C85.296875,30.5267857 85.703125,30.2214286 85.703125,29.7125 C85.703125,29.2035714 85.296875,29 84.890625,29 L79.8125,29 C79.40625,29 79,29.3053571 79,29.8142857 C79,30.3232143 79.40625,30.5267857 79.8125,30.5267857 Z" id="Shape" fill="#EDA9A9"></path>
                    <path d="M99.8125,30.6285714 L102.554688,30.6285714 C102.960938,30.6285714 103.367188,30.3232143 103.367188,29.8142857 C103.367188,29.3053571 103.0625,29 102.554688,29 L99.8125,29 C99.40625,29 99,29.3053571 99,29.8142857 C99,30.3232143 99.40625,30.6285714 99.8125,30.6285714 Z" id="Shape" fill="#EDA9A9"></path>
                    <path d="M69.7109375,30.5267857 L74.7890625,30.5267857 C75.1953125,30.5267857 75.6015625,30.2214286 75.6015625,29.7125 C75.6015625,29.2035714 75.296875,29 74.890625,29 L69.8125,29 C69.40625,29 69,29.3053571 69,29.8142857 C69,30.3232143 69.3046875,30.5267857 69.7109375,30.5267857 Z" id="Shape" fill="#EDA9A9"></path>
                    <path d="M89.8125,30.5267857 L94.890625,30.5267857 C95.296875,30.5267857 95.703125,30.2214286 95.703125,29.7125 C95.703125,29.2035714 95.296875,29 94.890625,29 L89.8125,29 C89.40625,29 89,29.3053571 89,29.8142857 C89,30.3232143 89.40625,30.5267857 89.8125,30.5267857 Z" id="Shape" fill="#EDA9A9"></path>
                    <path d="M35.8125,35.6285714 L40.890625,35.6285714 C41.296875,35.6285714 41.703125,35.3232143 41.703125,34.8142857 C41.703125,34.3053571 41.3984375,34 40.890625,34 L35.8125,34 C35.40625,34 35,34.3053571 35,34.8142857 C35,35.3232143 35.40625,35.6285714 35.8125,35.6285714 Z" id="Shape" fill="#EDA9A9"></path>
                    <path d="M45.8125,35.6285714 L50.6875,35.6285714 C51.09375,35.6285714 51.5,35.3232143 51.5,34.8142857 C51.5,34.3053571 51.1953125,34 50.6875,34 L45.8125,34 C45.40625,34 45,34.3053571 45,34.8142857 C45,35.3232143 45.40625,35.6285714 45.8125,35.6285714 Z" id="Shape" fill="#EDA9A9"></path>
                    <path d="M25.8125,35.6285714 L30.890625,35.6285714 C31.296875,35.6285714 31.703125,35.3232143 31.703125,34.8142857 C31.703125,34.3053571 31.3984375,34 30.890625,34 L25.8125,34 C25.40625,34 25,34.3053571 25,34.8142857 C25,35.3232143 25.3046875,35.6285714 25.8125,35.6285714 Z" id="Shape" fill="#EDA9A9"></path>
                    <path d="M78.6875,64 L73.8125,64 C73.40625,64 73,64.3053571 73,64.8142857 C73,65.2214286 73.3046875,65.6285714 73.8125,65.6285714 L78.6875,65.6285714 C79.09375,65.6285714 79.5,65.3232143 79.5,64.8142857 C79.5,64.3053571 79.1953125,64 78.6875,64 Z" id="Shape" fill="#EDA9A9"></path>
                    <path d="M93,64.8142857 C93,65.2214286 93.3046875,65.6285714 93.8125,65.6285714 L98.890625,65.6285714 C99.296875,65.6285714 99.703125,65.3232143 99.703125,64.8142857 C99.703125,64.4071429 99.3984375,64 98.890625,64 L93.8125,64 C93.3046875,64 93,64.3053571 93,64.8142857 Z" id="Shape" fill="#EDA9A9"></path>
                    <path d="M83,64.8142857 C83,65.2214286 83.3046875,65.6285714 83.8125,65.6285714 L88.890625,65.6285714 C89.296875,65.6285714 89.703125,65.3232143 89.703125,64.8142857 C89.703125,64.4071429 89.3984375,64 88.890625,64 L83.8125,64 C83.3046875,64 83,64.3053571 83,64.8142857 Z" id="Shape" fill="#EDA9A9"></path>
                    <path d="M98.921875,70 L91.8125,70 C91.40625,70 91,70.3053571 91,70.8142857 C91,71.2214286 91.3046875,71.6285714 91.8125,71.6285714 L98.921875,71.6285714 C99.328125,71.6285714 99.734375,71.3232143 99.734375,70.8142857 C99.734375,70.3053571 99.328125,70 98.921875,70 Z" id="Shape" fill="#EDA9A9"></path>
                    <path d="M87.921875,70 L80.8125,70 C80.40625,70 80,70.3053571 80,70.8142857 C80,71.2214286 80.3046875,71.6285714 80.8125,71.6285714 L87.921875,71.6285714 C88.328125,71.6285714 88.734375,71.3232143 88.734375,70.8142857 C88.6328125,70.3053571 88.328125,70 87.921875,70 Z" id="Shape" fill="#EDA9A9"></path>
                    <path d="M76.921875,70 L69.8125,70 C69.40625,70 69,70.3053571 69,70.8142857 C69,71.2214286 69.3046875,71.6285714 69.8125,71.6285714 L76.921875,71.6285714 C77.328125,71.6285714 77.734375,71.3232143 77.734375,70.8142857 C77.734375,70.3053571 77.4296875,70 76.921875,70 Z" id="Shape" fill="#EDA9A9"></path>
                    <path d="M46.875,70 L42.8125,70 C42.40625,70 42,70.3053571 42,70.8142857 C42,71.2214286 42.3046875,71.6285714 42.8125,71.6285714 L46.875,71.6285714 C47.28125,71.6285714 47.6875,71.3232143 47.6875,70.8142857 C47.5859375,70.3053571 47.28125,70 46.875,70 Z" id="Shape" fill="#EDA9A9"></path>
                    <path d="M30.875,70 L26.8125,70 C26.40625,70 26,70.3053571 26,70.8142857 C26,71.2214286 26.3046875,71.6285714 26.8125,71.6285714 L30.875,71.6285714 C31.28125,71.6285714 31.6875,71.3232143 31.6875,70.8142857 C31.6875,70.3053571 31.28125,70 30.875,70 Z" id="Shape" fill="#EDA9A9"></path>
                    <path d="M34.8125,71.6285714 L38.875,71.6285714 C39.28125,71.6285714 39.6875,71.3232143 39.6875,70.8142857 C39.6875,70.4071429 39.3828125,70 38.875,70 L34.8125,70 C34.40625,70 34,70.3053571 34,70.8142857 C34.1015625,71.2214286 34.40625,71.6285714 34.8125,71.6285714 Z" id="Shape" fill="#EDA9A9"></path>
                    <path d="M51,70.8142857 C51,71.2214286 51.3046875,71.6285714 51.8125,71.6285714 L52.5234375,71.6285714 C52.9296875,71.6285714 53.3359375,71.3232143 53.3359375,70.8142857 C53.3359375,70.4071429 53.03125,70 52.5234375,70 L51.8125,70 C51.40625,70.1017857 51,70.4071429 51,70.8142857 Z" id="Shape" fill="#EDA9A9"></path>
                    <path d="M75.1771588,43.3297857 C74.9740338,43.7369286 75.0755963,44.1440714 75.3802838,44.3476429 L86.1459088,51.0655 L75.3802838,57.7833571 C74.9740338,57.9869286 74.8724713,58.4958571 75.1771588,58.8012143 C75.2787213,59.0047857 75.5834088,59.2083571 75.7865338,59.2083571 C75.8880963,59.2083571 76.0912213,59.2083571 76.1927838,59.1065714 L88.0755963,51.778 C88.2787213,51.6762143 88.4818463,51.3708571 88.4818463,51.1672857 C88.4818463,50.9637143 88.3802838,50.6583571 88.0755963,50.5565714 L76.1927838,43.228 C75.8880963,42.8208571 75.3802838,43.0244286 75.1771588,43.3297857 Z" id="Shape" fill="#FE5B5B"></path>
                    <path d="M51.3046875,43.3811196 C51.1015625,42.9739768 50.59375,42.8721911 50.2890625,43.1775482 L38.40625,50.5061196 C38.203125,50.6079053 38,50.9132625 38,51.1168339 C38,51.3204053 38.1015625,51.6257625 38.40625,51.7275482 L50.2890625,59.0561196 C50.390625,59.1579053 50.59375,59.1579053 50.6953125,59.1579053 C51,59.1579053 51.203125,59.0561196 51.3046875,58.7507625 C51.5078125,58.3436196 51.40625,57.9364768 51.1015625,57.7329053 L40.3359375,51.0150482 L51.1015625,44.2971911 C51.5078125,44.1954053 51.609375,43.7882625 51.3046875,43.3811196 Z" id="Shape" fill="#FE5B5B"></path>
                    <path d="M58.4859369,62.8545692 C58.5874994,62.8545692 58.6890619,62.8545692 58.7906244,62.8545692 C59.0953119,62.8545692 59.3999994,62.6509978 59.5015619,62.3456406 L67.9312494,40.0545692 C68.0328119,39.6474263 67.9312494,39.2402835 67.5249994,39.036712 C67.1187494,38.9349263 66.7124994,39.036712 66.5093744,39.4438549 L58.0796869,61.7349263 C57.8765619,62.2438549 58.0796869,62.6509978 58.4859369,62.8545692 Z" id="Shape" fill="#FE5B5B"></path>
                    <path d="M5.625,34.8142857 C5.625,34.4071429 5.3203125,34 4.8125,34 C4.40625,34 4,34.3053571 4,34.8142857 L4,46.3160714 C4,46.7232143 4.3046875,47.1303571 4.8125,47.1303571 C5.21875,47.1303571 5.625,46.825 5.625,46.3160714 L5.625,34.8142857 Z" id="Shape" fill="#DDDDDD"></path>
                    <path d="M4.8125,49 C4.40625,49 4,49.3053571 4,49.8142857 L4,53.4785714 C4,53.8857143 4.3046875,54.2928571 4.8125,54.2928571 C5.21875,54.2928571 5.625,53.9875 5.625,53.4785714 L5.625,49.8142857 C5.5234375,49.3053571 5.21875,49 4.8125,49 Z" id="Shape" fill="#DDDDDD"></path>
                    <path d="M121.625,61.8142857 C121.625,61.4071429 121.320312,61 120.8125,61 C120.304688,61 120,61.3053571 120,61.8142857 L120,73.3160714 C120,73.7232143 120.304688,74.1303571 120.8125,74.1303571 C121.320312,74.1303571 121.625,73.825 121.625,73.3160714 L121.625,61.8142857 Z" id="Shape" fill="#DDDDDD"></path>
                    <path d="M120.8125,76 C120.40625,76 120,76.3053571 120,76.8142857 L120,80.4785714 C120,80.8857143 120.304688,81.2928571 120.8125,81.2928571 C121.320312,81.2928571 121.625,80.9875 121.625,80.4785714 L121.625,76.8142857 C121.523438,76.3053571 121.21875,76 120.8125,76 Z" id="Shape" fill="#DDDDDD"></path>
                    <path d="M120.345703,95.2290179 C120.041016,94.9236607 119.533203,94.9236607 119.228516,95.2290179 C118.923828,95.534375 118.923828,96.0433036 119.228516,96.3486607 L120.955078,98.0790179 C121.056641,98.1808036 121.259766,98.2825893 121.462891,98.2825893 C121.666016,98.2825893 121.869141,98.1808036 121.970703,98.0790179 C122.275391,97.7736607 122.275391,97.2647321 121.970703,96.959375 L120.345703,95.2290179 Z" id="Shape" fill="#DDDDDD"></path>
                    <path d="M125.345703,101.229018 C125.041016,100.923661 124.533203,100.923661 124.228516,101.229018 C123.923828,101.534375 123.923828,102.043304 124.228516,102.348661 L125.955078,104.079018 C126.056641,104.180804 126.259766,104.282589 126.462891,104.282589 C126.666016,104.282589 126.869141,104.180804 126.970703,104.079018 C127.275391,103.773661 127.275391,103.264732 126.970703,102.959375 L125.345703,101.229018 Z" id="Shape" fill="#DDDDDD"></path>
                    <path d="M120.955078,101.229018 L119.228516,102.959375 C118.923828,103.264732 118.923828,103.773661 119.228516,104.079018 C119.330078,104.180804 119.533203,104.282589 119.736328,104.282589 C119.939453,104.282589 120.142578,104.180804 120.244141,104.079018 L121.970703,102.348661 C122.275391,102.043304 122.275391,101.534375 121.970703,101.229018 C121.767578,100.923661 121.259766,100.923661 120.955078,101.229018 Z" id="Shape" fill="#DDDDDD"></path>
                    <path d="M125.955078,95.2290179 L124.228516,96.959375 C123.923828,97.2647321 123.923828,97.7736607 124.228516,98.0790179 C124.330078,98.1808036 124.533203,98.2825893 124.736328,98.2825893 C124.939453,98.2825893 125.142578,98.1808036 125.244141,98.0790179 L126.970703,96.3486607 C127.275391,96.0433036 127.275391,95.534375 126.970703,95.2290179 C126.666016,94.9236607 126.259766,94.9236607 125.955078,95.2290179 Z" id="Shape" fill="#DDDDDD"></path>
                    <path d="M52.3457031,104.229018 C52.0410156,103.923661 51.5332031,103.923661 51.2285156,104.229018 C50.9238281,104.534375 50.9238281,105.043304 51.2285156,105.348661 L52.9550781,107.079018 C53.0566406,107.180804 53.2597656,107.282589 53.4628906,107.282589 C53.6660156,107.282589 53.8691406,107.180804 53.9707031,107.079018 C54.2753906,106.773661 54.2753906,106.264732 53.9707031,105.959375 L52.3457031,104.229018 Z" id="Shape" fill="#DDDDDD"></path>
                    <path d="M58.3457031,110.229018 C58.0410156,109.923661 57.5332031,109.923661 57.2285156,110.229018 C56.9238281,110.534375 56.9238281,111.043304 57.2285156,111.348661 L58.9550781,113.079018 C59.0566406,113.180804 59.2597656,113.282589 59.4628906,113.282589 C59.6660156,113.282589 59.8691406,113.180804 59.9707031,113.079018 C60.2753906,112.773661 60.2753906,112.264732 59.9707031,111.959375 L58.3457031,110.229018 Z" id="Shape" fill="#DDDDDD"></path>
                    <path d="M52.9550781,110.229018 L51.2285156,111.959375 C50.9238281,112.264732 50.9238281,112.773661 51.2285156,113.079018 C51.3300781,113.180804 51.5332031,113.282589 51.7363281,113.282589 C51.9394531,113.282589 52.1425781,113.180804 52.2441406,113.079018 L53.9707031,111.348661 C54.2753906,111.043304 54.2753906,110.534375 53.9707031,110.229018 C53.7675781,109.923661 53.2597656,109.923661 52.9550781,110.229018 Z" id="Shape" fill="#DDDDDD"></path>
                    <path d="M58.9550781,104.229018 L57.2285156,105.959375 C56.9238281,106.264732 56.9238281,106.773661 57.2285156,107.079018 C57.3300781,107.180804 57.5332031,107.282589 57.7363281,107.282589 C57.9394531,107.282589 58.1425781,107.180804 58.2441406,107.079018 L59.9707031,105.348661 C60.2753906,105.043304 60.2753906,104.534375 59.9707031,104.229018 C59.6660156,103.923661 59.2597656,103.923661 58.9550781,104.229018 Z" id="Shape" fill="#DDDDDD"></path>
                    <path d="M4.05664062,3.07901786 C4.15820312,3.18080357 4.36132812,3.28258929 4.56445312,3.28258929 C4.76757812,3.28258929 4.97070312,3.18080357 5.07226562,3.07901786 C5.37695312,2.77366071 5.37695312,2.26473214 5.07226562,1.959375 L3.34570312,0.229017857 C3.04101562,-0.0763392857 2.53320312,-0.0763392857 2.22851562,0.229017857 C1.92382812,0.534375 1.92382812,1.04330357 2.22851562,1.34866071 L4.05664062,3.07901786 Z" id="Shape" fill="#DDDDDD"></path>
                    <path d="M10.0566406,9.07901786 C10.1582031,9.18080357 10.3613281,9.28258929 10.5644531,9.28258929 C10.7675781,9.28258929 10.9707031,9.18080357 11.0722656,9.07901786 C11.3769531,8.77366071 11.3769531,8.26473214 11.0722656,7.959375 L9.34570312,6.22901786 C9.04101562,5.92366071 8.53320312,5.92366071 8.22851562,6.22901786 C7.92382812,6.534375 7.92382812,7.04330357 8.22851562,7.34866071 L10.0566406,9.07901786 Z" id="Shape" fill="#DDDDDD"></path>
                    <path d="M2.83789062,9.384375 C3.04101562,9.384375 3.24414062,9.28258929 3.34570312,9.18080357 L5.07226562,7.34866071 C5.37695312,7.04330357 5.37695312,6.534375 5.07226562,6.22901786 C4.76757812,5.92366071 4.25976562,5.92366071 3.95507812,6.22901786 L2.22851562,7.959375 C1.92382812,8.26473214 1.92382812,8.77366071 2.22851562,9.07901786 C2.43164062,9.28258929 2.63476562,9.384375 2.83789062,9.384375 Z" id="Shape" fill="#DDDDDD"></path>
                    <path d="M8.83789062,3.28258929 C9.04101562,3.28258929 9.24414062,3.18080357 9.34570312,3.07901786 L11.0722656,1.34866071 C11.3769531,1.04330357 11.3769531,0.534375 11.0722656,0.229017857 C10.7675781,-0.0763392857 10.2597656,-0.0763392857 9.95507812,0.229017857 L8.22851562,1.959375 C7.92382812,2.26473214 7.92382812,2.77366071 8.22851562,3.07901786 C8.43164062,3.28258929 8.63476562,3.28258929 8.83789062,3.28258929 Z" id="Shape" fill="#DDDDDD"></path>
                    <path d="M73.0566406,6.07901786 C73.1582031,6.18080357 73.3613281,6.28258929 73.5644531,6.28258929 C73.7675781,6.28258929 73.9707031,6.18080357 74.0722656,6.07901786 C74.3769531,5.77366071 74.3769531,5.26473214 74.0722656,4.959375 L72.3457031,3.22901786 C72.0410156,2.92366071 71.5332031,2.92366071 71.2285156,3.22901786 C70.9238281,3.534375 70.9238281,4.04330357 71.2285156,4.34866071 L73.0566406,6.07901786 Z" id="Shape" fill="#DDDDDD"></path>
                    <path d="M79.0566406,12.0790179 C79.1582031,12.1808036 79.3613281,12.2825893 79.5644531,12.2825893 C79.7675781,12.2825893 79.9707031,12.1808036 80.0722656,12.0790179 C80.3769531,11.7736607 80.3769531,11.2647321 80.0722656,10.959375 L78.3457031,9.22901786 C78.0410156,8.92366071 77.5332031,8.92366071 77.2285156,9.22901786 C76.9238281,9.534375 76.9238281,10.0433036 77.2285156,10.3486607 L79.0566406,12.0790179 Z" id="Shape" fill="#DDDDDD"></path>
                    <path d="M71.8378906,12.2825893 C72.0410156,12.2825893 72.2441406,12.1808036 72.3457031,12.0790179 L74.0722656,10.3486607 C74.3769531,10.0433036 74.3769531,9.534375 74.0722656,9.22901786 C73.7675781,8.92366071 73.2597656,8.92366071 72.9550781,9.22901786 L71.2285156,10.959375 C70.9238281,11.2647321 70.9238281,11.7736607 71.2285156,12.0790179 C71.5332031,12.2825893 71.6347656,12.2825893 71.8378906,12.2825893 Z" id="Shape" fill="#DDDDDD"></path>
                    <path d="M77.8378906,6.28258929 C78.0410156,6.28258929 78.2441406,6.18080357 78.3457031,6.07901786 L80.0722656,4.34866071 C80.3769531,4.04330357 80.3769531,3.534375 80.0722656,3.22901786 C79.7675781,2.92366071 79.2597656,2.92366071 78.9550781,3.22901786 L77.2285156,4.959375 C76.9238281,5.26473214 76.9238281,5.77366071 77.2285156,6.07901786 C77.4316406,6.18080357 77.6347656,6.28258929 77.8378906,6.28258929 Z" id="Shape" fill="#DDDDDD"></path>
                    <path d="M41.859375,8.73571429 C43.9921875,8.73571429 45.71875,7.00535714 45.71875,4.86785714 C45.71875,2.73035714 43.9921875,1 41.859375,1 C39.7265625,1 38,2.73035714 38,4.86785714 C38,7.00535714 39.7265625,8.73571429 41.859375,8.73571429 Z M41.859375,2.52678571 C43.1796875,2.52678571 44.1953125,3.54464286 44.1953125,4.86785714 C44.1953125,6.19107143 43.1796875,7.20892857 41.859375,7.20892857 C40.5390625,7.20892857 39.5234375,6.19107143 39.5234375,4.86785714 C39.5234375,3.54464286 40.5390625,2.52678571 41.859375,2.52678571 Z" id="Shape" fill="#DDDDDD"></path>
                    <path d="M98.859375,93 C96.7265625,93 95,94.7303571 95,96.8678571 C95,99.0053571 96.7265625,100.735714 98.859375,100.735714 C100.992187,100.735714 102.71875,99.0053571 102.71875,96.8678571 C102.71875,94.7303571 100.992187,93 98.859375,93 Z M98.859375,99.2089286 C97.5390625,99.2089286 96.5234375,98.1910714 96.5234375,96.8678571 C96.5234375,95.5446429 97.5390625,94.5267857 98.859375,94.5267857 C100.179688,94.5267857 101.195312,95.5446429 101.195312,96.8678571 C101.195312,98.1910714 100.179688,99.2089286 98.859375,99.2089286 Z" id="Shape" fill="#DDDDDD"></path>
                    <path d="M124.859375,31 C122.726562,31 121,32.7303571 121,34.8678571 C121,37.0053571 122.726562,38.7357143 124.859375,38.7357143 C126.992187,38.7357143 128.71875,37.0053571 128.71875,34.8678571 C128.71875,32.7303571 126.992187,31 124.859375,31 Z M124.859375,37.2089286 C123.539062,37.2089286 122.523438,36.1910714 122.523438,34.8678571 C122.523438,33.5446429 123.539062,32.5267857 124.859375,32.5267857 C126.179688,32.5267857 127.195312,33.5446429 127.195312,34.8678571 C127.195312,36.1910714 126.179688,37.2089286 124.859375,37.2089286 Z" id="Shape" fill="#DDDDDD"></path>
                    <path d="M102.8125,2.62857143 L116.523438,2.62857143 C116.929688,2.62857143 117.335938,2.32321429 117.335938,1.81428571 C117.335938,1.30535714 117.03125,1 116.523438,1 L102.8125,1 C102.40625,1 102,1.30535714 102,1.81428571 C102,2.32321429 102.304688,2.62857143 102.8125,2.62857143 Z" id="Shape" fill="#DDDDDD"></path>
                    <path d="M120.8125,2.62857143 L125.28125,2.62857143 C125.6875,2.62857143 126.09375,2.32321429 126.09375,1.81428571 C126.09375,1.30535714 125.789062,1 125.28125,1 L120.8125,1 C120.40625,1 120,1.30535714 120,1.81428571 C120,2.32321429 120.40625,2.62857143 120.8125,2.62857143 Z" id="Shape" fill="#DDDDDD"></path>
                    <path d="M126.171875,6.81428571 C126.171875,6.40714286 125.867188,6 125.359375,6 L115.8125,6 C115.40625,6 115,6.30535714 115,6.81428571 C115,7.32321429 115.304688,7.62857143 115.8125,7.62857143 L125.359375,7.62857143 C125.867188,7.62857143 126.171875,7.22142857 126.171875,6.81428571 Z" id="Shape" fill="#DDDDDD"></path>
                    <path d="M108.8125,6 C108.40625,6 108,6.30535714 108,6.81428571 C108,7.32321429 108.304688,7.62857143 108.8125,7.62857143 L111.859375,7.62857143 C112.265625,7.62857143 112.671875,7.32321429 112.671875,6.81428571 C112.671875,6.30535714 112.367188,6 111.859375,6 L108.8125,6 Z" id="Shape" fill="#DDDDDD"></path>
                    <path d="M23.5234375,103 L9.8125,103 C9.40625,103 9,103.305357 9,103.814286 C9,104.221429 9.3046875,104.628571 9.8125,104.628571 L23.5234375,104.628571 C23.9296875,104.628571 24.3359375,104.323214 24.3359375,103.814286 C24.234375,103.305357 23.9296875,103 23.5234375,103 Z" id="Shape" fill="#DDDDDD"></path>
                    <path d="M5.1796875,103 L0.8125,103 C0.40625,103 0,103.305357 0,103.814286 C0,104.221429 0.3046875,104.628571 0.8125,104.628571 L5.28125,104.628571 C5.6875,104.628571 6.09375,104.323214 6.09375,103.814286 C5.9921875,103.305357 5.5859375,103 5.1796875,103 Z" id="Shape" fill="#DDDDDD"></path>
                    <path d="M0.8125,99.6285714 L10.359375,99.6285714 C10.765625,99.6285714 11.171875,99.3232143 11.171875,98.8142857 C11.171875,98.4071429 10.8671875,98 10.359375,98 L0.8125,98 C0.40625,98 0,98.3053571 0,98.8142857 C0,99.2214286 0.3046875,99.6285714 0.8125,99.6285714 Z" id="Shape" fill="#DDDDDD"></path>
                    <path d="M17.859375,99.6285714 C18.265625,99.6285714 18.671875,99.3232143 18.671875,98.8142857 C18.671875,98.4071429 18.3671875,98 17.859375,98 L14.8125,98 C14.40625,98 14,98.3053571 14,98.8142857 C14,99.2214286 14.3046875,99.6285714 14.8125,99.6285714 L17.859375,99.6285714 Z" id="Shape" fill="#DDDDDD"></path>
                </g>
            </g>
        </g>
    </g>
</svg>