<?xml version="1.0" encoding="UTF-8"?>
<svg width="279px" height="255px" viewBox="0 0 279 255" version="1.1" xmlns="http://www.w3.org/2000/svg" xmlns:xlink="http://www.w3.org/1999/xlink">
    <!-- Generator: Sketch 48.1 (47250) - http://www.bohemiancoding.com/sketch -->
    <title>noun_749584_cc</title>
    <desc>Created with Sketch.</desc>
    <defs></defs>
    <g id="Desktop-HD" stroke="none" stroke-width="1" fill="none" fill-rule="evenodd" transform="translate(-226.000000, -1102.000000)" opacity="0.5">
        <g id="Conteúdo" transform="translate(-17.000000, 611.000000)" fill-rule="nonzero">
            <g id="noun_749584_cc" transform="translate(243.000000, 491.000000)">
                <g id="Group">
                    <path d="M242.6875,164.758974 C243.5625,164.758974 244.4375,164.102564 244.4375,163.008547 L244.4375,140.034188 C244.4375,139.158974 243.78125,138.283761 242.6875,138.283761 C241.8125,138.283761 240.9375,138.940171 240.9375,140.034188 L240.9375,163.22735 C241.15625,164.102564 241.8125,164.758974 242.6875,164.758974 Z" id="Shape" fill="#EEEEEE"></path>
                    <path d="M241.15625,178.324786 C241.15625,179.2 241.8125,180.075214 242.90625,180.075214 C243.78125,180.075214 244.65625,179.418803 244.65625,178.324786 L244.65625,170.88547 C244.65625,170.010256 244,169.135043 242.90625,169.135043 C242.03125,169.135043 241.15625,169.791453 241.15625,170.88547 L241.15625,178.324786 Z" id="Shape" fill="#EEEEEE"></path>
                    <path d="M107.5,32.1641026 C108.375,32.1641026 109.25,31.5076923 109.25,30.4136752 L109.25,7.22051282 C109.25,6.34529915 108.59375,5.47008547 107.5,5.47008547 C106.625,5.47008547 105.75,6.12649573 105.75,7.22051282 L105.75,30.6324786 C105.96875,31.5076923 106.625,32.1641026 107.5,32.1641026 Z" id="Shape" fill="#EEEEEE"></path>
                    <path d="M107.5,47.2615385 C108.375,47.2615385 109.25,46.6051282 109.25,45.5111111 L109.25,38.0717949 C109.25,37.1965812 108.59375,36.3213675 107.5,36.3213675 C106.625,36.3213675 105.75,36.9777778 105.75,38.0717949 L105.75,45.5111111 C105.96875,46.6051282 106.625,47.2615385 107.5,47.2615385 Z" id="Shape" fill="#EEEEEE"></path>
                    <path d="M139.875,53.825641 C140.09375,54.0444444 140.53125,54.2632479 140.96875,54.2632479 C141.40625,54.2632479 141.84375,54.0444444 142.0625,53.825641 C142.71875,53.1692308 142.71875,52.0752137 142.0625,51.4188034 L138.78125,48.1367521 C138.125,47.4803419 137.03125,47.4803419 136.375,48.1367521 C135.71875,48.7931624 135.71875,49.8871795 136.375,50.5435897 L139.875,53.825641 Z" id="Shape" fill="#EEEEEE"></path>
                    <path d="M149.9375,59.0769231 C149.28125,58.4205128 148.1875,58.4205128 147.53125,59.0769231 C146.875,59.7333333 146.875,60.8273504 147.53125,61.4837607 L151.03125,64.9846154 C151.25,65.2034188 151.6875,65.4222222 152.125,65.4222222 C152.5625,65.4222222 153,65.2034188 153.21875,64.9846154 C153.875,64.3282051 153.875,63.234188 153.21875,62.5777778 L149.9375,59.0769231 Z" id="Shape" fill="#EEEEEE"></path>
                    <path d="M137.6875,65.4222222 C138.125,65.4222222 138.5625,65.2034188 138.78125,64.9846154 L142.28125,61.4837607 C142.9375,60.8273504 142.9375,59.7333333 142.28125,59.0769231 C141.625,58.4205128 140.53125,58.4205128 139.875,59.0769231 L136.375,62.5777778 C135.71875,63.234188 135.71875,64.3282051 136.375,64.9846154 C136.8125,65.2034188 137.25,65.4222222 137.6875,65.4222222 Z" id="Shape" fill="#EEEEEE"></path>
                    <path d="M153.4375,48.1367521 C152.78125,47.4803419 151.6875,47.4803419 151.03125,48.1367521 L147.53125,51.6376068 C146.875,52.2940171 146.875,53.3880342 147.53125,54.0444444 C147.75,54.2632479 148.1875,54.4820513 148.625,54.4820513 C149.0625,54.4820513 149.5,54.2632479 149.71875,54.0444444 L153.21875,50.5435897 C154.09375,49.6683761 154.09375,48.7931624 153.4375,48.1367521 Z" id="Shape" fill="#EEEEEE"></path>
                    <path d="M250.125,98.0239316 L246.625,94.5230769 C245.96875,93.8666667 244.875,93.8666667 244.21875,94.5230769 C243.5625,95.1794872 243.5625,96.2735043 244.21875,96.9299145 L247.71875,100.430769 C247.9375,100.649573 248.375,100.868376 248.8125,100.868376 C249.25,100.868376 249.6875,100.649573 249.90625,100.430769 C250.78125,99.774359 250.78125,98.6803419 250.125,98.0239316 Z" id="Shape" fill="#EEEEEE"></path>
                    <path d="M255.375,108.088889 L258.875,111.589744 C259.09375,111.808547 259.53125,112.02735 259.96875,112.02735 C260.40625,112.02735 260.84375,111.808547 261.0625,111.589744 C261.71875,110.933333 261.71875,109.839316 261.0625,109.182906 L257.5625,105.682051 C256.90625,105.025641 255.8125,105.025641 255.15625,105.682051 C254.71875,106.338462 254.71875,107.432479 255.375,108.088889 Z" id="Shape" fill="#EEEEEE"></path>
                    <path d="M250.125,105.682051 C249.46875,105.025641 248.375,105.025641 247.71875,105.682051 L244.21875,109.182906 C243.5625,109.839316 243.5625,110.933333 244.21875,111.589744 C244.4375,111.808547 244.875,112.02735 245.3125,112.02735 C245.75,112.02735 246.1875,111.808547 246.40625,111.589744 L249.90625,108.088889 C250.78125,107.432479 250.78125,106.338462 250.125,105.682051 Z" id="Shape" fill="#EEEEEE"></path>
                    <path d="M256.46875,100.868376 C256.90625,100.868376 257.34375,100.649573 257.5625,100.430769 L261.0625,96.9299145 C261.71875,96.2735043 261.71875,95.1794872 261.0625,94.5230769 C260.40625,93.8666667 259.3125,93.8666667 258.65625,94.5230769 L255.15625,98.0239316 C254.5,98.6803419 254.5,99.774359 255.15625,100.430769 C255.8125,100.649573 256.03125,100.868376 256.46875,100.868376 Z" id="Shape" fill="#EEEEEE"></path>
                    <path d="M2.9375,115.747009 C2.28125,115.090598 1.1875,115.090598 0.53125,115.747009 C-0.125,116.403419 -0.125,117.497436 0.53125,118.153846 L4.03125,121.654701 C4.25,121.873504 4.6875,122.092308 5.125,122.092308 C5.5625,122.092308 6,121.873504 6.21875,121.654701 C6.875,120.998291 6.875,119.904274 6.21875,119.247863 L2.9375,115.747009 Z" id="Shape" fill="#EEEEEE"></path>
                    <path d="M13.875,126.687179 C13.21875,126.030769 12.125,126.030769 11.46875,126.687179 C10.8125,127.34359 10.8125,128.437607 11.46875,129.094017 L14.96875,132.594872 C15.1875,132.813675 15.625,133.032479 16.0625,133.032479 C16.5,133.032479 16.9375,132.813675 17.15625,132.594872 C17.8125,131.938462 17.8125,130.844444 17.15625,130.188034 L13.875,126.687179 Z" id="Shape" fill="#EEEEEE"></path>
                    <path d="M4.03125,126.687179 L0.53125,130.188034 C-0.125,130.844444 -0.125,131.938462 0.53125,132.594872 C0.75,132.813675 1.1875,133.032479 1.625,133.032479 C2.0625,133.032479 2.5,132.813675 2.71875,132.594872 L6.21875,129.094017 C6.875,128.437607 6.875,127.34359 6.21875,126.687179 C5.78125,126.030769 4.6875,126.030769 4.03125,126.687179 Z" id="Shape" fill="#EEEEEE"></path>
                    <path d="M17.375,115.747009 C16.71875,115.090598 15.625,115.090598 14.96875,115.747009 L11.46875,119.247863 C10.8125,119.904274 10.8125,120.998291 11.46875,121.654701 C11.6875,121.873504 12.125,122.092308 12.5625,122.092308 C13,122.092308 13.4375,121.873504 13.65625,121.654701 L17.15625,118.153846 C18.03125,117.278632 18.03125,116.403419 17.375,115.747009 Z" id="Shape" fill="#EEEEEE"></path>
                    <path d="M202,232.806838 C201.34375,232.150427 200.25,232.150427 199.59375,232.806838 C198.9375,233.463248 198.9375,234.557265 199.59375,235.213675 L203.09375,238.71453 C203.3125,238.933333 203.75,239.152137 204.1875,239.152137 C204.625,239.152137 205.0625,238.933333 205.28125,238.71453 C205.9375,238.05812 205.9375,236.964103 205.28125,236.307692 L202,232.806838 Z" id="Shape" fill="#EEEEEE"></path>
                    <path d="M213.15625,243.747009 C212.5,243.090598 211.40625,243.090598 210.75,243.747009 C210.09375,244.403419 210.09375,245.497436 210.75,246.153846 L214.25,249.654701 C214.46875,249.873504 214.90625,250.092308 215.34375,250.092308 C215.78125,250.092308 216.21875,249.873504 216.4375,249.654701 C217.09375,248.998291 217.09375,247.904274 216.4375,247.247863 L213.15625,243.747009 Z" id="Shape" fill="#EEEEEE"></path>
                    <path d="M203.09375,243.747009 L199.59375,247.247863 C198.9375,247.904274 198.9375,248.998291 199.59375,249.654701 C199.8125,249.873504 200.25,250.092308 200.6875,250.092308 C201.125,250.092308 201.5625,249.873504 201.78125,249.654701 L205.28125,246.153846 C205.9375,245.497436 205.9375,244.403419 205.28125,243.747009 C204.84375,243.090598 203.75,243.090598 203.09375,243.747009 Z" id="Shape" fill="#EEEEEE"></path>
                    <path d="M214.25,232.806838 L210.75,236.307692 C210.09375,236.964103 210.09375,238.05812 210.75,238.71453 C210.96875,238.933333 211.40625,239.152137 211.84375,239.152137 C212.28125,239.152137 212.71875,238.933333 212.9375,238.71453 L216.4375,235.213675 C217.09375,234.557265 217.09375,233.463248 216.4375,232.806838 C215.78125,232.150427 214.90625,232.150427 214.25,232.806838 Z" id="Shape" fill="#EEEEEE"></path>
                    <path d="M218.40625,121.654701 C213.8125,121.654701 210.09375,125.374359 210.09375,129.969231 C210.09375,134.564103 213.8125,138.283761 218.40625,138.283761 C223,138.283761 226.71875,134.564103 226.71875,129.969231 C226.71875,125.374359 223,121.654701 218.40625,121.654701 Z M218.40625,135.220513 C215.5625,135.220513 213.375,133.032479 213.375,130.188034 C213.375,127.34359 215.5625,125.155556 218.40625,125.155556 C221.25,125.155556 223.4375,127.34359 223.4375,130.188034 C223.4375,132.813675 221.25,135.220513 218.40625,135.220513 Z" id="Shape" fill="#EEEEEE"></path>
                    <path d="M17.59375,220.116239 C13,220.116239 9.28125,223.835897 9.28125,228.430769 C9.28125,233.025641 13,236.745299 17.59375,236.745299 C22.1875,236.745299 25.90625,233.025641 25.90625,228.430769 C25.90625,224.054701 22.1875,220.116239 17.59375,220.116239 Z M17.59375,233.682051 C14.75,233.682051 12.5625,231.494017 12.5625,228.649573 C12.5625,225.805128 14.75,223.617094 17.59375,223.617094 C20.4375,223.617094 22.625,225.805128 22.625,228.649573 C22.625,231.275214 20.4375,233.682051 17.59375,233.682051 Z" id="Shape" fill="#EEEEEE"></path>
                    <path d="M163.9375,12.2529915 L193.03125,12.2529915 C193.90625,12.2529915 194.78125,11.5965812 194.78125,10.5025641 C194.78125,9.40854701 194.125,8.75213675 193.03125,8.75213675 L163.9375,8.75213675 C163.0625,8.75213675 162.1875,9.40854701 162.1875,10.5025641 C162.1875,11.5965812 163.0625,12.2529915 163.9375,12.2529915 Z" id="Shape" fill="#EEEEEE"></path>
                    <path d="M144.90625,12.2529915 L154.3125,12.2529915 C155.1875,12.2529915 156.0625,11.5965812 156.0625,10.5025641 C156.0625,9.40854701 155.40625,8.75213675 154.3125,8.75213675 L144.90625,8.75213675 C144.03125,8.75213675 143.15625,9.40854701 143.15625,10.5025641 C143.15625,11.5965812 144.03125,12.2529915 144.90625,12.2529915 Z" id="Shape" fill="#EEEEEE"></path>
                    <path d="M144.90625,22.3179487 L165.25,22.3179487 C166.125,22.3179487 167,21.6615385 167,20.5675214 C167,19.6923077 166.34375,18.817094 165.25,18.817094 L144.90625,18.817094 C144.03125,18.817094 143.15625,19.4735043 143.15625,20.5675214 C143.375,21.6615385 144.03125,22.3179487 144.90625,22.3179487 Z" id="Shape" fill="#EEEEEE"></path>
                    <path d="M174,19.0358974 C173.125,19.0358974 172.25,19.6923077 172.25,20.7863248 C172.25,21.6615385 172.90625,22.5367521 174,22.5367521 L180.5625,22.5367521 C181.4375,22.5367521 182.3125,21.8803419 182.3125,20.7863248 C182.3125,19.9111111 181.65625,19.0358974 180.5625,19.0358974 L174,19.0358974 Z" id="Shape" fill="#EEEEEE"></path>
                    <path d="M257.34375,215.521368 L228.25,215.521368 C227.375,215.521368 226.5,216.177778 226.5,217.271795 C226.5,218.147009 227.15625,219.022222 228.25,219.022222 L257.34375,219.022222 C258.21875,219.022222 259.09375,218.365812 259.09375,217.271795 C258.875,216.177778 258.21875,215.521368 257.34375,215.521368 Z" id="Shape" fill="#EEEEEE"></path>
                    <path d="M276.15625,215.521368 L266.75,215.521368 C265.875,215.521368 265,216.177778 265,217.271795 C265,218.147009 265.65625,219.022222 266.75,219.022222 L276.15625,219.022222 C277.03125,219.022222 277.90625,218.365812 277.90625,217.271795 C277.90625,216.177778 277.25,215.521368 276.15625,215.521368 Z" id="Shape" fill="#EEEEEE"></path>
                    <path d="M254.28125,207.206838 C254.28125,208.082051 254.9375,208.957265 256.03125,208.957265 L276.375,208.957265 C277.25,208.957265 278.125,208.300855 278.125,207.206838 C278.125,206.112821 277.46875,205.45641 276.375,205.45641 L256.03125,205.45641 C254.9375,205.45641 254.28125,206.331624 254.28125,207.206838 Z" id="Shape" fill="#EEEEEE"></path>
                    <path d="M238.96875,207.206838 C238.96875,208.082051 239.625,208.957265 240.71875,208.957265 L247.28125,208.957265 C248.15625,208.957265 249.03125,208.300855 249.03125,207.206838 C249.03125,206.112821 248.375,205.45641 247.28125,205.45641 L240.71875,205.45641 C239.84375,205.45641 238.96875,206.331624 238.96875,207.206838 Z" id="Shape" fill="#EEEEEE"></path>
                    <path d="M183.625,118.153846 C183.1875,117.497436 182.09375,117.278632 181.4375,117.716239 C180.78125,118.153846 180.5625,119.247863 181,119.904274 C184.0625,124.499145 186.90625,129.531624 188.875,134.782906 C193.03125,144.847863 195,155.569231 195.21875,166.290598 C195.21875,177.449573 193.03125,188.608547 188.65625,198.892308 L188.4375,199.329915 C188.21875,199.548718 188.21875,199.986325 188,200.205128 C188,200.205128 188,200.205128 188,200.205128 C188,200.205128 188,200.205128 188,200.205128 C186.6875,203.268376 185.15625,206.112821 183.625,208.738462 C180.34375,214.646154 176.1875,219.897436 171.375,224.929915 C170.9375,225.367521 170.5,225.805128 169.84375,226.461538 C168.09375,228.211966 166.34375,229.74359 164.59375,231.275214 C158.03125,236.745299 150.8125,240.902564 143.15625,244.184615 C133.09375,248.34188 122.59375,250.311111 111.65625,250.529915 C100.5,250.529915 89.5625,248.34188 79.0625,243.965812 C68.5625,239.589744 59.375,233.244444 51.5,225.367521 C43.84375,217.709402 37.9375,208.519658 33.78125,198.454701 C29.625,188.17094 27.4375,177.668376 27.4375,166.728205 C27.4375,155.569231 29.625,144.62906 34,134.126496 C37.28125,126.468376 41.4375,119.466667 46.6875,113.340171 C48.4375,110.933333 50.625,108.745299 52.8125,106.557265 C57.625,101.74359 63.09375,97.5863248 69,94.3042735 C71.625,92.7726496 74.6875,91.2410256 77.53125,89.9282051 C77.53125,89.9282051 77.53125,89.9282051 77.53125,89.9282051 C77.53125,89.9282051 77.53125,89.9282051 77.53125,89.9282051 C78.1875,89.7094017 78.84375,89.2717949 79.5,89.0529915 C89.5625,84.8957265 100.28125,82.9264957 111,82.9264957 C122.15625,82.9264957 133.09375,85.1145299 143.59375,89.4905983 C153.65625,93.6478632 162.625,99.774359 170.5,107.432479 L156.28125,121.654701 C150.375,115.747009 143.59375,111.152137 135.9375,108.088889 C128.0625,104.806838 119.53125,103.05641 111.21875,103.05641 C105.75,103.05641 100.28125,103.931624 94.8125,105.244444 C94.8125,105.244444 94.8125,105.244444 94.8125,105.244444 C94.8125,105.244444 94.8125,105.244444 94.8125,105.244444 C94.8125,105.244444 94.8125,105.244444 94.8125,105.244444 C92.40625,105.900855 90,106.776068 87.15625,107.870085 C86.28125,108.307692 85.625,108.526496 84.75,108.964103 C78.1875,112.02735 72.28125,115.965812 67.03125,120.998291 C67.03125,120.998291 66.8125,121.217094 66.8125,121.217094 C64.625,123.405128 62.4375,125.811966 60.6875,128.218803 C57.40625,132.594872 54.78125,137.189744 52.59375,142.222222 C49.3125,150.099145 47.5625,158.413675 47.5625,166.947009 C47.5625,175.261538 49.09375,183.357265 52.375,190.796581 C55.4375,198.454701 60.03125,205.237607 65.71875,211.145299 C71.625,217.271795 78.625,222.08547 86.5,225.367521 C87.375,225.805128 88.46875,226.242735 89.34375,226.461538 C96.34375,229.087179 103.5625,230.181197 111,230.181197 C111,230.181197 111.21875,230.181197 111.21875,230.181197 C119.53125,230.181197 127.40625,228.649573 135.0625,225.367521 C140.3125,223.179487 145.125,220.335043 149.5,217.052991 C151.46875,215.521368 153.4375,213.989744 155.40625,212.020513 C155.84375,211.582906 156.28125,211.145299 156.71875,210.707692 C161.75,205.675214 165.6875,199.548718 168.75,192.984615 C168.96875,192.328205 169.40625,191.671795 169.625,191.015385 C170.71875,188.389744 171.59375,185.545299 172.46875,182.919658 C172.46875,182.919658 172.46875,182.919658 172.46875,182.919658 C174,177.449573 174.65625,171.760684 174.65625,166.290598 C174.65625,157.976068 173.125,150.099145 169.84375,142.441026 C169.1875,140.909402 168.53125,139.596581 167.875,138.283761 C167.21875,137.189744 166.5625,135.876923 165.90625,134.782906 L165.25,135.220513 L163.28125,136.31453 C163.9375,137.408547 164.59375,138.502564 165.03125,139.596581 C165.6875,140.909402 166.34375,142.222222 166.78125,143.535043 C169.84375,150.755556 171.15625,158.413675 171.375,166.290598 C171.375,171.54188 170.71875,177.011966 169.1875,182.044444 C169.1875,182.044444 169.1875,182.044444 169.1875,182.044444 C169.1875,182.044444 169.1875,182.044444 169.1875,182.044444 C168.53125,184.670085 167.65625,187.295726 166.5625,189.702564 C166.34375,190.358974 166.125,190.796581 165.6875,191.452991 C162.84375,197.798291 158.90625,203.268376 154.3125,208.300855 C153.875,208.738462 153.4375,209.176068 153,209.613675 C151.03125,211.364103 149.28125,213.11453 147.3125,214.42735 C143.15625,217.709402 138.5625,220.335043 133.53125,222.304274 C126.3125,225.367521 118.65625,226.680342 110.78125,226.899145 C102.6875,226.899145 94.8125,225.367521 87.375,222.08547 C79.9375,219.022222 73.15625,214.42735 67.46875,208.519658 C62,203.049573 57.84375,196.48547 54.78125,189.264957 C51.71875,182.044444 50.1875,174.386325 50.1875,166.509402 C50.1875,158.413675 51.71875,150.536752 55,143.097436 C56.96875,138.283761 59.59375,133.907692 62.65625,129.750427 C64.40625,127.34359 66.375,125.155556 68.5625,123.186325 C68.5625,123.186325 68.78125,122.967521 68.78125,122.967521 C73.59375,118.153846 79.28125,114.434188 85.625,111.589744 C86.28125,111.152137 87.15625,110.933333 87.8125,110.495726 C90.4375,109.401709 92.625,108.745299 95.03125,108.088889 C95.03125,108.088889 95.03125,108.088889 95.03125,108.088889 C95.03125,108.088889 95.03125,108.088889 95.03125,108.088889 C100.0625,106.776068 105.3125,106.119658 110.5625,105.900855 C118.4375,105.900855 126.53125,107.432479 133.96875,110.71453 C141.1875,113.777778 147.75,118.153846 153.21875,123.623932 L140.3125,136.533333 C136.375,132.594872 132,129.531624 126.75,127.562393 C122.59375,125.811966 118.21875,124.717949 113.84375,124.499145 C113.84375,124.499145 113.84375,124.499145 113.84375,124.499145 C112.75,124.499145 111.65625,124.280342 110.125,124.280342 C110.125,124.280342 110.125,124.280342 110.125,124.280342 C106.84375,124.280342 103.78125,124.717949 100.9375,125.374359 C98.75,125.811966 96.5625,126.468376 94.375,127.34359 C89.5625,129.312821 85.1875,132.157265 81.25,135.876923 L80.8125,136.31453 C78.625,138.502564 76.65625,140.909402 75.125,143.316239 C73.8125,145.504274 72.5,147.692308 71.625,150.099145 C69.4375,155.350427 68.34375,160.820513 68.34375,166.509402 C68.34375,171.979487 69.4375,177.230769 71.40625,182.263248 C73.375,187.295726 76.4375,191.890598 80.15625,195.82906 C84.09375,199.767521 88.6875,203.049573 93.9375,205.237607 C99.1875,207.425641 104.65625,208.519658 110.125,208.519658 C110.125,208.519658 110.34375,208.519658 110.34375,208.519658 C115.8125,208.519658 121.0625,207.425641 126.09375,205.45641 C128.5,204.362393 130.90625,203.268376 133.09375,201.736752 C133.09375,201.736752 133.3125,201.736752 133.3125,201.517949 C135.71875,199.986325 137.6875,198.235897 139.65625,196.48547 C140.09375,196.047863 140.53125,195.610256 140.75,195.391453 C144.25,191.671795 147.09375,187.51453 149.0625,182.700855 C149.9375,180.512821 150.8125,178.105983 151.25,175.699145 C151.90625,172.635897 152.34375,169.353846 152.34375,166.290598 C152.34375,165.196581 152.34375,164.102564 152.125,163.008547 C152.125,163.008547 152.125,163.008547 152.125,163.008547 C152.125,163.008547 152.125,163.008547 152.125,163.008547 C151.6875,158.632479 150.8125,154.475214 149.0625,150.536752 C148.625,149.661538 147.75,149.223932 146.875,149.661538 C146,150.099145 145.5625,150.974359 146,151.849573 C147.53125,155.350427 148.40625,159.288889 148.84375,163.446154 C148.84375,164.540171 149.0625,165.415385 149.0625,166.509402 C149.0625,169.353846 148.625,172.417094 147.96875,175.261538 C147.53125,177.449573 146.875,179.637607 146,181.606838 C144.25,185.982906 141.625,189.921368 138.34375,193.422222 C138.125,193.859829 137.6875,194.078632 137.25,194.516239 C135.5,196.266667 133.53125,197.798291 131.5625,199.111111 C131.5625,199.111111 131.34375,199.111111 131.34375,199.111111 C129.375,200.423932 127.1875,201.517949 124.78125,202.611966 C119.96875,204.581197 114.9375,205.45641 109.90625,205.45641 C104.875,205.45641 99.84375,204.362393 95.03125,202.393162 C90.21875,200.423932 85.84375,197.360684 82.34375,193.641026 C78.84375,189.921368 76,185.764103 74.25,181.169231 C72.28125,176.355556 71.40625,171.54188 71.40625,166.509402 C71.40625,161.25812 72.5,156.225641 74.46875,151.411966 C75.34375,149.223932 76.4375,147.035897 77.75,145.066667 C79.28125,142.878632 81.03125,140.690598 83,138.502564 L83.4375,138.064957 C86.9375,134.782906 90.875,132.157265 95.46875,130.406838 C97.4375,129.531624 99.40625,128.875214 101.59375,128.437607 C104.21875,127.781197 107.0625,127.562393 110.125,127.34359 C111.4375,127.34359 112.53125,127.34359 113.40625,127.562393 C113.40625,127.562393 113.40625,127.562393 113.40625,127.562393 C113.40625,127.562393 113.40625,127.562393 113.40625,127.562393 C117.34375,127.781197 121.28125,128.875214 125.21875,130.406838 C129.8125,132.376068 133.96875,135.220513 137.6875,138.721368 L121.9375,154.475214 C119.75,152.505983 116.90625,151.193162 114.0625,150.536752 C114.0625,150.536752 114.0625,150.536752 114.0625,150.536752 C105.09375,148.567521 96.34375,153.381197 93.0625,161.695726 C92.1875,163.883761 91.75,166.071795 91.75,168.478632 C91.75,178.54359 100.0625,186.85812 110.125,186.85812 C112.53125,186.85812 114.71875,186.420513 116.90625,185.545299 C116.90625,185.545299 116.90625,185.545299 116.90625,185.545299 C116.90625,185.545299 116.90625,185.545299 116.90625,185.545299 C116.90625,185.545299 116.90625,185.545299 116.90625,185.545299 C116.90625,185.545299 116.90625,185.545299 116.90625,185.545299 C122.59375,183.357265 126.75,178.324786 128.0625,172.198291 C128.28125,171.323077 127.625,170.447863 126.75,170.22906 C125.875,170.010256 125,170.666667 124.78125,171.54188 C123.6875,176.574359 120.40625,180.731624 115.59375,182.482051 C115.59375,182.482051 115.59375,182.482051 115.59375,182.482051 C115.59375,182.482051 115.59375,182.482051 115.59375,182.482051 C113.84375,183.138462 111.875,183.576068 110.125,183.576068 C101.8125,183.576068 95.03125,176.793162 95.03125,168.478632 C95.03125,166.509402 95.46875,164.758974 96.125,163.008547 C98.75,156.225641 105.96875,152.287179 113.40625,153.818803 C113.40625,153.818803 113.40625,153.818803 113.40625,153.818803 C113.40625,153.818803 113.40625,153.818803 113.40625,153.818803 C115.59375,154.25641 117.78125,155.350427 119.53125,156.882051 L109.03125,167.384615 C108.375,168.041026 108.375,169.135043 109.03125,169.791453 C109.25,170.010256 109.6875,170.22906 110.125,170.22906 C110.5625,170.22906 111,170.010256 111.21875,169.791453 L201.34375,80.957265 L223.4375,85.3333333 C223.4375,85.3333333 223.65625,85.3333333 223.65625,85.3333333 C224.09375,85.3333333 224.53125,85.1145299 224.75,84.8957265 L260.84375,48.7931624 C261.28125,48.3555556 261.5,47.6991453 261.28125,47.042735 C261.0625,46.3863248 260.625,45.9487179 259.96875,45.9487179 L238.09375,41.5726496 L233.71875,19.6923077 C233.5,19.0358974 233.0625,18.5982906 232.625,18.3794872 C231.96875,18.1606838 231.3125,18.3794872 230.875,18.817094 L195.21875,55.1384615 C194.78125,55.5760684 194.5625,56.0136752 194.78125,56.6700855 L199.15625,78.7692308 L172.90625,105.025641 C164.8125,96.9299145 155.40625,90.8034188 145.125,86.208547 C134.1875,81.6136752 122.8125,79.2068376 111.21875,79.425641 C100.0625,79.425641 88.90625,81.6136752 78.40625,85.9897436 C77.75,86.208547 76.875,86.6461538 76.21875,86.8649573 C76.21875,86.8649573 76.21875,86.8649573 76.21875,86.8649573 C73.15625,88.1777778 70.09375,89.7094017 67.25,91.4598291 C61.125,94.9606838 55.65625,99.3367521 50.40625,104.369231 C48,106.557265 46.03125,108.964103 44.0625,111.37094 C38.8125,117.716239 34.4375,125.155556 30.9375,133.032479 C26.34375,143.97265 24.15625,155.350427 24.15625,166.947009 C24.15625,178.105983 26.34375,189.264957 30.71875,199.767521 C35.09375,210.270085 41.21875,219.678632 49.09375,227.774359 C57.1875,236.088889 66.8125,242.652991 77.75,247.247863 C88.46875,251.842735 99.84375,254.030769 111.4375,254.030769 C111.4375,254.030769 111.65625,254.030769 111.65625,254.030769 C123.03125,254.030769 133.96875,251.842735 144.46875,247.466667 C152.5625,244.184615 160,239.589744 166.78125,234.119658 C168.75,232.588034 170.5,231.05641 172.25,229.087179 C172.6875,228.649573 173.34375,227.993162 173.78125,227.555556 C178.8125,222.523077 182.96875,216.834188 186.46875,210.926496 C188,208.300855 189.53125,205.237607 191.0625,201.955556 C191.0625,201.955556 191.0625,201.955556 191.0625,201.955556 C191.0625,201.955556 191.0625,201.955556 191.0625,201.955556 C191.0625,201.955556 191.0625,201.955556 191.0625,201.955556 C191.28125,201.517949 191.28125,201.299145 191.5,200.861538 L191.71875,200.423932 C196.3125,189.702564 198.5,178.105983 198.5,166.509402 C198.5,155.350427 196.3125,144.191453 191.9375,133.688889 C189.75,128.218803 186.90625,122.967521 183.625,118.153846 Z M231.53125,23.4119658 L235.46875,43.3230769 C235.6875,43.9794872 236.125,44.417094 236.78125,44.6358974 L256.6875,48.574359 L223.21875,82.0512821 L202.21875,77.8940171 L198.0625,56.8888889 L231.53125,23.4119658 Z" id="Shape" fill="#FE5B5B"></path>
                    <polygon id="Shape" fill="#EEEEEE" points="164.8125 135.65812 165.25 135.220513 166.34375 134.782906"></polygon>
                    <path d="M33.5625,73.7367521 L31.15625,82.7076923 C30.9375,83.582906 31.375,84.4581197 32.25,84.6769231 C32.46875,84.6769231 32.46875,84.6769231 32.6875,84.6769231 C33.34375,84.6769231 34,84.2393162 34.21875,83.3641026 L36.40625,74.3931624 C38.59375,74.8307692 40.78125,75.0495726 42.96875,75.0495726 C48.21875,75.0495726 53.46875,73.7367521 58.28125,71.3299145 L63.09375,79.425641 C63.3125,79.8632479 63.96875,80.3008547 64.40625,80.3008547 C64.625,80.3008547 65.0625,80.3008547 65.28125,80.0820513 C66.15625,79.6444444 66.375,78.5504274 65.9375,77.8940171 L61.125,69.7982906 C67.46875,65.6410256 72.0625,59.5145299 74.25,52.2940171 L83.21875,54.7008547 C83.4375,54.7008547 83.4375,54.7008547 83.65625,54.7008547 C84.3125,54.7008547 84.96875,54.2632479 85.1875,53.3880342 C85.40625,52.5128205 84.96875,51.6376068 84.09375,51.4188034 L75.125,49.0119658 C76.65625,41.5726496 75.5625,33.9145299 72.0625,27.3504274 L80.15625,22.5367521 C81.03125,22.0991453 81.25,21.0051282 80.8125,20.3487179 C80.375,19.4735043 79.28125,19.2547009 78.625,19.6923077 L70.53125,24.5059829 C66.375,18.1606838 60.25,13.565812 53.03125,11.3777778 L55.21875,2.18803419 C55.4375,1.31282051 55,0.437606838 54.125,0.218803419 C53.25,-1.11022302e-16 52.375,0.437606838 52.15625,1.31282051 L49.75,10.2837607 C42.09375,8.75213675 34.4375,10.0649573 28.09375,13.3470085 L23.0625,5.47008547 C22.625,4.59487179 21.53125,4.37606838 20.875,4.81367521 C20,5.25128205 19.78125,6.34529915 20.21875,7.0017094 L25.03125,15.0974359 C18.90625,19.2547009 14.09375,25.1623932 11.90625,32.6017094 L2.9375,30.1948718 C2.0625,29.9760684 1.1875,30.4136752 0.96875,31.2888889 C0.75,32.1641026 1.1875,33.0393162 2.0625,33.2581197 L11.03125,35.6649573 C9.5,43.1042735 10.59375,50.7623932 14.09375,57.3264957 L6,62.1401709 C5.125,62.5777778 4.90625,63.6717949 5.34375,64.3282051 C5.5625,64.765812 6.21875,65.2034188 6.65625,65.2034188 C6.875,65.2034188 7.3125,65.2034188 7.53125,64.9846154 L15.625,60.1709402 C20.21875,66.7350427 26.34375,71.3299145 33.5625,73.7367521 Z M14.75,35.2273504 C18.03125,21.8803419 30.0625,13.1282051 43.1875,13.1282051 C45.59375,13.1282051 48,13.3470085 50.40625,14.0034188 C58.0625,15.9726496 64.40625,20.7863248 68.34375,27.5692308 C72.28125,34.3521368 73.59375,42.2290598 71.625,49.8871795 C69.65625,57.5452991 64.84375,63.8905983 58.0625,67.8290598 C51.28125,71.7675214 43.40625,73.0803419 35.75,71.1111111 C28.09375,69.1418803 21.75,64.3282051 17.8125,57.5452991 C13.875,50.7623932 12.78125,42.6666667 14.75,35.2273504 Z" id="Shape" fill="#EEEEEE"></path>
                    <path d="M38.59375,60.608547 C40.125,61.0461538 41.65625,61.2649573 43.1875,61.2649573 C51.5,61.2649573 59.375,55.5760684 61.5625,47.042735 C64.1875,36.9777778 58.0625,26.6940171 48,24.0683761 C43.1875,22.7555556 38.15625,23.6307692 33.78125,26.0376068 C29.40625,28.6632479 26.34375,32.8205128 25.25,37.634188 C23.9375,42.4478632 24.8125,47.4803419 27.21875,51.8564103 C29.625,56.4512821 33.5625,59.5145299 38.59375,60.608547 Z M28.09375,38.5094017 C29.84375,31.5076923 36.1875,26.6940171 43.1875,26.6940171 C44.5,26.6940171 45.8125,26.9128205 46.90625,27.1316239 C55.21875,29.3196581 60.25,37.634188 58.0625,45.9487179 C55.875,54.2632479 47.5625,59.2957265 39.25,57.1076923 C35.3125,56.0136752 31.8125,53.6068376 29.625,49.8871795 C27.65625,46.8239316 27,42.6666667 28.09375,38.5094017 Z" id="Shape" fill="#EEEEEE"></path>
                </g>
            </g>
        </g>
    </g>
</svg>