<?xml version="1.0" encoding="UTF-8"?>
<svg width="129px" height="136px" viewBox="0 0 129 136" version="1.1" xmlns="http://www.w3.org/2000/svg" xmlns:xlink="http://www.w3.org/1999/xlink">
    <!-- Generator: Sketch 48.1 (47250) - http://www.bohemiancoding.com/sketch -->
    <title>noun_749980_cc</title>
    <desc>Created with Sketch.</desc>
    <defs></defs>
    <g id="Desktop-HD" stroke="none" stroke-width="1" fill="none" fill-rule="evenodd" transform="translate(-1125.000000, -3700.000000)" opacity="0.5">
        <g id="Estágios" transform="translate(185.000000, 2969.000000)" fill-rule="nonzero">
            <g id="Group-23" transform="translate(560.000000, 700.000000)">
                <g id="noun_749980_cc" transform="translate(380.000000, 31.000000)">
                    <g id="Group">
                        <path d="M120.942623,34.425 C120.622951,34.74375 120.622951,35.275 120.942623,35.59375 L122.540984,37.1875 C122.647541,37.29375 122.860656,37.4 123.07377,37.4 C123.286885,37.4 123.5,37.29375 123.606557,37.1875 C123.92623,36.86875 123.92623,36.3375 123.606557,36.01875 L122.008197,34.425 C121.795082,34.10625 121.262295,34.10625 120.942623,34.425 Z" id="Shape" fill="#DDDDDD"></path>
                        <path d="M127.229508,39.525 C126.909836,39.20625 126.377049,39.20625 126.057377,39.525 C125.737705,39.84375 125.737705,40.375 126.057377,40.69375 L127.655738,42.2875 C127.762295,42.39375 127.97541,42.5 128.188525,42.5 C128.401639,42.5 128.614754,42.39375 128.721311,42.2875 C129.040984,41.96875 129.040984,41.4375 128.721311,41.11875 L127.229508,39.525 Z" id="Shape" fill="#DDDDDD"></path>
                        <path d="M122.540984,39.525 L120.942623,41.11875 C120.622951,41.4375 120.622951,41.96875 120.942623,42.2875 C121.04918,42.39375 121.262295,42.5 121.47541,42.5 C121.688525,42.5 121.901639,42.39375 122.008197,42.2875 L123.606557,40.69375 C123.92623,40.375 123.92623,39.84375 123.606557,39.525 C123.393443,39.20625 122.860656,39.20625 122.540984,39.525 Z" id="Shape" fill="#DDDDDD"></path>
                        <path d="M126.590164,37.4 C126.803279,37.4 127.016393,37.29375 127.122951,37.1875 L128.721311,35.59375 C129.040984,35.275 129.040984,34.74375 128.721311,34.425 C128.401639,34.10625 127.868852,34.10625 127.54918,34.425 L125.95082,36.01875 C125.631148,36.3375 125.631148,36.86875 125.95082,37.1875 C126.163934,37.29375 126.377049,37.4 126.590164,37.4 Z" id="Shape" fill="#DDDDDD"></path>
                        <path d="M51.7868852,127.5 C51.4672131,127.18125 50.9344262,127.18125 50.6147541,127.5 C50.295082,127.81875 50.295082,128.35 50.6147541,128.66875 L52.2131148,130.2625 C52.3196721,130.36875 52.5327869,130.475 52.7459016,130.475 C52.9590164,130.475 53.1721311,130.36875 53.2786885,130.2625 C53.5983607,129.94375 53.5983607,129.4125 53.2786885,129.09375 L51.7868852,127.5 Z" id="Shape" fill="#DDDDDD"></path>
                        <path d="M56.9016393,132.49375 C56.5819672,132.175 56.0491803,132.175 55.7295082,132.49375 C55.4098361,132.8125 55.4098361,133.34375 55.7295082,133.6625 L57.3278689,135.25625 C57.4344262,135.3625 57.647541,135.46875 57.8606557,135.46875 C58.0737705,135.46875 58.2868852,135.3625 58.3934426,135.25625 C58.7131148,134.9375 58.7131148,134.40625 58.3934426,134.0875 L56.9016393,132.49375 Z" id="Shape" fill="#DDDDDD"></path>
                        <path d="M52.2131148,132.49375 L50.6147541,134.0875 C50.295082,134.40625 50.295082,134.9375 50.6147541,135.25625 C50.7213115,135.3625 50.9344262,135.46875 51.147541,135.46875 C51.3606557,135.46875 51.5737705,135.3625 51.6803279,135.25625 L53.2786885,133.6625 C53.5983607,133.34375 53.5983607,132.8125 53.2786885,132.49375 C53.0655738,132.175 52.5327869,132.175 52.2131148,132.49375 Z" id="Shape" fill="#DDDDDD"></path>
                        <path d="M57.3278689,127.5 L55.7295082,129.09375 C55.4098361,129.4125 55.4098361,129.94375 55.7295082,130.2625 C55.8360656,130.36875 56.0491803,130.475 56.2622951,130.475 C56.4754098,130.475 56.6885246,130.36875 56.795082,130.2625 L58.3934426,128.66875 C58.7131148,128.35 58.7131148,127.81875 58.3934426,127.5 C58.1803279,127.18125 57.647541,127.18125 57.3278689,127.5 Z" id="Shape" fill="#DDDDDD"></path>
                        <path d="M43.6885246,3.50625 C43.795082,3.6125 44.0081967,3.71875 44.2213115,3.71875 C44.4344262,3.71875 44.647541,3.6125 44.7540984,3.50625 C45.0737705,3.1875 45.0737705,2.65625 44.7540984,2.3375 L43.1557377,0.74375 C42.8360656,0.425 42.3032787,0.425 41.9836066,0.74375 C41.6639344,1.0625 41.6639344,1.59375 41.9836066,1.9125 L43.6885246,3.50625 Z" id="Shape" fill="#DDDDDD"></path>
                        <path d="M48.8032787,8.5 C48.9098361,8.60625 49.1229508,8.7125 49.3360656,8.7125 C49.5491803,8.7125 49.7622951,8.60625 49.8688525,8.5 C50.1885246,8.18125 50.1885246,7.65 49.8688525,7.33125 L48.2704918,5.7375 C47.9508197,5.41875 47.4180328,5.41875 47.0983607,5.7375 C46.7786885,6.05625 46.7786885,6.5875 47.0983607,6.90625 L48.8032787,8.5 Z" id="Shape" fill="#DDDDDD"></path>
                        <path d="M42.7295082,8.81875 C42.942623,8.81875 43.1557377,8.7125 43.2622951,8.60625 L44.8606557,7.0125 C45.1803279,6.69375 45.1803279,6.1625 44.8606557,5.84375 C44.5409836,5.525 44.0081967,5.525 43.6885246,5.84375 L42.0901639,7.4375 C41.7704918,7.75625 41.7704918,8.2875 42.0901639,8.60625 C42.3032787,8.7125 42.5163934,8.81875 42.7295082,8.81875 Z" id="Shape" fill="#DDDDDD"></path>
                        <path d="M47.7377049,3.71875 C47.9508197,3.71875 48.1639344,3.6125 48.2704918,3.50625 L49.8688525,1.9125 C50.1885246,1.59375 50.1885246,1.0625 49.8688525,0.74375 C49.5491803,0.425 49.0163934,0.425 48.6967213,0.74375 L47.0983607,2.3375 C46.8852459,2.65625 46.8852459,3.1875 47.204918,3.50625 C47.4180328,3.6125 47.5245902,3.71875 47.7377049,3.71875 Z" id="Shape" fill="#DDDDDD"></path>
                        <path d="M14.8114754,98.6 C14.4918033,98.28125 13.9590164,98.28125 13.6393443,98.6 C13.3196721,98.91875 13.3196721,99.45 13.6393443,99.76875 L15.2377049,101.3625 C15.3442623,101.46875 15.557377,101.575 15.7704918,101.575 C15.9836066,101.575 16.1967213,101.46875 16.3032787,101.3625 C16.6229508,101.04375 16.6229508,100.5125 16.3032787,100.19375 L14.8114754,98.6 Z" id="Shape" fill="#DDDDDD"></path>
                        <path d="M19.9262295,103.7 C19.6065574,103.38125 19.0737705,103.38125 18.7540984,103.7 C18.4344262,104.01875 18.4344262,104.55 18.7540984,104.86875 L20.352459,106.4625 C20.4590164,106.56875 20.6721311,106.675 20.8852459,106.675 C21.0983607,106.675 21.3114754,106.56875 21.4180328,106.4625 C21.7377049,106.14375 21.7377049,105.6125 21.4180328,105.29375 L19.9262295,103.7 Z" id="Shape" fill="#DDDDDD"></path>
                        <path d="M15.2377049,103.7 L13.6393443,105.29375 C13.3196721,105.6125 13.3196721,106.14375 13.6393443,106.4625 C13.7459016,106.56875 13.9590164,106.675 14.1721311,106.675 C14.3852459,106.675 14.5983607,106.56875 14.704918,106.4625 L16.3032787,104.86875 C16.6229508,104.55 16.6229508,104.01875 16.3032787,103.7 C16.0901639,103.38125 15.557377,103.38125 15.2377049,103.7 Z" id="Shape" fill="#DDDDDD"></path>
                        <path d="M20.352459,98.6 L18.7540984,100.19375 C18.4344262,100.5125 18.4344262,101.04375 18.7540984,101.3625 C18.8606557,101.46875 19.0737705,101.575 19.2868852,101.575 C19.5,101.575 19.7131148,101.46875 19.8196721,101.3625 L21.4180328,99.76875 C21.7377049,99.45 21.7377049,98.91875 21.4180328,98.6 C21.0983607,98.28125 20.6721311,98.28125 20.352459,98.6 Z" id="Shape" fill="#DDDDDD"></path>
                        <path d="M12.4672131,39.63125 C12.4672131,39.20625 12.147541,38.78125 11.6147541,38.78125 C11.0819672,38.78125 10.7622951,39.1 10.7622951,39.63125 L10.7622951,51.10625 C10.7622951,51.53125 11.0819672,51.95625 11.6147541,51.95625 C12.147541,51.95625 12.4672131,51.6375 12.4672131,51.10625 L12.4672131,39.63125 Z" id="Shape" fill="#DDDDDD"></path>
                        <path d="M11.7213115,55.675 C11.295082,55.675 10.8688525,55.99375 10.8688525,56.525 L10.8688525,60.66875 C10.8688525,61.09375 11.1885246,61.51875 11.7213115,61.51875 C12.2540984,61.51875 12.5737705,61.2 12.5737705,60.66875 L12.5737705,56.525 C12.4672131,56.1 12.147541,55.675 11.7213115,55.675 Z" id="Shape" fill="#DDDDDD"></path>
                        <path d="M120.409836,87.3375 C120.409836,86.9125 120.090164,86.4875 119.557377,86.4875 C119.131148,86.4875 118.704918,86.80625 118.704918,87.3375 L118.704918,98.8125 C118.704918,99.2375 119.02459,99.6625 119.557377,99.6625 C119.983607,99.6625 120.409836,99.34375 120.409836,98.8125 L120.409836,87.3375 Z" id="Shape" fill="#DDDDDD"></path>
                        <path d="M119.557377,103.4875 C119.131148,103.4875 118.704918,103.80625 118.704918,104.3375 L118.704918,108.48125 C118.704918,108.90625 119.02459,109.33125 119.557377,109.33125 C119.983607,109.33125 120.409836,109.0125 120.409836,108.48125 L120.409836,104.3375 C120.409836,103.80625 119.983607,103.4875 119.557377,103.4875 Z" id="Shape" fill="#DDDDDD"></path>
                        <path d="M118.172131,12.64375 C120.729508,12.64375 122.860656,10.51875 122.860656,7.96875 C122.860656,5.41875 120.729508,3.29375 118.172131,3.29375 C115.614754,3.29375 113.483607,5.41875 113.483607,7.96875 C113.483607,10.51875 115.614754,12.64375 118.172131,12.64375 Z M118.172131,4.8875 C119.877049,4.8875 121.262295,6.26875 121.262295,7.96875 C121.262295,9.66875 119.877049,11.05 118.172131,11.05 C116.467213,11.05 115.081967,9.66875 115.081967,7.96875 C115.081967,6.26875 116.467213,4.8875 118.172131,4.8875 Z" id="Shape" fill="#DDDDDD"></path>
                        <path d="M11.7213115,121.44375 C9.69672131,121.44375 7.99180328,123.14375 7.99180328,125.1625 C7.99180328,127.18125 9.69672131,128.88125 11.7213115,128.88125 C13.7459016,128.88125 15.4508197,127.18125 15.4508197,125.1625 C15.3442623,123.0375 13.7459016,121.44375 11.7213115,121.44375 Z M11.7213115,127.18125 C10.5491803,127.18125 9.59016393,126.225 9.59016393,125.05625 C9.59016393,123.8875 10.5491803,122.93125 11.7213115,122.93125 C12.8934426,122.93125 13.852459,123.8875 13.852459,125.05625 C13.7459016,126.225 12.7868852,127.18125 11.7213115,127.18125 Z" id="Shape" fill="#DDDDDD"></path>
                        <path d="M26.7459016,22.3125 L11.7213115,22.3125 C11.295082,22.3125 10.8688525,22.63125 10.8688525,23.1625 C10.8688525,23.5875 11.1885246,24.0125 11.7213115,24.0125 L26.852459,24.0125 C27.2786885,24.0125 27.704918,23.69375 27.704918,23.1625 C27.5983607,22.63125 27.2786885,22.3125 26.7459016,22.3125 Z" id="Shape" fill="#DDDDDD"></path>
                        <path d="M6.71311475,22.3125 L1.81147541,22.3125 C1.3852459,22.3125 1.06557377,22.63125 1.06557377,23.05625 C1.06557377,23.48125 1.3852459,23.90625 1.91803279,23.90625 L6.81967213,23.90625 C7.24590164,23.90625 7.67213115,23.5875 7.67213115,23.05625 C7.45901639,22.63125 7.13934426,22.3125 6.71311475,22.3125 Z" id="Shape" fill="#DDDDDD"></path>
                        <path d="M1.81147541,18.7 L12.3606557,18.7 C12.7868852,18.7 13.2131148,18.38125 13.2131148,17.85 C13.2131148,17.425 12.8934426,17 12.3606557,17 L1.81147541,17 C1.3852459,17 0.959016393,17.31875 0.959016393,17.85 C1.06557377,18.38125 1.3852459,18.7 1.81147541,18.7 Z" id="Shape" fill="#DDDDDD"></path>
                        <path d="M16.8360656,18.7 L20.2459016,18.7 C20.6721311,18.7 21.0983607,18.38125 21.0983607,17.85 C21.0983607,17.425 20.7786885,17 20.2459016,17 L16.8360656,17 C16.4098361,17 15.9836066,17.31875 15.9836066,17.85 C16.0901639,18.38125 16.4098361,18.7 16.8360656,18.7 Z" id="Shape" fill="#DDDDDD"></path>
                        <path d="M115.827869,128.03125 C115.827869,127.60625 115.508197,127.18125 114.97541,127.18125 L99.8442623,127.18125 C99.4180328,127.18125 98.9918033,127.5 98.9918033,128.03125 C98.9918033,128.45625 99.3114754,128.88125 99.8442623,128.88125 L114.97541,128.88125 C115.401639,128.775 115.827869,128.45625 115.827869,128.03125 Z" id="Shape" fill="#DDDDDD"></path>
                        <path d="M124.885246,127.18125 L119.983607,127.18125 C119.557377,127.18125 119.131148,127.5 119.131148,128.03125 C119.131148,128.45625 119.45082,128.88125 119.983607,128.88125 L124.885246,128.88125 C125.311475,128.88125 125.737705,128.5625 125.737705,128.03125 C125.631148,127.60625 125.311475,127.18125 124.885246,127.18125 Z" id="Shape" fill="#DDDDDD"></path>
                        <path d="M124.885246,132.3875 L114.336066,132.3875 C113.909836,132.3875 113.483607,132.70625 113.483607,133.2375 C113.483607,133.6625 113.803279,134.0875 114.336066,134.0875 L124.885246,134.0875 C125.311475,134.0875 125.737705,133.76875 125.737705,133.2375 C125.631148,132.70625 125.311475,132.3875 124.885246,132.3875 Z" id="Shape" fill="#DDDDDD"></path>
                        <path d="M109.754098,132.3875 L106.344262,132.3875 C105.918033,132.3875 105.491803,132.70625 105.491803,133.2375 C105.491803,133.6625 105.811475,134.0875 106.344262,134.0875 L109.754098,134.0875 C110.180328,134.0875 110.606557,133.76875 110.606557,133.2375 C110.606557,132.70625 110.180328,132.3875 109.754098,132.3875 Z" id="Shape" fill="#DDDDDD"></path>
                        <path d="M100.909836,116.6625 L100.909836,92.8625 C100.909836,92.8625 100.909836,92.8625 100.909836,92.8625 L101.122951,92.11875 C101.229508,91.48125 101.442623,90.84375 101.54918,90.20625 C101.655738,89.78125 101.336066,89.35625 100.909836,89.25 C100.483607,89.14375 100.057377,89.4625 99.9508197,89.8875 C99.8442623,90.525 99.6311475,91.1625 99.5245902,91.69375 L99.4180328,92.225 C99.3114754,92.33125 99.3114754,92.4375 99.3114754,92.65 L99.3114754,106.0375 L36.3360656,106.0375 L36.3360656,92.8625 C36.3360656,92.8625 36.3360656,92.8625 36.3360656,92.75625 L36.5491803,92.0125 C36.6557377,91.375 36.8688525,90.7375 36.9754098,90.1 C37.0819672,89.675 36.7622951,89.25 36.3360656,89.14375 C35.9098361,89.0375 35.4836066,89.35625 35.3770492,89.78125 C35.2704918,90.41875 35.057377,91.05625 34.9508197,91.5875 L34.8442623,92.225 C34.7377049,92.33125 34.7377049,92.4375 34.7377049,92.54375 L34.7377049,116.55625 C34.7377049,118.89375 36.6557377,120.9125 39.1065574,120.9125 L96.647541,120.9125 C98.9918033,121.01875 100.909836,119.10625 100.909836,116.6625 Z M96.647541,119.425 L39.1065574,119.425 C37.6147541,119.425 36.3360656,118.25625 36.3360656,116.6625 L36.3360656,107.63125 L99.3114754,107.63125 L99.3114754,116.6625 C99.3114754,118.15 98.1393443,119.425 96.647541,119.425 Z" id="Shape" fill="#FE5B5B"></path>
                        <path d="M76.4016393,111.03125 L59.352459,111.03125 C58.0737705,111.03125 57.0081967,112.09375 57.0081967,113.36875 L57.0081967,113.79375 C57.0081967,115.06875 58.0737705,116.13125 59.352459,116.13125 L76.5081967,116.13125 C77.7868852,116.13125 78.852459,115.06875 78.852459,113.79375 L78.852459,113.36875 C78.7459016,112.09375 77.6803279,111.03125 76.4016393,111.03125 Z M77.147541,113.79375 C77.147541,114.21875 76.8278689,114.5375 76.4016393,114.5375 L59.352459,114.5375 C58.9262295,114.5375 58.6065574,114.21875 58.6065574,113.79375 L58.6065574,113.36875 C58.6065574,112.94375 58.9262295,112.625 59.352459,112.625 L76.5081967,112.625 C76.9344262,112.625 77.2540984,112.94375 77.2540984,113.36875 L77.2540984,113.79375 L77.147541,113.79375 Z" id="Shape" fill="#EDA9A9"></path>
                        <path d="M61.1639344,21.25 L74.5901639,21.25 C75.0163934,21.25 75.442623,20.93125 75.442623,20.4 C75.442623,19.975 75.1229508,19.55 74.5901639,19.55 L61.1639344,19.55 C60.7377049,19.55 60.3114754,19.86875 60.3114754,20.4 C60.4180328,20.93125 60.7377049,21.25 61.1639344,21.25 Z" id="Shape" fill="#EDA9A9"></path>
                        <path d="M97.1803279,47.6 C97.5,47.6 97.7131148,47.49375 97.9262295,47.175 C98.7786885,45.58125 99.6311475,43.88125 100.270492,41.8625 C100.377049,41.4375 100.163934,41.0125 99.7377049,40.90625 C99.3114754,40.8 98.8852459,41.0125 98.7786885,41.4375 C98.2459016,43.35 97.3934426,44.8375 96.5409836,46.43125 C96.3278689,46.85625 96.4344262,47.28125 96.8606557,47.49375 C96.8606557,47.6 97.0737705,47.6 97.1803279,47.6 Z" id="Shape" fill="#FE5B5B"></path>
                        <path d="M100.163934,80.00625 L100.163934,80.1125 C100.483607,81.70625 100.590164,83.19375 100.590164,84.575 C100.590164,84.89375 100.590164,85.10625 100.590164,85.425 C100.590164,85.85 100.909836,86.275 101.336066,86.275 C101.336066,86.275 101.336066,86.275 101.336066,86.275 C101.762295,86.275 102.081967,85.95625 102.188525,85.53125 C102.188525,85.2125 102.188525,85 102.188525,84.68125 C102.188525,83.19375 102.081967,81.6 101.762295,79.9 L101.762295,79.79375 C101.655738,79.36875 101.229508,79.05 100.803279,79.15625 C100.377049,79.15625 100.057377,79.58125 100.163934,80.00625 Z" id="Shape" fill="#FE5B5B"></path>
                        <path d="M99.0983607,75.75625 C99.204918,76.075 99.5245902,76.2875 99.8442623,76.2875 C99.9508197,76.2875 100.057377,76.2875 100.163934,76.2875 C100.590164,76.18125 100.803279,75.65 100.696721,75.225 C99.9508197,72.99375 98.9918033,71.4 98.1393443,70.01875 C97.9262295,69.59375 97.3934426,69.4875 97.0737705,69.80625 C96.647541,70.01875 96.5409836,70.55 96.8606557,70.86875 C97.5,72.25 98.352459,73.63125 99.0983607,75.75625 Z" id="Shape" fill="#FE5B5B"></path>
                        <path d="M95.4754098,50.15 C95.0491803,50.04375 94.6229508,50.15 94.4098361,50.575 C93.6639344,52.38125 93.2377049,54.29375 93.1311475,56.3125 C93.1311475,56.7375 93.4508197,57.1625 93.8770492,57.1625 C93.8770492,57.1625 93.8770492,57.1625 93.9836066,57.1625 C94.4098361,57.1625 94.7295082,56.84375 94.7295082,56.41875 C94.942623,54.50625 95.2622951,52.80625 95.9016393,51.10625 C96.1147541,50.7875 95.9016393,50.3625 95.4754098,50.15 Z" id="Shape" fill="#FE5B5B"></path>
                        <path d="M93.8770492,60.1375 C93.4508197,60.1375 93.1311475,60.5625 93.1311475,60.9875 C93.2377049,63.21875 93.6639344,65.025 94.4098361,66.725 C94.5163934,67.04375 94.8360656,67.25625 95.1557377,67.25625 C95.2622951,67.25625 95.3688525,67.25625 95.4754098,67.15 C95.9016393,66.9375 96.1147541,66.5125 95.9016393,66.0875 C95.2622951,64.6 94.942623,62.9 94.8360656,60.775 C94.7295082,60.45625 94.3032787,60.1375 93.8770492,60.1375 Z" id="Shape" fill="#FE5B5B"></path>
                        <path d="M34.7377049,34.53125 C34.7377049,34.85 34.7377049,35.0625 34.7377049,35.38125 C34.7377049,36.01875 34.7377049,36.55 34.7377049,37.1875 C34.7377049,37.6125 35.057377,38.0375 35.4836066,38.0375 C35.4836066,38.0375 35.4836066,38.0375 35.4836066,38.0375 C35.9098361,38.0375 36.2295082,37.71875 36.3360656,37.29375 C36.3360656,36.65625 36.3360656,36.01875 36.3360656,35.38125 C36.3360656,35.0625 36.3360656,34.85 36.3360656,34.53125 C36.3360656,34.53125 36.3360656,34.53125 36.3360656,34.53125 L36.3360656,28.2625 L99.3114754,28.2625 L99.3114754,34.6375 C99.3114754,34.6375 99.3114754,34.6375 99.3114754,34.6375 C99.4180328,35.4875 99.4180328,36.44375 99.3114754,37.1875 C99.3114754,37.6125 99.6311475,38.0375 100.057377,38.0375 C100.057377,38.0375 100.057377,38.0375 100.057377,38.0375 C100.483607,38.0375 100.803279,37.71875 100.909836,37.29375 C100.909836,36.44375 100.909836,35.59375 100.909836,34.74375 C100.909836,34.74375 100.909836,34.74375 100.909836,34.74375 L100.909836,17.53125 C100.909836,15.19375 98.9918033,13.175 96.5409836,13.175 L39,13.175 C36.6557377,13.175 34.6311475,15.0875 34.6311475,17.53125 L34.7377049,34.53125 C34.7377049,34.53125 34.7377049,34.53125 34.7377049,34.53125 C34.7377049,34.53125 34.7377049,34.53125 34.7377049,34.53125 Z M39.1065574,14.76875 L96.647541,14.76875 C98.1393443,14.76875 99.3114754,15.9375 99.3114754,17.53125 L99.3114754,26.5625 L36.3360656,26.5625 L36.3360656,17.53125 C36.3360656,16.04375 37.6147541,14.76875 39.1065574,14.76875 Z" id="Shape" fill="#FE5B5B"></path>
                        <path d="M36.8688525,86.275 C36.8688525,86.275 36.8688525,86.275 36.8688525,86.275 C37.295082,86.275 37.7213115,85.95625 37.7213115,85.53125 C37.7213115,85.2125 37.7213115,85 37.7213115,84.68125 C37.7213115,83.19375 37.6147541,81.6 37.295082,79.9 L37.295082,79.79375 C37.1885246,79.36875 36.7622951,79.05 36.3360656,79.15625 C35.9098361,79.2625 35.5901639,79.6875 35.6967213,80.1125 L35.6967213,80.21875 C36.0163934,81.8125 36.1229508,83.3 36.1229508,84.68125 C36.1229508,85 36.1229508,85.2125 36.1229508,85.53125 C36.0163934,85.85 36.442623,86.275 36.8688525,86.275 Z" id="Shape" fill="#FE5B5B"></path>
                        <path d="M35.4836066,76.18125 C35.9098361,76.075 36.1229508,75.54375 36.0163934,75.11875 C35.2704918,72.8875 34.3114754,71.4 33.4590164,69.9125 C33.2459016,69.4875 32.7131148,69.38125 32.3934426,69.7 C31.9672131,69.9125 31.8606557,70.44375 32.1803279,70.7625 C33.0327869,72.14375 33.8852459,73.63125 34.6311475,75.65 C34.7377049,75.96875 35.057377,76.18125 35.3770492,76.18125 C35.3770492,76.2875 35.3770492,76.2875 35.4836066,76.18125 Z" id="Shape" fill="#FE5B5B"></path>
                        <path d="M30.9016393,50.15 C30.4754098,50.04375 30.0491803,50.15 29.8360656,50.575 C29.0901639,52.38125 28.6639344,54.29375 28.557377,56.3125 C28.557377,56.7375 28.8770492,57.1625 29.3032787,57.1625 C29.3032787,57.1625 29.3032787,57.1625 29.4098361,57.1625 C29.8360656,57.1625 30.1557377,56.84375 30.1557377,56.41875 C30.3688525,54.50625 30.6885246,52.80625 31.3278689,51.10625 C31.5409836,50.7875 31.3278689,50.3625 30.9016393,50.15 Z" id="Shape" fill="#FE5B5B"></path>
                        <path d="M30.1557377,60.88125 C30.1557377,60.45625 29.7295082,60.1375 29.3032787,60.1375 C28.8770492,60.1375 28.557377,60.5625 28.557377,60.9875 C28.6639344,63.21875 29.0901639,65.025 29.8360656,66.725 C29.942623,67.04375 30.2622951,67.25625 30.5819672,67.25625 C30.6885246,67.25625 30.795082,67.25625 30.9016393,67.15 C31.3278689,66.9375 31.5409836,66.5125 31.3278689,66.0875 C30.6885246,64.6 30.3688525,62.9 30.1557377,60.88125 Z" id="Shape" fill="#FE5B5B"></path>
                        <path d="M32.1803279,47.49375 C32.2868852,47.6 32.3934426,47.6 32.6065574,47.6 C32.9262295,47.6 33.1393443,47.49375 33.352459,47.175 C34.204918,45.58125 35.057377,43.88125 35.6967213,41.8625 C35.8032787,41.4375 35.5901639,41.0125 35.1639344,40.90625 C34.7377049,40.8 34.3114754,41.0125 34.204918,41.4375 C33.6721311,43.35 32.8196721,44.8375 31.9672131,46.43125 C31.647541,46.85625 31.8606557,47.28125 32.1803279,47.49375 Z" id="Shape" fill="#FE5B5B"></path>
                        <path d="M106.877049,56.95 C106.877049,57.05625 106.877049,57.1625 106.983607,57.26875 C106.983607,57.26875 106.983607,57.26875 106.983607,57.375 C106.983607,57.48125 107.090164,57.48125 107.090164,57.5875 C107.090164,57.5875 107.090164,57.5875 107.090164,57.5875 L111.245902,61.30625 C111.352459,61.4125 111.565574,61.51875 111.778689,61.51875 C111.991803,61.51875 112.204918,61.4125 112.418033,61.2 C112.737705,60.88125 112.631148,60.35 112.311475,60.03125 L109.647541,57.69375 L122.221311,57.69375 C122.647541,57.69375 123.07377,57.375 123.07377,56.84375 C123.07377,56.41875 122.754098,55.99375 122.221311,55.99375 L109.754098,55.99375 L112.418033,53.65625 C112.737705,53.3375 112.737705,52.80625 112.52459,52.4875 C112.204918,52.16875 111.672131,52.16875 111.352459,52.38125 L107.196721,56.1 C107.196721,56.1 107.196721,56.1 107.196721,56.1 C107.090164,56.20625 107.090164,56.20625 107.090164,56.3125 C107.090164,56.3125 107.090164,56.3125 107.090164,56.41875 C106.877049,56.7375 106.877049,56.84375 106.877049,56.95 Z" id="Shape" fill="#DDDDDD"></path>
                        <path d="M23.9754098,81.8125 C23.9754098,81.70625 23.9754098,81.6 23.8688525,81.49375 C23.8688525,81.49375 23.8688525,81.49375 23.8688525,81.3875 C23.8688525,81.28125 23.7622951,81.28125 23.7622951,81.175 C23.7622951,81.175 23.7622951,81.175 23.7622951,81.175 L19.6065574,77.45625 C19.2868852,77.1375 18.7540984,77.24375 18.4344262,77.5625 C18.1147541,77.88125 18.1147541,78.4125 18.5409836,78.73125 L21.204918,81.06875 L8.52459016,81.06875 C8.09836066,81.06875 7.67213115,81.3875 7.67213115,81.91875 C7.67213115,82.34375 7.99180328,82.76875 8.52459016,82.76875 L21.0983607,82.76875 L18.4344262,85.10625 C18.1147541,85.425 18.1147541,85.95625 18.3278689,86.275 C18.4344262,86.4875 18.7540984,86.59375 18.9672131,86.59375 C19.1803279,86.59375 19.3934426,86.4875 19.5,86.38125 L23.6557377,82.6625 C23.6557377,82.6625 23.6557377,82.6625 23.6557377,82.6625 C23.7622951,82.55625 23.7622951,82.55625 23.7622951,82.45 C23.7622951,82.45 23.7622951,82.45 23.7622951,82.34375 C23.8688525,82.025 23.9754098,81.91875 23.9754098,81.8125 Z" id="Shape" fill="#DDDDDD"></path>
                        <path d="M43.3688525,99.2375 C43.3688525,99.6625 43.6885246,100.0875 44.2213115,100.0875 L86.7377049,100.0875 C87.1639344,100.0875 87.5901639,99.76875 87.5901639,99.2375 L87.5901639,87.3375 C87.5901639,86.9125 87.2704918,86.4875 86.7377049,86.4875 L44.1147541,86.4875 C43.6885246,86.4875 43.2622951,86.80625 43.2622951,87.3375 L43.2622951,99.2375 L43.3688525,99.2375 Z M44.9672131,88.1875 L85.8852459,88.1875 L85.8852459,98.3875 L44.9672131,98.3875 L44.9672131,88.1875 Z" id="Shape" fill="#EDA9A9"></path>
                        <path d="M44.1147541,47.70625 L54.557377,47.70625 C54.9836066,47.70625 55.4098361,47.3875 55.4098361,46.85625 L55.4098361,35.0625 C55.4098361,34.6375 55.0901639,34.2125 54.557377,34.2125 L44.1147541,34.2125 C43.6885246,34.2125 43.2622951,34.53125 43.2622951,35.0625 L43.2622951,46.85625 C43.3688525,47.28125 43.6885246,47.70625 44.1147541,47.70625 Z M44.9672131,35.80625 L53.8114754,35.80625 L53.8114754,46.00625 L44.9672131,46.00625 L44.9672131,35.80625 Z" id="Shape" fill="#EDA9A9"></path>
                        <path d="M43.3688525,64.28125 C43.3688525,64.70625 43.6885246,65.13125 44.2213115,65.13125 L54.6639344,65.13125 C55.0901639,65.13125 55.5163934,64.8125 55.5163934,64.28125 L55.5163934,52.4875 C55.5163934,52.0625 55.1967213,51.6375 54.6639344,51.6375 L44.2213115,51.6375 C43.795082,51.6375 43.3688525,51.95625 43.3688525,52.4875 L43.3688525,64.28125 Z M44.9672131,53.23125 L53.8114754,53.23125 L53.8114754,63.43125 L44.9672131,63.43125 L44.9672131,53.23125 Z" id="Shape" fill="#EDA9A9"></path>
                        <path d="M60.204918,47.70625 L70.647541,47.70625 C71.0737705,47.70625 71.5,47.3875 71.5,46.85625 L71.5,35.0625 C71.5,34.6375 71.1803279,34.2125 70.647541,34.2125 L60.204918,34.2125 C59.7786885,34.2125 59.352459,34.53125 59.352459,35.0625 L59.352459,46.85625 C59.352459,47.28125 59.7786885,47.70625 60.204918,47.70625 Z M60.9508197,35.80625 L69.795082,35.80625 L69.795082,46.00625 L60.9508197,46.00625 L60.9508197,35.80625 Z" id="Shape" fill="#EDA9A9"></path>
                        <path d="M59.352459,64.28125 C59.352459,64.70625 59.6721311,65.13125 60.204918,65.13125 L70.647541,65.13125 C71.0737705,65.13125 71.5,64.8125 71.5,64.28125 L71.5,52.4875 C71.5,52.0625 71.1803279,51.6375 70.647541,51.6375 L60.204918,51.6375 C59.7786885,51.6375 59.352459,51.95625 59.352459,52.4875 L59.352459,64.28125 Z M60.9508197,53.23125 L69.795082,53.23125 L69.795082,63.43125 L60.9508197,63.43125 L60.9508197,53.23125 Z" id="Shape" fill="#EDA9A9"></path>
                        <path d="M87.3770492,35.0625 C87.3770492,34.6375 87.057377,34.2125 86.5245902,34.2125 L76.0819672,34.2125 C75.6557377,34.2125 75.2295082,34.53125 75.2295082,35.0625 L75.2295082,46.85625 C75.2295082,47.28125 75.5491803,47.70625 76.0819672,47.70625 L86.5245902,47.70625 C86.9508197,47.70625 87.3770492,47.3875 87.3770492,46.85625 L87.3770492,35.0625 Z M85.7786885,46.00625 L76.9344262,46.00625 L76.9344262,35.80625 L85.7786885,35.80625 L85.7786885,46.00625 Z" id="Shape" fill="#EDA9A9"></path>
                    </g>
                </g>
            </g>
        </g>
    </g>
</svg>