<?xml version="1.0" encoding="UTF-8"?>
<svg width="118px" height="130px" viewBox="0 0 118 130" version="1.1" xmlns="http://www.w3.org/2000/svg" xmlns:xlink="http://www.w3.org/1999/xlink">
    <!-- Generator: Sketch 48.1 (47250) - http://www.bohemiancoding.com/sketch -->
    <title>noun_749991_cc</title>
    <desc>Created with Sketch.</desc>
    <defs></defs>
    <g id="Desktop-HD" stroke="none" stroke-width="1" fill="none" fill-rule="evenodd" transform="translate(-665.000000, -3916.000000)">
        <g id="Estágios" transform="translate(185.000000, 2969.000000)" fill-rule="nonzero">
            <g id="noun_749991_cc" transform="translate(480.000000, 947.000000)">
                <g id="Group">
                    <path d="M8.54482759,35.546875 C8.95172414,35.546875 9.35862069,35.2421875 9.35862069,34.734375 L9.35862069,23.15625 C9.35862069,22.75 9.05344828,22.34375 8.54482759,22.34375 C8.13793103,22.34375 7.73103448,22.6484375 7.73103448,23.15625 L7.73103448,34.8359375 C7.73103448,35.2421875 8.13793103,35.546875 8.54482759,35.546875 Z" id="Shape" fill="#DDDDDD"></path>
                    <path d="M8.54482759,43.1640625 C8.95172414,43.1640625 9.35862069,42.859375 9.35862069,42.3515625 L9.35862069,38.59375 C9.35862069,38.1875 9.05344828,37.78125 8.54482759,37.78125 C8.13793103,37.78125 7.73103448,38.0859375 7.73103448,38.59375 L7.73103448,42.3515625 C7.73103448,42.859375 8.13793103,43.1640625 8.54482759,43.1640625 Z" id="Shape" fill="#DDDDDD"></path>
                    <path d="M108.946552,92.7265625 C108.539655,92.7265625 108.132759,93.03125 108.132759,93.5390625 L108.132759,105.21875 C108.132759,105.625 108.437931,106.03125 108.946552,106.03125 C109.353448,106.03125 109.760345,105.726562 109.760345,105.21875 L109.760345,93.4375 C109.658621,93.03125 109.353448,92.7265625 108.946552,92.7265625 Z" id="Shape" fill="#DDDDDD"></path>
                    <path d="M108.946552,108.164062 C108.539655,108.164062 108.132759,108.46875 108.132759,108.976562 L108.132759,112.734375 C108.132759,113.140625 108.437931,113.546875 108.946552,113.546875 C109.353448,113.546875 109.760345,113.242188 109.760345,112.734375 L109.760345,108.976562 C109.658621,108.46875 109.353448,108.164062 108.946552,108.164062 Z" id="Shape" fill="#DDDDDD"></path>
                    <path d="M69.8844828,9.2421875 C69.9862069,9.34375 70.1896552,9.4453125 70.3931034,9.4453125 C70.5965517,9.4453125 70.8,9.34375 70.9017241,9.2421875 C71.2068966,8.9375 71.2068966,8.4296875 70.9017241,8.125 L69.2741379,6.5 C68.9689655,6.1953125 68.4603448,6.1953125 68.1551724,6.5 C67.85,6.8046875 67.85,7.3125 68.1551724,7.6171875 L69.8844828,9.2421875 Z" id="Shape" fill="#DDDDDD"></path>
                    <path d="M75.0724138,14.421875 C75.1741379,14.5234375 75.3775862,14.625 75.5810345,14.625 C75.7844828,14.625 75.987931,14.5234375 76.0896552,14.421875 C76.3948276,14.1171875 76.3948276,13.609375 76.0896552,13.3046875 L74.462069,11.6796875 C74.1568966,11.375 73.6482759,11.375 73.3431034,11.6796875 C73.037931,11.984375 73.037931,12.4921875 73.3431034,12.796875 L75.0724138,14.421875 Z" id="Shape" fill="#DDDDDD"></path>
                    <path d="M68.8672414,14.625 C69.0706897,14.625 69.2741379,14.5234375 69.3758621,14.421875 L71.0034483,12.796875 C71.3086207,12.4921875 71.3086207,11.984375 71.0034483,11.6796875 C70.6982759,11.375 70.1896552,11.375 69.8844828,11.6796875 L68.2568966,13.3046875 C67.9517241,13.609375 67.9517241,14.1171875 68.2568966,14.421875 C68.4603448,14.625 68.6637931,14.625 68.8672414,14.625 Z" id="Shape" fill="#DDDDDD"></path>
                    <path d="M74.0551724,9.546875 C74.2586207,9.546875 74.462069,9.4453125 74.5637931,9.34375 L76.1913793,7.71875 C76.4965517,7.4140625 76.4965517,6.90625 76.1913793,6.6015625 C75.8862069,6.296875 75.3775862,6.296875 75.0724138,6.6015625 L73.4448276,8.2265625 C73.1396552,8.53125 73.1396552,9.0390625 73.4448276,9.34375 C73.6482759,9.4453125 73.8517241,9.546875 74.0551724,9.546875 Z" id="Shape" fill="#DDDDDD"></path>
                    <path d="M96.8413793,121.46875 C96.5362069,121.164062 96.0275862,121.164062 95.7224138,121.46875 C95.4172414,121.773438 95.4172414,122.28125 95.7224138,122.585937 L97.35,124.210937 C97.4517241,124.3125 97.6551724,124.414062 97.8586207,124.414062 C98.062069,124.414062 98.2655172,124.3125 98.3672414,124.210937 C98.6724138,123.90625 98.6724138,123.398437 98.3672414,123.09375 L96.8413793,121.46875 Z" id="Shape" fill="#DDDDDD"></path>
                    <path d="M102.02931,126.546875 C101.724138,126.242188 101.215517,126.242188 100.910345,126.546875 C100.605172,126.851562 100.605172,127.359375 100.910345,127.664062 L102.537931,129.289062 C102.639655,129.390625 102.843103,129.492188 103.046552,129.492188 C103.25,129.492188 103.453448,129.390625 103.555172,129.289062 C103.860345,128.984375 103.860345,128.476562 103.555172,128.171875 L102.02931,126.546875 Z" id="Shape" fill="#DDDDDD"></path>
                    <path d="M97.35,126.546875 L95.7224138,128.171875 C95.4172414,128.476562 95.4172414,128.984375 95.7224138,129.289062 C95.8241379,129.390625 96.0275862,129.492188 96.2310345,129.492188 C96.4344828,129.492188 96.637931,129.390625 96.7396552,129.289062 L98.3672414,127.664062 C98.6724138,127.359375 98.6724138,126.851562 98.3672414,126.546875 C98.1637931,126.242188 97.6551724,126.242188 97.35,126.546875 Z" id="Shape" fill="#DDDDDD"></path>
                    <path d="M102.537931,121.46875 L100.910345,123.09375 C100.605172,123.398437 100.605172,123.90625 100.910345,124.210937 C101.012069,124.3125 101.215517,124.414062 101.418966,124.414062 C101.622414,124.414062 101.825862,124.3125 101.927586,124.210937 L103.555172,122.585937 C103.860345,122.28125 103.860345,121.773438 103.555172,121.46875 C103.351724,121.164062 102.843103,121.164062 102.537931,121.46875 Z" id="Shape" fill="#DDDDDD"></path>
                    <path d="M1.42413793,89.578125 C1.11896552,89.2734375 0.610344828,89.2734375 0.305172414,89.578125 C1.38777878e-16,89.8828125 1.38777878e-16,90.390625 0.305172414,90.6953125 L1.93275862,92.3203125 C2.03448276,92.421875 2.23793103,92.421875 2.44137931,92.421875 C2.64482759,92.421875 2.84827586,92.3203125 2.95,92.21875 C3.25517241,91.9140625 3.25517241,91.40625 2.95,91.1015625 L1.42413793,89.578125 Z" id="Shape" fill="#DDDDDD"></path>
                    <path d="M7.12068966,97.3984375 C7.22241379,97.5 7.42586207,97.6015625 7.62931034,97.6015625 C7.83275862,97.6015625 8.0362069,97.5 8.13793103,97.3984375 C8.44310345,97.09375 8.44310345,96.5859375 8.13793103,96.28125 L6.51034483,94.65625 C6.20517241,94.3515625 5.69655172,94.3515625 5.39137931,94.65625 C5.0862069,94.9609375 5.0862069,95.46875 5.39137931,95.7734375 L7.12068966,97.3984375 Z" id="Shape" fill="#DDDDDD"></path>
                    <path d="M1.93275862,94.7578125 L0.305172414,96.3828125 C1.38777878e-16,96.6875 1.38777878e-16,97.1953125 0.305172414,97.5 C0.406896552,97.6015625 0.610344828,97.703125 0.813793103,97.703125 C1.01724138,97.703125 1.22068966,97.6015625 1.32241379,97.5 L2.95,95.875 C3.25517241,95.5703125 3.25517241,95.0625 2.95,94.7578125 C2.64482759,94.453125 2.23793103,94.453125 1.93275862,94.7578125 Z" id="Shape" fill="#DDDDDD"></path>
                    <path d="M6.00172414,92.421875 C6.20517241,92.421875 6.40862069,92.3203125 6.51034483,92.21875 L8.13793103,90.59375 C8.44310345,90.2890625 8.44310345,89.78125 8.13793103,89.4765625 C7.83275862,89.171875 7.32413793,89.171875 7.01896552,89.4765625 L5.39137931,91.1015625 C5.0862069,91.40625 5.0862069,91.9140625 5.39137931,92.21875 C5.59482759,92.421875 5.79827586,92.421875 6.00172414,92.421875 Z" id="Shape" fill="#DDDDDD"></path>
                    <path d="M48.0137931,8.0234375 C48.0137931,6.09375 46.487931,4.5703125 44.5551724,4.5703125 C42.6224138,4.5703125 41.0965517,6.09375 41.0965517,8.0234375 C41.0965517,9.953125 42.6224138,11.4765625 44.5551724,11.4765625 C46.487931,11.375 48.0137931,9.8515625 48.0137931,8.0234375 Z M42.7241379,8.0234375 C42.7241379,7.0078125 43.537931,6.09375 44.6568966,6.09375 C45.6741379,6.09375 46.5896552,6.90625 46.5896552,8.0234375 C46.5896552,9.140625 45.7758621,9.953125 44.6568966,9.953125 C43.537931,9.8515625 42.7241379,9.0390625 42.7241379,8.0234375 Z" id="Shape" fill="#DDDDDD"></path>
                    <path d="M109.251724,40.828125 C109.251724,38.8984375 107.725862,37.375 105.793103,37.375 C103.860345,37.375 102.334483,38.8984375 102.334483,40.828125 C102.334483,42.7578125 103.860345,44.28125 105.793103,44.28125 C107.725862,44.1796875 109.251724,42.65625 109.251724,40.828125 Z M105.793103,42.65625 C104.775862,42.65625 103.860345,41.84375 103.860345,40.7265625 C103.860345,39.7109375 104.674138,38.796875 105.793103,38.796875 C106.810345,38.796875 107.725862,39.609375 107.725862,40.7265625 C107.725862,41.84375 106.810345,42.65625 105.793103,42.65625 Z" id="Shape" fill="#DDDDDD"></path>
                    <path d="M70.4948276,121.976562 C68.562069,121.976562 67.0362069,123.5 67.0362069,125.429688 C67.0362069,127.359375 68.562069,128.882812 70.4948276,128.882812 C72.4275862,128.882812 73.9534483,127.359375 73.9534483,125.429688 C73.8517241,123.5 72.3258621,121.976562 70.4948276,121.976562 Z M70.4948276,127.257812 C69.4775862,127.257812 68.562069,126.445312 68.562069,125.328125 C68.562069,124.3125 69.3758621,123.398437 70.4948276,123.398437 C71.512069,123.398437 72.4275862,124.210937 72.4275862,125.328125 C72.3258621,126.34375 71.512069,127.257812 70.4948276,127.257812 Z" id="Shape" fill="#DDDDDD"></path>
                    <path d="M96.3327586,2.03125 L108.946552,2.03125 C109.353448,2.03125 109.760345,1.7265625 109.760345,1.21875 C109.760345,0.7109375 109.455172,0.40625 108.946552,0.40625 L96.3327586,0.40625 C95.9258621,0.40625 95.5189655,0.7109375 95.5189655,1.21875 C95.5189655,1.7265625 95.9258621,2.03125 96.3327586,2.03125 Z" id="Shape" fill="#DDDDDD"></path>
                    <path d="M113.117241,2.03125 L117.186207,2.03125 C117.593103,2.03125 118,1.7265625 118,1.21875 C118,0.7109375 117.694828,0.40625 117.186207,0.40625 L113.117241,0.40625 C112.710345,0.40625 112.303448,0.7109375 112.303448,1.21875 C112.303448,1.7265625 112.608621,2.03125 113.117241,2.03125 Z" id="Shape" fill="#DDDDDD"></path>
                    <path d="M117.186207,4.875 L108.437931,4.875 C108.031034,4.875 107.624138,5.1796875 107.624138,5.6875 C107.624138,6.1953125 107.92931,6.5 108.437931,6.5 L117.186207,6.5 C117.593103,6.5 118,6.1953125 118,5.6875 C118,5.1796875 117.593103,4.875 117.186207,4.875 Z" id="Shape" fill="#DDDDDD"></path>
                    <path d="M101.724138,4.875 C101.317241,4.875 100.910345,5.1796875 100.910345,5.6875 C100.910345,6.1953125 101.215517,6.5 101.724138,6.5 L104.572414,6.5 C104.97931,6.5 105.386207,6.1953125 105.386207,5.6875 C105.386207,5.1796875 105.081034,4.875 104.572414,4.875 L101.724138,4.875 Z" id="Shape" fill="#DDDDDD"></path>
                    <path d="M25.1258621,126.75 L12.4103448,126.75 C12.0034483,126.75 11.5965517,127.054688 11.5965517,127.5625 C11.5965517,127.96875 11.9017241,128.375 12.4103448,128.375 L25.0241379,128.375 C25.4310345,128.375 25.837931,128.070312 25.837931,127.5625 C25.837931,127.054688 25.5327586,126.75 25.1258621,126.75 Z" id="Shape" fill="#DDDDDD"></path>
                    <path d="M8.34137931,126.75 L4.27241379,126.75 C3.86551724,126.75 3.45862069,127.054688 3.45862069,127.5625 C3.45862069,127.96875 3.7637931,128.375 4.27241379,128.375 L8.34137931,128.375 C8.74827586,128.375 9.15517241,128.070312 9.15517241,127.5625 C9.05344828,127.054688 8.74827586,126.75 8.34137931,126.75 Z" id="Shape" fill="#DDDDDD"></path>
                    <path d="M4.27241379,123.90625 L13.0206897,123.90625 C13.4275862,123.90625 13.8344828,123.601562 13.8344828,123.09375 C13.8344828,122.585938 13.5293103,122.28125 13.0206897,122.28125 L4.27241379,122.28125 C3.86551724,122.28125 3.45862069,122.585938 3.45862069,123.09375 C3.45862069,123.601562 3.7637931,123.90625 4.27241379,123.90625 Z" id="Shape" fill="#DDDDDD"></path>
                    <path d="M19.6327586,123.90625 C20.0396552,123.90625 20.4465517,123.601562 20.4465517,123.09375 C20.4465517,122.585938 20.1413793,122.28125 19.6327586,122.28125 L16.7844828,122.28125 C16.3775862,122.28125 15.9706897,122.585938 15.9706897,123.09375 C15.9706897,123.601562 16.2758621,123.90625 16.7844828,123.90625 L19.6327586,123.90625 Z" id="Shape" fill="#DDDDDD"></path>
                    <path d="M38.1465517,55.1484375 C37.4344828,53.9296875 36.3155172,53.015625 34.9931034,52.609375 L30.7206897,51.0859375 C30.3137931,50.984375 30.0086207,51.0859375 29.8051724,51.4921875 L25.7362069,59.0078125 L24.4137931,59.0078125 L20.3448276,51.4921875 C20.1413793,51.1875 19.7344828,50.984375 19.4293103,51.0859375 L15.1568966,52.609375 C13.8344828,53.1171875 12.7155172,54.03125 12.0034483,55.1484375 C11.2913793,56.3671875 10.9862069,57.484375 10.9862069,58.5 C10.8844828,59.0078125 9.6637931,70.1796875 10.5793103,74.34375 C10.8844828,75.6640625 10.9862069,77.1875 10.9862069,78.9140625 L10.9862069,82.46875 L10.9862069,82.5703125 C11.1896552,83.7890625 12.3086207,85.921875 15.0551724,85.71875 L14.2413793,114.460938 C14.2413793,114.664062 14.3431034,114.96875 14.5465517,115.070312 C14.5465517,115.070312 14.5465517,115.070312 14.6482759,115.171875 C14.6482759,115.171875 14.75,115.273437 14.8517241,115.273437 C14.8517241,115.273437 14.8517241,115.273437 14.9534483,115.273437 C15.1568966,115.375 15.3603448,115.476562 15.6655172,115.578125 L15.7672414,115.578125 C15.8689655,115.578125 15.9706897,115.679687 16.1741379,115.679687 L16.2758621,115.679687 C16.5810345,115.78125 16.987931,115.882812 17.4965517,115.984375 L17.5982759,115.984375 C17.8017241,115.984375 18.0051724,115.984375 18.1068966,115.984375 L18.2086207,115.984375 C18.2086207,115.984375 18.2086207,115.984375 18.3103448,115.984375 C18.5137931,115.984375 18.8189655,115.984375 19.0224138,115.984375 C19.3275862,115.984375 19.5310345,115.882812 19.8362069,115.78125 C19.937931,115.78125 19.937931,115.78125 20.0396552,115.679687 C20.2431034,115.578125 20.4465517,115.578125 20.65,115.476562 C20.7517241,115.476562 20.8534483,115.375 20.8534483,115.375 C21.1586207,115.273437 21.4637931,115.070312 21.7689655,114.96875 C21.9724138,114.867187 22.0741379,114.664062 22.1758621,114.359375 L25.2275862,91.1015625 L28.2793103,114.359375 C28.2793103,114.5625 28.4827586,114.765625 28.6862069,114.96875 C30.0086207,115.78125 31.2293103,115.984375 32.2465517,115.984375 C34.2810345,115.984375 35.7051724,114.96875 35.8068966,114.96875 C36.0103448,114.867188 36.112069,114.5625 36.112069,114.359375 L35.1965517,85.6171875 C38.0448276,85.8203125 39.062069,83.6875 39.2655172,82.46875 L39.2655172,82.3671875 L39.2655172,78.8125 C39.2655172,77.0859375 39.3672414,75.5625 39.6724138,74.2421875 C40.4862069,70.078125 39.2655172,58.8046875 39.2655172,58.3984375 C39.1637931,57.484375 38.8586207,56.265625 38.1465517,55.1484375 Z M38.0448276,74.0390625 C37.7396552,75.4609375 37.637931,77.0859375 37.637931,78.9140625 L37.637931,82.46875 C37.5362069,82.7734375 37.2310345,84.09375 35.8068966,84.296875 L34.3827586,61.75 C34.3827586,61.34375 33.9758621,61.0390625 33.5689655,61.0390625 C33.162069,61.0390625 32.8568966,61.4453125 32.8568966,61.8515625 L34.4844828,114.15625 C33.7724138,114.5625 31.9413793,115.273437 29.7034483,114.054687 L25.9396552,85.4140625 C25.9396552,85.4140625 25.9396552,85.4140625 25.9396552,85.3125 L25.9396552,85.2109375 C25.9396552,85.2109375 25.9396552,85.109375 25.837931,85.109375 C25.837931,85.109375 25.837931,85.0078125 25.7362069,85.0078125 L25.6344828,84.90625 C25.6344828,84.90625 25.5327586,84.90625 25.5327586,84.8046875 C25.5327586,84.8046875 25.4310345,84.8046875 25.3293103,84.703125 C25.3293103,84.703125 25.3293103,84.703125 25.2275862,84.703125 C25.2275862,84.703125 25.2275862,84.703125 25.1258621,84.703125 L25.0241379,84.703125 L24.9224138,84.703125 C24.8206897,84.703125 24.8206897,84.703125 24.7189655,84.8046875 C24.7189655,84.8046875 24.6172414,84.8046875 24.6172414,84.90625 L24.5155172,85.0078125 C24.5155172,85.0078125 24.5155172,85.109375 24.4137931,85.109375 C24.4137931,85.2109375 24.312069,85.3125 24.312069,85.4140625 L20.5482759,114.054688 C18.3103448,115.171875 16.4793103,114.460938 15.7672414,114.15625 L17.3948276,61.8515625 C17.3948276,61.4453125 17.0896552,61.0390625 16.6827586,61.0390625 C16.2758621,61.0390625 15.8689655,61.34375 15.8689655,61.75 L14.4448276,84.296875 C13.0206897,84.09375 12.6137931,82.7734375 12.6137931,82.46875 L12.6137931,78.9140625 C12.6137931,77.0859375 12.512069,75.4609375 12.2068966,74.0390625 C11.3931034,70.078125 12.6137931,58.703125 12.6137931,58.6015625 C12.6137931,57.7890625 12.9189655,56.875 13.4275862,55.859375 C13.9362069,54.9453125 14.75,54.3359375 15.7672414,53.9296875 L19.4293103,52.609375 L23.3965517,59.921875 C23.4982759,60.0234375 23.4982759,60.125 23.6,60.2265625 L23.7017241,60.2265625 C23.8034483,60.2265625 23.9051724,60.328125 24.0068966,60.328125 C24.0068966,60.328125 24.0068966,60.328125 24.1086207,60.328125 L26.4482759,60.328125 C26.7534483,60.328125 26.9568966,60.125 27.1603448,59.921875 L31.1275862,52.609375 L34.7896552,53.9296875 C35.8068966,54.3359375 36.6206897,54.9453125 37.1293103,55.859375 C37.637931,56.7734375 37.9431034,57.6875 37.9431034,58.703125 C37.637931,58.8046875 38.8586207,70.1796875 38.0448276,74.0390625 Z" id="Shape" fill="#FE5B5B"></path>
                    <path d="M25.3293103,35.953125 L24.9224138,35.953125 C23.3965517,35.953125 21.8706897,36.5625 20.8534483,37.78125 C19.8362069,38.8984375 19.2258621,40.421875 19.3275862,41.9453125 L19.5310345,45.1953125 C19.7344828,48.140625 22.1758621,50.375 25.1258621,50.375 C28.0758621,50.375 30.5172414,48.140625 30.7206897,45.1953125 L30.9241379,41.9453125 C31.0258621,40.421875 30.5172414,38.8984375 29.3982759,37.78125 C28.3810345,36.5625 26.8551724,35.953125 25.3293103,35.953125 Z M29.0931034,44.9921875 C28.9913793,47.125 27.1603448,48.75 25.0241379,48.75 C22.887931,48.75 21.1586207,47.125 20.9551724,44.9921875 L20.7517241,41.7421875 C20.65,40.625 21.0568966,39.5078125 21.8706897,38.6953125 C22.6844828,37.8828125 23.7017241,37.375 24.8206897,37.375 L25.2275862,37.375 C26.3465517,37.375 27.4655172,37.8828125 28.1775862,38.6953125 C28.9913793,39.5078125 29.2965517,40.625 29.2965517,41.7421875 L29.0931034,44.9921875 Z" id="Shape" fill="#FE5B5B"></path>
                    <path d="M68.9689655,87.140625 L68.9689655,83.9921875 C68.9689655,82.46875 69.0706897,81.25 69.2741379,80.03125 C69.9862069,76.375 68.9689655,66.7265625 68.9689655,66.3203125 C68.9689655,65.3046875 68.6637931,64.2890625 68.0534483,63.2734375 C67.4431034,62.2578125 66.4258621,61.4453125 65.3068966,61.0390625 L61.6448276,59.71875 C61.237931,59.6171875 60.9327586,59.71875 60.7293103,60.125 L57.2706897,66.5234375 L56.1517241,66.5234375 L52.6931034,60.125 C52.4896552,59.8203125 52.0827586,59.6171875 51.7775862,59.71875 L48.1155172,61.0390625 C46.8948276,61.4453125 45.9793103,62.2578125 45.3689655,63.2734375 C44.7586207,64.2890625 44.4534483,65.3046875 44.4534483,66.21875 C44.4534483,66.625 43.3344828,76.375 44.1482759,79.9296875 C44.3517241,81.046875 44.4534483,82.3671875 44.4534483,83.890625 L44.4534483,86.9375 L44.4534483,87.0390625 C44.6568966,88.0546875 45.5724138,89.984375 48.0137931,89.8828125 L47.3017241,114.5625 C47.3017241,114.765625 47.4034483,115.070312 47.6068966,115.171875 C47.6068966,115.171875 47.6068966,115.171875 47.7086207,115.171875 C47.7086207,115.171875 47.8103448,115.171875 47.8103448,115.273437 C47.8103448,115.273437 47.8103448,115.273437 47.912069,115.273437 C48.0137931,115.273437 48.0137931,115.375 48.1155172,115.375 C48.2172414,115.375 48.3189655,115.476562 48.4206897,115.476562 L48.5224138,115.476562 C48.6241379,115.476562 48.7258621,115.578125 48.8275862,115.578125 L48.9293103,115.578125 C49.0310345,115.578125 49.2344828,115.679687 49.3362069,115.679687 C49.3362069,115.679687 49.3362069,115.679687 49.437931,115.679687 C49.6413793,115.679687 49.7431034,115.78125 49.9465517,115.78125 C50.0482759,115.78125 50.0482759,115.78125 50.15,115.78125 C50.2517241,115.78125 50.4551724,115.78125 50.5568966,115.78125 L50.6586207,115.78125 L50.7603448,115.78125 C50.9637931,115.78125 51.1672414,115.78125 51.3706897,115.78125 C51.3706897,115.78125 51.3706897,115.78125 51.4724138,115.78125 C51.6758621,115.78125 51.8793103,115.679687 52.1844828,115.679687 C52.2862069,115.679687 52.2862069,115.679687 52.387931,115.578125 C52.5913793,115.578125 52.6931034,115.476562 52.8965517,115.375 C52.9982759,115.375 53.1,115.273437 53.1,115.273437 C53.3034483,115.171875 53.6086207,115.070312 53.812069,114.867187 C54.0155172,114.765625 54.1172414,114.5625 54.2189655,114.257812 L56.762069,94.9609375 L59.3051724,114.257812 C59.3051724,114.460937 59.5086207,114.664062 59.712069,114.867187 C60.8310345,115.578125 61.95,115.78125 62.8655172,115.78125 C64.6965517,115.78125 65.9172414,114.867187 66.0189655,114.867187 C66.2224138,114.765625 66.3241379,114.460937 66.3241379,114.257812 L65.612069,89.578125 C67.85,90.0859375 68.8672414,88.15625 68.9689655,87.140625 Z M64.6965517,114.257812 C64.0862069,114.5625 62.5603448,115.070312 60.7293103,114.15625 L57.4741379,89.4765625 C57.4741379,89.4765625 57.4741379,89.4765625 57.4741379,89.375 L57.4741379,89.2734375 C57.4741379,89.2734375 57.4741379,89.171875 57.3724138,89.171875 C57.3724138,89.171875 57.3724138,89.0703125 57.2706897,89.0703125 L57.1689655,88.96875 C57.1689655,88.96875 57.0672414,88.96875 57.0672414,88.8671875 C57.0672414,88.8671875 56.9655172,88.8671875 56.8637931,88.765625 C56.8637931,88.765625 56.8637931,88.765625 56.762069,88.765625 C56.762069,88.765625 56.762069,88.765625 56.6603448,88.765625 L56.5586207,88.765625 L56.4568966,88.765625 C56.4568966,88.765625 56.3551724,88.765625 56.3551724,88.8671875 C56.3551724,88.8671875 56.2534483,88.8671875 56.2534483,88.96875 L56.1517241,89.0703125 L56.05,89.171875 C56.05,89.2734375 55.9482759,89.375 55.9482759,89.4765625 L52.6931034,114.15625 C50.862069,115.070313 49.3362069,114.5625 48.7258621,114.257813 L50.15,69.1640625 C50.15,68.7578125 49.8448276,68.3515625 49.437931,68.3515625 C49.0310345,68.3515625 48.6241379,68.65625 48.6241379,69.0625 L47.4034483,88.359375 C46.2844828,88.15625 46.0810345,87.2421875 45.9793103,86.9375 L45.9793103,83.890625 C45.9793103,82.265625 45.8775862,80.9453125 45.5724138,79.625 C44.8603448,76.2734375 45.9793103,66.421875 45.9793103,66.21875 C45.9793103,65.5078125 46.1827586,64.6953125 46.6913793,63.8828125 C47.0982759,63.171875 47.8103448,62.5625 48.6241379,62.2578125 L51.6758621,61.140625 L55.0327586,67.3359375 C55.1344828,67.4375 55.1344828,67.5390625 55.2362069,67.640625 L55.337931,67.640625 C55.4396552,67.640625 55.5413793,67.7421875 55.6431034,67.7421875 C55.6431034,67.7421875 55.6431034,67.7421875 55.7448276,67.7421875 L57.7793103,67.7421875 C58.0844828,67.7421875 58.287931,67.5390625 58.4913793,67.3359375 L61.8482759,61.140625 L64.9,62.2578125 C65.7137931,62.5625 66.4258621,63.171875 66.8327586,63.8828125 C67.3413793,64.6953125 67.5448276,65.40625 67.5448276,66.21875 C67.5448276,66.3203125 68.6637931,76.0703125 67.9517241,79.5234375 C67.6465517,80.7421875 67.5448276,82.1640625 67.5448276,83.7890625 L67.5448276,86.8359375 C67.4431034,87.140625 67.2396552,88.0546875 66.1206897,88.2578125 L64.9,68.9609375 C64.9,68.5546875 64.4931034,68.25 64.0862069,68.25 C63.6793103,68.25 63.3741379,68.65625 63.3741379,69.0625 L64.6965517,114.257812 Z" id="Shape" fill="#FE5B5B"></path>
                    <path d="M56.9655172,46.6171875 L56.5586207,46.6171875 C55.2362069,46.6171875 53.9137931,47.2265625 52.8965517,48.140625 C51.9810345,49.15625 51.4724138,50.4765625 51.5741379,51.8984375 L51.7775862,54.640625 C51.9810345,57.1796875 54.1172414,59.2109375 56.6603448,59.2109375 C59.2034483,59.2109375 61.4413793,57.1796875 61.5431034,54.640625 L61.7465517,51.8984375 C61.8482759,50.578125 61.3396552,49.15625 60.4241379,48.140625 C59.6103448,47.2265625 58.287931,46.6171875 56.9655172,46.6171875 Z M60.1189655,54.5390625 C60.0172414,56.265625 58.4913793,57.6875 56.762069,57.6875 C55.0327586,57.6875 53.5068966,56.265625 53.4051724,54.5390625 L53.1,51.796875 C52.9982759,50.8828125 53.3034483,49.96875 54.0155172,49.2578125 C54.6258621,48.546875 55.5413793,48.140625 56.5586207,48.140625 L56.9655172,48.140625 C57.8810345,48.140625 58.7965517,48.546875 59.5086207,49.2578125 C60.1189655,49.96875 60.5258621,50.8828125 60.4241379,51.796875 L60.1189655,54.5390625 Z" id="Shape" fill="#FE5B5B"></path>
                    <path d="M101.825862,84.3984375 L101.825862,80.9453125 C101.825862,79.3203125 101.927586,77.8984375 102.232759,76.578125 C103.046552,72.6171875 101.927586,61.953125 101.825862,61.546875 C101.825862,60.4296875 101.52069,59.3125 100.808621,58.1953125 C100.198276,57.078125 99.0793103,56.1640625 97.8586207,55.7578125 L93.7896552,54.3359375 C93.3827586,54.234375 93.0775862,54.3359375 92.8741379,54.7421875 L89.1103448,61.8515625 L87.787931,61.8515625 L84.0241379,54.7421875 C83.8206897,54.4375 83.4137931,54.234375 83.1086207,54.3359375 L79.0396552,55.7578125 C77.7172414,56.265625 76.7,57.078125 76.0896552,58.1953125 C75.4793103,59.3125 75.0724138,60.4296875 75.1741379,61.4453125 C75.1741379,61.8515625 73.9534483,72.515625 74.7672414,76.4765625 C75.0724138,77.6953125 75.1741379,79.1171875 75.1741379,80.84375 L75.1741379,84.296875 L75.1741379,84.3984375 C75.3775862,85.515625 76.3948276,87.6484375 79.0396552,87.4453125 L78.2258621,114.664062 C78.2258621,114.867188 78.3275862,115.171875 78.5310345,115.273437 C78.5310345,115.273437 78.5310345,115.273437 78.6327586,115.375 C78.6327586,115.375 78.7344828,115.476562 78.8362069,115.476562 C79.0396552,115.578125 79.2431034,115.679687 79.4465517,115.78125 L79.5482759,115.78125 C79.65,115.78125 79.7517241,115.882812 79.9551724,115.882812 L80.0568966,115.882812 C80.362069,115.984375 80.7689655,116.085937 81.1758621,116.085937 L81.2775862,116.085937 C81.4810345,116.085937 81.5827586,116.085937 81.7862069,116.085937 L81.887931,116.085937 C81.887931,116.085937 81.887931,116.085937 81.9896552,116.085937 C82.4982759,116.085937 82.9051724,115.984375 83.5155172,115.882812 C83.6172414,115.882812 83.6172414,115.882812 83.7189655,115.78125 C83.9224138,115.679687 84.1258621,115.679687 84.3293103,115.578125 C84.4310345,115.578125 84.4310345,115.476562 84.5327586,115.476562 C84.837931,115.375 85.0413793,115.273437 85.3465517,115.070312 C85.55,114.96875 85.6517241,114.765625 85.7534483,114.460937 L88.6017241,92.7265625 L91.45,114.460937 C91.45,114.664062 91.6534483,114.867188 91.8568966,115.070312 C93.0775862,115.78125 94.2982759,116.085937 95.3155172,116.085937 C97.2482759,116.085937 98.6724138,115.171875 98.6724138,115.070312 C98.8758621,114.96875 98.9775862,114.664062 98.9775862,114.460937 L97.9603448,87.34375 C100.605172,87.546875 101.622414,85.515625 101.825862,84.3984375 Z M97.1465517,114.15625 C96.4344828,114.5625 94.7051724,115.171875 92.6706897,114.054688 L89.1103448,86.9375 C89.1103448,86.9375 89.1103448,86.9375 89.1103448,86.8359375 L89.1103448,86.734375 C89.1103448,86.734375 89.1103448,86.6328125 89.0086207,86.6328125 C89.0086207,86.6328125 89.0086207,86.53125 88.9068966,86.53125 L88.8051724,86.4296875 C88.8051724,86.4296875 88.7034483,86.4296875 88.7034483,86.328125 C88.7034483,86.328125 88.6017241,86.328125 88.5,86.2265625 C88.5,86.2265625 88.5,86.2265625 88.3982759,86.2265625 C88.3982759,86.2265625 88.3982759,86.2265625 88.2965517,86.2265625 L88.1948276,86.2265625 L88.0931034,86.2265625 C87.9913793,86.2265625 87.9913793,86.2265625 87.8896552,86.328125 C87.8896552,86.328125 87.787931,86.328125 87.787931,86.4296875 L87.6862069,86.53125 C87.6862069,86.53125 87.6862069,86.53125 87.5844828,86.6328125 C87.5844828,86.734375 87.4827586,86.8359375 87.4827586,86.9375 L83.9224138,114.054688 C81.7862069,115.070313 80.1586207,114.460938 79.4465517,114.15625 L80.9724138,64.59375 C80.9724138,64.1875 80.6672414,63.78125 80.2603448,63.78125 C79.8534483,63.78125 79.4465517,64.0859375 79.4465517,64.4921875 L78.1241379,85.8203125 C76.8017241,85.6171875 76.4965517,84.5 76.3948276,84.1953125 L76.3948276,80.84375 C76.3948276,79.1171875 76.2931034,77.59375 75.987931,76.171875 C75.1741379,72.4140625 76.3948276,61.6484375 76.3948276,61.546875 C76.3948276,60.734375 76.7,59.921875 77.2086207,59.0078125 C77.7172414,58.1953125 78.4293103,57.5859375 79.3448276,57.1796875 L82.8034483,55.9609375 L86.4655172,62.8671875 C86.5672414,62.96875 86.6689655,63.0703125 86.6689655,63.171875 L86.7706897,63.171875 C86.8724138,63.171875 86.9741379,63.2734375 87.0758621,63.2734375 C87.0758621,63.2734375 87.0758621,63.2734375 87.1775862,63.2734375 L89.5172414,63.2734375 C89.8224138,63.2734375 90.0258621,63.0703125 90.2293103,62.8671875 L93.8913793,55.9609375 L97.35,57.1796875 C98.2655172,57.484375 99.0793103,58.1953125 99.4862069,59.0078125 C99.9948276,59.921875 100.3,60.734375 100.3,61.6484375 C100.3,61.75 101.52069,72.515625 100.706897,76.2734375 C100.401724,77.59375 100.3,79.1171875 100.3,80.9453125 L100.3,84.296875 C100.198276,84.703125 99.8931034,85.8203125 98.5706897,85.921875 L97.2482759,64.59375 C97.2482759,64.1875 96.8413793,63.8828125 96.4344828,63.8828125 C96.0275862,63.8828125 95.7224138,64.2890625 95.7224138,64.6953125 L97.1465517,114.15625 Z" id="Shape" fill="#FE5B5B"></path>
                    <path d="M88.6017241,40.015625 L88.1948276,40.015625 C86.6689655,40.015625 85.2448276,40.625 84.3293103,41.7421875 C83.312069,42.859375 82.8034483,44.28125 82.9051724,45.8046875 L83.1086207,48.8515625 C83.312069,51.59375 85.6517241,53.828125 88.3982759,53.828125 C91.1448276,53.828125 93.4844828,51.6953125 93.687931,48.8515625 L93.8913793,45.8046875 C93.9931034,44.3828125 93.4844828,42.859375 92.4672414,41.7421875 C91.5517241,40.625 90.1275862,40.015625 88.6017241,40.015625 Z M92.162069,48.6484375 C92.0603448,50.6796875 90.3310345,52.203125 88.3982759,52.203125 C86.3637931,52.203125 84.7362069,50.6796875 84.6344828,48.6484375 L84.4310345,45.6015625 C84.3293103,44.5859375 84.7362069,43.46875 85.4482759,42.7578125 C86.1603448,41.9453125 87.1775862,41.5390625 88.1948276,41.5390625 L88.6017241,41.5390625 C89.7206897,41.5390625 90.6362069,41.9453125 91.3482759,42.7578125 C92.0603448,43.5703125 92.4672414,44.5859375 92.3655172,45.6015625 L92.162069,48.6484375 Z" id="Shape" fill="#FE5B5B"></path>
                    <path d="M79.9551724,21.4296875 L83.0068966,21.4296875 L83.0068966,37.0703125 C83.0068966,37.4765625 83.312069,37.8828125 83.8206897,37.8828125 L92.9758621,37.8828125 C93.3827586,37.8828125 93.7896552,37.578125 93.7896552,37.0703125 L93.7896552,21.4296875 L96.9431034,21.4296875 C97.2482759,21.4296875 97.5534483,21.2265625 97.6551724,20.921875 C97.7568966,20.6171875 97.7568966,20.3125 97.4517241,20.109375 L89.0086207,11.6796875 C88.7034483,11.375 88.1948276,11.375 87.8896552,11.6796875 L79.4465517,20.109375 C79.2431034,20.3125 79.1413793,20.6171875 79.2431034,20.921875 C79.3448276,21.2265625 79.65,21.4296875 79.9551724,21.4296875 Z M88.3982759,13.3046875 L95.0103448,19.90625 L92.9758621,19.90625 C92.5689655,19.90625 92.162069,20.2109375 92.162069,20.71875 L92.162069,36.359375 L84.5327586,36.359375 L84.5327586,20.71875 C84.5327586,20.3125 84.2275862,19.90625 83.7189655,19.90625 L81.6844828,19.90625 L88.3982759,13.3046875 Z" id="Shape" fill="#FE5B5B"></path>
                    <path d="M16.6827586,12.59375 L19.7344828,12.59375 L19.7344828,32.8046875 C19.7344828,33.2109375 20.0396552,33.6171875 20.5482759,33.6171875 L29.7034483,33.6171875 C30.1103448,33.6171875 30.5172414,33.3125 30.5172414,32.8046875 L30.5172414,12.59375 L33.6706897,12.59375 C33.9758621,12.59375 34.2810345,12.390625 34.3827586,12.0859375 C34.4844828,11.78125 34.4844828,11.4765625 34.1793103,11.2734375 L25.7362069,2.84375 C25.4310345,2.5390625 24.9224138,2.5390625 24.6172414,2.84375 L16.1741379,11.2734375 C15.9706897,11.4765625 15.8689655,11.78125 15.9706897,12.0859375 C16.0724138,12.4921875 16.3775862,12.59375 16.6827586,12.59375 Z M25.0241379,4.46875 L31.6362069,11.0703125 L29.6017241,11.0703125 C29.1948276,11.0703125 28.787931,11.375 28.787931,11.8828125 L28.787931,32.09375 L21.1586207,32.09375 L21.1586207,11.8828125 C21.1586207,11.4765625 20.8534483,11.0703125 20.3448276,11.0703125 L18.3103448,11.0703125 L25.0241379,4.46875 Z" id="Shape" fill="#FE5B5B"></path>
                    <path d="M47.6068966,26.8125 C47.7086207,27.1171875 48.0137931,27.3203125 48.3189655,27.3203125 L51.3706897,27.3203125 L51.3706897,43.46875 C51.3706897,43.875 51.6758621,44.28125 52.1844828,44.28125 L61.3396552,44.28125 C61.7465517,44.28125 62.1534483,43.9765625 62.1534483,43.46875 L62.1534483,27.3203125 L65.3068966,27.3203125 C65.612069,27.3203125 65.9172414,27.1171875 66.0189655,26.8125 C66.1206897,26.5078125 66.1206897,26.203125 65.8155172,26 L57.3724138,17.5703125 C57.0672414,17.265625 56.5586207,17.265625 56.2534483,17.5703125 L47.8103448,26 C47.5051724,26.203125 47.5051724,26.609375 47.6068966,26.8125 Z M56.762069,19.1953125 L63.3741379,25.796875 L61.3396552,25.796875 C60.9327586,25.796875 60.5258621,26.1015625 60.5258621,26.609375 L60.5258621,42.7578125 L52.8965517,42.7578125 L52.8965517,26.609375 C52.8965517,26.203125 52.5913793,25.796875 52.0827586,25.796875 L50.0482759,25.796875 L56.762069,19.1953125 Z" id="Shape" fill="#FE5B5B"></path>
                </g>
            </g>
        </g>
    </g>
</svg>