<?xml version="1.0" encoding="UTF-8"?>
<svg width="159px" height="180px" viewBox="0 0 159 180" version="1.1" xmlns="http://www.w3.org/2000/svg" xmlns:xlink="http://www.w3.org/1999/xlink">
    <!-- Generator: Sketch 48.1 (47250) - http://www.bohemiancoding.com/sketch -->
    <title>noun_749558_cc</title>
    <desc>Created with Sketch.</desc>
    <defs></defs>
    <g id="Desktop-HD" stroke="none" stroke-width="1" fill="none" fill-rule="evenodd" transform="translate(-316.000000, -6806.000000)">
        <g id="Garantia" transform="translate(185.000000, 6600.000000)" fill-rule="nonzero">
            <g id="Group-26" transform="translate(131.000000, 206.000000)">
                <g id="noun_749558_cc">
                    <g id="Group">
                        <path d="M138.609074,28.125 C118.483841,28.546875 104.550988,22.78125 96.3883067,17.859375 C91.0403429,14.484375 88.2256251,11.671875 88.2256251,11.671875 C88.0848893,11.390625 87.8034175,11.25 87.3812098,11.25 C87.3812098,11.25 87.3812098,11.25 87.3812098,11.25 C87.099738,11.25 86.8182663,11.390625 86.6775304,11.53125 C86.5367945,11.8125 70.2114313,28.828125 36.2940819,28.125 C35.7311384,28.125 35.1681948,28.546875 35.1681948,29.109375 C35.1681948,29.671875 33.0571565,91.828125 86.8182663,119.390625 C86.9590021,119.53125 87.099738,119.53125 87.2404739,119.53125 C87.3812098,119.53125 87.5219457,119.53125 87.6626816,119.390625 C100.610383,112.78125 111.447047,103.5 119.750464,92.109375 C125.520636,84.234375 130.024184,75.375 133.401846,65.671875 C140.157168,45.984375 139.453489,29.25 139.453489,29.109375 C139.594225,28.546875 139.031281,28.125 138.609074,28.125 Z M131.572279,65.109375 C128.335354,74.671875 123.831805,83.390625 118.343106,90.984375 C110.32116,101.953125 99.906704,110.953125 87.5219457,117.421875 C39.1087997,92.109375 37.2792332,38.390625 37.419969,30.234375 C67.6781853,30.515625 83.8628126,17.15625 87.5219457,13.78125 C88.6478328,14.90625 91.3218147,17.15625 95.2624196,19.546875 C103.425101,24.609375 117.49869,30.375 137.483186,30.234375 C137.623922,34.171875 137.201715,48.515625 131.572279,65.109375 Z" id="Shape" fill="#FE5B5B"></path>
                        <path d="M144.660717,23.34375 C145.505132,23.34375 146.349548,23.34375 147.193963,23.34375 C147.193963,23.90625 147.193963,24.75 147.193963,25.734375 C147.193963,26.296875 147.616171,26.859375 148.179114,26.859375 C148.179114,26.859375 148.179114,26.859375 148.179114,26.859375 C148.742058,26.859375 149.164265,26.4375 149.305001,25.875 C149.305001,23.625 149.305001,22.359375 149.305001,22.21875 C149.305001,21.65625 148.742058,21.234375 148.179114,21.234375 C147.053227,21.234375 145.786604,21.234375 144.660717,21.234375 C144.660717,21.234375 144.660717,21.234375 144.660717,21.234375 C144.097773,21.234375 143.675566,21.65625 143.53483,22.21875 C143.675566,22.921875 144.097773,23.34375 144.660717,23.34375 Z" id="Shape" fill="#EDA9A9"></path>
                        <path d="M106.239819,15.609375 C108.210121,16.453125 110.32116,17.296875 112.432198,18 C112.572934,18 112.71367,18 112.71367,18 C113.135878,18 113.558085,17.71875 113.698821,17.296875 C113.839557,16.734375 113.558085,16.171875 112.995142,15.890625 C111.024839,15.1875 108.913801,14.34375 106.943498,13.5 C106.380555,13.21875 105.817611,13.5 105.53614,14.0625 C105.53614,14.765625 105.817611,15.328125 106.239819,15.609375 Z" id="Shape" fill="#EDA9A9"></path>
                        <path d="M130.727864,21.234375 C130.587128,21.796875 131.009336,22.359375 131.713015,22.359375 C133.824053,22.640625 136.075828,22.78125 138.186866,23.0625 C138.186866,23.0625 138.186866,23.0625 138.327602,23.0625 C138.890545,23.0625 139.312753,22.640625 139.453489,22.078125 C139.453489,21.515625 139.031281,20.953125 138.468338,20.953125 C136.357299,20.8125 134.105525,20.53125 131.994487,20.390625 C131.290807,20.25 130.727864,20.671875 130.727864,21.234375 Z" id="Shape" fill="#EDA9A9"></path>
                        <path d="M118.765313,19.96875 C120.876352,20.53125 122.98739,21.09375 125.239164,21.515625 C125.239164,21.515625 125.3799,21.515625 125.3799,21.515625 C125.942844,21.515625 126.365051,21.234375 126.365051,20.671875 C126.505787,20.109375 126.083579,19.546875 125.520636,19.40625 C123.409598,18.984375 121.298559,18.5625 119.187521,18 C118.624577,17.859375 118.061634,18.140625 117.920898,18.703125 C117.780162,19.265625 118.20237,19.828125 118.765313,19.96875 Z" id="Shape" fill="#EDA9A9"></path>
                        <path d="M96.8105144,10.6875 C97.9364015,11.390625 99.2030245,12.09375 100.328912,12.65625 C100.469648,12.796875 100.610383,12.796875 100.891855,12.796875 C101.314063,12.796875 101.595535,12.65625 101.877006,12.234375 C102.158478,11.671875 102.017742,11.109375 101.454799,10.828125 C100.328912,10.125 99.0622886,9.5625 98.0771374,8.859375 C97.373458,8.4375 96.6697785,8.015625 95.9660991,7.59375 C95.5438914,7.3125 94.840212,7.453125 94.5587402,7.875 C94.2772684,8.296875 94.4180043,9 94.840212,9.28125 C95.4031555,9.84375 96.106835,10.265625 96.8105144,10.6875 Z" id="Shape" fill="#EDA9A9"></path>
                        <path d="M84.8479638,5.625 C85.1294356,5.625 85.2701715,5.625 85.5516432,5.34375 C86.3960586,4.640625 87.099738,4.078125 87.5219457,3.65625 C87.9441534,4.078125 88.5070969,4.640625 89.3515123,5.34375 C89.7737199,5.765625 90.4773994,5.625 90.899607,5.203125 C91.1810788,4.78125 91.1810788,4.21875 90.7588712,3.796875 C89.0700405,2.390625 88.2256251,1.546875 88.2256251,1.546875 C88.0848893,1.265625 87.8034175,1.265625 87.5219457,1.265625 C87.2404739,1.265625 86.9590021,1.40625 86.8182663,1.546875 C86.8182663,1.546875 85.9738509,2.390625 84.2850202,3.796875 C83.7220767,4.21875 83.7220767,4.78125 84.0035485,5.203125 C84.2850202,5.484375 84.566492,5.625 84.8479638,5.625 Z" id="Shape" fill="#EDA9A9"></path>
                        <path d="M49.5232555,21.375 C49.5232555,21.375 49.6639914,21.375 49.6639914,21.375 C51.7750298,20.953125 54.026804,20.390625 56.1378423,19.828125 C56.7007859,19.6875 56.9822577,19.125 56.8415218,18.5625 C56.7007859,18 56.1378423,17.71875 55.5748988,17.859375 C53.4638604,18.421875 51.3528221,18.84375 49.2417838,19.265625 C48.6788402,19.40625 48.2566325,19.96875 48.3973684,20.53125 C48.6788402,21.09375 49.1010479,21.375 49.5232555,21.375 Z" id="Shape" fill="#EDA9A9"></path>
                        <path d="M62.1894856,18 C62.3302215,18 62.4709574,18 62.4709574,18 C64.5819957,17.296875 66.5522982,16.453125 68.6633365,15.609375 C69.2262801,15.328125 69.5077518,14.765625 69.2262801,14.203125 C68.9448083,13.640625 68.3818647,13.359375 67.8189212,13.640625 C65.8486187,14.484375 63.8783163,15.328125 61.9080138,16.03125 C61.3450703,16.171875 61.0635985,16.875 61.2043344,17.4375 C61.2043344,17.859375 61.626542,18 62.1894856,18 Z" id="Shape" fill="#EDA9A9"></path>
                        <path d="M36.7162896,23.0625 C36.7162896,23.0625 36.7162896,23.0625 36.7162896,23.0625 C38.9680638,22.921875 41.2198381,22.640625 43.3308764,22.359375 C43.89382,22.21875 44.3160276,21.796875 44.3160276,21.234375 C44.1752917,20.671875 43.7530841,20.25 43.1901405,20.25 C41.0791022,20.53125 38.9680638,20.671875 36.7162896,20.8125 C36.153346,20.8125 35.7311384,21.375 35.7311384,21.9375 C35.5904025,22.640625 36.153346,23.0625 36.7162896,23.0625 Z" id="Shape" fill="#EDA9A9"></path>
                        <path d="M74.0113003,12.796875 C74.1520362,12.796875 74.2927721,12.796875 74.5742439,12.65625 C76.5445463,11.53125 78.5148488,10.40625 80.2036794,9.28125 C80.6258871,9 80.766623,8.296875 80.4851512,7.875 C80.2036794,7.453125 79.5,7.3125 79.0777923,7.59375 C77.3889617,8.71875 75.5593951,9.84375 73.5890926,10.828125 C73.0261491,11.109375 72.8854132,11.8125 73.166885,12.234375 C73.3076209,12.65625 73.5890926,12.796875 74.0113003,12.796875 Z" id="Shape" fill="#EDA9A9"></path>
                        <path d="M26.5833055,26.859375 C26.5833055,26.859375 26.5833055,26.859375 26.5833055,26.859375 C27.1462491,26.859375 27.7091927,26.296875 27.7091927,25.734375 C27.7091927,24.75 27.7091927,23.90625 27.7091927,23.34375 C28.553608,23.34375 29.3980233,23.34375 30.2424387,23.34375 C30.8053822,23.34375 31.3683258,22.921875 31.2275899,22.21875 C31.2275899,21.65625 30.8053822,21.234375 30.1017028,21.234375 C30.1017028,21.234375 30.1017028,21.234375 30.1017028,21.234375 C28.9758157,21.234375 27.8499286,21.234375 26.5833055,21.234375 C26.020362,21.234375 25.4574184,21.65625 25.4574184,22.21875 C25.4574184,22.21875 25.4574184,23.484375 25.4574184,25.875 C25.5981543,26.4375 26.020362,26.859375 26.5833055,26.859375 Z" id="Shape" fill="#EDA9A9"></path>
                        <path d="M31.3683258,61.453125 C32.0720052,63.703125 32.7756847,66.09375 33.6201,68.34375 C33.7608359,68.765625 34.1830436,69.046875 34.6052513,69.046875 C34.7459871,69.046875 34.886723,69.046875 35.0274589,69.046875 C35.5904025,68.90625 35.8718743,68.203125 35.5904025,67.640625 C34.7459871,65.390625 34.0423077,63.140625 33.3386282,60.890625 C33.1978924,60.328125 32.6349488,60.046875 32.0720052,60.1875 C31.5090617,60.1875 31.2275899,60.890625 31.3683258,61.453125 Z" id="Shape" fill="#EDA9A9"></path>
                        <path d="M27.8499286,41.203125 C27.8499286,41.203125 27.9906644,41.203125 27.9906644,41.203125 C28.553608,41.0625 28.9758157,40.640625 28.8350798,40.078125 C28.553608,37.6875 28.2721362,35.296875 27.9906644,33.046875 C27.9906644,32.484375 27.4277209,32.0625 26.8647773,32.0625 C26.3018338,32.0625 25.8796261,32.625 25.8796261,33.1875 C26.020362,35.578125 26.3018338,37.96875 26.7240414,40.359375 C26.8647773,40.78125 27.286985,41.203125 27.8499286,41.203125 Z" id="Shape" fill="#EDA9A9"></path>
                        <path d="M28.6943439,46.125 C28.1314003,46.265625 27.7091927,46.828125 27.8499286,47.390625 C28.2721362,49.78125 28.8350798,52.171875 29.3980233,54.421875 C29.5387592,54.84375 29.9609669,55.265625 30.3831746,55.265625 C30.5239105,55.265625 30.5239105,55.265625 30.6646463,55.265625 C31.2275899,55.125 31.6497976,54.5625 31.5090617,54 C30.9461181,51.75 30.3831746,49.359375 29.9609669,47.109375 C29.820231,46.40625 29.2572874,45.984375 28.6943439,46.125 Z" id="Shape" fill="#EDA9A9"></path>
                        <path d="M72.8854132,118.265625 C72.4632055,117.984375 71.7595261,117.984375 71.3373184,118.546875 C71.0558466,118.96875 71.0558466,119.671875 71.6187902,120.09375 C73.5890926,121.5 75.5593951,122.90625 77.5296975,124.171875 C77.6704334,124.3125 77.9519052,124.3125 78.0926411,124.3125 C78.3741129,124.3125 78.7963206,124.171875 78.9370564,123.890625 C79.2185282,123.328125 79.0777923,122.765625 78.6555847,122.484375 C76.6852822,121.078125 74.7149798,119.671875 72.8854132,118.265625 Z" id="Shape" fill="#EDA9A9"></path>
                        <path d="M36.8570255,73.546875 C36.2940819,73.828125 36.0126101,74.390625 36.2940819,74.953125 C37.2792332,77.203125 38.2643844,79.3125 39.3902715,81.5625 C39.5310074,81.984375 39.9532151,82.125 40.3754227,82.125 C40.5161586,82.125 40.6568945,82.125 40.7976304,81.984375 C41.3605739,81.703125 41.5013098,81.140625 41.2198381,80.578125 C40.0939509,78.46875 39.1087997,76.359375 38.2643844,74.109375 C37.9829126,73.546875 37.419969,73.40625 36.8570255,73.546875 Z" id="Shape" fill="#EDA9A9"></path>
                        <path d="M51.0713503,98.4375 C50.6491427,98.859375 50.5084068,99.421875 50.9306144,99.984375 C52.4787092,101.953125 54.026804,103.78125 55.5748988,105.609375 C55.7156347,105.890625 56.1378423,106.03125 56.4193141,106.03125 C56.7007859,106.03125 56.9822577,105.890625 57.1229936,105.75 C57.5452012,105.328125 57.5452012,104.625 57.2637295,104.203125 C55.7156347,102.515625 54.1675399,100.6875 52.760181,98.71875 C52.1972374,98.15625 51.6342939,98.015625 51.0713503,98.4375 Z" id="Shape" fill="#EDA9A9"></path>
                        <path d="M60.5006549,109.125 C60.0784472,109.546875 60.0784472,110.25 60.5006549,110.671875 C62.1894856,112.359375 64.0190522,114.046875 65.8486187,115.59375 C65.9893546,115.734375 66.2708264,115.875 66.5522982,115.875 C66.8337699,115.875 67.1152417,115.734375 67.3967135,115.453125 C67.8189212,115.03125 67.6781853,114.328125 67.2559776,113.90625 C65.4264111,112.359375 63.7375804,110.8125 62.0487497,109.125 C61.626542,108.703125 60.9228626,108.703125 60.5006549,109.125 Z" id="Shape" fill="#EDA9A9"></path>
                        <path d="M43.1901405,86.484375 C42.627197,86.765625 42.4864611,87.46875 42.7679328,87.890625 C44.0345558,90 45.3011789,91.96875 46.5678019,94.078125 C46.7085377,94.359375 47.1307454,94.5 47.4122172,94.5 C47.5529531,94.5 47.8344249,94.5 47.9751608,94.359375 C48.3973684,94.078125 48.5381043,93.375 48.2566325,92.953125 C46.9900095,90.984375 45.7233865,89.015625 44.4567635,86.90625 C44.3160276,86.34375 43.7530841,86.0625 43.1901405,86.484375 Z" id="Shape" fill="#EDA9A9"></path>
                        <path d="M91.4625506,126.421875 C91.1810788,125.859375 90.4773994,125.71875 90.0551917,126 C89.2107764,126.421875 88.366361,126.984375 87.3812098,127.40625 C86.5367945,126.984375 85.6923791,126.421875 84.8479638,126 C84.2850202,125.71875 83.7220767,125.859375 83.4406049,126.421875 C83.1591331,126.984375 83.299869,127.546875 83.8628126,127.828125 C84.8479638,128.390625 85.9738509,128.953125 86.9590021,129.515625 C87.099738,129.65625 87.2404739,129.65625 87.3812098,129.65625 C87.5219457,129.65625 87.6626816,129.65625 87.8034175,129.515625 C88.9293046,128.953125 89.9144558,128.390625 90.899607,127.828125 C91.6032865,127.546875 91.7440224,126.84375 91.4625506,126.421875 Z" id="Shape" fill="#EDA9A9"></path>
                        <path d="M112.854406,109.125 C111.165575,110.8125 109.336009,112.359375 107.647178,113.90625 C107.22497,114.328125 107.084234,114.890625 107.506442,115.453125 C107.647178,115.734375 108.069386,115.875 108.350857,115.875 C108.632329,115.875 108.773065,115.734375 109.054537,115.59375 C110.884103,114.046875 112.71367,112.359375 114.402501,110.671875 C114.824708,110.25 114.824708,109.546875 114.402501,109.125 C113.980293,108.703125 113.276613,108.703125 112.854406,109.125 Z" id="Shape" fill="#EDA9A9"></path>
                        <path d="M139.875697,68.90625 C140.016432,68.90625 140.157168,68.90625 140.297904,68.90625 C140.720112,68.90625 141.14232,68.625 141.283055,68.203125 C141.564527,67.359375 141.845999,66.515625 142.127471,65.671875 C142.690414,64.265625 143.112622,62.71875 143.53483,61.3125 C143.675566,60.75 143.394094,60.1875 142.83115,60.046875 C142.268207,59.90625 141.705263,60.1875 141.564527,60.75 C141.14232,62.15625 140.720112,63.5625 140.157168,64.96875 C139.875697,65.8125 139.594225,66.65625 139.312753,67.5 C139.031281,68.0625 139.312753,68.625 139.875697,68.90625 Z" id="Shape" fill="#EDA9A9"></path>
                        <path d="M144.097773,55.265625 C144.238509,55.265625 144.238509,55.265625 144.379245,55.265625 C144.801453,55.265625 145.22366,54.984375 145.364396,54.421875 C145.92734,52.03125 146.490283,49.78125 146.912491,47.390625 C147.053227,46.828125 146.631019,46.265625 146.068076,46.125 C145.505132,45.984375 144.942189,46.40625 144.801453,46.96875 C144.379245,49.359375 143.816302,51.609375 143.253358,53.859375 C143.253358,54.421875 143.53483,55.125 144.097773,55.265625 Z" id="Shape" fill="#EDA9A9"></path>
                        <path d="M149.023529,33.046875 C149.023529,32.484375 148.601322,31.921875 148.038378,31.921875 C147.475435,31.921875 146.912491,32.34375 146.912491,32.90625 C146.771755,35.296875 146.490283,37.546875 146.068076,39.9375 C145.92734,40.5 146.349548,41.0625 146.912491,41.0625 C146.912491,41.0625 147.053227,41.0625 147.053227,41.0625 C147.616171,41.0625 148.038378,40.640625 148.038378,40.21875 C148.460586,37.828125 148.742058,35.4375 149.023529,33.046875 Z" id="Shape" fill="#EDA9A9"></path>
                        <path d="M136.638771,74.109375 C135.65362,76.21875 134.668469,78.46875 133.683317,80.578125 C133.401846,81.140625 133.683317,81.703125 134.105525,81.984375 C134.246261,82.125 134.386997,82.125 134.527733,82.125 C134.94994,82.125 135.231412,81.84375 135.512884,81.5625 C136.638771,79.453125 137.623922,77.203125 138.609074,74.953125 C138.890545,74.390625 138.609074,73.828125 138.04613,73.546875 C137.483186,73.40625 136.920243,73.546875 136.638771,74.109375 Z" id="Shape" fill="#EDA9A9"></path>
                        <path d="M102.017742,118.265625 C100.188176,119.671875 98.2178733,121.078125 96.106835,122.34375 C95.5438914,122.625 95.4031555,123.328125 95.8253632,123.75 C95.9660991,124.03125 96.3883067,124.171875 96.6697785,124.171875 C96.8105144,124.171875 97.0919862,124.171875 97.2327221,124.03125 C99.2030245,122.765625 101.314063,121.359375 103.143629,119.953125 C103.565837,119.671875 103.706573,118.96875 103.425101,118.40625 C103.143629,118.125 102.43995,117.984375 102.017742,118.265625 Z" id="Shape" fill="#EDA9A9"></path>
                        <path d="M130.16492,86.765625 C128.898297,88.875 127.631674,90.84375 126.365051,92.8125 C126.083579,93.234375 126.224315,93.9375 126.646523,94.21875 C126.787259,94.359375 127.068731,94.359375 127.209467,94.359375 C127.490938,94.359375 127.913146,94.21875 128.053882,93.9375 C129.461241,91.96875 130.727864,89.859375 131.853751,87.75 C132.135223,87.1875 131.994487,86.625 131.431543,86.34375 C131.150071,86.0625 130.587128,86.34375 130.16492,86.765625 Z" id="Shape" fill="#EDA9A9"></path>
                        <path d="M122.28371,98.578125 C120.876352,100.40625 119.328257,102.234375 117.780162,104.0625 C117.357954,104.484375 117.357954,105.1875 117.920898,105.609375 C118.061634,105.75 118.343106,105.890625 118.624577,105.890625 C118.906049,105.890625 119.187521,105.75 119.468993,105.46875 C121.017087,103.640625 122.565182,101.8125 124.113277,99.84375 C124.535485,99.421875 124.394749,98.71875 123.972541,98.296875 C123.268862,98.015625 122.565182,98.015625 122.28371,98.578125 Z" id="Shape" fill="#EDA9A9"></path>
                        <path d="M14.6207549,121.78125 C14.0578114,121.78125 13.4948678,122.203125 13.4948678,122.90625 L13.4948678,140.484375 C13.4948678,141.046875 13.9170755,141.609375 14.6207549,141.609375 C15.1836985,141.609375 15.7466421,141.1875 15.7466421,140.484375 L15.7466421,122.90625 C15.7466421,122.34375 15.3244344,121.78125 14.6207549,121.78125 Z" id="Shape" fill="#DDDDDD"></path>
                        <path d="M14.6207549,145.125 C14.0578114,145.125 13.4948678,145.546875 13.4948678,146.25 L13.4948678,151.875 C13.4948678,152.4375 13.9170755,153 14.6207549,153 C15.1836985,153 15.7466421,152.578125 15.7466421,151.875 L15.7466421,146.25 C15.7466421,145.546875 15.3244344,145.125 14.6207549,145.125 Z" id="Shape" fill="#DDDDDD"></path>
                        <path d="M157.608419,37.828125 C157.045475,37.828125 156.482532,38.25 156.482532,38.953125 L156.482532,56.53125 C156.482532,57.09375 156.904739,57.65625 157.608419,57.65625 C158.171362,57.65625 158.734306,57.234375 158.734306,56.53125 L158.734306,38.953125 C158.734306,38.390625 158.171362,37.828125 157.608419,37.828125 Z" id="Shape" fill="#DDDDDD"></path>
                        <path d="M157.608419,61.171875 C157.045475,61.171875 156.482532,61.59375 156.482532,62.296875 L156.482532,67.921875 C156.482532,68.484375 156.904739,69.046875 157.608419,69.046875 C158.171362,69.046875 158.734306,68.625 158.734306,67.921875 L158.734306,62.296875 C158.734306,61.734375 158.171362,61.171875 157.608419,61.171875 Z" id="Shape" fill="#DDDDDD"></path>
                        <path d="M142.127471,159.046875 C141.705263,158.625 141.001584,158.625 140.579376,159.046875 C140.157168,159.46875 140.157168,160.171875 140.579376,160.59375 L142.690414,162.703125 C142.83115,162.84375 143.112622,162.984375 143.394094,162.984375 C143.675566,162.984375 143.957037,162.84375 144.097773,162.703125 C144.519981,162.28125 144.519981,161.578125 144.097773,161.15625 L142.127471,159.046875 Z" id="Shape" fill="#DDDDDD"></path>
                        <path d="M148.882794,165.9375 C148.460586,165.515625 147.756906,165.515625 147.334699,165.9375 C146.912491,166.359375 146.912491,167.0625 147.334699,167.484375 L149.445737,169.59375 C149.586473,169.734375 149.867945,169.875 150.149417,169.875 C150.430888,169.875 150.71236,169.734375 150.853096,169.59375 C151.275304,169.171875 151.275304,168.46875 150.853096,168.046875 L148.882794,165.9375 Z" id="Shape" fill="#DDDDDD"></path>
                        <path d="M142.690414,165.9375 L140.579376,168.046875 C140.157168,168.46875 140.157168,169.171875 140.579376,169.59375 C140.720112,169.734375 141.001584,169.875 141.283055,169.875 C141.564527,169.875 141.845999,169.734375 141.986735,169.59375 L144.097773,167.484375 C144.519981,167.0625 144.519981,166.359375 144.097773,165.9375 C143.816302,165.515625 143.112622,165.515625 142.690414,165.9375 Z" id="Shape" fill="#DDDDDD"></path>
                        <path d="M149.586473,159.046875 L147.475435,161.15625 C147.053227,161.578125 147.053227,162.28125 147.475435,162.703125 C147.616171,162.84375 147.897642,162.984375 148.179114,162.984375 C148.460586,162.984375 148.742058,162.84375 148.882794,162.703125 L150.993832,160.59375 C151.41604,160.171875 151.41604,159.46875 150.993832,159.046875 C150.571624,158.625 150.008681,158.625 149.586473,159.046875 Z" id="Shape" fill="#DDDDDD"></path>
                        <path d="M145.505132,82.96875 C145.082925,82.546875 144.379245,82.546875 143.957037,82.96875 C143.53483,83.390625 143.53483,84.09375 143.957037,84.515625 L146.068076,86.625 C146.208812,86.765625 146.490283,86.90625 146.771755,86.90625 C147.053227,86.90625 147.334699,86.765625 147.475435,86.625 C147.897642,86.203125 147.897642,85.5 147.475435,85.078125 L145.505132,82.96875 Z" id="Shape" fill="#DDDDDD"></path>
                        <path d="M152.401191,89.859375 C151.978983,89.4375 151.275304,89.4375 150.853096,89.859375 C150.430888,90.28125 150.430888,90.984375 150.853096,91.40625 L152.964134,93.515625 C153.10487,93.65625 153.386342,93.796875 153.667814,93.796875 C153.949286,93.796875 154.230757,93.65625 154.371493,93.515625 C154.793701,93.09375 154.793701,92.390625 154.371493,91.96875 L152.401191,89.859375 Z" id="Shape" fill="#DDDDDD"></path>
                        <path d="M147.616171,89.859375 C147.193963,89.4375 146.490283,89.4375 146.068076,89.859375 L143.957037,91.96875 C143.53483,92.390625 143.53483,93.09375 143.957037,93.515625 C144.097773,93.65625 144.379245,93.796875 144.660717,93.796875 C144.942189,93.796875 145.22366,93.65625 145.364396,93.515625 L147.475435,91.40625 C148.038378,90.84375 148.038378,90.140625 147.616171,89.859375 Z" id="Shape" fill="#DDDDDD"></path>
                        <path d="M152.964134,82.96875 L150.853096,85.078125 C150.430888,85.5 150.430888,86.203125 150.853096,86.625 C150.993832,86.765625 151.275304,86.90625 151.556775,86.90625 C151.838247,86.90625 152.119719,86.765625 152.260455,86.625 L154.371493,84.515625 C154.793701,84.09375 154.793701,83.390625 154.371493,82.96875 C154.090021,82.546875 153.386342,82.546875 152.964134,82.96875 Z" id="Shape" fill="#DDDDDD"></path>
                        <path d="M8.56911169,50.625 C8.70984758,50.765625 8.99131936,50.90625 9.27279114,50.90625 C9.55426292,50.90625 9.8357347,50.765625 9.97647059,50.625 C10.3986783,50.203125 10.3986783,49.5 9.97647059,49.078125 L7.86543225,46.96875 C7.44322458,46.546875 6.73954513,46.546875 6.31733746,46.96875 C5.89512979,47.390625 5.89512979,48.09375 6.31733746,48.515625 L8.56911169,50.625 Z" id="Shape" fill="#DDDDDD"></path>
                        <path d="M15.4651703,57.515625 C15.6059062,57.65625 15.8873779,57.796875 16.1688497,57.796875 C16.4503215,57.796875 16.7317933,57.65625 16.8725292,57.515625 C17.2947368,57.09375 17.2947368,56.390625 16.8725292,55.96875 L14.7614908,53.859375 C14.3392832,53.4375 13.6356037,53.4375 13.213396,53.859375 C12.7911884,54.28125 12.7911884,54.984375 13.213396,55.40625 L15.4651703,57.515625 Z" id="Shape" fill="#DDDDDD"></path>
                        <path d="M7.1617528,57.796875 C7.44322458,57.796875 7.72469636,57.65625 7.86543225,57.515625 L9.97647059,55.40625 C10.3986783,54.984375 10.3986783,54.28125 9.97647059,53.859375 C9.55426292,53.4375 8.85058347,53.4375 8.4283758,53.859375 L6.31733746,55.96875 C5.89512979,56.390625 5.89512979,57.09375 6.31733746,57.515625 C6.59880924,57.65625 6.88028102,57.796875 7.1617528,57.796875 Z" id="Shape" fill="#DDDDDD"></path>
                        <path d="M14.0578114,50.90625 C14.3392832,50.90625 14.6207549,50.765625 14.7614908,50.625 L16.8725292,48.515625 C17.2947368,48.09375 17.2947368,47.390625 16.8725292,46.96875 C16.4503215,46.546875 15.7466421,46.546875 15.3244344,46.96875 L13.3541319,49.078125 C12.9319243,49.5 12.9319243,50.203125 13.3541319,50.625 C13.4948678,50.765625 13.7763396,50.90625 14.0578114,50.90625 Z" id="Shape" fill="#DDDDDD"></path>
                        <path d="M37.7014408,4.640625 C37.8421767,4.78125 38.1236485,4.921875 38.4051203,4.921875 C38.686592,4.921875 38.9680638,4.78125 39.1087997,4.640625 C39.5310074,4.21875 39.5310074,3.515625 39.1087997,3.09375 L36.9977614,0.984375 C36.5755537,0.5625 35.8718743,0.5625 35.4496666,0.984375 C35.0274589,1.40625 35.0274589,2.109375 35.4496666,2.53125 L37.7014408,4.640625 Z" id="Shape" fill="#DDDDDD"></path>
                        <path d="M44.5974994,11.53125 C44.7382353,11.671875 45.0197071,11.8125 45.3011789,11.8125 C45.5826506,11.8125 45.8641224,11.671875 46.0048583,11.53125 C46.427066,11.109375 46.427066,10.40625 46.0048583,9.984375 L43.89382,7.875 C43.4716123,7.453125 42.7679328,7.453125 42.3457252,7.875 C41.9235175,8.296875 41.9235175,9 42.3457252,9.421875 L44.5974994,11.53125 Z" id="Shape" fill="#DDDDDD"></path>
                        <path d="M36.2940819,11.8125 C36.5755537,11.8125 36.8570255,11.671875 36.9977614,11.53125 L39.1087997,9.421875 C39.5310074,9 39.5310074,8.296875 39.1087997,7.875 C38.686592,7.453125 37.9829126,7.453125 37.5607049,7.875 L35.4496666,9.984375 C35.0274589,10.40625 35.0274589,11.109375 35.4496666,11.53125 C35.7311384,11.671875 36.0126101,11.8125 36.2940819,11.8125 Z" id="Shape" fill="#DDDDDD"></path>
                        <path d="M43.1901405,4.921875 C43.4716123,4.921875 43.7530841,4.78125 43.89382,4.640625 L46.0048583,2.53125 C46.427066,2.109375 46.427066,1.40625 46.0048583,0.984375 C45.5826506,0.5625 44.8789712,0.5625 44.4567635,0.984375 L42.3457252,3.09375 C41.9235175,3.515625 41.9235175,4.21875 42.3457252,4.640625 C42.627197,4.78125 42.9086687,4.921875 43.1901405,4.921875 Z" id="Shape" fill="#DDDDDD"></path>
                        <path d="M127.77241,11.390625 C130.587128,11.390625 132.979638,9.140625 132.979638,6.1875 C132.979638,3.375 130.727864,0.984375 127.77241,0.984375 C124.957692,0.984375 122.565182,3.234375 122.565182,6.1875 C122.565182,9.140625 124.957692,11.390625 127.77241,11.390625 Z M127.77241,3.234375 C129.461241,3.234375 130.8686,4.640625 130.8686,6.328125 C130.8686,8.015625 129.461241,9.421875 127.77241,9.421875 C126.083579,9.421875 124.676221,8.015625 124.676221,6.328125 C124.676221,4.640625 126.083579,3.234375 127.77241,3.234375 Z" id="Shape" fill="#DDDDDD"></path>
                        <path d="M27.4277209,162.5625 C24.6130031,162.5625 22.220493,164.8125 22.220493,167.765625 C22.220493,170.578125 24.4722672,172.96875 27.4277209,172.96875 C30.3831746,172.96875 32.6349488,170.71875 32.6349488,167.765625 C32.6349488,164.8125 30.3831746,162.5625 27.4277209,162.5625 Z M27.4277209,170.71875 C25.7388902,170.71875 24.3315313,169.3125 24.3315313,167.625 C24.3315313,165.9375 25.7388902,164.53125 27.4277209,164.53125 C29.1165516,164.53125 30.5239105,165.9375 30.5239105,167.625 C30.5239105,169.3125 29.1165516,170.71875 27.4277209,170.71875 Z" id="Shape" fill="#DDDDDD"></path>
                        <path d="M21.3760776,88.3125 C21.3760776,87.75 20.95387,87.1875 20.2501905,87.1875 L1.39158133,87.1875 C0.828637771,87.1875 0.265694213,87.609375 0.265694213,88.3125 C0.265694213,88.875 0.687901881,89.4375 1.39158133,89.4375 L20.3909264,89.4375 C20.95387,89.4375 21.3760776,88.875 21.3760776,88.3125 Z" id="Shape" fill="#DDDDDD"></path>
                        <path d="M25.5981543,88.3125 C25.5981543,88.875 26.020362,89.4375 26.7240414,89.4375 L32.9164206,89.4375 C33.4793641,89.4375 34.0423077,89.015625 34.0423077,88.3125 C34.0423077,87.75 33.6201,87.1875 32.9164206,87.1875 L26.7240414,87.1875 C26.020362,87.328125 25.5981543,87.75 25.5981543,88.3125 Z" id="Shape" fill="#DDDDDD"></path>
                        <path d="M33.7608359,94.921875 C33.7608359,94.359375 33.3386282,93.796875 32.6349488,93.796875 L19.4057752,93.796875 C18.8428316,93.796875 18.2798881,94.21875 18.2798881,94.921875 C18.2798881,95.484375 18.7020957,96.046875 19.4057752,96.046875 L32.6349488,96.046875 C33.3386282,95.90625 33.7608359,95.484375 33.7608359,94.921875 Z" id="Shape" fill="#DDDDDD"></path>
                        <path d="M14.9022267,94.921875 C14.9022267,94.359375 14.4800191,93.796875 13.7763396,93.796875 L9.55426292,93.796875 C8.99131936,93.796875 8.4283758,94.21875 8.4283758,94.921875 C8.4283758,95.484375 8.85058347,96.046875 9.55426292,96.046875 L13.7763396,96.046875 C14.3392832,95.90625 14.9022267,95.484375 14.9022267,94.921875 Z" id="Shape" fill="#DDDDDD"></path>
                        <path d="M142.408943,111.796875 C142.408943,111.234375 142.408943,110.8125 142.408943,110.390625 C142.549678,108.140625 142.549678,106.3125 139.453489,104.34375 C138.04613,103.5 136.357299,103.5 134.94994,104.203125 C133.542582,105.046875 131.009336,107.4375 131.009336,114.328125 L131.009336,134.4375 C131.009336,140.203125 123.972541,147.09375 117.217218,150.46875 C115.809859,151.171875 114.683972,150.75 114.121029,150.046875 C113.558085,149.34375 113.276613,148.078125 114.402501,146.671875 C114.965444,145.96875 117.076482,144.28125 118.343106,143.4375 C118.906049,143.015625 119.328257,142.734375 119.609729,142.453125 C119.8912,142.3125 120.313408,142.03125 120.735616,141.609375 C123.268862,139.921875 125.3799,138.375 125.3799,136.828125 L125.3799,133.03125 C125.3799,131.765625 124.676221,130.640625 123.550333,130.078125 C122.424446,129.515625 121.157823,129.65625 120.172672,130.359375 L97.7956656,146.109375 C92.0254942,150.1875 91.6032865,154.125 91.6032865,160.171875 L91.6032865,176.484375 C91.6032865,176.484375 91.6032865,176.625 91.6032865,176.625 C91.4625506,177.1875 91.8847583,177.609375 92.3069659,177.75 C92.5884377,177.890625 97.5141939,179.296875 104.691724,179.296875 C108.350857,179.296875 112.71367,178.875 117.217218,177.75 C117.780162,177.609375 118.061634,177.046875 117.920898,176.484375 C117.920898,176.484375 117.920898,176.34375 117.780162,176.34375 L117.780162,167.203125 C117.780162,167.0625 117.780162,166.78125 117.780162,166.359375 C117.780162,165.9375 117.639426,165.09375 117.639426,164.53125 C119.8912,164.25 122.28371,163.546875 124.535485,162.421875 C128.47609,160.59375 132.275959,157.78125 135.794356,153.984375 L136.216563,153.421875 C139.172017,150.328125 142.127471,147.09375 142.127471,142.59375 L142.127471,111.796875 L142.408943,111.796875 Z M140.297904,110.390625 C140.297904,110.8125 140.297904,111.234375 140.297904,111.796875 L140.297904,142.59375 C140.297904,146.25 137.764658,149.0625 134.94994,152.015625 L134.527733,152.578125 C131.150071,156.234375 127.631674,158.90625 123.831805,160.59375 C121.580031,161.578125 119.187521,162.28125 116.795011,162.5625 C116.513539,162.5625 116.232067,162.703125 116.091331,162.984375 C115.528388,163.546875 115.528388,164.53125 115.809859,166.640625 C115.809859,166.921875 115.809859,167.203125 115.809859,167.34375 L115.809859,176.0625 C105.254668,178.453125 96.2475709,176.625 93.7143248,176.0625 L93.7143248,160.3125 C93.7143248,154.546875 93.9957966,151.59375 98.9215528,147.9375 L121.298559,132.046875 C121.720767,131.765625 122.142975,131.765625 122.565182,131.90625 C122.98739,132.046875 123.268862,132.46875 123.268862,132.890625 L123.268862,136.6875 C123.128126,137.390625 120.59488,139.078125 119.609729,139.78125 C119.046785,140.203125 118.624577,140.484375 118.343106,140.765625 C118.061634,141.046875 117.639426,141.328125 117.076482,141.75 C115.10618,143.296875 113.417349,144.5625 112.71367,145.40625 C111.024839,147.65625 111.306311,149.90625 112.432198,151.3125 C113.698821,153 116.091331,153.421875 118.20237,152.296875 C125.520636,148.640625 133.120374,141.1875 133.120374,134.4375 L133.120374,114.328125 C133.120374,108.28125 135.090676,106.59375 135.935092,106.171875 C136.779507,105.75 137.623922,105.75 138.327602,106.171875 C140.43864,107.4375 140.297904,108.140625 140.297904,110.390625 Z" id="Shape" fill="#FE5B5B"></path>
                        <path d="M101.454799,150.328125 C101.314063,150.46875 96.9512503,154.125 96.9512503,163.6875 C96.9512503,164.25 97.373458,164.8125 98.0771374,164.8125 C98.640081,164.8125 99.2030245,164.390625 99.2030245,163.6875 C99.2030245,155.25 102.862158,152.15625 102.862158,152.015625 C103.284365,151.59375 103.425101,151.03125 103.002894,150.46875 C102.580686,150.046875 101.877006,150.046875 101.454799,150.328125 Z" id="Shape" fill="#FE5B5B"></path>
                        <path d="M75.2779233,146.109375 L53.0416528,130.21875 C52.0565015,129.515625 50.6491427,129.375 49.6639914,129.9375 C48.5381043,130.5 47.8344249,131.625 47.8344249,132.890625 L47.8344249,136.6875 C47.8344249,138.234375 49.8047273,139.78125 52.4787092,141.46875 C53.0416528,141.75 53.4638604,142.03125 53.6045963,142.3125 C53.8860681,142.59375 54.3082758,142.875 54.8712193,143.296875 C56.1378423,144.28125 58.2488807,145.828125 58.8118242,146.53125 C59.9377114,147.9375 59.6562396,149.203125 59.093296,149.90625 C58.5303525,150.609375 57.4044653,151.03125 55.9971065,150.328125 C49.2417838,146.953125 42.2049893,140.0625 42.2049893,134.296875 L42.2049893,114.328125 C42.2049893,107.4375 39.8124792,105.046875 38.2643844,104.203125 C36.8570255,103.359375 35.0274589,103.359375 33.7608359,104.34375 C30.6646463,106.3125 30.6646463,108.140625 30.8053822,110.390625 C30.8053822,110.8125 30.8053822,111.234375 30.8053822,111.796875 L30.8053822,142.59375 C30.8053822,147.09375 33.7608359,150.328125 36.7162896,153.421875 L37.1384973,153.984375 C40.6568945,157.78125 44.4567635,160.59375 48.3973684,162.421875 C50.6491427,163.40625 52.9009169,164.109375 55.293427,164.53125 C55.293427,165.09375 55.1526911,165.9375 55.1526911,166.359375 C55.1526911,166.78125 55.1526911,167.0625 55.1526911,167.203125 L55.1526911,176.34375 C55.1526911,176.34375 55.1526911,176.484375 55.0119552,176.484375 C54.8712193,177.046875 55.1526911,177.609375 55.7156347,177.75 C60.359919,178.875 64.5819957,179.296875 68.2411288,179.296875 C75.4186592,179.296875 80.3444153,177.890625 80.6258871,177.75 C81.1888307,177.609375 81.4703025,177.046875 81.3295666,176.625 C81.3295666,176.625 81.3295666,176.484375 81.3295666,176.484375 L81.3295666,160.171875 C81.4703025,154.125 81.1888307,150.1875 75.2779233,146.109375 Z M79.3592641,175.921875 C76.8260181,176.484375 67.8189212,178.3125 57.2637295,175.921875 L57.2637295,167.203125 C57.2637295,167.0625 57.2637295,166.78125 57.2637295,166.5 C57.4044653,164.390625 57.4044653,163.40625 56.9822577,162.84375 C56.8415218,162.703125 56.56005,162.5625 56.2785782,162.421875 C53.8860681,162.140625 51.6342939,161.4375 49.2417838,160.453125 C45.5826506,158.765625 41.9235175,156.09375 38.5458562,152.4375 L38.1236485,151.875 C35.3089307,148.921875 32.7756847,146.109375 32.7756847,142.453125 L32.7756847,111.796875 C32.7756847,111.234375 32.7756847,110.8125 32.7756847,110.390625 C32.6349488,108.140625 32.6349488,107.4375 34.7459871,106.171875 C35.4496666,105.75 36.4348178,105.75 37.1384973,106.171875 C37.9829126,106.59375 39.9532151,108.421875 39.9532151,114.328125 L39.9532151,134.4375 C39.9532151,141.1875 47.693689,148.78125 54.8712193,152.296875 C56.9822577,153.28125 59.2340319,153 60.6413908,151.3125 C61.7672779,149.90625 62.1894856,147.515625 60.359919,145.40625 C59.6562396,144.5625 57.9674089,143.296875 55.9971065,141.75 C55.4341629,141.328125 55.0119552,141.046875 54.7304834,140.765625 C54.4490117,140.484375 54.026804,140.203125 53.4638604,139.78125 C52.4787092,139.078125 49.9454632,137.390625 49.8047273,136.6875 L49.8047273,132.890625 C49.8047273,132.46875 50.0861991,132.046875 50.5084068,131.90625 C50.9306144,131.765625 51.3528221,131.765625 51.7750298,132.046875 L74.1520362,147.9375 C79.2185282,151.453125 79.3592641,154.40625 79.3592641,160.3125 L79.3592641,175.921875 Z" id="Shape" fill="#FE5B5B"></path>
                        <path d="M71.6187902,150.328125 C71.1965825,149.90625 70.4929031,150.046875 70.0706954,150.46875 C69.6484877,150.890625 69.7892236,151.59375 70.2114313,152.015625 C70.2114313,152.015625 73.8705644,155.25 73.8705644,163.6875 C73.8705644,164.25 74.2927721,164.8125 74.9964515,164.8125 C75.5593951,164.8125 76.1223387,164.390625 76.1223387,163.6875 C76.1223387,154.125 71.900262,150.46875 71.6187902,150.328125 Z" id="Shape" fill="#FE5B5B"></path>
                        <path d="M65.4264111,67.640625 C64.0190522,66.234375 61.626542,66.234375 60.2191831,67.640625 C58.8118242,69.046875 58.8118242,71.4375 60.2191831,72.84375 L79.6407359,92.25 C79.7814718,92.390625 79.9222077,92.390625 80.2036794,92.390625 C80.3444153,92.390625 80.6258871,92.390625 80.766623,92.25 L123.409598,49.640625 C124.113277,48.9375 124.535485,47.953125 124.535485,46.96875 C124.535485,45.984375 124.113277,45 123.409598,44.296875 C122.705918,43.59375 121.861503,43.171875 120.876352,43.171875 C119.8912,43.171875 118.906049,43.59375 118.20237,44.296875 L80.2036794,82.265625 L65.4264111,67.640625 Z M119.046785,45.421875 C119.468993,45 120.031936,44.71875 120.59488,44.71875 C121.157823,44.71875 121.720767,45 122.142975,45.421875 C122.565182,45.84375 122.846654,46.40625 122.846654,46.96875 C122.846654,47.53125 122.565182,48.09375 122.142975,48.515625 L79.9222077,90.703125 L61.2043344,71.859375 C60.359919,71.015625 60.359919,69.46875 61.2043344,68.625 C61.626542,68.203125 62.1894856,67.921875 62.7524291,67.921875 C63.3153727,67.921875 63.8783163,68.203125 64.3005239,68.625 L79.5,83.8125 C79.7814718,84.09375 80.2036794,84.09375 80.4851512,83.8125 L119.046785,45.421875 Z" id="Shape" fill="#EDA9A9"></path>
                    </g>
                </g>
            </g>
        </g>
    </g>
</svg>