<?xml version="1.0" encoding="UTF-8"?>
<svg width="18px" height="16px" viewBox="0 0 18 16" version="1.1" xmlns="http://www.w3.org/2000/svg" xmlns:xlink="http://www.w3.org/1999/xlink">
    <!-- Generator: Sketch 48.1 (47250) - http://www.bohemiancoding.com/sketch -->
    <title>social-media-logo-github-36cabea419fd6947</title>
    <desc>Created with Sketch.</desc>
    <defs></defs>
    <g id="Desktop-HD" stroke="none" stroke-width="1" fill="none" fill-rule="evenodd" transform="translate(-470.000000, -4779.000000)">
        <g id="Pilotos" transform="translate(36.000000, 4381.000000)" fill="#303C42" fill-rule="nonzero">
            <g id="Group-14" transform="translate(158.000000, 206.000000)">
                <g id="Group-7">
                    <g id="Group-5" transform="translate(250.000000, 12.000000)">
                        <g id="Group-5-Copy-2" transform="translate(0.000000, 180.000000)">
                            <g id="social-media-logo-github-36cabea419fd6947" transform="translate(26.000000, 0.000000)">
                                <path d="M6.23076923,8.34782609 C5.44153846,8.34782609 4.84615385,9.39130435 4.84615385,10.7826087 C4.84615385,12.173913 5.44153846,13.2173913 6.23076923,13.2173913 C7.02,13.2173913 7.61538462,12.173913 7.61538462,10.7826087 C7.61538462,9.39130435 7.02,8.34782609 6.23076923,8.34782609 Z" id="Shape"></path>
                                <path d="M11.7692308,8.34782609 C10.98,8.34782609 10.3846154,9.39130435 10.3846154,10.7826087 C10.3846154,12.173913 10.98,13.2173913 11.7692308,13.2173913 C12.5584615,13.2173913 13.1538462,12.173913 13.1538462,10.7826087 C13.1538462,9.39130435 12.5584615,8.34782609 11.7692308,8.34782609 Z" id="Shape"></path>
                                <path d="M16.0407692,5.09913043 C16.1437978,3.68097604 15.9407036,2.25719432 15.4453846,0.925217391 C15.3914924,0.771939571 15.2391292,0.67661366 15.0784615,0.695652174 C15.0092308,0.695652174 13.4515385,0.904347826 11.1115385,2.60869565 C10.4281572,2.46930799 9.73186376,2.40400665 9.03461538,2.41391304 C8.33736911,2.4040602 7.64108136,2.46936101 6.95769231,2.60869565 C4.54846154,0.904347826 2.99076923,0.695652174 2.92153846,0.695652174 C2.76327078,0.678239613 2.61298438,0.769416921 2.55461538,0.91826087 C2.05929643,2.2502378 1.85620218,3.67401952 1.95923077,5.09217391 C1.10953748,6.14168723 0.660307569,7.46135419 0.692307692,8.81391304 C0.692307692,13.4469565 3.10846154,16 7.49769231,16 L10.4953846,16 C14.8915385,16 17.3076923,13.4469565 17.3076923,8.81391304 C17.3380359,7.46372867 16.8889019,6.14680963 16.0407692,5.09913043 Z M14.5384615,10.2678261 C14.5384615,13.3286957 12.6,13.9130435 9,13.9130435 C5.4,13.9130435 3.46153846,13.3356522 3.46153846,10.2678261 C3.43554478,9.48869882 3.73119139,8.73342377 4.27846154,8.18086957 C4.77208443,7.76278929 5.41717018,7.57110306 6.05769231,7.65217391 C6.45230769,7.65217391 6.88153846,7.65217391 7.33846154,7.72173913 C7.79538462,7.79130435 8.40461538,7.80521739 9.02076923,7.80521739 C9.63692308,7.80521739 10.1284615,7.76347826 10.6546154,7.72173913 C11.1807692,7.68 11.5407692,7.65217391 11.9353846,7.65217391 C12.5831997,7.57858737 13.2318289,7.78321055 13.7215385,8.21565217 C14.2599757,8.75979698 14.5548963,9.50066024 14.5384615,10.2678261 Z" id="Shape"></path>
                            </g>
                        </g>
                    </g>
                </g>
            </g>
        </g>
    </g>
</svg>