<?xml version="1.0" encoding="UTF-8"?>
<svg width="130px" height="130px" viewBox="0 0 130 130" version="1.1" xmlns="http://www.w3.org/2000/svg" xmlns:xlink="http://www.w3.org/1999/xlink">
    <!-- Generator: Sketch 48.1 (47250) - http://www.bohemiancoding.com/sketch -->
    <title>noun_749946_cc</title>
    <desc>Created with Sketch.</desc>
    <defs></defs>
    <g id="Desktop-HD" stroke="none" stroke-width="1" fill="none" fill-rule="evenodd" transform="translate(-185.000000, -3209.000000)" opacity="0.5">
        <g id="Estágios" transform="translate(185.000000, 2969.000000)" fill-rule="nonzero">
            <g id="noun_749946_cc" transform="translate(0.000000, 240.000000)">
                <g id="Group">
                    <path d="M91.8125,37.578125 C92.21875,37.578125 92.625,37.2734375 92.625,36.8671875 C92.625,36.4609375 92.3203125,36.0546875 91.9140625,36.0546875 L81.5546875,35.953125 C81.046875,35.953125 80.7421875,36.2578125 80.7421875,36.6640625 C80.7421875,37.0703125 81.046875,37.4765625 81.453125,37.4765625 L91.8125,37.578125 C91.8125,37.578125 91.8125,37.578125 91.8125,37.578125 Z" id="Shape" fill="#DDDDDD"></path>
                    <path d="M79.9296875,43.1640625 C79.828125,43.5703125 80.1328125,43.9765625 80.5390625,44.078125 L86.6328125,45.3984375 C86.734375,45.3984375 86.734375,45.3984375 86.8359375,45.3984375 C87.140625,45.3984375 87.546875,45.1953125 87.546875,44.7890625 C87.6484375,44.3828125 87.34375,43.9765625 86.9375,43.875 L80.84375,42.5546875 C80.4375,42.453125 80.03125,42.7578125 79.9296875,43.1640625 Z" id="Shape" fill="#DDDDDD"></path>
                    <path d="M80.84375,31.1796875 C80.9453125,31.1796875 81.046875,31.1796875 81.046875,31.1796875 L86.9375,29.25 C87.34375,29.1484375 87.546875,28.640625 87.4453125,28.3359375 C87.34375,27.9296875 86.8359375,27.7265625 86.4296875,27.828125 L80.5390625,29.7578125 C80.1328125,29.859375 79.9296875,30.3671875 80.03125,30.671875 C80.234375,30.9765625 80.5390625,31.1796875 80.84375,31.1796875 Z" id="Shape" fill="#DDDDDD"></path>
                    <path d="M56.5703125,12.390625 C56.9765625,12.390625 57.3828125,12.0859375 57.3828125,11.578125 L57.3828125,1.3203125 C57.3828125,0.9140625 57.078125,0.5078125 56.5703125,0.5078125 C56.1640625,0.5078125 55.7578125,0.8125 55.7578125,1.3203125 L55.7578125,11.6796875 C55.7578125,12.0859375 56.1640625,12.390625 56.5703125,12.390625 Z" id="Shape" fill="#DDDDDD"></path>
                    <path d="M43.265625,15.4375 C43.3671875,15.640625 43.671875,15.84375 43.875,15.84375 C43.9765625,15.84375 44.1796875,15.84375 44.28125,15.7421875 C44.6875,15.5390625 44.7890625,15.03125 44.5859375,14.7265625 L39.3046875,5.7890625 C39.1015625,5.3828125 38.59375,5.28125 38.2890625,5.484375 C37.8828125,5.6875 37.78125,6.1953125 37.984375,6.5 L43.265625,15.4375 Z" id="Shape" fill="#DDDDDD"></path>
                    <path d="M25.4921875,19.8046875 L34.53125,24.8828125 C34.6328125,24.984375 34.734375,24.984375 34.9375,24.984375 C35.2421875,24.984375 35.4453125,24.8828125 35.6484375,24.578125 C35.8515625,24.171875 35.75,23.765625 35.34375,23.5625 L26.3046875,18.484375 C25.8984375,18.28125 25.4921875,18.3828125 25.2890625,18.7890625 C24.984375,19.09375 25.0859375,19.6015625 25.4921875,19.8046875 Z" id="Shape" fill="#DDDDDD"></path>
                    <path d="M21.2265625,37.4765625 C21.2265625,37.4765625 21.2265625,37.4765625 21.2265625,37.4765625 L31.5859375,37.375 C31.9921875,37.375 32.3984375,37.0703125 32.296875,36.5625 C32.296875,36.15625 31.9921875,35.8515625 31.484375,35.8515625 C31.484375,35.8515625 31.484375,35.8515625 31.484375,35.8515625 L21.125,35.953125 C20.71875,35.953125 20.3125,36.2578125 20.4140625,36.765625 C20.515625,37.171875 20.8203125,37.4765625 21.2265625,37.4765625 Z" id="Shape" fill="#DDDDDD"></path>
                    <path d="M77.59375,24.6796875 C77.6953125,24.8828125 78,25.0859375 78.3046875,25.0859375 C78.40625,25.0859375 78.609375,25.0859375 78.7109375,24.984375 L87.75,19.90625 C88.15625,19.703125 88.2578125,19.1953125 88.0546875,18.890625 C87.8515625,18.484375 87.34375,18.3828125 87.0390625,18.5859375 L78,23.6640625 C77.4921875,23.8671875 77.390625,24.2734375 77.59375,24.6796875 Z" id="Shape" fill="#DDDDDD"></path>
                    <path d="M68.859375,15.7421875 C68.9609375,15.84375 69.1640625,15.84375 69.265625,15.84375 C69.5703125,15.84375 69.7734375,15.7421875 69.875,15.4375 L75.15625,6.5 C75.359375,6.09375 75.2578125,5.6875 74.8515625,5.484375 C74.4453125,5.28125 74.0390625,5.3828125 73.8359375,5.7890625 L68.5546875,14.7265625 C68.3515625,15.1328125 68.5546875,15.5390625 68.859375,15.7421875 Z" id="Shape" fill="#DDDDDD"></path>
                    <path d="M49.96875,12.4921875 C50.0703125,12.796875 50.375,13 50.6796875,13 C50.78125,13 50.8828125,13 50.8828125,13 C51.2890625,12.8984375 51.4921875,12.4921875 51.390625,12.0859375 L49.5625,6.09375 C49.4609375,5.6875 49.0546875,5.484375 48.6484375,5.5859375 C48.2421875,5.6875 48.0390625,6.09375 48.140625,6.5 L49.96875,12.4921875 Z" id="Shape" fill="#DDDDDD"></path>
                    <path d="M38.796875,18.9921875 C38.8984375,19.09375 39.1015625,19.1953125 39.3046875,19.1953125 C39.5078125,19.1953125 39.7109375,19.09375 39.9140625,18.9921875 C40.21875,18.6875 40.21875,18.1796875 39.9140625,17.875 L35.34375,13.7109375 C35.0390625,13.40625 34.53125,13.40625 34.2265625,13.7109375 C33.921875,14.015625 33.921875,14.5234375 34.2265625,14.828125 L38.796875,18.9921875 Z" id="Shape" fill="#DDDDDD"></path>
                    <path d="M32.703125,28.7421875 L26.609375,27.421875 C26.203125,27.3203125 25.796875,27.625 25.6953125,28.03125 C25.59375,28.4375 25.8984375,28.84375 26.3046875,28.9453125 L32.3984375,30.265625 C32.5,30.265625 32.5,30.265625 32.6015625,30.265625 C32.90625,30.265625 33.3125,30.0625 33.3125,29.65625 C33.3125,29.25 33.109375,28.84375 32.703125,28.7421875 Z" id="Shape" fill="#DDDDDD"></path>
                    <path d="M31.9921875,41.7421875 L26.1015625,43.671875 C25.6953125,43.7734375 25.4921875,44.28125 25.59375,44.5859375 C25.6953125,44.890625 26,45.09375 26.3046875,45.09375 C26.40625,45.09375 26.5078125,45.09375 26.5078125,45.09375 L32.5,43.1640625 C32.90625,43.0625 33.109375,42.65625 33.0078125,42.25 C32.8046875,41.84375 32.3984375,41.640625 31.9921875,41.7421875 Z" id="Shape" fill="#DDDDDD"></path>
                    <path d="M73.9375,19.6015625 C74.0390625,19.703125 74.2421875,19.8046875 74.4453125,19.8046875 C74.6484375,19.8046875 74.8515625,19.703125 75.0546875,19.5 L79.21875,14.828125 C79.5234375,14.5234375 79.5234375,14.015625 79.1171875,13.7109375 C78.8125,13.40625 78.3046875,13.40625 78,13.8125 L73.8359375,18.484375 C73.6328125,18.890625 73.6328125,19.296875 73.9375,19.6015625 Z" id="Shape" fill="#DDDDDD"></path>
                    <path d="M63.171875,13.203125 C63.2734375,13.203125 63.2734375,13.203125 63.375,13.203125 C63.6796875,13.203125 64.0859375,13 64.0859375,12.59375 L65.40625,6.5 C65.5078125,6.09375 65.203125,5.6875 64.796875,5.5859375 C64.390625,5.484375 63.984375,5.7890625 63.8828125,6.1953125 L62.5625,12.2890625 C62.4609375,12.6953125 62.765625,13.1015625 63.171875,13.203125 Z" id="Shape" fill="#DDDDDD"></path>
                    <path d="M52,46.71875 C52,46.71875 52.1015625,46.71875 52.1015625,46.71875 C52.5078125,46.6171875 52.8125,46.2109375 52.7109375,45.8046875 C52.7109375,45.8046875 52.609375,44.9921875 52.9140625,44.484375 C53.1171875,44.1796875 53.5234375,43.9765625 54.03125,43.875 C54.4375,43.7734375 54.7421875,43.3671875 54.640625,42.9609375 C54.5390625,42.5546875 54.1328125,42.25 53.7265625,42.3515625 C52.8125,42.5546875 52.1015625,42.9609375 51.59375,43.5703125 C50.8828125,44.6875 51.0859375,45.90625 51.0859375,46.109375 C51.390625,46.515625 51.6953125,46.71875 52,46.71875 Z" id="Shape" fill="#FE5B5B"></path>
                    <path d="M53.421875,50.4765625 C53.625,50.578125 53.828125,50.6796875 54.234375,50.78125 C54.4375,50.78125 54.5390625,50.78125 54.7421875,50.78125 C55.453125,50.78125 56.1640625,50.4765625 56.671875,49.96875 C57.1796875,50.4765625 57.890625,50.78125 58.6015625,50.78125 C58.8046875,50.78125 58.90625,50.78125 59.2109375,50.6796875 C59.4140625,50.578125 59.71875,50.4765625 59.921875,50.4765625 C63.171875,49.15625 67.03125,45.3984375 67.03125,39.40625 C67.03125,34.6328125 65.3046875,30.46875 62.0546875,26.9140625 C62.0546875,26.9140625 62.0546875,26.9140625 61.953125,26.8125 C61.953125,26.8125 61.953125,26.8125 61.953125,26.8125 C61.546875,26.3046875 61.0390625,25.8984375 60.6328125,25.4921875 C60.4296875,25.2890625 60.328125,25.1875 60.0234375,24.984375 C59.6171875,24.6796875 59.109375,24.578125 58.6015625,24.578125 C57.890625,24.578125 57.1796875,24.8828125 56.671875,25.390625 C56.1640625,24.8828125 55.453125,24.578125 54.7421875,24.578125 C54.234375,24.578125 53.7265625,24.6796875 53.21875,24.984375 C53.015625,25.0859375 52.9140625,25.2890625 52.7109375,25.390625 C52.203125,25.796875 51.796875,26.3046875 51.390625,26.7109375 C51.390625,26.7109375 51.390625,26.7109375 51.390625,26.7109375 C51.390625,26.7109375 51.390625,26.7109375 51.390625,26.7109375 C48.0390625,30.265625 46.4140625,34.53125 46.4140625,39.203125 C46.2109375,45.3984375 50.0703125,49.0546875 53.421875,50.4765625 Z M59.71875,33.4140625 C59.2109375,32.703125 58.5,32.5 58.09375,32.3984375 C57.7890625,32.3984375 57.5859375,32.3984375 57.28125,32.5 L57.28125,27.3203125 C57.28125,27.21875 57.28125,27.1171875 57.28125,27.015625 C57.3828125,26.5078125 57.890625,26.1015625 58.3984375,26.1015625 C58.6015625,26.1015625 58.8046875,26.203125 59.0078125,26.203125 C59.109375,26.3046875 59.3125,26.40625 59.4140625,26.5078125 C59.921875,26.9140625 60.328125,27.3203125 60.734375,27.828125 C60.734375,27.9296875 61.140625,28.5390625 60.0234375,30.46875 C59.8203125,30.875 59.921875,31.28125 60.328125,31.484375 C60.4296875,31.5859375 60.6328125,31.5859375 60.734375,31.5859375 C61.0390625,31.5859375 61.2421875,31.484375 61.34375,31.1796875 C61.75,30.5703125 61.953125,29.9609375 62.15625,29.453125 C63.78125,31.6875 64.796875,34.2265625 65.203125,36.96875 C64.6953125,36.6640625 64.0859375,36.4609375 63.375,36.4609375 C62.0546875,36.359375 60.734375,36.8671875 59.515625,37.984375 C59.2109375,38.2890625 59.2109375,38.796875 59.4140625,39.1015625 C59.71875,39.40625 60.2265625,39.40625 60.53125,39.203125 C61.4453125,38.390625 62.359375,37.984375 63.2734375,37.984375 C64.2890625,38.0859375 65.1015625,38.6953125 65.40625,39 C65.40625,39.1015625 65.40625,39.203125 65.40625,39.3046875 C65.40625,44.484375 62.0546875,47.734375 59.2109375,48.953125 C59.0078125,49.0546875 58.90625,49.0546875 58.8046875,49.15625 C58.703125,49.15625 58.703125,49.15625 58.6015625,49.15625 C57.9921875,49.15625 57.5859375,48.75 57.484375,48.2421875 C57.484375,48.140625 57.484375,48.0390625 57.484375,47.9375 L57.484375,34.125 C57.6875,34.0234375 57.890625,33.921875 58.09375,33.921875 C58.1953125,33.921875 58.3984375,33.921875 58.6015625,34.328125 C58.703125,34.53125 59.0078125,34.6328125 59.2109375,34.6328125 C59.4140625,34.6328125 59.515625,34.6328125 59.6171875,34.53125 C59.921875,34.2265625 60.0234375,33.8203125 59.71875,33.4140625 Z M47.734375,39.1015625 C48.0390625,38.796875 48.75,38.1875 49.8671875,38.0859375 C50.78125,37.984375 51.6953125,38.390625 52.609375,39.3046875 C52.9140625,39.609375 53.421875,39.609375 53.7265625,39.203125 C54.03125,38.8984375 54.03125,38.390625 53.625,38.0859375 C52.40625,36.96875 51.0859375,36.4609375 49.765625,36.5625 C49.0546875,36.5625 48.4453125,36.8671875 47.9375,37.0703125 C48.34375,34.328125 49.359375,31.7890625 50.984375,29.5546875 C51.1875,30.0625 51.390625,30.5703125 51.796875,31.28125 C51.8984375,31.484375 52.203125,31.6875 52.40625,31.6875 C52.5078125,31.6875 52.7109375,31.6875 52.8125,31.5859375 C53.21875,31.3828125 53.3203125,30.875 53.1171875,30.5703125 C52,28.7421875 52.40625,28.03125 52.40625,27.9296875 C52.8125,27.5234375 53.21875,27.015625 53.7265625,26.609375 C53.828125,26.5078125 54.03125,26.40625 54.03125,26.3046875 C54.234375,26.203125 54.4375,26.1015625 54.640625,26.1015625 C55.25,26.1015625 55.65625,26.5078125 55.7578125,27.015625 C55.7578125,27.1171875 55.7578125,27.21875 55.7578125,27.3203125 L55.7578125,32.5 C55.5546875,32.3984375 55.25,32.3984375 54.9453125,32.3984375 C54.5390625,32.3984375 53.828125,32.6015625 53.3203125,33.4140625 C53.1171875,33.71875 53.1171875,34.2265625 53.5234375,34.53125 C53.625,34.6328125 53.828125,34.6328125 53.9296875,34.6328125 C54.1328125,34.6328125 54.4375,34.53125 54.5390625,34.328125 C54.7421875,34.0234375 54.9453125,34.0234375 55.046875,33.921875 C55.25,33.921875 55.453125,34.0234375 55.65625,34.125 L55.65625,47.9375 C55.65625,48.0390625 55.65625,48.140625 55.65625,48.2421875 C55.5546875,48.75 55.046875,49.15625 54.5390625,49.15625 C54.4375,49.15625 54.3359375,49.15625 54.4375,49.15625 C54.234375,49.0546875 54.1328125,49.0546875 53.9296875,48.953125 C51.0859375,47.734375 47.734375,44.484375 47.734375,39.3046875 C47.734375,39.3046875 47.734375,39.203125 47.734375,39.1015625 Z" id="Shape" fill="#FE5B5B"></path>
                    <path d="M58.3984375,43.0625 C58.296875,43.46875 58.6015625,43.875 59.0078125,43.9765625 C59.515625,44.078125 59.8203125,44.28125 60.125,44.5859375 C60.53125,45.09375 60.4296875,45.90625 60.328125,45.90625 C60.2265625,46.3125 60.53125,46.71875 60.9375,46.8203125 C60.9375,46.8203125 61.0390625,46.8203125 61.0390625,46.8203125 C61.4453125,46.8203125 61.75,46.6171875 61.75,46.2109375 C61.75,46.109375 61.953125,44.7890625 61.2421875,43.671875 C60.734375,43.0625 60.125,42.5546875 59.109375,42.453125 C58.8046875,42.3515625 58.5,42.5546875 58.3984375,43.0625 Z" id="Shape" fill="#FE5B5B"></path>
                    <path d="M3.9609375,80.234375 C4.3671875,80.234375 4.7734375,79.9296875 4.7734375,79.421875 L4.7734375,65.8125 C4.7734375,65.40625 4.46875,65 3.9609375,65 C3.5546875,65 3.1484375,65.3046875 3.1484375,65.8125 L3.1484375,79.5234375 C3.25,79.828125 3.5546875,80.234375 3.9609375,80.234375 Z" id="Shape" fill="#DDDDDD"></path>
                    <path d="M3.25,88.359375 C3.25,88.765625 3.5546875,89.171875 4.0625,89.171875 C4.46875,89.171875 4.875,88.8671875 4.875,88.359375 L4.875,83.890625 C4.875,83.484375 4.5703125,83.078125 4.0625,83.078125 C3.65625,83.078125 3.25,83.3828125 3.25,83.890625 L3.25,88.359375 Z" id="Shape" fill="#DDDDDD"></path>
                    <path d="M119.640625,97.09375 C119.234375,97.09375 118.828125,97.3984375 118.828125,97.90625 L118.828125,111.617188 C118.828125,112.023438 119.132812,112.429688 119.640625,112.429688 C120.046875,112.429688 120.453125,112.125 120.453125,111.617188 L120.453125,97.8046875 C120.453125,97.3984375 120.046875,97.09375 119.640625,97.09375 Z" id="Shape" fill="#DDDDDD"></path>
                    <path d="M119.640625,115.171875 C119.234375,115.171875 118.828125,115.476562 118.828125,115.984375 L118.828125,120.453125 C118.828125,120.859375 119.132812,121.265625 119.640625,121.265625 C120.046875,121.265625 120.453125,120.960938 120.453125,120.453125 L120.453125,115.984375 C120.453125,115.578125 120.046875,115.171875 119.640625,115.171875 Z" id="Shape" fill="#DDDDDD"></path>
                    <path d="M114.96875,77.8984375 C114.664063,77.59375 114.15625,77.59375 113.851563,77.8984375 C113.546875,78.203125 113.546875,78.7109375 113.851563,79.015625 L115.476563,80.640625 C115.578125,80.7421875 115.78125,80.84375 115.984375,80.84375 C116.1875,80.84375 116.390625,80.7421875 116.492188,80.640625 C116.796875,80.3359375 116.796875,79.828125 116.492188,79.5234375 L114.96875,77.8984375 Z" id="Shape" fill="#DDDDDD"></path>
                    <path d="M120.25,83.078125 C119.945313,82.7734375 119.4375,82.7734375 119.132813,83.078125 C118.828125,83.3828125 118.828125,83.890625 119.132813,84.1953125 L120.757813,85.8203125 C120.859375,85.921875 121.0625,86.0234375 121.265625,86.0234375 C121.46875,86.0234375 121.671875,85.921875 121.773438,85.8203125 C122.078125,85.515625 122.078125,85.0078125 121.773438,84.703125 L120.25,83.078125 Z" id="Shape" fill="#DDDDDD"></path>
                    <path d="M115.578125,83.078125 L113.953125,84.703125 C113.648438,85.0078125 113.648438,85.515625 113.953125,85.8203125 C114.054687,85.921875 114.257812,86.0234375 114.460938,86.0234375 C114.664062,86.0234375 114.867188,85.921875 114.96875,85.8203125 L116.59375,84.1953125 C116.898437,83.890625 116.898437,83.3828125 116.59375,83.078125 C116.289062,82.7734375 115.78125,82.7734375 115.578125,83.078125 Z" id="Shape" fill="#DDDDDD"></path>
                    <path d="M120.757813,77.8984375 L119.132813,79.5234375 C118.828125,79.828125 118.828125,80.3359375 119.132813,80.640625 C119.234375,80.7421875 119.4375,80.84375 119.640625,80.84375 C119.84375,80.84375 120.046875,80.7421875 120.148438,80.640625 L121.773438,79.015625 C122.078125,78.7109375 122.078125,78.203125 121.773438,77.8984375 C121.46875,77.59375 121.0625,77.59375 120.757813,77.8984375 Z" id="Shape" fill="#DDDDDD"></path>
                    <path d="M4.5703125,119.742188 C4.265625,119.4375 3.7578125,119.4375 3.453125,119.742188 C3.1484375,120.046875 3.1484375,120.554688 3.453125,120.859375 L5.078125,122.484375 C5.1796875,122.585937 5.3828125,122.6875 5.5859375,122.6875 C5.7890625,122.6875 5.9921875,122.585937 6.09375,122.484375 C6.3984375,122.179687 6.3984375,121.671875 6.09375,121.367187 L4.5703125,119.742188 Z" id="Shape" fill="#DDDDDD"></path>
                    <path d="M9.8515625,124.921875 C9.546875,124.617188 9.0390625,124.617188 8.734375,124.921875 C8.4296875,125.226562 8.4296875,125.734375 8.734375,126.039062 L10.359375,127.664062 C10.4609375,127.765625 10.6640625,127.867187 10.8671875,127.867187 C11.0703125,127.867187 11.2734375,127.765625 11.375,127.664062 C11.6796875,127.359375 11.6796875,126.851562 11.375,126.546875 L9.8515625,124.921875 Z" id="Shape" fill="#DDDDDD"></path>
                    <path d="M5.078125,124.921875 L3.453125,126.546875 C3.1484375,126.851562 3.1484375,127.359375 3.453125,127.664062 C3.5546875,127.765625 3.7578125,127.867187 3.9609375,127.867187 C4.1640625,127.867187 4.3671875,127.765625 4.46875,127.664062 L6.09375,126.039062 C6.3984375,125.734375 6.3984375,125.226562 6.09375,124.921875 C5.890625,124.617188 5.3828125,124.617188 5.078125,124.921875 Z" id="Shape" fill="#DDDDDD"></path>
                    <path d="M10.359375,119.742188 L8.734375,121.367188 C8.4296875,121.671875 8.4296875,122.179688 8.734375,122.484375 C8.8359375,122.585937 9.0390625,122.6875 9.2421875,122.6875 C9.4453125,122.6875 9.6484375,122.585938 9.75,122.484375 L11.375,120.859375 C11.6796875,120.554688 11.6796875,120.046875 11.375,119.742188 C11.0703125,119.4375 10.6640625,119.4375 10.359375,119.742188 Z" id="Shape" fill="#DDDDDD"></path>
                    <path d="M125.53125,41.9453125 C123.296875,41.9453125 121.570312,43.7734375 121.570312,45.90625 C121.570312,48.140625 123.398438,49.8671875 125.53125,49.8671875 C127.765625,49.8671875 129.492188,48.0390625 129.492188,45.90625 C129.492188,43.7734375 127.664063,41.9453125 125.53125,41.9453125 Z M125.53125,48.4453125 C124.210938,48.4453125 123.09375,47.328125 123.09375,46.0078125 C123.09375,44.6875 124.210938,43.5703125 125.53125,43.5703125 C126.851562,43.5703125 127.96875,44.6875 127.96875,46.0078125 C127.96875,47.328125 126.851563,48.4453125 125.53125,48.4453125 Z" id="Shape" fill="#DDDDDD"></path>
                    <path d="M10.8671875,97.1953125 C8.6328125,97.1953125 6.90625,99.0234375 6.90625,101.15625 C6.90625,103.390625 8.734375,105.117188 10.8671875,105.117188 C13.1015625,105.117188 14.828125,103.289063 14.828125,101.15625 C14.828125,98.921875 13.1015625,97.1953125 10.8671875,97.1953125 Z M10.8671875,103.59375 C9.546875,103.59375 8.4296875,102.476562 8.4296875,101.15625 C8.4296875,99.8359375 9.546875,98.71875 10.8671875,98.71875 C12.1875,98.71875 13.3046875,99.8359375 13.3046875,101.15625 C13.3046875,102.476562 12.1875,103.59375 10.8671875,103.59375 Z" id="Shape" fill="#DDDDDD"></path>
                    <path d="M97.09375,8.734375 C97.09375,9.140625 97.3984375,9.546875 97.90625,9.546875 L112.734375,9.546875 C113.140625,9.546875 113.546875,9.2421875 113.546875,8.734375 C113.546875,8.328125 113.242188,7.921875 112.734375,7.921875 L97.8046875,7.921875 C97.3984375,7.921875 97.09375,8.328125 97.09375,8.734375 Z" id="Shape" fill="#DDDDDD"></path>
                    <path d="M88.2578125,9.4453125 L93.03125,9.4453125 C93.4375,9.4453125 93.84375,9.140625 93.84375,8.6328125 C93.84375,8.2265625 93.5390625,7.8203125 93.03125,7.8203125 L88.2578125,7.8203125 C87.8515625,7.8203125 87.4453125,8.125 87.4453125,8.6328125 C87.4453125,9.140625 87.75,9.4453125 88.2578125,9.4453125 Z" id="Shape" fill="#DDDDDD"></path>
                    <path d="M88.2578125,4.3671875 L98.515625,4.3671875 C98.921875,4.3671875 99.328125,4.0625 99.328125,3.5546875 C99.328125,3.1484375 99.0234375,2.7421875 98.515625,2.7421875 L88.2578125,2.7421875 C87.8515625,2.7421875 87.4453125,3.046875 87.4453125,3.5546875 C87.4453125,4.0625 87.75,4.3671875 88.2578125,4.3671875 Z" id="Shape" fill="#DDDDDD"></path>
                    <path d="M102.984375,4.3671875 L106.335938,4.3671875 C106.742188,4.3671875 107.148438,4.0625 107.148438,3.5546875 C107.148438,3.1484375 106.84375,2.7421875 106.335938,2.7421875 L102.984375,2.7421875 C102.578125,2.7421875 102.171875,3.046875 102.171875,3.5546875 C102.171875,4.0625 102.578125,4.3671875 102.984375,4.3671875 Z" id="Shape" fill="#DDDDDD"></path>
                    <path d="M37.8828125,120.25 C37.8828125,120.65625 38.1875,121.0625 38.6953125,121.0625 L53.5234375,121.0625 C53.9296875,121.0625 54.3359375,120.757812 54.3359375,120.25 C54.3359375,119.84375 54.03125,119.4375 53.5234375,119.4375 L38.6953125,119.4375 C38.2890625,119.539062 37.8828125,119.84375 37.8828125,120.25 Z" id="Shape" fill="#EDA9A9"></path>
                    <path d="M33.8203125,119.539062 L29.046875,119.539062 C28.640625,119.539062 28.234375,119.84375 28.234375,120.351562 C28.234375,120.757812 28.5390625,121.164062 29.046875,121.164062 L33.8203125,121.164062 C34.2265625,121.164062 34.6328125,120.859375 34.6328125,120.351562 C34.53125,119.84375 34.2265625,119.539062 33.8203125,119.539062 Z" id="Shape" fill="#EDA9A9"></path>
                    <path d="M29.046875,115.984375 L39.40625,115.984375 C39.8125,115.984375 40.21875,115.679688 40.21875,115.171875 C40.21875,114.765625 39.9140625,114.359375 39.40625,114.359375 L29.046875,114.359375 C28.640625,114.359375 28.234375,114.664062 28.234375,115.171875 C28.234375,115.679688 28.640625,115.984375 29.046875,115.984375 Z" id="Shape" fill="#EDA9A9"></path>
                    <path d="M42.9609375,115.171875 C42.9609375,115.578125 43.265625,115.984375 43.7734375,115.984375 L47.125,115.984375 C47.53125,115.984375 47.9375,115.679688 47.9375,115.171875 C47.9375,114.765625 47.6328125,114.359375 47.125,114.359375 L43.7734375,114.359375 C43.3671875,114.460938 42.9609375,114.765625 42.9609375,115.171875 Z" id="Shape" fill="#EDA9A9"></path>
                    <path d="M120.453125,32.296875 C120.453125,32.296875 120.453125,32.296875 120.453125,32.296875 C120.757812,32.296875 121.0625,32.1953125 121.164062,31.890625 L123.195312,28.4375 L127.15625,28.03125 C127.460938,28.03125 127.664062,27.828125 127.765625,27.5234375 C127.867187,27.21875 127.867187,26.9140625 127.664062,26.7109375 L125.023438,23.765625 L125.9375,19.8046875 C126.039062,19.5 125.9375,19.1953125 125.632813,19.09375 C125.429688,18.890625 125.125,18.890625 124.820313,18.9921875 L121.164063,20.6171875 L117.710938,18.5859375 C117.507813,18.484375 117.101563,18.484375 116.898438,18.5859375 C116.695313,18.7890625 116.492188,18.9921875 116.59375,19.296875 L117,23.2578125 L113.953125,25.8984375 C113.75,26.1015625 113.648438,26.40625 113.75,26.7109375 C113.851563,27.015625 114.054688,27.21875 114.359375,27.21875 L118.320313,28.03125 L119.945313,31.6875 C119.945312,32.09375 120.148437,32.296875 120.453125,32.296875 Z M118.929687,26.8125 L116.085937,26.203125 L118.21875,24.2734375 C118.421875,24.0703125 118.523437,23.8671875 118.523437,23.6640625 L118.21875,20.8203125 L120.65625,22.34375 C120.859375,22.4453125 121.164062,22.4453125 121.367188,22.34375 L124.007812,21.2265625 L123.398438,24.0703125 C123.296875,24.2734375 123.398438,24.578125 123.601562,24.78125 L125.53125,26.9140625 L122.6875,27.21875 C122.484375,27.21875 122.179688,27.421875 122.078125,27.625 L120.65625,30.1640625 L119.539063,27.5234375 C119.335938,27.015625 119.132812,26.8125 118.929687,26.8125 Z" id="Shape" fill="#DDDDDD"></path>
                    <path d="M106.335938,40.7265625 C104.8125,43.3671875 103.898438,46.0078125 103.492188,48.6484375 C103.390625,49.0546875 103.695313,49.4609375 104.101563,49.5625 C104.101563,49.5625 104.203125,49.5625 104.203125,49.5625 C104.609375,49.5625 104.914062,49.2578125 104.914062,48.953125 C105.320313,46.515625 106.234375,44.078125 107.65625,41.5390625 C107.859375,41.1328125 107.757812,40.7265625 107.351562,40.5234375 C106.945312,40.21875 106.539063,40.3203125 106.335938,40.7265625 Z" id="Shape" fill="#DDDDDD"></path>
                    <path d="M108.875,36.765625 C108.570312,37.0703125 108.671875,37.578125 108.976562,37.8828125 C109.078125,37.984375 109.28125,38.0859375 109.484375,38.0859375 C109.6875,38.0859375 109.890625,37.984375 110.09375,37.78125 C112.835938,34.2265625 115.578125,32.09375 115.578125,31.9921875 C115.882812,31.6875 115.984375,31.28125 115.679687,30.875 C115.375,30.5703125 114.96875,30.46875 114.5625,30.7734375 C114.5625,30.875 111.71875,33.109375 108.875,36.765625 Z" id="Shape" fill="#DDDDDD"></path>
                    <path d="M9.546875,25.390625 L13.5078125,25.6953125 C13.8125,25.6953125 14.1171875,25.59375 14.21875,25.2890625 C14.3203125,25.0859375 14.3203125,24.6796875 14.21875,24.4765625 L12.1875,21.125 L13.7109375,17.3671875 C13.8125,17.0625 13.8125,16.7578125 13.609375,16.5546875 C13.40625,16.3515625 13.1015625,16.25 12.796875,16.3515625 L8.9375,17.3671875 L5.890625,14.828125 C5.6875,14.625 5.3828125,14.625 5.078125,14.7265625 C4.7734375,14.828125 4.671875,15.1328125 4.5703125,15.3359375 L4.265625,19.296875 L0.8125,21.4296875 C0.609375,21.6328125 0.40625,21.8359375 0.40625,22.140625 C0.40625,22.4453125 0.609375,22.6484375 0.9140625,22.75 L4.671875,24.171875 L5.6875,28.03125 C5.7890625,28.3359375 5.9921875,28.5390625 6.296875,28.640625 C6.3984375,28.640625 6.3984375,28.640625 6.5,28.640625 C6.703125,28.640625 6.90625,28.5390625 7.109375,28.3359375 L9.546875,25.390625 Z M6.09375,23.5625 C5.9921875,23.359375 5.890625,23.15625 5.5859375,23.0546875 L2.84375,22.0390625 L5.28125,20.515625 C5.484375,20.4140625 5.5859375,20.109375 5.6875,19.90625 L5.890625,17.0625 L8.125,18.7890625 C8.328125,18.9921875 8.53125,18.9921875 8.8359375,18.9921875 L11.6796875,18.28125 L10.5625,20.921875 C10.4609375,21.125 10.4609375,21.4296875 10.6640625,21.6328125 L12.1875,24.0703125 L9.34375,23.8671875 C9.140625,23.8671875 8.8359375,23.96875 8.734375,24.171875 L6.90625,26.40625 L6.09375,23.5625 Z" id="Shape" fill="#DDDDDD"></path>
                    <path d="M16.046875,41.03125 C16.453125,42.9609375 16.7578125,44.7890625 16.7578125,46.515625 C16.7578125,47.328125 16.7578125,48.0390625 16.65625,48.8515625 C16.5546875,49.2578125 16.859375,49.6640625 17.3671875,49.6640625 C17.3671875,49.6640625 17.46875,49.6640625 17.46875,49.6640625 C17.875,49.6640625 18.1796875,49.359375 18.1796875,48.953125 C18.28125,48.140625 18.28125,47.328125 18.28125,46.4140625 C18.28125,44.5859375 18.078125,42.5546875 17.5703125,40.5234375 C17.46875,40.1171875 17.0625,39.8125 16.65625,39.9140625 C16.25,40.21875 15.9453125,40.625 16.046875,41.03125 Z" id="Shape" fill="#DDDDDD"></path>
                    <path d="M11.171875,28.640625 C10.8671875,28.84375 10.765625,29.3515625 10.96875,29.7578125 C10.96875,29.7578125 13,32.6015625 14.625,36.765625 C14.7265625,37.0703125 15.03125,37.2734375 15.3359375,37.2734375 C15.4375,37.2734375 15.5390625,37.2734375 15.640625,37.171875 C16.046875,36.96875 16.25,36.5625 16.046875,36.15625 C14.3203125,31.7890625 12.2890625,28.84375 12.1875,28.7421875 C11.984375,28.4375 11.4765625,28.4375 11.171875,28.640625 Z" id="Shape" fill="#DDDDDD"></path>
                    <path d="M116.695312,57.5859375 C116.59375,57.28125 116.289062,57.1796875 115.984375,57.1796875 L90.6953125,57.1796875 C90.4921875,57.1796875 90.1875,57.28125 90.0859375,57.484375 L84.703125,65 L74.2421875,65 L69.0625,57.6875 C70.3828125,54.03125 71.90625,50.4765625 73.8359375,47.2265625 C74.0390625,46.921875 74.140625,46.71875 74.34375,46.3125 C76.2734375,42.9609375 77.1875,39.1015625 76.984375,35.140625 C76.4765625,24.78125 68.25,16.5546875 57.9921875,15.84375 C52.3046875,15.4375 46.8203125,17.3671875 42.65625,21.328125 C38.4921875,25.1875 36.15625,30.5703125 36.15625,36.2578125 C36.15625,39.40625 36.8671875,42.453125 38.2890625,45.296875 C38.2890625,45.296875 38.2890625,45.3984375 38.390625,45.3984375 C38.8984375,46.2109375 39.5078125,47.125 40.015625,48.0390625 C40.015625,48.0390625 40.015625,48.0390625 40.015625,48.140625 C41.640625,50.984375 42.9609375,54.03125 44.078125,57.1796875 L11.2734375,57.1796875 C10.96875,57.1796875 10.765625,57.3828125 10.5625,57.5859375 C10.4609375,57.890625 10.4609375,58.1953125 10.6640625,58.3984375 L21.8359375,73.8359375 L21.8359375,125.328125 C21.8359375,127.664062 23.765625,129.492187 26,129.492187 L101.257812,129.492187 C103.59375,129.492187 105.421875,127.5625 105.421875,125.328125 L105.421875,73.8359375 L116.492187,58.3984375 C116.796875,58.1953125 116.796875,57.890625 116.695312,57.5859375 Z M41.234375,47.328125 C41.234375,47.328125 41.234375,47.328125 41.234375,47.328125 C40.625,46.4140625 40.1171875,45.5 39.609375,44.6875 C38.2890625,42.046875 37.6796875,39.3046875 37.6796875,36.359375 C37.6796875,31.1796875 39.9140625,26.1015625 43.671875,22.546875 C47.53125,18.890625 52.609375,17.1640625 57.890625,17.46875 C67.4375,18.078125 74.953125,25.796875 75.4609375,35.34375 C75.6640625,39 74.8515625,42.5546875 73.125,45.6015625 C73.125,45.6015625 73.0234375,45.703125 73.0234375,45.703125 C72.8203125,46.0078125 72.71875,46.2109375 72.515625,46.515625 C70.5859375,49.8671875 68.9609375,53.421875 67.640625,57.1796875 L45.6015625,57.1796875 C44.3828125,53.7265625 42.9609375,50.4765625 41.234375,47.328125 Z M22.953125,72.8203125 L12.796875,58.703125 L67.84375,58.703125 L78,72.8203125 L22.953125,72.8203125 Z M78.7109375,127.96875 L26,127.96875 C24.4765625,127.96875 23.359375,126.75 23.359375,125.328125 L23.359375,74.34375 L78.7109375,74.34375 L78.7109375,127.96875 Z M75.359375,66.5234375 L83.5859375,66.5234375 L79.5234375,72.2109375 L75.359375,66.5234375 Z M103.898438,125.328125 C103.898438,126.851563 102.679688,127.96875 101.257812,127.96875 L80.234375,127.96875 L80.234375,74.34375 L104,74.34375 L104,125.328125 L103.898438,125.328125 Z M104.304687,72.8203125 L80.9453125,72.8203125 L91.1015625,58.703125 L114.460937,58.703125 L104.304687,72.8203125 Z" id="Shape" fill="#FE5B5B"></path>
                    <path d="M27.3203125,105.21875 C27.7265625,105.21875 28.1328125,104.914062 28.1328125,104.40625 L28.1328125,80.3359375 C28.1328125,79.7265625 28.640625,79.21875 29.25,79.21875 L45.1953125,79.21875 C45.6015625,79.21875 46.0078125,78.9140625 46.0078125,78.40625 C46.0078125,78 45.703125,77.59375 45.1953125,77.59375 L29.25,77.59375 C27.7265625,77.59375 26.609375,78.8125 26.609375,80.234375 L26.609375,104.304688 C26.5078125,104.8125 26.9140625,105.21875 27.3203125,105.21875 Z" id="Shape" fill="#EDA9A9"></path>
                    <path d="M73.8359375,122.078125 C74.2421875,122.078125 74.6484375,121.773438 74.6484375,121.265625 L74.6484375,96.890625 C74.6484375,96.484375 74.34375,96.078125 73.8359375,96.078125 C73.4296875,96.078125 73.0234375,96.3828125 73.0234375,96.890625 L73.0234375,121.265625 C73.125,121.773438 73.4296875,122.078125 73.8359375,122.078125 Z" id="Shape" fill="#EDA9A9"></path>
                    <path d="M68.25,122.078125 C68.65625,122.078125 69.0625,121.773438 69.0625,121.265625 L69.0625,109.078125 C69.0625,108.671875 68.7578125,108.265625 68.25,108.265625 C67.84375,108.265625 67.4375,108.570312 67.4375,109.078125 L67.4375,121.265625 C67.4375,121.773438 67.84375,122.078125 68.25,122.078125 Z" id="Shape" fill="#EDA9A9"></path>
                </g>
            </g>
        </g>
    </g>
</svg>