<?xml version="1.0" encoding="UTF-8"?>
<svg width="85px" height="23px" viewBox="0 0 85 23" version="1.1" xmlns="http://www.w3.org/2000/svg" xmlns:xlink="http://www.w3.org/1999/xlink">
    <!-- Generator: Sketch 48.1 (47250) - http://www.bohemiancoding.com/sketch -->
    <title>Group 27</title>
    <desc>Created with Sketch.</desc>
    <defs></defs>
    <g id="Desktop-HD" stroke="none" stroke-width="1" fill="none" fill-rule="evenodd" transform="translate(-473.000000, -3181.000000)" opacity="0.5">
        <g id="Estágios" transform="translate(185.000000, 2969.000000)">
            <g id="Group-21" transform="translate(288.000000, 212.000000)">
                <g id="Group-27">
                    <rect id="Rectangle" stroke="#FE5B5B" stroke-width="2" x="1" y="1" width="83" height="21" rx="5"></rect>
                    <path d="M12.292,14.812 L13.252,14.104 C13.576,14.68 13.996,14.932 14.476,14.932 C15.208,14.932 15.592,14.536 15.592,13.42 L15.592,8.152 L16.984,8.152 L16.984,13.54 C16.984,14.968 16.276,16.144 14.644,16.144 C13.54,16.144 12.796,15.688 12.292,14.812 Z M18.856,12.556 L18.856,8.152 L20.248,8.152 L20.248,12.664 C20.248,14.368 20.896,14.932 21.844,14.932 C22.804,14.932 23.464,14.368 23.464,12.664 L23.464,8.152 L24.808,8.152 L24.808,12.556 C24.808,15.136 23.656,16.144 21.844,16.144 C20.02,16.144 18.856,15.136 18.856,12.556 Z M26.728,16 L26.728,8.152 L28.252,8.152 L29.668,12.016 L30.184,13.504 L30.232,13.504 L30.748,12.016 L32.128,8.152 L33.664,8.152 L33.664,16 L32.356,16 L32.356,12.412 C32.356,11.68 32.464,10.636 32.536,9.916 L32.488,9.916 L31.852,11.704 L30.496,15.268 L29.86,15.268 L28.504,11.704 L27.88,9.916 L27.832,9.916 C27.892,10.636 28,11.68 28,12.412 L28,16 L26.728,16 Z M35.632,16 L35.632,8.152 L38.272,8.152 C39.988,8.152 41.248,8.752 41.248,10.576 C41.248,12.316 39.952,13.12 38.272,13.12 L37.024,13.12 L37.024,16 L35.632,16 Z M37.024,12.004 L38.152,12.004 C39.328,12.004 39.88,11.536 39.88,10.576 C39.88,9.592 39.292,9.268 38.152,9.268 L37.024,9.268 L37.024,12.004 Z M42.028,14.992 L42.832,14.044 C43.396,14.572 44.152,14.932 44.884,14.932 C45.76,14.932 46.252,14.536 46.252,13.924 C46.252,13.276 45.748,13.072 45.028,12.772 L43.96,12.304 C43.18,11.98 42.376,11.368 42.376,10.216 C42.376,8.968 43.48,8.008 45.004,8.008 C45.928,8.008 46.816,8.392 47.428,9.004 L46.708,9.892 C46.216,9.472 45.676,9.22 45.004,9.22 C44.26,9.22 43.78,9.568 43.78,10.144 C43.78,10.756 44.38,10.984 45.028,11.248 L46.084,11.692 C47.02,12.088 47.668,12.676 47.668,13.816 C47.668,15.088 46.612,16.144 44.848,16.144 C43.792,16.144 42.772,15.724 42.028,14.992 Z M50.416,16 L50.416,9.328 L48.148,9.328 L48.148,8.152 L54.064,8.152 L54.064,9.328 L51.808,9.328 L51.808,16 L50.416,16 Z M56.188,12.784 L58.192,12.784 L57.916,11.824 C57.676,10.996 57.436,10.096 57.208,9.232 L57.16,9.232 C56.944,10.108 56.716,10.996 56.464,11.824 L56.188,12.784 Z M59.116,16 L58.504,13.876 L55.876,13.876 L55.264,16 L53.836,16 L56.404,8.152 L58.036,8.152 L60.592,16 L59.116,16 Z M62.92,9.268 L62.92,11.824 L64.024,11.824 C65.104,11.824 65.68,11.368 65.68,10.48 C65.68,9.58 65.104,9.268 64.024,9.268 L62.92,9.268 Z M67.36,16 L65.8,16 L64.108,12.928 L62.92,12.928 L62.92,16 L61.528,16 L61.528,8.152 L64.168,8.152 C65.8,8.152 67.06,8.728 67.06,10.48 C67.06,11.68 66.436,12.4 65.488,12.724 L67.36,16 Z M70.024,16 L70.024,9.328 L67.756,9.328 L67.756,8.152 L73.672,8.152 L73.672,9.328 L71.416,9.328 L71.416,16 L70.024,16 Z" id="JUMPSTART" fill="#FE5B5B"></path>
                </g>
            </g>
        </g>
    </g>
</svg>