<?xml version="1.0" encoding="UTF-8"?>
<svg width="16px" height="16px" viewBox="0 0 16 16" version="1.1" xmlns="http://www.w3.org/2000/svg" xmlns:xlink="http://www.w3.org/1999/xlink">
    <!-- Generator: Sketch 48.1 (47250) - http://www.bohemiancoding.com/sketch -->
    <title>social-media-logo-likedin-31fb7b18fe9aab9c</title>
    <desc>Created with Sketch.</desc>
    <defs></defs>
    <g id="Desktop-HD" stroke="none" stroke-width="1" fill="none" fill-rule="evenodd" transform="translate(-444.000000, -4779.000000)">
        <g id="Pilotos" transform="translate(36.000000, 4381.000000)" fill="#303C42" fill-rule="nonzero">
            <g id="Group-14" transform="translate(158.000000, 206.000000)">
                <g id="Group-7">
                    <g id="Group-5" transform="translate(250.000000, 12.000000)">
                        <g id="Group-5-Copy-2" transform="translate(0.000000, 180.000000)">
                            <g id="social-media-logo-likedin-31fb7b18fe9aab9c">
                                <path d="M14.5454545,0 L1.45454545,0 C0.651222182,-8.07434927e-17 1.61486985e-16,0.651222182 0,1.45454545 L0,14.5454545 C1.61486985e-16,15.3487778 0.651222182,16 1.45454545,16 L14.5454545,16 C15.3487778,16 16,15.3487778 16,14.5454545 L16,1.45454545 C16,0.651222182 15.3487778,0 14.5454545,0 Z M5.09090909,13.4545455 C5.09090909,13.6553763 4.92810355,13.8181818 4.72727273,13.8181818 L2.54545455,13.8181818 C2.34462373,13.8181818 2.18181818,13.6553763 2.18181818,13.4545455 L2.18181818,6.18181818 C2.18181818,5.98098736 2.34462373,5.81818182 2.54545455,5.81818182 L4.72727273,5.81818182 C4.92810355,5.81818182 5.09090909,5.98098736 5.09090909,6.18181818 L5.09090909,13.4545455 Z M3.63636364,5.09090909 C2.83304036,5.09090909 2.18181818,4.43968691 2.18181818,3.63636364 C2.18181818,2.83304036 2.83304036,2.18181818 3.63636364,2.18181818 C4.43968691,2.18181818 5.09090909,2.83304036 5.09090909,3.63636364 C5.09090909,4.02213308 4.93766278,4.3921024 4.66488259,4.66488259 C4.3921024,4.93766278 4.02213308,5.09090909 3.63636364,5.09090909 Z M13.8181818,13.4545455 C13.8181818,13.6553763 13.6553763,13.8181818 13.4545455,13.8181818 L11.2727273,13.8181818 C11.0718965,13.8181818 10.9090909,13.6553763 10.9090909,13.4545455 L10.9090909,9.45454545 C10.9090909,8.54545455 10.5018182,8 9.81818182,8 C9.13454545,8 8.72727273,8.54545455 8.72727273,9.45454545 L8.72727273,13.4545455 C8.72727273,13.6553763 8.56446718,13.8181818 8.36363636,13.8181818 L6.18181818,13.8181818 C5.98098736,13.8181818 5.81818182,13.6553763 5.81818182,13.4545455 L5.81818182,6.18181818 C5.81818182,5.98098736 5.98098736,5.81818182 6.18181818,5.81818182 L8.36363636,5.81818182 C8.56446718,5.81818182 8.72727273,5.98098736 8.72727273,6.18181818 L8.72727273,6.40727273 C9.24489085,6.00262375 9.88888537,5.79396953 10.5454545,5.81818182 C12.5309091,5.81818182 13.8181818,7.27272727 13.8181818,9.45454545 L13.8181818,13.4545455 Z" id="Shape"></path>
                            </g>
                        </g>
                    </g>
                </g>
            </g>
        </g>
    </g>
</svg>