<?xml version="1.0" encoding="UTF-8"?>
<svg width="183px" height="40px" viewBox="0 0 183 40" version="1.1" xmlns="http://www.w3.org/2000/svg" xmlns:xlink="http://www.w3.org/1999/xlink">
    <!-- Generator: Sketch 48.1 (47250) - http://www.bohemiancoding.com/sketch -->
    <title>jumpstart</title>
    <desc>Created with Sketch.</desc>
    <defs></defs>
    <g id="Desktop-HD" stroke="none" stroke-width="1" fill="none" fill-rule="evenodd" transform="translate(-628.000000, -67.000000)">
        <g id="Header" fill="#FFFFFF">
            <g id="Group" transform="translate(628.000000, 67.000000)">
                <g id="Head">
                    <g id="Logo">
                        <path d="M5.602,32.31 L5.602,9.588 L9.046,9.588 L9.046,32.31 C9.046,36.468 7.534,39.114 3.46,39.114 C2.2,39.114 1.15,38.862 0.436,38.568 L1.15,35.964 C1.654,36.132 2.368,36.3 3.082,36.3 C5.098,36.3 5.602,34.788 5.602,32.31 Z M7.366,5.388 C6.022,5.388 4.972,4.464 4.972,3.162 C4.972,1.818 6.022,0.936 7.366,0.936 C8.668,0.936 9.718,1.818 9.718,3.162 C9.718,4.464 8.668,5.388 7.366,5.388 Z M15.64,22.524 L15.64,9.588 L19.126,9.588 L19.126,22.062 C19.126,25.884 20.26,27.522 22.948,27.522 C25.048,27.522 26.518,26.472 28.45,24.078 L28.45,9.588 L31.894,9.588 L31.894,30 L29.038,30 L28.744,26.808 L28.618,26.808 C26.728,29.034 24.712,30.504 21.898,30.504 C17.572,30.504 15.64,27.732 15.64,22.524 Z M38.782,30 L38.782,9.588 L41.638,9.588 L41.932,12.528 L42.058,12.528 C43.822,10.596 45.964,9.084 48.4,9.084 C51.508,9.084 53.188,10.554 54.028,12.99 C56.17,10.68 58.27,9.084 60.748,9.084 C64.948,9.084 66.964,11.856 66.964,17.064 L66.964,30 L63.52,30 L63.52,17.526 C63.52,13.704 62.302,12.066 59.74,12.066 C58.144,12.066 56.506,13.116 54.616,15.216 L54.616,30 L51.172,30 L51.172,17.526 C51.172,13.704 49.954,12.066 47.35,12.066 C45.838,12.066 44.116,13.116 42.226,15.216 L42.226,30 L38.782,30 Z M76.96,28.152 L77.044,31.722 L77.044,38.61 L73.6,38.61 L73.6,9.588 L76.456,9.588 L76.75,11.94 L76.876,11.94 C78.724,10.386 80.992,9.084 83.386,9.084 C88.636,9.084 91.45,13.158 91.45,19.5 C91.45,26.43 87.292,30.504 82.63,30.504 C80.74,30.504 78.85,29.622 76.96,28.152 Z M77.044,25.464 C78.892,27.018 80.698,27.606 82.042,27.606 C85.402,27.606 87.88,24.54 87.88,19.5 C87.88,15.006 86.368,11.982 82.504,11.982 C80.782,11.982 79.06,12.948 77.044,14.754 L77.044,25.464 Z M94.348,27.606 L97.12,23.742 C99.01,25.17 100.732,25.926 102.496,25.926 C104.344,25.926 105.142,25.254 105.142,24.162 C105.142,22.776 103.042,22.146 100.9,21.306 C98.38,20.34 95.398,18.618 95.398,15.174 C95.398,11.31 98.548,8.664 103.378,8.664 C106.57,8.664 108.922,9.966 110.728,11.31 L107.956,15.006 C106.444,13.914 105.016,13.242 103.546,13.242 C101.95,13.242 101.194,13.83 101.194,14.88 C101.194,16.224 103.126,16.728 105.268,17.526 C107.914,18.492 110.896,19.962 110.896,23.784 C110.896,27.564 107.914,30.504 102.328,30.504 C99.598,30.504 96.448,29.328 94.348,27.606 Z M115.642,22.44 L115.642,13.998 L112.786,13.998 L112.786,9.42 L115.978,9.168 L116.692,3.624 L121.816,3.624 L121.816,9.168 L126.814,9.168 L126.814,13.998 L121.816,13.998 L121.816,22.356 C121.816,24.708 122.866,25.674 124.504,25.674 C125.176,25.674 125.932,25.464 126.478,25.254 L127.444,29.748 C126.352,30.084 124.84,30.504 122.824,30.504 C117.658,30.504 115.642,27.27 115.642,22.44 Z M129.628,24.204 C129.628,19.836 133.114,17.442 141.346,16.602 C141.22,14.754 140.296,13.578 138.07,13.578 C136.306,13.578 134.542,14.292 132.526,15.468 L130.342,11.394 C132.988,9.798 135.97,8.664 139.246,8.664 C144.58,8.664 147.52,11.688 147.52,18.072 L147.52,30 L142.48,30 L142.018,27.858 L141.892,27.858 C140.128,29.412 138.154,30.504 135.802,30.504 C132.022,30.504 129.628,27.732 129.628,24.204 Z M135.508,23.742 C135.508,25.086 136.432,25.716 137.902,25.716 C139.33,25.716 140.254,25.044 141.346,23.952 L141.346,20.298 C136.936,20.886 135.508,22.146 135.508,23.742 Z M152.812,30 L152.812,9.168 L157.852,9.168 L158.272,12.822 L158.44,12.822 C159.952,10.008 162.22,8.664 164.362,8.664 C165.538,8.664 166.252,8.832 166.84,9.084 L165.832,14.418 C165.076,14.208 164.446,14.082 163.564,14.082 C162.01,14.082 160.078,15.09 158.986,17.904 L158.986,30 L152.812,30 Z M170.368,22.44 L170.368,13.998 L167.512,13.998 L167.512,9.42 L170.704,9.168 L171.418,3.624 L176.542,3.624 L176.542,9.168 L181.54,9.168 L181.54,13.998 L176.542,13.998 L176.542,22.356 C176.542,24.708 177.592,25.674 179.23,25.674 C179.902,25.674 180.658,25.464 181.204,25.254 L182.17,29.748 C181.078,30.084 179.566,30.504 177.55,30.504 C172.384,30.504 170.368,27.27 170.368,22.44 Z" id="jumpstart"></path>
                    </g>
                </g>
            </g>
        </g>
    </g>
</svg>