<?xml version="1.0" encoding="UTF-8"?>
<svg width="132px" height="130px" viewBox="0 0 132 130" version="1.1" xmlns="http://www.w3.org/2000/svg" xmlns:xlink="http://www.w3.org/1999/xlink">
    <!-- Generator: Sketch 48.1 (47250) - http://www.bohemiancoding.com/sketch -->
    <title>noun_750022_cc</title>
    <desc>Created with Sketch.</desc>
    <defs></defs>
    <g id="Desktop-HD" stroke="none" stroke-width="1" fill="none" fill-rule="evenodd" transform="translate(-429.000000, -5093.000000)">
        <g id="Você-terá..." transform="translate(185.000000, 4887.000000)" fill-rule="nonzero">
            <g id="Group-25" transform="translate(110.000000, 206.000000)">
                <g id="Group-24">
                    <g id="noun_750022_cc" transform="translate(134.000000, 0.000000)">
                        <g id="Group">
                            <path d="M13.40625,4.23015873 L27.121875,4.23015873 C27.534375,4.23015873 27.946875,3.92063492 27.946875,3.4047619 C27.946875,2.88888889 27.6375,2.57936508 27.121875,2.57936508 L13.40625,2.57936508 C12.99375,2.57936508 12.58125,2.88888889 12.58125,3.4047619 C12.58125,3.92063492 12.99375,4.23015873 13.40625,4.23015873 Z" id="Shape" fill="#DDDDDD"></path>
                            <path d="M4.5375,4.23015873 L8.971875,4.23015873 C9.384375,4.23015873 9.796875,3.92063492 9.796875,3.4047619 C9.796875,2.88888889 9.384375,2.68253968 8.971875,2.68253968 L4.5375,2.68253968 C4.125,2.68253968 3.7125,2.99206349 3.7125,3.50793651 C3.7125,4.02380952 4.125,4.23015873 4.5375,4.23015873 Z" id="Shape" fill="#DDDDDD"></path>
                            <path d="M14.85,8.15079365 C14.85,7.73809524 14.540625,7.32539683 14.025,7.32539683 L4.5375,7.32539683 C4.125,7.42857143 3.7125,7.73809524 3.7125,8.15079365 C3.7125,8.56349206 4.125,8.97619048 4.5375,8.97619048 L14.025,8.97619048 C14.4375,8.97619048 14.85,8.56349206 14.85,8.15079365 Z" id="Shape" fill="#DDDDDD"></path>
                            <path d="M21.24375,7.42857143 L18.15,7.42857143 C17.7375,7.42857143 17.325,7.73809524 17.325,8.25396825 C17.325,8.76984127 17.634375,9.07936508 18.15,9.07936508 L21.24375,9.07936508 C21.65625,9.07936508 22.06875,8.76984127 22.06875,8.25396825 C22.06875,7.73809524 21.65625,7.42857143 21.24375,7.42857143 Z" id="Shape" fill="#DDDDDD"></path>
                            <path d="M63.628125,119.888889 L50.015625,119.888889 C49.603125,119.888889 49.190625,120.198413 49.190625,120.714286 C49.190625,121.126984 49.5,121.539683 50.015625,121.539683 L63.73125,121.539683 C64.14375,121.539683 64.55625,121.230159 64.55625,120.714286 C64.453125,120.198413 64.14375,119.888889 63.628125,119.888889 Z" id="Shape" fill="#DDDDDD"></path>
                            <path d="M72.6,119.888889 L68.165625,119.888889 C67.753125,119.888889 67.340625,120.198413 67.340625,120.714286 C67.340625,121.126984 67.65,121.539683 68.165625,121.539683 L72.6,121.539683 C73.0125,121.539683 73.425,121.230159 73.425,120.714286 C73.321875,120.198413 73.0125,119.888889 72.6,119.888889 Z" id="Shape" fill="#DDDDDD"></path>
                            <path d="M72.6,115.142857 L63.1125,115.142857 C62.7,115.142857 62.2875,115.452381 62.2875,115.968254 C62.2875,116.484127 62.596875,116.793651 63.1125,116.793651 L72.6,116.793651 C73.0125,116.793651 73.425,116.484127 73.425,115.968254 C73.425,115.452381 73.0125,115.142857 72.6,115.142857 Z" id="Shape" fill="#DDDDDD"></path>
                            <path d="M55.06875,115.968254 C55.06875,116.380952 55.378125,116.793651 55.89375,116.793651 L58.9875,116.793651 C59.4,116.793651 59.8125,116.484127 59.8125,115.968254 C59.8125,115.452381 59.503125,115.142857 58.9875,115.142857 L55.89375,115.142857 C55.48125,115.142857 55.06875,115.555556 55.06875,115.968254 Z" id="Shape" fill="#DDDDDD"></path>
                            <path d="M9.28125,25.1746032 C8.86875,25.1746032 8.45625,25.484127 8.45625,26 L8.45625,37.6587302 C8.45625,38.0714286 8.765625,38.484127 9.28125,38.484127 C9.69375,38.484127 10.10625,38.1746032 10.10625,37.6587302 L10.10625,25.8968254 C10.003125,25.484127 9.69375,25.1746032 9.28125,25.1746032 Z" id="Shape" fill="#DDDDDD"></path>
                            <path d="M9.28125,40.6507937 C8.86875,40.6507937 8.45625,40.9603175 8.45625,41.4761905 L8.45625,45.2936508 C8.45625,45.7063492 8.765625,46.1190476 9.28125,46.1190476 C9.69375,46.1190476 10.10625,45.8095238 10.10625,45.2936508 L10.10625,41.4761905 C10.003125,40.9603175 9.69375,40.6507937 9.28125,40.6507937 Z" id="Shape" fill="#DDDDDD"></path>
                            <path d="M130.659375,101.52381 C130.246875,101.52381 129.834375,101.833333 129.834375,102.349206 L129.834375,114.007937 C129.834375,114.420635 130.14375,114.833333 130.659375,114.833333 C131.071875,114.833333 131.484375,114.52381 131.484375,114.007937 L131.484375,102.349206 C131.484375,101.833333 131.175,101.52381 130.659375,101.52381 Z" id="Shape" fill="#DDDDDD"></path>
                            <path d="M130.659375,117 C130.246875,117 129.834375,117.309524 129.834375,117.825397 L129.834375,121.642857 C129.834375,122.055556 130.14375,122.468254 130.659375,122.468254 C131.071875,122.468254 131.484375,122.15873 131.484375,121.642857 L131.484375,117.825397 C131.484375,117.309524 131.175,117 130.659375,117 Z" id="Shape" fill="#DDDDDD"></path>
                            <path d="M54.45,81.8174603 L52.903125,80.2698413 C52.59375,79.9603175 52.078125,79.9603175 51.76875,80.2698413 C51.459375,80.5793651 51.459375,81.0952381 51.76875,81.4047619 L53.315625,82.952381 C53.41875,83.0555556 53.625,83.1587302 53.83125,83.1587302 C54.0375,83.1587302 54.24375,83.0555556 54.346875,82.952381 C54.65625,82.5396825 54.65625,82.1269841 54.45,81.8174603 Z" id="Shape" fill="#DDDDDD"></path>
                            <path d="M56.71875,86.2539683 L58.265625,87.8015873 C58.36875,87.9047619 58.575,88.0079365 58.78125,88.0079365 C58.9875,88.0079365 59.19375,87.9047619 59.296875,87.8015873 C59.60625,87.4920635 59.60625,86.9761905 59.296875,86.6666667 L57.75,85.2222222 C57.440625,84.9126984 56.925,84.9126984 56.615625,85.2222222 C56.409375,85.4285714 56.409375,85.9444444 56.71875,86.2539683 Z" id="Shape" fill="#DDDDDD"></path>
                            <path d="M53.315625,85.2222222 L51.76875,86.6666667 C51.459375,86.9761905 51.459375,87.4920635 51.76875,87.8015873 C51.871875,87.9047619 52.078125,88.0079365 52.284375,88.0079365 C52.490625,88.0079365 52.696875,87.9047619 52.8,87.8015873 L54.346875,86.2539683 C54.65625,85.9444444 54.65625,85.4285714 54.346875,85.1190476 C54.140625,84.9126984 53.625,84.9126984 53.315625,85.2222222 Z" id="Shape" fill="#DDDDDD"></path>
                            <path d="M57.234375,83.0555556 C57.440625,83.0555556 57.646875,82.952381 57.75,82.8492063 L59.296875,81.3015873 C59.60625,80.9920635 59.60625,80.4761905 59.296875,80.1666667 C58.9875,79.8571429 58.471875,79.8571429 58.1625,80.1666667 L56.71875,81.8174603 C56.409375,82.1269841 56.409375,82.6428571 56.71875,82.952381 C56.821875,83.0555556 57.028125,83.0555556 57.234375,83.0555556 Z" id="Shape" fill="#DDDDDD"></path>
                            <path d="M1.85625,100.904762 C1.546875,100.595238 1.03125,100.595238 0.721875,100.904762 C0.4125,101.214286 0.4125,101.730159 0.721875,102.039683 L2.26875,103.587302 C2.371875,103.690476 2.578125,103.793651 2.784375,103.793651 C2.990625,103.793651 3.196875,103.690476 3.3,103.587302 C3.609375,103.277778 3.609375,102.761905 3.3,102.452381 L1.85625,100.904762 Z" id="Shape" fill="#DDDDDD"></path>
                            <path d="M6.703125,105.857143 C6.39375,105.547619 5.878125,105.547619 5.56875,105.857143 C5.259375,106.166667 5.259375,106.68254 5.56875,106.992063 L7.115625,108.539683 C7.21875,108.642857 7.425,108.746032 7.63125,108.746032 C7.8375,108.746032 8.04375,108.642857 8.146875,108.539683 C8.45625,108.230159 8.45625,107.714286 8.146875,107.404762 L6.703125,105.857143 Z" id="Shape" fill="#DDDDDD"></path>
                            <path d="M2.26875,105.857143 L0.721875,107.301587 C0.4125,107.611111 0.4125,108.126984 0.721875,108.436508 C0.825,108.539683 1.03125,108.642857 1.2375,108.642857 C1.44375,108.642857 1.65,108.539683 1.753125,108.436508 L3.3,106.888889 C3.609375,106.579365 3.609375,106.063492 3.3,105.753968 C3.09375,105.547619 2.578125,105.547619 2.26875,105.857143 Z" id="Shape" fill="#DDDDDD"></path>
                            <path d="M7.21875,100.904762 L5.671875,102.452381 C5.3625,102.761905 5.3625,103.277778 5.671875,103.587302 C5.775,103.690476 5.98125,103.793651 6.1875,103.793651 C6.39375,103.793651 6.6,103.690476 6.703125,103.587302 L8.25,102.039683 C8.559375,101.730159 8.559375,101.214286 8.25,100.904762 C7.940625,100.595238 7.528125,100.595238 7.21875,100.904762 Z" id="Shape" fill="#DDDDDD"></path>
                            <path d="M111.684375,3.81746032 C111.7875,3.92063492 111.99375,4.02380952 112.2,4.02380952 C112.40625,4.02380952 112.6125,3.92063492 112.715625,3.81746032 C113.025,3.50793651 113.025,2.99206349 112.715625,2.68253968 L111.16875,1.13492063 C110.859375,0.825396825 110.34375,0.825396825 110.034375,1.13492063 C109.725,1.44444444 109.725,1.96031746 110.034375,2.26984127 L111.684375,3.81746032 Z" id="Shape" fill="#DDDDDD"></path>
                            <path d="M116.634375,8.66666667 C116.7375,8.76984127 116.94375,8.87301587 117.15,8.87301587 C117.35625,8.87301587 117.5625,8.76984127 117.665625,8.66666667 C117.975,8.35714286 117.975,7.84126984 117.665625,7.53174603 L116.11875,5.98412698 C115.809375,5.67460317 115.29375,5.67460317 114.984375,5.98412698 C114.675,6.29365079 114.675,6.80952381 114.984375,7.11904762 L116.634375,8.66666667 Z" id="Shape" fill="#DDDDDD"></path>
                            <path d="M110.75625,8.97619048 C110.9625,8.97619048 111.16875,8.87301587 111.271875,8.76984127 L112.81875,7.22222222 C113.128125,6.91269841 113.128125,6.3968254 112.81875,6.08730159 C112.509375,5.77777778 111.99375,5.77777778 111.684375,6.08730159 L110.1375,7.63492063 C109.828125,7.94444444 109.828125,8.46031746 110.1375,8.76984127 C110.34375,8.87301587 110.55,8.97619048 110.75625,8.97619048 Z" id="Shape" fill="#DDDDDD"></path>
                            <path d="M115.603125,4.02380952 C115.809375,4.02380952 116.015625,3.92063492 116.11875,3.81746032 L117.665625,2.26984127 C117.975,1.96031746 117.975,1.44444444 117.665625,1.13492063 C117.35625,0.825396825 116.840625,0.825396825 116.53125,1.13492063 L114.984375,2.68253968 C114.675,2.99206349 114.675,3.50793651 114.984375,3.81746032 C115.190625,3.92063492 115.396875,4.02380952 115.603125,4.02380952 Z" id="Shape" fill="#DDDDDD"></path>
                            <path d="M94.565625,79.6507937 C94.565625,81.7142857 96.215625,83.3650794 98.278125,83.3650794 C100.340625,83.3650794 101.990625,81.7142857 101.990625,79.6507937 C101.990625,77.5873016 100.340625,75.9365079 98.278125,75.9365079 C96.215625,75.9365079 94.565625,77.5873016 94.565625,79.6507937 Z M100.546875,79.6507937 C100.546875,80.8888889 99.515625,81.8174603 98.38125,81.8174603 C97.246875,81.8174603 96.215625,80.7857143 96.215625,79.6507937 C96.215625,78.4126984 97.246875,77.484127 98.38125,77.484127 C99.515625,77.484127 100.546875,78.4126984 100.546875,79.6507937 Z" id="Shape" fill="#DDDDDD"></path>
                            <path d="M66.61875,11.1428571 C68.68125,11.1428571 70.33125,9.49206349 70.33125,7.42857143 C70.33125,5.36507937 68.68125,3.71428571 66.61875,3.71428571 C64.55625,3.71428571 62.90625,5.36507937 62.90625,7.42857143 C62.90625,9.49206349 64.55625,11.1428571 66.61875,11.1428571 Z M66.61875,5.15873016 C67.85625,5.15873016 68.784375,6.19047619 68.784375,7.32539683 C68.784375,8.56349206 67.753125,9.49206349 66.61875,9.49206349 C65.38125,9.49206349 64.453125,8.46031746 64.453125,7.32539683 C64.453125,6.19047619 65.38125,5.15873016 66.61875,5.15873016 Z" id="Shape" fill="#DDDDDD"></path>
                            <path d="M127.771875,87.2857143 L123.75,86.4603175 L122.925,82.4365079 C122.821875,82.1269841 122.615625,81.9206349 122.409375,81.8174603 C122.1,81.7142857 121.790625,81.8174603 121.584375,82.0238095 L114.46875,89.1428571 C114.2625,89.3492063 114.159375,89.5555556 114.2625,89.8650794 L115.0875,93.9920635 L110.34375,98.7380952 C108.796875,97.2936508 107.04375,96.0555556 105.084375,95.2301587 C102.91875,94.3015873 100.65,93.7857143 98.278125,93.8888889 C96.009375,93.8888889 93.740625,94.3015873 91.678125,95.2301587 C91.575,95.3333333 91.36875,95.3333333 91.1625,95.4365079 C91.1625,95.4365079 91.1625,95.4365079 91.1625,95.4365079 C90.54375,95.7460317 89.925,96.0555556 89.409375,96.3650794 C88.171875,97.0873016 87.0375,97.9126984 86.00625,98.9444444 C85.490625,99.3571429 85.078125,99.8730159 84.76875,100.388889 C83.634375,101.730159 82.809375,103.174603 82.0875,104.722222 C81.571875,105.857143 81.2625,107.095238 81.05625,108.333333 C81.05625,108.333333 81.05625,108.333333 81.05625,108.333333 C81.05625,108.333333 81.05625,108.333333 81.05625,108.333333 C81.05625,108.333333 81.05625,108.333333 81.05625,108.333333 C81.05625,108.333333 81.05625,108.333333 81.05625,108.333333 C80.85,109.365079 80.746875,110.5 80.746875,111.634921 C80.746875,113.801587 81.159375,115.865079 81.88125,117.825397 C81.984375,118.031746 81.984375,118.134921 82.0875,118.34127 C82.9125,120.507937 84.15,122.365079 85.8,124.015873 L85.903125,124.119048 C86.00625,124.222222 86.109375,124.325397 86.2125,124.428571 C87.759375,125.97619 89.615625,127.111111 91.575,127.936508 C93.740625,128.865079 96.009375,129.277778 98.38125,129.277778 C98.38125,129.277778 98.484375,129.277778 98.484375,129.277778 C100.753125,129.277778 103.021875,128.865079 105.084375,127.936508 C106.734375,127.214286 108.28125,126.285714 109.621875,125.253968 C109.93125,125.047619 110.240625,124.738095 110.55,124.428571 C110.653125,124.428571 110.653125,124.325397 110.75625,124.325397 C110.859375,124.222222 110.9625,124.119048 111.065625,124.015873 C112.096875,122.984127 112.921875,121.849206 113.64375,120.611111 C113.953125,119.992063 114.2625,119.373016 114.571875,118.857143 C114.675,118.753968 114.675,118.650794 114.675,118.547619 C114.778125,118.34127 114.88125,118.134921 114.88125,117.928571 C114.88125,117.928571 114.88125,117.928571 114.88125,117.928571 C115.603125,115.968254 116.015625,113.801587 116.015625,111.634921 C116.015625,110.603175 115.9125,109.571429 115.70625,108.436508 C115.5,107.301587 115.190625,106.166667 114.675,105.031746 C114.46875,104.619048 114.05625,104.412698 113.64375,104.619048 C113.23125,104.825397 113.025,105.238095 113.23125,105.650794 C113.64375,106.68254 113.953125,107.714286 114.159375,108.746032 C114.365625,109.777778 114.46875,110.706349 114.46875,111.634921 C114.46875,113.595238 114.159375,115.555556 113.4375,117.309524 C113.4375,117.309524 113.4375,117.309524 113.4375,117.309524 C113.334375,117.515873 113.334375,117.619048 113.23125,117.928571 C113.23125,118.031746 113.128125,118.031746 113.128125,118.134921 C112.921875,118.650794 112.6125,119.269841 112.303125,119.785714 C111.684375,120.920635 110.859375,121.952381 109.93125,122.880952 C109.828125,122.984127 109.725,123.087302 109.621875,123.190476 C109.621875,123.190476 109.51875,123.190476 109.51875,123.293651 C109.209375,123.603175 108.9,123.809524 108.590625,124.119048 C107.353125,125.150794 106.0125,125.97619 104.465625,126.595238 C102.50625,127.420635 100.546875,127.730159 98.484375,127.833333 C98.484375,127.833333 98.38125,127.833333 98.38125,127.833333 C96.31875,127.833333 94.153125,127.420635 92.19375,126.595238 C90.3375,125.873016 88.6875,124.738095 87.24375,123.396825 C87.140625,123.293651 87.0375,123.190476 87.0375,123.190476 L86.934375,123.087302 C85.490625,121.642857 84.35625,119.888889 83.53125,117.928571 C83.428125,117.825397 83.428125,117.722222 83.325,117.515873 C82.603125,115.761905 82.29375,113.801587 82.29375,111.944444 C82.29375,110.912698 82.396875,109.880952 82.603125,108.952381 C82.603125,108.952381 82.603125,108.952381 82.603125,108.952381 C82.603125,108.952381 82.603125,108.952381 82.603125,108.952381 C82.809375,107.81746 83.11875,106.785714 83.53125,105.650794 C84.15,104.206349 84.975,102.865079 85.903125,101.626984 C86.2125,101.214286 86.625,100.801587 87.0375,100.388889 C87.965625,99.4603175 88.996875,98.7380952 90.13125,98.015873 C90.646875,97.7063492 91.1625,97.3968254 91.78125,97.1904762 C91.78125,97.1904762 91.78125,97.1904762 91.78125,97.1904762 C91.884375,97.0873016 91.9875,97.0873016 92.19375,96.984127 C94.153125,96.1587302 96.1125,95.7460317 98.278125,95.7460317 C98.278125,95.7460317 98.38125,95.7460317 98.38125,95.7460317 C100.44375,95.7460317 102.609375,96.1587302 104.56875,96.984127 C106.321875,97.7063492 107.971875,98.8412698 109.415625,100.079365 L104.259375,105.238095 C103.5375,104.619048 102.7125,104 101.784375,103.690476 C100.959375,103.380952 100.03125,103.174603 99.20625,103.071429 C99.20625,103.071429 99.20625,103.071429 99.20625,103.071429 C98.278125,102.968254 97.35,103.071429 96.525,103.277778 C96.009375,103.380952 95.596875,103.484127 95.184375,103.690476 C94.153125,104.103175 93.225,104.722222 92.503125,105.444444 C92.503125,105.444444 92.503125,105.444444 92.4,105.547619 C92.4,105.547619 92.4,105.547619 92.4,105.547619 C91.9875,105.960317 91.575,106.47619 91.1625,106.992063 C90.853125,107.404762 90.646875,107.920635 90.440625,108.436508 C90.440625,108.436508 90.440625,108.436508 90.440625,108.436508 C90.440625,108.436508 90.440625,108.436508 90.440625,108.436508 C90.028125,109.468254 89.71875,110.706349 89.71875,111.84127 C89.71875,112.97619 89.925,114.111111 90.3375,115.142857 C90.75,116.174603 91.36875,117.103175 92.19375,117.928571 C92.296875,118.134921 92.503125,118.238095 92.60625,118.34127 C93.328125,118.960317 94.153125,119.47619 95.08125,119.888889 C96.1125,120.301587 97.246875,120.611111 98.38125,120.611111 C99.515625,120.611111 100.65,120.404762 101.784375,119.992063 C102.3,119.785714 102.815625,119.47619 103.33125,119.166667 C103.640625,118.960317 104.053125,118.650794 104.3625,118.34127 C104.3625,118.34127 104.3625,118.34127 104.3625,118.34127 C104.465625,118.238095 104.56875,118.134921 104.671875,118.031746 C104.775,117.928571 104.775,117.928571 104.878125,117.825397 C105.6,117.103175 106.115625,116.174603 106.528125,115.246032 C106.734375,114.833333 106.8375,114.31746 107.04375,113.801587 C107.146875,113.18254 107.25,112.563492 107.25,111.84127 C107.25,111.634921 107.25,111.428571 107.25,111.119048 C107.25,110.706349 106.8375,110.293651 106.425,110.396825 C106.0125,110.396825 105.703125,110.809524 105.703125,111.222222 C105.703125,111.428571 105.703125,111.634921 105.703125,111.84127 C105.703125,112.357143 105.6,112.97619 105.496875,113.492063 C105.39375,113.904762 105.290625,114.31746 105.084375,114.730159 C104.775,115.555556 104.259375,116.277778 103.640625,116.896825 C103.640625,116.896825 103.5375,117 103.5375,117 L103.434375,117.103175 C103.33125,117.206349 103.33125,117.206349 103.228125,117.309524 C103.228125,117.309524 103.228125,117.309524 103.228125,117.309524 C103.228125,117.309524 103.228125,117.309524 103.228125,117.309524 C102.91875,117.515873 102.7125,117.825397 102.403125,117.928571 C102.09375,118.134921 101.68125,118.34127 101.165625,118.547619 C100.340625,118.857143 99.4125,119.063492 98.484375,119.063492 C97.55625,119.063492 96.628125,118.857143 95.7,118.547619 C94.978125,118.238095 94.25625,117.825397 93.6375,117.206349 C93.534375,117.103175 93.43125,117 93.328125,116.896825 C92.709375,116.277778 92.19375,115.452381 91.78125,114.626984 C91.471875,113.801587 91.265625,112.873016 91.265625,111.944444 C91.265625,111.015873 91.471875,109.984127 91.78125,109.15873 C91.9875,108.746032 92.19375,108.333333 92.4,108.02381 C92.709375,107.611111 93.01875,107.198413 93.328125,106.785714 C93.328125,106.785714 93.43125,106.68254 93.43125,106.68254 C94.05,106.063492 94.875,105.547619 95.7,105.238095 C96.1125,105.031746 96.421875,104.928571 96.834375,104.928571 C97.35,104.825397 97.865625,104.722222 98.38125,104.722222 C98.5875,104.722222 98.79375,104.722222 99,104.722222 C99,104.722222 99,104.722222 99,104.722222 C99,104.722222 99,104.722222 99,104.722222 C99.721875,104.825397 100.44375,104.928571 101.165625,105.238095 C101.8875,105.547619 102.50625,105.960317 103.125,106.47619 L97.865625,111.738095 C97.55625,112.047619 97.55625,112.563492 97.865625,112.873016 C97.96875,112.97619 98.175,113.079365 98.38125,113.079365 C98.5875,113.079365 98.79375,112.97619 98.896875,112.873016 L116.221875,95.5396825 L120.346875,96.3650794 C120.346875,96.3650794 120.45,96.3650794 120.45,96.3650794 C120.65625,96.3650794 120.8625,96.2619048 120.965625,96.1587302 L128.08125,89.0396825 C128.2875,88.8333333 128.390625,88.5238095 128.2875,88.2142857 C128.2875,87.4920635 128.08125,87.2857143 127.771875,87.2857143 Z M120.24375,94.3015873 L116.634375,93.5793651 L115.9125,89.968254 L121.6875,84.1904762 L122.30625,87.2857143 C122.409375,87.5952381 122.615625,87.8015873 122.925,87.9047619 L126.01875,88.5238095 L120.24375,94.3015873 Z" id="Shape" fill="#FE5B5B"></path>
                            <path d="M42.9,52.1031746 C43.3125,52.1031746 43.725,51.7936508 43.725,51.2777778 L43.725,17.2301587 C43.725,16.7142857 44.1375,16.1984127 44.75625,16.1984127 L125.8125,16.1984127 C126.43125,16.1984127 126.84375,16.6111111 126.84375,17.2301587 L126.84375,61.4920635 C126.84375,62.0079365 126.43125,62.5238095 125.8125,62.5238095 L52.078125,62.5238095 C51.665625,62.5238095 51.253125,62.8333333 51.253125,63.3492063 C51.253125,63.8650794 51.5625,64.1746032 52.078125,64.1746032 L125.8125,64.1746032 C127.25625,64.1746032 128.390625,63.0396825 128.390625,61.5952381 L128.390625,17.3333333 C128.390625,15.8888889 127.25625,14.7539683 125.8125,14.7539683 L44.653125,14.7539683 C43.209375,14.7539683 42.075,15.8888889 42.075,17.3333333 L42.075,51.3809524 C42.075,51.7936508 42.384375,52.1031746 42.9,52.1031746 Z" id="Shape" fill="#FE5B5B"></path>
                            <path d="M118.696875,55.4047619 L60.946875,55.4047619 C60.534375,55.4047619 60.121875,55.7142857 60.121875,56.2301587 C60.121875,56.7460317 60.43125,57.0555556 60.946875,57.0555556 L118.696875,57.0555556 C120.140625,57.0555556 121.275,55.9206349 121.275,54.4761905 L121.275,24.452381 C121.275,23.0079365 120.140625,21.8730159 118.696875,21.8730159 L51.76875,21.8730159 C50.325,21.8730159 49.190625,23.0079365 49.190625,24.452381 L49.190625,46.8412698 C49.190625,47.2539683 49.5,47.6666667 50.015625,47.6666667 C50.428125,47.6666667 50.840625,47.3571429 50.840625,46.8412698 L50.840625,24.452381 C50.840625,23.8333333 51.253125,23.4206349 51.871875,23.4206349 L118.696875,23.4206349 C119.2125,23.4206349 119.728125,23.8333333 119.728125,24.452381 L119.728125,54.4761905 C119.728125,54.9920635 119.2125,55.4047619 118.696875,55.4047619 Z" id="Shape" fill="#FE5B5B"></path>
                            <path d="M41.25,65.3095238 C45.478125,63.7619048 53.521875,60.2539683 59.090625,53.6507937 C59.8125,52.8253968 59.709375,51.6904762 59.19375,50.6587302 L72.1875,36.0079365 C72.496875,35.6984127 72.39375,35.1825397 72.084375,34.8730159 C71.775,34.5634921 71.259375,34.5634921 70.95,34.9761905 L58.265625,49.3174603 C58.265625,49.3174603 58.265625,49.2142857 58.1625,49.2142857 C56.925,47.8730159 55.275,47.4603175 54.0375,48.2857143 C53.728125,48.4920635 53.41875,48.6984127 53.00625,48.9047619 C52.18125,49.4206349 51.046875,50.0396825 50.11875,50.8650794 C45.58125,54.5793651 39.80625,55.6111111 38.98125,55.3015873 L34.2375,53.6507937 C33.825,53.547619 33.515625,53.6507937 33.309375,54.0634921 L28.771875,62.5238095 L27.121875,62.5238095 L22.584375,54.0634921 C22.378125,53.6507937 21.965625,53.4444444 21.65625,53.6507937 L16.9125,55.4047619 C15.778125,55.8174603 14.85,56.4365079 14.128125,57.3650794 C14.128125,57.3650794 14.128125,57.468254 14.025,57.468254 C13.81875,57.7777778 13.6125,57.984127 13.40625,58.2936508 C13.40625,58.2936508 13.40625,58.2936508 13.40625,58.2936508 C13.40625,58.2936508 13.40625,58.2936508 13.40625,58.2936508 C13.303125,58.3968254 13.303125,58.5 13.303125,58.6031746 C13.2,58.8095238 13.096875,59.015873 12.99375,59.3253968 C12.890625,59.531746 12.890625,59.6349206 12.7875,59.8412698 C12.684375,59.9444444 12.684375,60.1507937 12.58125,60.2539683 C12.478125,60.4603175 12.478125,60.6666667 12.478125,60.8730159 C12.478125,60.9761905 12.375,61.0793651 12.375,61.1825397 C12.375,61.4920635 12.271875,61.8015873 12.271875,62.1111111 C12.271875,62.2142857 12.271875,62.4206349 12.16875,62.8333333 C12.16875,63.1428571 12.065625,63.452381 12.065625,63.8650794 C12.065625,63.8650794 12.065625,63.968254 12.065625,63.968254 C12.065625,64.3809524 11.9625,64.8968254 11.9625,65.4126984 C11.9625,65.4126984 11.9625,65.515873 11.9625,65.515873 C11.9625,65.6190476 11.9625,65.8253968 11.9625,65.9285714 C11.9625,65.9285714 11.9625,66.031746 11.9625,66.031746 C11.9625,66.1349206 11.9625,66.3412698 11.9625,66.4444444 C11.9625,66.4444444 11.9625,66.547619 11.9625,66.547619 C11.9625,66.6507937 11.9625,66.8571429 11.9625,66.9603175 C11.9625,67.0634921 11.9625,67.0634921 11.9625,67.1666667 C11.9625,67.2698413 11.9625,67.3730159 11.9625,67.5793651 C11.9625,67.6825397 11.9625,67.7857143 11.9625,67.8888889 C11.9625,67.9920635 11.9625,68.0952381 11.9625,68.1984127 C11.9625,68.3015873 11.9625,68.4047619 11.9625,68.5079365 C11.9625,68.6111111 11.9625,68.7142857 11.9625,68.9206349 C11.9625,69.0238095 11.9625,69.1269841 11.9625,69.2301587 C11.9625,69.3333333 11.9625,69.4365079 11.9625,69.5396825 C11.9625,69.6428571 11.9625,69.7460317 11.9625,69.952381 C11.9625,70.0555556 11.9625,70.1587302 11.9625,70.2619048 C11.9625,70.3650794 11.9625,70.5714286 11.9625,70.6746032 C11.9625,70.7777778 11.9625,70.8809524 11.9625,70.984127 C11.9625,71.0873016 11.9625,71.2936508 11.9625,71.3968254 C11.9625,71.5 11.9625,71.6031746 11.9625,71.7063492 C11.9625,71.8095238 11.9625,72.015873 11.9625,72.1190476 C11.9625,72.2222222 11.9625,72.3253968 11.9625,72.4285714 C11.9625,72.531746 11.9625,72.7380952 11.9625,72.8412698 C11.9625,72.9444444 11.9625,73.047619 11.9625,73.1507937 C11.9625,73.2539683 11.9625,73.4603175 11.9625,73.5634921 C11.9625,73.6666667 11.9625,73.7698413 11.9625,73.7698413 C11.9625,73.9761905 11.9625,74.0793651 11.9625,74.2857143 C11.9625,74.3888889 11.9625,74.4920635 11.9625,74.4920635 C11.9625,74.6984127 11.9625,74.8015873 11.9625,75.0079365 C11.9625,75.1111111 11.9625,75.1111111 11.9625,75.2142857 C11.9625,75.4206349 11.9625,75.5238095 11.9625,75.7301587 C11.9625,75.8333333 11.9625,75.8333333 11.9625,75.9365079 C11.9625,76.0396825 11.9625,76.2460317 11.9625,76.3492063 C11.9625,76.452381 11.9625,76.452381 11.9625,76.5555556 C11.9625,76.6587302 11.9625,76.8650794 11.9625,76.968254 C11.9625,77.0714286 11.9625,77.0714286 11.9625,77.1746032 C11.9625,77.2777778 11.9625,77.484127 11.9625,77.5873016 C11.9625,77.6904762 11.9625,77.6904762 11.9625,77.7936508 C11.9625,77.8968254 11.9625,78 11.9625,78.2063492 C11.9625,78.3095238 11.9625,78.3095238 11.9625,78.4126984 C11.9625,78.515873 11.9625,78.6190476 11.9625,78.7222222 C11.9625,78.8253968 11.9625,78.8253968 11.9625,78.9285714 C11.9625,79.031746 11.9625,79.1349206 11.9625,79.2380952 C11.9625,79.3412698 11.9625,79.3412698 11.9625,79.4444444 C11.9625,79.4444444 11.9625,79.547619 11.9625,79.547619 C12.16875,80.6825397 12.271875,81.7142857 12.375,82.5396825 C12.478125,83.2619048 12.478125,84.0873016 12.478125,84.9126984 L12.478125,88.9365079 C12.478125,88.9365079 12.478125,89.0396825 12.478125,89.0396825 C12.684375,90.3809524 13.921875,92.7539683 17.015625,92.4444444 L15.984375,124.738095 C15.984375,124.944444 16.0875,125.253968 16.29375,125.357143 C16.29375,125.357143 16.29375,125.357143 16.396875,125.460317 C16.396875,125.460317 16.396875,125.460317 16.396875,125.460317 C16.396875,125.460317 16.5,125.563492 16.603125,125.563492 C16.603125,125.563492 16.603125,125.563492 16.70625,125.563492 C16.809375,125.666667 16.9125,125.666667 17.015625,125.769841 C17.015625,125.769841 17.015625,125.769841 17.015625,125.769841 C17.11875,125.873016 17.325,125.873016 17.428125,125.97619 C17.428125,125.97619 17.53125,125.97619 17.53125,125.97619 C17.634375,125.97619 17.7375,126.079365 17.94375,126.079365 C18.046875,126.079365 18.046875,126.079365 18.15,126.18254 C18.35625,126.285714 18.459375,126.285714 18.665625,126.285714 C18.665625,126.285714 18.665625,126.285714 18.76875,126.285714 C18.975,126.285714 19.18125,126.388889 19.3875,126.388889 C19.490625,126.388889 19.490625,126.388889 19.59375,126.388889 C19.8,126.388889 19.903125,126.388889 20.109375,126.388889 C20.109375,126.388889 20.2125,126.388889 20.2125,126.388889 C20.2125,126.388889 20.315625,126.388889 20.315625,126.388889 C20.521875,126.388889 20.83125,126.388889 21.0375,126.388889 C21.0375,126.388889 21.140625,126.388889 21.140625,126.388889 C21.45,126.388889 21.65625,126.285714 21.965625,126.18254 C22.06875,126.18254 22.171875,126.18254 22.275,126.079365 C22.48125,125.97619 22.6875,125.97619 22.996875,125.873016 C23.1,125.873016 23.203125,125.769841 23.30625,125.769841 C23.615625,125.666667 23.925,125.460317 24.234375,125.253968 C24.440625,125.150794 24.54375,124.944444 24.646875,124.634921 L28.153125,97.9126984 L31.659375,124.634921 C31.659375,124.84127 31.865625,125.047619 32.071875,125.253968 C33.515625,126.079365 34.85625,126.388889 35.990625,126.388889 C38.259375,126.388889 39.80625,125.253968 39.909375,125.253968 C40.115625,125.150794 40.21875,124.84127 40.21875,124.634921 L38.56875,69.4365079 C38.259375,67.6825397 39.496875,65.9285714 41.25,65.3095238 Z M36.815625,69.6428571 L38.465625,124.428571 C37.640625,124.84127 35.578125,125.769841 32.896875,124.325397 L28.66875,92.1349206 C28.66875,92.1349206 28.66875,92.1349206 28.66875,92.031746 C28.66875,92.031746 28.66875,91.9285714 28.66875,91.9285714 C28.66875,91.9285714 28.66875,91.8253968 28.565625,91.8253968 C28.565625,91.8253968 28.565625,91.7222222 28.4625,91.7222222 C28.4625,91.7222222 28.359375,91.6190476 28.359375,91.6190476 C28.359375,91.6190476 28.25625,91.6190476 28.25625,91.515873 C28.25625,91.515873 28.153125,91.515873 28.05,91.4126984 C28.05,91.4126984 28.05,91.4126984 27.946875,91.4126984 C27.946875,91.4126984 27.946875,91.4126984 27.946875,91.4126984 C27.946875,91.4126984 27.946875,91.4126984 27.84375,91.4126984 C27.84375,91.4126984 27.740625,91.4126984 27.740625,91.4126984 C27.740625,91.4126984 27.6375,91.4126984 27.6375,91.4126984 C27.6375,91.4126984 27.534375,91.4126984 27.534375,91.515873 C27.534375,91.515873 27.43125,91.515873 27.43125,91.6190476 C27.43125,91.6190476 27.328125,91.7222222 27.328125,91.7222222 C27.328125,91.7222222 27.328125,91.8253968 27.225,91.8253968 C27.225,91.9285714 27.121875,92.031746 27.121875,92.1349206 L22.89375,124.325397 C20.315625,125.666667 18.15,124.84127 17.325,124.428571 L19.078125,65.7222222 C19.078125,65.3095238 18.76875,64.8968254 18.35625,64.8968254 C17.94375,64.8968254 17.53125,65.2063492 17.53125,65.6190476 L15.984375,91 C14.23125,90.8968254 13.81875,89.2460317 13.715625,88.9365079 L13.715625,85.015873 L13.715625,84.5 C13.715625,83.8809524 13.715625,83.2619048 13.6125,82.5396825 C13.509375,81.5079365 13.40625,80.4761905 13.2,79.547619 C13.2,79.4444444 13.2,79.3412698 13.096875,79.2380952 C13.096875,79.1349206 13.096875,79.031746 13.096875,78.9285714 C13.096875,78.9285714 13.096875,78.8253968 13.096875,78.8253968 C13.096875,78.7222222 13.096875,78.6190476 13.096875,78.4126984 C13.096875,78.4126984 13.096875,78.3095238 13.096875,78.3095238 C13.096875,78.2063492 13.096875,78 13.096875,77.8968254 C13.096875,77.8968254 13.096875,77.7936508 13.096875,77.7936508 C13.096875,77.5873016 13.096875,77.484127 13.096875,77.2777778 C13.096875,77.2777778 13.096875,77.2777778 13.096875,77.1746032 C13.096875,76.968254 13.096875,76.7619048 13.096875,76.6587302 C13.096875,76.6587302 13.096875,76.6587302 13.096875,76.6587302 C12.890625,72.1190476 13.509375,65.515873 13.81875,63.0396825 C13.81875,63.0396825 13.81875,63.0396825 13.81875,62.9365079 C13.81875,62.5238095 13.921875,62.3174603 13.921875,62.2142857 C13.921875,62.2142857 13.921875,62.1111111 13.921875,62.1111111 C13.921875,61.9047619 13.921875,61.5952381 14.025,61.3888889 C14.128125,60.6666667 14.4375,59.8412698 14.85,59.015873 C15.46875,57.984127 16.396875,57.2619048 17.53125,56.8492063 L21.65625,55.4047619 L26.090625,63.6587302 C26.090625,63.7619048 26.19375,63.7619048 26.296875,63.8650794 C26.296875,63.8650794 26.296875,63.8650794 26.296875,63.8650794 C26.4,63.8650794 26.4,63.968254 26.503125,63.968254 C26.503125,63.968254 26.503125,63.968254 26.503125,63.968254 C26.60625,63.968254 26.60625,63.968254 26.709375,63.968254 L29.2875,63.968254 C29.596875,63.968254 29.803125,63.7619048 30.009375,63.5555556 L34.44375,55.3015873 L38.56875,56.7460317 C40.21875,57.3650794 46.715625,55.7142857 51.253125,52 C52.078125,51.2777778 53.109375,50.6587302 53.934375,50.2460317 C54.346875,50.0396825 54.759375,49.7301587 55.06875,49.5238095 C55.996875,48.9047619 56.925,49.8333333 57.13125,50.1428571 C57.95625,51.0714286 58.1625,52.2063492 57.853125,52.6190476 C52.59375,58.9126984 44.859375,62.3174603 40.734375,63.7619048 C38.259375,64.6904762 36.7125,67.0634921 36.815625,69.6428571 Z" id="Shape" fill="#FE5B5B"></path>
                            <path d="M23.203125,38.6904762 C22.06875,39.9285714 21.45,41.6825397 21.553125,43.3333333 L21.759375,46.9444444 C21.965625,50.1428571 24.75,52.7222222 27.946875,52.7222222 C31.14375,52.7222222 33.928125,50.2460317 34.134375,46.9444444 L34.340625,43.3333333 C34.44375,41.5793651 33.825,39.9285714 32.690625,38.6904762 C31.55625,37.452381 29.90625,36.7301587 28.153125,36.7301587 L27.6375,36.7301587 C25.9875,36.7301587 24.3375,37.452381 23.203125,38.6904762 Z M31.55625,39.7222222 C32.484375,40.6507937 32.896875,41.8888889 32.79375,43.2301587 L32.5875,46.8412698 C32.38125,49.2142857 30.421875,51.1746032 27.946875,51.1746032 C25.575,51.1746032 23.5125,49.3174603 23.30625,46.8412698 L23.1,43.2301587 C22.996875,41.8888889 23.409375,40.6507937 24.3375,39.7222222 C25.265625,38.7936508 26.4,38.2777778 27.740625,38.2777778 L28.25625,38.2777778 C29.49375,38.2777778 30.73125,38.7936508 31.55625,39.7222222 Z" id="Shape" fill="#FE5B5B"></path>
                        </g>
                    </g>
                </g>
            </g>
        </g>
    </g>
</svg>