<?xml version="1.0" encoding="UTF-8"?>
<svg width="130px" height="134px" viewBox="0 0 130 134" version="1.1" xmlns="http://www.w3.org/2000/svg" xmlns:xlink="http://www.w3.org/1999/xlink">
    <!-- Generator: Sketch 48.1 (47250) - http://www.bohemiancoding.com/sketch -->
    <title>noun_749586_cc</title>
    <desc>Created with Sketch.</desc>
    <defs></defs>
    <g id="Desktop-HD" stroke="none" stroke-width="1" fill="none" fill-rule="evenodd" transform="translate(-185.000000, -3454.000000)" opacity="0.5">
        <g id="Estágios" transform="translate(185.000000, 2969.000000)" fill-rule="nonzero">
            <g id="noun_749586_cc" transform="translate(0.000000, 485.000000)">
                <g id="Group">
                    <path d="M119.935484,57.578125 C119.935484,57.159375 119.620968,56.740625 119.096774,56.740625 C118.677419,56.740625 118.258065,57.0546875 118.258065,57.578125 L118.258065,70.4546875 C118.258065,70.8734375 118.572581,71.2921875 119.096774,71.2921875 C119.516129,71.2921875 119.935484,70.978125 119.935484,70.4546875 L119.935484,57.578125 Z" id="Shape" fill="#DDDDDD"></path>
                    <path d="M119.201613,73.8046875 C118.782258,73.8046875 118.362903,74.11875 118.362903,74.6421875 L118.362903,78.8296875 C118.362903,79.2484375 118.677419,79.6671875 119.201613,79.6671875 C119.620968,79.6671875 120.040323,79.353125 120.040323,78.8296875 L120.040323,74.6421875 C119.935484,74.2234375 119.620968,73.8046875 119.201613,73.8046875 Z" id="Shape" fill="#DDDDDD"></path>
                    <path d="M14.4677419,74.6421875 C14.0483871,74.6421875 13.6290323,74.95625 13.6290323,75.4796875 L13.6290323,88.35625 C13.6290323,88.775 13.9435484,89.19375 14.4677419,89.19375 C14.8870968,89.19375 15.3064516,88.8796875 15.3064516,88.35625 L15.3064516,75.375 C15.3064516,74.95625 14.8870968,74.6421875 14.4677419,74.6421875 Z" id="Shape" fill="#DDDDDD"></path>
                    <path d="M14.4677419,91.70625 C14.0483871,91.70625 13.6290323,92.0203125 13.6290323,92.54375 L13.6290323,96.73125 C13.6290323,97.15 13.9435484,97.56875 14.4677419,97.56875 C14.8870968,97.56875 15.3064516,97.2546875 15.3064516,96.73125 L15.3064516,92.54375 C15.3064516,92.0203125 14.8870968,91.70625 14.4677419,91.70625 Z" id="Shape" fill="#DDDDDD"></path>
                    <path d="M5.76612903,116.098438 C5.4516129,115.784375 4.92741935,115.784375 4.61290323,116.098438 C4.2983871,116.4125 4.2983871,116.935937 4.61290323,117.25 L6.39516129,119.029687 C6.5,119.134375 6.70967742,119.239063 6.91935484,119.239063 C7.12903226,119.239063 7.33870968,119.134375 7.44354839,119.029687 C7.75806452,118.715625 7.75806452,118.192188 7.44354839,117.878125 L5.76612903,116.098438 Z" id="Shape" fill="#DDDDDD"></path>
                    <path d="M11.5322581,121.85625 C11.2177419,121.542188 10.6935484,121.542188 10.3790323,121.85625 C10.0645161,122.170312 10.0645161,122.69375 10.3790323,123.007812 L12.1612903,124.7875 C12.266129,124.892187 12.4758065,124.996875 12.6854839,124.996875 C12.8951613,124.996875 13.1048387,124.892187 13.2096774,124.7875 C13.5241935,124.473437 13.5241935,123.95 13.2096774,123.635937 L11.5322581,121.85625 Z" id="Shape" fill="#DDDDDD"></path>
                    <path d="M6.39516129,121.85625 L4.71774194,123.53125 C4.40322581,123.845312 4.40322581,124.36875 4.71774194,124.682812 C4.82258065,124.7875 5.03225806,124.892187 5.24193548,124.892187 C5.4516129,124.892187 5.66129032,124.7875 5.76612903,124.682812 L7.5483871,122.903125 C7.86290323,122.589062 7.86290323,122.065625 7.5483871,121.751562 C7.23387097,121.542187 6.70967742,121.542187 6.39516129,121.85625 Z" id="Shape" fill="#DDDDDD"></path>
                    <path d="M12.1612903,116.098438 L10.3790323,117.878125 C10.0645161,118.192188 10.0645161,118.715625 10.3790323,119.029687 C10.483871,119.134375 10.6935484,119.239063 10.9032258,119.239063 C11.1129032,119.239063 11.3225806,119.134375 11.4274194,119.029687 L13.2096774,117.25 C13.5241935,116.935937 13.5241935,116.4125 13.2096774,116.098438 C13,115.784375 12.4758065,115.784375 12.1612903,116.098438 Z" id="Shape" fill="#DDDDDD"></path>
                    <path d="M98.8629032,79.771875 C98.5483871,79.4578125 98.0241935,79.4578125 97.7096774,79.771875 C97.3951613,80.0859375 97.3951613,80.609375 97.7096774,80.9234375 L99.4919355,82.703125 C99.5967742,82.8078125 99.8064516,82.9125 100.016129,82.9125 C100.225806,82.9125 100.435484,82.8078125 100.540323,82.703125 C100.854839,82.3890625 100.854839,81.865625 100.540323,81.5515625 L98.8629032,79.771875 Z" id="Shape" fill="#DDDDDD"></path>
                    <path d="M105.782258,88.565625 C105.991935,88.565625 106.201613,88.4609375 106.306452,88.35625 C106.620968,88.0421875 106.620968,87.51875 106.306452,87.2046875 L104.524194,85.425 C104.209677,85.1109375 103.685484,85.1109375 103.370968,85.425 C103.056452,85.7390625 103.056452,86.2625 103.370968,86.5765625 L105.153226,88.35625 C105.362903,88.4609375 105.572581,88.565625 105.782258,88.565625 Z" id="Shape" fill="#DDDDDD"></path>
                    <path d="M99.4919355,85.425 L97.7096774,87.2046875 C97.3951613,87.51875 97.3951613,88.0421875 97.7096774,88.35625 C97.8145161,88.4609375 98.0241935,88.565625 98.233871,88.565625 C98.4435484,88.565625 98.6532258,88.4609375 98.7580645,88.35625 L100.540323,86.5765625 C100.854839,86.2625 100.854839,85.7390625 100.540323,85.425 C100.330645,85.1109375 99.8064516,85.1109375 99.4919355,85.425 Z" id="Shape" fill="#DDDDDD"></path>
                    <path d="M105.258065,79.771875 L103.475806,81.5515625 C103.16129,81.865625 103.16129,82.3890625 103.475806,82.703125 C103.580645,82.8078125 103.790323,82.9125 104,82.9125 C104.209677,82.9125 104.419355,82.8078125 104.524194,82.703125 L106.306452,80.9234375 C106.620968,80.609375 106.620968,80.0859375 106.306452,79.771875 C106.096774,79.4578125 105.572581,79.4578125 105.258065,79.771875 Z" id="Shape" fill="#DDDDDD"></path>
                    <path d="M33.4435484,6.1765625 C33.5483871,6.28125 33.7580645,6.3859375 33.9677419,6.3859375 C34.1774194,6.3859375 34.3870968,6.28125 34.5967742,6.1765625 C34.9112903,5.8625 34.9112903,5.3390625 34.5967742,5.025 L32.8145161,3.2453125 C32.5,2.93125 31.9758065,2.93125 31.6612903,3.2453125 C31.3467742,3.559375 31.3467742,4.0828125 31.6612903,4.396875 L33.4435484,6.1765625 Z" id="Shape" fill="#DDDDDD"></path>
                    <path d="M39.2096774,11.8296875 C39.3145161,11.934375 39.5241935,12.0390625 39.733871,12.0390625 C39.9435484,12.0390625 40.1532258,11.934375 40.2580645,11.8296875 C40.5725806,11.515625 40.5725806,10.9921875 40.2580645,10.678125 L38.4758065,8.8984375 C38.1612903,8.584375 37.6370968,8.584375 37.3225806,8.8984375 C37.0080645,9.2125 37.0080645,9.7359375 37.3225806,10.05 L39.2096774,11.8296875 Z" id="Shape" fill="#DDDDDD"></path>
                    <path d="M32.2903226,12.0390625 C32.5,12.0390625 32.7096774,11.934375 32.8145161,11.8296875 L34.5967742,10.05 C34.9112903,9.7359375 34.9112903,9.2125 34.5967742,8.8984375 C34.2822581,8.584375 33.7580645,8.584375 33.4435484,8.8984375 L31.6612903,10.678125 C31.3467742,10.9921875 31.3467742,11.515625 31.6612903,11.8296875 C31.8709677,12.0390625 32.0806452,12.0390625 32.2903226,12.0390625 Z" id="Shape" fill="#DDDDDD"></path>
                    <path d="M37.9516129,6.3859375 C38.1612903,6.3859375 38.3709677,6.28125 38.4758065,6.1765625 L40.2580645,4.396875 C40.5725806,4.0828125 40.5725806,3.559375 40.2580645,3.2453125 C39.9435484,2.93125 39.4193548,2.93125 39.1048387,3.2453125 L37.3225806,5.025 C37.0080645,5.3390625 37.0080645,5.8625 37.3225806,6.1765625 C37.5322581,6.28125 37.7419355,6.3859375 37.9516129,6.3859375 Z" id="Shape" fill="#DDDDDD"></path>
                    <path d="M47.2822581,119.448437 C45.1854839,119.448437 43.5080645,121.123437 43.5080645,123.217187 C43.5080645,125.310937 45.1854839,126.985937 47.2822581,126.985937 C49.3790323,126.985937 51.0564516,125.310937 51.0564516,123.217187 C51.0564516,121.123438 49.3790323,119.448437 47.2822581,119.448437 Z M47.2822581,125.415625 C46.0241935,125.415625 45.0806452,124.473437 45.0806452,123.217188 C45.0806452,121.960938 46.0241935,121.01875 47.2822581,121.01875 C48.5403226,121.01875 49.483871,121.960938 49.483871,123.217188 C49.483871,124.473438 48.4354839,125.415625 47.2822581,125.415625 Z" id="Shape" fill="#DDDDDD"></path>
                    <path d="M82.2983871,8.0609375 C84.3951613,8.0609375 86.0725806,6.3859375 86.0725806,4.2921875 C86.0725806,2.1984375 84.3951613,0.5234375 82.2983871,0.5234375 C80.2016129,0.5234375 78.5241935,2.1984375 78.5241935,4.2921875 C78.5241935,6.3859375 80.2016129,8.0609375 82.2983871,8.0609375 Z M82.2983871,2.09375 C83.5564516,2.09375 84.5,3.0359375 84.5,4.2921875 C84.5,5.5484375 83.5564516,6.490625 82.2983871,6.490625 C81.0403226,6.490625 80.0967742,5.5484375 80.0967742,4.2921875 C80.0967742,3.140625 81.0403226,2.09375 82.2983871,2.09375 Z" id="Shape" fill="#DDDDDD"></path>
                    <path d="M15.9354839,48.8890625 C15.9354839,48.4703125 15.6209677,48.0515625 15.0967742,48.0515625 L1.15322581,48.0515625 C0.733870968,48.0515625 0.314516129,48.365625 0.314516129,48.8890625 C0.314516129,49.3078125 0.629032258,49.7265625 1.15322581,49.7265625 L15.0967742,49.7265625 C15.516129,49.7265625 15.9354839,49.3078125 15.9354839,48.8890625 Z" id="Shape" fill="#DDDDDD"></path>
                    <path d="M24.2177419,49.7265625 C24.6370968,49.7265625 25.0564516,49.4125 25.0564516,48.8890625 C25.0564516,48.4703125 24.7419355,48.0515625 24.2177419,48.0515625 L19.7096774,48.0515625 C19.2903226,48.0515625 18.8709677,48.365625 18.8709677,48.8890625 C18.8709677,49.3078125 19.1854839,49.7265625 19.7096774,49.7265625 L24.2177419,49.7265625 Z" id="Shape" fill="#DDDDDD"></path>
                    <path d="M24.9516129,53.7046875 C24.9516129,53.2859375 24.6370968,52.8671875 24.1129032,52.8671875 L14.3629032,52.8671875 C13.9435484,52.8671875 13.5241935,53.18125 13.5241935,53.7046875 C13.5241935,54.1234375 13.8387097,54.5421875 14.3629032,54.5421875 L24.1129032,54.5421875 C24.6370968,54.4375 24.9516129,54.1234375 24.9516129,53.7046875 Z" id="Shape" fill="#DDDDDD"></path>
                    <path d="M7.12903226,52.8671875 C6.70967742,52.8671875 6.29032258,53.18125 6.29032258,53.7046875 C6.29032258,54.1234375 6.60483871,54.5421875 7.12903226,54.5421875 L10.2741935,54.5421875 C10.6935484,54.5421875 11.1129032,54.228125 11.1129032,53.7046875 C11.1129032,53.2859375 10.7983871,52.8671875 10.2741935,52.8671875 L7.12903226,52.8671875 Z" id="Shape" fill="#DDDDDD"></path>
                    <path d="M120.459677,119.971875 C120.459677,119.553125 120.145161,119.134375 119.620968,119.134375 L105.677419,119.134375 C105.258065,119.134375 104.83871,119.448437 104.83871,119.971875 C104.83871,120.390625 105.153226,120.809375 105.677419,120.809375 L119.620968,120.809375 C120.145161,120.809375 120.459677,120.390625 120.459677,119.971875 Z" id="Shape" fill="#DDDDDD"></path>
                    <path d="M123.5,119.971875 C123.5,120.390625 123.814516,120.809375 124.33871,120.809375 L128.846774,120.809375 C129.266129,120.809375 129.685484,120.495312 129.685484,119.971875 C129.685484,119.553125 129.370968,119.134375 128.846774,119.134375 L124.33871,119.134375 C123.814516,119.239063 123.5,119.553125 123.5,119.971875 Z" id="Shape" fill="#DDDDDD"></path>
                    <path d="M128.846774,123.95 L119.096774,123.95 C118.677419,123.95 118.258065,124.264062 118.258065,124.7875 C118.258065,125.310937 118.572581,125.625 119.096774,125.625 L128.846774,125.625 C129.266129,125.625 129.685484,125.310937 129.685484,124.7875 C129.685484,124.264062 129.266129,123.95 128.846774,123.95 Z" id="Shape" fill="#DDDDDD"></path>
                    <path d="M114.903226,123.95 L111.758065,123.95 C111.33871,123.95 110.919355,124.264062 110.919355,124.7875 C110.919355,125.310937 111.233871,125.625 111.758065,125.625 L114.903226,125.625 C115.322581,125.625 115.741935,125.310937 115.741935,124.7875 C115.741935,124.264062 115.322581,123.95 114.903226,123.95 Z" id="Shape" fill="#DDDDDD"></path>
                    <path d="M22.5403226,25.4390625 C22.2258065,25.125 21.7016129,25.125 21.3870968,25.4390625 C21.0725806,25.753125 21.0725806,26.2765625 21.3870968,26.590625 L24.3225806,29.521875 C24.4274194,29.6265625 24.6370968,29.73125 24.8467742,29.73125 C25.0564516,29.73125 25.266129,29.6265625 25.3709677,29.521875 C25.6854839,29.2078125 25.6854839,28.684375 25.3709677,28.3703125 L22.5403226,25.4390625 Z" id="Shape" fill="#EDA9A9"></path>
                    <path d="M17.7177419,20.728125 C17.4032258,20.4140625 16.8790323,20.4140625 16.5645161,20.728125 C16.25,21.0421875 16.25,21.565625 16.5645161,21.8796875 L16.8790323,22.19375 C16.983871,22.2984375 17.1935484,22.403125 17.4032258,22.403125 C17.6129032,22.403125 17.8225806,22.2984375 17.9274194,22.19375 C18.2419355,21.8796875 18.2419355,21.35625 17.9274194,21.0421875 L17.7177419,20.728125 Z" id="Shape" fill="#EDA9A9"></path>
                    <path d="M29.983871,32.871875 C29.6693548,32.5578125 29.1451613,32.5578125 28.8306452,32.871875 C28.516129,33.1859375 28.516129,33.709375 28.8306452,34.0234375 L31.766129,36.9546875 C31.8709677,37.059375 32.0806452,37.1640625 32.2903226,37.1640625 C32.5,37.1640625 32.7096774,37.059375 32.8145161,36.9546875 C33.1290323,36.640625 33.1290323,36.1171875 32.8145161,35.803125 L29.983871,32.871875 Z" id="Shape" fill="#EDA9A9"></path>
                    <path d="M37.4274194,40.3046875 C37.1129032,39.990625 36.5887097,39.990625 36.2741935,40.3046875 C35.9596774,40.61875 35.9596774,41.1421875 36.2741935,41.45625 L39.2096774,44.3875 C39.3145161,44.4921875 39.5241935,44.596875 39.733871,44.596875 C39.9435484,44.596875 40.1532258,44.4921875 40.2580645,44.3875 C40.5725806,44.0734375 40.5725806,43.55 40.2580645,43.2359375 L37.4274194,40.3046875 Z" id="Shape" fill="#EDA9A9"></path>
                    <path d="M105.153226,27.6375 L102.846774,27.6375 L102.846774,25.334375 C102.846774,24.915625 102.532258,24.496875 102.008065,24.496875 C101.58871,24.496875 101.169355,24.8109375 101.169355,25.334375 L101.169355,27.6375 L98.8629032,27.6375 C98.4435484,27.6375 98.0241935,27.9515625 98.0241935,28.475 C98.0241935,28.89375 98.3387097,29.3125 98.8629032,29.3125 L101.169355,29.3125 L101.169355,31.615625 C101.169355,32.034375 101.483871,32.453125 102.008065,32.453125 C102.427419,32.453125 102.846774,32.1390625 102.846774,31.615625 L102.846774,29.3125 L105.153226,29.3125 C105.572581,29.3125 105.991935,28.9984375 105.991935,28.475 C105.991935,27.9515625 105.572581,27.6375 105.153226,27.6375 Z" id="Shape" fill="#EDA9A9"></path>
                    <path d="M104.83871,38.6296875 C104.524194,38.315625 104,38.315625 103.685484,38.6296875 L102.008065,40.3046875 L100.330645,38.6296875 C100.016129,38.315625 99.4919355,38.315625 99.1774194,38.6296875 C98.8629032,38.94375 98.8629032,39.4671875 99.1774194,39.78125 L100.854839,41.45625 L99.1774194,43.13125 C98.8629032,43.4453125 98.8629032,43.96875 99.1774194,44.2828125 C99.2822581,44.3875 99.4919355,44.4921875 99.7016129,44.4921875 C99.9112903,44.4921875 100.120968,44.3875 100.225806,44.2828125 L101.903226,42.6078125 L103.580645,44.2828125 C103.685484,44.3875 103.895161,44.4921875 104.104839,44.4921875 C104.314516,44.4921875 104.524194,44.3875 104.629032,44.2828125 C104.943548,43.96875 104.943548,43.4453125 104.629032,43.13125 L102.951613,41.45625 L104.83871,39.78125 C105.153226,39.4671875 105.153226,38.94375 104.83871,38.6296875 Z" id="Shape" fill="#EDA9A9"></path>
                    <path d="M119.201613,27.6375 L113.016129,27.6375 C112.596774,27.6375 112.177419,27.9515625 112.177419,28.475 C112.177419,28.89375 112.491935,29.3125 113.016129,29.3125 L119.201613,29.3125 C119.620968,29.3125 120.040323,28.9984375 120.040323,28.475 C119.935484,27.9515625 119.620968,27.6375 119.201613,27.6375 Z" id="Shape" fill="#EDA9A9"></path>
                    <path d="M116.580645,43.8640625 C116.266129,43.55 115.741935,43.55 115.427419,43.8640625 C115.322581,43.96875 115.322581,44.0734375 115.217742,44.0734375 C115.217742,44.178125 115.112903,44.2828125 115.112903,44.3875 C115.112903,44.4921875 115.112903,44.596875 115.217742,44.7015625 C115.217742,44.80625 115.322581,44.9109375 115.427419,45.015625 C115.532258,45.1203125 115.741935,45.225 115.951613,45.225 C116.16129,45.225 116.370968,45.1203125 116.475806,45.015625 C116.580645,44.9109375 116.580645,44.80625 116.685484,44.7015625 C116.685484,44.596875 116.790323,44.4921875 116.790323,44.3875 C116.790323,44.2828125 116.790323,44.178125 116.685484,44.0734375 C116.790323,43.96875 116.685484,43.96875 116.580645,43.8640625 Z" id="Shape" fill="#EDA9A9"></path>
                    <path d="M119.201613,40.61875 L113.016129,40.61875 C112.596774,40.61875 112.177419,40.9328125 112.177419,41.45625 C112.177419,41.9796875 112.491935,42.29375 113.016129,42.29375 L119.201613,42.29375 C119.620968,42.29375 120.040323,41.9796875 120.040323,41.45625 C120.040323,40.9328125 119.620968,40.61875 119.201613,40.61875 Z" id="Shape" fill="#EDA9A9"></path>
                    <path d="M116.580645,38.94375 C116.685484,38.8390625 116.790323,38.6296875 116.790323,38.4203125 C116.790323,38.315625 116.790323,38.2109375 116.685484,38.10625 C116.685484,38.0015625 116.580645,37.896875 116.475806,37.896875 C116.16129,37.5828125 115.637097,37.5828125 115.322581,37.896875 C115.217742,38.0015625 115.217742,38.10625 115.112903,38.10625 C115.112903,38.2109375 115.008065,38.315625 115.008065,38.4203125 C115.008065,38.6296875 115.112903,38.8390625 115.217742,38.94375 C115.322581,39.0484375 115.532258,39.153125 115.741935,39.153125 C116.266129,39.153125 116.475806,39.153125 116.580645,38.94375 Z" id="Shape" fill="#EDA9A9"></path>
                    <path d="M94.3548387,51.0875 L124.33871,51.0875 C126.225806,51.0875 127.693548,49.621875 127.693548,47.7375 L127.693548,11.30625 C127.693548,9.421875 126.225806,7.95625 124.33871,7.95625 L94.3548387,7.95625 C92.4677419,7.95625 91,9.421875 91,11.30625 L91,47.7375 C91,49.5171875 92.4677419,51.0875 94.3548387,51.0875 Z M92.5725806,11.30625 C92.5725806,10.259375 93.3064516,9.5265625 94.3548387,9.5265625 L124.33871,9.5265625 C125.282258,9.5265625 126.120968,10.3640625 126.120968,11.30625 L126.120968,47.7375 C126.120968,48.6796875 125.282258,49.5171875 124.33871,49.5171875 L94.3548387,49.5171875 C93.3064516,49.5171875 92.5725806,48.784375 92.5725806,47.7375 L92.5725806,11.30625 Z" id="Shape" fill="#FE5B5B"></path>
                    <path d="M96.1370968,20.728125 L122.451613,20.728125 C122.870968,20.728125 123.290323,20.4140625 123.290323,19.890625 L123.290323,12.98125 C123.290323,12.5625 122.975806,12.14375 122.451613,12.14375 L96.1370968,12.14375 C95.7177419,12.14375 95.2983871,12.4578125 95.2983871,12.98125 L95.2983871,19.890625 C95.4032258,20.4140625 95.7177419,20.728125 96.1370968,20.728125 Z M96.9758065,13.9234375 L121.717742,13.9234375 L121.717742,19.1578125 L96.9758065,19.1578125 L96.9758065,13.9234375 Z" id="Shape" fill="#EDA9A9"></path>
                    <path d="M94.7741935,112.434375 C98.1290323,109.7125 99.4919355,105.10625 98.1290323,101.023438 C96.8709677,97.0453125 93.516129,94.21875 89.3225806,93.590625 L83.3467742,72.234375 L96.8709677,72.234375 C97.2903226,72.234375 97.7096774,71.9203125 97.7096774,71.396875 C97.7096774,70.978125 97.3951613,70.559375 96.8709677,70.559375 L82.8225806,70.559375 L72.8629032,35.59375 C74.3306452,33.3953125 75.0645161,30.9875 75.0645161,28.3703125 C75.0645161,21.8796875 70.4516129,16.540625 64.266129,15.3890625 L64.266129,2.8265625 C64.266129,1.5703125 63.2177419,0.5234375 61.9596774,0.5234375 L61.5403226,0.5234375 C60.2822581,0.5234375 59.233871,1.5703125 59.233871,2.8265625 L59.233871,15.3890625 C53.1532258,16.540625 48.4354839,21.8796875 48.4354839,28.3703125 C48.4354839,30.9875 49.1693548,33.5 50.6370968,35.59375 L48.2258065,44.3875 L15.3064516,11.4109375 C15.3064516,11.4109375 15.2016129,11.30625 15.2016129,11.30625 C15.0967742,11.2015625 14.9919355,10.9921875 14.7822581,10.9921875 L3.77419355,6.8046875 C3.45967742,6.7 3.14516129,6.8046875 2.93548387,7.0140625 C2.72580645,7.2234375 2.62096774,7.5375 2.72580645,7.8515625 L6.91935484,18.84375 C7.02419355,19.053125 7.12903226,19.1578125 7.23387097,19.2625 C7.23387097,19.2625 7.23387097,19.3671875 7.33870968,19.3671875 L44.6612903,56.6359375 L40.6774194,70.6640625 L26.733871,70.6640625 C26.3145161,70.6640625 25.8951613,70.978125 25.8951613,71.5015625 C25.8951613,71.9203125 26.2096774,72.3390625 26.733871,72.3390625 L40.2580645,72.3390625 L34.1774194,93.6953125 C30.0887097,94.21875 26.6290323,97.15 25.3709677,101.128125 C24.1129032,105.315625 25.4758065,109.817187 28.7258065,112.539062 L24.6370968,126.671875 C24.5322581,127.090625 24.7419355,127.509375 25.1612903,127.614063 L27.2580645,128.242188 L26,132.429688 C25.8951613,132.848438 26.1048387,133.267188 26.5241935,133.371875 C26.6290323,133.371875 26.733871,133.371875 26.733871,133.371875 C27.0483871,133.371875 27.3629032,133.1625 27.4677419,132.848438 L28.7258065,128.660938 L30.7177419,129.289062 C30.8225806,129.289062 30.9274194,129.289062 30.9274194,129.289062 C31.2419355,129.289062 31.5564516,129.079688 31.6612903,128.765625 L36.483871,114.7375 C40.7822581,114.31875 44.4516129,111.3875 45.8145161,107.304688 C47.0725806,103.326562 45.9193548,99.034375 42.8790323,96.2078125 L51.0564516,72.1296875 L59.233871,72.1296875 L59.233871,76.9453125 C59.233871,78.30625 60.2822581,79.353125 61.6451613,79.353125 C63.0080645,79.353125 64.0564516,78.30625 64.0564516,76.9453125 L64.0564516,72.234375 L72.233871,72.234375 L80.4112903,96.3125 C77.3709677,99.1390625 76.2177419,103.43125 77.4758065,107.409375 C78.733871,111.596875 82.5080645,114.528125 86.8064516,114.842187 L91.6290323,128.870312 C91.733871,129.184375 92.0483871,129.39375 92.3629032,129.39375 C92.4677419,129.39375 92.5725806,129.39375 92.5725806,129.39375 L94.5645161,128.765625 L95.8225806,132.953125 C95.9274194,133.267188 96.2419355,133.476562 96.5564516,133.476562 C96.6612903,133.476562 96.766129,133.476562 96.766129,133.476562 C97.1854839,133.371875 97.3951613,132.953125 97.2903226,132.534375 L96.0322581,128.346875 L98.1290323,127.71875 C98.5483871,127.614063 98.7580645,127.195312 98.6532258,126.776562 L94.7741935,112.434375 Z M60.9112903,2.8265625 C60.9112903,2.4078125 61.2258065,2.09375 61.6451613,2.09375 L62.0645161,2.09375 C62.483871,2.09375 62.7983871,2.4078125 62.7983871,2.8265625 L62.7983871,15.1796875 L61.016129,15.1796875 L61.016129,2.8265625 L60.9112903,2.8265625 Z M50.1129032,28.3703125 C50.1129032,21.984375 55.3548387,16.75 61.75,16.75 C68.25,16.75 73.3870968,21.984375 73.3870968,28.3703125 C73.3870968,30.778125 72.6532258,33.08125 71.2903226,35.0703125 C69.1935484,38.0015625 66.0483871,39.78125 62.3790323,39.990625 C61.9596774,39.990625 61.5403226,39.990625 61.016129,39.990625 C60.1774194,39.990625 59.233871,39.78125 58.3951613,39.571875 C55.8790323,38.8390625 53.6774194,37.26875 52.1048387,35.0703125 C50.8467742,33.08125 50.1129032,30.778125 50.1129032,28.3703125 Z M4.82258065,8.8984375 L13.4193548,12.14375 L8.17741935,17.378125 L4.82258065,8.8984375 Z M9.01612903,18.7390625 L14.6774194,13.0859375 L47.7016129,46.0625 L46.6532258,49.621875 L44.766129,47.7375 C44.4516129,47.4234375 43.9274194,47.4234375 43.6129032,47.7375 C43.2983871,48.0515625 43.2983871,48.575 43.6129032,48.8890625 L46.1290323,51.4015625 L45.0806452,54.9609375 L9.01612903,18.7390625 Z M30.5080645,127.71875 L28.4112903,127.090625 C28.4112903,127.090625 28.4112903,127.090625 28.4112903,127.090625 L26.3145161,126.4625 L29.983871,113.48125 C29.983871,113.48125 30.0887097,113.48125 30.0887097,113.585938 C30.4032258,113.690625 30.6129032,113.9 30.9274194,114.004688 C31.0322581,114.004688 31.1370968,114.109375 31.2419355,114.109375 C31.5564516,114.214063 31.9758065,114.423438 32.2903226,114.528125 C32.6048387,114.632813 33.0241935,114.7375 33.3387097,114.842188 C33.4435484,114.842188 33.5483871,114.842188 33.5483871,114.842188 C33.8629032,114.946875 34.2822581,114.946875 34.5967742,114.946875 C34.5967742,114.946875 34.5967742,114.946875 34.5967742,114.946875 L30.5080645,127.71875 Z M44.3467742,106.885937 C43.1935484,110.55 39.8387097,113.167187 35.9596774,113.271875 C35.9596774,113.271875 35.9596774,113.271875 35.9596774,113.271875 C35.4354839,113.271875 34.9112903,113.271875 34.3870968,113.167187 C34.3870968,113.167187 34.2822581,113.167187 34.2822581,113.167187 C34.0725806,113.167187 33.8629032,113.0625 33.6532258,113.0625 C33.6532258,113.0625 33.6532258,113.0625 33.6532258,113.0625 C33.4435484,112.957812 33.1290323,112.957812 32.9193548,112.853125 C32.9193548,112.853125 32.9193548,112.853125 32.9193548,112.853125 C32.3951613,112.64375 31.9758065,112.539062 31.4516129,112.225 C31.4516129,112.225 31.4516129,112.225 31.4516129,112.225 C31.0322581,112.015625 30.6129032,111.701562 30.1935484,111.3875 C30.1935484,111.3875 30.1935484,111.3875 30.1935484,111.3875 C30.1935484,111.3875 30.1935484,111.3875 30.1935484,111.3875 C27.0483871,109.084375 25.7903226,105.001563 26.9435484,101.3375 C28.0967742,97.778125 31.1370968,95.265625 34.9112903,94.9515625 C35.2258065,94.9515625 35.4354839,94.9515625 35.75,94.9515625 C36.1693548,94.9515625 36.5887097,94.9515625 36.9032258,95.05625 C37.0080645,95.05625 37.1129032,95.05625 37.2177419,95.05625 C37.6370968,95.1609375 38.0564516,95.1609375 38.3709677,95.3703125 C38.6854839,95.475 39.1048387,95.5796875 39.4193548,95.7890625 C40.1532258,96.103125 40.8870968,96.521875 41.516129,97.0453125 C44.3467742,99.5578125 45.5,103.326562 44.3467742,106.885937 Z M41.6209677,95.265625 C41.6209677,95.265625 41.516129,95.265625 41.516129,95.1609375 C41.2016129,94.9515625 40.7822581,94.7421875 40.4677419,94.5328125 C40.3629032,94.428125 40.2580645,94.428125 40.1532258,94.428125 C39.733871,94.21875 39.3145161,94.1140625 38.8951613,93.9046875 C38.4758065,93.8 38.0564516,93.6953125 37.5322581,93.590625 C37.4274194,93.590625 37.3225806,93.590625 37.2177419,93.4859375 C36.7983871,93.38125 36.3790323,93.38125 35.9596774,93.38125 C35.9596774,93.38125 35.8548387,93.38125 35.8548387,93.38125 L46.233871,56.95 C46.233871,56.95 46.233871,56.95 46.233871,56.95 C46.4435484,56.740625 46.4435484,56.4265625 46.4435484,56.2171875 L47.7016129,51.8203125 C47.7016129,51.8203125 47.8064516,51.8203125 47.8064516,51.715625 C48.016129,51.50625 48.1209677,51.1921875 48.016129,50.878125 L49.2741935,46.3765625 C49.2741935,46.3765625 49.2741935,46.3765625 49.2741935,46.3765625 C49.483871,46.1671875 49.483871,45.853125 49.483871,45.64375 L52,37.059375 C52.3145161,37.3734375 52.6290323,37.6875 52.9435484,38.0015625 C53.0483871,38.10625 53.1532258,38.2109375 53.2580645,38.2109375 C53.4677419,38.4203125 53.7822581,38.6296875 53.9919355,38.8390625 C54.0967742,38.94375 54.2016129,39.0484375 54.4112903,39.153125 C54.6209677,39.3625 54.9354839,39.4671875 55.25,39.6765625 C55.3548387,39.78125 55.4596774,39.78125 55.5645161,39.8859375 C55.983871,40.0953125 56.2983871,40.3046875 56.7177419,40.409375 C56.8225806,40.409375 56.8225806,40.409375 56.9274194,40.5140625 C57.2419355,40.61875 57.6612903,40.7234375 57.9758065,40.9328125 C58.0806452,40.9328125 58.2903226,41.0375 58.3951613,41.0375 C58.7096774,41.1421875 59.0241935,41.1421875 59.233871,41.246875 C59.4435484,41.246875 59.5483871,41.3515625 59.7580645,41.3515625 C59.8629032,41.3515625 59.9677419,41.3515625 60.0725806,41.3515625 L41.6209677,95.265625 Z M62.6935484,77.1546875 C62.6935484,77.678125 62.2741935,77.9921875 61.8548387,77.9921875 C61.3306452,77.9921875 61.016129,77.5734375 61.016129,77.1546875 L61.016129,65.8484375 C61.016129,65.325 61.4354839,65.0109375 61.8548387,65.0109375 C62.0645161,65.0109375 62.2741935,65.115625 62.483871,65.325 C62.6935484,65.4296875 62.6935484,65.74375 62.6935484,65.953125 L62.6935484,77.1546875 Z M64.266129,70.6640625 L64.266129,65.8484375 C64.266129,65.2203125 63.9516129,64.5921875 63.5322581,64.1734375 C63.1129032,63.7546875 62.483871,63.440625 61.75,63.440625 C60.3870968,63.440625 59.3387097,64.5921875 59.3387097,65.8484375 L59.3387097,70.6640625 L51.6854839,70.6640625 L61.6451613,41.5609375 C61.75,41.5609375 61.75,41.5609375 61.8548387,41.5609375 C61.9596774,41.5609375 61.9596774,41.5609375 62.0645161,41.5609375 L72.0241935,70.6640625 L64.266129,70.6640625 Z M63.5322581,41.45625 C63.6370968,41.45625 63.7419355,41.45625 63.8467742,41.45625 C63.9516129,41.45625 64.1612903,41.3515625 64.266129,41.3515625 C64.5806452,41.246875 64.8951613,41.246875 65.2096774,41.1421875 C65.3145161,41.1421875 65.5241935,41.0375 65.6290323,41.0375 C66.0483871,40.9328125 66.3629032,40.828125 66.7822581,40.61875 C66.8870968,40.61875 66.8870968,40.61875 66.9919355,40.5140625 C67.4112903,40.3046875 67.8306452,40.0953125 68.1451613,39.8859375 C68.25,39.78125 68.3548387,39.78125 68.4596774,39.6765625 C68.7741935,39.4671875 68.983871,39.3625 69.2983871,39.153125 C69.4032258,39.0484375 69.5080645,38.94375 69.7177419,38.8390625 C69.9274194,38.6296875 70.2419355,38.4203125 70.4516129,38.2109375 C70.5564516,38.10625 70.6612903,38.0015625 70.766129,37.896875 C71.0806452,37.5828125 71.3951613,37.26875 71.7096774,36.9546875 L87.8548387,93.2765625 C87.8548387,93.2765625 87.75,93.2765625 87.75,93.2765625 C87.3306452,93.2765625 86.9112903,93.2765625 86.4919355,93.38125 C86.3870968,93.38125 86.2822581,93.38125 86.1774194,93.4859375 C85.7580645,93.590625 85.233871,93.6953125 84.8145161,93.8 C84.3951613,93.9046875 83.9758065,94.1140625 83.5564516,94.3234375 C83.4516129,94.3234375 83.3467742,94.428125 83.2419355,94.428125 C82.8225806,94.6375 82.5080645,94.846875 82.1935484,95.05625 C82.1935484,95.05625 82.0887097,95.05625 82.0887097,95.05625 L63.5322581,41.45625 Z M87.5403226,113.376562 C83.6612903,113.271875 80.3064516,110.654687 79.1532258,106.990625 C78,103.43125 79.1532258,99.5578125 81.983871,97.2546875 C82.9274194,96.521875 83.9758065,95.89375 85.1290323,95.5796875 C85.5483871,95.475 85.9677419,95.3703125 86.3870968,95.265625 C86.4919355,95.265625 86.5967742,95.265625 86.7016129,95.265625 C87.1209677,95.1609375 87.5403226,95.1609375 87.9596774,95.1609375 C88.2741935,95.1609375 88.483871,95.1609375 88.7983871,95.1609375 C88.7983871,95.1609375 88.7983871,95.1609375 88.7983871,95.1609375 C92.4677419,95.475 95.6129032,97.9875 96.766129,101.546875 C97.9193548,105.210938 96.6612903,109.29375 93.516129,111.596875 C93.516129,111.596875 93.516129,111.596875 93.516129,111.596875 C93.0967742,111.910938 92.6774194,112.120313 92.2580645,112.434375 C92.2580645,112.434375 92.2580645,112.434375 92.2580645,112.434375 C91.8387097,112.64375 91.3145161,112.853125 90.8951613,112.957813 C90.8951613,112.957813 90.8951613,112.957813 90.7903226,112.957813 C89.6370968,113.271875 88.5887097,113.376562 87.5403226,113.376562 C87.6451613,113.376562 87.5403226,113.376562 87.5403226,113.376562 Z M95.0887097,127.090625 C95.0887097,127.090625 95.0887097,127.090625 95.0887097,127.090625 L92.9919355,127.71875 L88.5887097,114.946875 C88.5887097,114.946875 88.5887097,114.946875 88.5887097,114.946875 C88.9032258,114.946875 89.3225806,114.842188 89.6370968,114.842188 C89.7419355,114.842188 89.8467742,114.842188 89.8467742,114.842188 C90.266129,114.7375 90.5806452,114.632813 90.8951613,114.528125 C91.2096774,114.423438 91.6290323,114.31875 91.9435484,114.109375 C92.0483871,114.109375 92.1532258,114.004688 92.2580645,114.004688 C92.5725806,113.9 92.7822581,113.795313 92.9919355,113.585938 C93.0967742,113.585938 93.0967742,113.48125 93.2016129,113.48125 L96.8709677,126.4625 L95.0887097,127.090625 Z" id="Shape" fill="#FE5B5B"></path>
                    <path d="M94.6693548,103.745312 C94.6693548,103.0125 94.4596774,102.279687 94.1451613,101.546875 C93.8306452,100.814063 93.4112903,100.185938 92.8870968,99.6625 C92.5725806,99.3484375 92.0483871,99.3484375 91.733871,99.6625 C91.4193548,99.9765625 91.4193548,100.5 91.733871,100.814063 C92.1532258,101.232813 92.4677419,101.75625 92.6774194,102.279688 C92.8870968,102.803125 93.0967742,103.43125 93.0967742,103.954688 C93.2016129,106.153125 92.0483871,108.142188 90.0564516,108.979687 C89.6370968,109.189063 89.4274194,109.607812 89.6370968,110.026562 C89.7419355,110.340625 90.0564516,110.55 90.3709677,110.55 C90.4758065,110.55 90.5806452,110.55 90.6854839,110.445312 C93.2016129,109.189063 94.8790323,106.571875 94.6693548,103.745312 Z" id="Shape" fill="#EDA9A9"></path>
                    <path d="M33.5483871,108.875 C31.5564516,108.0375 30.2983871,105.94375 30.5080645,103.85 C30.5080645,103.221875 30.7177419,102.698438 30.9274194,102.175 C31.1370968,101.651563 31.4516129,101.128125 31.8709677,100.709375 C32.1854839,100.395313 32.1854839,99.871875 31.8709677,99.5578125 C31.5564516,99.24375 31.0322581,99.24375 30.7177419,99.5578125 C30.1935484,100.08125 29.7741935,100.709375 29.4596774,101.442188 C29.1451613,102.175 28.9354839,102.907813 28.9354839,103.640625 C28.7258065,106.467188 30.4032258,109.084375 32.9193548,110.235938 C33.0241935,110.235938 33.1290323,110.340625 33.233871,110.340625 C33.5483871,110.340625 33.8629032,110.13125 33.9677419,109.817188 C34.1774194,109.503125 33.9677419,109.084375 33.5483871,108.875 Z" id="Shape" fill="#EDA9A9"></path>
                    <path d="M66.3629032,33.6046875 C66.0483871,33.91875 66.0483871,34.3375 66.2580645,34.75625 C66.3629032,34.965625 66.6774194,35.0703125 66.8870968,35.0703125 C67.0967742,35.0703125 67.3064516,34.965625 67.4112903,34.8609375 C69.2983871,33.1859375 70.3467742,30.8828125 70.3467742,28.3703125 L69.6129032,28.265625 L70.4516129,28.265625 C70.4516129,27.846875 70.1370968,27.5328125 69.6129032,27.5328125 C69.1935484,27.5328125 68.7741935,27.9515625 68.7741935,28.3703125 C68.7741935,30.359375 67.9354839,32.3484375 66.3629032,33.6046875 Z" id="Shape" fill="#EDA9A9"></path>
                    <path d="M61.75,35.384375 C59.7580645,35.384375 57.766129,34.546875 56.5080645,32.9765625 C56.1935484,32.6625 55.7741935,32.6625 55.3548387,32.871875 C55.0403226,33.1859375 55.0403226,33.6046875 55.25,34.0234375 C56.9274194,35.9078125 59.233871,36.9546875 61.75,36.9546875 C62.1693548,36.9546875 62.483871,36.640625 62.483871,36.1171875 C62.483871,35.59375 62.1693548,35.384375 61.75,35.384375 Z" id="Shape" fill="#EDA9A9"></path>
                    <path d="M53.9919355,29.2078125 C54.4112903,29.2078125 54.8306452,28.7890625 54.8306452,28.3703125 C54.8306452,26.38125 55.6693548,24.3921875 57.2419355,23.1359375 C57.5564516,22.821875 57.5564516,22.2984375 57.3467742,21.984375 C57.0322581,21.6703125 56.5080645,21.6703125 56.1935484,21.8796875 C54.3064516,23.5546875 53.2580645,25.8578125 53.2580645,28.3703125 C53.1532258,28.7890625 53.5725806,29.2078125 53.9919355,29.2078125 Z" id="Shape" fill="#EDA9A9"></path>
                    <path d="M61.75,21.35625 C63.7419355,21.35625 65.733871,22.19375 66.9919355,23.7640625 C67.0967742,23.9734375 67.4112903,24.078125 67.6209677,24.078125 C67.8306452,24.078125 68.0403226,23.9734375 68.1451613,23.86875 C68.4596774,23.5546875 68.4596774,23.03125 68.25,22.7171875 C66.5725806,20.8328125 64.266129,19.7859375 61.75,19.7859375 L61.6451613,19.7859375 C61.2258065,19.7859375 60.9112903,20.1 60.9112903,20.6234375 C61.016129,20.9375 61.3306452,21.35625 61.75,21.35625 Z" id="Shape" fill="#EDA9A9"></path>
                </g>
            </g>
        </g>
    </g>
</svg>