<?xml version="1.0" encoding="UTF-8"?>
<svg width="19px" height="16px" viewBox="0 0 19 16" version="1.1" xmlns="http://www.w3.org/2000/svg" xmlns:xlink="http://www.w3.org/1999/xlink">
    <!-- Generator: Sketch 48.1 (47250) - http://www.bohemiancoding.com/sketch -->
    <title>twitter-358952fe7345c5fc</title>
    <desc>Created with Sketch.</desc>
    <defs></defs>
    <g id="Desktop-HD" stroke="none" stroke-width="1" fill="none" fill-rule="evenodd" transform="translate(-498.000000, -4779.000000)">
        <g id="Pilotos" transform="translate(36.000000, 4381.000000)" fill="#303C42" fill-rule="nonzero">
            <g id="Group-14" transform="translate(158.000000, 206.000000)">
                <g id="Group-7">
                    <g id="Group-5" transform="translate(250.000000, 12.000000)">
                        <g id="Group-5-Copy-2" transform="translate(0.000000, 180.000000)">
                            <g id="twitter-358952fe7345c5fc" transform="translate(54.000000, 0.000000)">
                                <path d="M19,1.894 C18.2904786,2.22056266 17.5355311,2.43506346 16.7615625,2.53 C17.5810403,2.01885226 18.189831,1.22534499 18.4755208,0.296 C17.7125775,0.76537853 16.8744288,1.09661378 15.9987917,1.2748 C15.2898542,0.49 14.276125,-5.68434189e-14 13.1539375,-5.68434189e-14 C11.0025833,-5.68434189e-14 9.25735417,1.8084 9.25735417,4.0392 C9.25735417,4.3556 9.291,4.6632 9.35789583,4.9592 C6.118,4.79 3.24622917,3.184 1.32247917,0.7372 C0.975478172,1.35722164 0.793796261,2.05769198 0.795229167,2.77 C0.795229167,4.1708 1.4831875,5.4072 2.52897917,6.132 C1.90850367,6.11125496 1.30233747,5.93828117 0.762770833,5.628 L0.762770833,5.6776 C0.762770833,7.6352 2.106625,9.2684 3.89104167,9.638 C3.5569109,9.73372826 3.21115201,9.78166115 2.86385417,9.7804 C2.61289583,9.7804 2.36747917,9.756 2.12997917,9.7084 C2.62635417,11.3124 4.0648125,12.4812 5.77125,12.5124 C4.43729167,13.5964 2.75579167,14.2424 0.930208333,14.2424 C0.615520833,14.2424 0.304791667,14.2236 0,14.1868 C1.7254375,15.3308 3.7750625,16 5.9755,16 C13.1460208,16 17.0663542,9.846 17.0663542,4.508 C17.0663542,4.3324 17.0627917,4.1568 17.0560625,3.9848 C17.8222082,3.41055108 18.4805509,2.7024712 19,1.894" id="Twitter"></path>
                            </g>
                        </g>
                    </g>
                </g>
            </g>
        </g>
    </g>
</svg>