<?xml version="1.0" encoding="UTF-8"?>
<svg width="130px" height="124px" viewBox="0 0 130 124" version="1.1" xmlns="http://www.w3.org/2000/svg" xmlns:xlink="http://www.w3.org/1999/xlink">
    <!-- Generator: Sketch 48.1 (47250) - http://www.bohemiancoding.com/sketch -->
    <title>noun_749591_cc</title>
    <desc>Created with Sketch.</desc>
    <defs></defs>
    <g id="Desktop-HD" stroke="none" stroke-width="1" fill="none" fill-rule="evenodd" transform="translate(-185.000000, -3706.000000)" opacity="0.5">
        <g id="Estágios" transform="translate(185.000000, 2969.000000)" fill-rule="nonzero">
            <g id="noun_749591_cc" transform="translate(0.000000, 737.000000)">
                <g id="Group">
                    <path d="M4.7734375,51.0229508 C5.1796875,51.0229508 5.484375,50.7180328 5.484375,50.3114754 L5.484375,39.842623 C5.484375,39.4360656 5.1796875,39.1311475 4.7734375,39.1311475 C4.3671875,39.1311475 4.0625,39.4360656 4.0625,39.842623 L4.0625,50.3114754 C3.9609375,50.7180328 4.265625,51.0229508 4.7734375,51.0229508 Z" id="Shape" fill="#DDDDDD"></path>
                    <path d="M4.7734375,57.9344262 C5.1796875,57.9344262 5.484375,57.6295082 5.484375,57.2229508 L5.484375,53.8688525 C5.484375,53.4622951 5.1796875,53.157377 4.7734375,53.157377 C4.3671875,53.157377 4.0625,53.4622951 4.0625,53.8688525 L4.0625,57.2229508 C3.9609375,57.6295082 4.265625,57.9344262 4.7734375,57.9344262 Z" id="Shape" fill="#DDDDDD"></path>
                    <path d="M126.648438,88.3245902 C126.242188,88.3245902 125.9375,88.6295082 125.9375,89.0360656 L125.9375,99.504918 C125.9375,99.9114754 126.242188,100.216393 126.648438,100.216393 C127.054688,100.216393 127.359375,99.9114754 127.359375,99.504918 L127.359375,89.0360656 C127.460938,88.6295082 127.054688,88.3245902 126.648438,88.3245902 Z" id="Shape" fill="#DDDDDD"></path>
                    <path d="M126.648438,102.24918 C126.242188,102.24918 125.9375,102.554098 125.9375,102.960656 L125.9375,106.314754 C125.9375,106.721311 126.242188,107.02623 126.648438,107.02623 C127.054688,107.02623 127.359375,106.721311 127.359375,106.314754 L127.359375,102.960656 C127.460938,102.554098 127.054688,102.24918 126.648438,102.24918 Z" id="Shape" fill="#DDDDDD"></path>
                    <path d="M119.03125,22.8688525 C119.132812,22.9704918 119.335938,23.0721311 119.539062,23.0721311 C119.742188,23.0721311 119.945312,22.9704918 120.046875,22.8688525 C120.351562,22.5639344 120.351562,22.0557377 120.046875,21.852459 L118.421875,20.2262295 C118.117188,19.9213115 117.609375,19.9213115 117.40625,20.2262295 C117.101563,20.5311475 117.101563,21.0393443 117.40625,21.242623 L119.03125,22.8688525 Z" id="Shape" fill="#DDDDDD"></path>
                    <path d="M124.210938,27.9508197 C124.3125,28.052459 124.515625,28.1540984 124.71875,28.1540984 C124.921875,28.1540984 125.125,28.052459 125.226562,27.9508197 C125.53125,27.6459016 125.53125,27.1377049 125.226562,26.9344262 L123.601563,25.3081967 C123.296875,25.0032787 122.789063,25.0032787 122.585938,25.3081967 C122.28125,25.6131148 122.28125,26.1213115 122.585938,26.3245902 L124.210938,27.9508197 Z" id="Shape" fill="#DDDDDD"></path>
                    <path d="M118.015625,28.2557377 C118.21875,28.2557377 118.421875,28.1540984 118.523438,28.052459 L120.148438,26.4262295 C120.453125,26.1213115 120.453125,25.6131148 120.148438,25.4098361 C119.84375,25.104918 119.335938,25.104918 119.132812,25.4098361 L117.507813,27.0360656 C117.203125,27.3409836 117.203125,27.8491803 117.507813,28.052459 C117.609375,28.1540984 117.8125,28.2557377 118.015625,28.2557377 Z" id="Shape" fill="#DDDDDD"></path>
                    <path d="M123.195312,23.0721311 C123.398438,23.0721311 123.601562,22.9704918 123.703125,22.8688525 L125.328125,21.242623 C125.632812,20.9377049 125.632812,20.4295082 125.328125,20.2262295 C125.023437,19.9213115 124.515625,19.9213115 124.3125,20.2262295 L122.6875,21.852459 C122.382812,22.157377 122.382812,22.6655738 122.6875,22.8688525 C122.789062,22.9704918 122.992188,23.0721311 123.195312,23.0721311 Z" id="Shape" fill="#DDDDDD"></path>
                    <path d="M5.5859375,97.1672131 C5.28125,96.8622951 4.7734375,96.8622951 4.5703125,97.1672131 C4.265625,97.4721311 4.265625,97.9803279 4.5703125,98.1836066 L6.1953125,99.8098361 C6.296875,99.9114754 6.5,100.013115 6.703125,100.013115 C6.90625,100.013115 7.109375,99.9114754 7.2109375,99.8098361 C7.515625,99.504918 7.515625,98.9967213 7.2109375,98.7934426 L5.5859375,97.1672131 Z" id="Shape" fill="#DDDDDD"></path>
                    <path d="M10.765625,102.35082 C10.4609375,102.045902 9.953125,102.045902 9.75,102.35082 C9.4453125,102.655738 9.4453125,103.163934 9.75,103.367213 L11.375,104.993443 C11.4765625,105.095082 11.6796875,105.196721 11.8828125,105.196721 C12.0859375,105.196721 12.2890625,105.095082 12.390625,104.993443 C12.6953125,104.688525 12.6953125,104.180328 12.390625,103.977049 L10.765625,102.35082 Z" id="Shape" fill="#DDDDDD"></path>
                    <path d="M6.09375,102.35082 L4.46875,103.977049 C4.1640625,104.281967 4.1640625,104.790164 4.46875,104.993443 C4.5703125,105.095082 4.7734375,105.196721 4.9765625,105.196721 C5.1796875,105.196721 5.3828125,105.095082 5.484375,104.993443 L7.109375,103.367213 C7.4140625,103.062295 7.4140625,102.554098 7.109375,102.35082 C6.8046875,102.045902 6.3984375,102.045902 6.09375,102.35082 Z" id="Shape" fill="#DDDDDD"></path>
                    <path d="M11.2734375,97.1672131 L9.6484375,98.7934426 C9.34375,99.0983607 9.34375,99.6065574 9.6484375,99.8098361 C9.75,99.9114754 9.953125,100.013115 10.15625,100.013115 C10.359375,100.013115 10.5625,99.9114754 10.6640625,99.8098361 L12.2890625,98.1836066 C12.59375,97.8786885 12.59375,97.3704918 12.2890625,97.1672131 C11.984375,96.8622951 11.578125,96.8622951 11.2734375,97.1672131 Z" id="Shape" fill="#DDDDDD"></path>
                    <path d="M88.765625,22.4622951 C90.6953125,22.4622951 92.21875,20.9377049 92.21875,19.0065574 C92.21875,17.0754098 90.6953125,15.5508197 88.765625,15.5508197 C86.8359375,15.5508197 85.3125,17.0754098 85.3125,19.0065574 C85.3125,20.9377049 86.8359375,22.4622951 88.765625,22.4622951 Z M88.765625,17.0754098 C89.78125,17.0754098 90.6953125,17.8885246 90.6953125,19.0065574 C90.6953125,20.0229508 89.8828125,20.9377049 88.765625,20.9377049 C87.75,20.9377049 86.8359375,20.1245902 86.8359375,19.0065574 C86.8359375,17.9901639 87.6484375,17.0754098 88.765625,17.0754098 Z" id="Shape" fill="#DDDDDD"></path>
                    <path d="M30.46875,116.580328 C28.5390625,116.580328 27.015625,118.104918 27.015625,120.036066 C27.015625,121.967213 28.5390625,123.491803 30.46875,123.491803 C32.3984375,123.491803 33.921875,121.967213 33.921875,120.036066 C33.921875,118.104918 32.3984375,116.580328 30.46875,116.580328 Z M30.46875,121.967213 C29.453125,121.967213 28.5390625,121.154098 28.5390625,120.036066 C28.5390625,119.019672 29.3515625,118.104918 30.46875,118.104918 C31.484375,118.104918 32.3984375,118.918033 32.3984375,120.036066 C32.3984375,121.052459 31.5859375,121.967213 30.46875,121.967213 Z" id="Shape" fill="#DDDDDD"></path>
                    <path d="M18.484375,20.7344262 C18.484375,21.1409836 18.7890625,21.4459016 19.1953125,21.4459016 L31.7890625,21.4459016 C32.1953125,21.4459016 32.5,21.1409836 32.5,20.7344262 C32.5,20.3278689 32.1953125,20.0229508 31.7890625,20.0229508 L19.1953125,20.0229508 C18.7890625,19.9213115 18.484375,20.3278689 18.484375,20.7344262 Z" id="Shape" fill="#DDDDDD"></path>
                    <path d="M10.96875,21.4459016 L15.03125,21.4459016 C15.4375,21.4459016 15.7421875,21.1409836 15.7421875,20.7344262 C15.7421875,20.3278689 15.4375,20.0229508 15.03125,20.0229508 L10.96875,20.0229508 C10.5625,20.0229508 10.2578125,20.3278689 10.2578125,20.7344262 C10.2578125,21.1409836 10.5625,21.4459016 10.96875,21.4459016 Z" id="Shape" fill="#DDDDDD"></path>
                    <path d="M10.96875,17.0754098 L19.8046875,17.0754098 C20.2109375,17.0754098 20.515625,16.7704918 20.515625,16.3639344 C20.515625,15.957377 20.2109375,15.652459 19.8046875,15.652459 L10.96875,15.652459 C10.5625,15.652459 10.2578125,15.957377 10.2578125,16.3639344 C10.2578125,16.7704918 10.5625,17.0754098 10.96875,17.0754098 Z" id="Shape" fill="#DDDDDD"></path>
                    <path d="M23.5625,17.0754098 L26.40625,17.0754098 C26.8125,17.0754098 27.1171875,16.7704918 27.1171875,16.3639344 C27.1171875,15.957377 26.8125,15.652459 26.40625,15.652459 L23.5625,15.652459 C23.15625,15.652459 22.8515625,15.957377 22.8515625,16.3639344 C22.8515625,16.7704918 23.15625,17.0754098 23.5625,17.0754098 Z" id="Shape" fill="#DDDDDD"></path>
                    <path d="M108.773437,117.291803 C108.773437,116.885246 108.46875,116.580328 108.0625,116.580328 L95.3671875,116.580328 C94.9609375,116.580328 94.65625,116.885246 94.65625,117.291803 C94.65625,117.698361 94.9609375,118.003279 95.3671875,118.003279 L107.960938,118.003279 C108.46875,118.003279 108.773437,117.698361 108.773437,117.291803 Z" id="Shape" fill="#DDDDDD"></path>
                    <path d="M116.1875,116.580328 L112.125,116.580328 C111.71875,116.580328 111.414062,116.885246 111.414062,117.291803 C111.414062,117.698361 111.71875,118.003279 112.125,118.003279 L116.1875,118.003279 C116.59375,118.003279 116.898438,117.698361 116.898438,117.291803 C117,116.885246 116.59375,116.580328 116.1875,116.580328 Z" id="Shape" fill="#DDDDDD"></path>
                    <path d="M116.1875,120.84918 L107.351562,120.84918 C106.945312,120.84918 106.640625,121.154098 106.640625,121.560656 C106.640625,121.967213 106.945312,122.272131 107.351562,122.272131 L116.1875,122.272131 C116.59375,122.272131 116.898438,121.967213 116.898438,121.560656 C117,121.255738 116.59375,120.84918 116.1875,120.84918 Z" id="Shape" fill="#DDDDDD"></path>
                    <path d="M103.695312,120.84918 L100.851562,120.84918 C100.445312,120.84918 100.140625,121.154098 100.140625,121.560656 C100.140625,121.967213 100.445312,122.272131 100.851562,122.272131 L103.695312,122.272131 C104.101562,122.272131 104.40625,121.967213 104.40625,121.560656 C104.40625,121.255738 104.101562,120.84918 103.695312,120.84918 Z" id="Shape" fill="#DDDDDD"></path>
                    <path d="M129.390625,76.1278689 C129.1875,75.8229508 128.679687,75.7213115 128.375,75.9245902 C123.398437,79.2786885 118.421875,82.9377049 113.648437,86.5967213 C112.734375,87.3081967 111.71875,87.6131148 110.804688,87.5114754 C110.398437,87.4098361 109.789062,87.2065574 109.382812,86.6983607 L92.5234375,62.1016393 C92.1171875,61.4918033 92.1171875,60.8819672 92.21875,60.4754098 C92.421875,59.5606557 93.1328125,58.6459016 94.046875,58.1377049 C97.6015625,56.0032787 101.15625,53.6655738 104.609375,51.4295082 C104.914062,51.2262295 105.015625,50.7180328 104.8125,50.4131148 C104.609375,50.1081967 104.101562,50.0065574 103.796875,50.2098361 C100.34375,52.4459016 96.7890625,54.7836066 93.234375,56.9180328 C92.015625,57.6295082 91.1015625,58.747541 90.796875,59.9672131 L59.8203125,59.9672131 L57.484375,59.9672131 L39.203125,59.9672131 C38.8984375,58.747541 37.984375,57.6295082 36.765625,56.9180328 C33.2109375,54.7836066 29.65625,52.547541 26.203125,50.2098361 C25.8984375,50.0065574 25.390625,50.1081967 25.1875,50.4131148 C24.984375,50.7180328 25.0859375,51.2262295 25.390625,51.4295082 C28.84375,53.7672131 32.3984375,56.0032787 35.953125,58.1377049 C36.8671875,58.747541 37.578125,59.5606557 37.78125,60.4754098 C37.78125,60.5770492 37.78125,60.5770492 37.78125,60.6786885 C37.78125,60.7803279 37.78125,60.9836066 37.8828125,61.0852459 C37.8828125,61.3901639 37.78125,61.7967213 37.578125,62.1016393 L20.71875,86.6983607 C20.3125,87.3081967 19.703125,87.5114754 19.296875,87.5114754 C18.3828125,87.6131148 17.265625,87.3081967 16.453125,86.5967213 C11.578125,82.8360656 6.6015625,79.2786885 1.7265625,75.9245902 C1.421875,75.7213115 0.9140625,75.8229508 0.7109375,76.1278689 C0.5078125,76.4327869 0.609375,76.9409836 0.9140625,77.1442623 C5.7890625,80.4983607 10.765625,84.0557377 15.5390625,87.8163934 C16.5546875,88.6295082 17.7734375,89.0360656 18.890625,89.0360656 C19.09375,89.0360656 19.296875,89.0360656 19.6015625,88.9344262 C20.6171875,88.7311475 21.4296875,88.2229508 21.9375,87.5114754 L23.6640625,85.0721311 C24.6796875,85.8852459 26.8125,87.7147541 27.7265625,89.6459016 C28.03125,90.1540984 28.1328125,90.5606557 28.3359375,90.9672131 C28.4375,91.2721311 28.5390625,91.4754098 28.7421875,91.7803279 C28.3359375,92.0852459 27.9296875,92.4918033 27.5234375,92.8983607 L26.3046875,94.6262295 C24.78125,96.7606557 25.1875,99.7081967 27.3203125,101.334426 L29.25,102.757377 C30.0625,103.367213 31.078125,103.672131 32.09375,103.672131 C32.296875,103.672131 32.6015625,103.672131 32.8046875,103.570492 C33.0078125,103.570492 33.2109375,103.468852 33.4140625,103.367213 C33.2109375,105.095082 33.8203125,106.92459 35.34375,108.042623 L37.0703125,109.363934 C37.8828125,109.97377 38.8984375,110.278689 40.015625,110.278689 C40.21875,110.278689 40.5234375,110.278689 40.7265625,110.177049 C41.1328125,110.07541 41.4375,109.97377 41.84375,109.872131 C41.84375,110.278689 41.84375,110.583607 41.84375,110.990164 C42.046875,112.311475 42.7578125,113.429508 43.7734375,114.242623 L45.5,115.563934 C46.3125,116.17377 47.328125,116.478689 48.4453125,116.478689 C48.6484375,116.478689 48.953125,116.478689 49.15625,116.377049 C49.6640625,116.27541 50.0703125,116.17377 50.4765625,115.970492 C50.4765625,117.393443 51.0859375,118.714754 52.203125,119.629508 L53.7265625,120.747541 C54.4375,121.357377 55.3515625,121.560656 56.265625,121.560656 C56.46875,121.560656 56.671875,121.560656 56.875,121.560656 C57.9921875,121.357377 59.0078125,120.747541 59.71875,119.832787 L60.6328125,118.613115 C60.734375,118.714754 60.734375,118.918033 60.9375,119.019672 C62.0546875,119.731148 63.2734375,120.137705 64.4921875,120.137705 C66.5234375,120.137705 68.453125,119.222951 69.671875,117.393443 C70.7890625,115.767213 70.9921875,113.836066 70.484375,112.108197 L73.6328125,114.344262 C74.6484375,115.055738 75.8671875,115.462295 77.1875,115.462295 C77.59375,115.462295 78,115.462295 78.3046875,115.360656 C79.9296875,115.055738 81.3515625,114.140984 82.265625,112.718033 C83.1796875,111.295082 83.5859375,109.668852 83.28125,108.042623 C83.28125,107.839344 83.1796875,107.737705 83.1796875,107.534426 L85.0078125,108.754098 C86.0234375,109.465574 87.2421875,109.872131 88.5625,109.872131 C88.96875,109.872131 89.375,109.872131 89.6796875,109.770492 C91.3046875,109.465574 92.7265625,108.55082 93.640625,107.127869 C94.5546875,105.704918 94.9609375,104.078689 94.65625,102.452459 C94.65625,102.24918 94.5546875,102.147541 94.5546875,101.944262 L96.890625,103.468852 C97.90625,104.180328 99.125,104.586885 100.445312,104.586885 C100.851563,104.586885 101.257812,104.586885 101.5625,104.485246 C103.1875,104.180328 104.609375,103.265574 105.523438,101.842623 C106.4375,100.419672 106.84375,98.7934426 106.539062,97.1672131 C106.234375,95.5409836 105.320312,94.1180328 103.898438,93.2032787 L81.65625,78.2622951 C81.453125,78.1606557 81.25,78.1606557 81.046875,78.1606557 L77.1875,78.1606557 C69.0625,78.1606557 68.046875,71.5540984 67.9453125,71.2491803 C67.9453125,70.842623 67.5390625,70.6393443 67.234375,70.6393443 L54.234375,70.6393443 C53.828125,70.6393443 53.5234375,70.9442623 53.5234375,71.2491803 C52.8125,75.1114754 51.4921875,77.7540984 49.359375,79.0754098 C47.734375,80.0918033 46.109375,79.9901639 45.296875,79.8885246 L45.296875,68.3016393 L57.6875,61.3901639 L59.8203125,61.3901639 L90.6953125,61.3901639 C90.796875,61.8983607 90.8984375,62.5081967 91.203125,62.9147541 L108.0625,87.5114754 C108.570312,88.3245902 109.484375,88.8327869 110.398437,88.9344262 C110.601562,88.9344262 110.804688,89.0360656 111.109375,89.0360656 C112.226562,89.0360656 113.445312,88.6295082 114.460937,87.8163934 C119.234375,84.157377 124.210937,80.4983607 129.085937,77.1442623 C129.492187,76.9409836 129.59375,76.4327869 129.390625,76.1278689 Z M32.5,102.147541 C31.6875,102.24918 30.7734375,102.045902 30.0625,101.537705 L28.1328125,100.114754 C26.7109375,98.9967213 26.40625,96.9639344 27.421875,95.5409836 L28.640625,93.8131148 C28.9453125,93.4065574 29.453125,93 29.859375,92.7967213 C29.859375,92.7967213 29.859375,92.7967213 29.9609375,92.7967213 C29.9609375,92.7967213 29.9609375,92.7967213 29.9609375,92.7967213 C30.1640625,92.695082 30.46875,92.5934426 30.7734375,92.5934426 C30.9765625,92.5934426 31.078125,92.5934426 31.28125,92.5934426 C31.9921875,92.5934426 32.6015625,92.7967213 33.2109375,93.2032787 L35.140625,94.6262295 C35.8515625,95.1344262 36.2578125,95.947541 36.4609375,96.7606557 C36.5625,97.3704918 36.4609375,97.9803279 36.2578125,98.4885246 L34.2265625,101.232787 C34.2265625,101.232787 34.2265625,101.334426 34.125,101.334426 C33.71875,101.740984 33.109375,102.045902 32.5,102.147541 Z M40.421875,108.754098 C39.5078125,108.855738 38.59375,108.652459 37.8828125,108.144262 L36.15625,106.822951 C34.734375,105.806557 34.4296875,103.77377 35.34375,102.24918 C35.546875,102.045902 35.75,101.842623 35.8515625,101.639344 L37.0703125,99.9114754 C37.2734375,99.6065574 37.4765625,99.4032787 37.578125,99.0983607 L39,97.1672131 C39.7109375,96.252459 40.7265625,95.7442623 41.7421875,95.7442623 C42.453125,95.7442623 43.1640625,95.947541 43.7734375,96.4557377 L45.5,97.7770492 C47.0234375,98.895082 47.328125,101.029508 46.2109375,102.554098 L42.65625,107.432787 C42.1484375,108.144262 41.3359375,108.652459 40.421875,108.754098 Z M48.8515625,115.055738 C47.9375,115.157377 47.0234375,114.954098 46.3125,114.445902 L44.5859375,113.12459 C43.875,112.616393 43.3671875,111.803279 43.265625,110.888525 C43.1640625,109.97377 43.3671875,109.059016 43.875,108.347541 L49.5625,100.72459 C50.0703125,100.013115 50.8828125,99.504918 51.796875,99.4032787 C52,99.4032787 52.1015625,99.4032787 52.3046875,99.4032787 C53.015625,99.4032787 53.7265625,99.6065574 54.3359375,100.114754 L56.0625,101.436066 C57.5859375,102.554098 57.890625,104.688525 56.7734375,106.213115 L51.0859375,113.836066 C50.4765625,114.445902 49.765625,114.852459 48.8515625,115.055738 Z M58.6015625,119.019672 C58.1953125,119.629508 57.484375,120.036066 56.671875,120.137705 C55.9609375,120.239344 55.1484375,120.036066 54.5390625,119.629508 L53.015625,118.511475 C51.6953125,117.596721 51.4921875,115.767213 52.40625,114.445902 L54.1328125,112.108197 C54.5390625,111.498361 55.25,111.091803 56.0625,110.990164 C56.1640625,110.990164 56.3671875,110.990164 56.46875,110.990164 C57.078125,110.990164 57.6875,111.193443 58.1953125,111.6 L59.71875,112.718033 C61.0390625,113.632787 61.2421875,115.462295 60.328125,116.783607 L58.6015625,119.019672 Z M44.1796875,67.2852459 C43.9765625,67.3868852 43.7734375,67.6918033 43.7734375,67.895082 L43.7734375,80.3967213 C43.7734375,80.7016393 43.9765625,81.0065574 44.28125,81.1081967 C44.3828125,81.1081967 45.09375,81.4131148 46.2109375,81.4131148 C47.2265625,81.4131148 48.6484375,81.2098361 50.0703125,80.3967213 C52.40625,78.9737705 54.03125,76.2295082 54.84375,72.1639344 L66.5234375,72.1639344 C67.03125,74.095082 69.1640625,79.6852459 77.0859375,79.6852459 L81.046875,79.6852459 C81.046875,79.6852459 81.046875,79.6852459 81.046875,79.6852459 L102.984375,94.7278689 C104,95.4393443 104.710938,96.557377 104.914063,97.7770492 C105.117188,98.9967213 104.914063,100.318033 104.203125,101.334426 C103.492188,102.35082 102.375,103.062295 101.15625,103.265574 C99.9375,103.468852 98.6171875,103.265574 97.6015625,102.554098 L92.015625,98.7934426 C92.015625,98.7934426 92.015625,98.7934426 92.015625,98.7934426 L76.2734375,87.9180328 C75.96875,87.7147541 75.4609375,87.8163934 75.2578125,88.1213115 C75.0546875,88.4262295 75.15625,88.9344262 75.4609375,89.1377049 L91.203125,99.9114754 C92.21875,100.622951 92.9296875,101.740984 93.1328125,102.960656 C93.3359375,104.180328 93.1328125,105.501639 92.421875,106.518033 C90.8984375,108.652459 87.953125,109.262295 85.8203125,107.737705 L70.078125,96.9639344 C69.7734375,96.7606557 69.3671875,96.8622951 69.0625,97.0655738 C68.9609375,97.1672131 68.859375,97.1672131 68.859375,97.2688525 C68.65625,97.5737705 68.7578125,98.0819672 69.0625,98.2852459 L79.828125,105.4 C80.84375,106.111475 81.5546875,107.229508 81.7578125,108.44918 C81.9609375,109.668852 81.7578125,110.990164 81.046875,112.006557 C80.3359375,113.022951 79.21875,113.734426 78,113.937705 C76.78125,114.140984 75.4609375,113.937705 74.4453125,113.22623 L64.2890625,106.009836 C63.984375,105.806557 63.4765625,105.806557 63.2734375,106.213115 C63.0703125,106.518033 63.0703125,107.02623 63.4765625,107.229508 L66.828125,109.668852 C66.9296875,109.770492 66.9296875,109.97377 67.1328125,109.97377 C69.265625,111.498361 69.875,114.445902 68.3515625,116.580328 C66.828125,118.714754 63.8828125,119.32459 61.75,117.8 C61.6484375,117.698361 61.546875,117.698361 61.34375,117.698361 L61.4453125,117.495082 C62.8671875,115.563934 62.4609375,112.819672 60.53125,111.396721 L59.0078125,110.278689 C58.09375,109.567213 56.9765625,109.363934 55.9609375,109.465574 L57.890625,106.92459 C59.515625,104.790164 59.0078125,101.639344 56.875,100.114754 L55.1484375,98.7934426 C53.015625,97.1672131 49.96875,97.6754098 48.34375,99.8098361 C48.140625,98.5901639 47.53125,97.4721311 46.4140625,96.6590164 L44.6875,95.3377049 C42.5546875,93.8131148 39.609375,94.2196721 37.984375,96.252459 C37.78125,95.1344262 37.171875,94.1180328 36.15625,93.4065574 L34.2265625,91.9836066 C33.2109375,91.2721311 31.9921875,90.8655738 30.671875,91.0688525 C30.46875,91.0688525 30.265625,91.1704918 30.0625,91.1704918 C29.9609375,90.8655738 29.7578125,90.5606557 29.65625,90.357377 C29.453125,89.9508197 29.25,89.5442623 29.046875,88.9344262 C27.9296875,86.6983607 25.4921875,84.6655738 24.4765625,83.7508197 L38.796875,62.9147541 C39.1015625,62.4065574 39.3046875,61.8983607 39.3046875,61.3901639 L54.640625,61.3901639 L44.1796875,67.2852459 Z" id="Shape" fill="#FE5B5B"></path>
                    <path d="M112.53125,79.3803279 C114.257812,79.3803279 115.78125,77.957377 115.78125,76.1278689 C115.78125,74.4 114.359375,72.8754098 112.53125,72.8754098 C110.804688,72.8754098 109.28125,74.2983607 109.28125,76.1278689 C109.28125,77.957377 110.804688,79.3803279 112.53125,79.3803279 Z M112.53125,74.4 C113.445313,74.4 114.257812,75.2131148 114.257812,76.1278689 C114.257812,77.042623 113.445313,77.8557377 112.53125,77.8557377 C111.617188,77.8557377 110.804688,77.042623 110.804688,76.1278689 C110.804688,75.2131148 111.617188,74.4 112.53125,74.4 Z" id="Shape" fill="#EDA9A9"></path>
                    <path d="M14.21875,76.1278689 C14.21875,77.8557377 15.640625,79.3803279 17.46875,79.3803279 C19.1953125,79.3803279 20.71875,77.957377 20.71875,76.1278689 C20.71875,74.4 19.296875,72.8754098 17.46875,72.8754098 C15.640625,72.9770492 14.21875,74.4 14.21875,76.1278689 Z M19.1953125,76.1278689 C19.1953125,77.042623 18.3828125,77.8557377 17.46875,77.8557377 C16.5546875,77.8557377 15.7421875,77.042623 15.7421875,76.1278689 C15.7421875,75.2131148 16.5546875,74.4 17.46875,74.4 C18.3828125,74.4 19.1953125,75.2131148 19.1953125,76.1278689 Z" id="Shape" fill="#EDA9A9"></path>
                    <path d="M98.2109375,60.0688525 C97.90625,60.2721311 97.8046875,60.7803279 98.0078125,61.0852459 L101.96875,66.9803279 C102.070312,67.1836066 102.375,67.2852459 102.578125,67.2852459 C102.679688,67.2852459 102.882812,67.2852459 102.984375,67.1836066 C103.289062,66.9803279 103.390625,66.4721311 103.1875,66.1672131 L99.2265625,60.2721311 C99.0234375,59.8655738 98.515625,59.7639344 98.2109375,60.0688525 Z" id="Shape" fill="#EDA9A9"></path>
                    <path d="M28.4375,66.9803279 L32.3984375,61.0852459 C32.6015625,60.7803279 32.5,60.2721311 32.1953125,60.0688525 C31.890625,59.8655738 31.3828125,59.9672131 31.1796875,60.2721311 L27.21875,66.1672131 C27.015625,66.4721311 27.1171875,66.9803279 27.421875,67.1836066 C27.5234375,67.2852459 27.7265625,67.2852459 27.828125,67.2852459 C28.03125,67.2852459 28.3359375,67.1836066 28.4375,66.9803279 Z" id="Shape" fill="#EDA9A9"></path>
                    <path d="M46.0078125,49.1934426 L83.890625,49.1934426 C85.2109375,49.1934426 86.328125,48.0754098 86.328125,46.7540984 L86.328125,45.8393443 C86.328125,44.5180328 85.2109375,43.4 83.890625,43.4 L82.265625,43.4 L81.046875,35.5737705 C80.9453125,35.1672131 80.640625,34.9639344 80.3359375,34.9639344 L74.0390625,34.9639344 C72.71875,34.4557377 71.6015625,33.3377049 70.890625,31.7114754 C69.1640625,27.747541 69.875,21.4459016 72.71875,14.5344262 C72.71875,14.4327869 72.8203125,14.4327869 72.8203125,14.2295082 C73.0234375,13.6196721 73.328125,13.1114754 73.6328125,12.6032787 C73.6328125,12.6032787 73.6328125,12.6032787 73.6328125,12.6032787 C73.6328125,12.6032787 73.6328125,12.5016393 73.734375,12.5016393 C74.0390625,11.6885246 74.140625,10.7737705 74.140625,9.75737705 C74.140625,4.67540984 70.078125,0.609836066 65,0.609836066 C59.921875,0.609836066 55.859375,4.67540984 55.859375,9.75737705 C55.859375,10.6721311 55.9609375,11.5868852 56.265625,12.5016393 C56.265625,12.6032787 56.265625,12.6032787 56.3671875,12.704918 C56.671875,13.2131148 56.875,13.7213115 57.078125,14.2295082 C57.078125,14.2295082 57.078125,14.3311475 57.078125,14.3311475 C57.078125,14.3311475 57.078125,14.3311475 57.078125,14.4327869 C60.0234375,21.4459016 60.734375,27.747541 59.0078125,31.7114754 C58.296875,33.3377049 57.1796875,34.4557377 55.859375,35.0655738 L49.5625,35.0655738 C49.15625,35.0655738 48.8515625,35.3704918 48.8515625,35.6754098 L47.734375,43.4 L46.0078125,43.4 C44.6875,43.4 43.5703125,44.5180328 43.5703125,45.8393443 L43.5703125,46.7540984 C43.5703125,48.0754098 44.6875,49.1934426 46.0078125,49.1934426 Z M60.4296875,32.2196721 C62.359375,27.747541 61.6484375,21.242623 58.5,13.7213115 L57.7890625,14.0262295 L58.3984375,13.6196721 C58.1953125,13.1114754 57.890625,12.5016393 57.5859375,11.9934426 C57.3828125,11.2819672 57.28125,10.4688525 57.28125,9.75737705 C57.3828125,5.48852459 60.734375,2.03278689 65,2.03278689 C69.265625,2.03278689 72.6171875,5.48852459 72.6171875,9.6557377 C72.6171875,10.3672131 72.515625,11.1803279 72.3125,11.8918033 C72.0078125,12.4 71.8046875,13.0098361 71.5,13.5180328 C71.5,13.6196721 71.3984375,13.6196721 71.3984375,13.7213115 L72.109375,14.0262295 L71.3984375,13.8229508 C68.25,21.242623 67.640625,27.747541 69.5703125,32.2196721 C70.078125,33.3377049 70.6875,34.252459 71.3984375,34.9639344 L58.6015625,34.9639344 C59.3125,34.252459 59.921875,33.3377049 60.4296875,32.2196721 Z M50.2734375,36.4885246 L56.0625,36.4885246 L73.8359375,36.4885246 L79.625,36.4885246 L80.640625,43.4 L49.15625,43.4 L50.2734375,36.4885246 Z M45.09375,45.8393443 C45.09375,45.3311475 45.5,44.8229508 46.109375,44.8229508 L48.4453125,44.8229508 L81.65625,44.8229508 L83.9921875,44.8229508 C84.5,44.8229508 85.0078125,45.2295082 85.0078125,45.8393443 L85.0078125,46.7540984 C85.0078125,47.2622951 84.6015625,47.7704918 83.9921875,47.7704918 L46.0078125,47.7704918 C45.5,47.7704918 44.9921875,47.3639344 44.9921875,46.7540984 L44.9921875,45.8393443 L45.09375,45.8393443 Z" id="Shape" fill="#FE5B5B"></path>
                </g>
            </g>
        </g>
    </g>
</svg>