<svg width="33px" height="30px" viewBox="0 0 33 30" version="1.1" xmlns="http://www.w3.org/2000/svg" xmlns:xlink="http://www.w3.org/1999/xlink">
    <g id="Page-1" stroke="none" stroke-width="1" fill="none" fill-rule="evenodd">
        <g id="E-book" transform="translate(-184.000000, -40.000000)" fill-rule="nonzero">
            <g id="Group-Copy-3" transform="translate(185.000000, 40.000000)">
                <g id="Group-2">
                    <path d="M5.70431664,22.8561623 L4.56314486,21.9448239 L3.49355831,23.0750337 C1.73940531,24.8930102 1.86336312,27.5493661 3.7026638,29.0385388 L4.84383558,29.9498772 L5.91342213,28.8196673 C7.6358946,26.977843 7.57335327,24.3154068 5.70431664,22.8561623 Z" id="Shape-Copy-2" fill="#F8B64C"></path>
                    <path d="M5.35841109,23.6565716 L4.56505858,23.0065241 L3.82304153,23.8082285 C2.57513025,25.1185553 2.64357754,27.0542246 3.97514823,28.1097617 L4.76850073,28.7598093 L5.51051778,27.9581048 C6.75842906,26.6477781 6.68995148,24.7120859 5.35841109,23.6565716 Z" id="Shape-Copy" fill="#FFD15C"></path>
                    <path d="M27.3688613,22.8561623 L26.2276895,21.9448239 L25.158103,23.0750337 C23.40395,24.8930102 23.5279078,27.5493661 25.3672085,29.0385388 L26.5083802,29.9498772 L27.5779668,28.8196673 C29.3004393,26.977843 29.2378979,24.3154068 27.3688613,22.8561623 Z" id="Shape-Copy-4" fill="#F8B64C"></path>
                    <path d="M27.0229557,23.6565716 L26.2296032,23.0065241 L25.4875862,23.8082285 C24.2396749,25.1185553 24.3081222,27.0542246 25.6396929,28.1097617 L26.4330454,28.7598093 L27.1750624,27.9581048 C28.4229737,26.6477781 28.3544961,24.7120859 27.0229557,23.6565716 Z" id="Shape-Copy-3" fill="#FFD15C"></path>
                    <path d="M2.85248219,18.2332439 L2.85248219,4.61603556 C2.85248219,2.45921901 4.25903058,0.710820907 5.99414276,0.710820907 L25.1566322,0.710820907 C26.8917444,0.710820907 28.2982928,2.45921901 28.2982928,4.61603556 L28.2982928,18.2332439" id="Shape" fill="#FE5B5B"></path>
                    <path d="M8.27349049,0.780878556 L5.94782286,0.780878556 C4.21271067,0.780878556 2.80616228,2.52927666 2.80616228,4.68609321 L2.80616228,18.3033016 L5.13182991,18.3033016 L5.13182991,4.68609321 C5.13182991,2.52927666 6.53837831,0.780878556 8.27349049,0.780878556 Z" id="Shape" fill="#E8605C"></path>
                    <path d="M2.83376212,9.00133525 L2.83376212,9.00133525 C1.58710792,9.00133525 0.57648223,10.257585 0.57648223,11.807228 L0.57648223,23.7960286 L5.09104201,23.7960286 L5.09104201,11.807228 C5.09104201,10.257585 4.08047684,9.00133525 2.83376212,9.00133525 Z" id="Shape" fill="#FEC95B"></path>
                    <path d="M5.09104201,17.4853654 C5.09104201,15.7112389 6.24806589,14.2730102 7.67531217,14.2730102 L23.4379621,14.2730102 C24.8652084,14.2730102 26.0222323,15.7112389 26.0222323,17.4853654 L26.0222323,20.1398973 L5.09104201,20.1398973 C5.09104201,20.1398973 5.09104201,17.4853654 5.09104201,17.4853654 Z" id="Shape" fill="#FE5B5B"></path>
                    <path d="M9.97337996,14.3069846 L7.64771233,14.3069846 C6.22046605,14.3069846 5.06344217,15.7452133 5.06344217,17.5193398 L5.06344217,20.1738717 L7.3891098,20.1738717 L7.3891098,17.5193398 C7.3891098,15.7452133 8.54613369,14.3069846 9.97337996,14.3069846 Z" id="Shape" fill="#E8605C"></path>
                    <rect id="Rectangle-path" fill="#AC4845" x="5.06307904" y="20.1298323" width="20.9311298" height="3.79608887"></rect>
                    <rect id="Rectangle-path" fill="#415E72" x="2.6354955" y="23.8298525" width="4.03572449" height="1.87057006"></rect>
                    <rect id="Rectangle-path" fill="#415E72" x="24.3867941" y="23.8298525" width="4.03572449" height="1.87057006"></rect>
                    <path d="M28.7590711,8.45597082 L28.7590711,4.68428771 C28.7590711,2.17931117 27.1195807,0.141356494 25.1044418,0.141356494 L23.3210346,0.141356494 C23.0377398,0.141356494 22.8080054,0.426850697 22.8080054,0.779073059 C22.8080054,1.13129542 23.0376793,1.41678962 23.3210346,1.41678962 L25.1044418,1.41678962 C26.5538385,1.41678962 27.7330127,2.88255222 27.7330127,4.68428771 L27.7330127,8.45597082 C26.4498649,8.75605946 25.4757328,10.1584792 25.4757328,11.8393969 L25.4757328,14.6577776 C24.9265732,14.0426297 24.2002105,13.6674625 23.4044918,13.6674625 L7.64184187,13.6674625 C6.84612318,13.6674625 6.11976055,14.042705 5.57060087,14.6577776 L5.57060087,11.8393969 C5.57060087,10.1584792 4.59646883,8.75598423 3.31332098,8.45597082 L3.31332098,4.68428771 C3.31332098,2.88262745 4.49249524,1.41678962 5.9419524,1.41678962 L21.6109777,1.41678962 C21.8942725,1.41678962 22.1240069,1.13129542 22.1240069,0.779073059 C22.1240069,0.426925926 21.894333,0.141356494 21.6109777,0.141356494 L5.94201292,0.141356494 C3.92681356,0.141356494 2.28732318,2.17931117 2.28732318,4.68428771 L2.28732318,8.45597082 C1.00417534,8.75598423 0.0300432967,10.158404 0.0300432967,11.8393216 L0.0300432967,17.9613104 C0.0300432967,18.3134575 0.259717198,18.599027 0.543072457,18.599027 C0.826427715,18.599027 1.05610162,18.3135327 1.05610162,17.9613104 L1.05610162,11.8393216 C1.05610162,10.6437817 1.8385664,9.67114549 2.80035234,9.67114549 C3.76213828,9.67114549 4.54460307,10.6437817 4.54460307,11.8393216 L4.54460307,23.1904057 L1.05610162,23.1904057 L1.05610162,20.0869821 C1.05610162,19.734835 0.826427715,19.4492656 0.543072457,19.4492656 C0.259717198,19.4492656 0.0300432967,19.7347598 0.0300432967,20.0869821 L0.0300432967,23.8281975 C0.0300432967,24.1803446 0.259717198,24.465914 0.543072457,24.465914 L2.11635381,24.465914 L2.11635381,25.6988428 C2.11635381,26.0509899 2.34602771,26.3365593 2.62938297,26.3365593 L6.66510746,26.3365593 C6.9484022,26.3365593 7.17813662,26.0510651 7.17813662,25.6988428 L7.17813662,24.465914 L23.8683181,24.465914 L23.8683181,25.6988428 C23.8683181,26.0509899 24.097992,26.3365593 24.3813473,26.3365593 L28.4170718,26.3365593 C28.7003665,26.3365593 28.9301009,26.0510651 28.9301009,25.6988428 L28.9301009,24.465914 L30.5033823,24.465914 C30.786677,24.465914 31.0164115,24.1804198 31.0164115,23.8281975 L31.0164115,11.8393216 C31.0163509,10.158404 30.0422189,8.755909 28.7590711,8.45597082 Z M5.57066139,20.8097075 L8.34097044,20.8097075 C8.62426518,20.8097075 8.8539996,20.5242133 8.8539996,20.1719909 C8.8539996,19.8198438 8.6243257,19.5342744 8.34097044,19.5342744 L5.57066139,19.5342744 L5.57066139,17.5174591 C5.57066139,16.0978119 6.49976646,14.9428204 7.64190239,14.9428204 L23.4045524,14.9428204 C24.5466278,14.9428204 25.4757934,16.0977366 25.4757934,17.5174591 L25.4757934,19.5342744 L10.0510273,19.5342744 C9.76773256,19.5342744 9.53799813,19.8197686 9.53799813,20.1719909 C9.53799813,20.5241381 9.76767204,20.8097075 10.0510273,20.8097075 L25.4757934,20.8097075 L25.4757934,23.1904809 L5.57066139,23.1904809 L5.57066139,20.8097075 Z M6.1520783,25.061051 L3.14235161,25.061051 L3.14235161,24.4658388 L6.1520783,24.4658388 L6.1520783,25.061051 L6.1520783,25.061051 Z M27.9040426,25.061051 L24.8943159,25.061051 L24.8943159,24.4658388 L27.9040426,24.4658388 L27.9040426,25.061051 Z M29.9902926,23.1904809 L26.5017912,23.1904809 L26.5017912,11.8393216 C26.5017912,10.6437817 27.284256,9.67114549 28.2460419,9.67114549 C29.2078278,9.67114549 29.9902926,10.6437817 29.9902926,11.8393216 L29.9902926,23.1904809 L29.9902926,23.1904809 Z" id="Shape" fill="#000000"></path>
                    <path d="M12.0765527,6.0404416 C11.8160965,5.79143348 11.3937011,5.79143348 11.1333236,6.0404416 L10.8189663,6.34098161 L10.5046091,6.0404416 C10.2441529,5.79143348 9.82175746,5.79143348 9.56137995,6.0404416 C9.30092375,6.28944972 9.30092375,6.69327921 9.56137995,6.9422121 L9.8757372,7.24275211 L9.56137995,7.54329212 C9.30092375,7.79230024 9.30092375,8.19612972 9.56137995,8.44506261 C9.69160805,8.56956667 9.8623603,8.63185632 10.0330339,8.63185632 C10.2037074,8.63185632 10.3744597,8.5696419 10.5046878,8.44506261 L10.819045,8.1445226 L11.1334023,8.44506261 C11.2636304,8.56956667 11.4343826,8.63185632 11.6050562,8.63185632 C11.7757298,8.63185632 11.946482,8.5696419 12.0767101,8.44506261 C12.3371663,8.19605449 12.3371663,7.79222501 12.0767101,7.54329212 L11.7623529,7.24275211 L12.0767101,6.9422121 C12.3370089,6.69327921 12.3370089,6.28944972 12.0765527,6.0404416 Z" id="Shape" fill="#000000"></path>
                    <path d="M21.4521104,6.0404416 C21.1916542,5.79143348 20.7692587,5.79143348 20.5088812,6.0404416 L20.194524,6.34098161 L19.8801667,6.0404416 C19.6197105,5.79143348 19.1973151,5.79143348 18.9369376,6.0404416 C18.6764814,6.28944972 18.6764814,6.69327921 18.9369376,6.9422121 L19.2512948,7.24275211 L18.9369376,7.54329212 C18.6764814,7.79230024 18.6764814,8.19612972 18.9369376,8.44506261 C19.0671657,8.56956667 19.2379179,8.63185632 19.4085915,8.63185632 C19.5792651,8.63185632 19.7500173,8.5696419 19.8802454,8.44506261 L20.1946027,8.1445226 L20.5089599,8.44506261 C20.639188,8.56956667 20.8099403,8.63185632 20.9806138,8.63185632 C21.1512874,8.63185632 21.3220397,8.5696419 21.4522678,8.44506261 C21.712724,8.19605449 21.712724,7.79222501 21.4522678,7.54329212 L21.1379105,7.24275211 L21.4522678,6.9422121 C21.7125666,6.69327921 21.7125666,6.28944972 21.4521104,6.0404416 Z" id="Shape" fill="#000000"></path>
                    <path d="M27.5889108,9.00133525 L27.5889108,9.00133525 C25.8409774,9.00133525 24.4239794,10.257585 24.4239794,11.807228 L24.4239794,23.7960286 L30.7538422,23.7960286 L30.7538422,11.807228 C30.7538422,10.257585 29.3369291,9.00133525 27.5889108,9.00133525 Z" id="Shape" stroke="#000000" stroke-width="1.93745883" fill="#FE5B5B"></path>
                    <path d="M3.77556955,8.99208208 L3.77556955,8.99208208 C2.02763609,8.99208208 0.610638136,10.2483318 0.610638136,11.7979748 L0.610638136,23.7867754 L6.94050097,23.7867754 L6.94050097,11.7979748 C6.94050097,10.2483318 5.52358787,8.99208208 3.77556955,8.99208208 Z" id="Shape-Copy-5" stroke="#000000" stroke-width="1.93745883" fill="#FE5B5B"></path>
                </g>
            </g>
        </g>
    </g>
</svg>
