<svg width="157px" height="30px" viewBox="0 0 157 30" version="1.1" xmlns="http://www.w3.org/2000/svg" xmlns:xlink="http://www.w3.org/1999/xlink">
    <g id="Page-1" stroke="none" stroke-width="1" fill="none" fill-rule="evenodd">
        <g id="Landing-Page" transform="translate(-184.000000, -40.000000)">
            <g id="Group-Copy-3" transform="translate(185.000000, 40.000000)">
                <g id="Group" transform="translate(41.125927, 0.637020)">
                    <g id="Group-6" transform="translate(0.000000, 0.000000)">
                        <path d="M7.40955342,9.76594266 C6.9093279,9.58247996 6.45079472,9.49074998 6.03394012,9.49074998 C5.47118642,9.49074998 4.98660022,9.64363327 4.58016698,9.94940445 C4.17373375,10.2551756 3.89757172,10.6832488 3.75167262,11.2336369 L3.75167262,21.446343 L0.0312639385,21.446343 L0.0312639385,6.15786087 L2.87628234,6.15786087 L3.31397748,7.99247873 L3.43903323,7.99247873 C3.70998872,7.31978215 4.10078404,6.79488285 4.61143092,6.41776507 C5.1220778,6.04064729 5.71087609,5.85209123 6.37784345,5.85209123 C6.87806896,5.85209123 7.36786577,5.95401342 7.84724855,6.15786087 L7.40955342,9.76594266 Z M8.62884702,13.802102 C8.62884702,11.0909309 9.17074986,9.07287143 10.2545718,7.74786302 C11.3383938,6.4228546 12.849469,5.76036033 14.7878429,5.76036033 C16.8721159,5.76036033 18.424876,6.43304682 19.4461697,7.77843998 C20.4674635,9.12383314 20.9781027,11.1317004 20.9781027,13.802102 C20.9781027,16.5336578 20.4361999,18.5568133 19.3523779,19.8716294 C18.268556,21.1864454 16.7470595,21.8438436 14.7878429,21.8438436 C10.6818251,21.8438436 8.62884702,19.1632898 8.62884702,13.802102 Z M12.4743114,13.802102 C12.4743114,15.3309578 12.651472,16.5132553 13.0057984,17.3490298 C13.3601248,18.1848044 13.9541337,18.6026854 14.7878429,18.6026854 C15.5798666,18.6026854 16.1686649,18.2408616 16.5542554,17.5172031 C16.9398459,16.7935447 17.1326383,15.55519 17.1326383,13.802102 C17.1326383,12.2324766 16.9554777,11.0399869 16.6011513,10.2245971 C16.2468249,9.40920733 15.6423948,9.00151855 14.7878429,9.00151855 C14.0583473,9.00151855 13.4903915,9.36334235 13.0839582,10.0870008 C12.677525,10.8106592 12.4743114,12.0490139 12.4743114,13.802102 Z M32.3269124,20.620765 C31.8058441,21.0284599 31.1805716,21.3342265 30.4510761,21.5380739 C29.7215805,21.7419214 28.9920959,21.8438436 28.2626004,21.8438436 C27.1996211,21.8438436 26.3086078,21.6552875 25.5895336,21.2781697 C24.8704595,20.901052 24.2816612,20.3608643 23.8231211,19.6575906 C23.3645811,18.9543169 23.036313,18.1083627 22.838307,17.1197026 C22.6403011,16.1310425 22.5412996,15.0251866 22.5412996,13.802102 C22.5412996,11.1317004 23.0310964,9.12383314 24.0107047,7.77843998 C24.990313,6.43304682 26.4284398,5.76036033 28.3251282,5.76036033 C29.2630511,5.76036033 30.0290099,5.84189809 30.6230277,6.00497605 C31.2170455,6.16805401 31.7433166,6.3718984 32.2018566,6.61651534 L31.3264663,9.6436348 C30.9512972,9.4601721 30.5917655,9.32257714 30.2478605,9.23084579 C29.9039554,9.13911443 29.4923177,9.09324945 29.0129349,9.09324945 C28.1375402,9.09324945 27.4810041,9.46526546 27.0433068,10.2093086 C26.6056094,10.9533518 26.3867641,12.1509376 26.3867641,13.802102 C26.3867641,15.1882646 26.61082,16.319601 27.0589387,17.196145 C27.5070574,18.072689 28.2209102,18.5109545 29.2005185,18.5109545 C29.7215868,18.5109545 30.1644881,18.444705 30.5292359,18.3122042 C30.8939837,18.1797033 31.232673,18.0115317 31.5453139,17.8076843 L32.3269124,20.620765 Z M38.6422279,15.1169114 L37.7668377,15.1169114 L37.7668377,21.446343 L34.046429,21.446343 L34.046429,0.042468006 L37.7668377,0.042468006 L37.7668377,12.6707543 L38.5171722,12.2426768 L41.1120791,6.15786087 L45.1451271,6.15786087 L42.2688448,12.2120998 L40.9244954,13.2517166 L42.3939006,14.2913334 L45.5828223,21.446343 L41.3934545,21.446343 L38.6422279,15.1169114 Z M57.1817434,20.3149954 C56.6606752,20.7634597 55.952033,21.1303796 55.0557956,21.4157661 C54.1595582,21.7011525 53.2216495,21.8438436 52.2420412,21.8438436 C51.1582192,21.8438436 50.225521,21.6603836 49.4439187,21.2934582 C48.6623163,20.9265328 48.021412,20.3965374 47.5211865,19.7034561 C47.0209609,19.0103747 46.651008,18.1695166 46.4113166,17.1808565 C46.1716253,16.1921964 46.0517814,15.0659561 46.0517814,13.802102 C46.0517814,11.0501614 46.609316,9.01681361 47.7244021,7.70199757 C48.8394881,6.38718153 50.3870376,5.72978337 52.3670969,5.72978337 C53.0340643,5.72978337 53.6801792,5.82660946 54.3054611,6.02026453 C54.930743,6.21391961 55.4882777,6.54007063 55.9780818,6.99872739 C56.467886,7.45738415 56.8638919,8.06891732 57.1661115,8.83334525 C57.4683311,9.59777318 57.6194386,10.5609379 57.6194386,11.7228684 C57.6194386,12.1713328 57.5933856,12.6503671 57.5412787,13.1599857 C57.4891719,13.6696043 57.4110129,14.2199842 57.3067992,14.8111418 L49.7096622,14.8111418 C49.7513476,16.074996 50.022299,17.0432568 50.5225246,17.7159534 C51.0227501,18.38865 51.8251831,18.7249932 52.9298478,18.7249932 C53.5968152,18.7249932 54.2064559,18.623071 54.7587882,18.4192236 C55.3111206,18.2153761 55.7331795,18.0013395 56.0249777,17.7771073 L57.1817434,20.3149954 Z M52.304569,8.84863373 C51.5125453,8.84863373 50.9185364,9.15949643 50.5225246,9.78123114 C50.1265127,10.4029659 49.8972461,11.2744006 49.8347179,12.3955616 L54.1491414,12.3955616 C54.2116696,11.2336311 54.0866151,10.3520042 53.7739742,9.75065418 C53.4613332,9.14930421 52.9715364,8.84863373 52.304569,8.84863373 Z M58.7762043,6.15786087 L60.4957209,6.15786087 L60.4957209,3.28362622 L64.2161296,2.15227854 L64.2161296,6.15786087 L67.2487316,6.15786087 L67.2487316,9.39901909 L64.2161296,9.39901909 L64.2161296,16.0647973 C64.2161296,16.9413413 64.3047099,17.5630667 64.4818731,17.9299921 C64.6590363,18.2969175 64.9768831,18.4803775 65.4354232,18.4803775 C65.7480642,18.4803775 66.0294368,18.4498008 66.2795495,18.3886466 C66.5296623,18.3274924 66.8006137,18.2357624 67.0924119,18.1134539 L67.561371,21.0182655 C67.102831,21.2424977 66.5713493,21.4310538 65.9669102,21.5839394 C65.362471,21.736825 64.7267773,21.8132666 64.0598099,21.8132666 C62.8717743,21.8132666 61.980761,21.4769234 61.3867432,20.8042268 C60.7927254,20.1315302 60.4957209,19.0001938 60.4957209,17.4101837 L60.4957209,9.39901909 L58.7762043,9.39901909 L58.7762043,6.15786087 Z" id="rocket" fill="#000000"></path>
                        <path d="M74.6165998,17.5919468 C74.6165998,17.1638672 74.4759135,16.8020434 74.1945366,16.5064646 C73.9131598,16.2108858 73.5536281,15.9356958 73.1159308,15.6808865 C72.6782334,15.4260772 72.2144896,15.1661756 71.7246855,14.9011739 C71.2348813,14.6361723 70.7711376,14.3100212 70.3334402,13.9227111 C69.8957429,13.5354009 69.5362112,13.0665588 69.2548344,12.5161707 C68.9734575,11.9657826 68.8327712,11.2727117 68.8327712,10.4369372 C68.8327712,9.01000502 69.2287771,7.90924531 70.0208008,7.13462501 C70.8128246,6.36000471 71.9799999,5.97270036 73.522362,5.97270036 C74.4394421,5.97270036 75.3044024,6.06952645 76.1172688,6.26318153 C76.9301353,6.4568366 77.5762502,6.69635376 78.055633,6.98174019 L77.1802428,9.79482091 C76.7842309,9.63174295 76.3048553,9.47376354 75.7421016,9.32087796 C75.1793479,9.16799237 74.6270238,9.09155073 74.0851128,9.09155073 C73.0638191,9.09155073 72.5531799,9.50943173 72.5531799,10.3452063 C72.5531799,10.7325164 72.6938662,11.0535713 72.975243,11.3083806 C73.2566199,11.5631899 73.6161516,11.8128993 74.0538489,12.0575163 C74.4915462,12.3021332 74.95529,12.5569387 75.4450942,12.8219404 C75.9348983,13.0869421 76.3986421,13.4181892 76.8363394,13.8156917 C77.2740368,14.2131942 77.6335685,14.6973247 77.9149453,15.2680975 C78.1963222,15.8388704 78.3370085,16.5421335 78.3370085,17.3779081 C78.3370085,18.7844554 77.8993177,19.9157918 77.0239231,20.7719511 C76.1485284,21.6281104 74.8458773,22.0561836 73.1159308,22.0561836 C72.2613788,22.0561836 71.4224715,21.9542614 70.5991837,21.750414 C69.7758959,21.5465665 69.1141491,21.2815688 68.6139236,20.9554129 L69.6456336,18.0200243 C70.0833309,18.2646412 70.5887595,18.4786779 71.1619346,18.6621406 C71.7351097,18.8456033 72.3343292,18.9373332 72.9596111,18.9373332 C73.4389938,18.9373332 73.8349998,18.8303149 74.1476407,18.6162751 C74.4602817,18.4022353 74.6165998,18.0607959 74.6165998,17.5919468 Z M90.8738478,20.5273354 C90.3527796,20.9757998 89.6441374,21.3427197 88.7479,21.6281061 C87.8516626,21.9134925 86.9137538,22.0561836 85.9341455,22.0561836 C84.8503236,22.0561836 83.9176254,21.8727236 83.136023,21.5057982 C82.3544207,21.1388728 81.7135163,20.6088774 81.2132908,19.9157961 C80.7130653,19.2227148 80.3431124,18.3818567 80.103421,17.3931965 C79.8637296,16.4045364 79.7438857,15.2782962 79.7438857,14.014442 C79.7438857,11.2625014 80.3014204,9.22915364 81.4165064,7.9143376 C82.5315925,6.59952156 84.0791419,5.9421234 86.0592013,5.9421234 C86.7261686,5.9421234 87.3722836,6.03894949 87.9975655,6.23260456 C88.6228474,6.42625964 89.180382,6.75241066 89.6701862,7.21106742 C90.1599903,7.66972418 90.5559962,8.28125735 90.8582158,9.04568528 C91.1604354,9.81011321 91.3115429,10.773278 91.3115429,11.9352084 C91.3115429,12.3836728 91.2854899,12.8627071 91.2333831,13.3723257 C91.1812763,13.8819444 91.1031172,14.4323242 90.9989036,15.0234818 L83.4017665,15.0234818 C83.443452,16.287336 83.7144034,17.2555968 84.2146289,17.9282934 C84.7148544,18.60099 85.5172875,18.9373332 86.6219522,18.9373332 C87.2889195,18.9373332 87.8985602,18.835411 88.4508926,18.6315636 C89.0032249,18.4277161 89.4252839,18.2136795 89.7170821,17.9894473 L90.8738478,20.5273354 Z M85.9966734,9.06097376 C85.2046497,9.06097376 84.6106408,9.37183646 84.2146289,9.99357117 C83.818617,10.6153059 83.5893504,11.4867407 83.5268223,12.6079016 L87.8412458,12.6079016 C87.903774,11.4459712 87.7787195,10.5643442 87.4660785,9.96299421 C87.1534376,9.36164424 86.6636408,9.06097376 85.9966734,9.06097376 Z M93.7188662,7.28750983 C94.3441481,6.92058442 95.1257387,6.62501006 96.0636616,6.40077787 C97.0015844,6.17654567 98.0645477,6.06443126 99.2525833,6.06443126 C101.024215,6.06443126 102.259129,6.51288892 102.95736,7.40981769 C103.655591,8.30674646 104.004702,9.5807739 104.004702,11.2319382 C104.004702,12.1900212 103.978649,13.1328015 103.926542,14.0603074 C103.874435,14.9878133 103.837961,15.8949209 103.817118,16.7816573 C103.796276,17.6683937 103.811907,18.5245401 103.864014,19.3501223 C103.916121,20.1757044 104.056807,20.9554092 104.286077,21.68926 L101.253475,21.68926 L100.659461,19.8240652 L100.534405,19.8240652 C100.200921,20.4152228 99.7319667,20.9044493 99.1275276,21.2917595 C98.5230884,21.6790696 97.7623402,21.8727218 96.84526,21.8727218 C95.615539,21.8727218 94.6463666,21.4701291 93.9377138,20.6649317 C93.229061,19.8597343 92.8747399,18.7844551 92.8747399,17.439062 C92.8747399,15.604435 93.5416972,14.2998309 94.8756319,13.5252106 C96.2095666,12.7505903 98.0124357,12.4244392 100.284293,12.5467477 C100.388507,11.3644325 100.310348,10.5082861 100.049814,9.97828269 C99.7892796,9.44827933 99.231745,9.18328162 98.377193,9.18328162 C97.7519111,9.18328162 97.1057962,9.25462716 96.4388288,9.39732037 C95.7718615,9.54001358 95.1778526,9.74385797 94.6567844,10.0088597 L93.7188662,7.28750983 Z M98.1896094,18.7538715 C98.7523631,18.7538715 99.2108963,18.6162765 99.5652227,18.3410824 C99.9195491,18.0658884 100.180079,17.7652179 100.346821,17.439062 L100.346821,14.9011739 C99.8674384,14.8400197 99.4089052,14.8298275 98.9712079,14.870597 C98.5335105,14.9113665 98.1479258,15.0030964 97.8144421,15.1457897 C97.4809585,15.2884829 97.2152176,15.4974234 97.0172117,15.7726174 C96.8192058,16.0478115 96.7202043,16.3994431 96.7202043,16.8275227 C96.7202043,17.4594498 96.8504694,17.9384841 97.1110035,18.26464 C97.3715376,18.5907959 97.7310693,18.7538715 98.1896094,18.7538715 Z M105.380315,6.3702009 L107.099832,6.3702009 L107.099832,3.49596625 L110.820241,2.36461857 L110.820241,6.3702009 L113.852843,6.3702009 L113.852843,9.61135912 L110.820241,9.61135912 L110.820241,16.2771373 C110.820241,17.1536814 110.908821,17.7754068 111.085984,18.1423322 C111.263147,18.5092576 111.580994,18.6927175 112.039534,18.6927175 C112.352175,18.6927175 112.633548,18.6621409 112.88366,18.6009866 C113.133773,18.5398324 113.404725,18.4481024 113.696523,18.325794 L114.165482,21.2306056 C113.706942,21.4548378 113.17546,21.6433938 112.571021,21.7962794 C111.966582,21.949165 111.330888,22.0256066 110.663921,22.0256066 C109.475885,22.0256066 108.584872,21.6892634 107.990854,21.0165668 C107.396836,20.3438702 107.099832,19.2125339 107.099832,17.6225238 L107.099832,9.61135912 L105.380315,9.61135912 L105.380315,6.3702009 Z" id="seat" fill="#FE5B5B"></path>
                    </g>
                </g>
                <g id="Group-2" fill-rule="nonzero">
                    <path d="M5.70431664,22.8561623 L4.56314486,21.9448239 L3.49355831,23.0750337 C1.73940531,24.8930102 1.86336312,27.5493661 3.7026638,29.0385388 L4.84383558,29.9498772 L5.91342213,28.8196673 C7.6358946,26.977843 7.57335327,24.3154068 5.70431664,22.8561623 Z" id="Shape-Copy-2" fill="#F8B64C"></path>
                    <path d="M5.35841109,23.6565716 L4.56505858,23.0065241 L3.82304153,23.8082285 C2.57513025,25.1185553 2.64357754,27.0542246 3.97514823,28.1097617 L4.76850073,28.7598093 L5.51051778,27.9581048 C6.75842906,26.6477781 6.68995148,24.7120859 5.35841109,23.6565716 Z" id="Shape-Copy" fill="#FFD15C"></path>
                    <path d="M27.3688613,22.8561623 L26.2276895,21.9448239 L25.158103,23.0750337 C23.40395,24.8930102 23.5279078,27.5493661 25.3672085,29.0385388 L26.5083802,29.9498772 L27.5779668,28.8196673 C29.3004393,26.977843 29.2378979,24.3154068 27.3688613,22.8561623 Z" id="Shape-Copy-4" fill="#F8B64C"></path>
                    <path d="M27.0229557,23.6565716 L26.2296032,23.0065241 L25.4875862,23.8082285 C24.2396749,25.1185553 24.3081222,27.0542246 25.6396929,28.1097617 L26.4330454,28.7598093 L27.1750624,27.9581048 C28.4229737,26.6477781 28.3544961,24.7120859 27.0229557,23.6565716 Z" id="Shape-Copy-3" fill="#FFD15C"></path>
                    <path d="M2.85248219,18.2332439 L2.85248219,4.61603556 C2.85248219,2.45921901 4.25903058,0.710820907 5.99414276,0.710820907 L25.1566322,0.710820907 C26.8917444,0.710820907 28.2982928,2.45921901 28.2982928,4.61603556 L28.2982928,18.2332439" id="Shape" fill="#FE5B5B"></path>
                    <path d="M8.27349049,0.780878556 L5.94782286,0.780878556 C4.21271067,0.780878556 2.80616228,2.52927666 2.80616228,4.68609321 L2.80616228,18.3033016 L5.13182991,18.3033016 L5.13182991,4.68609321 C5.13182991,2.52927666 6.53837831,0.780878556 8.27349049,0.780878556 Z" id="Shape" fill="#E8605C"></path>
                    <path d="M2.83376212,9.00133525 L2.83376212,9.00133525 C1.58710792,9.00133525 0.57648223,10.257585 0.57648223,11.807228 L0.57648223,23.7960286 L5.09104201,23.7960286 L5.09104201,11.807228 C5.09104201,10.257585 4.08047684,9.00133525 2.83376212,9.00133525 Z" id="Shape" fill="#FEC95B"></path>
                    <path d="M5.09104201,17.4853654 C5.09104201,15.7112389 6.24806589,14.2730102 7.67531217,14.2730102 L23.4379621,14.2730102 C24.8652084,14.2730102 26.0222323,15.7112389 26.0222323,17.4853654 L26.0222323,20.1398973 L5.09104201,20.1398973 C5.09104201,20.1398973 5.09104201,17.4853654 5.09104201,17.4853654 Z" id="Shape" fill="#FE5B5B"></path>
                    <path d="M9.97337996,14.3069846 L7.64771233,14.3069846 C6.22046605,14.3069846 5.06344217,15.7452133 5.06344217,17.5193398 L5.06344217,20.1738717 L7.3891098,20.1738717 L7.3891098,17.5193398 C7.3891098,15.7452133 8.54613369,14.3069846 9.97337996,14.3069846 Z" id="Shape" fill="#E8605C"></path>
                    <rect id="Rectangle-path" fill="#AC4845" x="5.06307904" y="20.1298323" width="20.9311298" height="3.79608887"></rect>
                    <rect id="Rectangle-path" fill="#415E72" x="2.6354955" y="23.8298525" width="4.03572449" height="1.87057006"></rect>
                    <rect id="Rectangle-path" fill="#415E72" x="24.3867941" y="23.8298525" width="4.03572449" height="1.87057006"></rect>
                    <path d="M28.7590711,8.45597082 L28.7590711,4.68428771 C28.7590711,2.17931117 27.1195807,0.141356494 25.1044418,0.141356494 L23.3210346,0.141356494 C23.0377398,0.141356494 22.8080054,0.426850697 22.8080054,0.779073059 C22.8080054,1.13129542 23.0376793,1.41678962 23.3210346,1.41678962 L25.1044418,1.41678962 C26.5538385,1.41678962 27.7330127,2.88255222 27.7330127,4.68428771 L27.7330127,8.45597082 C26.4498649,8.75605946 25.4757328,10.1584792 25.4757328,11.8393969 L25.4757328,14.6577776 C24.9265732,14.0426297 24.2002105,13.6674625 23.4044918,13.6674625 L7.64184187,13.6674625 C6.84612318,13.6674625 6.11976055,14.042705 5.57060087,14.6577776 L5.57060087,11.8393969 C5.57060087,10.1584792 4.59646883,8.75598423 3.31332098,8.45597082 L3.31332098,4.68428771 C3.31332098,2.88262745 4.49249524,1.41678962 5.9419524,1.41678962 L21.6109777,1.41678962 C21.8942725,1.41678962 22.1240069,1.13129542 22.1240069,0.779073059 C22.1240069,0.426925926 21.894333,0.141356494 21.6109777,0.141356494 L5.94201292,0.141356494 C3.92681356,0.141356494 2.28732318,2.17931117 2.28732318,4.68428771 L2.28732318,8.45597082 C1.00417534,8.75598423 0.0300432967,10.158404 0.0300432967,11.8393216 L0.0300432967,17.9613104 C0.0300432967,18.3134575 0.259717198,18.599027 0.543072457,18.599027 C0.826427715,18.599027 1.05610162,18.3135327 1.05610162,17.9613104 L1.05610162,11.8393216 C1.05610162,10.6437817 1.8385664,9.67114549 2.80035234,9.67114549 C3.76213828,9.67114549 4.54460307,10.6437817 4.54460307,11.8393216 L4.54460307,23.1904057 L1.05610162,23.1904057 L1.05610162,20.0869821 C1.05610162,19.734835 0.826427715,19.4492656 0.543072457,19.4492656 C0.259717198,19.4492656 0.0300432967,19.7347598 0.0300432967,20.0869821 L0.0300432967,23.8281975 C0.0300432967,24.1803446 0.259717198,24.465914 0.543072457,24.465914 L2.11635381,24.465914 L2.11635381,25.6988428 C2.11635381,26.0509899 2.34602771,26.3365593 2.62938297,26.3365593 L6.66510746,26.3365593 C6.9484022,26.3365593 7.17813662,26.0510651 7.17813662,25.6988428 L7.17813662,24.465914 L23.8683181,24.465914 L23.8683181,25.6988428 C23.8683181,26.0509899 24.097992,26.3365593 24.3813473,26.3365593 L28.4170718,26.3365593 C28.7003665,26.3365593 28.9301009,26.0510651 28.9301009,25.6988428 L28.9301009,24.465914 L30.5033823,24.465914 C30.786677,24.465914 31.0164115,24.1804198 31.0164115,23.8281975 L31.0164115,11.8393216 C31.0163509,10.158404 30.0422189,8.755909 28.7590711,8.45597082 Z M5.57066139,20.8097075 L8.34097044,20.8097075 C8.62426518,20.8097075 8.8539996,20.5242133 8.8539996,20.1719909 C8.8539996,19.8198438 8.6243257,19.5342744 8.34097044,19.5342744 L5.57066139,19.5342744 L5.57066139,17.5174591 C5.57066139,16.0978119 6.49976646,14.9428204 7.64190239,14.9428204 L23.4045524,14.9428204 C24.5466278,14.9428204 25.4757934,16.0977366 25.4757934,17.5174591 L25.4757934,19.5342744 L10.0510273,19.5342744 C9.76773256,19.5342744 9.53799813,19.8197686 9.53799813,20.1719909 C9.53799813,20.5241381 9.76767204,20.8097075 10.0510273,20.8097075 L25.4757934,20.8097075 L25.4757934,23.1904809 L5.57066139,23.1904809 L5.57066139,20.8097075 Z M6.1520783,25.061051 L3.14235161,25.061051 L3.14235161,24.4658388 L6.1520783,24.4658388 L6.1520783,25.061051 L6.1520783,25.061051 Z M27.9040426,25.061051 L24.8943159,25.061051 L24.8943159,24.4658388 L27.9040426,24.4658388 L27.9040426,25.061051 Z M29.9902926,23.1904809 L26.5017912,23.1904809 L26.5017912,11.8393216 C26.5017912,10.6437817 27.284256,9.67114549 28.2460419,9.67114549 C29.2078278,9.67114549 29.9902926,10.6437817 29.9902926,11.8393216 L29.9902926,23.1904809 L29.9902926,23.1904809 Z" id="Shape" fill="#000000"></path>
                    <path d="M12.0765527,6.0404416 C11.8160965,5.79143348 11.3937011,5.79143348 11.1333236,6.0404416 L10.8189663,6.34098161 L10.5046091,6.0404416 C10.2441529,5.79143348 9.82175746,5.79143348 9.56137995,6.0404416 C9.30092375,6.28944972 9.30092375,6.69327921 9.56137995,6.9422121 L9.8757372,7.24275211 L9.56137995,7.54329212 C9.30092375,7.79230024 9.30092375,8.19612972 9.56137995,8.44506261 C9.69160805,8.56956667 9.8623603,8.63185632 10.0330339,8.63185632 C10.2037074,8.63185632 10.3744597,8.5696419 10.5046878,8.44506261 L10.819045,8.1445226 L11.1334023,8.44506261 C11.2636304,8.56956667 11.4343826,8.63185632 11.6050562,8.63185632 C11.7757298,8.63185632 11.946482,8.5696419 12.0767101,8.44506261 C12.3371663,8.19605449 12.3371663,7.79222501 12.0767101,7.54329212 L11.7623529,7.24275211 L12.0767101,6.9422121 C12.3370089,6.69327921 12.3370089,6.28944972 12.0765527,6.0404416 Z" id="Shape" fill="#000000"></path>
                    <path d="M21.4521104,6.0404416 C21.1916542,5.79143348 20.7692587,5.79143348 20.5088812,6.0404416 L20.194524,6.34098161 L19.8801667,6.0404416 C19.6197105,5.79143348 19.1973151,5.79143348 18.9369376,6.0404416 C18.6764814,6.28944972 18.6764814,6.69327921 18.9369376,6.9422121 L19.2512948,7.24275211 L18.9369376,7.54329212 C18.6764814,7.79230024 18.6764814,8.19612972 18.9369376,8.44506261 C19.0671657,8.56956667 19.2379179,8.63185632 19.4085915,8.63185632 C19.5792651,8.63185632 19.7500173,8.5696419 19.8802454,8.44506261 L20.1946027,8.1445226 L20.5089599,8.44506261 C20.639188,8.56956667 20.8099403,8.63185632 20.9806138,8.63185632 C21.1512874,8.63185632 21.3220397,8.5696419 21.4522678,8.44506261 C21.712724,8.19605449 21.712724,7.79222501 21.4522678,7.54329212 L21.1379105,7.24275211 L21.4522678,6.9422121 C21.7125666,6.69327921 21.7125666,6.28944972 21.4521104,6.0404416 Z" id="Shape" fill="#000000"></path>
                    <path d="M27.5889108,9.00133525 L27.5889108,9.00133525 C25.8409774,9.00133525 24.4239794,10.257585 24.4239794,11.807228 L24.4239794,23.7960286 L30.7538422,23.7960286 L30.7538422,11.807228 C30.7538422,10.257585 29.3369291,9.00133525 27.5889108,9.00133525 Z" id="Shape" stroke="#000000" stroke-width="1.93745883" fill="#FE5B5B"></path>
                    <path d="M3.77556955,8.99208208 L3.77556955,8.99208208 C2.02763609,8.99208208 0.610638136,10.2483318 0.610638136,11.7979748 L0.610638136,23.7867754 L6.94050097,23.7867754 L6.94050097,11.7979748 C6.94050097,10.2483318 5.52358787,8.99208208 3.77556955,8.99208208 Z" id="Shape-Copy-5" stroke="#000000" stroke-width="1.93745883" fill="#FE5B5B"></path>
                </g>
            </g>
        </g>
    </g>
</svg>
