<svg width="12px" height="11px" viewBox="0 0 12 11" version="1.1" xmlns="http://www.w3.org/2000/svg" xmlns:xlink="http://www.w3.org/1999/xlink">
    <g id="Page-1" stroke="none" stroke-width="1" fill="none" fill-rule="evenodd">
        <g id="Landing-Page" transform="translate(-708.000000, -2833.000000)" fill="#FF3333">
            <g id="Group-15" transform="translate(657.000000, 2826.000000)">
                <path d="M57.0000072,17.8571439 C57.1071501,17.8571439 57.2142931,17.8169653 57.2946504,17.736608 L61.4665303,13.7187461 C61.5267983,13.6584782 63.0000143,12.3124944 63.0000143,10.7053496 C63.0000143,8.74329373 61.8013522,7.57141733 59.7991176,7.57141733 C58.6272412,7.57141733 57.5290256,8.49552558 57.0000072,9.01784763 C56.4709887,8.49552558 55.3727731,7.57141733 54.2008967,7.57141733 C52.1986621,7.57141733 51,8.74329373 51,10.7053496 C51,12.3124944 52.473216,13.6584782 52.5267875,13.7053532 L56.7053639,17.736608 C56.7857212,17.8169653 56.8928642,17.8571439 57.0000072,17.8571439 Z" id="Heart---FontAwesome"></path>
            </g>
        </g>
    </g>
</svg>
