<?xml version="1.0" standalone="no"?><!-- Generator: Gravit.io --><svg xmlns="http://www.w3.org/2000/svg" xmlns:xlink="http://www.w3.org/1999/xlink" style="isolation:isolate" viewBox="665.0969519289416 167.17603703352614 119.15778898471387 219.5139629664739" width="119.15778898471387" height="219.5139629664739"><g style="isolation:isolate"><clipPath id="_clipPath_rKSVrbbwQtyDUuKCgGLzpmmksAKJSEBP"><path d=" M 713.2964 386.69000000000005 L 701.7854 296.39699999999993 C 702.3397 294.7689999999998 703.7075 293.29100000000017 705.8889 291.962 C 699.89 293.11900000000014 693.795 289.9670000000001 687.6039 282.509 C 681.4128 275.05099999999993 677.1516 265.683 674.8205 254.40700000000015 C 674.6076 252.88400000000001 674.9117 251.81899999999996 675.7328 251.212 C 677.2611 254.61099999999988 680.8276 256.3560000000002 686.4325 256.44799999999987 C 691.7953 255.7579999999998 695.6328 252.67799999999988 697.945 247.20899999999983 C 704.2849 250.24099999999999 710.5637 248.63400000000001 716.7814 242.38700000000017 C 713.5083 253.92599999999993 712.824 266.87300000000005 714.7285 281.23 C 716.3878 280.78999999999996 717.2769 278.6439999999998 717.3959 274.7919999999999 C 718.2735 260.6300000000001 719.8305 250.51400000000012 722.0671 244.4459999999999 C 724.1603 238.24099999999999 725.2068 235.13799999999992 725.2068 235.13799999999992 L 733.0075 229.08399999999983 C 733.5292 228.5 735.9733 230.05499999999984 740.3396 233.7489999999998 L 737.62 229.0329999999999 C 736.9428 227.32299999999987 737.2268 225.904 738.4719 224.7750000000001 C 740.3396 223.08100000000013 744.6307 218.97800000000007 744.6307 218.97800000000007 C 745.8272 217.35800000000017 745.5232 215.9670000000001 743.7186 214.8040000000001 L 740.6727 212.91899999999987 C 739.8888 212.60500000000002 738.7876 213.01699999999983 737.369 214.15700000000015 C 726.6044 221.2489999999998 721.2221 224.79599999999982 721.2221 224.79599999999982 C 716.9992 225.4949999999999 714.1147 224.96000000000004 712.5687 223.1909999999998 C 709.3815 219.50599999999986 707.6441 217.07900000000018 707.3565 215.90999999999985 C 706.9251 214.15700000000015 705.6532 210.72800000000007 709.7857 206.6489999999999 L 722.8262 197.91499999999996 C 726.9744 194.95699999999988 730.7817 192.71799999999985 734.2481 191.19799999999987 L 746.2785 181.10800000000017 C 749.2028 179.3789999999999 752.2204 179.3789999999999 755.3312 181.10800000000017 L 767.1261 191.79300000000012 L 777.7311 200.53600000000006 C 780.3636 202.4340000000002 781.6799 203.38400000000001 781.6799 203.38400000000001 C 783.5538 205.27100000000019 784.4049 208.45400000000018 784.2331 212.93100000000004 C 784.0613 217.4090000000001 782.2145 224.04899999999998 778.6926 232.85300000000007 L 774.5915 241.19000000000005 L 767.6244 254.1329999999998 L 762.8894 263.0479999999998 L 758.301 271.94399999999996 L 754.2312 280.6999999999998 L 752.6891 284.23799999999983 C 751.6822 286.0790000000002 750.1264 287.4659999999999 748.0217 288.40099999999984 C 744.8645 289.8029999999999 740.4135 291.7289999999998 731.959 291.2460000000001 C 727.1054 290.6640000000002 722.4574 288.346 718.015 284.29399999999987 L 720.8038 291.2350000000001 C 721.4622 293.1550000000002 721.8833 295.05200000000013 722.0671 296.92700000000013 C 726.2941 312.0459999999998 728.4075 319.605 728.4075 319.605 L 739.6112 352.68899999999985 L 746.6458 370.67700000000013 L 752.0157 384.029 L 738.4719 340.42999999999984 L 732.7973 320.31899999999996 L 728.7062 305.96500000000015 L 726.5612 297.4720000000002 L 725.825 293.9050000000002 C 730.1927 295.50199999999995 734.8705 295.90200000000004 739.8584 295.10300000000007 C 744.8463 294.3040000000001 749.1232 292.7339999999999 752.6891 290.3919999999998 L 758.046 308.96900000000005 L 764.6042 329.86299999999983 L 770.2828 347.3589999999999 L 775.0416 361.62699999999995 L 779.7317 374.9430000000002 L 783.9649 386.69000000000005 L 713.2964 386.69000000000005 Z  M 715.7233 293.59299999999985 C 714.2115 293.0799999999999 712.9718 292.63599999999997 712.0042 292.259 C 711.0366 291.8829999999998 710.7098 292.328 711.0239 293.59299999999985 L 721.9334 336.66600000000017 L 715.7233 293.59299999999985 Z " fill-rule="evenodd" fill="rgb(255,255,255)"/></clipPath><g clip-path="url(#_clipPath_rKSVrbbwQtyDUuKCgGLzpmmksAKJSEBP)"><clipPath id="_clipPath_d6HyVDVCqbsUmZTMLiobNyXnmi5LvHEL"><path d=" M 0 3037 L 1920 3037 L 1920 0 L 0 0 L 0 3037 Z " fill="rgb(255,255,255)"/></clipPath><g clip-path="url(#_clipPath_d6HyVDVCqbsUmZTMLiobNyXnmi5LvHEL)"><path d=" M 669.7548 391.69000000000005 L 789.2547000000001 391.69000000000005 L 789.2547000000001 174.8108000000002 L 669.7548 174.8108000000002 L 669.7548 391.69000000000005 Z " fill="rgb(253,90,90)"/></g></g><clipPath id="_clipPath_kRQmnZqlRFJC1QJPCW1rBDHuGsVU1kG6"><path d=" M 692.3646 238.73900000000003 L 679.1455 223.6819999999998 C 675.4031 220.8209999999999 671.889 220.8209999999999 668.6032 223.6819999999998 C 665.9315 225.67700000000013 664.7867 228.85899999999992 665.1686 233.22800000000007 C 665.5506 237.5970000000002 666.2047 240.80099999999993 667.1311 242.83899999999994 C 667.7058 244.28099999999995 668.415 244.89699999999993 669.2589 244.68600000000015 C 670.1027 244.4749999999999 670.0306 243.1619999999998 669.0428 240.74699999999984 C 668.1198 237.85800000000017 668.5882 237.35899999999992 670.448 239.24800000000005 C 672.3079 241.13799999999992 674.235 243.3040000000001 676.2295 245.74800000000005 C 679.6363 250.42599999999993 682.64 252.64100000000008 685.2404 252.39399999999978 C 689.0271 252.14100000000008 691.7253 250.44500000000016 693.3351 247.30499999999984 C 694.9449 244.16600000000017 694.6214 241.30999999999995 692.3646 238.73900000000003 Z " fill="rgb(255,255,255)"/></clipPath><g clip-path="url(#_clipPath_kRQmnZqlRFJC1QJPCW1rBDHuGsVU1kG6)"><clipPath id="_clipPath_Am1hoq7b7g2UH0v6csdvfDYRfNvAqwPe"><path d=" M 0 3037 L 1920 3037 L 1920 0 L 0 0 L 0 3037 Z " fill="rgb(255,255,255)"/></clipPath><g clip-path="url(#_clipPath_Am1hoq7b7g2UH0v6csdvfDYRfNvAqwPe)"><path d=" M 660.097 257.413 L 699.34044 257.413 L 699.34044 216.53627000000006 L 660.097 216.53627000000006 L 660.097 257.413 Z " fill="rgb(253,90,90)"/></g></g><clipPath id="_clipPath_gERBF8FpuzNjGgmOgbY8kFMfMmELH9Rl"><path d=" M 680.9273 220.5949999999998 L 696.5541 240.5010000000002 C 700.4538 244.62300000000005 704.2947 245.74800000000005 708.0766 243.8760000000002 C 712.8495 240.7539999999999 715.6505 238.10699999999997 716.4799 235.9340000000002 C 717.3092 233.76099999999997 717.3686 231.56399999999985 716.6579 229.34299999999985 C 712.389 228.35500000000002 709.2981 226.4050000000002 707.3854 223.4920000000002 C 704.5162 219.12300000000005 701.7996 216.65200000000004 702.9154 211.54599999999982 L 696.9628 203.92399999999998 C 693.8649 200.76499999999987 690.0276 200.39600000000019 685.4509 202.817 C 684.2923 203.60500000000002 683.5024 204.16699999999992 683.0812 204.50300000000016 C 681.5689 205.70699999999988 680.8911 206.44999999999982 680.8911 206.44999999999982 C 678.1919 209.2170000000001 677.1249 211.72699999999986 677.6901 213.98000000000002 C 678.2554 216.23399999999992 679.3344 218.43899999999985 680.9273 220.5949999999998 Z " fill="rgb(255,255,255)"/></clipPath><g clip-path="url(#_clipPath_gERBF8FpuzNjGgmOgbY8kFMfMmELH9Rl)"><clipPath id="_clipPath_IsjZpCSbHQ4vm31SSRGldxFKoZJ9Ldr1"><path d=" M 0 3037 L 1920 3037 L 1920 0 L 0 0 L 0 3037 Z " fill="rgb(255,255,255)"/></clipPath><g clip-path="url(#_clipPath_IsjZpCSbHQ4vm31SSRGldxFKoZJ9Ldr1)"><path d=" M 672.5433 249.75300000000016 L 722.1498200000001 249.75300000000016 L 722.1498200000001 196.2408700000001 L 672.5433 196.2408700000001 L 672.5433 249.75300000000016 Z " fill="rgb(253,90,90)"/></g></g><clipPath id="_clipPath_awKbG4OKUxP5aXZH3r0ZjLVarvTUMd2G"><path d=" M 698.7524 197.88900000000012 L 704.0935 207.13099999999986 C 705.0929 205.12699999999995 706.6698 203.471 708.8242 202.16100000000006 C 710.9786 200.85199999999986 715.5237 197.8789999999999 722.4594 193.24400000000014 L 718.5552 186.5920000000001 C 715.001 182.85199999999986 711.521 181.72299999999996 708.1151 183.20200000000023 C 704.7092 184.6819999999998 702.0359 186.4369999999999 700.0954 188.46799999999985 C 697.6961 191.14499999999998 697.1818 194.15200000000004 698.5526 197.49099999999999 L 698.7524 197.88900000000012 Z " fill="rgb(255,255,255)"/></clipPath><g clip-path="url(#_clipPath_awKbG4OKUxP5aXZH3r0ZjLVarvTUMd2G)"><clipPath id="_clipPath_6J4dIyaNepkuiaIS6bBlCR9emQEo6KSH"><path d=" M 0 3037 L 1920 3037 L 1920 0 L 0 0 L 0 3037 Z " fill="rgb(255,255,255)"/></clipPath><g clip-path="url(#_clipPath_6J4dIyaNepkuiaIS6bBlCR9emQEo6KSH)"><path d=" M 692.805 212.13099999999986 L 727.4594099999999 212.13099999999986 L 727.4594099999999 177.57319000000007 L 692.805 177.57319000000007 L 692.805 212.13099999999986 Z " fill="rgb(253,90,90)"/></g></g><clipPath id="_clipPath_uoeJUslYxPIWWhNfuugk2iYb6NFm6bMa"><path d=" M 721.6649 229.01999999999998 C 724.6755 227.5970000000002 729.047 224.82900000000018 734.7797 220.7159999999999 C 734.6232 222.20200000000023 732.8408 224.0569999999998 729.4325 226.28200000000015 C 726.0242 228.50700000000006 723.435 229.42000000000007 721.6649 229.01999999999998 Z " fill="rgb(255,255,255)"/></clipPath><g clip-path="url(#_clipPath_uoeJUslYxPIWWhNfuugk2iYb6NFm6bMa)"><clipPath id="_clipPath_AjChih1jCy9Qaqs7dz14eh2JYFrnwGJt"><path d=" M 0 3037 L 1920 3037 L 1920 0 L 0 0 L 0 3037 Z " fill="rgb(255,255,255)"/></clipPath><g clip-path="url(#_clipPath_AjChih1jCy9Qaqs7dz14eh2JYFrnwGJt)"><path d=" M 716.6649 234.11099999999988 L 739.77965 234.11099999999988 L 739.77965 215.71592999999984 L 716.6649 215.71592999999984 L 716.6649 234.11099999999988 Z " fill="rgb(253,90,90)"/></g></g><clipPath id="_clipPath_GeQFKM1qpKRjhWGbCEymiP9jk6IexFgj"><path d=" M 719.0995 181.9920000000002 L 724.5159 191.9670000000001 L 732.1935 187.58100000000013 L 743.9309 177.7249999999999 L 739.8898 170.6930000000002 C 736.2373 167.17599999999993 732.6121 166.29700000000003 729.0143 168.05499999999984 C 725.4165 169.81399999999985 723.0409 171.16100000000006 721.8875 172.096 C 719.9362 173.8800000000001 718.9067 175.82499999999982 718.799 177.93100000000004 C 718.6913 180.038 718.7915 181.39100000000008 719.0995 181.9920000000002 Z " fill="rgb(255,255,255)"/></clipPath><g clip-path="url(#_clipPath_GeQFKM1qpKRjhWGbCEymiP9jk6IexFgj)"><clipPath id="_clipPath_VCmdQJxr9b3FwrGRas9OrQ8lbKE3ErQe"><path d=" M 0 3037 L 1920 3037 L 1920 0 L 0 0 L 0 3037 Z " fill="rgb(255,255,255)"/></clipPath><g clip-path="url(#_clipPath_VCmdQJxr9b3FwrGRas9OrQ8lbKE3ErQe)"><path d=" M 713.7572 196.9670000000001 L 748.93098 196.9670000000001 L 748.93098 162.17595000000028 L 713.7572 162.17595000000028 L 713.7572 196.9670000000001 Z " fill="rgb(253,90,90)"/></g></g></g></svg>