<svg width="115px" height="23px" viewBox="0 0 115 23" version="1.1" xmlns="http://www.w3.org/2000/svg" xmlns:xlink="http://www.w3.org/1999/xlink">
    <g id="Page-1" stroke="none" stroke-width="1" fill="none" fill-rule="evenodd">
        <g id="E-book" transform="translate(-226.000000, -40.000000)">
            <g id="Group-Copy-3" transform="translate(185.000000, 40.000000)">
                <g id="Group" transform="translate(41.125927, 0.637020)">
                    <g id="Group-6" transform="translate(0.000000, 0.000000)">
                        <path d="M7.40955342,9.76594266 C6.9093279,9.58247996 6.45079472,9.49074998 6.03394012,9.49074998 C5.47118642,9.49074998 4.98660022,9.64363327 4.58016698,9.94940445 C4.17373375,10.2551756 3.89757172,10.6832488 3.75167262,11.2336369 L3.75167262,21.446343 L0.0312639385,21.446343 L0.0312639385,6.15786087 L2.87628234,6.15786087 L3.31397748,7.99247873 L3.43903323,7.99247873 C3.70998872,7.31978215 4.10078404,6.79488285 4.61143092,6.41776507 C5.1220778,6.04064729 5.71087609,5.85209123 6.37784345,5.85209123 C6.87806896,5.85209123 7.36786577,5.95401342 7.84724855,6.15786087 L7.40955342,9.76594266 Z M8.62884702,13.802102 C8.62884702,11.0909309 9.17074986,9.07287143 10.2545718,7.74786302 C11.3383938,6.4228546 12.849469,5.76036033 14.7878429,5.76036033 C16.8721159,5.76036033 18.424876,6.43304682 19.4461697,7.77843998 C20.4674635,9.12383314 20.9781027,11.1317004 20.9781027,13.802102 C20.9781027,16.5336578 20.4361999,18.5568133 19.3523779,19.8716294 C18.268556,21.1864454 16.7470595,21.8438436 14.7878429,21.8438436 C10.6818251,21.8438436 8.62884702,19.1632898 8.62884702,13.802102 Z M12.4743114,13.802102 C12.4743114,15.3309578 12.651472,16.5132553 13.0057984,17.3490298 C13.3601248,18.1848044 13.9541337,18.6026854 14.7878429,18.6026854 C15.5798666,18.6026854 16.1686649,18.2408616 16.5542554,17.5172031 C16.9398459,16.7935447 17.1326383,15.55519 17.1326383,13.802102 C17.1326383,12.2324766 16.9554777,11.0399869 16.6011513,10.2245971 C16.2468249,9.40920733 15.6423948,9.00151855 14.7878429,9.00151855 C14.0583473,9.00151855 13.4903915,9.36334235 13.0839582,10.0870008 C12.677525,10.8106592 12.4743114,12.0490139 12.4743114,13.802102 Z M32.3269124,20.620765 C31.8058441,21.0284599 31.1805716,21.3342265 30.4510761,21.5380739 C29.7215805,21.7419214 28.9920959,21.8438436 28.2626004,21.8438436 C27.1996211,21.8438436 26.3086078,21.6552875 25.5895336,21.2781697 C24.8704595,20.901052 24.2816612,20.3608643 23.8231211,19.6575906 C23.3645811,18.9543169 23.036313,18.1083627 22.838307,17.1197026 C22.6403011,16.1310425 22.5412996,15.0251866 22.5412996,13.802102 C22.5412996,11.1317004 23.0310964,9.12383314 24.0107047,7.77843998 C24.990313,6.43304682 26.4284398,5.76036033 28.3251282,5.76036033 C29.2630511,5.76036033 30.0290099,5.84189809 30.6230277,6.00497605 C31.2170455,6.16805401 31.7433166,6.3718984 32.2018566,6.61651534 L31.3264663,9.6436348 C30.9512972,9.4601721 30.5917655,9.32257714 30.2478605,9.23084579 C29.9039554,9.13911443 29.4923177,9.09324945 29.0129349,9.09324945 C28.1375402,9.09324945 27.4810041,9.46526546 27.0433068,10.2093086 C26.6056094,10.9533518 26.3867641,12.1509376 26.3867641,13.802102 C26.3867641,15.1882646 26.61082,16.319601 27.0589387,17.196145 C27.5070574,18.072689 28.2209102,18.5109545 29.2005185,18.5109545 C29.7215868,18.5109545 30.1644881,18.444705 30.5292359,18.3122042 C30.8939837,18.1797033 31.232673,18.0115317 31.5453139,17.8076843 L32.3269124,20.620765 Z M38.6422279,15.1169114 L37.7668377,15.1169114 L37.7668377,21.446343 L34.046429,21.446343 L34.046429,0.042468006 L37.7668377,0.042468006 L37.7668377,12.6707543 L38.5171722,12.2426768 L41.1120791,6.15786087 L45.1451271,6.15786087 L42.2688448,12.2120998 L40.9244954,13.2517166 L42.3939006,14.2913334 L45.5828223,21.446343 L41.3934545,21.446343 L38.6422279,15.1169114 Z M57.1817434,20.3149954 C56.6606752,20.7634597 55.952033,21.1303796 55.0557956,21.4157661 C54.1595582,21.7011525 53.2216495,21.8438436 52.2420412,21.8438436 C51.1582192,21.8438436 50.225521,21.6603836 49.4439187,21.2934582 C48.6623163,20.9265328 48.021412,20.3965374 47.5211865,19.7034561 C47.0209609,19.0103747 46.651008,18.1695166 46.4113166,17.1808565 C46.1716253,16.1921964 46.0517814,15.0659561 46.0517814,13.802102 C46.0517814,11.0501614 46.609316,9.01681361 47.7244021,7.70199757 C48.8394881,6.38718153 50.3870376,5.72978337 52.3670969,5.72978337 C53.0340643,5.72978337 53.6801792,5.82660946 54.3054611,6.02026453 C54.930743,6.21391961 55.4882777,6.54007063 55.9780818,6.99872739 C56.467886,7.45738415 56.8638919,8.06891732 57.1661115,8.83334525 C57.4683311,9.59777318 57.6194386,10.5609379 57.6194386,11.7228684 C57.6194386,12.1713328 57.5933856,12.6503671 57.5412787,13.1599857 C57.4891719,13.6696043 57.4110129,14.2199842 57.3067992,14.8111418 L49.7096622,14.8111418 C49.7513476,16.074996 50.022299,17.0432568 50.5225246,17.7159534 C51.0227501,18.38865 51.8251831,18.7249932 52.9298478,18.7249932 C53.5968152,18.7249932 54.2064559,18.623071 54.7587882,18.4192236 C55.3111206,18.2153761 55.7331795,18.0013395 56.0249777,17.7771073 L57.1817434,20.3149954 Z M52.304569,8.84863373 C51.5125453,8.84863373 50.9185364,9.15949643 50.5225246,9.78123114 C50.1265127,10.4029659 49.8972461,11.2744006 49.8347179,12.3955616 L54.1491414,12.3955616 C54.2116696,11.2336311 54.0866151,10.3520042 53.7739742,9.75065418 C53.4613332,9.14930421 52.9715364,8.84863373 52.304569,8.84863373 Z M58.7762043,6.15786087 L60.4957209,6.15786087 L60.4957209,3.28362622 L64.2161296,2.15227854 L64.2161296,6.15786087 L67.2487316,6.15786087 L67.2487316,9.39901909 L64.2161296,9.39901909 L64.2161296,16.0647973 C64.2161296,16.9413413 64.3047099,17.5630667 64.4818731,17.9299921 C64.6590363,18.2969175 64.9768831,18.4803775 65.4354232,18.4803775 C65.7480642,18.4803775 66.0294368,18.4498008 66.2795495,18.3886466 C66.5296623,18.3274924 66.8006137,18.2357624 67.0924119,18.1134539 L67.561371,21.0182655 C67.102831,21.2424977 66.5713493,21.4310538 65.9669102,21.5839394 C65.362471,21.736825 64.7267773,21.8132666 64.0598099,21.8132666 C62.8717743,21.8132666 61.980761,21.4769234 61.3867432,20.8042268 C60.7927254,20.1315302 60.4957209,19.0001938 60.4957209,17.4101837 L60.4957209,9.39901909 L58.7762043,9.39901909 L58.7762043,6.15786087 Z" id="rocket" fill="#000000"></path>
                        <path d="M74.6165998,17.5919468 C74.6165998,17.1638672 74.4759135,16.8020434 74.1945366,16.5064646 C73.9131598,16.2108858 73.5536281,15.9356958 73.1159308,15.6808865 C72.6782334,15.4260772 72.2144896,15.1661756 71.7246855,14.9011739 C71.2348813,14.6361723 70.7711376,14.3100212 70.3334402,13.9227111 C69.8957429,13.5354009 69.5362112,13.0665588 69.2548344,12.5161707 C68.9734575,11.9657826 68.8327712,11.2727117 68.8327712,10.4369372 C68.8327712,9.01000502 69.2287771,7.90924531 70.0208008,7.13462501 C70.8128246,6.36000471 71.9799999,5.97270036 73.522362,5.97270036 C74.4394421,5.97270036 75.3044024,6.06952645 76.1172688,6.26318153 C76.9301353,6.4568366 77.5762502,6.69635376 78.055633,6.98174019 L77.1802428,9.79482091 C76.7842309,9.63174295 76.3048553,9.47376354 75.7421016,9.32087796 C75.1793479,9.16799237 74.6270238,9.09155073 74.0851128,9.09155073 C73.0638191,9.09155073 72.5531799,9.50943173 72.5531799,10.3452063 C72.5531799,10.7325164 72.6938662,11.0535713 72.975243,11.3083806 C73.2566199,11.5631899 73.6161516,11.8128993 74.0538489,12.0575163 C74.4915462,12.3021332 74.95529,12.5569387 75.4450942,12.8219404 C75.9348983,13.0869421 76.3986421,13.4181892 76.8363394,13.8156917 C77.2740368,14.2131942 77.6335685,14.6973247 77.9149453,15.2680975 C78.1963222,15.8388704 78.3370085,16.5421335 78.3370085,17.3779081 C78.3370085,18.7844554 77.8993177,19.9157918 77.0239231,20.7719511 C76.1485284,21.6281104 74.8458773,22.0561836 73.1159308,22.0561836 C72.2613788,22.0561836 71.4224715,21.9542614 70.5991837,21.750414 C69.7758959,21.5465665 69.1141491,21.2815688 68.6139236,20.9554129 L69.6456336,18.0200243 C70.0833309,18.2646412 70.5887595,18.4786779 71.1619346,18.6621406 C71.7351097,18.8456033 72.3343292,18.9373332 72.9596111,18.9373332 C73.4389938,18.9373332 73.8349998,18.8303149 74.1476407,18.6162751 C74.4602817,18.4022353 74.6165998,18.0607959 74.6165998,17.5919468 Z M90.8738478,20.5273354 C90.3527796,20.9757998 89.6441374,21.3427197 88.7479,21.6281061 C87.8516626,21.9134925 86.9137538,22.0561836 85.9341455,22.0561836 C84.8503236,22.0561836 83.9176254,21.8727236 83.136023,21.5057982 C82.3544207,21.1388728 81.7135163,20.6088774 81.2132908,19.9157961 C80.7130653,19.2227148 80.3431124,18.3818567 80.103421,17.3931965 C79.8637296,16.4045364 79.7438857,15.2782962 79.7438857,14.014442 C79.7438857,11.2625014 80.3014204,9.22915364 81.4165064,7.9143376 C82.5315925,6.59952156 84.0791419,5.9421234 86.0592013,5.9421234 C86.7261686,5.9421234 87.3722836,6.03894949 87.9975655,6.23260456 C88.6228474,6.42625964 89.180382,6.75241066 89.6701862,7.21106742 C90.1599903,7.66972418 90.5559962,8.28125735 90.8582158,9.04568528 C91.1604354,9.81011321 91.3115429,10.773278 91.3115429,11.9352084 C91.3115429,12.3836728 91.2854899,12.8627071 91.2333831,13.3723257 C91.1812763,13.8819444 91.1031172,14.4323242 90.9989036,15.0234818 L83.4017665,15.0234818 C83.443452,16.287336 83.7144034,17.2555968 84.2146289,17.9282934 C84.7148544,18.60099 85.5172875,18.9373332 86.6219522,18.9373332 C87.2889195,18.9373332 87.8985602,18.835411 88.4508926,18.6315636 C89.0032249,18.4277161 89.4252839,18.2136795 89.7170821,17.9894473 L90.8738478,20.5273354 Z M85.9966734,9.06097376 C85.2046497,9.06097376 84.6106408,9.37183646 84.2146289,9.99357117 C83.818617,10.6153059 83.5893504,11.4867407 83.5268223,12.6079016 L87.8412458,12.6079016 C87.903774,11.4459712 87.7787195,10.5643442 87.4660785,9.96299421 C87.1534376,9.36164424 86.6636408,9.06097376 85.9966734,9.06097376 Z M93.7188662,7.28750983 C94.3441481,6.92058442 95.1257387,6.62501006 96.0636616,6.40077787 C97.0015844,6.17654567 98.0645477,6.06443126 99.2525833,6.06443126 C101.024215,6.06443126 102.259129,6.51288892 102.95736,7.40981769 C103.655591,8.30674646 104.004702,9.5807739 104.004702,11.2319382 C104.004702,12.1900212 103.978649,13.1328015 103.926542,14.0603074 C103.874435,14.9878133 103.837961,15.8949209 103.817118,16.7816573 C103.796276,17.6683937 103.811907,18.5245401 103.864014,19.3501223 C103.916121,20.1757044 104.056807,20.9554092 104.286077,21.68926 L101.253475,21.68926 L100.659461,19.8240652 L100.534405,19.8240652 C100.200921,20.4152228 99.7319667,20.9044493 99.1275276,21.2917595 C98.5230884,21.6790696 97.7623402,21.8727218 96.84526,21.8727218 C95.615539,21.8727218 94.6463666,21.4701291 93.9377138,20.6649317 C93.229061,19.8597343 92.8747399,18.7844551 92.8747399,17.439062 C92.8747399,15.604435 93.5416972,14.2998309 94.8756319,13.5252106 C96.2095666,12.7505903 98.0124357,12.4244392 100.284293,12.5467477 C100.388507,11.3644325 100.310348,10.5082861 100.049814,9.97828269 C99.7892796,9.44827933 99.231745,9.18328162 98.377193,9.18328162 C97.7519111,9.18328162 97.1057962,9.25462716 96.4388288,9.39732037 C95.7718615,9.54001358 95.1778526,9.74385797 94.6567844,10.0088597 L93.7188662,7.28750983 Z M98.1896094,18.7538715 C98.7523631,18.7538715 99.2108963,18.6162765 99.5652227,18.3410824 C99.9195491,18.0658884 100.180079,17.7652179 100.346821,17.439062 L100.346821,14.9011739 C99.8674384,14.8400197 99.4089052,14.8298275 98.9712079,14.870597 C98.5335105,14.9113665 98.1479258,15.0030964 97.8144421,15.1457897 C97.4809585,15.2884829 97.2152176,15.4974234 97.0172117,15.7726174 C96.8192058,16.0478115 96.7202043,16.3994431 96.7202043,16.8275227 C96.7202043,17.4594498 96.8504694,17.9384841 97.1110035,18.26464 C97.3715376,18.5907959 97.7310693,18.7538715 98.1896094,18.7538715 Z M105.380315,6.3702009 L107.099832,6.3702009 L107.099832,3.49596625 L110.820241,2.36461857 L110.820241,6.3702009 L113.852843,6.3702009 L113.852843,9.61135912 L110.820241,9.61135912 L110.820241,16.2771373 C110.820241,17.1536814 110.908821,17.7754068 111.085984,18.1423322 C111.263147,18.5092576 111.580994,18.6927175 112.039534,18.6927175 C112.352175,18.6927175 112.633548,18.6621409 112.88366,18.6009866 C113.133773,18.5398324 113.404725,18.4481024 113.696523,18.325794 L114.165482,21.2306056 C113.706942,21.4548378 113.17546,21.6433938 112.571021,21.7962794 C111.966582,21.949165 111.330888,22.0256066 110.663921,22.0256066 C109.475885,22.0256066 108.584872,21.6892634 107.990854,21.0165668 C107.396836,20.3438702 107.099832,19.2125339 107.099832,17.6225238 L107.099832,9.61135912 L105.380315,9.61135912 L105.380315,6.3702009 Z" id="seat" fill="#FE5B5B"></path>
                    </g>
                </g>
            </g>
        </g>
    </g>
</svg>
