<svg width="200px" height="34px" viewBox="0 0 200 34" version="1.1" xmlns="http://www.w3.org/2000/svg" xmlns:xlink="http://www.w3.org/1999/xlink">
    <g id="Page-1" stroke="none" stroke-width="1" fill="none" fill-rule="evenodd">
        <g id="Landing-Page" transform="translate(-1054.000000, -40.000000)">
            <g id="Group-12" transform="translate(1054.000000, 40.000000)">
                <g id="Group-13" transform="translate(75.000000, 0.000000)" fill="#232323">
                    <path d="M2.952,8 L7.236,8 L7.236,26.756 C7.236,28.9400109 6.85800378,30.6079942 6.102,31.76 C5.34599622,32.9120058 4.14000828,33.488 2.484,33.488 C1.81199664,33.488 1.12800348,33.4040008 0.432,33.236 L0.432,29.42 C1.46400516,29.5160005 2.14199838,29.2220034 2.466,28.538 C2.79000162,27.8539966 2.952,26.8400067 2.952,25.496 L2.952,8 Z M2.448,2.924 C2.448,2.2039964 2.67599772,1.61000234 3.132,1.142 C3.58800228,0.67399766 4.2359958,0.44 5.076,0.44 C5.9160042,0.44 6.58799748,0.66799772 7.092,1.124 C7.59600252,1.58000228 7.848,2.17999628 7.848,2.924 C7.848,3.66800372 7.59600252,4.25599784 7.092,4.688 C6.58799748,5.12000216 5.9160042,5.336 5.076,5.336 C4.2359958,5.336 3.58800228,5.11400222 3.132,4.67 C2.67599772,4.22599778 2.448,3.6440036 2.448,2.924 Z M14.796,8 L14.796,18.764 C14.796,20.1800071 14.9279987,21.1639972 15.192,21.716 C15.4560013,22.2680028 15.9359965,22.544 16.632,22.544 C17.3040034,22.544 17.8679977,22.2980025 18.324,21.806 C18.7800023,21.3139975 19.103999,20.7200035 19.296,20.024 L19.296,8 L23.58,8 L23.58,20.528 C23.58,21.5120049 23.6159996,22.4779953 23.688,23.426 C23.7600004,24.3740047 23.891999,25.2319962 24.084,26 L20.844,26 L20.088,23.552 L19.98,23.552 C19.5239977,24.3920042 18.9060039,25.0879972 18.126,25.64 C17.3459961,26.1920028 16.3800058,26.468 15.228,26.468 C14.4839963,26.468 13.8240029,26.366001 13.248,26.162 C12.6719971,25.957999 12.180002,25.6040025 11.772,25.1 C11.363998,24.5959975 11.0520011,23.9060044 10.836,23.03 C10.6199989,22.1539956 10.512,21.0440067 10.512,19.7 L10.512,8 L14.796,8 Z M35.028,26 L35.028,15.524 C35.028,14.0119924 34.9080012,12.9620029 34.668,12.374 C34.4279988,11.7859971 33.9600035,11.492 33.264,11.492 C32.6879971,11.492 32.2140019,11.6779981 31.842,12.05 C31.4699981,12.4220019 31.188001,12.8719974 30.996,13.4 L30.996,26 L26.712,26 L26.712,8 L30.024,8 L30.564,10.16 L30.672,10.16 C31.1280023,9.41599628 31.6979966,8.79800246 32.382,8.306 C33.0660034,7.81399754 33.9719944,7.568 35.1,7.568 C36.0360047,7.568 36.7979971,7.77199796 37.386,8.18 C37.9740029,8.58800204 38.4359983,9.30799484 38.772,10.34 C39.2280023,9.47599568 39.8279963,8.79800246 40.572,8.306 C41.3160037,7.81399754 42.191995,7.568 43.2,7.568 C43.992004,7.568 44.6699972,7.66999898 45.234,7.874 C45.7980028,8.07800102 46.2539983,8.43199748 46.602,8.936 C46.9500017,9.44000252 47.2079992,10.1299956 47.376,11.006 C47.5440008,11.8820044 47.628,12.9919933 47.628,14.336 L47.628,26 L43.344,26 L43.344,15.056 C43.344,13.8319939 43.2360011,12.9320029 43.02,12.356 C42.8039989,11.7799971 42.3240037,11.492 41.58,11.492 C40.979997,11.492 40.4940019,11.6659983 40.122,12.014 C39.7499981,12.3620017 39.4800008,12.835997 39.312,13.436 L39.312,26 L35.028,26 Z M50.58,8 L53.784,8 L54.216,10.052 L54.324,10.052 C54.8760028,9.18799568 55.4939966,8.55800198 56.178,8.162 C56.8620034,7.76599802 57.707995,7.568 58.716,7.568 C60.5400091,7.568 61.9139954,8.2579931 62.838,9.638 C63.7620046,11.0180069 64.224,13.3159839 64.224,16.532 C64.224,19.7480161 63.6480058,22.2139914 62.496,23.93 C61.3439942,25.6460086 59.6760109,26.504 57.492,26.504 C56.9159971,26.504 56.424002,26.4560005 56.016,26.36 C55.607998,26.2639995 55.2240018,26.1080011 54.864,25.892 L54.864,33.2 L50.58,33.2 L50.58,8 Z M54.864,21.968 C55.1040012,22.2080012 55.3739985,22.3879994 55.674,22.508 C55.9740015,22.6280006 56.3639976,22.688 56.844,22.688 C57.8040048,22.688 58.5359975,22.2140047 59.04,21.266 C59.5440025,20.3179953 59.796,18.7040114 59.796,16.424 C59.796,14.7199915 59.6040019,13.4540041 59.22,12.626 C58.8359981,11.7979959 58.2000044,11.384 57.312,11.384 C56.111994,11.384 55.2960022,12.0919929 54.864,13.508 L54.864,21.968 Z M72.72,21.212 C72.72,20.7079975 72.5580016,20.2820017 72.234,19.934 C71.9099984,19.5859983 71.4960025,19.2620015 70.992,18.962 C70.4879975,18.6619985 69.9540028,18.3560016 69.39,18.044 C68.8259972,17.7319984 68.2920025,17.3480023 67.788,16.892 C67.2839975,16.4359977 66.8700016,15.8840032 66.546,15.236 C66.2219984,14.5879968 66.06,13.7720049 66.06,12.788 C66.06,11.1079916 66.5159954,9.81200456 67.428,8.9 C68.3400046,7.98799544 69.6839911,7.532 71.46,7.532 C72.5160053,7.532 73.5119953,7.64599886 74.448,7.874 C75.3840047,8.10200114 76.1279972,8.38399832 76.68,8.72 L75.672,12.032 C75.2159977,11.839999 74.6640032,11.6540009 74.016,11.474 C73.3679968,11.2939991 72.7320031,11.204 72.108,11.204 C70.9319941,11.204 70.344,11.6959951 70.344,12.68 C70.344,13.1360023 70.5059984,13.5139985 70.83,13.814 C71.1540016,14.1140015 71.5679975,14.4079986 72.072,14.696 C72.5760025,14.9840014 73.1099972,15.2839984 73.674,15.596 C74.2380028,15.9080016 74.7719975,16.2979977 75.276,16.766 C75.7800025,17.2340023 76.1939984,17.8039966 76.518,18.476 C76.8420016,19.1480034 77.004,19.9759951 77.004,20.96 C77.004,22.6160083 76.500005,23.947995 75.492,24.956 C74.483995,25.964005 72.98401,26.468 70.992,26.468 C70.0079951,26.468 69.0420047,26.3480012 68.094,26.108 C67.1459953,25.8679988 66.3840029,25.5560019 65.808,25.172 L66.996,21.716 C67.5000025,22.0040014 68.0819967,22.2559989 68.742,22.472 C69.4020033,22.6880011 70.0919964,22.796 70.812,22.796 C71.3640028,22.796 71.8199982,22.6700013 72.18,22.418 C72.5400018,22.1659987 72.72,21.7640028 72.72,21.212 Z M77.868,8 L79.848,8 L79.848,4.616 L84.132,3.284 L84.132,8 L87.624,8 L87.624,11.816 L84.132,11.816 L84.132,19.664 C84.132,20.6960052 84.233999,21.4279978 84.438,21.86 C84.642001,22.2920022 85.0079974,22.508 85.536,22.508 C85.8960018,22.508 86.2199986,22.4720004 86.508,22.4 C86.7960014,22.3279996 87.1079983,22.2200007 87.444,22.076 L87.984,25.496 C87.4559974,25.7600013 86.8440035,25.9819991 86.148,26.162 C85.4519965,26.3420009 84.7200038,26.432 83.952,26.432 C82.5839932,26.432 81.5580034,26.036004 80.874,25.244 C80.1899966,24.451996 79.848,23.1200094 79.848,21.248 L79.848,11.816 L77.868,11.816 L77.868,8 Z M89.784,9.08 C90.5040036,8.64799784 91.4039946,8.30000132 92.484,8.036 C93.5640054,7.77199868 94.7879932,7.64 96.156,7.64 C98.1960102,7.64 99.617996,8.16799472 100.422,9.224 C101.226004,10.2800053 101.628,11.7799903 101.628,13.724 C101.628,14.8520056 101.598,15.9619945 101.538,17.054 C101.478,18.1460055 101.436,19.2139948 101.412,20.258 C101.388,21.3020052 101.406,22.3099951 101.466,23.282 C101.526,24.2540049 101.687999,25.1719957 101.952,26.036 L98.46,26.036 L97.776,23.84 L97.632,23.84 C97.2479981,24.5360035 96.7080035,25.1119977 96.012,25.568 C95.3159965,26.0240023 94.4400053,26.252 93.384,26.252 C91.9679929,26.252 90.8520041,25.7780047 90.036,24.83 C89.2199959,23.8819953 88.812,22.6160079 88.812,21.032 C88.812,18.8719892 89.5799923,17.3360046 91.116,16.424 C92.6520077,15.5119954 94.7279869,15.1279993 97.344,15.272 C97.4640006,13.879993 97.3740015,12.8720031 97.074,12.248 C96.7739985,11.6239969 96.1320049,11.312 95.148,11.312 C94.4279964,11.312 93.6840038,11.3959992 92.916,11.564 C92.1479962,11.7320008 91.464003,11.9719984 90.864,12.284 L89.784,9.08 Z M94.932,22.58 C95.5800032,22.58 96.107998,22.4180016 96.516,22.094 C96.924002,21.7699984 97.223999,21.4160019 97.416,21.032 L97.416,18.044 C96.8639972,17.9719996 96.3360025,17.9599998 95.832,18.008 C95.3279975,18.0560002 94.8840019,18.1639992 94.5,18.332 C94.1159981,18.5000008 93.8100011,18.7459984 93.582,19.07 C93.3539989,19.3940016 93.24,19.8079975 93.24,20.312 C93.24,21.0560037 93.3899985,21.6199981 93.69,22.004 C93.9900015,22.3880019 94.4039974,22.58 94.932,22.58 Z M113.112,12.248 C112.535997,12.0319989 112.008002,11.924 111.528,11.924 C110.879997,11.924 110.322002,12.1039982 109.854,12.464 C109.385998,12.8240018 109.068001,13.3279968 108.9,13.976 L108.9,26 L104.616,26 L104.616,8 L107.892,8 L108.396,10.16 L108.54,10.16 C108.852002,9.36799604 109.301997,8.75000222 109.89,8.306 C110.478003,7.86199778 111.155996,7.64 111.924,7.64 C112.500003,7.64 113.063997,7.7599988 113.616,8 L113.112,12.248 Z M114.66,8 L116.64,8 L116.64,4.616 L120.924,3.284 L120.924,8 L124.416,8 L124.416,11.816 L120.924,11.816 L120.924,19.664 C120.924,20.6960052 121.025999,21.4279978 121.23,21.86 C121.434001,22.2920022 121.799997,22.508 122.328,22.508 C122.688002,22.508 123.011999,22.4720004 123.3,22.4 C123.588001,22.3279996 123.899998,22.2200007 124.236,22.076 L124.776,25.496 C124.247997,25.7600013 123.636003,25.9819991 122.94,26.162 C122.243997,26.3420009 121.512004,26.432 120.744,26.432 C119.375993,26.432 118.350003,26.036004 117.666,25.244 C116.981997,24.451996 116.64,23.1200094 116.64,21.248 L116.64,11.816 L114.66,11.816 L114.66,8 Z" id="jumpstart"></path>
                </g>
                <path d="M6.52,13 L8.3,18.84 L8.66,20.76 L8.7,20.76 L9,18.8 L10.36,13 L11.72,13 L9.06,23.22 L8.24,23.22 L6.22,16.66 L5.94,14.98 L5.9,14.98 L5.62,16.68 L3.66,23.22 L2.84,23.22 L0.1,13 L1.64,13 L3.18,18.82 L3.42,20.76 L3.46,20.76 L3.82,18.78 L5.46,13 L6.52,13 Z M12.36,18 C12.36,16.199991 12.6699969,14.8766709 13.29,14.03 C13.9100031,13.1833291 14.7933276,12.76 15.94,12.76 C17.1666728,12.76 18.0699971,13.193329 18.65,14.06 C19.2300029,14.926671 19.52,16.2399912 19.52,18 C19.52,19.8133424 19.2066698,21.1399958 18.58,21.98 C17.9533302,22.8200042 17.073339,23.24 15.94,23.24 C14.7133272,23.24 13.8100029,22.806671 13.23,21.94 C12.6499971,21.073329 12.36,19.7600088 12.36,18 Z M13.86,18 C13.86,18.5866696 13.8966663,19.1199976 13.97,19.6 C14.0433337,20.0800024 14.1633325,20.4933316 14.33,20.84 C14.4966675,21.1866684 14.713332,21.4566657 14.98,21.65 C15.246668,21.8433343 15.5666648,21.94 15.94,21.94 C16.6333368,21.94 17.1533316,21.6300031 17.5,21.01 C17.8466684,20.3899969 18.02,19.3866736 18.02,18 C18.02,17.4266638 17.9833337,16.8966691 17.91,16.41 C17.8366663,15.9233309 17.7166675,15.5066684 17.55,15.16 C17.3833325,14.8133316 17.166668,14.5433343 16.9,14.35 C16.633332,14.1566657 16.3133352,14.06 15.94,14.06 C15.2599966,14.06 14.7433351,14.3733302 14.39,15 C14.0366649,15.6266698 13.86,16.6266598 13.86,18 Z M21.44,13 L22.46,13 L22.72,14.06 L22.78,14.06 C22.9666676,13.6733314 23.2099985,13.3700011 23.51,13.15 C23.8100015,12.9299989 24.1733312,12.82 24.6,12.82 C24.9066682,12.82 25.2533314,12.8799994 25.64,13 L25.36,14.46 C25.0133316,14.3399994 24.706668,14.28 24.44,14.28 C24.0133312,14.28 23.666668,14.4033321 23.4,14.65 C23.133332,14.8966679 22.9600004,15.2266646 22.88,15.64 L22.88,23 L21.44,23 L21.44,13 Z M29.1,18.5 L28.36,18.5 L28.36,23 L26.92,23 L26.92,9 L28.36,9 L28.36,17.52 L29.02,17.24 L31.36,13 L33.02,13 L30.66,17.04 L29.96,17.68 L30.78,18.46 L33.36,23 L31.62,23 L29.1,18.5 Z M34.52,21.36 C34.786668,21.5200008 35.1033315,21.6566661 35.47,21.77 C35.8366685,21.8833339 36.2133314,21.94 36.6,21.94 C37.0400022,21.94 37.4133318,21.8300011 37.72,21.61 C38.0266682,21.3899989 38.18,21.0333358 38.18,20.54 C38.18,20.1266646 38.0866676,19.786668 37.9,19.52 C37.7133324,19.253332 37.4766681,19.0133344 37.19,18.8 C36.9033319,18.5866656 36.593335,18.3900009 36.26,18.21 C35.926665,18.0299991 35.6166681,17.8133346 35.33,17.56 C35.0433319,17.3066654 34.8066676,17.0066684 34.62,16.66 C34.4333324,16.3133316 34.34,15.873336 34.34,15.34 C34.34,14.4866624 34.5699977,13.8433355 35.03,13.41 C35.4900023,12.9766645 36.1399958,12.76 36.98,12.76 C37.5266694,12.76 37.999998,12.8099995 38.4,12.91 C38.800002,13.0100005 39.1466652,13.1466658 39.44,13.32 L39.06,14.52 C38.8066654,14.386666 38.513335,14.2766671 38.18,14.19 C37.846665,14.1033329 37.5066684,14.06 37.16,14.06 C36.6799976,14.06 36.3300011,14.159999 36.11,14.36 C35.8899989,14.560001 35.78,14.8733312 35.78,15.3 C35.78,15.633335 35.8733324,15.9166655 36.06,16.15 C36.2466676,16.3833345 36.4833319,16.5966657 36.77,16.79 C37.0566681,16.9833343 37.366665,17.179999 37.7,17.38 C38.033335,17.580001 38.3433319,17.8166653 38.63,18.09 C38.9166681,18.3633347 39.1533324,18.6899981 39.34,19.07 C39.5266676,19.4500019 39.62,19.9266638 39.62,20.5 C39.62,20.8733352 39.5600006,21.226665 39.44,21.56 C39.3199994,21.893335 39.1366679,22.1833321 38.89,22.43 C38.6433321,22.6766679 38.3366685,22.8733326 37.97,23.02 C37.6033315,23.1666674 37.1733358,23.24 36.68,23.24 C36.0933304,23.24 35.5866688,23.1833339 35.16,23.07 C34.7333312,22.9566661 34.3733348,22.8066676 34.08,22.62 L34.52,21.36 Z M46.56,23 L46.56,16.92 C46.56,15.986662 46.4500011,15.2766691 46.23,14.79 C46.0099989,14.3033309 45.5733366,14.06 44.92,14.06 C44.453331,14.06 44.0300019,14.226665 43.65,14.56 C43.2699981,14.893335 43.013334,15.3133308 42.88,15.82 L42.88,23 L41.44,23 L41.44,9 L42.88,9 L42.88,13.94 L42.94,13.94 C43.206668,13.5933316 43.5366647,13.3100011 43.93,13.09 C44.3233353,12.8699989 44.8133304,12.76 45.4,12.76 C45.8400022,12.76 46.2233317,12.8199994 46.55,12.94 C46.8766683,13.0600006 47.1466656,13.2666652 47.36,13.56 C47.5733344,13.8533348 47.7333328,14.2433309 47.84,14.73 C47.9466672,15.2166691 48,15.8199964 48,16.54 L48,23 L46.56,23 Z M49.8,18 C49.8,16.199991 50.1099969,14.8766709 50.73,14.03 C51.3500031,13.1833291 52.2333276,12.76 53.38,12.76 C54.6066728,12.76 55.5099971,13.193329 56.09,14.06 C56.6700029,14.926671 56.96,16.2399912 56.96,18 C56.96,19.8133424 56.6466698,21.1399958 56.02,21.98 C55.3933302,22.8200042 54.513339,23.24 53.38,23.24 C52.1533272,23.24 51.2500029,22.806671 50.67,21.94 C50.0899971,21.073329 49.8,19.7600088 49.8,18 Z M51.3,18 C51.3,18.5866696 51.3366663,19.1199976 51.41,19.6 C51.4833337,20.0800024 51.6033325,20.4933316 51.77,20.84 C51.9366675,21.1866684 52.153332,21.4566657 52.42,21.65 C52.686668,21.8433343 53.0066648,21.94 53.38,21.94 C54.0733368,21.94 54.5933316,21.6300031 54.94,21.01 C55.2866684,20.3899969 55.46,19.3866736 55.46,18 C55.46,17.4266638 55.4233337,16.8966691 55.35,16.41 C55.2766663,15.9233309 55.1566675,15.5066684 54.99,15.16 C54.8233325,14.8133316 54.606668,14.5433343 54.34,14.35 C54.073332,14.1566657 53.7533352,14.06 53.38,14.06 C52.6999966,14.06 52.1833351,14.3733302 51.83,15 C51.4766649,15.6266698 51.3,16.6266598 51.3,18 Z M58.88,13 L59.9,13 L60.12,14.08 L60.2,14.08 C60.6933358,13.1999956 61.4666614,12.76 62.52,12.76 C63.5733386,12.76 64.3633307,13.1533294 64.89,13.94 C65.4166693,14.7266706 65.68,16.0133244 65.68,17.8 C65.68,18.6400042 65.5933342,19.3966633 65.42,20.07 C65.2466658,20.7433367 65.0000016,21.3166643 64.68,21.79 C64.3599984,22.2633357 63.9700023,22.6233321 63.51,22.87 C63.0499977,23.1166679 62.5400028,23.24 61.98,23.24 C61.5933314,23.24 61.2866678,23.2166669 61.06,23.17 C60.8333322,23.1233331 60.586668,23.0266674 60.32,22.88 L60.32,27 L58.88,27 L58.88,13 Z M60.32,21.42 C60.5066676,21.5800008 60.7166655,21.7066662 60.95,21.8 C61.1833345,21.8933338 61.4933314,21.94 61.88,21.94 C62.5866702,21.94 63.1466646,21.5800036 63.56,20.86 C63.9733354,20.1399964 64.18,19.11334 64.18,17.78 C64.18,17.2199972 64.1433337,16.7133356 64.07,16.26 C63.9966663,15.8066644 63.8800008,15.4166683 63.72,15.09 C63.5599992,14.7633317 63.3566679,14.5100009 63.11,14.33 C62.8633321,14.1499991 62.5600018,14.06 62.2,14.06 C61.2266618,14.06 60.6000014,14.6533274 60.32,15.84 L60.32,21.42 Z" id="workshop" fill="#999999"></path>
            </g>
        </g>
    </g>
</svg>
