
<svg width="81px" height="80px" viewBox="0 0 81 80" version="1.1" xmlns="http://www.w3.org/2000/svg" xmlns:xlink="http://www.w3.org/1999/xlink">
    <!-- Generator: Sketch 45.2 (43514) - http://www.bohemiancoding.com/sketch -->
    <desc>Created with Sketch.</desc>
    <defs></defs>
    <g id="Vendas" stroke="none" stroke-width="1" fill="none" fill-rule="evenodd">
        <g id="Venda-Copy" transform="translate(-507.000000, -2935.000000)" fill-rule="nonzero" fill="#F35045">
            <g id="Group-18" transform="translate(426.000000, 2935.000000)">
                <g id="laravel-logo-brand-development-tools-3d733e9e917ebcb6" transform="translate(81.000000, 0.000000)">
                    <path d="M50.7658008,65 C51.3986133,65.9028125 51.7852617,65.8334375 52.2772734,65.625 C52.7692852,65.4165625 78.0821016,56.9790625 78.8553984,56.7015625 C79.6286953,56.42375 79.3828477,56.180625 79.137,55.7984375 C78.8908359,55.4165625 70.4532305,44.0971875 70.0311445,43.4375 C69.609375,42.7778125 69.398332,42.9165625 68.7303984,43.125 L41.8975664,50.0209375 C41.8975664,50.0209375 50.1329883,64.096875 50.7658008,65 Z M81,53.4734375 L81,40.2240625 C77.981168,41.0184375 74.1627773,42.0228125 72.655418,42.41875 C74.9294297,45.42375 78.4845703,50.1265625 81,53.4734375 Z M72.6294727,26.1003125 C72.2159297,26.193125 63.0591328,27.8275 62.4949805,27.9015625 C61.9311445,27.9759375 62.1190898,28.2915625 62.3446875,28.6071875 L70.4026055,39.526875 C70.4026055,39.526875 80.2551797,37.1128125 80.8569844,36.9828125 C80.9057109,36.9721875 80.9534883,36.9609375 81,36.949375 L81,35.5034375 C79.2091406,33.260625 74.3301563,27.1540625 73.9083867,26.5834375 C73.4008711,25.89625 73.043332,26.0078125 72.6294727,26.1003125 L72.6294727,26.1003125 Z" id="Shape"></path>
                    <path d="M15.015375,8.948125 C16.998293,8.8590625 17.1792773,9.3046875 18.0503437,10.580625 L39.9361641,46.71875 L67.4552812,40.2078125 C65.9305195,38.073125 59.0088164,28.3809375 58.3396172,27.4559375 C57.5878359,26.4159375 58.3586016,25.933125 59.5808789,25.7290625 C60.8028398,25.5246875 71.332207,23.7790625 72.2345977,23.6490625 C73.1373047,23.5190625 73.8520664,23.2034375 75.318293,24.9490625 C76.0688086,25.8421875 78.6127148,28.9709375 81,31.90375 L81,15 C81,10.868125 79.5144727,7.335 76.5440508,4.4009375 C73.5733125,1.4671875 69.9960234,0 65.8125,0 L15.1875,0 C11.0039766,0 7.4266875,1.4671875 4.45594922,4.4009375 C2.75210156,6.084375 1.53931641,7.9646875 0.813164062,10.041875 C5.77378125,9.639375 13.6279336,9.010625 15.0156914,8.948125 L15.015375,8.948125 Z" id="Shape"></path>
                    <path d="M53.2476914,69.86375 C50.927168,70.558125 49.8865078,70.9028125 48.3750352,68.819375 C47.2429336,67.2590625 41.1207891,56.3684375 38.119043,50.9996875 C32.4379687,52.4690625 22.0411758,55.1490625 19.0429102,55.860625 C16.1167852,56.555 14.8669805,54.8221875 14.3863594,53.754375 C14.0493867,53.005 5.47034766,34.736875 0,23.015625 L0,65 C0,69.1321875 1.48552734,72.6646875 4.45594922,75.5990625 C7.4266875,78.5328125 11.0039766,80 15.1875,80 L65.8125,80 C69.9960234,80 73.5733125,78.5328125 76.5440508,75.5990625 C79.5144727,72.6646875 81,69.1321875 81,65 L81,60.0684375 C74.7857812,62.3134375 54.8110547,69.3959375 53.2476914,69.86375 Z" id="Shape"></path>
                    <path d="M19.1147344,51.6525 C19.9373906,51.4665625 35.3504883,47.8234375 35.6795508,47.75375 C36.0086133,47.6840625 36.2199727,47.4984375 35.8674961,46.8953125 C35.5150195,46.2921875 15.3219727,11.8671875 15.3219727,11.8671875 C15.1356094,11.55125 15.1887656,11.4459375 14.6821992,11.4721875 C14.2306875,11.4959375 2.80494141,12.5028125 0.159785156,12.7209375 C0.0817034908,13.273349 0.0330155014,13.8294255 0.013921875,14.386875 C2.69926172,19.8165625 18.112043,51.2109375 18.1984219,51.4665625 C18.2923945,51.7453125 18.2923945,51.838125 19.1147344,51.6525 Z" id="Shape"></path>
                </g>
            </g>
        </g>
    </g>
</svg>
