
<svg width="118px" height="60px" viewBox="0 0 118 60" version="1.1" xmlns="http://www.w3.org/2000/svg" xmlns:xlink="http://www.w3.org/1999/xlink">
    <!-- Generator: Sketch 45.2 (43514) - http://www.bohemiancoding.com/sketch -->
    <desc>Created with Sketch.</desc>
    <defs></defs>
    <g id="Vendas" stroke="none" stroke-width="1" fill="none" fill-rule="evenodd">
        <g id="Venda-Copy" transform="translate(-762.000000, -2945.000000)">
            <g id="Group-18-Copy-3" transform="translate(700.000000, 2945.000000)">
                <g id="Group-19" transform="translate(62.000000, 0.000000)">
                    <g id="laravel-logo-brand-development-tools-3d733e9e917ebcb6" fill-rule="nonzero" fill="#F35045">
                        <path d="M38.0743506,48.75 C38.54896,49.4271094 38.8389463,49.3750781 39.2079551,49.21875 C39.5769639,49.0624219 58.5615762,42.7342969 59.1415488,42.5261719 C59.7215215,42.3178125 59.5371357,42.1354688 59.35275,41.8488281 C59.168127,41.5624219 52.8399229,33.0728906 52.5233584,32.578125 C52.2070312,32.0833594 52.048749,32.1874219 51.5477988,32.34375 L31.4231748,37.5157031 C31.4231748,37.5157031 37.5997412,48.0726563 38.0743506,48.75 Z M60.75,40.1050781 L60.75,30.1680469 C58.485876,30.7638281 55.622083,31.5171094 54.4915635,31.8140625 C56.1970723,34.0678125 58.8634277,37.5949219 60.75,40.1050781 Z M54.4721045,19.5752344 C54.1619473,19.6448438 47.2943496,20.870625 46.8712354,20.9261719 C46.4483584,20.9819531 46.5893174,21.2186719 46.7585156,21.4553906 L52.8019541,29.6451563 C52.8019541,29.6451563 60.1913848,27.8346094 60.6427383,27.7371094 C60.6792832,27.7291406 60.7151162,27.7207031 60.75,27.7120313 L60.75,26.6275781 C59.4068555,24.9454688 55.7476172,20.3655469 55.43129,19.9375781 C55.0506533,19.4221875 54.782499,19.5058594 54.4721045,19.5752344 L54.4721045,19.5752344 Z" id="Shape"></path>
                        <path d="M11.2615313,6.71109375 C12.7487197,6.64429688 12.884458,6.97851562 13.5377578,7.93546875 L29.952123,35.0390625 L50.5914609,30.1558594 C49.4478896,28.5548437 44.2566123,21.2857031 43.7547129,20.5919531 C43.190877,19.8119531 43.7689512,19.4498437 44.6856592,19.2967969 C45.6021299,19.1435156 53.4991553,17.8342969 54.1759482,17.7367969 C54.8529785,17.6392969 55.3890498,17.4025781 56.4887197,18.7117969 C57.0516064,19.3816406 58.9595361,21.7282031 60.75,23.9278125 L60.75,11.25 C60.75,8.15109375 59.6358545,5.50125 57.4080381,3.30070312 C55.1799844,1.10039063 52.4970176,0 49.359375,0 L11.390625,0 C8.25298242,0 5.57001562,1.10039063 3.34196191,3.30070313 C2.06407617,4.56328125 1.1544873,5.97351562 0.609873047,7.53140625 C4.33033594,7.22953125 10.2209502,6.75796875 11.2617686,6.71109375 L11.2615313,6.71109375 Z" id="Shape"></path>
                        <path d="M39.9357686,52.3978125 C38.195376,52.9185937 37.4148809,53.1771094 36.2812764,51.6145312 C35.4322002,50.4442969 30.8405918,42.2763281 28.5892822,38.2497656 C24.3284766,39.3517969 16.5308818,41.3617969 14.2821826,41.8954687 C12.0875889,42.41625 11.1502354,41.1166406 10.7897695,40.3157812 C10.53704,39.75375 4.10276074,26.0526562 0,17.2617188 L0,48.75 C0,51.8491406 1.11414551,54.4985156 3.34196191,56.6992969 C5.57001562,58.8996094 8.25298242,60 11.390625,60 L49.359375,60 C52.4970176,60 55.1799844,58.8996094 57.4080381,56.6992969 C59.6358545,54.4985156 60.75,51.8491406 60.75,48.75 L60.75,45.0513281 C56.0893359,46.7350781 41.108291,52.0469531 39.9357686,52.3978125 Z" id="Shape"></path>
                        <path d="M14.3360508,38.739375 C14.953043,38.5999219 26.5128662,35.8675781 26.7596631,35.8153125 C27.00646,35.7630469 27.1649795,35.6238281 26.9006221,35.1714844 C26.6362646,34.7191406 11.4914795,8.90039062 11.4914795,8.90039062 C11.351707,8.6634375 11.3915742,8.58445312 11.0116494,8.60414062 C10.6730156,8.62195312 2.10370605,9.37710937 0.119838867,9.54070313 C0.0612776181,9.95501173 0.0247616261,10.3720691 0.0104414062,10.7901563 C2.02444629,14.8624219 13.5840322,38.4082031 13.6488164,38.5999219 C13.7192959,38.8089844 13.7192959,38.8785938 14.3360508,38.739375 Z" id="Shape"></path>
                    </g>
                    <polygon id="+" fill="#333333" points="68.25 28.8271277 71.9640957 28.8271277 71.9640957 24.75 75.0359043 24.75 75.0359043 28.8271277 78.75 28.8271277 78.75 31.787234 75.0359043 31.787234 75.0359043 35.8922872 71.9640957 35.8922872 71.9640957 31.787234 68.25 31.787234"></polygon>
                    <path d="M95.19,33.984 L90.735,33.984 L89.628,38.25 L86.253,38.25 L91.734,19.215 L94.407,19.215 L99.915,38.25 L96.351,38.25 L95.19,33.984 Z M91.464,31.176 L94.596,31.176 L93.516,26.775 L93.084,23.805 L92.976,23.805 L92.517,26.802 L91.464,31.176 Z M101.076,19.539 C101.724003,19.3949993 102.434996,19.2825004 103.209,19.2015 C103.983004,19.1204996 104.756996,19.08 105.531,19.08 C106.359004,19.08 107.173496,19.1564992 107.9745,19.3095 C108.775504,19.4625008 109.490997,19.7639978 110.121,20.214 C110.751003,20.6640022 111.263998,21.2984959 111.66,22.1175 C112.056002,22.9365041 112.254,24.0029934 112.254,25.317 C112.254,26.5050059 112.087502,27.5129959 111.7545,28.341 C111.421498,29.1690041 110.976003,29.8439974 110.418,30.366 C109.859997,30.8880026 109.216504,31.2659988 108.4875,31.5 C107.758496,31.7340012 107.007004,31.851 106.233,31.851 L105.882,31.851 C105.719999,31.851 105.549001,31.8465 105.369,31.8375 C105.188999,31.8285 105.013501,31.8150001 104.8425,31.797 C104.671499,31.7789999 104.55,31.7610001 104.478,31.743 L104.478,38.25 L101.076,38.25 L101.076,19.539 Z M104.478,28.692 C104.586001,28.7280002 104.788499,28.7594999 105.0855,28.7865 C105.382501,28.8135001 105.584999,28.827 105.693,28.827 C106.089002,28.827 106.466998,28.7730005 106.827,28.665 C107.187002,28.5569995 107.506499,28.3725013 107.7855,28.1115 C108.064501,27.8504987 108.284999,27.4905023 108.447,27.0315 C108.609001,26.5724977 108.69,25.9920035 108.69,25.29 C108.69,24.695997 108.613501,24.1920021 108.4605,23.778 C108.307499,23.3639979 108.100501,23.0355012 107.8395,22.7925 C107.578499,22.5494988 107.277002,22.3740005 106.935,22.266 C106.592998,22.1579995 106.233002,22.104 105.855,22.104 C105.296997,22.104 104.838002,22.1489995 104.478,22.239 L104.478,28.692 Z M114.252,19.35 L117.654,19.35 L117.654,38.25 L114.252,38.25 L114.252,19.35 Z" id="API" fill="#333333"></path>
                </g>
            </g>
        </g>
    </g>
</svg>
