
<svg width="179px" height="34px" viewBox="0 0 179 34" version="1.1" xmlns="http://www.w3.org/2000/svg" xmlns:xlink="http://www.w3.org/1999/xlink">
    <!-- Generator: Sketch 45.2 (43514) - http://www.bohemiancoding.com/sketch -->
    <desc>Created with Sketch.</desc>
    <defs></defs>
    <g id="Vendas" stroke="none" stroke-width="1" fill="none" fill-rule="evenodd">
        <g id="Venda-Copy" transform="translate(-1316.000000, -40.000000)">
            <g id="Group-4" transform="translate(426.000000, 40.000000)">
                <g id="Group-12" transform="translate(889.000000, 0.000000)">
                    <g id="Group-13" transform="translate(55.000000, 0.000000)" fill="#FFFFFF">
                        <path d="M2.952,8 L7.236,8 L7.236,26.756 C7.236,28.9400109 6.85800378,30.6079942 6.102,31.76 C5.34599622,32.9120058 4.14000828,33.488 2.484,33.488 C1.81199664,33.488 1.12800348,33.4040008 0.432,33.236 L0.432,29.42 C1.46400516,29.5160005 2.14199838,29.2220034 2.466,28.538 C2.79000162,27.8539966 2.952,26.8400067 2.952,25.496 L2.952,8 Z M2.448,2.924 C2.448,2.2039964 2.67599772,1.61000234 3.132,1.142 C3.58800228,0.67399766 4.2359958,0.44 5.076,0.44 C5.9160042,0.44 6.58799748,0.66799772 7.092,1.124 C7.59600252,1.58000228 7.848,2.17999628 7.848,2.924 C7.848,3.66800372 7.59600252,4.25599784 7.092,4.688 C6.58799748,5.12000216 5.9160042,5.336 5.076,5.336 C4.2359958,5.336 3.58800228,5.11400222 3.132,4.67 C2.67599772,4.22599778 2.448,3.6440036 2.448,2.924 Z M14.796,8 L14.796,18.764 C14.796,20.1800071 14.9279987,21.1639972 15.192,21.716 C15.4560013,22.2680028 15.9359965,22.544 16.632,22.544 C17.3040034,22.544 17.8679977,22.2980025 18.324,21.806 C18.7800023,21.3139975 19.103999,20.7200035 19.296,20.024 L19.296,8 L23.58,8 L23.58,20.528 C23.58,21.5120049 23.6159996,22.4779953 23.688,23.426 C23.7600004,24.3740047 23.891999,25.2319962 24.084,26 L20.844,26 L20.088,23.552 L19.98,23.552 C19.5239977,24.3920042 18.9060039,25.0879972 18.126,25.64 C17.3459961,26.1920028 16.3800058,26.468 15.228,26.468 C14.4839963,26.468 13.8240029,26.366001 13.248,26.162 C12.6719971,25.957999 12.180002,25.6040025 11.772,25.1 C11.363998,24.5959975 11.0520011,23.9060044 10.836,23.03 C10.6199989,22.1539956 10.512,21.0440067 10.512,19.7 L10.512,8 L14.796,8 Z M35.028,26 L35.028,15.524 C35.028,14.0119924 34.9080012,12.9620029 34.668,12.374 C34.4279988,11.7859971 33.9600035,11.492 33.264,11.492 C32.6879971,11.492 32.2140019,11.6779981 31.842,12.05 C31.4699981,12.4220019 31.188001,12.8719974 30.996,13.4 L30.996,26 L26.712,26 L26.712,8 L30.024,8 L30.564,10.16 L30.672,10.16 C31.1280023,9.41599628 31.6979966,8.79800246 32.382,8.306 C33.0660034,7.81399754 33.9719944,7.568 35.1,7.568 C36.0360047,7.568 36.7979971,7.77199796 37.386,8.18 C37.9740029,8.58800204 38.4359983,9.30799484 38.772,10.34 C39.2280023,9.47599568 39.8279963,8.79800246 40.572,8.306 C41.3160037,7.81399754 42.191995,7.568 43.2,7.568 C43.992004,7.568 44.6699972,7.66999898 45.234,7.874 C45.7980028,8.07800102 46.2539983,8.43199748 46.602,8.936 C46.9500017,9.44000252 47.2079992,10.1299956 47.376,11.006 C47.5440008,11.8820044 47.628,12.9919933 47.628,14.336 L47.628,26 L43.344,26 L43.344,15.056 C43.344,13.8319939 43.2360011,12.9320029 43.02,12.356 C42.8039989,11.7799971 42.3240037,11.492 41.58,11.492 C40.979997,11.492 40.4940019,11.6659983 40.122,12.014 C39.7499981,12.3620017 39.4800008,12.835997 39.312,13.436 L39.312,26 L35.028,26 Z M50.58,8 L53.784,8 L54.216,10.052 L54.324,10.052 C54.8760028,9.18799568 55.4939966,8.55800198 56.178,8.162 C56.8620034,7.76599802 57.707995,7.568 58.716,7.568 C60.5400091,7.568 61.9139954,8.2579931 62.838,9.638 C63.7620046,11.0180069 64.224,13.3159839 64.224,16.532 C64.224,19.7480161 63.6480058,22.2139914 62.496,23.93 C61.3439942,25.6460086 59.6760109,26.504 57.492,26.504 C56.9159971,26.504 56.424002,26.4560005 56.016,26.36 C55.607998,26.2639995 55.2240018,26.1080011 54.864,25.892 L54.864,33.2 L50.58,33.2 L50.58,8 Z M54.864,21.968 C55.1040012,22.2080012 55.3739985,22.3879994 55.674,22.508 C55.9740015,22.6280006 56.3639976,22.688 56.844,22.688 C57.8040048,22.688 58.5359975,22.2140047 59.04,21.266 C59.5440025,20.3179953 59.796,18.7040114 59.796,16.424 C59.796,14.7199915 59.6040019,13.4540041 59.22,12.626 C58.8359981,11.7979959 58.2000044,11.384 57.312,11.384 C56.111994,11.384 55.2960022,12.0919929 54.864,13.508 L54.864,21.968 Z M72.72,21.212 C72.72,20.7079975 72.5580016,20.2820017 72.234,19.934 C71.9099984,19.5859983 71.4960025,19.2620015 70.992,18.962 C70.4879975,18.6619985 69.9540028,18.3560016 69.39,18.044 C68.8259972,17.7319984 68.2920025,17.3480023 67.788,16.892 C67.2839975,16.4359977 66.8700016,15.8840032 66.546,15.236 C66.2219984,14.5879968 66.06,13.7720049 66.06,12.788 C66.06,11.1079916 66.5159954,9.81200456 67.428,8.9 C68.3400046,7.98799544 69.6839911,7.532 71.46,7.532 C72.5160053,7.532 73.5119953,7.64599886 74.448,7.874 C75.3840047,8.10200114 76.1279972,8.38399832 76.68,8.72 L75.672,12.032 C75.2159977,11.839999 74.6640032,11.6540009 74.016,11.474 C73.3679968,11.2939991 72.7320031,11.204 72.108,11.204 C70.9319941,11.204 70.344,11.6959951 70.344,12.68 C70.344,13.1360023 70.5059984,13.5139985 70.83,13.814 C71.1540016,14.1140015 71.5679975,14.4079986 72.072,14.696 C72.5760025,14.9840014 73.1099972,15.2839984 73.674,15.596 C74.2380028,15.9080016 74.7719975,16.2979977 75.276,16.766 C75.7800025,17.2340023 76.1939984,17.8039966 76.518,18.476 C76.8420016,19.1480034 77.004,19.9759951 77.004,20.96 C77.004,22.6160083 76.500005,23.947995 75.492,24.956 C74.483995,25.964005 72.98401,26.468 70.992,26.468 C70.0079951,26.468 69.0420047,26.3480012 68.094,26.108 C67.1459953,25.8679988 66.3840029,25.5560019 65.808,25.172 L66.996,21.716 C67.5000025,22.0040014 68.0819967,22.2559989 68.742,22.472 C69.4020033,22.6880011 70.0919964,22.796 70.812,22.796 C71.3640028,22.796 71.8199982,22.6700013 72.18,22.418 C72.5400018,22.1659987 72.72,21.7640028 72.72,21.212 Z M77.868,8 L79.848,8 L79.848,4.616 L84.132,3.284 L84.132,8 L87.624,8 L87.624,11.816 L84.132,11.816 L84.132,19.664 C84.132,20.6960052 84.233999,21.4279978 84.438,21.86 C84.642001,22.2920022 85.0079974,22.508 85.536,22.508 C85.8960018,22.508 86.2199986,22.4720004 86.508,22.4 C86.7960014,22.3279996 87.1079983,22.2200007 87.444,22.076 L87.984,25.496 C87.4559974,25.7600013 86.8440035,25.9819991 86.148,26.162 C85.4519965,26.3420009 84.7200038,26.432 83.952,26.432 C82.5839932,26.432 81.5580034,26.036004 80.874,25.244 C80.1899966,24.451996 79.848,23.1200094 79.848,21.248 L79.848,11.816 L77.868,11.816 L77.868,8 Z M89.784,9.08 C90.5040036,8.64799784 91.4039946,8.30000132 92.484,8.036 C93.5640054,7.77199868 94.7879932,7.64 96.156,7.64 C98.1960102,7.64 99.617996,8.16799472 100.422,9.224 C101.226004,10.2800053 101.628,11.7799903 101.628,13.724 C101.628,14.8520056 101.598,15.9619945 101.538,17.054 C101.478,18.1460055 101.436,19.2139948 101.412,20.258 C101.388,21.3020052 101.406,22.3099951 101.466,23.282 C101.526,24.2540049 101.687999,25.1719957 101.952,26.036 L98.46,26.036 L97.776,23.84 L97.632,23.84 C97.2479981,24.5360035 96.7080035,25.1119977 96.012,25.568 C95.3159965,26.0240023 94.4400053,26.252 93.384,26.252 C91.9679929,26.252 90.8520041,25.7780047 90.036,24.83 C89.2199959,23.8819953 88.812,22.6160079 88.812,21.032 C88.812,18.8719892 89.5799923,17.3360046 91.116,16.424 C92.6520077,15.5119954 94.7279869,15.1279993 97.344,15.272 C97.4640006,13.879993 97.3740015,12.8720031 97.074,12.248 C96.7739985,11.6239969 96.1320049,11.312 95.148,11.312 C94.4279964,11.312 93.6840038,11.3959992 92.916,11.564 C92.1479962,11.7320008 91.464003,11.9719984 90.864,12.284 L89.784,9.08 Z M94.932,22.58 C95.5800032,22.58 96.107998,22.4180016 96.516,22.094 C96.924002,21.7699984 97.223999,21.4160019 97.416,21.032 L97.416,18.044 C96.8639972,17.9719996 96.3360025,17.9599998 95.832,18.008 C95.3279975,18.0560002 94.8840019,18.1639992 94.5,18.332 C94.1159981,18.5000008 93.8100011,18.7459984 93.582,19.07 C93.3539989,19.3940016 93.24,19.8079975 93.24,20.312 C93.24,21.0560037 93.3899985,21.6199981 93.69,22.004 C93.9900015,22.3880019 94.4039974,22.58 94.932,22.58 Z M113.112,12.248 C112.535997,12.0319989 112.008002,11.924 111.528,11.924 C110.879997,11.924 110.322002,12.1039982 109.854,12.464 C109.385998,12.8240018 109.068001,13.3279968 108.9,13.976 L108.9,26 L104.616,26 L104.616,8 L107.892,8 L108.396,10.16 L108.54,10.16 C108.852002,9.36799604 109.301997,8.75000222 109.89,8.306 C110.478003,7.86199778 111.155996,7.64 111.924,7.64 C112.500003,7.64 113.063997,7.7599988 113.616,8 L113.112,12.248 Z M114.66,8 L116.64,8 L116.64,4.616 L120.924,3.284 L120.924,8 L124.416,8 L124.416,11.816 L120.924,11.816 L120.924,19.664 C120.924,20.6960052 121.025999,21.4279978 121.23,21.86 C121.434001,22.2920022 121.799997,22.508 122.328,22.508 C122.688002,22.508 123.011999,22.4720004 123.3,22.4 C123.588001,22.3279996 123.899998,22.2200007 124.236,22.076 L124.776,25.496 C124.247997,25.7600013 123.636003,25.9819991 122.94,26.162 C122.243997,26.3420009 121.512004,26.432 120.744,26.432 C119.375993,26.432 118.350003,26.036004 117.666,25.244 C116.981997,24.451996 116.64,23.1200094 116.64,21.248 L116.64,11.816 L114.66,11.816 L114.66,8 Z" id="jumpstart"></path>
                    </g>
                    <path d="M7.87060547,14.0878906 C8.53564786,14.6035182 8.9355462,15.4912046 9.0703125,16.7509766 L7.53222656,16.7509766 C7.43847609,16.1708955 7.22461104,15.6889668 6.890625,15.3051758 C6.55663896,14.9213848 6.0205115,14.7294922 5.28222656,14.7294922 C4.27440902,14.7294922 3.55371311,15.2216748 3.12011719,16.2060547 C2.83886578,16.8447298 2.69824219,17.6328078 2.69824219,18.5703125 C2.69824219,19.5136766 2.89745895,20.307614 3.29589844,20.9521484 C3.69433793,21.5966829 4.32128479,21.9189453 5.17675781,21.9189453 C5.83301109,21.9189453 6.35302542,21.7182637 6.73681641,21.3168945 C7.12060739,20.9155253 7.38574146,20.3662144 7.53222656,19.6689453 L9.0703125,19.6689453 C8.89453037,20.9169984 8.45508164,21.829587 7.75195312,22.4067383 C7.04882461,22.9838896 6.14941954,23.2724609 5.05371094,23.2724609 C3.82323604,23.2724609 2.84180054,22.8227584 2.109375,21.9233398 C1.37694946,21.0239213 1.01074219,19.9003974 1.01074219,18.5527344 C1.01074219,16.9003824 1.41210536,15.6142624 2.21484375,14.6943359 C3.01758214,13.7744095 4.04003285,13.3144531 5.28222656,13.3144531 C6.34277874,13.3144531 7.20556308,13.572263 7.87060547,14.0878906 Z M12.234375,13.5869141 L12.234375,19.8359375 C12.234375,20.3164087 12.3105461,20.7089829 12.4628906,21.0136719 C12.744142,21.5761747 13.2685508,21.8574219 14.0361328,21.8574219 C15.1377008,21.8574219 15.8876933,21.3652393 16.2861328,20.3808594 C16.5029308,19.853513 16.6113281,19.1298874 16.6113281,18.2099609 L16.6113281,13.5869141 L18.1933594,13.5869141 L18.1933594,23 L16.6992188,23 L16.7167969,21.6113281 C16.5117177,21.9687518 16.2568375,22.2705066 15.9521484,22.5166016 C15.3486298,23.0087915 14.6162152,23.2548828 13.7548828,23.2548828 C12.4130792,23.2548828 11.4990259,22.8066451 11.0126953,21.9101562 C10.7490221,21.4296851 10.6171875,20.78809 10.6171875,19.9853516 L10.6171875,13.5869141 L12.234375,13.5869141 Z M20.7070312,13.5869141 L22.2099609,13.5869141 L22.2099609,15.2128906 C22.3330084,14.8964828 22.6347632,14.5112327 23.1152344,14.0571289 C23.5957055,13.6030251 24.1494109,13.3759766 24.7763672,13.3759766 C24.8056642,13.3759766 24.8554684,13.3789062 24.9257812,13.3847656 C24.9960941,13.390625 25.1162101,13.4023437 25.2861328,13.4199219 L25.2861328,15.0898438 C25.1923823,15.0722655 25.1059574,15.0605469 25.0268555,15.0546875 C24.9477535,15.0488281 24.8613286,15.0458984 24.7675781,15.0458984 C23.9706991,15.0458984 23.3584006,15.3022435 22.9306641,15.8149414 C22.5029275,16.3276393 22.2890625,16.9179654 22.2890625,17.5859375 L22.2890625,23 L20.7070312,23 L20.7070312,13.5869141 Z M27.5976562,20.046875 C27.6445315,20.5742214 27.7763661,20.9785142 27.9931641,21.2597656 C28.3916036,21.7695338 29.0830029,22.0244141 30.0673828,22.0244141 C30.6533232,22.0244141 31.1689431,21.8969739 31.6142578,21.6420898 C32.0595725,21.3872058 32.2822266,20.9931667 32.2822266,20.4599609 C32.2822266,20.055662 32.1035174,19.7480479 31.7460938,19.5371094 C31.517577,19.4082025 31.0664096,19.2587899 30.3925781,19.0888672 L29.1357422,18.7724609 C28.3330038,18.5732412 27.7412128,18.3505872 27.3603516,18.1044922 C26.6806607,17.6767557 26.3408203,17.0849647 26.3408203,16.3291016 C26.3408203,15.4384721 26.6616179,14.7177762 27.3032227,14.1669922 C27.9448274,13.6162082 28.8076118,13.3408203 29.8916016,13.3408203 C31.3095774,13.3408203 32.3320281,13.7568318 32.9589844,14.5888672 C33.3515645,15.1162136 33.5419922,15.6845673 33.5302734,16.2939453 L32.0361328,16.2939453 C32.0068358,15.9365217 31.8808605,15.6113296 31.6582031,15.3183594 C31.2949201,14.9023417 30.6650435,14.6943359 29.7685547,14.6943359 C29.1708954,14.6943359 28.7182633,14.8085926 28.4106445,15.0371094 C28.1030258,15.2656261 27.9492188,15.5673809 27.9492188,15.9423828 C27.9492188,16.3525411 28.1513652,16.6806628 28.5556641,16.9267578 C28.7900402,17.0732429 29.1357399,17.2021479 29.5927734,17.3134766 L30.6386719,17.5683594 C31.7753963,17.8437514 32.5371074,18.1103503 32.9238281,18.3681641 C33.5390656,18.772463 33.8466797,19.4081988 33.8466797,20.2753906 C33.8466797,21.1132854 33.5288118,21.836911 32.8930664,22.4462891 C32.257321,23.0556671 31.289069,23.3603516 29.9882812,23.3603516 C28.5878836,23.3603516 27.5961943,23.0424836 27.0131836,22.4067383 C26.4301729,21.7709929 26.1181643,20.9843797 26.0771484,20.046875 L27.5976562,20.046875 Z M41.550293,20.7895508 C41.9399434,19.9956015 42.1347656,19.1123096 42.1347656,18.1396484 C42.1347656,17.2607378 41.994142,16.5459012 41.7128906,15.9951172 C41.2675759,15.1279254 40.5000054,14.6943359 39.4101562,14.6943359 C38.4433545,14.6943359 37.7402366,15.0634729 37.3007812,15.8017578 C36.8613259,16.5400428 36.6416016,17.4306588 36.6416016,18.4736328 C36.6416016,19.4755909 36.8613259,20.3105435 37.3007812,20.9785156 C37.7402366,21.6464877 38.4374952,21.9804688 39.3925781,21.9804688 C40.4414115,21.9804688 41.1606426,21.5835001 41.550293,20.7895508 Z M42.5302734,14.5273438 C43.3681683,15.3359415 43.7871094,16.5253828 43.7871094,18.0957031 C43.7871094,19.6132888 43.4179724,20.8671825 42.6796875,21.8574219 C41.9414026,22.8476612 40.7959062,23.3427734 39.2431641,23.3427734 C37.9482357,23.3427734 36.9199257,22.9047895 36.1582031,22.0288086 C35.3964806,21.1528277 35.015625,19.9765699 35.015625,18.5 C35.015625,16.9179608 35.4169882,15.6582078 36.2197266,14.7207031 C37.022465,13.7831984 38.1005792,13.3144531 39.4541016,13.3144531 C40.6669983,13.3144531 41.6923786,13.718746 42.5302734,14.5273438 Z" id="curso" fill="#999999"></path>
                </g>
            </g>
        </g>
    </g>
</svg>
