
<svg width="90px" height="80px" viewBox="0 0 90 80" version="1.1" xmlns="http://www.w3.org/2000/svg" xmlns:xlink="http://www.w3.org/1999/xlink">
    <!-- Generator: Sketch 45.2 (43514) - http://www.bohemiancoding.com/sketch -->
    <desc>Created with Sketch.</desc>
    <defs></defs>
    <g id="Vendas" stroke="none" stroke-width="1" fill="none" fill-rule="evenodd">
        <g id="Venda-Copy" transform="translate(-1327.000000, -2935.000000)" fill-rule="nonzero" fill="#00D8FF">
            <g id="Group-18-Copy-2" transform="translate(1250.000000, 2935.000000)">
                <g id="if_React.js_logo_1174949" transform="translate(77.000000, 0.000000)">
                    <circle id="Oval" cx="44.9500998" cy="39.8562874" r="8.01596806"></circle>
                    <path d="M44.9500998,58.2195609 C33.6926148,58.2195609 23.8562874,56.8942116 16.49501,54.3712575 C11.7205589,52.742515 7.66467066,50.5708583 4.7744511,48.0958084 C1.70858283,45.4770459 0.0798403194,42.6187625 0.0798403194,39.8562874 C0.0798403194,34.5548902 5.89221557,29.3652695 15.6487026,25.9800399 C23.6327345,23.2015968 34.0439122,21.6526946 44.9341317,21.6526946 C55.6327345,21.6526946 65.9001996,23.1536926 73.8363273,25.9001996 C78.4830339,27.497006 82.3952096,29.5728543 85.1736527,31.8722555 C88.1916168,34.3952096 89.7884232,37.1576846 89.7884232,39.8562874 C89.7884232,45.3652695 83.2894212,50.9381238 72.8143713,54.4031936 C65.4051896,56.8622754 55.50499,58.2195609 44.9500998,58.2195609 Z M44.9500998,25.4850299 C34.6187625,25.4850299 24.3992016,26.9860279 16.9261477,29.5888224 C7.95209581,32.7185629 3.92814371,36.998004 3.92814371,39.8562874 C3.92814371,42.8263473 8.25548902,47.50499 17.740519,50.746507 C24.7025948,53.1257485 34.1237525,54.3872255 44.9500998,54.3872255 C55.1057884,54.3872255 64.5748503,53.1097804 71.6167665,50.762475 C81.4690619,47.489022 85.9720559,42.8103792 85.9720559,39.8562874 C85.9720559,38.3393214 84.8223553,36.5508982 82.7305389,34.8103792 C80.3193613,32.7984032 76.8063872,30.9620758 72.6067864,29.508982 C65.0538922,26.9221557 55.2335329,25.4850299 44.9500998,25.4850299 Z" id="Shape"></path>
                    <path d="M26.762475,79.8083832 C25.1337325,79.8083832 23.6966068,79.4570858 22.4830339,78.754491 C17.9001996,76.1037924 16.3033932,68.4710579 18.2355289,58.3313373 C19.8163673,50.011976 23.6806387,40.239521 29.1257485,30.8023952 C34.4750499,21.5409182 40.8942116,13.3972056 47.2335329,7.88822355 C50.9381238,4.66267465 54.6906188,2.2994012 58.0758483,1.05389222 C61.7644711,-0.303393214 64.9580838,-0.303393214 67.2894212,1.03792415 C72.0638723,3.78443114 73.6447106,12.2155689 71.4091816,23.00998 C69.8283433,30.6746507 66.0598802,39.9201597 60.7904192,49.0698603 C55.1696607,58.8103792 49.1017964,66.6666667 43.241517,71.7924152 C39.4411178,75.1137725 35.5289421,77.5409182 31.9520958,78.8023952 C30.0838323,79.4730539 28.3273453,79.8083832 26.762475,79.8083832 Z M30.7704591,31.760479 L32.4311377,32.7185629 C27.2734531,41.6606786 23.4570858,51.257485 21.988024,59.0499002 C20.2155689,68.3912176 21.9241517,74.011976 24.3832335,75.4331337 C24.99002,75.7844311 25.7884232,75.9760479 26.762475,75.9760479 C29.9401198,75.9760479 34.9381238,73.9640719 40.7185629,68.9181637 C46.259481,64.0798403 52.0558882,56.5429142 57.4690619,47.1696607 C62.5469062,38.3712575 66.1556886,29.5249501 67.6566866,22.259481 C69.748503,12.0878244 67.9441118,5.86027944 65.3732535,4.3752495 C64.0638723,3.6247505 61.9401198,3.72055888 59.3852295,4.66267465 C56.4311377,5.74850299 53.0938124,7.87225549 49.740519,10.7944112 C43.7205589,16.0319361 37.5728543,23.8243513 32.4311377,32.7345309 L30.7704591,31.760479 Z" id="Shape"></path>
                    <path d="M63.1377246,79.8562874 C58.7944112,79.8562874 53.2854291,77.237525 47.5369261,72.2874251 C41.1177645,66.762475 34.5868263,58.5389222 29.1257485,49.1017964 L29.1257485,49.1017964 C23.760479,39.8403194 19.9281437,30.2115768 18.3153693,21.9560878 C17.3732535,17.1337325 17.1976048,12.7105788 17.8043912,9.1497006 C18.4750499,5.26946108 20.0558882,2.50698603 22.4031936,1.1497006 C27.1616766,-1.61277445 35.257485,1.22954092 43.497006,8.55888224 C49.3413174,13.748503 55.4730539,21.6367265 60.758483,30.7704591 C66.3952096,40.510978 70.1796407,49.6926148 71.6806387,57.3253493 C72.6546906,62.2754491 72.8143713,66.8742515 72.1277445,70.6107784 C71.3932136,74.5868263 69.7325349,77.4131737 67.3373253,78.8023952 C66.1397206,79.50499 64.7185629,79.8562874 63.1377246,79.8562874 Z M32.4471058,47.1856287 C37.6207585,56.1277445 44.0399202,64.2235529 50.0439122,69.3812375 C57.245509,75.5768463 62.9620758,76.9181637 65.4371257,75.4810379 C68.007984,73.996008 69.8922156,67.9121756 67.9441118,58.0758483 C66.506986,50.8582834 62.8822355,42.0758483 57.4530938,32.7025948 C52.3592814,23.9041916 46.499002,16.3512974 40.9580838,11.4331337 C33.1976048,4.53493014 26.9061876,2.98602794 24.3353293,4.47105788 C23.0259481,5.22155689 22.0518962,7.12175649 21.5888224,9.80439122 C21.0618762,12.9021956 21.2215569,16.8622754 22.0838323,21.2215569 C23.6167665,29.0618762 27.2894212,38.2754491 32.4471058,47.1856287 L32.4471058,47.1856287 Z" id="Shape"></path>
                </g>
            </g>
        </g>
    </g>
</svg>
