
<svg width="192px" height="234px" viewBox="0 0 192 234" version="1.1" xmlns="http://www.w3.org/2000/svg" xmlns:xlink="http://www.w3.org/1999/xlink">
    <!-- Generator: Sketch 45.2 (43514) - http://www.bohemiancoding.com/sketch -->
    <desc>Created with Sketch.</desc>
    <defs></defs>
    <g id="Vendas" stroke="none" stroke-width="1" fill="none" fill-rule="evenodd">
        <g id="Venda-Copy" transform="translate(-472.000000, -3560.000000)">
            <g id="Group-10" transform="translate(0.000000, 3480.000000)">
                <g id="Group-9" transform="translate(472.000000, 80.000000)">
                    <g id="Group-7">
                        <g id="medal-award-star-like-favourite-bookmark-badge-ecommerce-392e9b02a8dbbbd7" fill-rule="nonzero">
                            <polyline id="path19368-9" fill="#FF9F9F" points="88.73824 178.5832 125.98016 234 133.27504 206.7744 160.49992 214.0704 126.46968 164.216"></polyline>
                            <polyline id="path6467-8-6-1" fill="#FF9F9F" points="88.2616 178.5832 51.01968 234 43.7248 206.7744 16.49992 214.0704 50.53016 164.216"></polyline>
                            <path d="M102.3368,0.7688 C99.92504,0.6248 88.94688,10.4584 86.54424,10.7344 C84.14176,11.0064 71.33152,3.9096 69.01104,4.6024 C66.69056,5.2984 59.69536,18.3192 57.5276,19.4072 C55.35968,20.496 40.88672,18.2408 38.9372,19.6952 C36.98792,21.1456 34.81632,35.7832 33.14504,37.552 C31.47352,39.32 17.07664,42.2136 15.73352,44.2472 C14.3904,46.2808 17.31088,60.7424 16.33672,62.9792 C15.36304,65.216 2.80672,72.896 2.23184,75.2672 C1.65664,77.6392 9.30176,90.2168 9.14312,92.6512 C8.98392,95.0856 -0.23456,106.604 0.02816,109.0264 C0.29056,111.4496 11.76424,120.6152 12.44016,122.9528 C13.11616,125.2904 8.34344,139.2976 9.41168,141.4792 C10.48016,143.6624 24.37904,148.2856 25.80776,150.2464 C27.23656,152.2056 27.49064,166.9872 29.23616,168.6664 C30.98176,170.3448 45.62144,169.8992 47.6308,171.2448 C49.64024,172.5904 54.89416,186.364 57.10632,187.336 C59.31832,188.308 72.94776,182.8328 75.29528,183.4016 C77.64288,183.9696 87.26656,195.084 89.6784,195.2328 C92.09016,195.3848 103.06832,185.5432 105.47096,185.2672 C107.87344,184.9952 120.68368,192.092 123.00416,191.3992 C125.32464,190.7032 132.31984,177.6824 134.4876,176.5944 C136.65552,175.5056 151.12848,177.7608 153.078,176.3064 C155.02728,174.856 157.19888,160.2184 158.87016,158.4496 C160.54168,156.6816 174.92344,153.784 176.26656,151.7504 C177.60968,149.7168 174.6892,135.2552 175.66336,133.0184 C176.63696,130.7816 189.20848,123.1056 189.78336,120.7344 C190.35856,118.3624 182.69832,105.7816 182.85688,103.3472 C183.01608,100.9128 192.23456,89.3944 191.97192,86.9712 C191.70952,84.548 180.25096,75.3864 179.57504,73.0488 C178.89904,70.7112 183.67176,56.704 182.60352,54.5224 C181.53504,52.3392 167.63616,47.716 166.20744,45.7552 C164.77864,43.796 164.52456,29.0144 162.77904,27.3352 C161.03344,25.6568 146.39376,26.1024 144.3844,24.7568 C142.37496,23.4112 137.12104,9.6376 134.90888,8.6656 C132.69688,7.6936 119.05232,13.1656 116.70472,12.596 C114.3572,12.028 104.74864,0.9176 102.3368,0.7688 Z" id="path6501-75-4-7" fill="#FFFFFF"></path>
                            <circle id="path6473-1-8-2" fill="#FE5B5B" cx="96" cy="98" r="68"></circle>
                            <circle id="circle6471-8-8-3" fill="#FFFFFF" cx="96" cy="98" r="56"></circle>
                        </g>
                        <g id="Group-5" transform="translate(73.000000, 59.000000)">
                            <path d="M9.656,38.584 C11.2240078,38.584 12.4159959,38.0560053 13.232,37 C14.0480041,35.9439947 14.456,34.6000082 14.456,32.968 C14.456,29.3519819 12.6640179,27.544 9.08,27.544 L6.248,27.544 L6.248,24.28 L11,16.216 L13.304,14.056 L10.136,14.488 L3.56,14.488 L3.56,9.4 L18.92,9.4 L18.92,12.808 L13.352,21.88 L11.576,23.176 L11.576,23.416 L13.352,23.128 C14.2480045,23.1920003 15.1119958,23.4319979 15.944,23.848 C16.7760042,24.2640021 17.5039969,24.8559962 18.128,25.624 C18.7520031,26.3920038 19.2479982,27.3519942 19.616,28.504 C19.9840018,29.6560058 20.168,31.0159922 20.168,32.584 C20.168,34.4720094 19.9040026,36.1039931 19.376,37.48 C18.8479974,38.8560069 18.1280046,40.0079954 17.216,40.936 C16.3039954,41.8640046 15.2320062,42.5519978 14,43 C12.7679938,43.4480022 11.448007,43.672 10.04,43.672 C8.85599408,43.672 7.60800656,43.5440013 6.296,43.288 C4.98399344,43.0319987 3.94400384,42.6640024 3.176,42.184 L4.712,37.384 C5.38400336,37.7360018 6.119996,38.0239989 6.92,38.248 C7.720004,38.4720011 8.63199488,38.584 9.656,38.584 Z M24.68,26.152 C24.68,23.0159843 24.8959978,20.344011 25.328,18.136 C25.7600022,15.927989 26.3919958,14.128007 27.224,12.736 C28.0560042,11.343993 29.0799939,10.3280032 30.296,9.688 C31.5120061,9.0479968 32.9039922,8.728 34.472,8.728 C36.1360083,8.728 37.5839938,9.0479968 38.816,9.688 C40.0480062,10.3280032 41.0719959,11.343993 41.888,12.736 C42.7040041,14.128007 43.311998,15.927989 43.712,18.136 C44.112002,20.344011 44.312,23.0159843 44.312,26.152 C44.312,29.3200158 44.0880022,32.0159889 43.64,34.24 C43.1919978,36.4640111 42.5520042,38.271993 41.72,39.664 C40.8879958,41.056007 39.8640061,42.0719968 38.648,42.712 C37.4319939,43.3520032 36.0400078,43.672 34.472,43.672 C32.8079917,43.672 31.3600062,43.3440033 30.128,42.688 C28.8959938,42.0319967 27.880004,40.9920071 27.08,39.568 C26.279996,38.1439929 25.680002,36.328011 25.28,34.12 C24.879998,31.911989 24.68,29.2560155 24.68,26.152 Z M30.392,26.152 C30.392,30.4400214 30.7119968,33.58399 31.352,35.584 C31.9920032,37.58401 33.0479926,38.584 34.52,38.584 C35.2240035,38.584 35.8399974,38.3600022 36.368,37.912 C36.8960026,37.4639978 37.3199984,36.744005 37.64,35.752 C37.9600016,34.759995 38.1999992,33.4800078 38.36,31.912 C38.5200008,30.3439922 38.6,28.4240114 38.6,26.152 C38.6,21.8959787 38.2880031,18.7760099 37.664,16.792 C37.0399969,14.8079901 35.9760075,13.816 34.472,13.816 C33.7359963,13.816 33.1120026,14.0399978 32.6,14.488 C32.0879974,14.9360022 31.6720016,15.655995 31.352,16.648 C31.0319984,17.640005 30.7920008,18.9199922 30.632,20.488 C30.4719992,22.0560078 30.392,23.943989 30.392,26.152 Z" id="30" fill="#232323"></path>
                            <path d="M3.524,54.2 C3.81200144,54.1519998 4.1359982,54.1160001 4.496,54.092 C4.8560018,54.0679999 5.22399812,54.0440001 5.6,54.02 C5.97600188,53.9959999 6.33999824,53.98 6.692,53.972 C7.04400176,53.964 7.35599864,53.96 7.628,53.96 C8.95600664,53.96 10.0639956,54.163998 10.952,54.572 C11.8400044,54.980002 12.5519973,55.5559963 13.088,56.3 C13.6240027,57.0440037 14.0039989,57.9359948 14.228,58.976 C14.4520011,60.0160052 14.564,61.1759936 14.564,62.456 C14.564,63.6240058 14.4560011,64.7399947 14.24,65.804 C14.0239989,66.8680053 13.6440027,67.803996 13.1,68.612 C12.5559973,69.420004 11.8200046,70.0639976 10.892,70.544 C9.96399536,71.0240024 8.79600704,71.264 7.388,71.264 C7.17999896,71.264 6.90000176,71.2560001 6.548,71.24 C6.19599824,71.2239999 5.82800192,71.2040001 5.444,71.18 C5.05999808,71.1559999 4.69200176,71.1320001 4.34,71.108 C3.98799824,71.0839999 3.71600096,71.0560002 3.524,71.024 L3.524,54.2 Z M7.94,56.744 C7.68399872,56.744 7.42400132,56.748 7.16,56.756 C6.89599868,56.764 6.69200072,56.7839998 6.548,56.816 L6.548,68.384 C6.59600024,68.4000001 6.6799994,68.412 6.8,68.42 C6.9200006,68.428 7.04799932,68.436 7.184,68.444 C7.32000068,68.452 7.4479994,68.46 7.568,68.468 C7.6880006,68.476 7.77199976,68.48 7.82,68.48 C8.5400036,68.48 9.13199768,68.3120017 9.596,67.976 C10.0600023,67.6399983 10.4239987,67.1920028 10.688,66.632 C10.9520013,66.0719972 11.1359995,65.4280036 11.24,64.7 C11.3440005,63.9719964 11.396,63.208004 11.396,62.408 C11.396,61.6719963 11.3520004,60.9600034 11.264,60.272 C11.1759996,59.5839966 11.0080012,58.9800026 10.76,58.46 C10.5119988,57.9399974 10.1600023,57.5240016 9.704,57.212 C9.24799772,56.8999984 8.6600036,56.744 7.94,56.744 Z M16.628,54.2 L19.652,54.2 L19.652,71 L16.628,71 L16.628,54.2 Z M28.868,67.208 L24.908,67.208 L23.924,71 L20.924,71 L25.796,54.08 L28.172,54.08 L33.068,71 L29.9,71 L28.868,67.208 Z M25.556,64.712 L28.34,64.712 L27.38,60.8 L26.996,58.16 L26.9,58.16 L26.492,60.824 L25.556,64.712 Z M39.98,66.68 C39.98,66.1679974 39.8280015,65.7320018 39.524,65.372 C39.2199985,65.0119982 38.8400023,64.6720016 38.384,64.352 C37.9279977,64.0319984 37.4320027,63.7040017 36.896,63.368 C36.3599973,63.0319983 35.8640023,62.6400022 35.408,62.192 C34.9519977,61.7439978 34.5720015,61.216003 34.268,60.608 C33.9639985,59.999997 33.812,59.2560044 33.812,58.376 C33.812,57.5599959 33.9359988,56.8680028 34.184,56.3 C34.4320012,55.7319972 34.7719978,55.2680018 35.204,54.908 C35.6360022,54.5479982 36.147997,54.2840008 36.74,54.116 C37.332003,53.9479992 37.9639966,53.864 38.636,53.864 C39.4520041,53.864 40.2119965,53.9439992 40.916,54.104 C41.6200035,54.2640008 42.2039977,54.4799986 42.668,54.752 L41.732,57.416 C41.4599986,57.223999 41.0560027,57.0480008 40.52,56.888 C39.9839973,56.7279992 39.4040031,56.648 38.78,56.648 C38.1559969,56.648 37.6760017,56.7759987 37.34,57.032 C37.0039983,57.2880013 36.836,57.6639975 36.836,58.16 C36.836,58.6080022 36.9879985,59.0039983 37.292,59.348 C37.5960015,59.6920017 37.9759977,60.0239984 38.432,60.344 C38.8880023,60.6640016 39.3839973,60.9959983 39.92,61.34 C40.4560027,61.6840017 40.9519977,62.0839977 41.408,62.54 C41.8640023,62.9960023 42.2439985,63.5319969 42.548,64.148 C42.8520015,64.7640031 43.004,65.4959958 43.004,66.344 C43.004,67.1920042 42.8800012,67.9279969 42.632,68.552 C42.3839988,69.1760031 42.0320023,69.691998 41.576,70.1 C41.1199977,70.508002 40.5720032,70.815999 39.932,71.024 C39.2919968,71.232001 38.5800039,71.336 37.796,71.336 C36.803995,71.336 35.9360037,71.240001 35.192,71.048 C34.4479963,70.855999 33.876002,70.6400012 33.476,70.4 L34.46,67.688 C34.7800016,67.880001 35.2199972,68.071999 35.78,68.264 C36.3400028,68.456001 36.9399968,68.552 37.58,68.552 C39.180008,68.552 39.98,67.9280062 39.98,66.68 Z" id="DIAS" fill="#999999"></path>
                        </g>
                    </g>
                </g>
            </g>
        </g>
    </g>
</svg>
