
<svg width="132px" height="132px" viewBox="0 0 132 132" version="1.1" xmlns="http://www.w3.org/2000/svg" xmlns:xlink="http://www.w3.org/1999/xlink">
    <!-- Generator: Sketch 45.2 (43514) - http://www.bohemiancoding.com/sketch -->
    <desc>Created with Sketch.</desc>
    <defs></defs>
    <g id="Vendas" stroke="none" stroke-width="1" fill="none" fill-rule="evenodd">
        <g id="Venda-Copy" transform="translate(-475.000000, -3238.000000)" fill-rule="nonzero">
            <g id="Group-20" transform="translate(425.000000, 3208.000000)">
                <g id="Group-22" transform="translate(50.000000, 30.000000)">
                    <g id="slack-logo-team-management-338f29f5f51e3cd2">
                        <path d="M85.5751875,8.16646875 C83.5694063,1.99185937 76.9374375,-1.38703125 70.7638594,0.61978125 C64.58925,2.6255625 61.2103594,9.25753125 63.2171719,15.4311094 L93.6117188,108.947437 C95.6989688,114.715734 101.929781,117.956953 107.911031,116.235797 C114.150094,114.439875 117.952828,107.813578 115.962,101.686406 L85.5751875,8.16646875" id="Shape" fill="#DFA22F"></path>
                        <path d="M38.4790312,23.4691875 C36.4722187,17.2950937 29.8407656,13.9162031 23.6671875,15.9219844 C17.4920625,17.9282812 14.1126562,24.5597344 16.1199844,30.7343438 L46.5150469,124.251188 C48.6017812,130.018969 54.8331094,133.260703 60.8143594,131.538 C67.0529062,129.743109 70.8556406,123.116813 68.8648125,116.988609 L38.4790312,23.4691875" id="Shape" fill="#3CB187"></path>
                        <path d="M123.833531,85.6169531 C130.008141,83.6111719 133.386,76.9802344 131.380219,70.8051094 C129.374437,64.6315312 122.742469,61.252125 116.568891,63.2584219 L23.0525625,93.654 C17.2842656,95.7402187 14.0430469,101.971031 15.7642031,107.952281 C17.560125,114.190828 24.1864219,117.994078 30.3135938,116.00325 L123.833531,85.6174687" id="Shape" fill="#CE1E5B"></path>
                        <polyline id="Shape" fill="#392538" points="42.5431875 112.029844 64.8939844 104.767781 57.6308906 82.4144063 35.2785469 89.6795625 42.5431875 112.030359"></polyline>
                        <path d="M89.6398594,96.7266094 C98.0899219,93.9819375 105.943922,91.4295938 111.991172,89.4645469 L104.727047,67.1070469 L82.3747031,74.3722031 L89.6398594,96.7266094" id="Shape" fill="#BB242A"></path>
                        <path d="M108.530813,38.5202813 C114.704906,36.5145 118.083797,29.8830469 116.078016,23.7079219 C114.072234,17.5343438 107.440266,14.1554531 101.265656,16.1612344 L7.7488125,46.5573281 C1.98103125,48.6425156 -1.26070313,54.8738438 0.462,60.8550938 C2.25689062,67.093125 8.8831875,70.896375 15.0113906,68.9055469 L108.530813,38.5197656" id="Shape" fill="#72C5CD"></path>
                        <path d="M27.2363438,64.9342031 C33.3232969,62.9562656 41.1711094,60.4059844 49.59075,57.6711094 C46.8460781,49.2200156 44.2937344,41.3660156 42.3286875,35.3177344 L19.9711875,42.5839219 L27.2363438,64.9342031" id="Shape" fill="#248C73"></path>
                        <path d="M74.3325,49.632 L96.6879375,42.367875 C94.2667017,34.9152739 91.8451548,27.4627739 89.4232969,20.010375 L67.0673438,27.2765625 L74.3325,49.632" id="Shape" fill="#62803A"></path>
                    </g>
                </g>
            </g>
        </g>
    </g>
</svg>
